<?xml version="1.0" encoding="utf-8" standalone="no"?>
<!DOCTYPE svg PUBLIC "-//W3C//DTD SVG 1.1//EN"
  "http://www.w3.org/Graphics/SVG/1.1/DTD/svg11.dtd">
<!-- Created with matplotlib (http://matplotlib.org/) -->
<svg height="345.6pt" version="1.1" viewBox="0 0 460.8 345.6" width="460.8pt" xmlns="http://www.w3.org/2000/svg" xmlns:xlink="http://www.w3.org/1999/xlink">
 <defs>
  <style type="text/css">
*{stroke-linecap:butt;stroke-linejoin:round;}
  </style>
 </defs>
 <g id="figure_1">
  <g id="patch_1">
   <path d="M 0 345.6 
L 460.8 345.6 
L 460.8 0 
L 0 0 
z
" style="fill:#ffffff;"/>
  </g>
  <g id="axes_1">
   <g id="patch_2">
    <path d="M 57.6 307.584 
L 414.72 307.584 
L 414.72 41.472 
L 57.6 41.472 
z
" style="fill:#ffffff;"/>
   </g>
   <g id="matplotlib.axis_1">
    <g id="xtick_1">
     <g id="line2d_1">
      <defs>
       <path d="M 0 0 
L 0 3.5 
" id="m2f310146dc" style="stroke:#000000;stroke-width:0.8;"/>
      </defs>
      <g>
       <use style="stroke:#000000;stroke-width:0.8;" x="73.832727" xlink:href="#m2f310146dc" y="307.584"/>
      </g>
     </g>
     <g id="text_1">
      <!-- −3 -->
      <defs>
       <path d="M 10.59375 35.5 
L 73.1875 35.5 
L 73.1875 27.203125 
L 10.59375 27.203125 
z
" id="DejaVuSans-2212"/>
       <path d="M 40.578125 39.3125 
Q 47.65625 37.796875 51.625 33 
Q 55.609375 28.21875 55.609375 21.1875 
Q 55.609375 10.40625 48.1875 4.484375 
Q 40.765625 -1.421875 27.09375 -1.421875 
Q 22.515625 -1.421875 17.65625 -0.515625 
Q 12.796875 0.390625 7.625 2.203125 
L 7.625 11.71875 
Q 11.71875 9.328125 16.59375 8.109375 
Q 21.484375 6.890625 26.8125 6.890625 
Q 36.078125 6.890625 40.9375 10.546875 
Q 45.796875 14.203125 45.796875 21.1875 
Q 45.796875 27.640625 41.28125 31.265625 
Q 36.765625 34.90625 28.71875 34.90625 
L 20.21875 34.90625 
L 20.21875 43.015625 
L 29.109375 43.015625 
Q 36.375 43.015625 40.234375 45.921875 
Q 44.09375 48.828125 44.09375 54.296875 
Q 44.09375 59.90625 40.109375 62.90625 
Q 36.140625 65.921875 28.71875 65.921875 
Q 24.65625 65.921875 20.015625 65.03125 
Q 15.375 64.15625 9.8125 62.3125 
L 9.8125 71.09375 
Q 15.4375 72.65625 20.34375 73.4375 
Q 25.25 74.21875 29.59375 74.21875 
Q 40.828125 74.21875 47.359375 69.109375 
Q 53.90625 64.015625 53.90625 55.328125 
Q 53.90625 49.265625 50.4375 45.09375 
Q 46.96875 40.921875 40.578125 39.3125 
z
" id="DejaVuSans-33"/>
      </defs>
      <g transform="translate(66.461634 322.182437)scale(0.1 -0.1)">
       <use xlink:href="#DejaVuSans-2212"/>
       <use x="83.789062" xlink:href="#DejaVuSans-33"/>
      </g>
     </g>
    </g>
    <g id="xtick_2">
     <g id="line2d_2">
      <g>
       <use style="stroke:#000000;stroke-width:0.8;" x="127.941818" xlink:href="#m2f310146dc" y="307.584"/>
      </g>
     </g>
     <g id="text_2">
      <!-- −2 -->
      <defs>
       <path d="M 19.1875 8.296875 
L 53.609375 8.296875 
L 53.609375 0 
L 7.328125 0 
L 7.328125 8.296875 
Q 12.9375 14.109375 22.625 23.890625 
Q 32.328125 33.6875 34.8125 36.53125 
Q 39.546875 41.84375 41.421875 45.53125 
Q 43.3125 49.21875 43.3125 52.78125 
Q 43.3125 58.59375 39.234375 62.25 
Q 35.15625 65.921875 28.609375 65.921875 
Q 23.96875 65.921875 18.8125 64.3125 
Q 13.671875 62.703125 7.8125 59.421875 
L 7.8125 69.390625 
Q 13.765625 71.78125 18.9375 73 
Q 24.125 74.21875 28.421875 74.21875 
Q 39.75 74.21875 46.484375 68.546875 
Q 53.21875 62.890625 53.21875 53.421875 
Q 53.21875 48.921875 51.53125 44.890625 
Q 49.859375 40.875 45.40625 35.40625 
Q 44.1875 33.984375 37.640625 27.21875 
Q 31.109375 20.453125 19.1875 8.296875 
z
" id="DejaVuSans-32"/>
      </defs>
      <g transform="translate(120.570724 322.182437)scale(0.1 -0.1)">
       <use xlink:href="#DejaVuSans-2212"/>
       <use x="83.789062" xlink:href="#DejaVuSans-32"/>
      </g>
     </g>
    </g>
    <g id="xtick_3">
     <g id="line2d_3">
      <g>
       <use style="stroke:#000000;stroke-width:0.8;" x="182.050909" xlink:href="#m2f310146dc" y="307.584"/>
      </g>
     </g>
     <g id="text_3">
      <!-- −1 -->
      <defs>
       <path d="M 12.40625 8.296875 
L 28.515625 8.296875 
L 28.515625 63.921875 
L 10.984375 60.40625 
L 10.984375 69.390625 
L 28.421875 72.90625 
L 38.28125 72.90625 
L 38.28125 8.296875 
L 54.390625 8.296875 
L 54.390625 0 
L 12.40625 0 
z
" id="DejaVuSans-31"/>
      </defs>
      <g transform="translate(174.679815 322.182437)scale(0.1 -0.1)">
       <use xlink:href="#DejaVuSans-2212"/>
       <use x="83.789062" xlink:href="#DejaVuSans-31"/>
      </g>
     </g>
    </g>
    <g id="xtick_4">
     <g id="line2d_4">
      <g>
       <use style="stroke:#000000;stroke-width:0.8;" x="236.16" xlink:href="#m2f310146dc" y="307.584"/>
      </g>
     </g>
     <g id="text_4">
      <!-- 0 -->
      <defs>
       <path d="M 31.78125 66.40625 
Q 24.171875 66.40625 20.328125 58.90625 
Q 16.5 51.421875 16.5 36.375 
Q 16.5 21.390625 20.328125 13.890625 
Q 24.171875 6.390625 31.78125 6.390625 
Q 39.453125 6.390625 43.28125 13.890625 
Q 47.125 21.390625 47.125 36.375 
Q 47.125 51.421875 43.28125 58.90625 
Q 39.453125 66.40625 31.78125 66.40625 
z
M 31.78125 74.21875 
Q 44.046875 74.21875 50.515625 64.515625 
Q 56.984375 54.828125 56.984375 36.375 
Q 56.984375 17.96875 50.515625 8.265625 
Q 44.046875 -1.421875 31.78125 -1.421875 
Q 19.53125 -1.421875 13.0625 8.265625 
Q 6.59375 17.96875 6.59375 36.375 
Q 6.59375 54.828125 13.0625 64.515625 
Q 19.53125 74.21875 31.78125 74.21875 
z
" id="DejaVuSans-30"/>
      </defs>
      <g transform="translate(232.97875 322.182437)scale(0.1 -0.1)">
       <use xlink:href="#DejaVuSans-30"/>
      </g>
     </g>
    </g>
    <g id="xtick_5">
     <g id="line2d_5">
      <g>
       <use style="stroke:#000000;stroke-width:0.8;" x="290.269091" xlink:href="#m2f310146dc" y="307.584"/>
      </g>
     </g>
     <g id="text_5">
      <!-- 1 -->
      <g transform="translate(287.087841 322.182437)scale(0.1 -0.1)">
       <use xlink:href="#DejaVuSans-31"/>
      </g>
     </g>
    </g>
    <g id="xtick_6">
     <g id="line2d_6">
      <g>
       <use style="stroke:#000000;stroke-width:0.8;" x="344.378182" xlink:href="#m2f310146dc" y="307.584"/>
      </g>
     </g>
     <g id="text_6">
      <!-- 2 -->
      <g transform="translate(341.196932 322.182437)scale(0.1 -0.1)">
       <use xlink:href="#DejaVuSans-32"/>
      </g>
     </g>
    </g>
    <g id="xtick_7">
     <g id="line2d_7">
      <g>
       <use style="stroke:#000000;stroke-width:0.8;" x="398.487273" xlink:href="#m2f310146dc" y="307.584"/>
      </g>
     </g>
     <g id="text_7">
      <!-- 3 -->
      <g transform="translate(395.306023 322.182437)scale(0.1 -0.1)">
       <use xlink:href="#DejaVuSans-33"/>
      </g>
     </g>
    </g>
   </g>
   <g id="matplotlib.axis_2">
    <g id="ytick_1">
     <g id="line2d_8">
      <defs>
       <path d="M 0 0 
L -3.5 0 
" id="m8e015118c9" style="stroke:#000000;stroke-width:0.8;"/>
      </defs>
      <g>
       <use style="stroke:#000000;stroke-width:0.8;" x="57.6" xlink:href="#m8e015118c9" y="297.168"/>
      </g>
     </g>
     <g id="text_8">
      <!-- 0.0 -->
      <defs>
       <path d="M 10.6875 12.40625 
L 21 12.40625 
L 21 0 
L 10.6875 0 
z
" id="DejaVuSans-2e"/>
      </defs>
      <g transform="translate(34.696875 300.967219)scale(0.1 -0.1)">
       <use xlink:href="#DejaVuSans-30"/>
       <use x="63.623047" xlink:href="#DejaVuSans-2e"/>
       <use x="95.410156" xlink:href="#DejaVuSans-30"/>
      </g>
     </g>
    </g>
    <g id="ytick_2">
     <g id="line2d_9">
      <g>
       <use style="stroke:#000000;stroke-width:0.8;" x="57.6" xlink:href="#m8e015118c9" y="248.448"/>
      </g>
     </g>
     <g id="text_9">
      <!-- 0.2 -->
      <g transform="translate(34.696875 252.247219)scale(0.1 -0.1)">
       <use xlink:href="#DejaVuSans-30"/>
       <use x="63.623047" xlink:href="#DejaVuSans-2e"/>
       <use x="95.410156" xlink:href="#DejaVuSans-32"/>
      </g>
     </g>
    </g>
    <g id="ytick_3">
     <g id="line2d_10">
      <g>
       <use style="stroke:#000000;stroke-width:0.8;" x="57.6" xlink:href="#m8e015118c9" y="199.728"/>
      </g>
     </g>
     <g id="text_10">
      <!-- 0.4 -->
      <defs>
       <path d="M 37.796875 64.3125 
L 12.890625 25.390625 
L 37.796875 25.390625 
z
M 35.203125 72.90625 
L 47.609375 72.90625 
L 47.609375 25.390625 
L 58.015625 25.390625 
L 58.015625 17.1875 
L 47.609375 17.1875 
L 47.609375 0 
L 37.796875 0 
L 37.796875 17.1875 
L 4.890625 17.1875 
L 4.890625 26.703125 
z
" id="DejaVuSans-34"/>
      </defs>
      <g transform="translate(34.696875 203.527219)scale(0.1 -0.1)">
       <use xlink:href="#DejaVuSans-30"/>
       <use x="63.623047" xlink:href="#DejaVuSans-2e"/>
       <use x="95.410156" xlink:href="#DejaVuSans-34"/>
      </g>
     </g>
    </g>
    <g id="ytick_4">
     <g id="line2d_11">
      <g>
       <use style="stroke:#000000;stroke-width:0.8;" x="57.6" xlink:href="#m8e015118c9" y="151.008"/>
      </g>
     </g>
     <g id="text_11">
      <!-- 0.6 -->
      <defs>
       <path d="M 33.015625 40.375 
Q 26.375 40.375 22.484375 35.828125 
Q 18.609375 31.296875 18.609375 23.390625 
Q 18.609375 15.53125 22.484375 10.953125 
Q 26.375 6.390625 33.015625 6.390625 
Q 39.65625 6.390625 43.53125 10.953125 
Q 47.40625 15.53125 47.40625 23.390625 
Q 47.40625 31.296875 43.53125 35.828125 
Q 39.65625 40.375 33.015625 40.375 
z
M 52.59375 71.296875 
L 52.59375 62.3125 
Q 48.875 64.0625 45.09375 64.984375 
Q 41.3125 65.921875 37.59375 65.921875 
Q 27.828125 65.921875 22.671875 59.328125 
Q 17.53125 52.734375 16.796875 39.40625 
Q 19.671875 43.65625 24.015625 45.921875 
Q 28.375 48.1875 33.59375 48.1875 
Q 44.578125 48.1875 50.953125 41.515625 
Q 57.328125 34.859375 57.328125 23.390625 
Q 57.328125 12.15625 50.6875 5.359375 
Q 44.046875 -1.421875 33.015625 -1.421875 
Q 20.359375 -1.421875 13.671875 8.265625 
Q 6.984375 17.96875 6.984375 36.375 
Q 6.984375 53.65625 15.1875 63.9375 
Q 23.390625 74.21875 37.203125 74.21875 
Q 40.921875 74.21875 44.703125 73.484375 
Q 48.484375 72.75 52.59375 71.296875 
z
" id="DejaVuSans-36"/>
      </defs>
      <g transform="translate(34.696875 154.807219)scale(0.1 -0.1)">
       <use xlink:href="#DejaVuSans-30"/>
       <use x="63.623047" xlink:href="#DejaVuSans-2e"/>
       <use x="95.410156" xlink:href="#DejaVuSans-36"/>
      </g>
     </g>
    </g>
    <g id="ytick_5">
     <g id="line2d_12">
      <g>
       <use style="stroke:#000000;stroke-width:0.8;" x="57.6" xlink:href="#m8e015118c9" y="102.288"/>
      </g>
     </g>
     <g id="text_12">
      <!-- 0.8 -->
      <defs>
       <path d="M 31.78125 34.625 
Q 24.75 34.625 20.71875 30.859375 
Q 16.703125 27.09375 16.703125 20.515625 
Q 16.703125 13.921875 20.71875 10.15625 
Q 24.75 6.390625 31.78125 6.390625 
Q 38.8125 6.390625 42.859375 10.171875 
Q 46.921875 13.96875 46.921875 20.515625 
Q 46.921875 27.09375 42.890625 30.859375 
Q 38.875 34.625 31.78125 34.625 
z
M 21.921875 38.8125 
Q 15.578125 40.375 12.03125 44.71875 
Q 8.5 49.078125 8.5 55.328125 
Q 8.5 64.0625 14.71875 69.140625 
Q 20.953125 74.21875 31.78125 74.21875 
Q 42.671875 74.21875 48.875 69.140625 
Q 55.078125 64.0625 55.078125 55.328125 
Q 55.078125 49.078125 51.53125 44.71875 
Q 48 40.375 41.703125 38.8125 
Q 48.828125 37.15625 52.796875 32.3125 
Q 56.78125 27.484375 56.78125 20.515625 
Q 56.78125 9.90625 50.3125 4.234375 
Q 43.84375 -1.421875 31.78125 -1.421875 
Q 19.734375 -1.421875 13.25 4.234375 
Q 6.78125 9.90625 6.78125 20.515625 
Q 6.78125 27.484375 10.78125 32.3125 
Q 14.796875 37.15625 21.921875 38.8125 
z
M 18.3125 54.390625 
Q 18.3125 48.734375 21.84375 45.5625 
Q 25.390625 42.390625 31.78125 42.390625 
Q 38.140625 42.390625 41.71875 45.5625 
Q 45.3125 48.734375 45.3125 54.390625 
Q 45.3125 60.0625 41.71875 63.234375 
Q 38.140625 66.40625 31.78125 66.40625 
Q 25.390625 66.40625 21.84375 63.234375 
Q 18.3125 60.0625 18.3125 54.390625 
z
" id="DejaVuSans-38"/>
      </defs>
      <g transform="translate(34.696875 106.087219)scale(0.1 -0.1)">
       <use xlink:href="#DejaVuSans-30"/>
       <use x="63.623047" xlink:href="#DejaVuSans-2e"/>
       <use x="95.410156" xlink:href="#DejaVuSans-38"/>
      </g>
     </g>
    </g>
    <g id="ytick_6">
     <g id="line2d_13">
      <g>
       <use style="stroke:#000000;stroke-width:0.8;" x="57.6" xlink:href="#m8e015118c9" y="53.568"/>
      </g>
     </g>
     <g id="text_13">
      <!-- 1.0 -->
      <g transform="translate(34.696875 57.367219)scale(0.1 -0.1)">
       <use xlink:href="#DejaVuSans-31"/>
       <use x="63.623047" xlink:href="#DejaVuSans-2e"/>
       <use x="95.410156" xlink:href="#DejaVuSans-30"/>
      </g>
     </g>
    </g>
   </g>
   <g id="line2d_14">
    <path clip-path="url(#p0f7ffb4505)" d="M 73.832727 295.488 
L 76.538182 295.430978 
L 79.243636 295.37101 
L 81.949091 295.30789 
L 84.654545 295.241394 
L 87.36 295.171279 
L 90.065455 295.097276 
L 92.770909 295.019094 
L 95.476364 294.936413 
L 98.181818 294.848883 
L 100.887273 294.756119 
L 103.592727 294.657695 
L 106.298182 294.553144 
L 109.003636 294.441948 
L 111.709091 294.323535 
L 114.414545 294.197268 
L 117.12 294.062442 
L 119.825455 293.918267 
L 122.530909 293.763864 
L 125.236364 293.598246 
L 127.941818 293.420308 
L 130.647273 293.228802 
L 133.352727 293.022323 
L 136.058182 292.799277 
L 138.763636 292.557856 
L 141.469091 292.296 
L 144.174545 292.011353 
L 146.88 291.701214 
L 149.585455 291.362471 
L 152.290909 290.991529 
L 154.996364 290.584216 
L 157.701818 290.135667 
L 160.407273 289.640188 
L 163.112727 289.091077 
L 165.818182 288.480411 
L 168.523636 287.798769 
L 171.229091 287.034889 
L 173.934545 286.17522 
L 176.64 285.203363 
L 179.345455 284.09933 
L 182.050909 282.838588 
L 184.756364 281.390798 
L 187.461818 279.718143 
L 190.167273 277.773096 
L 192.872727 275.495402 
L 195.578182 272.808 
L 198.283636 269.611439 
L 200.989091 265.776247 
L 203.694545 261.132497 
L 206.4 255.455671 
L 209.105455 248.448 
L 211.810909 239.71517 
L 214.516364 228.741034 
L 217.221818 214.870703 
L 219.927273 197.331934 
L 222.632727 175.368 
L 225.338182 148.631415 
L 228.043636 118.050353 
L 230.749091 87.168 
L 233.454545 62.937231 
L 236.16 53.568 
L 238.865455 62.937231 
L 241.570909 87.168 
L 244.276364 118.050353 
L 246.981818 148.631415 
L 249.687273 175.368 
L 252.392727 197.331934 
L 255.098182 214.870703 
L 257.803636 228.741034 
L 260.509091 239.71517 
L 263.214545 248.448 
L 265.92 255.455671 
L 268.625455 261.132497 
L 271.330909 265.776247 
L 274.036364 269.611439 
L 276.741818 272.808 
L 279.447273 275.495402 
L 282.152727 277.773096 
L 284.858182 279.718143 
L 287.563636 281.390798 
L 290.269091 282.838588 
L 292.974545 284.09933 
L 295.68 285.203363 
L 298.385455 286.17522 
L 301.090909 287.034889 
L 303.796364 287.798769 
L 306.501818 288.480411 
L 309.207273 289.091077 
L 311.912727 289.640188 
L 314.618182 290.135667 
L 317.323636 290.584216 
L 320.029091 290.991529 
L 322.734545 291.362471 
L 325.44 291.701214 
L 328.145455 292.011353 
L 330.850909 292.296 
L 333.556364 292.557856 
L 336.261818 292.799277 
L 338.967273 293.022323 
L 341.672727 293.228802 
L 344.378182 293.420308 
L 347.083636 293.598246 
L 349.789091 293.763864 
L 352.494545 293.918267 
L 355.2 294.062442 
L 357.905455 294.197268 
L 360.610909 294.323535 
L 363.316364 294.441948 
L 366.021818 294.553144 
L 368.727273 294.657695 
L 371.432727 294.756119 
L 374.138182 294.848883 
L 376.843636 294.936413 
L 379.549091 295.019094 
L 382.254545 295.097276 
L 384.96 295.171279 
L 387.665455 295.241394 
L 390.370909 295.30789 
L 393.076364 295.37101 
L 395.781818 295.430978 
L 398.487273 295.488 
" style="fill:none;stroke:#1f77b4;stroke-linecap:square;stroke-width:1.5;"/>
   </g>
   <g id="line2d_15">
    <path clip-path="url(#p0f7ffb4505)" d="M 73.832727 290.584216 
L 76.538182 290.365431 
L 79.243636 290.135667 
L 81.949091 289.894187 
L 84.654545 289.640188 
L 87.36 289.3728 
L 90.065455 289.091077 
L 92.770909 288.793988 
L 95.476364 288.480411 
L 98.181818 288.149118 
L 100.887273 287.798769 
L 103.592727 287.427896 
L 106.298182 287.034889 
L 109.003636 286.617978 
L 111.709091 286.17522 
L 114.414545 285.704471 
L 117.12 285.203363 
L 119.825455 284.669283 
L 122.530909 284.09933 
L 125.236364 283.490291 
L 127.941818 282.838588 
L 130.647273 282.140239 
L 133.352727 281.390798 
L 136.058182 280.585291 
L 138.763636 279.718143 
L 141.469091 278.783094 
L 144.174545 277.773096 
L 146.88 276.680195 
L 149.585455 275.495402 
L 152.290909 274.208528 
L 154.996364 272.808 
L 157.701818 271.280646 
L 160.407273 269.611439 
L 163.112727 267.783199 
L 165.818182 265.776247 
L 168.523636 263.568 
L 171.229091 261.132497 
L 173.934545 258.43986 
L 176.64 255.455671 
L 179.345455 252.140274 
L 182.050909 248.448 
L 184.756364 244.326351 
L 187.461818 239.71517 
L 190.167273 234.545892 
L 192.872727 228.741034 
L 195.578182 222.214154 
L 198.283636 214.870703 
L 200.989091 206.610379 
L 203.694545 197.331934 
L 206.4 186.941756 
L 209.105455 175.368 
L 211.810909 162.582365 
L 214.516364 148.631415 
L 217.221818 133.678067 
L 219.927273 118.050353 
L 222.632727 102.288 
L 225.338182 87.168 
L 228.043636 73.681761 
L 230.749091 62.937231 
L 233.454545 55.979881 
L 236.16 53.568 
L 238.865455 55.979881 
L 241.570909 62.937231 
L 244.276364 73.681761 
L 246.981818 87.168 
L 249.687273 102.288 
L 252.392727 118.050353 
L 255.098182 133.678067 
L 257.803636 148.631415 
L 260.509091 162.582365 
L 263.214545 175.368 
L 265.92 186.941756 
L 268.625455 197.331934 
L 271.330909 206.610379 
L 274.036364 214.870703 
L 276.741818 222.214154 
L 279.447273 228.741034 
L 282.152727 234.545892 
L 284.858182 239.71517 
L 287.563636 244.326351 
L 290.269091 248.448 
L 292.974545 252.140274 
L 295.68 255.455671 
L 298.385455 258.43986 
L 301.090909 261.132497 
L 303.796364 263.568 
L 306.501818 265.776247 
L 309.207273 267.783199 
L 311.912727 269.611439 
L 314.618182 271.280646 
L 317.323636 272.808 
L 320.029091 274.208528 
L 322.734545 275.495402 
L 325.44 276.680195 
L 328.145455 277.773096 
L 330.850909 278.783094 
L 333.556364 279.718143 
L 336.261818 280.585291 
L 338.967273 281.390798 
L 341.672727 282.140239 
L 344.378182 282.838588 
L 347.083636 283.490291 
L 349.789091 284.09933 
L 352.494545 284.669283 
L 355.2 285.203363 
L 357.905455 285.704471 
L 360.610909 286.17522 
L 363.316364 286.617978 
L 366.021818 287.034889 
L 368.727273 287.427896 
L 371.432727 287.798769 
L 374.138182 288.149118 
L 376.843636 288.480411 
L 379.549091 288.793988 
L 382.254545 289.091077 
L 384.96 289.3728 
L 387.665455 289.640188 
L 390.370909 289.894187 
L 393.076364 290.135667 
L 395.781818 290.365431 
L 398.487273 290.584216 
" style="fill:none;stroke:#ff7f0e;stroke-linecap:square;stroke-width:1.5;"/>
   </g>
   <g id="line2d_16">
    <path clip-path="url(#p0f7ffb4505)" d="M 73.832727 272.808 
L 76.538182 272.061069 
L 79.243636 271.280646 
L 81.949091 270.464794 
L 84.654545 269.611439 
L 87.36 268.718365 
L 90.065455 267.783199 
L 92.770909 266.8034 
L 95.476364 265.776247 
L 98.181818 264.698823 
L 100.887273 263.568 
L 103.592727 262.380424 
L 106.298182 261.132497 
L 109.003636 259.820357 
L 111.709091 258.43986 
L 114.414545 256.986557 
L 117.12 255.455671 
L 119.825455 253.842077 
L 122.530909 252.140274 
L 125.236364 250.344358 
L 127.941818 248.448 
L 130.647273 246.444419 
L 133.352727 244.326351 
L 136.058182 242.086033 
L 138.763636 239.71517 
L 141.469091 237.204923 
L 144.174545 234.545892 
L 146.88 231.728107 
L 149.585455 228.741034 
L 152.290909 225.573584 
L 154.996364 222.214154 
L 157.701818 218.650675 
L 160.407273 214.870703 
L 163.112727 210.861534 
L 165.818182 206.610379 
L 168.523636 202.104585 
L 171.229091 197.331934 
L 173.934545 192.281025 
L 176.64 186.941756 
L 179.345455 181.305931 
L 182.050909 175.368 
L 184.756364 169.12595 
L 187.461818 162.582365 
L 190.167273 155.745649 
L 192.872727 148.631415 
L 195.578182 141.264 
L 198.283636 133.678067 
L 200.989091 125.920197 
L 203.694545 118.050353 
L 206.4 110.143048 
L 209.105455 102.288 
L 211.810909 94.590037 
L 214.516364 87.168 
L 217.221818 80.15241 
L 219.927273 73.681761 
L 222.632727 67.897412 
L 225.338182 62.937231 
L 228.043636 58.928391 
L 230.749091 55.979881 
L 233.454545 54.175481 
L 236.16 53.568 
L 238.865455 54.175481 
L 241.570909 55.979881 
L 244.276364 58.928391 
L 246.981818 62.937231 
L 249.687273 67.897412 
L 252.392727 73.681761 
L 255.098182 80.15241 
L 257.803636 87.168 
L 260.509091 94.590037 
L 263.214545 102.288 
L 265.92 110.143048 
L 268.625455 118.050353 
L 271.330909 125.920197 
L 274.036364 133.678067 
L 276.741818 141.264 
L 279.447273 148.631415 
L 282.152727 155.745649 
L 284.858182 162.582365 
L 287.563636 169.12595 
L 290.269091 175.368 
L 292.974545 181.305931 
L 295.68 186.941756 
L 298.385455 192.281025 
L 301.090909 197.331934 
L 303.796364 202.104585 
L 306.501818 206.610379 
L 309.207273 210.861534 
L 311.912727 214.870703 
L 314.618182 218.650675 
L 317.323636 222.214154 
L 320.029091 225.573584 
L 322.734545 228.741034 
L 325.44 231.728107 
L 328.145455 234.545892 
L 330.850909 237.204923 
L 333.556364 239.71517 
L 336.261818 242.086033 
L 338.967273 244.326351 
L 341.672727 246.444419 
L 344.378182 248.448 
L 347.083636 250.344358 
L 349.789091 252.140274 
L 352.494545 253.842077 
L 355.2 255.455671 
L 357.905455 256.986557 
L 360.610909 258.43986 
L 363.316364 259.820357 
L 366.021818 261.132497 
L 368.727273 262.380424 
L 371.432727 263.568 
L 374.138182 264.698823 
L 376.843636 265.776247 
L 379.549091 266.8034 
L 382.254545 267.783199 
L 384.96 268.718365 
L 387.665455 269.611439 
L 390.370909 270.464794 
L 393.076364 271.280646 
L 395.781818 272.061069 
L 398.487273 272.808 
" style="fill:none;stroke:#2ca02c;stroke-linecap:square;stroke-width:1.5;"/>
   </g>
   <g id="line2d_17">
    <path clip-path="url(#p0f7ffb4505)" d="M 57.6 175.368 
L 414.72 175.368 
" style="fill:none;stroke:#000000;stroke-linecap:square;stroke-width:0.5;"/>
   </g>
   <g id="patch_3">
    <path d="M 57.6 307.584 
L 57.6 41.472 
" style="fill:none;stroke:#000000;stroke-linecap:square;stroke-linejoin:miter;stroke-width:0.8;"/>
   </g>
   <g id="patch_4">
    <path d="M 414.72 307.584 
L 414.72 41.472 
" style="fill:none;stroke:#000000;stroke-linecap:square;stroke-linejoin:miter;stroke-width:0.8;"/>
   </g>
   <g id="patch_5">
    <path d="M 57.6 307.584 
L 414.72 307.584 
" style="fill:none;stroke:#000000;stroke-linecap:square;stroke-linejoin:miter;stroke-width:0.8;"/>
   </g>
   <g id="patch_6">
    <path d="M 57.6 41.472 
L 414.72 41.472 
" style="fill:none;stroke:#000000;stroke-linecap:square;stroke-linejoin:miter;stroke-width:0.8;"/>
   </g>
   <g id="legend_1">
    <g id="patch_7">
     <path d="M 359.816875 93.506375 
L 407.72 93.506375 
Q 409.72 93.506375 409.72 91.506375 
L 409.72 48.472 
Q 409.72 46.472 407.72 46.472 
L 359.816875 46.472 
Q 357.816875 46.472 357.816875 48.472 
L 357.816875 91.506375 
Q 357.816875 93.506375 359.816875 93.506375 
z
" style="fill:#ffffff;opacity:0.8;stroke:#cccccc;stroke-linejoin:miter;"/>
    </g>
    <g id="line2d_18">
     <path d="M 361.816875 54.570438 
L 381.816875 54.570438 
" style="fill:none;stroke:#1f77b4;stroke-linecap:square;stroke-width:1.5;"/>
    </g>
    <g id="line2d_19"/>
    <g id="text_14">
     <!-- 0.5 -->
     <defs>
      <path d="M 10.796875 72.90625 
L 49.515625 72.90625 
L 49.515625 64.59375 
L 19.828125 64.59375 
L 19.828125 46.734375 
Q 21.96875 47.46875 24.109375 47.828125 
Q 26.265625 48.1875 28.421875 48.1875 
Q 40.625 48.1875 47.75 41.5 
Q 54.890625 34.8125 54.890625 23.390625 
Q 54.890625 11.625 47.5625 5.09375 
Q 40.234375 -1.421875 26.90625 -1.421875 
Q 22.3125 -1.421875 17.546875 -0.640625 
Q 12.796875 0.140625 7.71875 1.703125 
L 7.71875 11.625 
Q 12.109375 9.234375 16.796875 8.0625 
Q 21.484375 6.890625 26.703125 6.890625 
Q 35.15625 6.890625 40.078125 11.328125 
Q 45.015625 15.765625 45.015625 23.390625 
Q 45.015625 31 40.078125 35.4375 
Q 35.15625 39.890625 26.703125 39.890625 
Q 22.75 39.890625 18.8125 39.015625 
Q 14.890625 38.140625 10.796875 36.28125 
z
" id="DejaVuSans-35"/>
     </defs>
     <g transform="translate(389.816875 58.070438)scale(0.1 -0.1)">
      <use xlink:href="#DejaVuSans-30"/>
      <use x="63.623047" xlink:href="#DejaVuSans-2e"/>
      <use x="95.410156" xlink:href="#DejaVuSans-35"/>
     </g>
    </g>
    <g id="line2d_20">
     <path d="M 361.816875 69.248563 
L 381.816875 69.248563 
" style="fill:none;stroke:#ff7f0e;stroke-linecap:square;stroke-width:1.5;"/>
    </g>
    <g id="line2d_21"/>
    <g id="text_15">
     <!-- 1.0 -->
     <g transform="translate(389.816875 72.748563)scale(0.1 -0.1)">
      <use xlink:href="#DejaVuSans-31"/>
      <use x="63.623047" xlink:href="#DejaVuSans-2e"/>
      <use x="95.410156" xlink:href="#DejaVuSans-30"/>
     </g>
    </g>
    <g id="line2d_22">
     <path d="M 361.816875 83.926688 
L 381.816875 83.926688 
" style="fill:none;stroke:#2ca02c;stroke-linecap:square;stroke-width:1.5;"/>
    </g>
    <g id="line2d_23"/>
    <g id="text_16">
     <!-- 2.0 -->
     <g transform="translate(389.816875 87.426688)scale(0.1 -0.1)">
      <use xlink:href="#DejaVuSans-32"/>
      <use x="63.623047" xlink:href="#DejaVuSans-2e"/>
      <use x="95.410156" xlink:href="#DejaVuSans-30"/>
     </g>
    </g>
   </g>
  </g>
 </g>
 <defs>
  <clipPath id="p0f7ffb4505">
   <rect height="266.112" width="357.12" x="57.6" y="41.472"/>
  </clipPath>
 </defs>
</svg>
