<?xml version="1.0" encoding="utf-8" standalone="no"?>
<!DOCTYPE svg PUBLIC "-//W3C//DTD SVG 1.1//EN"
  "http://www.w3.org/Graphics/SVG/1.1/DTD/svg11.dtd">
<!-- Created with matplotlib (http://matplotlib.org/) -->
<svg height="345.6pt" version="1.1" viewBox="0 0 460.8 345.6" width="460.8pt" xmlns="http://www.w3.org/2000/svg" xmlns:xlink="http://www.w3.org/1999/xlink">
 <defs>
  <style type="text/css">
*{stroke-linecap:butt;stroke-linejoin:round;}
  </style>
 </defs>
 <g id="figure_1">
  <g id="patch_1">
   <path d="M 0 345.6 
L 460.8 345.6 
L 460.8 0 
L 0 0 
z
" style="fill:#ffffff;"/>
  </g>
  <g id="axes_1">
   <g id="patch_2">
    <path d="M 57.6 307.584 
L 414.72 307.584 
L 414.72 41.472 
L 57.6 41.472 
z
" style="fill:#ffffff;"/>
   </g>
   <g id="matplotlib.axis_1">
    <g id="xtick_1">
     <g id="line2d_1">
      <defs>
       <path d="M 0 0 
L 0 3.5 
" id="m3aee7fd275" style="stroke:#000000;stroke-width:0.8;"/>
      </defs>
      <g>
       <use style="stroke:#000000;stroke-width:0.8;" x="73.832727" xlink:href="#m3aee7fd275" y="307.584"/>
      </g>
     </g>
     <g id="text_1">
      <!-- −3 -->
      <defs>
       <path d="M 10.59375 35.5 
L 73.1875 35.5 
L 73.1875 27.203125 
L 10.59375 27.203125 
z
" id="DejaVuSans-2212"/>
       <path d="M 40.578125 39.3125 
Q 47.65625 37.796875 51.625 33 
Q 55.609375 28.21875 55.609375 21.1875 
Q 55.609375 10.40625 48.1875 4.484375 
Q 40.765625 -1.421875 27.09375 -1.421875 
Q 22.515625 -1.421875 17.65625 -0.515625 
Q 12.796875 0.390625 7.625 2.203125 
L 7.625 11.71875 
Q 11.71875 9.328125 16.59375 8.109375 
Q 21.484375 6.890625 26.8125 6.890625 
Q 36.078125 6.890625 40.9375 10.546875 
Q 45.796875 14.203125 45.796875 21.1875 
Q 45.796875 27.640625 41.28125 31.265625 
Q 36.765625 34.90625 28.71875 34.90625 
L 20.21875 34.90625 
L 20.21875 43.015625 
L 29.109375 43.015625 
Q 36.375 43.015625 40.234375 45.921875 
Q 44.09375 48.828125 44.09375 54.296875 
Q 44.09375 59.90625 40.109375 62.90625 
Q 36.140625 65.921875 28.71875 65.921875 
Q 24.65625 65.921875 20.015625 65.03125 
Q 15.375 64.15625 9.8125 62.3125 
L 9.8125 71.09375 
Q 15.4375 72.65625 20.34375 73.4375 
Q 25.25 74.21875 29.59375 74.21875 
Q 40.828125 74.21875 47.359375 69.109375 
Q 53.90625 64.015625 53.90625 55.328125 
Q 53.90625 49.265625 50.4375 45.09375 
Q 46.96875 40.921875 40.578125 39.3125 
z
" id="DejaVuSans-33"/>
      </defs>
      <g transform="translate(66.461634 322.182437)scale(0.1 -0.1)">
       <use xlink:href="#DejaVuSans-2212"/>
       <use x="83.789062" xlink:href="#DejaVuSans-33"/>
      </g>
     </g>
    </g>
    <g id="xtick_2">
     <g id="line2d_2">
      <g>
       <use style="stroke:#000000;stroke-width:0.8;" x="127.941818" xlink:href="#m3aee7fd275" y="307.584"/>
      </g>
     </g>
     <g id="text_2">
      <!-- −2 -->
      <defs>
       <path d="M 19.1875 8.296875 
L 53.609375 8.296875 
L 53.609375 0 
L 7.328125 0 
L 7.328125 8.296875 
Q 12.9375 14.109375 22.625 23.890625 
Q 32.328125 33.6875 34.8125 36.53125 
Q 39.546875 41.84375 41.421875 45.53125 
Q 43.3125 49.21875 43.3125 52.78125 
Q 43.3125 58.59375 39.234375 62.25 
Q 35.15625 65.921875 28.609375 65.921875 
Q 23.96875 65.921875 18.8125 64.3125 
Q 13.671875 62.703125 7.8125 59.421875 
L 7.8125 69.390625 
Q 13.765625 71.78125 18.9375 73 
Q 24.125 74.21875 28.421875 74.21875 
Q 39.75 74.21875 46.484375 68.546875 
Q 53.21875 62.890625 53.21875 53.421875 
Q 53.21875 48.921875 51.53125 44.890625 
Q 49.859375 40.875 45.40625 35.40625 
Q 44.1875 33.984375 37.640625 27.21875 
Q 31.109375 20.453125 19.1875 8.296875 
z
" id="DejaVuSans-32"/>
      </defs>
      <g transform="translate(120.570724 322.182437)scale(0.1 -0.1)">
       <use xlink:href="#DejaVuSans-2212"/>
       <use x="83.789062" xlink:href="#DejaVuSans-32"/>
      </g>
     </g>
    </g>
    <g id="xtick_3">
     <g id="line2d_3">
      <g>
       <use style="stroke:#000000;stroke-width:0.8;" x="182.050909" xlink:href="#m3aee7fd275" y="307.584"/>
      </g>
     </g>
     <g id="text_3">
      <!-- −1 -->
      <defs>
       <path d="M 12.40625 8.296875 
L 28.515625 8.296875 
L 28.515625 63.921875 
L 10.984375 60.40625 
L 10.984375 69.390625 
L 28.421875 72.90625 
L 38.28125 72.90625 
L 38.28125 8.296875 
L 54.390625 8.296875 
L 54.390625 0 
L 12.40625 0 
z
" id="DejaVuSans-31"/>
      </defs>
      <g transform="translate(174.679815 322.182437)scale(0.1 -0.1)">
       <use xlink:href="#DejaVuSans-2212"/>
       <use x="83.789062" xlink:href="#DejaVuSans-31"/>
      </g>
     </g>
    </g>
    <g id="xtick_4">
     <g id="line2d_4">
      <g>
       <use style="stroke:#000000;stroke-width:0.8;" x="236.16" xlink:href="#m3aee7fd275" y="307.584"/>
      </g>
     </g>
     <g id="text_4">
      <!-- 0 -->
      <defs>
       <path d="M 31.78125 66.40625 
Q 24.171875 66.40625 20.328125 58.90625 
Q 16.5 51.421875 16.5 36.375 
Q 16.5 21.390625 20.328125 13.890625 
Q 24.171875 6.390625 31.78125 6.390625 
Q 39.453125 6.390625 43.28125 13.890625 
Q 47.125 21.390625 47.125 36.375 
Q 47.125 51.421875 43.28125 58.90625 
Q 39.453125 66.40625 31.78125 66.40625 
z
M 31.78125 74.21875 
Q 44.046875 74.21875 50.515625 64.515625 
Q 56.984375 54.828125 56.984375 36.375 
Q 56.984375 17.96875 50.515625 8.265625 
Q 44.046875 -1.421875 31.78125 -1.421875 
Q 19.53125 -1.421875 13.0625 8.265625 
Q 6.59375 17.96875 6.59375 36.375 
Q 6.59375 54.828125 13.0625 64.515625 
Q 19.53125 74.21875 31.78125 74.21875 
z
" id="DejaVuSans-30"/>
      </defs>
      <g transform="translate(232.97875 322.182437)scale(0.1 -0.1)">
       <use xlink:href="#DejaVuSans-30"/>
      </g>
     </g>
    </g>
    <g id="xtick_5">
     <g id="line2d_5">
      <g>
       <use style="stroke:#000000;stroke-width:0.8;" x="290.269091" xlink:href="#m3aee7fd275" y="307.584"/>
      </g>
     </g>
     <g id="text_5">
      <!-- 1 -->
      <g transform="translate(287.087841 322.182437)scale(0.1 -0.1)">
       <use xlink:href="#DejaVuSans-31"/>
      </g>
     </g>
    </g>
    <g id="xtick_6">
     <g id="line2d_6">
      <g>
       <use style="stroke:#000000;stroke-width:0.8;" x="344.378182" xlink:href="#m3aee7fd275" y="307.584"/>
      </g>
     </g>
     <g id="text_6">
      <!-- 2 -->
      <g transform="translate(341.196932 322.182437)scale(0.1 -0.1)">
       <use xlink:href="#DejaVuSans-32"/>
      </g>
     </g>
    </g>
    <g id="xtick_7">
     <g id="line2d_7">
      <g>
       <use style="stroke:#000000;stroke-width:0.8;" x="398.487273" xlink:href="#m3aee7fd275" y="307.584"/>
      </g>
     </g>
     <g id="text_7">
      <!-- 3 -->
      <g transform="translate(395.306023 322.182437)scale(0.1 -0.1)">
       <use xlink:href="#DejaVuSans-33"/>
      </g>
     </g>
    </g>
   </g>
   <g id="matplotlib.axis_2">
    <g id="ytick_1">
     <g id="line2d_8">
      <defs>
       <path d="M 0 0 
L -3.5 0 
" id="m840796248b" style="stroke:#000000;stroke-width:0.8;"/>
      </defs>
      <g>
       <use style="stroke:#000000;stroke-width:0.8;" x="57.6" xlink:href="#m840796248b" y="295.593"/>
      </g>
     </g>
     <g id="text_8">
      <!-- 0.0 -->
      <defs>
       <path d="M 10.6875 12.40625 
L 21 12.40625 
L 21 0 
L 10.6875 0 
z
" id="DejaVuSans-2e"/>
      </defs>
      <g transform="translate(34.696875 299.392219)scale(0.1 -0.1)">
       <use xlink:href="#DejaVuSans-30"/>
       <use x="63.623047" xlink:href="#DejaVuSans-2e"/>
       <use x="95.410156" xlink:href="#DejaVuSans-30"/>
      </g>
     </g>
    </g>
    <g id="ytick_2">
     <g id="line2d_9">
      <g>
       <use style="stroke:#000000;stroke-width:0.8;" x="57.6" xlink:href="#m840796248b" y="247.188"/>
      </g>
     </g>
     <g id="text_9">
      <!-- 0.2 -->
      <g transform="translate(34.696875 250.987219)scale(0.1 -0.1)">
       <use xlink:href="#DejaVuSans-30"/>
       <use x="63.623047" xlink:href="#DejaVuSans-2e"/>
       <use x="95.410156" xlink:href="#DejaVuSans-32"/>
      </g>
     </g>
    </g>
    <g id="ytick_3">
     <g id="line2d_10">
      <g>
       <use style="stroke:#000000;stroke-width:0.8;" x="57.6" xlink:href="#m840796248b" y="198.783"/>
      </g>
     </g>
     <g id="text_10">
      <!-- 0.4 -->
      <defs>
       <path d="M 37.796875 64.3125 
L 12.890625 25.390625 
L 37.796875 25.390625 
z
M 35.203125 72.90625 
L 47.609375 72.90625 
L 47.609375 25.390625 
L 58.015625 25.390625 
L 58.015625 17.1875 
L 47.609375 17.1875 
L 47.609375 0 
L 37.796875 0 
L 37.796875 17.1875 
L 4.890625 17.1875 
L 4.890625 26.703125 
z
" id="DejaVuSans-34"/>
      </defs>
      <g transform="translate(34.696875 202.582219)scale(0.1 -0.1)">
       <use xlink:href="#DejaVuSans-30"/>
       <use x="63.623047" xlink:href="#DejaVuSans-2e"/>
       <use x="95.410156" xlink:href="#DejaVuSans-34"/>
      </g>
     </g>
    </g>
    <g id="ytick_4">
     <g id="line2d_11">
      <g>
       <use style="stroke:#000000;stroke-width:0.8;" x="57.6" xlink:href="#m840796248b" y="150.378"/>
      </g>
     </g>
     <g id="text_11">
      <!-- 0.6 -->
      <defs>
       <path d="M 33.015625 40.375 
Q 26.375 40.375 22.484375 35.828125 
Q 18.609375 31.296875 18.609375 23.390625 
Q 18.609375 15.53125 22.484375 10.953125 
Q 26.375 6.390625 33.015625 6.390625 
Q 39.65625 6.390625 43.53125 10.953125 
Q 47.40625 15.53125 47.40625 23.390625 
Q 47.40625 31.296875 43.53125 35.828125 
Q 39.65625 40.375 33.015625 40.375 
z
M 52.59375 71.296875 
L 52.59375 62.3125 
Q 48.875 64.0625 45.09375 64.984375 
Q 41.3125 65.921875 37.59375 65.921875 
Q 27.828125 65.921875 22.671875 59.328125 
Q 17.53125 52.734375 16.796875 39.40625 
Q 19.671875 43.65625 24.015625 45.921875 
Q 28.375 48.1875 33.59375 48.1875 
Q 44.578125 48.1875 50.953125 41.515625 
Q 57.328125 34.859375 57.328125 23.390625 
Q 57.328125 12.15625 50.6875 5.359375 
Q 44.046875 -1.421875 33.015625 -1.421875 
Q 20.359375 -1.421875 13.671875 8.265625 
Q 6.984375 17.96875 6.984375 36.375 
Q 6.984375 53.65625 15.1875 63.9375 
Q 23.390625 74.21875 37.203125 74.21875 
Q 40.921875 74.21875 44.703125 73.484375 
Q 48.484375 72.75 52.59375 71.296875 
z
" id="DejaVuSans-36"/>
      </defs>
      <g transform="translate(34.696875 154.177219)scale(0.1 -0.1)">
       <use xlink:href="#DejaVuSans-30"/>
       <use x="63.623047" xlink:href="#DejaVuSans-2e"/>
       <use x="95.410156" xlink:href="#DejaVuSans-36"/>
      </g>
     </g>
    </g>
    <g id="ytick_5">
     <g id="line2d_12">
      <g>
       <use style="stroke:#000000;stroke-width:0.8;" x="57.6" xlink:href="#m840796248b" y="101.973"/>
      </g>
     </g>
     <g id="text_12">
      <!-- 0.8 -->
      <defs>
       <path d="M 31.78125 34.625 
Q 24.75 34.625 20.71875 30.859375 
Q 16.703125 27.09375 16.703125 20.515625 
Q 16.703125 13.921875 20.71875 10.15625 
Q 24.75 6.390625 31.78125 6.390625 
Q 38.8125 6.390625 42.859375 10.171875 
Q 46.921875 13.96875 46.921875 20.515625 
Q 46.921875 27.09375 42.890625 30.859375 
Q 38.875 34.625 31.78125 34.625 
z
M 21.921875 38.8125 
Q 15.578125 40.375 12.03125 44.71875 
Q 8.5 49.078125 8.5 55.328125 
Q 8.5 64.0625 14.71875 69.140625 
Q 20.953125 74.21875 31.78125 74.21875 
Q 42.671875 74.21875 48.875 69.140625 
Q 55.078125 64.0625 55.078125 55.328125 
Q 55.078125 49.078125 51.53125 44.71875 
Q 48 40.375 41.703125 38.8125 
Q 48.828125 37.15625 52.796875 32.3125 
Q 56.78125 27.484375 56.78125 20.515625 
Q 56.78125 9.90625 50.3125 4.234375 
Q 43.84375 -1.421875 31.78125 -1.421875 
Q 19.734375 -1.421875 13.25 4.234375 
Q 6.78125 9.90625 6.78125 20.515625 
Q 6.78125 27.484375 10.78125 32.3125 
Q 14.796875 37.15625 21.921875 38.8125 
z
M 18.3125 54.390625 
Q 18.3125 48.734375 21.84375 45.5625 
Q 25.390625 42.390625 31.78125 42.390625 
Q 38.140625 42.390625 41.71875 45.5625 
Q 45.3125 48.734375 45.3125 54.390625 
Q 45.3125 60.0625 41.71875 63.234375 
Q 38.140625 66.40625 31.78125 66.40625 
Q 25.390625 66.40625 21.84375 63.234375 
Q 18.3125 60.0625 18.3125 54.390625 
z
" id="DejaVuSans-38"/>
      </defs>
      <g transform="translate(34.696875 105.772219)scale(0.1 -0.1)">
       <use xlink:href="#DejaVuSans-30"/>
       <use x="63.623047" xlink:href="#DejaVuSans-2e"/>
       <use x="95.410156" xlink:href="#DejaVuSans-38"/>
      </g>
     </g>
    </g>
    <g id="ytick_6">
     <g id="line2d_13">
      <g>
       <use style="stroke:#000000;stroke-width:0.8;" x="57.6" xlink:href="#m840796248b" y="53.568"/>
      </g>
     </g>
     <g id="text_13">
      <!-- 1.0 -->
      <g transform="translate(34.696875 57.367219)scale(0.1 -0.1)">
       <use xlink:href="#DejaVuSans-31"/>
       <use x="63.623047" xlink:href="#DejaVuSans-2e"/>
       <use x="95.410156" xlink:href="#DejaVuSans-30"/>
      </g>
     </g>
    </g>
   </g>
   <g id="line2d_14">
    <path clip-path="url(#p5dda08b439)" d="M 73.832727 271.3905 
L 76.538182 270.648398 
L 79.243636 269.873021 
L 81.949091 269.062444 
L 84.654545 268.214606 
L 87.36 267.327307 
L 90.065455 266.398187 
L 92.770909 265.424723 
L 95.476364 264.404211 
L 98.181818 263.333753 
L 100.887273 262.210241 
L 103.592727 261.030344 
L 106.298182 259.790485 
L 109.003636 258.486829 
L 111.709091 257.115258 
L 114.414545 255.671351 
L 117.12 254.150363 
L 119.825455 252.547202 
L 122.530909 250.856401 
L 125.236364 249.072097 
L 127.941818 247.188 
L 130.647273 245.197373 
L 133.352727 243.093 
L 136.058182 240.867166 
L 138.763636 238.511632 
L 141.469091 236.017615 
L 144.174545 233.375776 
L 146.88 230.57621 
L 149.585455 227.608449 
L 152.290909 224.461479 
L 154.996364 221.123769 
L 157.701818 217.58333 
L 160.407273 213.827797 
L 163.112727 209.84455 
L 165.818182 205.620881 
L 168.523636 201.14422 
L 171.229091 196.402426 
L 173.934545 191.384173 
L 176.64 186.079425 
L 179.345455 180.480039 
L 182.050909 174.5805 
L 184.756364 168.378808 
L 187.461818 161.87753 
L 190.167273 155.085017 
L 192.872727 148.01678 
L 195.578182 140.697 
L 198.283636 133.160114 
L 200.989091 125.452402 
L 203.694545 117.633441 
L 206.4 109.777261 
L 209.105455 101.973 
L 211.810909 94.324809 
L 214.516364 86.950759 
L 217.221818 79.980528 
L 219.927273 73.551716 
L 222.632727 67.804765 
L 225.338182 62.876654 
L 228.043636 58.893733 
L 230.749091 55.964287 
L 233.454545 54.171554 
L 236.16 53.568 
L 238.865455 54.171554 
L 241.570909 55.964287 
L 244.276364 58.893733 
L 246.981818 62.876654 
L 249.687273 67.804765 
L 252.392727 73.551716 
L 255.098182 79.980528 
L 257.803636 86.950759 
L 260.509091 94.324809 
L 263.214545 101.973 
L 265.92 109.777261 
L 268.625455 117.633441 
L 271.330909 125.452402 
L 274.036364 133.160114 
L 276.741818 140.697 
L 279.447273 148.01678 
L 282.152727 155.085017 
L 284.858182 161.87753 
L 287.563636 168.378808 
L 290.269091 174.5805 
L 292.974545 180.480039 
L 295.68 186.079425 
L 298.385455 191.384173 
L 301.090909 196.402426 
L 303.796364 201.14422 
L 306.501818 205.620881 
L 309.207273 209.84455 
L 311.912727 213.827797 
L 314.618182 217.58333 
L 317.323636 221.123769 
L 320.029091 224.461479 
L 322.734545 227.608449 
L 325.44 230.57621 
L 328.145455 233.375776 
L 330.850909 236.017615 
L 333.556364 238.511632 
L 336.261818 240.867166 
L 338.967273 243.093 
L 341.672727 245.197373 
L 344.378182 247.188 
L 347.083636 249.072097 
L 349.789091 250.856401 
L 352.494545 252.547202 
L 355.2 254.150363 
L 357.905455 255.671351 
L 360.610909 257.115258 
L 363.316364 258.486829 
L 366.021818 259.790485 
L 368.727273 261.030344 
L 371.432727 262.210241 
L 374.138182 263.333753 
L 376.843636 264.404211 
L 379.549091 265.424723 
L 382.254545 266.398187 
L 384.96 267.327307 
L 387.665455 268.214606 
L 390.370909 269.062444 
L 393.076364 269.873021 
L 395.781818 270.648398 
L 398.487273 271.3905 
" style="fill:none;stroke:#1f77b4;stroke-linecap:square;stroke-width:1.5;"/>
   </g>
   <g id="line2d_15">
    <path clip-path="url(#p5dda08b439)" d="M 73.832727 289.051784 
L 76.538182 288.834413 
L 79.243636 288.606135 
L 81.949091 288.366216 
L 84.654545 288.113859 
L 87.36 287.8482 
L 90.065455 287.568298 
L 92.770909 287.273131 
L 95.476364 286.961581 
L 98.181818 286.63243 
L 100.887273 286.284346 
L 103.592727 285.915871 
L 106.298182 285.525404 
L 109.003636 285.11119 
L 111.709091 284.671294 
L 114.414545 284.203588 
L 117.12 283.705721 
L 119.825455 283.175093 
L 122.530909 282.608826 
L 125.236364 282.003724 
L 127.941818 281.356235 
L 130.647273 280.662402 
L 133.352727 279.917806 
L 136.058182 279.117506 
L 138.763636 278.255966 
L 141.469091 277.326962 
L 144.174545 276.323494 
L 146.88 275.237659 
L 149.585455 274.060527 
L 152.290909 272.781973 
L 154.996364 271.3905 
L 157.701818 269.873021 
L 160.407273 268.214606 
L 163.112727 266.398187 
L 165.818182 264.404211 
L 168.523636 262.210241 
L 171.229091 259.790485 
L 173.934545 257.115258 
L 176.64 254.150363 
L 179.345455 250.856401 
L 182.050909 247.188 
L 184.756364 243.093 
L 187.461818 238.511632 
L 190.167273 233.375776 
L 192.872727 227.608449 
L 195.578182 221.123769 
L 198.283636 213.827797 
L 200.989091 205.620881 
L 203.694545 196.402426 
L 206.4 186.079425 
L 209.105455 174.5805 
L 211.810909 161.87753 
L 214.516364 148.01678 
L 217.221818 133.160114 
L 219.927273 117.633441 
L 222.632727 101.973 
L 225.338182 86.950759 
L 228.043636 73.551716 
L 230.749091 62.876654 
L 233.454545 55.964287 
L 236.16 53.568 
L 238.865455 55.964287 
L 241.570909 62.876654 
L 244.276364 73.551716 
L 246.981818 86.950759 
L 249.687273 101.973 
L 252.392727 117.633441 
L 255.098182 133.160114 
L 257.803636 148.01678 
L 260.509091 161.87753 
L 263.214545 174.5805 
L 265.92 186.079425 
L 268.625455 196.402426 
L 271.330909 205.620881 
L 274.036364 213.827797 
L 276.741818 221.123769 
L 279.447273 227.608449 
L 282.152727 233.375776 
L 284.858182 238.511632 
L 287.563636 243.093 
L 290.269091 247.188 
L 292.974545 250.856401 
L 295.68 254.150363 
L 298.385455 257.115258 
L 301.090909 259.790485 
L 303.796364 262.210241 
L 306.501818 264.404211 
L 309.207273 266.398187 
L 311.912727 268.214606 
L 314.618182 269.873021 
L 317.323636 271.3905 
L 320.029091 272.781973 
L 322.734545 274.060527 
L 325.44 275.237659 
L 328.145455 276.323494 
L 330.850909 277.326962 
L 333.556364 278.255966 
L 336.261818 279.117506 
L 338.967273 279.917806 
L 341.672727 280.662402 
L 344.378182 281.356235 
L 347.083636 282.003724 
L 349.789091 282.608826 
L 352.494545 283.175093 
L 355.2 283.705721 
L 357.905455 284.203588 
L 360.610909 284.671294 
L 363.316364 285.11119 
L 366.021818 285.525404 
L 368.727273 285.915871 
L 371.432727 286.284346 
L 374.138182 286.63243 
L 376.843636 286.961581 
L 379.549091 287.273131 
L 382.254545 287.568298 
L 384.96 287.8482 
L 387.665455 288.113859 
L 390.370909 288.366216 
L 393.076364 288.606135 
L 395.781818 288.834413 
L 398.487273 289.051784 
" style="fill:none;stroke:#ff7f0e;stroke-linecap:square;stroke-width:1.5;"/>
   </g>
   <g id="line2d_16">
    <path clip-path="url(#p5dda08b439)" d="M 73.832727 293.923862 
L 76.538182 293.867208 
L 79.243636 293.807628 
L 81.949091 293.744917 
L 84.654545 293.678851 
L 87.36 293.609189 
L 90.065455 293.535664 
L 92.770909 293.457988 
L 95.476364 293.375842 
L 98.181818 293.288878 
L 100.887273 293.196713 
L 103.592727 293.098925 
L 106.298182 292.99505 
L 109.003636 292.884573 
L 111.709091 292.766926 
L 114.414545 292.641476 
L 117.12 292.507521 
L 119.825455 292.364278 
L 122.530909 292.210873 
L 125.236364 292.046326 
L 127.941818 291.869538 
L 130.647273 291.679271 
L 133.352727 291.474127 
L 136.058182 291.252523 
L 138.763636 291.012663 
L 141.469091 290.7525 
L 144.174545 290.469693 
L 146.88 290.161559 
L 149.585455 289.825007 
L 152.290909 289.456463 
L 154.996364 289.051784 
L 157.701818 288.606135 
L 160.407273 288.113859 
L 163.112727 287.568298 
L 165.818182 286.961581 
L 168.523636 286.284346 
L 171.229091 285.525404 
L 173.934545 284.671294 
L 176.64 283.705721 
L 179.345455 282.608826 
L 182.050909 281.356235 
L 184.756364 279.917806 
L 187.461818 278.255966 
L 190.167273 276.323494 
L 192.872727 274.060527 
L 195.578182 271.3905 
L 198.283636 268.214606 
L 200.989091 264.404211 
L 203.694545 259.790485 
L 206.4 254.150363 
L 209.105455 247.188 
L 211.810909 238.511632 
L 214.516364 227.608449 
L 217.221818 213.827797 
L 219.927273 196.402426 
L 222.632727 174.5805 
L 225.338182 148.01678 
L 228.043636 117.633441 
L 230.749091 86.950759 
L 233.454545 62.876654 
L 236.16 53.568 
L 238.865455 62.876654 
L 241.570909 86.950759 
L 244.276364 117.633441 
L 246.981818 148.01678 
L 249.687273 174.5805 
L 252.392727 196.402426 
L 255.098182 213.827797 
L 257.803636 227.608449 
L 260.509091 238.511632 
L 263.214545 247.188 
L 265.92 254.150363 
L 268.625455 259.790485 
L 271.330909 264.404211 
L 274.036364 268.214606 
L 276.741818 271.3905 
L 279.447273 274.060527 
L 282.152727 276.323494 
L 284.858182 278.255966 
L 287.563636 279.917806 
L 290.269091 281.356235 
L 292.974545 282.608826 
L 295.68 283.705721 
L 298.385455 284.671294 
L 301.090909 285.525404 
L 303.796364 286.284346 
L 306.501818 286.961581 
L 309.207273 287.568298 
L 311.912727 288.113859 
L 314.618182 288.606135 
L 317.323636 289.051784 
L 320.029091 289.456463 
L 322.734545 289.825007 
L 325.44 290.161559 
L 328.145455 290.469693 
L 330.850909 290.7525 
L 333.556364 291.012663 
L 336.261818 291.252523 
L 338.967273 291.474127 
L 341.672727 291.679271 
L 344.378182 291.869538 
L 347.083636 292.046326 
L 349.789091 292.210873 
L 352.494545 292.364278 
L 355.2 292.507521 
L 357.905455 292.641476 
L 360.610909 292.766926 
L 363.316364 292.884573 
L 366.021818 292.99505 
L 368.727273 293.098925 
L 371.432727 293.196713 
L 374.138182 293.288878 
L 376.843636 293.375842 
L 379.549091 293.457988 
L 382.254545 293.535664 
L 384.96 293.609189 
L 387.665455 293.678851 
L 390.370909 293.744917 
L 393.076364 293.807628 
L 395.781818 293.867208 
L 398.487273 293.923862 
" style="fill:none;stroke:#2ca02c;stroke-linecap:square;stroke-width:1.5;"/>
   </g>
   <g id="line2d_17">
    <path clip-path="url(#p5dda08b439)" d="M 73.832727 295.173546 
L 76.538182 295.159232 
L 79.243636 295.144174 
L 81.949091 295.128318 
L 84.654545 295.111607 
L 87.36 295.093979 
L 90.065455 295.075366 
L 92.770909 295.055692 
L 95.476364 295.034876 
L 98.181818 295.012827 
L 100.887273 294.989446 
L 103.592727 294.964625 
L 106.298182 294.938241 
L 109.003636 294.910162 
L 111.709091 294.880239 
L 114.414545 294.848308 
L 117.12 294.814184 
L 119.825455 294.777662 
L 122.530909 294.738513 
L 125.236364 294.696478 
L 127.941818 294.651268 
L 130.647273 294.602556 
L 133.352727 294.549969 
L 136.058182 294.493086 
L 138.763636 294.431429 
L 141.469091 294.364447 
L 144.174545 294.29151 
L 146.88 294.211894 
L 149.585455 294.124758 
L 152.290909 294.029127 
L 154.996364 293.923862 
L 157.701818 293.807628 
L 160.407273 293.678851 
L 163.112727 293.535664 
L 165.818182 293.375842 
L 168.523636 293.196713 
L 171.229091 292.99505 
L 173.934545 292.766926 
L 176.64 292.507521 
L 179.345455 292.210873 
L 182.050909 291.869538 
L 184.756364 291.474127 
L 187.461818 291.012663 
L 190.167273 290.469693 
L 192.872727 289.825007 
L 195.578182 289.051784 
L 198.283636 288.113859 
L 200.989091 286.961581 
L 203.694545 285.525404 
L 206.4 283.705721 
L 209.105455 281.356235 
L 211.810909 278.255966 
L 214.516364 274.060527 
L 217.221818 268.214606 
L 219.927273 259.790485 
L 222.632727 247.188 
L 225.338182 227.608449 
L 228.043636 196.402426 
L 230.749091 148.01678 
L 233.454545 86.950759 
L 236.16 53.568 
L 238.865455 86.950759 
L 241.570909 148.01678 
L 244.276364 196.402426 
L 246.981818 227.608449 
L 249.687273 247.188 
L 252.392727 259.790485 
L 255.098182 268.214606 
L 257.803636 274.060527 
L 260.509091 278.255966 
L 263.214545 281.356235 
L 265.92 283.705721 
L 268.625455 285.525404 
L 271.330909 286.961581 
L 274.036364 288.113859 
L 276.741818 289.051784 
L 279.447273 289.825007 
L 282.152727 290.469693 
L 284.858182 291.012663 
L 287.563636 291.474127 
L 290.269091 291.869538 
L 292.974545 292.210873 
L 295.68 292.507521 
L 298.385455 292.766926 
L 301.090909 292.99505 
L 303.796364 293.196713 
L 306.501818 293.375842 
L 309.207273 293.535664 
L 311.912727 293.678851 
L 314.618182 293.807628 
L 317.323636 293.923862 
L 320.029091 294.029127 
L 322.734545 294.124758 
L 325.44 294.211894 
L 328.145455 294.29151 
L 330.850909 294.364447 
L 333.556364 294.431429 
L 336.261818 294.493086 
L 338.967273 294.549969 
L 341.672727 294.602556 
L 344.378182 294.651268 
L 347.083636 294.696478 
L 349.789091 294.738513 
L 352.494545 294.777662 
L 355.2 294.814184 
L 357.905455 294.848308 
L 360.610909 294.880239 
L 363.316364 294.910162 
L 366.021818 294.938241 
L 368.727273 294.964625 
L 371.432727 294.989446 
L 374.138182 295.012827 
L 376.843636 295.034876 
L 379.549091 295.055692 
L 382.254545 295.075366 
L 384.96 295.093979 
L 387.665455 295.111607 
L 390.370909 295.128318 
L 393.076364 295.144174 
L 395.781818 295.159232 
L 398.487273 295.173546 
" style="fill:none;stroke:#d62728;stroke-linecap:square;stroke-width:1.5;"/>
   </g>
   <g id="line2d_18">
    <path clip-path="url(#p5dda08b439)" d="M 73.832727 295.488 
L 76.538182 295.484412 
L 79.243636 295.480637 
L 81.949091 295.476662 
L 84.654545 295.472472 
L 87.36 295.468052 
L 90.065455 295.463384 
L 92.770909 295.458449 
L 95.476364 295.453227 
L 98.181818 295.447695 
L 100.887273 295.441829 
L 103.592727 295.4356 
L 106.298182 295.428978 
L 109.003636 295.421929 
L 111.709091 295.414415 
L 114.414545 295.406396 
L 117.12 295.397825 
L 119.825455 295.388649 
L 122.530909 295.378811 
L 125.236364 295.368245 
L 127.941818 295.356878 
L 130.647273 295.344627 
L 133.352727 295.331397 
L 136.058182 295.317081 
L 138.763636 295.301558 
L 141.469091 295.284688 
L 144.174545 295.26631 
L 146.88 295.246239 
L 149.585455 295.224262 
L 152.290909 295.200128 
L 154.996364 295.173546 
L 157.701818 295.144174 
L 160.407273 295.111607 
L 163.112727 295.075366 
L 165.818182 295.034876 
L 168.523636 294.989446 
L 171.229091 294.938241 
L 173.934545 294.880239 
L 176.64 294.814184 
L 179.345455 294.738513 
L 182.050909 294.651268 
L 184.756364 294.549969 
L 187.461818 294.431429 
L 190.167273 294.29151 
L 192.872727 294.124758 
L 195.578182 293.923862 
L 198.283636 293.678851 
L 200.989091 293.375842 
L 203.694545 292.99505 
L 206.4 292.507521 
L 209.105455 291.869538 
L 211.810909 291.012663 
L 214.516364 289.825007 
L 217.221818 288.113859 
L 219.927273 285.525404 
L 222.632727 281.356235 
L 225.338182 274.060527 
L 228.043636 259.790485 
L 230.749091 227.608449 
L 233.454545 148.01678 
L 236.16 53.568 
L 238.865455 148.01678 
L 241.570909 227.608449 
L 244.276364 259.790485 
L 246.981818 274.060527 
L 249.687273 281.356235 
L 252.392727 285.525404 
L 255.098182 288.113859 
L 257.803636 289.825007 
L 260.509091 291.012663 
L 263.214545 291.869538 
L 265.92 292.507521 
L 268.625455 292.99505 
L 271.330909 293.375842 
L 274.036364 293.678851 
L 276.741818 293.923862 
L 279.447273 294.124758 
L 282.152727 294.29151 
L 284.858182 294.431429 
L 287.563636 294.549969 
L 290.269091 294.651268 
L 292.974545 294.738513 
L 295.68 294.814184 
L 298.385455 294.880239 
L 301.090909 294.938241 
L 303.796364 294.989446 
L 306.501818 295.034876 
L 309.207273 295.075366 
L 311.912727 295.111607 
L 314.618182 295.144174 
L 317.323636 295.173546 
L 320.029091 295.200128 
L 322.734545 295.224262 
L 325.44 295.246239 
L 328.145455 295.26631 
L 330.850909 295.284688 
L 333.556364 295.301558 
L 336.261818 295.317081 
L 338.967273 295.331397 
L 341.672727 295.344627 
L 344.378182 295.356878 
L 347.083636 295.368245 
L 349.789091 295.378811 
L 352.494545 295.388649 
L 355.2 295.397825 
L 357.905455 295.406396 
L 360.610909 295.414415 
L 363.316364 295.421929 
L 366.021818 295.428978 
L 368.727273 295.4356 
L 371.432727 295.441829 
L 374.138182 295.447695 
L 376.843636 295.453227 
L 379.549091 295.458449 
L 382.254545 295.463384 
L 384.96 295.468052 
L 387.665455 295.472472 
L 390.370909 295.476662 
L 393.076364 295.480637 
L 395.781818 295.484412 
L 398.487273 295.488 
" style="fill:none;stroke:#9467bd;stroke-linecap:square;stroke-width:1.5;"/>
   </g>
   <g id="line2d_19">
    <path clip-path="url(#p5dda08b439)" d="M 57.6 174.5805 
L 414.72 174.5805 
" style="fill:none;stroke:#000000;stroke-linecap:square;stroke-width:0.5;"/>
   </g>
   <g id="patch_3">
    <path d="M 57.6 307.584 
L 57.6 41.472 
" style="fill:none;stroke:#000000;stroke-linecap:square;stroke-linejoin:miter;stroke-width:0.8;"/>
   </g>
   <g id="patch_4">
    <path d="M 414.72 307.584 
L 414.72 41.472 
" style="fill:none;stroke:#000000;stroke-linecap:square;stroke-linejoin:miter;stroke-width:0.8;"/>
   </g>
   <g id="patch_5">
    <path d="M 57.6 307.584 
L 414.72 307.584 
" style="fill:none;stroke:#000000;stroke-linecap:square;stroke-linejoin:miter;stroke-width:0.8;"/>
   </g>
   <g id="patch_6">
    <path d="M 57.6 41.472 
L 414.72 41.472 
" style="fill:none;stroke:#000000;stroke-linecap:square;stroke-linejoin:miter;stroke-width:0.8;"/>
   </g>
   <g id="legend_1">
    <g id="patch_7">
     <path d="M 347.091875 122.862625 
L 407.72 122.862625 
Q 409.72 122.862625 409.72 120.862625 
L 409.72 48.472 
Q 409.72 46.472 407.72 46.472 
L 347.091875 46.472 
Q 345.091875 46.472 345.091875 48.472 
L 345.091875 120.862625 
Q 345.091875 122.862625 347.091875 122.862625 
z
" style="fill:#ffffff;opacity:0.8;stroke:#cccccc;stroke-linejoin:miter;"/>
    </g>
    <g id="line2d_20">
     <path d="M 349.091875 54.570438 
L 369.091875 54.570438 
" style="fill:none;stroke:#1f77b4;stroke-linecap:square;stroke-width:1.5;"/>
    </g>
    <g id="line2d_21"/>
    <g id="text_14">
     <!-- 2 -->
     <g transform="translate(377.091875 58.070438)scale(0.1 -0.1)">
      <use xlink:href="#DejaVuSans-32"/>
     </g>
    </g>
    <g id="line2d_22">
     <path d="M 349.091875 69.248563 
L 369.091875 69.248563 
" style="fill:none;stroke:#ff7f0e;stroke-linecap:square;stroke-width:1.5;"/>
    </g>
    <g id="line2d_23"/>
    <g id="text_15">
     <!-- 1.0 -->
     <g transform="translate(377.091875 72.748563)scale(0.1 -0.1)">
      <use xlink:href="#DejaVuSans-31"/>
      <use x="63.623047" xlink:href="#DejaVuSans-2e"/>
      <use x="95.410156" xlink:href="#DejaVuSans-30"/>
     </g>
    </g>
    <g id="line2d_24">
     <path d="M 349.091875 83.926688 
L 369.091875 83.926688 
" style="fill:none;stroke:#2ca02c;stroke-linecap:square;stroke-width:1.5;"/>
    </g>
    <g id="line2d_25"/>
    <g id="text_16">
     <!-- 0.5 -->
     <defs>
      <path d="M 10.796875 72.90625 
L 49.515625 72.90625 
L 49.515625 64.59375 
L 19.828125 64.59375 
L 19.828125 46.734375 
Q 21.96875 47.46875 24.109375 47.828125 
Q 26.265625 48.1875 28.421875 48.1875 
Q 40.625 48.1875 47.75 41.5 
Q 54.890625 34.8125 54.890625 23.390625 
Q 54.890625 11.625 47.5625 5.09375 
Q 40.234375 -1.421875 26.90625 -1.421875 
Q 22.3125 -1.421875 17.546875 -0.640625 
Q 12.796875 0.140625 7.71875 1.703125 
L 7.71875 11.625 
Q 12.109375 9.234375 16.796875 8.0625 
Q 21.484375 6.890625 26.703125 6.890625 
Q 35.15625 6.890625 40.078125 11.328125 
Q 45.015625 15.765625 45.015625 23.390625 
Q 45.015625 31 40.078125 35.4375 
Q 35.15625 39.890625 26.703125 39.890625 
Q 22.75 39.890625 18.8125 39.015625 
Q 14.890625 38.140625 10.796875 36.28125 
z
" id="DejaVuSans-35"/>
     </defs>
     <g transform="translate(377.091875 87.426688)scale(0.1 -0.1)">
      <use xlink:href="#DejaVuSans-30"/>
      <use x="63.623047" xlink:href="#DejaVuSans-2e"/>
      <use x="95.410156" xlink:href="#DejaVuSans-35"/>
     </g>
    </g>
    <g id="line2d_26">
     <path d="M 349.091875 98.604813 
L 369.091875 98.604813 
" style="fill:none;stroke:#d62728;stroke-linecap:square;stroke-width:1.5;"/>
    </g>
    <g id="line2d_27"/>
    <g id="text_17">
     <!-- 0.25 -->
     <g transform="translate(377.091875 102.104813)scale(0.1 -0.1)">
      <use xlink:href="#DejaVuSans-30"/>
      <use x="63.623047" xlink:href="#DejaVuSans-2e"/>
      <use x="95.410156" xlink:href="#DejaVuSans-32"/>
      <use x="159.033203" xlink:href="#DejaVuSans-35"/>
     </g>
    </g>
    <g id="line2d_28">
     <path d="M 349.091875 113.282938 
L 369.091875 113.282938 
" style="fill:none;stroke:#9467bd;stroke-linecap:square;stroke-width:1.5;"/>
    </g>
    <g id="line2d_29"/>
    <g id="text_18">
     <!-- 0.125 -->
     <g transform="translate(377.091875 116.782938)scale(0.1 -0.1)">
      <use xlink:href="#DejaVuSans-30"/>
      <use x="63.623047" xlink:href="#DejaVuSans-2e"/>
      <use x="95.410156" xlink:href="#DejaVuSans-31"/>
      <use x="159.033203" xlink:href="#DejaVuSans-32"/>
      <use x="222.65625" xlink:href="#DejaVuSans-35"/>
     </g>
    </g>
   </g>
  </g>
 </g>
 <defs>
  <clipPath id="p5dda08b439">
   <rect height="266.112" width="357.12" x="57.6" y="41.472"/>
  </clipPath>
 </defs>
</svg>
