<?xml version="1.0" encoding="utf-8" standalone="no"?>
<!DOCTYPE svg PUBLIC "-//W3C//DTD SVG 1.1//EN"
  "http://www.w3.org/Graphics/SVG/1.1/DTD/svg11.dtd">
<!-- Created with matplotlib (http://matplotlib.org/) -->
<svg height="345.6pt" version="1.1" viewBox="0 0 460.8 345.6" width="460.8pt" xmlns="http://www.w3.org/2000/svg" xmlns:xlink="http://www.w3.org/1999/xlink">
 <defs>
  <style type="text/css">
*{stroke-linecap:butt;stroke-linejoin:round;}
  </style>
 </defs>
 <g id="figure_1">
  <g id="patch_1">
   <path d="M 0 345.6 
L 460.8 345.6 
L 460.8 0 
L 0 0 
z
" style="fill:#ffffff;"/>
  </g>
  <g id="axes_1">
   <g id="patch_2">
    <path d="M 57.6 292.747034 
L 414.72 292.747034 
L 414.72 56.308966 
L 57.6 56.308966 
z
" style="fill:#ffffff;"/>
   </g>
   <g id="matplotlib.axis_1">
    <g id="xtick_1">
     <g id="line2d_1">
      <defs>
       <path d="M 0 0 
L 0 3.5 
" id="md818702042" style="stroke:#000000;stroke-width:0.8;"/>
      </defs>
      <g>
       <use style="stroke:#000000;stroke-width:0.8;" x="73.832727" xlink:href="#md818702042" y="292.747034"/>
      </g>
     </g>
     <g id="text_1">
      <!-- −3 -->
      <defs>
       <path d="M 10.59375 35.5 
L 73.1875 35.5 
L 73.1875 27.203125 
L 10.59375 27.203125 
z
" id="DejaVuSans-2212"/>
       <path d="M 40.578125 39.3125 
Q 47.65625 37.796875 51.625 33 
Q 55.609375 28.21875 55.609375 21.1875 
Q 55.609375 10.40625 48.1875 4.484375 
Q 40.765625 -1.421875 27.09375 -1.421875 
Q 22.515625 -1.421875 17.65625 -0.515625 
Q 12.796875 0.390625 7.625 2.203125 
L 7.625 11.71875 
Q 11.71875 9.328125 16.59375 8.109375 
Q 21.484375 6.890625 26.8125 6.890625 
Q 36.078125 6.890625 40.9375 10.546875 
Q 45.796875 14.203125 45.796875 21.1875 
Q 45.796875 27.640625 41.28125 31.265625 
Q 36.765625 34.90625 28.71875 34.90625 
L 20.21875 34.90625 
L 20.21875 43.015625 
L 29.109375 43.015625 
Q 36.375 43.015625 40.234375 45.921875 
Q 44.09375 48.828125 44.09375 54.296875 
Q 44.09375 59.90625 40.109375 62.90625 
Q 36.140625 65.921875 28.71875 65.921875 
Q 24.65625 65.921875 20.015625 65.03125 
Q 15.375 64.15625 9.8125 62.3125 
L 9.8125 71.09375 
Q 15.4375 72.65625 20.34375 73.4375 
Q 25.25 74.21875 29.59375 74.21875 
Q 40.828125 74.21875 47.359375 69.109375 
Q 53.90625 64.015625 53.90625 55.328125 
Q 53.90625 49.265625 50.4375 45.09375 
Q 46.96875 40.921875 40.578125 39.3125 
z
" id="DejaVuSans-33"/>
      </defs>
      <g transform="translate(66.461634 307.345472)scale(0.1 -0.1)">
       <use xlink:href="#DejaVuSans-2212"/>
       <use x="83.789062" xlink:href="#DejaVuSans-33"/>
      </g>
     </g>
    </g>
    <g id="xtick_2">
     <g id="line2d_2">
      <g>
       <use style="stroke:#000000;stroke-width:0.8;" x="127.941818" xlink:href="#md818702042" y="292.747034"/>
      </g>
     </g>
     <g id="text_2">
      <!-- −2 -->
      <defs>
       <path d="M 19.1875 8.296875 
L 53.609375 8.296875 
L 53.609375 0 
L 7.328125 0 
L 7.328125 8.296875 
Q 12.9375 14.109375 22.625 23.890625 
Q 32.328125 33.6875 34.8125 36.53125 
Q 39.546875 41.84375 41.421875 45.53125 
Q 43.3125 49.21875 43.3125 52.78125 
Q 43.3125 58.59375 39.234375 62.25 
Q 35.15625 65.921875 28.609375 65.921875 
Q 23.96875 65.921875 18.8125 64.3125 
Q 13.671875 62.703125 7.8125 59.421875 
L 7.8125 69.390625 
Q 13.765625 71.78125 18.9375 73 
Q 24.125 74.21875 28.421875 74.21875 
Q 39.75 74.21875 46.484375 68.546875 
Q 53.21875 62.890625 53.21875 53.421875 
Q 53.21875 48.921875 51.53125 44.890625 
Q 49.859375 40.875 45.40625 35.40625 
Q 44.1875 33.984375 37.640625 27.21875 
Q 31.109375 20.453125 19.1875 8.296875 
z
" id="DejaVuSans-32"/>
      </defs>
      <g transform="translate(120.570724 307.345472)scale(0.1 -0.1)">
       <use xlink:href="#DejaVuSans-2212"/>
       <use x="83.789062" xlink:href="#DejaVuSans-32"/>
      </g>
     </g>
    </g>
    <g id="xtick_3">
     <g id="line2d_3">
      <g>
       <use style="stroke:#000000;stroke-width:0.8;" x="182.050909" xlink:href="#md818702042" y="292.747034"/>
      </g>
     </g>
     <g id="text_3">
      <!-- −1 -->
      <defs>
       <path d="M 12.40625 8.296875 
L 28.515625 8.296875 
L 28.515625 63.921875 
L 10.984375 60.40625 
L 10.984375 69.390625 
L 28.421875 72.90625 
L 38.28125 72.90625 
L 38.28125 8.296875 
L 54.390625 8.296875 
L 54.390625 0 
L 12.40625 0 
z
" id="DejaVuSans-31"/>
      </defs>
      <g transform="translate(174.679815 307.345472)scale(0.1 -0.1)">
       <use xlink:href="#DejaVuSans-2212"/>
       <use x="83.789062" xlink:href="#DejaVuSans-31"/>
      </g>
     </g>
    </g>
    <g id="xtick_4">
     <g id="line2d_4">
      <g>
       <use style="stroke:#000000;stroke-width:0.8;" x="236.16" xlink:href="#md818702042" y="292.747034"/>
      </g>
     </g>
     <g id="text_4">
      <!-- 0 -->
      <defs>
       <path d="M 31.78125 66.40625 
Q 24.171875 66.40625 20.328125 58.90625 
Q 16.5 51.421875 16.5 36.375 
Q 16.5 21.390625 20.328125 13.890625 
Q 24.171875 6.390625 31.78125 6.390625 
Q 39.453125 6.390625 43.28125 13.890625 
Q 47.125 21.390625 47.125 36.375 
Q 47.125 51.421875 43.28125 58.90625 
Q 39.453125 66.40625 31.78125 66.40625 
z
M 31.78125 74.21875 
Q 44.046875 74.21875 50.515625 64.515625 
Q 56.984375 54.828125 56.984375 36.375 
Q 56.984375 17.96875 50.515625 8.265625 
Q 44.046875 -1.421875 31.78125 -1.421875 
Q 19.53125 -1.421875 13.0625 8.265625 
Q 6.59375 17.96875 6.59375 36.375 
Q 6.59375 54.828125 13.0625 64.515625 
Q 19.53125 74.21875 31.78125 74.21875 
z
" id="DejaVuSans-30"/>
      </defs>
      <g transform="translate(232.97875 307.345472)scale(0.1 -0.1)">
       <use xlink:href="#DejaVuSans-30"/>
      </g>
     </g>
    </g>
    <g id="xtick_5">
     <g id="line2d_5">
      <g>
       <use style="stroke:#000000;stroke-width:0.8;" x="290.269091" xlink:href="#md818702042" y="292.747034"/>
      </g>
     </g>
     <g id="text_5">
      <!-- 1 -->
      <g transform="translate(287.087841 307.345472)scale(0.1 -0.1)">
       <use xlink:href="#DejaVuSans-31"/>
      </g>
     </g>
    </g>
    <g id="xtick_6">
     <g id="line2d_6">
      <g>
       <use style="stroke:#000000;stroke-width:0.8;" x="344.378182" xlink:href="#md818702042" y="292.747034"/>
      </g>
     </g>
     <g id="text_6">
      <!-- 2 -->
      <g transform="translate(341.196932 307.345472)scale(0.1 -0.1)">
       <use xlink:href="#DejaVuSans-32"/>
      </g>
     </g>
    </g>
    <g id="xtick_7">
     <g id="line2d_7">
      <g>
       <use style="stroke:#000000;stroke-width:0.8;" x="398.487273" xlink:href="#md818702042" y="292.747034"/>
      </g>
     </g>
     <g id="text_7">
      <!-- 3 -->
      <g transform="translate(395.306023 307.345472)scale(0.1 -0.1)">
       <use xlink:href="#DejaVuSans-33"/>
      </g>
     </g>
    </g>
   </g>
   <g id="matplotlib.axis_2">
    <g id="ytick_1">
     <g id="line2d_8">
      <defs>
       <path d="M 0 0 
L -3.5 0 
" id="mf30ad157c5" style="stroke:#000000;stroke-width:0.8;"/>
      </defs>
      <g>
       <use style="stroke:#000000;stroke-width:0.8;" x="57.6" xlink:href="#mf30ad157c5" y="283.492514"/>
      </g>
     </g>
     <g id="text_8">
      <!-- 0.0 -->
      <defs>
       <path d="M 10.6875 12.40625 
L 21 12.40625 
L 21 0 
L 10.6875 0 
z
" id="DejaVuSans-2e"/>
      </defs>
      <g transform="translate(34.696875 287.291733)scale(0.1 -0.1)">
       <use xlink:href="#DejaVuSans-30"/>
       <use x="63.623047" xlink:href="#DejaVuSans-2e"/>
       <use x="95.410156" xlink:href="#DejaVuSans-30"/>
      </g>
     </g>
    </g>
    <g id="ytick_2">
     <g id="line2d_9">
      <g>
       <use style="stroke:#000000;stroke-width:0.8;" x="57.6" xlink:href="#mf30ad157c5" y="256.437969"/>
      </g>
     </g>
     <g id="text_9">
      <!-- 0.5 -->
      <defs>
       <path d="M 10.796875 72.90625 
L 49.515625 72.90625 
L 49.515625 64.59375 
L 19.828125 64.59375 
L 19.828125 46.734375 
Q 21.96875 47.46875 24.109375 47.828125 
Q 26.265625 48.1875 28.421875 48.1875 
Q 40.625 48.1875 47.75 41.5 
Q 54.890625 34.8125 54.890625 23.390625 
Q 54.890625 11.625 47.5625 5.09375 
Q 40.234375 -1.421875 26.90625 -1.421875 
Q 22.3125 -1.421875 17.546875 -0.640625 
Q 12.796875 0.140625 7.71875 1.703125 
L 7.71875 11.625 
Q 12.109375 9.234375 16.796875 8.0625 
Q 21.484375 6.890625 26.703125 6.890625 
Q 35.15625 6.890625 40.078125 11.328125 
Q 45.015625 15.765625 45.015625 23.390625 
Q 45.015625 31 40.078125 35.4375 
Q 35.15625 39.890625 26.703125 39.890625 
Q 22.75 39.890625 18.8125 39.015625 
Q 14.890625 38.140625 10.796875 36.28125 
z
" id="DejaVuSans-35"/>
      </defs>
      <g transform="translate(34.696875 260.237187)scale(0.1 -0.1)">
       <use xlink:href="#DejaVuSans-30"/>
       <use x="63.623047" xlink:href="#DejaVuSans-2e"/>
       <use x="95.410156" xlink:href="#DejaVuSans-35"/>
      </g>
     </g>
    </g>
    <g id="ytick_3">
     <g id="line2d_10">
      <g>
       <use style="stroke:#000000;stroke-width:0.8;" x="57.6" xlink:href="#mf30ad157c5" y="229.383423"/>
      </g>
     </g>
     <g id="text_10">
      <!-- 1.0 -->
      <g transform="translate(34.696875 233.182642)scale(0.1 -0.1)">
       <use xlink:href="#DejaVuSans-31"/>
       <use x="63.623047" xlink:href="#DejaVuSans-2e"/>
       <use x="95.410156" xlink:href="#DejaVuSans-30"/>
      </g>
     </g>
    </g>
    <g id="ytick_4">
     <g id="line2d_11">
      <g>
       <use style="stroke:#000000;stroke-width:0.8;" x="57.6" xlink:href="#mf30ad157c5" y="202.328878"/>
      </g>
     </g>
     <g id="text_11">
      <!-- 1.5 -->
      <g transform="translate(34.696875 206.128096)scale(0.1 -0.1)">
       <use xlink:href="#DejaVuSans-31"/>
       <use x="63.623047" xlink:href="#DejaVuSans-2e"/>
       <use x="95.410156" xlink:href="#DejaVuSans-35"/>
      </g>
     </g>
    </g>
    <g id="ytick_5">
     <g id="line2d_12">
      <g>
       <use style="stroke:#000000;stroke-width:0.8;" x="57.6" xlink:href="#mf30ad157c5" y="175.274332"/>
      </g>
     </g>
     <g id="text_12">
      <!-- 2.0 -->
      <g transform="translate(34.696875 179.073551)scale(0.1 -0.1)">
       <use xlink:href="#DejaVuSans-32"/>
       <use x="63.623047" xlink:href="#DejaVuSans-2e"/>
       <use x="95.410156" xlink:href="#DejaVuSans-30"/>
      </g>
     </g>
    </g>
    <g id="ytick_6">
     <g id="line2d_13">
      <g>
       <use style="stroke:#000000;stroke-width:0.8;" x="57.6" xlink:href="#mf30ad157c5" y="148.219787"/>
      </g>
     </g>
     <g id="text_13">
      <!-- 2.5 -->
      <g transform="translate(34.696875 152.019006)scale(0.1 -0.1)">
       <use xlink:href="#DejaVuSans-32"/>
       <use x="63.623047" xlink:href="#DejaVuSans-2e"/>
       <use x="95.410156" xlink:href="#DejaVuSans-35"/>
      </g>
     </g>
    </g>
    <g id="ytick_7">
     <g id="line2d_14">
      <g>
       <use style="stroke:#000000;stroke-width:0.8;" x="57.6" xlink:href="#mf30ad157c5" y="121.165241"/>
      </g>
     </g>
     <g id="text_14">
      <!-- 3.0 -->
      <g transform="translate(34.696875 124.96446)scale(0.1 -0.1)">
       <use xlink:href="#DejaVuSans-33"/>
       <use x="63.623047" xlink:href="#DejaVuSans-2e"/>
       <use x="95.410156" xlink:href="#DejaVuSans-30"/>
      </g>
     </g>
    </g>
    <g id="ytick_8">
     <g id="line2d_15">
      <g>
       <use style="stroke:#000000;stroke-width:0.8;" x="57.6" xlink:href="#mf30ad157c5" y="94.110696"/>
      </g>
     </g>
     <g id="text_15">
      <!-- 3.5 -->
      <g transform="translate(34.696875 97.909915)scale(0.1 -0.1)">
       <use xlink:href="#DejaVuSans-33"/>
       <use x="63.623047" xlink:href="#DejaVuSans-2e"/>
       <use x="95.410156" xlink:href="#DejaVuSans-35"/>
      </g>
     </g>
    </g>
    <g id="ytick_9">
     <g id="line2d_16">
      <g>
       <use style="stroke:#000000;stroke-width:0.8;" x="57.6" xlink:href="#mf30ad157c5" y="67.05615"/>
      </g>
     </g>
     <g id="text_16">
      <!-- 4.0 -->
      <defs>
       <path d="M 37.796875 64.3125 
L 12.890625 25.390625 
L 37.796875 25.390625 
z
M 35.203125 72.90625 
L 47.609375 72.90625 
L 47.609375 25.390625 
L 58.015625 25.390625 
L 58.015625 17.1875 
L 47.609375 17.1875 
L 47.609375 0 
L 37.796875 0 
L 37.796875 17.1875 
L 4.890625 17.1875 
L 4.890625 26.703125 
z
" id="DejaVuSans-34"/>
      </defs>
      <g transform="translate(34.696875 70.855369)scale(0.1 -0.1)">
       <use xlink:href="#DejaVuSans-34"/>
       <use x="63.623047" xlink:href="#DejaVuSans-2e"/>
       <use x="95.410156" xlink:href="#DejaVuSans-30"/>
      </g>
     </g>
    </g>
   </g>
   <g id="line2d_17">
    <path clip-path="url(#pae4751ae50)" d="M 73.832727 281.99985 
L 76.538182 281.949186 
L 79.243636 281.895905 
L 81.949091 281.839823 
L 84.654545 281.780743 
L 87.36 281.718446 
L 90.065455 281.652695 
L 92.770909 281.583231 
L 95.476364 281.50977 
L 98.181818 281.432 
L 100.887273 281.34958 
L 103.592727 281.262131 
L 106.298182 281.169238 
L 109.003636 281.070442 
L 111.709091 280.965233 
L 114.414545 280.853046 
L 117.12 280.733254 
L 119.825455 280.605156 
L 122.530909 280.46797 
L 125.236364 280.320821 
L 127.941818 280.162724 
L 130.647273 279.992573 
L 133.352727 279.809118 
L 136.058182 279.610944 
L 138.763636 279.396444 
L 141.469091 279.163787 
L 144.174545 278.910881 
L 146.88 278.635325 
L 149.585455 278.334355 
L 152.290909 278.004777 
L 154.996364 277.642883 
L 157.701818 277.244351 
L 160.407273 276.804122 
L 163.112727 276.316242 
L 165.818182 275.773671 
L 168.523636 275.168039 
L 171.229091 274.489338 
L 173.934545 273.72553 
L 176.64 272.862044 
L 179.345455 271.881121 
L 182.050909 270.760963 
L 184.756364 269.474615 
L 187.461818 267.988477 
L 190.167273 266.26032 
L 192.872727 264.23661 
L 195.578182 261.848878 
L 198.283636 259.008763 
L 200.989091 255.60123 
L 203.694545 251.475301 
L 206.4 246.431493 
L 209.105455 240.205241 
L 211.810909 232.446202 
L 214.516364 222.695783 
L 217.221818 210.372121 
L 219.927273 194.789086 
L 222.632727 175.274332 
L 225.338182 151.519122 
L 228.043636 124.348129 
L 230.749091 96.909442 
L 233.454545 75.380626 
L 236.16 67.05615 
L 238.865455 75.380626 
L 241.570909 96.909442 
L 244.276364 124.348129 
L 246.981818 151.519122 
L 249.687273 175.274332 
L 252.392727 194.789086 
L 255.098182 210.372121 
L 257.803636 222.695783 
L 260.509091 232.446202 
L 263.214545 240.205241 
L 265.92 246.431493 
L 268.625455 251.475301 
L 271.330909 255.60123 
L 274.036364 259.008763 
L 276.741818 261.848878 
L 279.447273 264.23661 
L 282.152727 266.26032 
L 284.858182 267.988477 
L 287.563636 269.474615 
L 290.269091 270.760963 
L 292.974545 271.881121 
L 295.68 272.862044 
L 298.385455 273.72553 
L 301.090909 274.489338 
L 303.796364 275.168039 
L 306.501818 275.773671 
L 309.207273 276.316242 
L 311.912727 276.804122 
L 314.618182 277.244351 
L 317.323636 277.642883 
L 320.029091 278.004777 
L 322.734545 278.334355 
L 325.44 278.635325 
L 328.145455 278.910881 
L 330.850909 279.163787 
L 333.556364 279.396444 
L 336.261818 279.610944 
L 338.967273 279.809118 
L 341.672727 279.992573 
L 344.378182 280.162724 
L 347.083636 280.320821 
L 349.789091 280.46797 
L 352.494545 280.605156 
L 355.2 280.733254 
L 357.905455 280.853046 
L 360.610909 280.965233 
L 363.316364 281.070442 
L 366.021818 281.169238 
L 368.727273 281.262131 
L 371.432727 281.34958 
L 374.138182 281.432 
L 376.843636 281.50977 
L 379.549091 281.583231 
L 382.254545 281.652695 
L 384.96 281.718446 
L 387.665455 281.780743 
L 390.370909 281.839823 
L 393.076364 281.895905 
L 395.781818 281.949186 
L 398.487273 281.99985 
" style="fill:none;stroke:#1f77b4;stroke-linecap:square;stroke-width:1.5;"/>
   </g>
   <g id="line2d_18">
    <path clip-path="url(#pae4751ae50)" d="M 73.832727 280.567698 
L 76.538182 280.470504 
L 79.243636 280.368433 
L 81.949091 280.261156 
L 84.654545 280.148318 
L 87.36 280.029532 
L 90.065455 279.904378 
L 92.770909 279.772398 
L 95.476364 279.633093 
L 98.181818 279.485917 
L 100.887273 279.330276 
L 103.592727 279.165518 
L 106.298182 278.990926 
L 109.003636 278.805715 
L 111.709091 278.609022 
L 114.414545 278.399894 
L 117.12 278.177279 
L 119.825455 277.940016 
L 122.530909 277.686818 
L 125.236364 277.416255 
L 127.941818 277.126739 
L 130.647273 276.8165 
L 133.352727 276.483565 
L 136.058182 276.125722 
L 138.763636 275.740495 
L 141.469091 275.325104 
L 144.174545 274.876417 
L 146.88 274.390901 
L 149.585455 273.864562 
L 152.290909 273.292874 
L 154.996364 272.670696 
L 157.701818 271.992176 
L 160.407273 271.250638 
L 163.112727 270.438451 
L 165.818182 269.546872 
L 168.523636 268.565868 
L 171.229091 267.483907 
L 173.934545 266.287716 
L 176.64 264.962004 
L 179.345455 263.489153 
L 182.050909 261.848878 
L 184.756364 260.017854 
L 187.461818 257.969358 
L 190.167273 255.67293 
L 192.872727 253.094148 
L 195.578182 250.194612 
L 198.283636 246.932318 
L 200.989091 243.262707 
L 203.694545 239.1408 
L 206.4 234.525011 
L 209.105455 229.383423 
L 211.810909 223.703463 
L 214.516364 217.505818 
L 217.221818 210.862862 
L 219.927273 203.920322 
L 222.632727 196.917969 
L 225.338182 190.200978 
L 228.043636 184.209778 
L 230.749091 179.43657 
L 233.454545 176.345799 
L 236.16 175.274332 
L 238.865455 176.345799 
L 241.570909 179.43657 
L 244.276364 184.209778 
L 246.981818 190.200978 
L 249.687273 196.917969 
L 252.392727 203.920322 
L 255.098182 210.862862 
L 257.803636 217.505818 
L 260.509091 223.703463 
L 263.214545 229.383423 
L 265.92 234.525011 
L 268.625455 239.1408 
L 271.330909 243.262707 
L 274.036364 246.932318 
L 276.741818 250.194612 
L 279.447273 253.094148 
L 282.152727 255.67293 
L 284.858182 257.969358 
L 287.563636 260.017854 
L 290.269091 261.848878 
L 292.974545 263.489153 
L 295.68 264.962004 
L 298.385455 266.287716 
L 301.090909 267.483907 
L 303.796364 268.565868 
L 306.501818 269.546872 
L 309.207273 270.438451 
L 311.912727 271.250638 
L 314.618182 271.992176 
L 317.323636 272.670696 
L 320.029091 273.292874 
L 322.734545 273.864562 
L 325.44 274.390901 
L 328.145455 274.876417 
L 330.850909 275.325104 
L 333.556364 275.740495 
L 336.261818 276.125722 
L 338.967273 276.483565 
L 341.672727 276.8165 
L 344.378182 277.126739 
L 347.083636 277.416255 
L 349.789091 277.686818 
L 352.494545 277.940016 
L 355.2 278.177279 
L 357.905455 278.399894 
L 360.610909 278.609022 
L 363.316364 278.805715 
L 366.021818 278.990926 
L 368.727273 279.165518 
L 371.432727 279.330276 
L 374.138182 279.485917 
L 376.843636 279.633093 
L 379.549091 279.772398 
L 382.254545 279.904378 
L 384.96 280.029532 
L 387.665455 280.148318 
L 390.370909 280.261156 
L 393.076364 280.368433 
L 395.781818 280.470504 
L 398.487273 280.567698 
" style="fill:none;stroke:#ff7f0e;stroke-linecap:square;stroke-width:1.5;"/>
   </g>
   <g id="line2d_19">
    <path clip-path="url(#pae4751ae50)" d="M 73.832727 278.081605 
L 76.538182 277.915695 
L 79.243636 277.742345 
L 81.949091 277.561126 
L 84.654545 277.371576 
L 87.36 277.173204 
L 90.065455 276.965483 
L 92.770909 276.747847 
L 95.476364 276.519693 
L 98.181818 276.280373 
L 100.887273 276.029191 
L 103.592727 275.765404 
L 106.298182 275.488211 
L 109.003636 275.196755 
L 111.709091 274.890115 
L 114.414545 274.567303 
L 117.12 274.227259 
L 119.825455 273.868843 
L 122.530909 273.490834 
L 125.236364 273.09192 
L 127.941818 272.670696 
L 130.647273 272.225655 
L 133.352727 271.755184 
L 136.058182 271.257559 
L 138.763636 270.730936 
L 141.469091 270.173353 
L 144.174545 269.582722 
L 146.88 268.956828 
L 149.585455 268.293331 
L 152.290909 267.589769 
L 154.996364 266.843563 
L 157.701818 266.052034 
L 160.407273 265.212416 
L 163.112727 264.321888 
L 165.818182 263.37761 
L 168.523636 262.376771 
L 171.229091 261.316657 
L 173.934545 260.194735 
L 176.64 259.008763 
L 179.345455 257.756918 
L 182.050909 256.437969 
L 184.756364 255.051468 
L 187.461818 253.597989 
L 190.167273 252.079399 
L 192.872727 250.499166 
L 195.578182 248.862696 
L 198.283636 247.177688 
L 200.989091 245.454489 
L 203.694545 243.706418 
L 206.4 241.950026 
L 209.105455 240.205241 
L 211.810909 238.495349 
L 214.516364 236.846746 
L 217.221818 235.288424 
L 219.927273 233.851146 
L 222.632727 232.566311 
L 225.338182 231.464542 
L 228.043636 230.574088 
L 230.749091 229.919157 
L 233.454545 229.518359 
L 236.16 229.383423 
L 238.865455 229.518359 
L 241.570909 229.919157 
L 244.276364 230.574088 
L 246.981818 231.464542 
L 249.687273 232.566311 
L 252.392727 233.851146 
L 255.098182 235.288424 
L 257.803636 236.846746 
L 260.509091 238.495349 
L 263.214545 240.205241 
L 265.92 241.950026 
L 268.625455 243.706418 
L 271.330909 245.454489 
L 274.036364 247.177688 
L 276.741818 248.862696 
L 279.447273 250.499166 
L 282.152727 252.079399 
L 284.858182 253.597989 
L 287.563636 255.051468 
L 290.269091 256.437969 
L 292.974545 257.756918 
L 295.68 259.008763 
L 298.385455 260.194735 
L 301.090909 261.316657 
L 303.796364 262.376771 
L 306.501818 263.37761 
L 309.207273 264.321888 
L 311.912727 265.212416 
L 314.618182 266.052034 
L 317.323636 266.843563 
L 320.029091 267.589769 
L 322.734545 268.293331 
L 325.44 268.956828 
L 328.145455 269.582722 
L 330.850909 270.173353 
L 333.556364 270.730936 
L 336.261818 271.257559 
L 338.967273 271.755184 
L 341.672727 272.225655 
L 344.378182 272.670696 
L 347.083636 273.09192 
L 349.789091 273.490834 
L 352.494545 273.868843 
L 355.2 274.227259 
L 357.905455 274.567303 
L 360.610909 274.890115 
L 363.316364 275.196755 
L 366.021818 275.488211 
L 368.727273 275.765404 
L 371.432727 276.029191 
L 374.138182 276.280373 
L 376.843636 276.519693 
L 379.549091 276.747847 
L 382.254545 276.965483 
L 384.96 277.173204 
L 387.665455 277.371576 
L 390.370909 277.561126 
L 393.076364 277.742345 
L 395.781818 277.915695 
L 398.487273 278.081605 
" style="fill:none;stroke:#2ca02c;stroke-linecap:square;stroke-width:1.5;"/>
   </g>
   <g id="patch_3">
    <path d="M 57.6 292.747034 
L 57.6 56.308966 
" style="fill:none;stroke:#000000;stroke-linecap:square;stroke-linejoin:miter;stroke-width:0.8;"/>
   </g>
   <g id="patch_4">
    <path d="M 414.72 292.747034 
L 414.72 56.308966 
" style="fill:none;stroke:#000000;stroke-linecap:square;stroke-linejoin:miter;stroke-width:0.8;"/>
   </g>
   <g id="patch_5">
    <path d="M 57.6 292.747034 
L 414.72 292.747034 
" style="fill:none;stroke:#000000;stroke-linecap:square;stroke-linejoin:miter;stroke-width:0.8;"/>
   </g>
   <g id="patch_6">
    <path d="M 57.6 56.308966 
L 414.72 56.308966 
" style="fill:none;stroke:#000000;stroke-linecap:square;stroke-linejoin:miter;stroke-width:0.8;"/>
   </g>
   <g id="legend_1">
    <g id="patch_7">
     <path d="M 359.816875 108.343341 
L 407.72 108.343341 
Q 409.72 108.343341 409.72 106.343341 
L 409.72 63.308966 
Q 409.72 61.308966 407.72 61.308966 
L 359.816875 61.308966 
Q 357.816875 61.308966 357.816875 63.308966 
L 357.816875 106.343341 
Q 357.816875 108.343341 359.816875 108.343341 
z
" style="fill:#ffffff;opacity:0.8;stroke:#cccccc;stroke-linejoin:miter;"/>
    </g>
    <g id="line2d_20">
     <path d="M 361.816875 69.407403 
L 381.816875 69.407403 
" style="fill:none;stroke:#1f77b4;stroke-linecap:square;stroke-width:1.5;"/>
    </g>
    <g id="line2d_21"/>
    <g id="text_17">
     <!-- 0.5 -->
     <g transform="translate(389.816875 72.907403)scale(0.1 -0.1)">
      <use xlink:href="#DejaVuSans-30"/>
      <use x="63.623047" xlink:href="#DejaVuSans-2e"/>
      <use x="95.410156" xlink:href="#DejaVuSans-35"/>
     </g>
    </g>
    <g id="line2d_22">
     <path d="M 361.816875 84.085528 
L 381.816875 84.085528 
" style="fill:none;stroke:#ff7f0e;stroke-linecap:square;stroke-width:1.5;"/>
    </g>
    <g id="line2d_23"/>
    <g id="text_18">
     <!-- 1.0 -->
     <g transform="translate(389.816875 87.585528)scale(0.1 -0.1)">
      <use xlink:href="#DejaVuSans-31"/>
      <use x="63.623047" xlink:href="#DejaVuSans-2e"/>
      <use x="95.410156" xlink:href="#DejaVuSans-30"/>
     </g>
    </g>
    <g id="line2d_24">
     <path d="M 361.816875 98.763653 
L 381.816875 98.763653 
" style="fill:none;stroke:#2ca02c;stroke-linecap:square;stroke-width:1.5;"/>
    </g>
    <g id="line2d_25"/>
    <g id="text_19">
     <!-- 2.0 -->
     <g transform="translate(389.816875 102.263653)scale(0.1 -0.1)">
      <use xlink:href="#DejaVuSans-32"/>
      <use x="63.623047" xlink:href="#DejaVuSans-2e"/>
      <use x="95.410156" xlink:href="#DejaVuSans-30"/>
     </g>
    </g>
   </g>
  </g>
 </g>
 <defs>
  <clipPath id="pae4751ae50">
   <rect height="236.438069" width="357.12" x="57.6" y="56.308966"/>
  </clipPath>
 </defs>
</svg>
