<?xml version="1.0" encoding="utf-8" standalone="no"?>
<!DOCTYPE svg PUBLIC "-//W3C//DTD SVG 1.1//EN"
  "http://www.w3.org/Graphics/SVG/1.1/DTD/svg11.dtd">
<!-- Created with matplotlib (http://matplotlib.org/) -->
<svg height="345.6pt" version="1.1" viewBox="0 0 460.8 345.6" width="460.8pt" xmlns="http://www.w3.org/2000/svg" xmlns:xlink="http://www.w3.org/1999/xlink">
 <defs>
  <style type="text/css">
*{stroke-linecap:butt;stroke-linejoin:round;}
  </style>
 </defs>
 <g id="figure_1">
  <g id="patch_1">
   <path d="M 0 345.6 
L 460.8 345.6 
L 460.8 0 
L 0 0 
z
" style="fill:#ffffff;"/>
  </g>
  <g id="axes_1">
   <g id="patch_2">
    <path d="M 70.983529 119.740235 
L 149.251765 119.740235 
L 149.251765 41.472 
L 70.983529 41.472 
z
" style="fill:#ffffff;"/>
   </g>
   <g id="matplotlib.axis_1">
    <g id="xtick_1">
     <g id="line2d_1">
      <defs>
       <path d="M 0 0 
L 0 3.5 
" id="m18991894d7" style="stroke:#000000;stroke-width:0.8;"/>
      </defs>
      <g>
       <use style="stroke:#000000;stroke-width:0.8;" x="70.983529" xlink:href="#m18991894d7" y="119.740235"/>
      </g>
     </g>
     <g id="text_1">
      <!-- −1 -->
      <defs>
       <path d="M 10.59375 35.5 
L 73.1875 35.5 
L 73.1875 27.203125 
L 10.59375 27.203125 
z
" id="DejaVuSans-2212"/>
       <path d="M 12.40625 8.296875 
L 28.515625 8.296875 
L 28.515625 63.921875 
L 10.984375 60.40625 
L 10.984375 69.390625 
L 28.421875 72.90625 
L 38.28125 72.90625 
L 38.28125 8.296875 
L 54.390625 8.296875 
L 54.390625 0 
L 12.40625 0 
z
" id="DejaVuSans-31"/>
      </defs>
      <g transform="translate(63.612436 134.338673)scale(0.1 -0.1)">
       <use xlink:href="#DejaVuSans-2212"/>
       <use x="83.789062" xlink:href="#DejaVuSans-31"/>
      </g>
     </g>
    </g>
    <g id="xtick_2">
     <g id="line2d_2">
      <g>
       <use style="stroke:#000000;stroke-width:0.8;" x="110.117647" xlink:href="#m18991894d7" y="119.740235"/>
      </g>
     </g>
     <g id="text_2">
      <!-- 0 -->
      <defs>
       <path d="M 31.78125 66.40625 
Q 24.171875 66.40625 20.328125 58.90625 
Q 16.5 51.421875 16.5 36.375 
Q 16.5 21.390625 20.328125 13.890625 
Q 24.171875 6.390625 31.78125 6.390625 
Q 39.453125 6.390625 43.28125 13.890625 
Q 47.125 21.390625 47.125 36.375 
Q 47.125 51.421875 43.28125 58.90625 
Q 39.453125 66.40625 31.78125 66.40625 
z
M 31.78125 74.21875 
Q 44.046875 74.21875 50.515625 64.515625 
Q 56.984375 54.828125 56.984375 36.375 
Q 56.984375 17.96875 50.515625 8.265625 
Q 44.046875 -1.421875 31.78125 -1.421875 
Q 19.53125 -1.421875 13.0625 8.265625 
Q 6.59375 17.96875 6.59375 36.375 
Q 6.59375 54.828125 13.0625 64.515625 
Q 19.53125 74.21875 31.78125 74.21875 
z
" id="DejaVuSans-30"/>
      </defs>
      <g transform="translate(106.936397 134.338673)scale(0.1 -0.1)">
       <use xlink:href="#DejaVuSans-30"/>
      </g>
     </g>
    </g>
    <g id="xtick_3">
     <g id="line2d_3">
      <g>
       <use style="stroke:#000000;stroke-width:0.8;" x="149.251765" xlink:href="#m18991894d7" y="119.740235"/>
      </g>
     </g>
     <g id="text_3">
      <!-- 1 -->
      <g transform="translate(146.070515 134.338673)scale(0.1 -0.1)">
       <use xlink:href="#DejaVuSans-31"/>
      </g>
     </g>
    </g>
   </g>
   <g id="matplotlib.axis_2">
    <g id="ytick_1">
     <g id="line2d_4">
      <defs>
       <path d="M 0 0 
L -3.5 0 
" id="mde195225f2" style="stroke:#000000;stroke-width:0.8;"/>
      </defs>
      <g>
       <use style="stroke:#000000;stroke-width:0.8;" x="70.983529" xlink:href="#mde195225f2" y="119.740235"/>
      </g>
     </g>
     <g id="text_4">
      <!-- −1 -->
      <g transform="translate(49.241342 123.539454)scale(0.1 -0.1)">
       <use xlink:href="#DejaVuSans-2212"/>
       <use x="83.789062" xlink:href="#DejaVuSans-31"/>
      </g>
     </g>
    </g>
    <g id="ytick_2">
     <g id="line2d_5">
      <g>
       <use style="stroke:#000000;stroke-width:0.8;" x="70.983529" xlink:href="#mde195225f2" y="80.606118"/>
      </g>
     </g>
     <g id="text_5">
      <!-- 0 -->
      <g transform="translate(57.621029 84.405336)scale(0.1 -0.1)">
       <use xlink:href="#DejaVuSans-30"/>
      </g>
     </g>
    </g>
    <g id="ytick_3">
     <g id="line2d_6">
      <g>
       <use style="stroke:#000000;stroke-width:0.8;" x="70.983529" xlink:href="#mde195225f2" y="41.472"/>
      </g>
     </g>
     <g id="text_6">
      <!-- 1 -->
      <g transform="translate(57.621029 45.271219)scale(0.1 -0.1)">
       <use xlink:href="#DejaVuSans-31"/>
      </g>
     </g>
    </g>
   </g>
   <g id="line2d_7">
    <path clip-path="url(#p38e8876ef6)" d="M 149.251765 80.606118 
L 149.135019 79.652554 
L 148.785727 78.714933 
L 148.206724 77.809031 
L 147.402701 76.950286 
L 146.298977 76.099495 
L 144.954679 75.337512 
L 143.269666 74.641128 
L 141.342838 74.082835 
L 139.053253 73.659293 
L 136.540481 73.427192 
L 133.833996 73.40054 
L 130.965365 73.590085 
L 127.967836 74.003132 
L 124.875892 74.6434 
L 121.538349 75.568988 
L 118.176702 76.744866 
L 114.832931 78.161946 
L 111.548163 79.806629 
L 108.362064 81.660978 
L 105.31227 83.702972 
L 102.433837 85.906823 
L 99.75874 88.243363 
L 97.315424 90.680474 
L 95.12841 93.183581 
L 93.217961 95.71618 
L 91.59982 98.240406 
L 90.285018 100.717613 
L 89.327441 102.979044 
L 88.647244 105.131562 
L 88.241815 107.143624 
L 88.105568 108.881879 
L 88.198823 110.44498 
L 88.484951 111.731489 
L 88.952057 112.827648 
L 89.53993 113.665603 
L 90.262387 114.31366 
L 91.106469 114.762463 
L 92.058216 115.004264 
L 93.102817 115.03301 
L 94.224765 114.844402 
L 95.494448 114.398337 
L 96.814306 113.699219 
L 98.254424 112.676578 
L 99.703561 111.373211 
L 101.225769 109.690139 
L 102.70196 107.713305 
L 104.104819 105.46017 
L 105.408692 102.951711 
L 106.589962 100.212167 
L 107.627403 97.268732 
L 108.548563 93.96309 
L 109.269406 90.500418 
L 109.775641 86.921086 
L 110.05726 83.267151 
L 110.108707 79.581745 
L 109.928969 75.908456 
L 109.52159 72.290697 
L 108.894615 68.771078 
L 108.060454 65.390793 
L 107.035682 62.189022 
L 105.840757 59.202376 
L 104.499686 56.464369 
L 103.039622 54.004943 
L 101.578284 51.961392 
L 100.064372 50.207824 
L 98.526194 48.758863 
L 96.99298 47.625287 
L 95.581103 46.852639 
L 94.224765 46.367833 
L 93.025451 46.174111 
L 91.986975 46.218239 
L 91.042437 46.475047 
L 90.20659 46.938359 
L 89.493329 47.600309 
L 88.915536 48.451429 
L 88.484951 49.480746 
L 88.198823 50.767255 
L 88.104773 52.227291 
L 88.226405 53.955284 
L 88.585375 55.836072 
L 89.233037 57.973682 
L 90.15797 60.223967 
L 91.359394 62.554647 
L 92.83265 64.93304 
L 94.569231 67.326515 
L 96.556851 69.702957 
L 98.917252 72.166015 
L 101.518063 74.539779 
L 104.332105 76.791256 
L 107.328532 78.890243 
L 110.473261 80.80978 
L 113.729458 82.526552 
L 117.058071 84.02123 
L 120.418394 85.278744 
L 123.768663 86.288487 
L 127.066674 87.044449 
L 130.2704 87.545267 
L 133.338621 87.79421 
L 136.231533 87.79908 
L 138.768668 87.590484 
L 141.085963 87.188636 
L 143.156126 86.610227 
L 144.954679 85.874723 
L 146.380168 85.058595 
L 147.531111 84.142731 
L 148.349927 83.212533 
L 148.880039 82.29852 
L 149.179673 81.356147 
L 149.2464 80.401238 
L 149.079679 79.449752 
L 148.680861 78.517609 
L 148.053182 77.620526 
L 147.132516 76.715698 
L 145.963545 75.886916 
L 144.45521 75.106131 
L 142.692606 74.451015 
L 140.694243 73.939342 
L 138.336095 73.570468 
L 135.763188 73.397481 
L 133.005652 73.433452 
L 130.095595 73.688133 
L 127.066674 74.167786 
L 123.953647 74.875059 
L 120.605172 75.870818 
L 117.244306 77.114804 
L 113.912851 78.596661 
L 110.651588 80.301563 
L 107.499677 82.210412 
L 104.49409 84.300104 
L 101.669074 86.543874 
L 99.055668 88.911686 
L 96.681265 91.37069 
L 94.569231 93.88572 
L 92.738598 96.419836 
L 91.203816 98.934896 
L 89.974583 101.392147 
L 89.098633 103.624875 
L 88.499692 105.739309 
L 88.174029 107.704229 
L 88.11052 109.390245 
L 88.273366 110.89396 
L 88.621146 112.11881 
L 89.145793 113.148065 
L 89.783151 113.919371 
L 90.550588 114.497258 
L 91.434772 114.872935 
L 92.421421 115.03925 
L 93.495457 114.990769 
L 94.641163 114.723837 
L 95.929832 114.19338 
L 97.261877 113.410175 
L 98.70747 112.299103 
L 100.15438 110.909568 
L 101.665971 109.138499 
L 103.123361 107.078426 
L 104.499686 104.747867 
L 105.76985 102.168787 
L 106.910906 99.366328 
L 107.90239 96.368491 
L 108.769578 93.0153 
L 109.432062 89.51609 
L 109.876719 85.911759 
L 110.094766 82.244725 
L 110.081902 78.558308 
L 109.838381 74.896112 
L 109.369006 71.30139 
L 108.683052 67.816418 
L 107.79411 64.481889 
L 106.719863 61.336326 
L 105.481792 58.415529 
L 104.104819 55.752065 
L 102.616895 53.374809 
L 101.137228 51.414808 
L 99.613191 49.749481 
L 98.073409 48.392338 
L 96.636159 47.405217 
L 95.235846 46.704428 
L 93.978633 46.308967 
L 92.795778 46.165414 
L 91.776152 46.255549 
L 90.853689 46.557187 
L 90.042973 47.063782 
L 89.357694 47.767118 
L 88.810499 48.657397 
L 88.412864 49.723336 
L 88.164326 51.045946 
L 88.109851 52.538535 
L 88.275425 54.297035 
L 88.679606 56.203708 
L 89.376084 58.363515 
L 90.349978 60.63035 
L 91.59982 62.97183 
L 93.120273 65.355246 
L 94.902153 67.748028 
L 96.932522 70.118195 
L 99.334712 72.568765 
L 101.973052 74.92437 
L 104.819727 77.152447 
L 107.843318 79.223304 
L 111.00925 81.110562 
L 114.28028 82.791549 
L 117.617041 84.247628 
L 120.978608 85.46446 
L 124.323101 86.432199 
L 127.608302 87.145606 
L 130.792276 87.604093 
L 133.833996 87.811695 
L 136.693953 87.776955 
L 139.194389 87.533175 
L 141.469979 87.098874 
L 143.493905 86.491252 
L 145.242218 85.730238 
L 146.617289 84.89384 
L 147.715312 83.96162 
L 148.482737 83.019845 
L 148.96376 82.098435 
L 149.213626 81.152036 
L 149.251765 80.606118 
L 149.251765 80.606118 
" style="fill:none;stroke:#1f77b4;stroke-linecap:square;stroke-width:1.5;"/>
   </g>
   <g id="patch_3">
    <path d="M 70.983529 119.740235 
L 70.983529 41.472 
" style="fill:none;stroke:#000000;stroke-linecap:square;stroke-linejoin:miter;stroke-width:0.8;"/>
   </g>
   <g id="patch_4">
    <path d="M 149.251765 119.740235 
L 149.251765 41.472 
" style="fill:none;stroke:#000000;stroke-linecap:square;stroke-linejoin:miter;stroke-width:0.8;"/>
   </g>
   <g id="patch_5">
    <path d="M 70.983529 119.740235 
L 149.251765 119.740235 
" style="fill:none;stroke:#000000;stroke-linecap:square;stroke-linejoin:miter;stroke-width:0.8;"/>
   </g>
   <g id="patch_6">
    <path d="M 70.983529 41.472 
L 149.251765 41.472 
" style="fill:none;stroke:#000000;stroke-linecap:square;stroke-linejoin:miter;stroke-width:0.8;"/>
   </g>
  </g>
  <g id="axes_2">
   <g id="patch_7">
    <path d="M 197.025882 119.740235 
L 275.294118 119.740235 
L 275.294118 41.472 
L 197.025882 41.472 
z
" style="fill:#ffffff;"/>
   </g>
   <g id="matplotlib.axis_3">
    <g id="xtick_4">
     <g id="line2d_8">
      <g>
       <use style="stroke:#000000;stroke-width:0.8;" x="197.025882" xlink:href="#m18991894d7" y="119.740235"/>
      </g>
     </g>
     <g id="text_7">
      <!-- −1 -->
      <g transform="translate(189.654789 134.338673)scale(0.1 -0.1)">
       <use xlink:href="#DejaVuSans-2212"/>
       <use x="83.789062" xlink:href="#DejaVuSans-31"/>
      </g>
     </g>
    </g>
    <g id="xtick_5">
     <g id="line2d_9">
      <g>
       <use style="stroke:#000000;stroke-width:0.8;" x="236.16" xlink:href="#m18991894d7" y="119.740235"/>
      </g>
     </g>
     <g id="text_8">
      <!-- 0 -->
      <g transform="translate(232.97875 134.338673)scale(0.1 -0.1)">
       <use xlink:href="#DejaVuSans-30"/>
      </g>
     </g>
    </g>
    <g id="xtick_6">
     <g id="line2d_10">
      <g>
       <use style="stroke:#000000;stroke-width:0.8;" x="275.294118" xlink:href="#m18991894d7" y="119.740235"/>
      </g>
     </g>
     <g id="text_9">
      <!-- 1 -->
      <g transform="translate(272.112868 134.338673)scale(0.1 -0.1)">
       <use xlink:href="#DejaVuSans-31"/>
      </g>
     </g>
    </g>
   </g>
   <g id="matplotlib.axis_4">
    <g id="ytick_4">
     <g id="line2d_11">
      <g>
       <use style="stroke:#000000;stroke-width:0.8;" x="197.025882" xlink:href="#mde195225f2" y="119.740235"/>
      </g>
     </g>
     <g id="text_10">
      <!-- −1 -->
      <g transform="translate(175.283695 123.539454)scale(0.1 -0.1)">
       <use xlink:href="#DejaVuSans-2212"/>
       <use x="83.789062" xlink:href="#DejaVuSans-31"/>
      </g>
     </g>
    </g>
    <g id="ytick_5">
     <g id="line2d_12">
      <g>
       <use style="stroke:#000000;stroke-width:0.8;" x="197.025882" xlink:href="#mde195225f2" y="80.606118"/>
      </g>
     </g>
     <g id="text_11">
      <!-- 0 -->
      <g transform="translate(183.663382 84.405336)scale(0.1 -0.1)">
       <use xlink:href="#DejaVuSans-30"/>
      </g>
     </g>
    </g>
    <g id="ytick_6">
     <g id="line2d_13">
      <g>
       <use style="stroke:#000000;stroke-width:0.8;" x="197.025882" xlink:href="#mde195225f2" y="41.472"/>
      </g>
     </g>
     <g id="text_12">
      <!-- 1 -->
      <g transform="translate(183.663382 45.271219)scale(0.1 -0.1)">
       <use xlink:href="#DejaVuSans-31"/>
      </g>
     </g>
    </g>
   </g>
   <g id="line2d_14">
    <path clip-path="url(#p0960820f61)" d="M 275.294118 80.606118 
L 275.192843 79.924797 
L 274.848299 79.187482 
L 274.262107 78.475879 
L 273.352337 77.744323 
L 272.168614 77.075442 
L 270.589614 76.439677 
L 268.563044 75.879025 
L 266.222678 75.46741 
L 263.597196 75.223154 
L 260.504268 75.164529 
L 257.164024 75.330272 
L 253.622794 75.730418 
L 249.929374 76.370105 
L 246.134258 77.249409 
L 242.288856 78.363275 
L 238.444695 79.701543 
L 234.652627 81.249067 
L 230.962051 82.985924 
L 227.420163 84.88772 
L 224.071244 86.925966 
L 220.956009 89.06855 
L 218.111007 91.280262 
L 215.568101 93.523392 
L 213.354027 95.75837 
L 211.49004 97.944456 
L 209.991652 100.040448 
L 208.931569 101.879299 
L 208.2015 103.571488 
L 207.817924 104.984149 
L 207.713201 106.21973 
L 207.857404 107.184024 
L 208.185434 107.905353 
L 208.692573 108.459765 
L 209.369421 108.837497 
L 210.205291 109.030151 
L 211.188322 109.030782 
L 212.41336 108.806159 
L 213.899855 108.292154 
L 215.528381 107.493767 
L 217.411783 106.31634 
L 219.397511 104.814226 
L 221.600658 102.855125 
L 223.841757 100.551053 
L 226.080312 97.924755 
L 228.277185 95.004373 
L 230.395271 91.823067 
L 232.40013 88.41855 
L 234.260566 84.832549 
L 235.949142 81.11019 
L 237.442619 77.299327 
L 238.722325 73.449821 
L 239.774425 69.612781 
L 240.590113 65.839781 
L 241.165705 62.182064 
L 241.502635 58.689747 
L 241.607368 55.411043 
L 241.491207 52.391501 
L 241.170023 49.673299 
L 240.663897 47.294576 
L 240.045649 45.41035 
L 239.30903 43.874267 
L 238.540053 42.776266 
L 237.775818 42.053879 
L 237.044195 41.643092 
L 236.29659 41.476053 
L 235.614454 41.536828 
L 234.873899 41.837098 
L 234.156635 42.379634 
L 233.416215 43.242874 
L 232.735777 44.381618 
L 232.084626 45.914112 
L 231.504337 47.893728 
L 231.070245 50.190938 
L 230.801068 52.777578 
L 230.713539 55.834192 
L 230.848682 59.144076 
L 231.217168 62.661281 
L 231.824801 66.337297 
L 232.672336 70.121812 
L 233.755403 73.963492 
L 235.064519 77.810779 
L 236.585191 81.612687 
L 238.29812 85.319577 
L 240.179485 88.88392 
L 242.201319 92.261004 
L 244.331964 95.409605 
L 246.53659 98.292587 
L 248.777782 100.877433 
L 251.016183 103.136702 
L 253.211166 105.04839 
L 255.321548 106.59621 
L 257.30632 107.769762 
L 259.010039 108.52341 
L 260.435359 108.928665 
L 261.685367 109.054604 
L 262.664426 108.929365 
L 263.400401 108.618036 
L 263.97041 108.126812 
L 264.364572 107.464969 
L 264.574361 106.643082 
L 264.592696 105.672911 
L 264.387866 104.460514 
L 263.895653 102.985968 
L 263.119174 101.367476 
L 261.965174 99.49265 
L 260.485998 97.513127 
L 258.550566 95.313971 
L 256.268846 93.07413 
L 253.663212 90.834169 
L 250.761457 88.633337 
L 247.59642 86.508894 
L 244.205527 84.495478 
L 240.630256 82.624516 
L 236.915525 80.923711 
L 233.109029 79.416594 
L 229.260519 78.122152 
L 225.421044 77.054548 
L 221.642173 76.222927 
L 217.975194 75.631318 
L 214.470326 75.278623 
L 211.17593 75.158709 
L 208.137757 75.260589 
L 205.398231 75.568685 
L 202.995781 76.063185 
L 201.087525 76.672109 
L 199.525895 77.401049 
L 198.403084 78.164487 
L 197.657099 78.925045 
L 197.22428 79.654549 
L 197.035001 80.401258 
L 197.09071 81.151663 
L 197.390981 81.892218 
L 197.933517 82.609483 
L 198.796756 83.349903 
L 199.9355 84.030341 
L 201.467995 84.681492 
L 203.44761 85.26178 
L 205.744821 85.695873 
L 208.33146 85.96505 
L 211.388075 86.052579 
L 214.697958 85.917436 
L 218.215163 85.548949 
L 221.89118 84.941317 
L 225.675695 84.093782 
L 229.517375 83.010715 
L 233.364662 81.701599 
L 237.166569 80.180926 
L 240.873459 78.467998 
L 244.437802 76.586633 
L 247.814886 74.564798 
L 250.963488 72.434153 
L 253.846469 70.229528 
L 256.431315 67.988335 
L 258.690584 65.749935 
L 260.602273 63.554952 
L 262.150092 61.444569 
L 263.323644 59.459798 
L 264.077292 57.756079 
L 264.482548 56.330758 
L 264.608486 55.080751 
L 264.483247 54.101692 
L 264.171919 53.365717 
L 263.680694 52.795708 
L 263.018851 52.401545 
L 262.196965 52.191757 
L 261.226793 52.173422 
L 260.014397 52.378251 
L 258.539851 52.870465 
L 256.921359 53.646944 
L 255.046532 54.800943 
L 253.067009 56.28012 
L 250.867853 58.215551 
L 248.628013 60.497272 
L 246.388051 63.102906 
L 244.187219 66.00466 
L 242.062777 69.169697 
L 240.04936 72.56059 
L 238.178398 76.135862 
L 236.477593 79.850593 
L 234.970476 83.657088 
L 233.676034 87.505599 
L 232.60843 91.345073 
L 231.77681 95.123945 
L 231.1852 98.790923 
L 230.832505 102.295792 
L 230.712592 105.590188 
L 230.814471 108.62836 
L 231.122567 111.367886 
L 231.617067 113.770337 
L 232.225992 115.678593 
L 232.954931 117.240223 
L 233.71837 118.363034 
L 234.478927 119.109019 
L 235.208432 119.541838 
L 235.95514 119.731116 
L 236.705546 119.675407 
L 237.446101 119.375137 
L 238.163365 118.832601 
L 238.903785 117.969361 
L 239.584223 116.830618 
L 240.235374 115.298123 
L 240.815663 113.318507 
L 241.249755 111.021297 
L 241.518932 108.434658 
L 241.606461 105.378043 
L 241.471318 102.068159 
L 241.102832 98.550954 
L 240.495199 94.874938 
L 239.647664 91.090423 
L 238.564597 87.248743 
L 237.255481 83.401456 
L 235.734809 79.599549 
L 234.02188 75.892658 
L 232.140515 72.328316 
L 230.118681 68.951231 
L 227.988036 65.80263 
L 225.78341 62.919649 
L 223.542218 60.334802 
L 221.303817 58.075534 
L 219.108834 56.163845 
L 216.998452 54.616026 
L 215.01368 53.442473 
L 213.309961 52.688825 
L 211.884641 52.28357 
L 210.634633 52.157631 
L 209.655574 52.282871 
L 208.919599 52.594199 
L 208.34959 53.085424 
L 207.955428 53.747267 
L 207.745639 54.569153 
L 207.727304 55.539325 
L 207.932134 56.751721 
L 208.424347 58.226267 
L 209.200826 59.844759 
L 210.354826 61.719585 
L 211.834002 63.699109 
L 213.769434 65.898265 
L 216.051154 68.138105 
L 218.656788 70.378066 
L 221.558543 72.578899 
L 224.72358 74.703341 
L 228.114473 76.716758 
L 231.689744 78.58772 
L 235.404475 80.288524 
L 239.210971 81.795641 
L 243.059481 83.090084 
L 246.898956 84.157688 
L 250.677827 84.989308 
L 254.344806 85.580918 
L 257.849674 85.933613 
L 261.14407 86.053526 
L 264.182243 85.951646 
L 266.921769 85.64355 
L 269.324219 85.149051 
L 271.232475 84.540126 
L 272.794105 83.811187 
L 273.916916 83.047748 
L 274.662901 82.287191 
L 275.09572 81.557686 
L 275.284999 80.810978 
L 275.294118 80.606118 
L 275.294118 80.606118 
" style="fill:none;stroke:#1f77b4;stroke-linecap:square;stroke-width:1.5;"/>
   </g>
   <g id="patch_8">
    <path d="M 197.025882 119.740235 
L 197.025882 41.472 
" style="fill:none;stroke:#000000;stroke-linecap:square;stroke-linejoin:miter;stroke-width:0.8;"/>
   </g>
   <g id="patch_9">
    <path d="M 275.294118 119.740235 
L 275.294118 41.472 
" style="fill:none;stroke:#000000;stroke-linecap:square;stroke-linejoin:miter;stroke-width:0.8;"/>
   </g>
   <g id="patch_10">
    <path d="M 197.025882 119.740235 
L 275.294118 119.740235 
" style="fill:none;stroke:#000000;stroke-linecap:square;stroke-linejoin:miter;stroke-width:0.8;"/>
   </g>
   <g id="patch_11">
    <path d="M 197.025882 41.472 
L 275.294118 41.472 
" style="fill:none;stroke:#000000;stroke-linecap:square;stroke-linejoin:miter;stroke-width:0.8;"/>
   </g>
  </g>
  <g id="axes_3">
   <g id="patch_12">
    <path d="M 323.068235 119.740235 
L 401.336471 119.740235 
L 401.336471 41.472 
L 323.068235 41.472 
z
" style="fill:#ffffff;"/>
   </g>
   <g id="matplotlib.axis_5">
    <g id="xtick_7">
     <g id="line2d_15">
      <g>
       <use style="stroke:#000000;stroke-width:0.8;" x="323.068235" xlink:href="#m18991894d7" y="119.740235"/>
      </g>
     </g>
     <g id="text_13">
      <!-- −1 -->
      <g transform="translate(315.697142 134.338673)scale(0.1 -0.1)">
       <use xlink:href="#DejaVuSans-2212"/>
       <use x="83.789062" xlink:href="#DejaVuSans-31"/>
      </g>
     </g>
    </g>
    <g id="xtick_8">
     <g id="line2d_16">
      <g>
       <use style="stroke:#000000;stroke-width:0.8;" x="362.202353" xlink:href="#m18991894d7" y="119.740235"/>
      </g>
     </g>
     <g id="text_14">
      <!-- 0 -->
      <g transform="translate(359.021103 134.338673)scale(0.1 -0.1)">
       <use xlink:href="#DejaVuSans-30"/>
      </g>
     </g>
    </g>
    <g id="xtick_9">
     <g id="line2d_17">
      <g>
       <use style="stroke:#000000;stroke-width:0.8;" x="401.336471" xlink:href="#m18991894d7" y="119.740235"/>
      </g>
     </g>
     <g id="text_15">
      <!-- 1 -->
      <g transform="translate(398.155221 134.338673)scale(0.1 -0.1)">
       <use xlink:href="#DejaVuSans-31"/>
      </g>
     </g>
    </g>
   </g>
   <g id="matplotlib.axis_6">
    <g id="ytick_7">
     <g id="line2d_18">
      <g>
       <use style="stroke:#000000;stroke-width:0.8;" x="323.068235" xlink:href="#mde195225f2" y="119.740235"/>
      </g>
     </g>
     <g id="text_16">
      <!-- −1 -->
      <g transform="translate(301.326048 123.539454)scale(0.1 -0.1)">
       <use xlink:href="#DejaVuSans-2212"/>
       <use x="83.789062" xlink:href="#DejaVuSans-31"/>
      </g>
     </g>
    </g>
    <g id="ytick_8">
     <g id="line2d_19">
      <g>
       <use style="stroke:#000000;stroke-width:0.8;" x="323.068235" xlink:href="#mde195225f2" y="80.606118"/>
      </g>
     </g>
     <g id="text_17">
      <!-- 0 -->
      <g transform="translate(309.705735 84.405336)scale(0.1 -0.1)">
       <use xlink:href="#DejaVuSans-30"/>
      </g>
     </g>
    </g>
    <g id="ytick_9">
     <g id="line2d_20">
      <g>
       <use style="stroke:#000000;stroke-width:0.8;" x="323.068235" xlink:href="#mde195225f2" y="41.472"/>
      </g>
     </g>
     <g id="text_18">
      <!-- 1 -->
      <g transform="translate(309.705735 45.271219)scale(0.1 -0.1)">
       <use xlink:href="#DejaVuSans-31"/>
      </g>
     </g>
    </g>
   </g>
   <g id="line2d_21">
    <path clip-path="url(#pbf2321e1cd)" d="M 401.336471 80.606118 
L 401.237336 80.061051 
L 400.889581 79.457908 
L 400.294212 78.876376 
L 399.347668 78.269133 
L 397.970011 77.665481 
L 396.08253 77.104942 
L 393.817743 76.668213 
L 390.972685 76.357685 
L 387.76268 76.237011 
L 384.236357 76.323141 
L 380.446908 76.628161 
L 376.136993 77.209219 
L 371.66244 78.05359 
L 367.10003 79.155359 
L 362.527327 80.501154 
L 358.021213 82.070332 
L 353.656437 83.83535 
L 349.504225 85.762293 
L 345.630963 87.811563 
L 342.096989 89.938717 
L 338.955518 92.095419 
L 336.251713 94.230508 
L 334.16485 96.147559 
L 332.508684 97.957697 
L 331.374968 99.497163 
L 330.626711 100.87732 
L 330.27999 101.976277 
L 330.243442 102.81814 
L 330.433071 103.434663 
L 330.827856 103.906875 
L 331.420783 104.225647 
L 332.203396 104.382998 
L 333.283461 104.360363 
L 334.709715 104.087048 
L 336.524172 103.484542 
L 338.576781 102.560354 
L 341.028474 101.196815 
L 343.671275 99.46348 
L 346.456087 97.374187 
L 349.332845 94.949419 
L 352.251418 92.216073 
L 355.384764 88.965308 
L 358.450182 85.443387 
L 361.391885 81.70541 
L 364.158686 77.812184 
L 366.70499 73.829103 
L 368.991635 69.824921 
L 370.986586 65.87043 
L 372.66546 62.037094 
L 374.011875 58.395636 
L 375.017613 55.014635 
L 375.646274 52.165282 
L 375.987121 49.645021 
L 376.051879 47.49776 
L 375.881231 45.880262 
L 375.545323 44.727954 
L 375.104294 43.969069 
L 374.607972 43.52963 
L 374.028123 43.326565 
L 373.375665 43.363529 
L 372.66203 43.642404 
L 371.811744 44.236031 
L 370.825883 45.230974 
L 369.808736 46.577116 
L 368.689592 48.432998 
L 367.497875 50.877226 
L 366.361249 53.741285 
L 365.311923 56.986588 
L 364.379141 60.568448 
L 363.588555 64.436774 
L 362.920763 68.860211 
L 362.463682 73.479281 
L 362.23154 78.217215 
L 362.23154 82.99502 
L 362.463682 87.732954 
L 362.920763 92.352024 
L 363.588555 96.775461 
L 364.446147 100.930154 
L 365.466466 104.748015 
L 366.616928 108.167233 
L 367.769221 110.937598 
L 368.968822 113.280159 
L 370.180817 115.164642 
L 371.279225 116.477569 
L 372.243472 117.310266 
L 373.065351 117.754674 
L 373.746437 117.899028 
L 374.359938 117.802296 
L 374.839499 117.5162 
L 375.295357 116.973334 
L 375.653074 116.202419 
L 375.924324 115.087909 
L 376.056343 113.563459 
L 375.987121 111.567215 
L 375.682596 109.253093 
L 375.076364 106.427389 
L 374.176499 103.317107 
L 372.98237 99.973985 
L 371.499385 96.452525 
L 369.592599 92.525364 
L 367.386353 88.5281 
L 364.910541 84.53186 
L 362.202353 80.606118 
L 359.305626 76.817356 
L 356.270044 73.227813 
L 353.150187 69.894326 
L 350.004465 66.867305 
L 346.89394 64.189854 
L 343.881084 61.897053 
L 341.028474 60.015421 
L 338.576781 58.651882 
L 336.363405 57.665226 
L 334.570299 57.089397 
L 333.050392 56.830358 
L 331.922027 56.863309 
L 331.133307 57.108783 
L 330.627483 57.496806 
L 330.346763 57.967528 
L 330.226817 58.629941 
L 330.319008 59.422874 
L 330.674294 60.443083 
L 331.374968 61.715072 
L 332.508684 63.254539 
L 334.021931 64.921096 
L 336.076348 66.831438 
L 338.541517 68.80926 
L 341.389107 70.812148 
L 344.584166 72.798812 
L 348.085621 74.729889 
L 352.14554 76.705337 
L 356.442352 78.53239 
L 360.906415 80.175016 
L 365.464082 81.603328 
L 370.039068 82.794168 
L 374.553884 83.731535 
L 378.931301 84.406842 
L 383.095821 84.81898 
L 386.975119 84.974225 
L 390.501432 84.885951 
L 393.405595 84.603345 
L 395.907834 84.148706 
L 397.970011 83.546754 
L 399.45561 82.884624 
L 400.447719 82.209073 
L 401.033176 81.555123 
L 401.297735 80.947298 
L 401.311678 80.333079 
L 401.074903 79.723976 
L 400.589151 79.131446 
L 399.761826 78.506217 
L 398.510931 77.876062 
L 396.916358 77.324678 
L 394.805476 76.833808 
L 392.112616 76.455726 
L 389.037497 76.259773 
L 385.62677 76.264659 
L 381.931974 76.484385 
L 378.008672 76.927872 
L 373.595375 77.659682 
L 369.061133 78.652343 
L 364.483354 79.895665 
L 359.939391 81.372088 
L 355.505083 83.05697 
L 351.253333 84.919051 
L 347.252754 86.921076 
L 343.566416 89.020566 
L 340.25071 91.17073 
L 337.354353 93.321482 
L 335.075657 95.273467 
L 333.218447 97.138246 
L 331.800724 98.873259 
L 330.891484 100.323624 
L 330.39751 101.497994 
L 330.228827 102.416978 
L 330.302006 103.109337 
L 330.583586 103.662919 
L 331.003871 104.0306 
L 331.661035 104.296392 
L 332.50476 104.398376 
L 333.648543 104.311947 
L 335.139178 103.966424 
L 337.016328 103.283717 
L 339.123085 102.278993 
L 341.623153 100.829241 
L 344.303133 99.012289 
L 347.113625 96.843523 
L 350.004465 94.34493 
L 353.150187 91.317909 
L 356.270044 87.984422 
L 359.305626 84.394879 
L 362.202353 80.606118 
L 364.910541 76.680375 
L 367.386353 72.684135 
L 369.592599 68.686871 
L 371.499385 64.75971 
L 373.084587 60.974047 
L 374.334147 57.400136 
L 375.242181 54.105687 
L 375.781369 51.352632 
L 376.035763 48.942693 
L 376.029309 47.059407 
L 375.805992 45.533841 
L 375.42597 44.470885 
L 374.948783 43.796623 
L 374.423443 43.435462 
L 373.889012 43.313942 
L 373.221955 43.404564 
L 372.49632 43.737272 
L 371.635833 44.390431 
L 370.642619 45.449879 
L 369.528837 47.003828 
L 368.411466 48.958005 
L 367.229472 51.5022 
L 366.110231 54.457896 
L 365.085325 57.785042 
L 364.183223 61.437636 
L 363.428668 65.364454 
L 362.80449 69.836112 
L 362.394647 74.487214 
L 362.211888 79.24039 
L 362.261879 84.016361 
L 362.543072 88.735421 
L 363.046737 93.318929 
L 363.757179 97.690781 
L 364.65212 101.778833 
L 365.703242 105.516238 
L 366.876886 108.842683 
L 368.043096 111.517376 
L 369.248717 113.756655 
L 370.458455 115.531889 
L 371.547254 116.740167 
L 372.49632 117.474963 
L 373.29918 117.829684 
L 373.959009 117.893466 
L 374.547475 117.716922 
L 375.053598 117.303513 
L 375.467023 116.658434 
L 375.805992 115.678394 
L 376.018758 114.293994 
L 376.050405 112.607078 
L 375.864952 110.447822 
L 375.39239 107.769926 
L 374.628488 104.784762 
L 373.569869 101.542478 
L 372.219142 98.096417 
L 370.584994 94.50218 
L 368.525217 90.531027 
L 366.179983 86.525455 
L 363.582901 82.555936 
L 360.774578 78.690611 
L 357.801884 74.993991 
L 354.717076 71.525751 
L 351.576791 68.339633 
L 348.440916 65.482496 
L 345.371379 62.993509 
L 342.430869 60.903529 
L 339.870265 59.339557 
L 337.522845 58.149493 
L 335.434649 57.337308 
L 333.774299 56.920756 
L 332.50476 56.81386 
L 331.578629 56.937414 
L 330.94277 57.220962 
L 330.503295 57.659827 
L 330.283485 58.173162 
L 330.233777 58.880296 
L 330.39751 59.714241 
L 330.833157 60.775335 
L 331.6224 62.08624 
L 332.851765 63.660548 
L 334.458338 65.353716 
L 336.609697 67.283424 
L 339.16588 69.270768 
L 342.096989 71.273519 
L 345.366611 73.250763 
L 349.217561 75.307122 
L 353.351984 77.244178 
L 357.703889 79.021958 
L 362.202353 80.606118 
L 366.772832 81.968637 
L 371.33855 83.088367 
L 375.821942 83.951409 
L 380.146123 84.551311 
L 384.236357 84.889094 
L 388.021483 84.973097 
L 391.435289 84.818648 
L 394.220218 84.480705 
L 396.590818 83.977936 
L 398.379936 83.389831 
L 399.761826 82.706018 
L 400.655324 82.016124 
L 401.149126 81.353934 
L 401.330272 80.7427 
L 401.336471 80.606118 
L 401.336471 80.606118 
" style="fill:none;stroke:#1f77b4;stroke-linecap:square;stroke-width:1.5;"/>
   </g>
   <g id="patch_13">
    <path d="M 323.068235 119.740235 
L 323.068235 41.472 
" style="fill:none;stroke:#000000;stroke-linecap:square;stroke-linejoin:miter;stroke-width:0.8;"/>
   </g>
   <g id="patch_14">
    <path d="M 401.336471 119.740235 
L 401.336471 41.472 
" style="fill:none;stroke:#000000;stroke-linecap:square;stroke-linejoin:miter;stroke-width:0.8;"/>
   </g>
   <g id="patch_15">
    <path d="M 323.068235 119.740235 
L 401.336471 119.740235 
" style="fill:none;stroke:#000000;stroke-linecap:square;stroke-linejoin:miter;stroke-width:0.8;"/>
   </g>
   <g id="patch_16">
    <path d="M 323.068235 41.472 
L 401.336471 41.472 
" style="fill:none;stroke:#000000;stroke-linecap:square;stroke-linejoin:miter;stroke-width:0.8;"/>
   </g>
  </g>
  <g id="axes_4">
   <g id="patch_17">
    <path d="M 70.983529 213.662118 
L 149.251765 213.662118 
L 149.251765 135.393882 
L 70.983529 135.393882 
z
" style="fill:#ffffff;"/>
   </g>
   <g id="matplotlib.axis_7">
    <g id="xtick_10">
     <g id="line2d_22">
      <g>
       <use style="stroke:#000000;stroke-width:0.8;" x="70.983529" xlink:href="#m18991894d7" y="213.662118"/>
      </g>
     </g>
     <g id="text_19">
      <!-- −1 -->
      <g transform="translate(63.612436 228.260555)scale(0.1 -0.1)">
       <use xlink:href="#DejaVuSans-2212"/>
       <use x="83.789062" xlink:href="#DejaVuSans-31"/>
      </g>
     </g>
    </g>
    <g id="xtick_11">
     <g id="line2d_23">
      <g>
       <use style="stroke:#000000;stroke-width:0.8;" x="110.117647" xlink:href="#m18991894d7" y="213.662118"/>
      </g>
     </g>
     <g id="text_20">
      <!-- 0 -->
      <g transform="translate(106.936397 228.260555)scale(0.1 -0.1)">
       <use xlink:href="#DejaVuSans-30"/>
      </g>
     </g>
    </g>
    <g id="xtick_12">
     <g id="line2d_24">
      <g>
       <use style="stroke:#000000;stroke-width:0.8;" x="149.251765" xlink:href="#m18991894d7" y="213.662118"/>
      </g>
     </g>
     <g id="text_21">
      <!-- 1 -->
      <g transform="translate(146.070515 228.260555)scale(0.1 -0.1)">
       <use xlink:href="#DejaVuSans-31"/>
      </g>
     </g>
    </g>
   </g>
   <g id="matplotlib.axis_8">
    <g id="ytick_10">
     <g id="line2d_25">
      <g>
       <use style="stroke:#000000;stroke-width:0.8;" x="70.983529" xlink:href="#mde195225f2" y="213.662118"/>
      </g>
     </g>
     <g id="text_22">
      <!-- −1 -->
      <g transform="translate(49.241342 217.461336)scale(0.1 -0.1)">
       <use xlink:href="#DejaVuSans-2212"/>
       <use x="83.789062" xlink:href="#DejaVuSans-31"/>
      </g>
     </g>
    </g>
    <g id="ytick_11">
     <g id="line2d_26">
      <g>
       <use style="stroke:#000000;stroke-width:0.8;" x="70.983529" xlink:href="#mde195225f2" y="174.528"/>
      </g>
     </g>
     <g id="text_23">
      <!-- 0 -->
      <g transform="translate(57.621029 178.327219)scale(0.1 -0.1)">
       <use xlink:href="#DejaVuSans-30"/>
      </g>
     </g>
    </g>
    <g id="ytick_12">
     <g id="line2d_27">
      <g>
       <use style="stroke:#000000;stroke-width:0.8;" x="70.983529" xlink:href="#mde195225f2" y="135.393882"/>
      </g>
     </g>
     <g id="text_24">
      <!-- 1 -->
      <g transform="translate(57.621029 139.193101)scale(0.1 -0.1)">
       <use xlink:href="#DejaVuSans-31"/>
      </g>
     </g>
    </g>
   </g>
   <g id="line2d_28">
    <path clip-path="url(#pe24e75a688)" d="M 149.251765 174.528 
L 149.143756 174.051182 
L 148.82039 173.582125 
L 148.189715 173.065419 
L 147.153453 172.522212 
L 145.608737 171.983967 
L 143.453807 171.494172 
L 140.852927 171.134794 
L 137.552909 170.916079 
L 133.827243 170.899922 
L 129.741898 171.10302 
L 125.368929 171.535817 
L 120.7851 172.202119 
L 116.070423 173.098865 
L 111.306644 174.216073 
L 106.575702 175.53695 
L 101.580984 177.170539 
L 96.817964 178.978012 
L 92.379217 180.914228 
L 88.34929 182.92771 
L 84.802923 184.961977 
L 82.013579 186.806365 
L 79.730771 188.568708 
L 77.985045 190.200117 
L 76.874116 191.539574 
L 76.277454 192.59698 
L 76.077678 193.396663 
L 76.16586 193.972372 
L 76.444761 194.362846 
L 76.907673 194.640675 
L 77.655262 194.812749 
L 78.763426 194.811955 
L 80.307326 194.559704 
L 82.35565 193.967159 
L 84.732582 193.039108 
L 87.649141 191.644415 
L 90.843653 189.859227 
L 94.251128 187.700638 
L 97.804203 185.19424 
L 101.434528 182.3738 
L 105.074142 179.280759 
L 108.656824 175.963547 
L 112.119384 172.476744 
L 115.666686 168.577384 
L 118.93608 164.630408 
L 121.868503 160.720791 
L 124.414852 156.935294 
L 126.536904 153.360421 
L 128.095828 150.320359 
L 129.258272 147.594524 
L 130.020799 145.241401 
L 130.372613 143.456945 
L 130.412631 142.175023 
L 130.230322 141.318026 
L 129.903461 140.803896 
L 129.497417 140.551646 
L 128.98631 140.488031 
L 128.282945 140.649863 
L 127.35381 141.133546 
L 126.171502 142.045492 
L 124.856807 143.347067 
L 123.290503 145.217066 
L 121.481014 147.757586 
L 119.613908 150.785653 
L 117.737302 154.256236 
L 115.897385 158.115543 
L 114.137368 162.301949 
L 112.496512 166.747083 
L 111.009272 171.377065 
L 109.704564 176.11385 
L 108.52339 181.272183 
L 107.603349 186.356844 
L 106.955302 191.26424 
L 106.58058 195.89369 
L 106.471143 200.14967 
L 106.591038 203.670327 
L 106.902958 206.735032 
L 107.381876 209.289265 
L 107.942307 211.143141 
L 108.530365 212.399399 
L 109.105847 213.167067 
L 109.640829 213.554109 
L 110.117647 213.662118 
L 110.594465 213.554109 
L 111.063522 213.230743 
L 111.580228 212.600068 
L 112.123435 211.563805 
L 112.66168 210.01909 
L 113.151475 207.86416 
L 113.510854 205.26328 
L 113.729568 201.963262 
L 113.745725 198.237596 
L 113.542627 194.152251 
L 113.10983 189.779282 
L 112.443528 185.195453 
L 111.546782 180.480775 
L 110.429575 175.716997 
L 109.108697 170.986055 
L 107.475108 165.991337 
L 105.667635 161.228317 
L 103.731419 156.78957 
L 101.717937 152.759643 
L 99.683671 149.213276 
L 97.839282 146.423932 
L 96.076939 144.141124 
L 94.44553 142.395398 
L 93.106073 141.284469 
L 92.048667 140.687807 
L 91.248984 140.488031 
L 90.673275 140.576212 
L 90.282801 140.855114 
L 90.004972 141.318026 
L 89.832898 142.065615 
L 89.833692 143.173779 
L 90.085943 144.717679 
L 90.678488 146.766003 
L 91.606539 149.142935 
L 93.001232 152.059494 
L 94.78642 155.254006 
L 96.945009 158.661481 
L 99.451408 162.214556 
L 102.271847 165.844881 
L 105.364888 169.484495 
L 108.6821 173.067176 
L 112.168903 176.529737 
L 116.068263 180.077039 
L 120.015239 183.346433 
L 123.924856 186.278856 
L 127.710353 188.825205 
L 131.285226 190.947257 
L 134.325288 192.506181 
L 137.051123 193.668625 
L 139.404246 194.431152 
L 141.188702 194.782966 
L 142.470624 194.822984 
L 143.327621 194.640675 
L 143.841751 194.313814 
L 144.094001 193.90777 
L 144.157616 193.396663 
L 143.995784 192.693298 
L 143.512101 191.764163 
L 142.600155 190.581855 
L 141.29858 189.267159 
L 139.428581 187.700856 
L 136.888061 185.891367 
L 133.859994 184.024261 
L 130.389411 182.147655 
L 126.530104 180.307738 
L 122.343698 178.547721 
L 117.898564 176.906865 
L 113.268582 175.419625 
L 108.531797 174.114917 
L 103.373464 172.933743 
L 98.288803 172.013702 
L 93.381408 171.365655 
L 88.751957 170.990933 
L 84.495977 170.881496 
L 80.97532 171.001391 
L 77.910615 171.313311 
L 75.356382 171.792229 
L 73.502506 172.35266 
L 72.246248 172.940718 
L 71.478581 173.5162 
L 71.091538 174.051182 
L 70.983529 174.528 
L 71.091538 175.004818 
L 71.414904 175.473875 
L 72.045579 175.990581 
L 73.081842 176.533788 
L 74.626557 177.072033 
L 76.781487 177.561828 
L 79.382367 177.921206 
L 82.682385 178.139921 
L 86.408051 178.156078 
L 90.493396 177.95298 
L 94.866365 177.520183 
L 99.450194 176.853881 
L 104.164872 175.957135 
L 108.92865 174.839927 
L 113.659592 173.51905 
L 118.65431 171.885461 
L 123.41733 170.077988 
L 127.856077 168.141772 
L 131.886004 166.12829 
L 135.432372 164.094023 
L 138.221715 162.249635 
L 140.504523 160.487292 
L 142.250249 158.855883 
L 143.361178 157.516426 
L 143.95784 156.45902 
L 144.157616 155.659337 
L 144.069435 155.083628 
L 143.790533 154.693154 
L 143.327621 154.415325 
L 142.580032 154.243251 
L 141.471868 154.244045 
L 139.927968 154.496296 
L 137.879644 155.088841 
L 135.502712 156.016892 
L 132.586153 157.411585 
L 129.391641 159.196773 
L 125.984166 161.355362 
L 122.431091 163.86176 
L 118.800766 166.6822 
L 115.161152 169.775241 
L 111.578471 173.092453 
L 108.11591 176.579256 
L 104.568608 180.478616 
L 101.299214 184.425592 
L 98.366792 188.335209 
L 95.820442 192.120706 
L 93.69839 195.695579 
L 92.139466 198.735641 
L 90.977022 201.461476 
L 90.214495 203.814599 
L 89.862681 205.599055 
L 89.822663 206.880977 
L 90.004972 207.737974 
L 90.331833 208.252104 
L 90.737877 208.504354 
L 91.248984 208.567969 
L 91.952349 208.406137 
L 92.881484 207.922454 
L 94.063792 207.010508 
L 95.378488 205.708933 
L 96.944791 203.838934 
L 98.754281 201.298414 
L 100.621386 198.270347 
L 102.497992 194.799764 
L 104.337909 190.940457 
L 106.097926 186.754051 
L 107.738782 182.308917 
L 109.226022 177.678935 
L 110.53073 172.94215 
L 111.711904 167.783817 
L 112.631945 162.699156 
L 113.279992 157.79176 
L 113.654714 153.16231 
L 113.764151 148.90633 
L 113.644256 145.385673 
L 113.332336 142.320968 
L 112.853418 139.766735 
L 112.292987 137.912859 
L 111.704929 136.656601 
L 111.129447 135.888933 
L 110.594465 135.501891 
L 110.117647 135.393882 
L 109.640829 135.501891 
L 109.171772 135.825257 
L 108.655066 136.455932 
L 108.11186 137.492195 
L 107.573614 139.03691 
L 107.083819 141.19184 
L 106.724441 143.79272 
L 106.505726 147.092738 
L 106.489569 150.818404 
L 106.692667 154.903749 
L 107.125464 159.276718 
L 107.791766 163.860547 
L 108.688512 168.575225 
L 109.80572 173.339003 
L 111.126597 178.069945 
L 112.760186 183.064663 
L 114.567659 187.827683 
L 116.503875 192.26643 
L 118.517357 196.296357 
L 120.551624 199.842724 
L 122.396012 202.632068 
L 124.158355 204.914876 
L 125.789764 206.660602 
L 127.129221 207.771531 
L 128.186627 208.368193 
L 128.98631 208.567969 
L 129.562019 208.479788 
L 129.952493 208.200886 
L 130.230322 207.737974 
L 130.402397 206.990385 
L 130.401602 205.882221 
L 130.149351 204.338321 
L 129.556806 202.289997 
L 128.628755 199.913065 
L 127.234062 196.996506 
L 125.448874 193.801994 
L 123.290285 190.394519 
L 120.783887 186.841444 
L 117.963447 183.211119 
L 114.870406 179.571505 
L 111.553194 175.988824 
L 108.066391 172.526263 
L 104.167031 168.978961 
L 100.220055 165.709567 
L 96.310439 162.777144 
L 92.524941 160.230795 
L 88.950068 158.108743 
L 85.910006 156.549819 
L 83.184171 155.387375 
L 80.831048 154.624848 
L 79.046592 154.273034 
L 77.76467 154.233016 
L 76.907673 154.415325 
L 76.393543 154.742186 
L 76.141293 155.14823 
L 76.077678 155.659337 
L 76.23951 156.362702 
L 76.723193 157.291837 
L 77.635139 158.474145 
L 78.936714 159.788841 
L 80.806713 161.355144 
L 83.347233 163.164633 
L 86.3753 165.031739 
L 89.845883 166.908345 
L 93.70519 168.748262 
L 97.891596 170.508279 
L 102.33673 172.149135 
L 106.966712 173.636375 
L 111.703497 174.941083 
L 116.86183 176.122257 
L 121.946491 177.042298 
L 126.853887 177.690345 
L 131.483337 178.065067 
L 135.739317 178.174504 
L 139.259974 178.054609 
L 142.324679 177.742689 
L 144.878912 177.263771 
L 146.732788 176.70334 
L 147.989046 176.115282 
L 148.756714 175.5398 
L 149.143756 175.004818 
L 149.251765 174.528 
L 149.251765 174.528 
" style="fill:none;stroke:#1f77b4;stroke-linecap:square;stroke-width:1.5;"/>
   </g>
   <g id="patch_18">
    <path d="M 70.983529 213.662118 
L 70.983529 135.393882 
" style="fill:none;stroke:#000000;stroke-linecap:square;stroke-linejoin:miter;stroke-width:0.8;"/>
   </g>
   <g id="patch_19">
    <path d="M 149.251765 213.662118 
L 149.251765 135.393882 
" style="fill:none;stroke:#000000;stroke-linecap:square;stroke-linejoin:miter;stroke-width:0.8;"/>
   </g>
   <g id="patch_20">
    <path d="M 70.983529 213.662118 
L 149.251765 213.662118 
" style="fill:none;stroke:#000000;stroke-linecap:square;stroke-linejoin:miter;stroke-width:0.8;"/>
   </g>
   <g id="patch_21">
    <path d="M 70.983529 135.393882 
L 149.251765 135.393882 
" style="fill:none;stroke:#000000;stroke-linecap:square;stroke-linejoin:miter;stroke-width:0.8;"/>
   </g>
  </g>
  <g id="axes_5">
   <g id="patch_22">
    <path d="M 197.025882 213.662118 
L 275.294118 213.662118 
L 275.294118 135.393882 
L 197.025882 135.393882 
z
" style="fill:#ffffff;"/>
   </g>
   <g id="matplotlib.axis_9">
    <g id="xtick_13">
     <g id="line2d_29">
      <g>
       <use style="stroke:#000000;stroke-width:0.8;" x="197.025882" xlink:href="#m18991894d7" y="213.662118"/>
      </g>
     </g>
     <g id="text_25">
      <!-- −1 -->
      <g transform="translate(189.654789 228.260555)scale(0.1 -0.1)">
       <use xlink:href="#DejaVuSans-2212"/>
       <use x="83.789062" xlink:href="#DejaVuSans-31"/>
      </g>
     </g>
    </g>
    <g id="xtick_14">
     <g id="line2d_30">
      <g>
       <use style="stroke:#000000;stroke-width:0.8;" x="236.16" xlink:href="#m18991894d7" y="213.662118"/>
      </g>
     </g>
     <g id="text_26">
      <!-- 0 -->
      <g transform="translate(232.97875 228.260555)scale(0.1 -0.1)">
       <use xlink:href="#DejaVuSans-30"/>
      </g>
     </g>
    </g>
    <g id="xtick_15">
     <g id="line2d_31">
      <g>
       <use style="stroke:#000000;stroke-width:0.8;" x="275.294118" xlink:href="#m18991894d7" y="213.662118"/>
      </g>
     </g>
     <g id="text_27">
      <!-- 1 -->
      <g transform="translate(272.112868 228.260555)scale(0.1 -0.1)">
       <use xlink:href="#DejaVuSans-31"/>
      </g>
     </g>
    </g>
   </g>
   <g id="matplotlib.axis_10">
    <g id="ytick_13">
     <g id="line2d_32">
      <g>
       <use style="stroke:#000000;stroke-width:0.8;" x="197.025882" xlink:href="#mde195225f2" y="213.662118"/>
      </g>
     </g>
     <g id="text_28">
      <!-- −1 -->
      <g transform="translate(175.283695 217.461336)scale(0.1 -0.1)">
       <use xlink:href="#DejaVuSans-2212"/>
       <use x="83.789062" xlink:href="#DejaVuSans-31"/>
      </g>
     </g>
    </g>
    <g id="ytick_14">
     <g id="line2d_33">
      <g>
       <use style="stroke:#000000;stroke-width:0.8;" x="197.025882" xlink:href="#mde195225f2" y="174.528"/>
      </g>
     </g>
     <g id="text_29">
      <!-- 0 -->
      <g transform="translate(183.663382 178.327219)scale(0.1 -0.1)">
       <use xlink:href="#DejaVuSans-30"/>
      </g>
     </g>
    </g>
    <g id="ytick_15">
     <g id="line2d_34">
      <g>
       <use style="stroke:#000000;stroke-width:0.8;" x="197.025882" xlink:href="#mde195225f2" y="135.393882"/>
      </g>
     </g>
     <g id="text_30">
      <!-- 1 -->
      <g transform="translate(183.663382 139.193101)scale(0.1 -0.1)">
       <use xlink:href="#DejaVuSans-31"/>
      </g>
     </g>
    </g>
   </g>
   <g id="line2d_35">
    <path clip-path="url(#p3cf9a40056)" d="M 275.294118 174.528 
L 275.186882 174.119297 
L 274.791622 173.651326 
L 274.108536 173.202808 
L 272.982574 172.727076 
L 271.290023 172.256243 
L 268.907295 171.835682 
L 265.721301 171.525273 
L 262.004653 171.400453 
L 257.830552 171.482403 
L 253.280966 171.785666 
L 248.444918 172.317594 
L 243.41663 173.077982 
L 237.826543 174.158536 
L 232.251754 175.480728 
L 226.818923 177.013468 
L 221.650224 178.716032 
L 216.860393 180.539158 
L 212.553986 182.426462 
L 208.822925 184.31609 
L 205.974396 185.994435 
L 203.721637 187.568138 
L 202.220196 188.864735 
L 201.328651 189.890455 
L 200.907059 190.668057 
L 200.824837 191.230855 
L 200.965661 191.617453 
L 201.29877 191.909168 
L 201.925295 192.122248 
L 202.945164 192.188641 
L 204.461823 192.026334 
L 206.574841 191.540221 
L 209.09724 190.724728 
L 212.286828 189.445613 
L 215.841547 187.773433 
L 219.683822 185.725199 
L 223.731838 183.327629 
L 227.901353 180.6168 
L 232.107529 177.63757 
L 236.639724 174.143668 
L 241.011723 170.47133 
L 245.125947 166.706506 
L 248.893956 162.940992 
L 252.238509 159.270064 
L 255.095279 155.78998 
L 257.242445 152.848446 
L 258.910107 150.216705 
L 260.081951 147.959981 
L 260.712447 146.283641 
L 260.928927 145.113954 
L 260.848672 144.364337 
L 260.574829 143.944072 
L 260.194678 143.765015 
L 259.686108 143.757129 
L 258.938895 143.967768 
L 257.89579 144.501183 
L 256.503354 145.474679 
L 254.718278 147.014221 
L 252.724064 149.021578 
L 250.342702 151.742537 
L 247.824781 154.960147 
L 245.232849 158.621602 
L 242.628535 162.663868 
L 240.071091 167.014865 
L 237.399708 172.01964 
L 234.915303 177.185144 
L 232.67437 182.393772 
L 230.723295 187.524862 
L 229.097316 192.457669 
L 227.819837 197.07439 
L 226.902128 201.263138 
L 226.376471 204.638607 
L 226.14336 207.496643 
L 226.171196 209.593967 
L 226.409119 211.174504 
L 226.736037 212.04637 
L 227.110689 212.51303 
L 227.490106 212.68868 
L 227.916629 212.6551 
L 228.464913 212.350562 
L 229.057377 211.761252 
L 229.774255 210.743361 
L 230.611308 209.169641 
L 231.55132 206.910272 
L 232.560602 203.842745 
L 233.505014 200.219764 
L 234.347832 196.108538 
L 235.056894 191.586222 
L 235.60553 186.738369 
L 235.973316 181.657183 
L 236.152492 175.962 
L 236.092547 170.234174 
L 235.796106 164.604076 
L 235.276175 159.199692 
L 234.555706 154.143513 
L 233.666819 149.549553 
L 232.649719 145.520597 
L 231.644716 142.400086 
L 230.611308 139.886359 
L 229.682862 138.165555 
L 228.884241 137.097463 
L 228.223881 136.539942 
L 227.697888 136.357881 
L 227.294105 136.429086 
L 226.940645 136.708685 
L 226.600126 137.294748 
L 226.316919 138.299442 
L 226.148188 139.841265 
L 226.16465 142.037606 
L 226.411973 144.703875 
L 226.964804 148.122993 
L 227.819837 151.98161 
L 228.977312 156.199941 
L 230.428941 160.692 
L 232.157853 165.367448 
L 234.33025 170.568058 
L 236.75871 175.755538 
L 239.389149 180.811244 
L 242.158374 185.621762 
L 244.995693 190.081633 
L 247.824781 194.095853 
L 250.565772 197.582054 
L 252.931627 200.255624 
L 255.09343 202.387696 
L 256.991639 203.949579 
L 258.441539 204.86064 
L 259.489113 205.262971 
L 260.118674 205.304272 
L 260.574829 205.111928 
L 260.821012 204.765388 
L 260.93261 204.155709 
L 260.849325 203.33353 
L 260.509859 202.147494 
L 259.812027 200.521238 
L 258.643446 198.386853 
L 256.88706 195.693777 
L 254.655334 192.703314 
L 251.977631 189.48599 
L 248.893956 186.115008 
L 245.454315 182.664558 
L 241.717842 179.208137 
L 237.382248 175.51423 
L 232.869657 171.984934 
L 228.283489 168.699688 
L 223.731838 165.728371 
L 219.32477 163.129692 
L 215.171506 160.949934 
L 211.377595 159.222075 
L 208.300304 158.051822 
L 205.677997 157.282112 
L 203.740926 156.925879 
L 202.39551 156.876351 
L 201.536288 157.038304 
L 201.055497 157.330481 
L 200.850225 157.686101 
L 200.839142 158.132604 
L 201.074107 158.759774 
L 201.670555 159.603085 
L 202.756941 160.692 
L 204.469417 162.044748 
L 206.693952 163.511096 
L 209.697262 165.208999 
L 213.234076 166.945976 
L 217.242446 168.672039 
L 221.650224 170.339968 
L 226.376471 171.906511 
L 231.333053 173.333451 
L 236.892895 174.693165 
L 242.489326 175.815716 
L 247.994297 176.678656 
L 253.280966 177.270334 
L 258.226819 177.590024 
L 262.716704 177.647696 
L 266.342031 177.487374 
L 269.42446 177.14597 
L 271.903114 176.651532 
L 273.590992 176.096823 
L 274.625628 175.535258 
L 275.148184 175.004354 
L 275.294118 174.528 
L 275.186882 174.119297 
L 274.791622 173.651326 
L 274.108536 173.202808 
L 272.982574 172.727076 
L 271.290023 172.256243 
L 268.907295 171.835682 
L 265.721301 171.525273 
L 262.004653 171.400453 
L 257.830552 171.482403 
L 253.280966 171.785666 
L 248.444918 172.317594 
L 243.41663 173.077982 
L 237.826543 174.158536 
L 232.251754 175.480728 
L 226.818923 177.013468 
L 221.650224 178.716032 
L 216.860393 180.539158 
L 212.553986 182.426462 
L 208.822925 184.31609 
L 205.974396 185.994435 
L 203.721637 187.568138 
L 202.220196 188.864735 
L 201.328651 189.890455 
L 200.907059 190.668057 
L 200.824837 191.230855 
L 200.965661 191.617453 
L 201.29877 191.909168 
L 201.925295 192.122248 
L 202.945164 192.188641 
L 204.461823 192.026334 
L 206.574841 191.540221 
L 209.09724 190.724728 
L 212.286828 189.445613 
L 215.841547 187.773433 
L 219.683822 185.725199 
L 223.731838 183.327629 
L 227.901353 180.6168 
L 232.107529 177.63757 
L 236.639724 174.143668 
L 241.011723 170.47133 
L 245.125947 166.706506 
L 248.893956 162.940992 
L 252.238509 159.270064 
L 255.095279 155.78998 
L 257.242445 152.848446 
L 258.910107 150.216705 
L 260.081951 147.959981 
L 260.712447 146.283641 
L 260.928927 145.113954 
L 260.848672 144.364337 
L 260.574829 143.944072 
L 260.194678 143.765015 
L 259.686108 143.757129 
L 258.938895 143.967768 
L 257.89579 144.501183 
L 256.503354 145.474679 
L 254.718278 147.014221 
L 252.724064 149.021578 
L 250.342702 151.742537 
L 247.824781 154.960147 
L 245.232849 158.621602 
L 242.628535 162.663868 
L 240.071091 167.014865 
L 237.399708 172.01964 
L 234.915303 177.185144 
L 232.67437 182.393772 
L 230.723295 187.524862 
L 229.097316 192.457669 
L 227.819837 197.07439 
L 226.902128 201.263138 
L 226.376471 204.638607 
L 226.14336 207.496643 
L 226.171196 209.593967 
L 226.409119 211.174504 
L 226.736037 212.04637 
L 227.110689 212.51303 
L 227.490106 212.68868 
L 227.916629 212.6551 
L 228.464913 212.350562 
L 229.057377 211.761252 
L 229.774255 210.743361 
L 230.611308 209.169641 
L 231.55132 206.910272 
L 232.560602 203.842745 
L 233.505014 200.219764 
L 234.347832 196.108538 
L 235.056894 191.586222 
L 235.60553 186.738369 
L 235.973316 181.657183 
L 236.152492 175.962 
L 236.092547 170.234174 
L 235.796106 164.604076 
L 235.276175 159.199692 
L 234.555706 154.143513 
L 233.666819 149.549553 
L 232.649719 145.520597 
L 231.644716 142.400086 
L 230.611308 139.886359 
L 229.682862 138.165555 
L 228.884241 137.097463 
L 228.223881 136.539942 
L 227.697888 136.357881 
L 227.294105 136.429086 
L 226.940645 136.708685 
L 226.600126 137.294748 
L 226.316919 138.299442 
L 226.148188 139.841265 
L 226.16465 142.037606 
L 226.411973 144.703875 
L 226.964804 148.122993 
L 227.819837 151.98161 
L 228.977312 156.199941 
L 230.428941 160.692 
L 232.157853 165.367448 
L 234.33025 170.568058 
L 236.75871 175.755538 
L 239.389149 180.811244 
L 242.158374 185.621762 
L 244.995693 190.081633 
L 247.824781 194.095853 
L 250.565772 197.582054 
L 252.931627 200.255624 
L 255.09343 202.387696 
L 256.991639 203.949579 
L 258.441539 204.86064 
L 259.489113 205.262971 
L 260.118674 205.304272 
L 260.574829 205.111928 
L 260.821012 204.765388 
L 260.93261 204.155709 
L 260.849325 203.33353 
L 260.509859 202.147494 
L 259.812027 200.521238 
L 258.643446 198.386853 
L 256.88706 195.693777 
L 254.655334 192.703314 
L 251.977631 189.48599 
L 248.893956 186.115008 
L 245.454315 182.664558 
L 241.717842 179.208137 
L 237.382248 175.51423 
L 232.869657 171.984934 
L 228.283489 168.699688 
L 223.731838 165.728371 
L 219.32477 163.129692 
L 215.171506 160.949934 
L 211.377595 159.222075 
L 208.300304 158.051822 
L 205.677997 157.282112 
L 203.740926 156.925879 
L 202.39551 156.876351 
L 201.536288 157.038304 
L 201.055497 157.330481 
L 200.850225 157.686101 
L 200.839142 158.132604 
L 201.074107 158.759774 
L 201.670555 159.603085 
L 202.756941 160.692 
L 204.469417 162.044748 
L 206.693952 163.511096 
L 209.697262 165.208999 
L 213.234076 166.945976 
L 217.242446 168.672039 
L 221.650224 170.339968 
L 226.376471 171.906511 
L 231.333053 173.333451 
L 236.892895 174.693165 
L 242.489326 175.815716 
L 247.994297 176.678656 
L 253.280966 177.270334 
L 258.226819 177.590024 
L 262.716704 177.647696 
L 266.342031 177.487374 
L 269.42446 177.14597 
L 271.903114 176.651532 
L 273.590992 176.096823 
L 274.625628 175.535258 
L 275.148184 175.004354 
L 275.294118 174.528 
L 275.294118 174.528 
" style="fill:none;stroke:#1f77b4;stroke-linecap:square;stroke-width:1.5;"/>
   </g>
   <g id="patch_23">
    <path d="M 197.025882 213.662118 
L 197.025882 135.393882 
" style="fill:none;stroke:#000000;stroke-linecap:square;stroke-linejoin:miter;stroke-width:0.8;"/>
   </g>
   <g id="patch_24">
    <path d="M 275.294118 213.662118 
L 275.294118 135.393882 
" style="fill:none;stroke:#000000;stroke-linecap:square;stroke-linejoin:miter;stroke-width:0.8;"/>
   </g>
   <g id="patch_25">
    <path d="M 197.025882 213.662118 
L 275.294118 213.662118 
" style="fill:none;stroke:#000000;stroke-linecap:square;stroke-linejoin:miter;stroke-width:0.8;"/>
   </g>
   <g id="patch_26">
    <path d="M 197.025882 135.393882 
L 275.294118 135.393882 
" style="fill:none;stroke:#000000;stroke-linecap:square;stroke-linejoin:miter;stroke-width:0.8;"/>
   </g>
  </g>
  <g id="axes_6">
   <g id="patch_27">
    <path d="M 323.068235 213.662118 
L 401.336471 213.662118 
L 401.336471 135.393882 
L 323.068235 135.393882 
z
" style="fill:#ffffff;"/>
   </g>
   <g id="matplotlib.axis_11">
    <g id="xtick_16">
     <g id="line2d_36">
      <g>
       <use style="stroke:#000000;stroke-width:0.8;" x="323.068235" xlink:href="#m18991894d7" y="213.662118"/>
      </g>
     </g>
     <g id="text_31">
      <!-- −1 -->
      <g transform="translate(315.697142 228.260555)scale(0.1 -0.1)">
       <use xlink:href="#DejaVuSans-2212"/>
       <use x="83.789062" xlink:href="#DejaVuSans-31"/>
      </g>
     </g>
    </g>
    <g id="xtick_17">
     <g id="line2d_37">
      <g>
       <use style="stroke:#000000;stroke-width:0.8;" x="362.202353" xlink:href="#m18991894d7" y="213.662118"/>
      </g>
     </g>
     <g id="text_32">
      <!-- 0 -->
      <g transform="translate(359.021103 228.260555)scale(0.1 -0.1)">
       <use xlink:href="#DejaVuSans-30"/>
      </g>
     </g>
    </g>
    <g id="xtick_18">
     <g id="line2d_38">
      <g>
       <use style="stroke:#000000;stroke-width:0.8;" x="401.336471" xlink:href="#m18991894d7" y="213.662118"/>
      </g>
     </g>
     <g id="text_33">
      <!-- 1 -->
      <g transform="translate(398.155221 228.260555)scale(0.1 -0.1)">
       <use xlink:href="#DejaVuSans-31"/>
      </g>
     </g>
    </g>
   </g>
   <g id="matplotlib.axis_12">
    <g id="ytick_16">
     <g id="line2d_39">
      <g>
       <use style="stroke:#000000;stroke-width:0.8;" x="323.068235" xlink:href="#mde195225f2" y="213.662118"/>
      </g>
     </g>
     <g id="text_34">
      <!-- −1 -->
      <g transform="translate(301.326048 217.461336)scale(0.1 -0.1)">
       <use xlink:href="#DejaVuSans-2212"/>
       <use x="83.789062" xlink:href="#DejaVuSans-31"/>
      </g>
     </g>
    </g>
    <g id="ytick_17">
     <g id="line2d_40">
      <g>
       <use style="stroke:#000000;stroke-width:0.8;" x="323.068235" xlink:href="#mde195225f2" y="174.528"/>
      </g>
     </g>
     <g id="text_35">
      <!-- 0 -->
      <g transform="translate(309.705735 178.327219)scale(0.1 -0.1)">
       <use xlink:href="#DejaVuSans-30"/>
      </g>
     </g>
    </g>
    <g id="ytick_18">
     <g id="line2d_41">
      <g>
       <use style="stroke:#000000;stroke-width:0.8;" x="323.068235" xlink:href="#mde195225f2" y="135.393882"/>
      </g>
     </g>
     <g id="text_36">
      <!-- 1 -->
      <g transform="translate(309.705735 139.193101)scale(0.1 -0.1)">
       <use xlink:href="#DejaVuSans-31"/>
      </g>
     </g>
    </g>
   </g>
   <g id="line2d_42">
    <path clip-path="url(#p50ac1dbcb3)" d="M 401.336471 174.528 
L 401.239655 174.187327 
L 400.868672 173.785569 
L 400.088297 173.337386 
L 398.748271 172.86846 
L 396.691279 172.418567 
L 394.08635 172.07466 
L 390.603291 171.843321 
L 386.57112 171.794605 
L 381.602013 171.973986 
L 376.195093 172.411797 
L 370.48569 173.112103 
L 364.61608 174.067557 
L 358.731752 175.25937 
L 352.977602 176.657702 
L 347.494166 178.222441 
L 342.413989 179.904379 
L 337.858235 181.646718 
L 333.933619 183.386884 
L 330.729754 185.058584 
L 328.50217 186.461861 
L 327.088157 187.586852 
L 326.31609 188.447364 
L 326.019644 189.073356 
L 326.047143 189.503978 
L 326.266958 189.78167 
L 326.763449 190.010877 
L 327.655933 190.126307 
L 329.073406 190.046733 
L 331.145985 189.675203 
L 333.684233 188.996068 
L 336.99069 187.876888 
L 340.734573 186.378851 
L 345.256783 184.311529 
L 350.084582 181.837907 
L 355.091388 179.006014 
L 360.148564 175.877087 
L 365.128887 172.52416 
L 369.90991 169.030253 
L 374.377145 165.486202 
L 378.426966 161.988194 
L 381.96917 158.635071 
L 384.929109 155.525482 
L 387.249363 152.754966 
L 388.770372 150.606049 
L 389.646233 149.025573 
L 390.030227 147.935106 
L 390.06455 147.243321 
L 389.874353 146.856 
L 389.565002 146.683566 
L 389.018591 146.661806 
L 388.14987 146.896701 
L 386.870747 147.512661 
L 385.098112 148.649052 
L 383.01297 150.247836 
L 380.386494 152.54715 
L 377.500871 155.363878 
L 374.114024 159.004409 
L 370.600333 163.137257 
L 367.058367 167.669606 
L 363.583533 172.495655 
L 360.265424 177.499243 
L 357.185395 182.55681 
L 354.414458 187.540623 
L 352.011541 192.322161 
L 350.022156 196.775585 
L 348.477517 200.78119 
L 347.394112 204.228736 
L 346.811239 206.796142 
L 346.60687 208.591489 
L 346.66941 209.745897 
L 346.902434 210.398158 
L 347.226374 210.68321 
L 347.578165 210.724135 
L 348.09131 210.535137 
L 348.804014 209.985676 
L 349.750051 208.927104 
L 350.952874 207.198858 
L 352.267466 204.923825 
L 353.814105 201.794427 
L 355.402157 198.08783 
L 357.138025 193.428327 
L 358.80268 188.265442 
L 360.340575 182.722646 
L 361.704054 176.934197 
L 362.854796 171.041699 
L 363.764925 165.19044 
L 364.417714 159.525605 
L 364.807905 154.188484 
L 364.941605 149.312752 
L 364.835787 145.020947 
L 364.517404 141.421229 
L 364.073405 138.8262 
L 363.575167 137.089307 
L 363.075616 136.046706 
L 362.61072 135.533269 
L 362.202353 135.393882 
L 361.86168 135.490698 
L 361.459922 135.861681 
L 361.011739 136.642056 
L 360.542813 137.982082 
L 360.09292 140.039074 
L 359.749013 142.644003 
L 359.517674 146.127062 
L 359.468958 150.159233 
L 359.648339 155.12834 
L 360.08615 160.53526 
L 360.786456 166.244663 
L 361.74191 172.114273 
L 362.933723 177.998601 
L 364.332055 183.752751 
L 365.896794 189.236187 
L 367.578732 194.316364 
L 369.321071 198.872118 
L 371.061237 202.796734 
L 372.732937 206.000599 
L 374.136214 208.228183 
L 375.261205 209.642195 
L 376.121717 210.414263 
L 376.747709 210.710709 
L 377.178331 210.68321 
L 377.456023 210.463395 
L 377.68523 209.966904 
L 377.80066 209.07442 
L 377.721086 207.656947 
L 377.349556 205.584368 
L 376.670421 203.04612 
L 375.551241 199.739663 
L 374.053204 195.99578 
L 371.985882 191.47357 
L 369.51226 186.645771 
L 366.680367 181.638965 
L 363.55144 176.581789 
L 360.198513 171.601466 
L 356.704606 166.820443 
L 353.160555 162.353208 
L 349.662547 158.303387 
L 346.309424 154.761183 
L 343.199835 151.801244 
L 340.429319 149.48099 
L 338.280402 147.959981 
L 336.699926 147.08412 
L 335.609459 146.700126 
L 334.917673 146.665803 
L 334.530353 146.856 
L 334.357919 147.165351 
L 334.336159 147.711762 
L 334.571054 148.580483 
L 335.187014 149.859606 
L 336.323405 151.632241 
L 337.922189 153.717383 
L 340.221502 156.343859 
L 343.03823 159.229482 
L 346.678761 162.616329 
L 350.81161 166.13002 
L 355.343959 169.671986 
L 360.170008 173.14682 
L 365.173596 176.464929 
L 370.231163 179.544958 
L 375.214976 182.315894 
L 379.996514 184.718812 
L 384.449938 186.708197 
L 388.455543 188.252836 
L 391.903089 189.336241 
L 394.470495 189.919114 
L 396.265842 190.123483 
L 397.42025 190.060943 
L 398.072511 189.827919 
L 398.357563 189.503978 
L 398.398488 189.152188 
L 398.20949 188.639043 
L 397.660029 187.926339 
L 396.601457 186.980302 
L 394.873211 185.777479 
L 392.598177 184.462887 
L 389.46878 182.916248 
L 385.762183 181.328195 
L 381.10268 179.592327 
L 375.939795 177.927673 
L 370.396999 176.389778 
L 364.60855 175.026299 
L 358.716052 173.875557 
L 352.864793 172.965428 
L 347.199958 172.312639 
L 341.862837 171.922448 
L 336.987105 171.788747 
L 332.6953 171.894566 
L 329.095582 172.212949 
L 326.500553 172.656948 
L 324.76366 173.155185 
L 323.721059 173.654737 
L 323.207622 174.119633 
L 323.068235 174.528 
L 323.165051 174.868673 
L 323.536034 175.270431 
L 324.316409 175.718614 
L 325.656435 176.18754 
L 327.713427 176.637433 
L 330.318356 176.98134 
L 333.801415 177.212679 
L 337.833586 177.261395 
L 342.802693 177.082014 
L 348.209613 176.644203 
L 353.919016 175.943897 
L 359.788626 174.988443 
L 365.672954 173.79663 
L 371.427104 172.398298 
L 376.91054 170.833559 
L 381.990717 169.151621 
L 386.546471 167.409282 
L 390.471087 165.669116 
L 393.674952 163.997416 
L 395.902536 162.594139 
L 397.316548 161.469148 
L 398.088616 160.608636 
L 398.385062 159.982644 
L 398.357563 159.552022 
L 398.137748 159.27433 
L 397.641257 159.045123 
L 396.748773 158.929693 
L 395.3313 159.009267 
L 393.258721 159.380797 
L 390.720472 160.059932 
L 387.414016 161.179112 
L 383.670133 162.677149 
L 379.147923 164.744471 
L 374.320124 167.218093 
L 369.313318 170.049986 
L 364.256142 173.178913 
L 359.275819 176.53184 
L 354.494796 180.025747 
L 350.027561 183.569798 
L 345.97774 187.067806 
L 342.435536 190.420929 
L 339.475597 193.530518 
L 337.155343 196.301034 
L 335.634334 198.449951 
L 334.758473 200.030427 
L 334.374479 201.120894 
L 334.340156 201.812679 
L 334.530353 202.2 
L 334.839704 202.372434 
L 335.386115 202.394194 
L 336.254836 202.159299 
L 337.533959 201.543339 
L 339.306594 200.406948 
L 341.391736 198.808164 
L 344.018212 196.50885 
L 346.903835 193.692122 
L 350.290682 190.051591 
L 353.804373 185.918743 
L 357.346339 181.386394 
L 360.821173 176.560345 
L 364.139282 171.556757 
L 367.219311 166.49919 
L 369.990247 161.515377 
L 372.393165 156.733839 
L 374.38255 152.280415 
L 375.927189 148.27481 
L 377.010594 144.827264 
L 377.593467 142.259858 
L 377.797836 140.464511 
L 377.735296 139.310103 
L 377.502272 138.657842 
L 377.178331 138.37279 
L 376.826541 138.331865 
L 376.313395 138.520863 
L 375.600692 139.070324 
L 374.654655 140.128896 
L 373.451831 141.857142 
L 372.13724 144.132175 
L 370.590601 147.261573 
L 369.002548 150.96817 
L 367.26668 155.627673 
L 365.602026 160.790558 
L 364.064131 166.333354 
L 362.700652 172.121803 
L 361.549909 178.014301 
L 360.639781 183.86556 
L 359.986992 189.530395 
L 359.596801 194.867516 
L 359.4631 199.743248 
L 359.568919 204.035053 
L 359.887302 207.634771 
L 360.331301 210.2298 
L 360.829538 211.966693 
L 361.32909 213.009294 
L 361.793986 213.522731 
L 362.202353 213.662118 
L 362.543026 213.565302 
L 362.944784 213.194319 
L 363.392967 212.413944 
L 363.861893 211.073918 
L 364.311786 209.016926 
L 364.655693 206.411997 
L 364.887032 202.928938 
L 364.935748 198.896767 
L 364.756367 193.92766 
L 364.318556 188.52074 
L 363.61825 182.811337 
L 362.662796 176.941727 
L 361.470983 171.057399 
L 360.072651 165.303249 
L 358.507912 159.819813 
L 356.825973 154.739636 
L 355.083635 150.183882 
L 353.343469 146.259266 
L 351.671768 143.055401 
L 350.268492 140.827817 
L 349.143501 139.413805 
L 348.282989 138.641737 
L 347.656997 138.345291 
L 347.226374 138.37279 
L 346.948683 138.592605 
L 346.719476 139.089096 
L 346.604046 139.98158 
L 346.68362 141.399053 
L 347.05515 143.471632 
L 347.734285 146.00988 
L 348.853465 149.316337 
L 350.351502 153.06022 
L 352.418824 157.58243 
L 354.892446 162.410229 
L 357.724339 167.417035 
L 360.853266 172.474211 
L 364.206193 177.454534 
L 367.7001 182.235557 
L 371.244151 186.702792 
L 374.742159 190.752613 
L 378.095282 194.294817 
L 381.204871 197.254756 
L 383.975387 199.57501 
L 386.124304 201.096019 
L 387.70478 201.97188 
L 388.795247 202.355874 
L 389.487032 202.390197 
L 389.874353 202.2 
L 390.046787 201.890649 
L 390.068547 201.344238 
L 389.833652 200.475517 
L 389.217691 199.196394 
L 388.081301 197.423759 
L 386.482517 195.338617 
L 384.183203 192.712141 
L 381.366475 189.826518 
L 377.725944 186.439671 
L 373.593096 182.92598 
L 369.060747 179.384014 
L 364.234698 175.90918 
L 359.23111 172.591071 
L 354.173542 169.511042 
L 349.18973 166.740106 
L 344.408192 164.337188 
L 339.954768 162.347803 
L 335.949163 160.803164 
L 332.501617 159.719759 
L 329.934211 159.136886 
L 328.138864 158.932517 
L 326.984456 158.995057 
L 326.332195 159.228081 
L 326.047143 159.552022 
L 326.006218 159.903812 
L 326.195216 160.416957 
L 326.744677 161.129661 
L 327.803249 162.075698 
L 329.531495 163.278521 
L 331.806528 164.593113 
L 334.935926 166.139752 
L 338.642523 167.727805 
L 343.302025 169.463673 
L 348.464911 171.128327 
L 354.007707 172.666222 
L 359.796156 174.029701 
L 365.688654 175.180443 
L 371.539913 176.090572 
L 377.204748 176.743361 
L 382.541869 177.133552 
L 387.417601 177.267253 
L 391.709406 177.161434 
L 395.309124 176.843051 
L 397.904153 176.399052 
L 399.641046 175.900815 
L 400.683647 175.401263 
L 401.197084 174.936367 
L 401.336471 174.528 
L 401.336471 174.528 
" style="fill:none;stroke:#1f77b4;stroke-linecap:square;stroke-width:1.5;"/>
   </g>
   <g id="patch_28">
    <path d="M 323.068235 213.662118 
L 323.068235 135.393882 
" style="fill:none;stroke:#000000;stroke-linecap:square;stroke-linejoin:miter;stroke-width:0.8;"/>
   </g>
   <g id="patch_29">
    <path d="M 401.336471 213.662118 
L 401.336471 135.393882 
" style="fill:none;stroke:#000000;stroke-linecap:square;stroke-linejoin:miter;stroke-width:0.8;"/>
   </g>
   <g id="patch_30">
    <path d="M 323.068235 213.662118 
L 401.336471 213.662118 
" style="fill:none;stroke:#000000;stroke-linecap:square;stroke-linejoin:miter;stroke-width:0.8;"/>
   </g>
   <g id="patch_31">
    <path d="M 323.068235 135.393882 
L 401.336471 135.393882 
" style="fill:none;stroke:#000000;stroke-linecap:square;stroke-linejoin:miter;stroke-width:0.8;"/>
   </g>
  </g>
 </g>
 <defs>
  <clipPath id="p38e8876ef6">
   <rect height="78.268235" width="78.268235" x="70.983529" y="41.472"/>
  </clipPath>
  <clipPath id="p0960820f61">
   <rect height="78.268235" width="78.268235" x="197.025882" y="41.472"/>
  </clipPath>
  <clipPath id="pbf2321e1cd">
   <rect height="78.268235" width="78.268235" x="323.068235" y="41.472"/>
  </clipPath>
  <clipPath id="pe24e75a688">
   <rect height="78.268235" width="78.268235" x="70.983529" y="135.393882"/>
  </clipPath>
  <clipPath id="p3cf9a40056">
   <rect height="78.268235" width="78.268235" x="197.025882" y="135.393882"/>
  </clipPath>
  <clipPath id="p50ac1dbcb3">
   <rect height="78.268235" width="78.268235" x="323.068235" y="135.393882"/>
  </clipPath>
 </defs>
</svg>
