<?xml version="1.0" encoding="utf-8" standalone="no"?>
<!DOCTYPE svg PUBLIC "-//W3C//DTD SVG 1.1//EN"
  "http://www.w3.org/Graphics/SVG/1.1/DTD/svg11.dtd">
<!-- Created with matplotlib (http://matplotlib.org/) -->
<svg height="345.6pt" version="1.1" viewBox="0 0 460.8 345.6" width="460.8pt" xmlns="http://www.w3.org/2000/svg" xmlns:xlink="http://www.w3.org/1999/xlink">
 <defs>
  <style type="text/css">
*{stroke-linecap:butt;stroke-linejoin:round;}
  </style>
 </defs>
 <g id="figure_1">
  <g id="patch_1">
   <path d="M 0 345.6 
L 460.8 345.6 
L 460.8 0 
L 0 0 
z
" style="fill:#ffffff;"/>
  </g>
  <g id="axes_1">
   <g id="patch_2">
    <path d="M 118.046683 307.584 
L 354.273317 307.584 
L 354.273317 41.472 
L 118.046683 41.472 
z
" style="fill:#ffffff;"/>
   </g>
   <g id="matplotlib.axis_1">
    <g id="xtick_1">
     <g id="line2d_1">
      <defs>
       <path d="M 0 0 
L 0 3.5 
" id="meb1265e6e7" style="stroke:#000000;stroke-width:0.8;"/>
      </defs>
      <g>
       <use style="stroke:#000000;stroke-width:0.8;" x="137.374091" xlink:href="#meb1265e6e7" y="307.584"/>
      </g>
     </g>
     <g id="text_1">
      <!-- −0.50 -->
      <defs>
       <path d="M 10.59375 35.5 
L 73.1875 35.5 
L 73.1875 27.203125 
L 10.59375 27.203125 
z
" id="DejaVuSans-2212"/>
       <path d="M 31.78125 66.40625 
Q 24.171875 66.40625 20.328125 58.90625 
Q 16.5 51.421875 16.5 36.375 
Q 16.5 21.390625 20.328125 13.890625 
Q 24.171875 6.390625 31.78125 6.390625 
Q 39.453125 6.390625 43.28125 13.890625 
Q 47.125 21.390625 47.125 36.375 
Q 47.125 51.421875 43.28125 58.90625 
Q 39.453125 66.40625 31.78125 66.40625 
z
M 31.78125 74.21875 
Q 44.046875 74.21875 50.515625 64.515625 
Q 56.984375 54.828125 56.984375 36.375 
Q 56.984375 17.96875 50.515625 8.265625 
Q 44.046875 -1.421875 31.78125 -1.421875 
Q 19.53125 -1.421875 13.0625 8.265625 
Q 6.59375 17.96875 6.59375 36.375 
Q 6.59375 54.828125 13.0625 64.515625 
Q 19.53125 74.21875 31.78125 74.21875 
z
" id="DejaVuSans-30"/>
       <path d="M 10.6875 12.40625 
L 21 12.40625 
L 21 0 
L 10.6875 0 
z
" id="DejaVuSans-2e"/>
       <path d="M 10.796875 72.90625 
L 49.515625 72.90625 
L 49.515625 64.59375 
L 19.828125 64.59375 
L 19.828125 46.734375 
Q 21.96875 47.46875 24.109375 47.828125 
Q 26.265625 48.1875 28.421875 48.1875 
Q 40.625 48.1875 47.75 41.5 
Q 54.890625 34.8125 54.890625 23.390625 
Q 54.890625 11.625 47.5625 5.09375 
Q 40.234375 -1.421875 26.90625 -1.421875 
Q 22.3125 -1.421875 17.546875 -0.640625 
Q 12.796875 0.140625 7.71875 1.703125 
L 7.71875 11.625 
Q 12.109375 9.234375 16.796875 8.0625 
Q 21.484375 6.890625 26.703125 6.890625 
Q 35.15625 6.890625 40.078125 11.328125 
Q 45.015625 15.765625 45.015625 23.390625 
Q 45.015625 31 40.078125 35.4375 
Q 35.15625 39.890625 26.703125 39.890625 
Q 22.75 39.890625 18.8125 39.015625 
Q 14.890625 38.140625 10.796875 36.28125 
z
" id="DejaVuSans-35"/>
      </defs>
      <g transform="translate(122.051434 322.182437)scale(0.1 -0.1)">
       <use xlink:href="#DejaVuSans-2212"/>
       <use x="83.789062" xlink:href="#DejaVuSans-30"/>
       <use x="147.412109" xlink:href="#DejaVuSans-2e"/>
       <use x="179.199219" xlink:href="#DejaVuSans-35"/>
       <use x="242.822266" xlink:href="#DejaVuSans-30"/>
      </g>
     </g>
    </g>
    <g id="xtick_2">
     <g id="line2d_2">
      <g>
       <use style="stroke:#000000;stroke-width:0.8;" x="171.734366" xlink:href="#meb1265e6e7" y="307.584"/>
      </g>
     </g>
     <g id="text_2">
      <!-- −0.25 -->
      <defs>
       <path d="M 19.1875 8.296875 
L 53.609375 8.296875 
L 53.609375 0 
L 7.328125 0 
L 7.328125 8.296875 
Q 12.9375 14.109375 22.625 23.890625 
Q 32.328125 33.6875 34.8125 36.53125 
Q 39.546875 41.84375 41.421875 45.53125 
Q 43.3125 49.21875 43.3125 52.78125 
Q 43.3125 58.59375 39.234375 62.25 
Q 35.15625 65.921875 28.609375 65.921875 
Q 23.96875 65.921875 18.8125 64.3125 
Q 13.671875 62.703125 7.8125 59.421875 
L 7.8125 69.390625 
Q 13.765625 71.78125 18.9375 73 
Q 24.125 74.21875 28.421875 74.21875 
Q 39.75 74.21875 46.484375 68.546875 
Q 53.21875 62.890625 53.21875 53.421875 
Q 53.21875 48.921875 51.53125 44.890625 
Q 49.859375 40.875 45.40625 35.40625 
Q 44.1875 33.984375 37.640625 27.21875 
Q 31.109375 20.453125 19.1875 8.296875 
z
" id="DejaVuSans-32"/>
      </defs>
      <g transform="translate(156.41171 322.182437)scale(0.1 -0.1)">
       <use xlink:href="#DejaVuSans-2212"/>
       <use x="83.789062" xlink:href="#DejaVuSans-30"/>
       <use x="147.412109" xlink:href="#DejaVuSans-2e"/>
       <use x="179.199219" xlink:href="#DejaVuSans-32"/>
       <use x="242.822266" xlink:href="#DejaVuSans-35"/>
      </g>
     </g>
    </g>
    <g id="xtick_3">
     <g id="line2d_3">
      <g>
       <use style="stroke:#000000;stroke-width:0.8;" x="206.094641" xlink:href="#meb1265e6e7" y="307.584"/>
      </g>
     </g>
     <g id="text_3">
      <!-- 0.00 -->
      <g transform="translate(194.961829 322.182437)scale(0.1 -0.1)">
       <use xlink:href="#DejaVuSans-30"/>
       <use x="63.623047" xlink:href="#DejaVuSans-2e"/>
       <use x="95.410156" xlink:href="#DejaVuSans-30"/>
       <use x="159.033203" xlink:href="#DejaVuSans-30"/>
      </g>
     </g>
    </g>
    <g id="xtick_4">
     <g id="line2d_4">
      <g>
       <use style="stroke:#000000;stroke-width:0.8;" x="240.454916" xlink:href="#meb1265e6e7" y="307.584"/>
      </g>
     </g>
     <g id="text_4">
      <!-- 0.25 -->
      <g transform="translate(229.322104 322.182437)scale(0.1 -0.1)">
       <use xlink:href="#DejaVuSans-30"/>
       <use x="63.623047" xlink:href="#DejaVuSans-2e"/>
       <use x="95.410156" xlink:href="#DejaVuSans-32"/>
       <use x="159.033203" xlink:href="#DejaVuSans-35"/>
      </g>
     </g>
    </g>
    <g id="xtick_5">
     <g id="line2d_5">
      <g>
       <use style="stroke:#000000;stroke-width:0.8;" x="274.815192" xlink:href="#meb1265e6e7" y="307.584"/>
      </g>
     </g>
     <g id="text_5">
      <!-- 0.50 -->
      <g transform="translate(263.682379 322.182437)scale(0.1 -0.1)">
       <use xlink:href="#DejaVuSans-30"/>
       <use x="63.623047" xlink:href="#DejaVuSans-2e"/>
       <use x="95.410156" xlink:href="#DejaVuSans-35"/>
       <use x="159.033203" xlink:href="#DejaVuSans-30"/>
      </g>
     </g>
    </g>
    <g id="xtick_6">
     <g id="line2d_6">
      <g>
       <use style="stroke:#000000;stroke-width:0.8;" x="309.175467" xlink:href="#meb1265e6e7" y="307.584"/>
      </g>
     </g>
     <g id="text_6">
      <!-- 0.75 -->
      <defs>
       <path d="M 8.203125 72.90625 
L 55.078125 72.90625 
L 55.078125 68.703125 
L 28.609375 0 
L 18.3125 0 
L 43.21875 64.59375 
L 8.203125 64.59375 
z
" id="DejaVuSans-37"/>
      </defs>
      <g transform="translate(298.042655 322.182437)scale(0.1 -0.1)">
       <use xlink:href="#DejaVuSans-30"/>
       <use x="63.623047" xlink:href="#DejaVuSans-2e"/>
       <use x="95.410156" xlink:href="#DejaVuSans-37"/>
       <use x="159.033203" xlink:href="#DejaVuSans-35"/>
      </g>
     </g>
    </g>
    <g id="xtick_7">
     <g id="line2d_7">
      <g>
       <use style="stroke:#000000;stroke-width:0.8;" x="343.535742" xlink:href="#meb1265e6e7" y="307.584"/>
      </g>
     </g>
     <g id="text_7">
      <!-- 1.00 -->
      <defs>
       <path d="M 12.40625 8.296875 
L 28.515625 8.296875 
L 28.515625 63.921875 
L 10.984375 60.40625 
L 10.984375 69.390625 
L 28.421875 72.90625 
L 38.28125 72.90625 
L 38.28125 8.296875 
L 54.390625 8.296875 
L 54.390625 0 
L 12.40625 0 
z
" id="DejaVuSans-31"/>
      </defs>
      <g transform="translate(332.40293 322.182437)scale(0.1 -0.1)">
       <use xlink:href="#DejaVuSans-31"/>
       <use x="63.623047" xlink:href="#DejaVuSans-2e"/>
       <use x="95.410156" xlink:href="#DejaVuSans-30"/>
       <use x="159.033203" xlink:href="#DejaVuSans-30"/>
      </g>
     </g>
    </g>
   </g>
   <g id="matplotlib.axis_2">
    <g id="ytick_1">
     <g id="line2d_8">
      <defs>
       <path d="M 0 0 
L -3.5 0 
" id="m8fa91490a8" style="stroke:#000000;stroke-width:0.8;"/>
      </defs>
      <g>
       <use style="stroke:#000000;stroke-width:0.8;" x="118.046683" xlink:href="#m8fa91490a8" y="277.608826"/>
      </g>
     </g>
     <g id="text_8">
      <!-- −0.75 -->
      <g transform="translate(80.401371 281.408045)scale(0.1 -0.1)">
       <use xlink:href="#DejaVuSans-2212"/>
       <use x="83.789062" xlink:href="#DejaVuSans-30"/>
       <use x="147.412109" xlink:href="#DejaVuSans-2e"/>
       <use x="179.199219" xlink:href="#DejaVuSans-37"/>
       <use x="242.822266" xlink:href="#DejaVuSans-35"/>
      </g>
     </g>
    </g>
    <g id="ytick_2">
     <g id="line2d_9">
      <g>
       <use style="stroke:#000000;stroke-width:0.8;" x="118.046683" xlink:href="#m8fa91490a8" y="243.248551"/>
      </g>
     </g>
     <g id="text_9">
      <!-- −0.50 -->
      <g transform="translate(80.401371 247.047769)scale(0.1 -0.1)">
       <use xlink:href="#DejaVuSans-2212"/>
       <use x="83.789062" xlink:href="#DejaVuSans-30"/>
       <use x="147.412109" xlink:href="#DejaVuSans-2e"/>
       <use x="179.199219" xlink:href="#DejaVuSans-35"/>
       <use x="242.822266" xlink:href="#DejaVuSans-30"/>
      </g>
     </g>
    </g>
    <g id="ytick_3">
     <g id="line2d_10">
      <g>
       <use style="stroke:#000000;stroke-width:0.8;" x="118.046683" xlink:href="#m8fa91490a8" y="208.888275"/>
      </g>
     </g>
     <g id="text_10">
      <!-- −0.25 -->
      <g transform="translate(80.401371 212.687494)scale(0.1 -0.1)">
       <use xlink:href="#DejaVuSans-2212"/>
       <use x="83.789062" xlink:href="#DejaVuSans-30"/>
       <use x="147.412109" xlink:href="#DejaVuSans-2e"/>
       <use x="179.199219" xlink:href="#DejaVuSans-32"/>
       <use x="242.822266" xlink:href="#DejaVuSans-35"/>
      </g>
     </g>
    </g>
    <g id="ytick_4">
     <g id="line2d_11">
      <g>
       <use style="stroke:#000000;stroke-width:0.8;" x="118.046683" xlink:href="#m8fa91490a8" y="174.528"/>
      </g>
     </g>
     <g id="text_11">
      <!-- 0.00 -->
      <g transform="translate(88.781058 178.327219)scale(0.1 -0.1)">
       <use xlink:href="#DejaVuSans-30"/>
       <use x="63.623047" xlink:href="#DejaVuSans-2e"/>
       <use x="95.410156" xlink:href="#DejaVuSans-30"/>
       <use x="159.033203" xlink:href="#DejaVuSans-30"/>
      </g>
     </g>
    </g>
    <g id="ytick_5">
     <g id="line2d_12">
      <g>
       <use style="stroke:#000000;stroke-width:0.8;" x="118.046683" xlink:href="#m8fa91490a8" y="140.167725"/>
      </g>
     </g>
     <g id="text_12">
      <!-- 0.25 -->
      <g transform="translate(88.781058 143.966943)scale(0.1 -0.1)">
       <use xlink:href="#DejaVuSans-30"/>
       <use x="63.623047" xlink:href="#DejaVuSans-2e"/>
       <use x="95.410156" xlink:href="#DejaVuSans-32"/>
       <use x="159.033203" xlink:href="#DejaVuSans-35"/>
      </g>
     </g>
    </g>
    <g id="ytick_6">
     <g id="line2d_13">
      <g>
       <use style="stroke:#000000;stroke-width:0.8;" x="118.046683" xlink:href="#m8fa91490a8" y="105.807449"/>
      </g>
     </g>
     <g id="text_13">
      <!-- 0.50 -->
      <g transform="translate(88.781058 109.606668)scale(0.1 -0.1)">
       <use xlink:href="#DejaVuSans-30"/>
       <use x="63.623047" xlink:href="#DejaVuSans-2e"/>
       <use x="95.410156" xlink:href="#DejaVuSans-35"/>
       <use x="159.033203" xlink:href="#DejaVuSans-30"/>
      </g>
     </g>
    </g>
    <g id="ytick_7">
     <g id="line2d_14">
      <g>
       <use style="stroke:#000000;stroke-width:0.8;" x="118.046683" xlink:href="#m8fa91490a8" y="71.447174"/>
      </g>
     </g>
     <g id="text_14">
      <!-- 0.75 -->
      <g transform="translate(88.781058 75.246393)scale(0.1 -0.1)">
       <use xlink:href="#DejaVuSans-30"/>
       <use x="63.623047" xlink:href="#DejaVuSans-2e"/>
       <use x="95.410156" xlink:href="#DejaVuSans-37"/>
       <use x="159.033203" xlink:href="#DejaVuSans-35"/>
      </g>
     </g>
    </g>
   </g>
   <g id="line2d_15">
    <path clip-path="url(#pb85d05aa0a)" d="M 343.535742 174.528 
L 343.433186 172.85001 
L 343.125724 171.179032 
L 342.613981 169.522063 
L 341.898994 167.886059 
L 340.834878 166.050863 
L 339.510027 164.262246 
L 337.927949 162.530229 
L 336.09283 160.86464 
L 334.009519 159.275074 
L 331.68352 157.770866 
L 329.12097 156.361052 
L 325.963783 154.898675 
L 322.526293 153.578639 
L 318.819934 152.412177 
L 314.857012 151.409844 
L 310.65066 150.581475 
L 306.21479 149.936133 
L 301.564035 149.482073 
L 296.713703 149.226703 
L 291.67971 149.176548 
L 286.47853 149.337216 
L 281.127124 149.713379 
L 275.642885 150.308739 
L 270.043565 151.126017 
L 264.347216 152.166931 
L 258.572119 153.432189 
L 252.736717 154.921477 
L 246.859543 156.633459 
L 240.959159 158.565778 
L 235.054079 160.715057 
L 229.162707 163.076913 
L 223.303265 165.645967 
L 217.493729 168.415863 
L 211.751759 171.379288 
L 206.094641 174.528 
L 200.539218 177.852852 
L 195.101831 181.343831 
L 189.798263 184.990089 
L 184.643676 188.779987 
L 179.652562 192.701137 
L 174.838692 196.740447 
L 170.215063 200.88417 
L 165.793856 205.117961 
L 161.586394 209.426924 
L 157.6031 213.795676 
L 153.853468 218.208401 
L 150.346024 222.648915 
L 147.088307 227.100726 
L 144.086838 231.547098 
L 141.347105 235.971118 
L 138.873545 240.355761 
L 136.669535 244.683957 
L 134.737385 248.938658 
L 133.078332 253.102906 
L 131.692546 257.159898 
L 130.57913 261.093055 
L 129.736137 264.886088 
L 129.160577 268.523059 
L 128.848438 271.988453 
L 128.794711 275.26723 
L 128.959075 278.013301 
L 129.318069 280.590675 
L 129.86629 282.989972 
L 130.597787 285.202249 
L 131.506077 287.219028 
L 132.584172 289.032323 
L 133.824604 290.63467 
L 135.036932 291.858224 
L 136.361913 292.91068 
L 137.793738 293.7881 
L 139.326374 294.486899 
L 140.953589 295.003856 
L 142.66896 295.33612 
L 144.465897 295.481221 
L 146.610756 295.415216 
L 148.843054 295.099563 
L 151.152311 294.532456 
L 153.527889 293.712782 
L 155.959023 292.640115 
L 158.43486 291.314729 
L 160.944495 289.737595 
L 163.794635 287.664505 
L 166.658215 285.278352 
L 169.519816 282.583667 
L 172.364185 279.586069 
L 175.176297 276.292254 
L 177.941416 272.709965 
L 180.645158 268.847978 
L 183.273553 264.716062 
L 185.813101 260.324952 
L 188.250829 255.68631 
L 190.574346 250.812685 
L 192.771894 245.717471 
L 194.832395 240.414855 
L 196.745501 234.919772 
L 198.501635 229.247848 
L 200.092029 223.41535 
L 201.508765 217.43912 
L 202.744803 211.336521 
L 203.794013 205.125371 
L 204.6512 198.823881 
L 205.312124 192.450589 
L 205.773521 186.024291 
L 206.033112 179.563976 
L 206.089617 173.088755 
L 205.942757 166.617795 
L 205.593257 160.170245 
L 205.042842 153.76517 
L 204.294228 147.421483 
L 203.351117 141.157874 
L 202.218175 134.992742 
L 200.901016 128.944133 
L 199.406176 123.02967 
L 197.741091 117.266492 
L 195.91406 111.671193 
L 193.934216 106.259761 
L 191.811483 101.047523 
L 189.55654 96.049087 
L 187.180772 91.278295 
L 184.696225 86.74817 
L 182.115555 82.470872 
L 179.451977 78.457655 
L 176.719205 74.718831 
L 173.931403 71.26373 
L 171.103116 68.100672 
L 168.249218 65.236939 
L 165.384844 62.67875 
L 162.525326 60.431243 
L 159.686135 58.498458 
L 156.882808 56.883326 
L 154.433635 55.71582 
L 152.035957 54.801286 
L 149.700575 54.13956 
L 147.43818 53.729786 
L 145.259315 53.570418 
L 143.17434 53.659226 
L 141.434985 53.93825 
L 139.781919 54.402712 
L 138.221616 55.049869 
L 136.760364 55.876604 
L 135.404253 56.879437 
L 134.159159 58.054528 
L 133.030726 59.397692 
L 132.024355 60.90441 
L 131.030258 62.820414 
L 130.209522 64.935971 
L 129.568885 67.242847 
L 129.114567 69.732329 
L 128.852249 72.39525 
L 128.787048 75.222024 
L 128.923504 78.202675 
L 129.322942 81.726957 
L 129.987251 85.417695 
L 130.920104 89.259225 
L 132.124145 93.235486 
L 133.600974 97.330085 
L 135.35113 101.52636 
L 137.374091 105.807449 
L 139.668259 110.156358 
L 142.230972 114.556023 
L 145.058496 118.989381 
L 148.146042 123.439437 
L 151.487776 127.889331 
L 155.076836 132.322401 
L 158.905352 136.72225 
L 162.96447 141.07281 
L 167.244384 145.358402 
L 171.734366 149.563799 
L 176.422803 153.674283 
L 181.297238 157.675702 
L 186.344409 161.554522 
L 191.550301 165.297881 
L 196.900192 168.893634 
L 202.378707 172.330402 
L 207.96987 175.597612 
L 213.657166 178.685533 
L 219.423598 181.58532 
L 225.251749 184.289034 
L 231.123845 186.789681 
L 237.021822 189.081226 
L 242.927388 191.158623 
L 248.822096 193.017821 
L 254.687409 194.655783 
L 260.504766 196.070492 
L 266.255656 197.260953 
L 271.921683 198.227193 
L 277.484635 198.970258 
L 282.926552 199.492201 
L 288.229796 199.796073 
L 293.377108 199.885901 
L 298.351685 199.766671 
L 303.137231 199.444302 
L 307.718026 198.925616 
L 312.078982 198.218307 
L 316.205698 197.330904 
L 320.084519 196.272732 
L 323.70258 195.053871 
L 327.047862 193.685108 
L 330.109232 192.17789 
L 332.876487 190.544272 
L 335.08187 188.996236 
L 337.041732 187.367475 
L 338.750896 185.667457 
L 340.204841 183.905899 
L 341.39972 182.092728 
L 342.33237 180.238053 
L 342.931368 178.589219 
L 343.32648 176.923391 
L 343.516903 175.247548 
L 343.502251 173.568698 
L 343.282553 171.893858 
L 342.858256 170.23003 
L 342.23022 168.584192 
L 341.39972 166.963272 
L 340.204841 165.150101 
L 338.750896 163.388543 
L 337.041732 161.688525 
L 335.08187 160.059764 
L 332.876487 158.511728 
L 330.431406 157.053607 
L 327.753076 155.694279 
L 324.469956 154.293737 
L 320.911504 153.040608 
L 317.089547 151.945831 
L 313.016766 151.019646 
L 308.706644 150.27155 
L 304.173422 149.710253 
L 299.432038 149.343637 
L 294.49808 149.178722 
L 289.387718 149.221628 
L 284.117649 149.477553 
L 278.705036 149.950737 
L 273.167439 150.644451 
L 267.522751 151.560971 
L 261.789135 152.701566 
L 255.984952 154.066492 
L 250.128693 155.654981 
L 244.238913 157.465243 
L 238.334161 159.494465 
L 232.432911 161.738823 
L 226.553494 164.19349 
L 220.71403 166.852649 
L 214.932364 169.709517 
L 209.225997 172.756364 
L 203.612026 175.984542 
L 198.107078 179.384515 
L 192.727253 182.945894 
L 187.488065 186.657475 
L 182.404385 190.507279 
L 177.490392 194.482601 
L 172.759516 198.57005 
L 168.224399 202.755609 
L 163.896844 207.024679 
L 159.78778 211.362141 
L 155.90722 215.752412 
L 152.264233 220.179506 
L 148.866908 224.627093 
L 145.722335 229.078565 
L 142.836577 233.517099 
L 140.214658 237.925724 
L 137.860545 242.287387 
L 135.777141 246.58502 
L 133.966278 250.801605 
L 132.428719 254.920247 
L 131.16416 258.924232 
L 130.171235 262.797103 
L 129.447531 266.522719 
L 128.989602 270.085322 
L 128.792991 273.469601 
L 128.83322 276.316163 
L 129.071167 279.000099 
L 129.501785 281.51177 
L 130.119461 283.841958 
L 130.918043 285.981891 
L 131.890855 287.923272 
L 133.030726 289.658308 
L 134.159159 291.001472 
L 135.404253 292.176563 
L 136.760364 293.179396 
L 138.221616 294.006131 
L 139.781919 294.653288 
L 141.434985 295.11775 
L 143.17434 295.396774 
L 144.993348 295.488 
L 147.16104 295.359789 
L 149.413566 294.981415 
L 151.740407 294.351245 
L 154.130887 293.468334 
L 156.574217 292.332435 
L 159.059527 290.943994 
L 161.575904 289.304156 
L 164.43037 287.161161 
L 167.294837 284.706016 
L 170.15392 281.943493 
L 172.99241 278.879453 
L 175.795341 275.520826 
L 178.54805 271.875589 
L 181.23624 267.952739 
L 183.846041 263.762263 
L 186.364064 259.315106 
L 188.777461 254.623131 
L 191.073978 249.699078 
L 193.242002 244.556521 
L 195.270617 239.209818 
L 197.14964 233.674064 
L 198.869671 227.96503 
L 200.422129 222.099117 
L 201.799287 216.093287 
L 202.994304 209.965011 
L 204.001258 203.732199 
L 204.815163 197.413141 
L 205.431995 191.026437 
L 205.848708 184.590934 
L 206.063245 178.125652 
L 206.074547 171.649721 
L 205.882558 165.18231 
L 205.488226 158.742555 
L 204.893496 152.349495 
L 204.101307 146.021997 
L 203.115575 139.778693 
L 201.941177 133.63791 
L 200.583936 127.617604 
L 199.050591 121.735296 
L 197.34877 116.008011 
L 195.486963 110.452212 
L 193.474481 105.083746 
L 191.32142 99.917783 
L 189.038619 94.968767 
L 186.637615 90.250361 
L 184.130593 85.775399 
L 181.530338 81.555846 
L 178.850182 77.602748 
L 176.103943 73.926202 
L 173.305874 70.535317 
L 170.470601 67.438184 
L 167.613059 64.64185 
L 164.748433 62.152296 
L 161.892092 59.974416 
L 159.059527 58.112006 
L 156.574217 56.723565 
L 154.130887 55.587666 
L 151.740407 54.704755 
L 149.413566 54.074585 
L 147.16104 53.696211 
L 144.993348 53.568 
L 142.920828 53.68764 
L 141.193397 53.993309 
L 139.553191 54.484046 
L 138.006657 55.157056 
L 136.560057 56.00917 
L 135.219451 57.036854 
L 133.990683 58.23622 
L 132.879363 59.603034 
L 131.890855 61.132728 
L 130.918043 63.074109 
L 130.119461 65.214042 
L 129.501785 67.54423 
L 129.071167 70.055901 
L 128.83322 72.739837 
L 128.792991 75.586399 
L 128.954943 78.585565 
L 129.383598 82.129102 
L 130.077583 85.837376 
L 131.040456 89.694676 
L 132.274747 93.684901 
L 133.781938 97.791623 
L 135.562452 101.998158 
L 137.615645 106.287624 
L 139.939803 110.643015 
L 142.532142 115.047266 
L 145.388813 119.483317 
L 148.50491 123.934185 
L 151.874482 128.383028 
L 155.490555 132.813211 
L 159.345148 137.20837 
L 163.4293 141.552477 
L 167.733102 145.829902 
L 172.245724 150.02547 
L 176.955458 154.124524 
L 181.849754 158.112977 
L 186.915267 161.977369 
L 192.137898 165.704913 
L 197.502851 169.283549 
L 202.994682 172.701984 
L 208.597351 175.949737 
L 214.294288 179.017176 
L 220.068445 181.895551 
L 225.902362 184.577031 
L 231.778231 187.054724 
L 237.677957 189.322706 
L 243.58323 191.37604 
L 249.475589 193.210788 
L 255.336489 194.824025 
L 261.147374 196.213848 
L 266.88974 197.379375 
L 272.545209 198.320748 
L 278.095595 199.039124 
L 283.522969 199.536668 
L 288.809731 199.816541 
L 293.938672 199.882877 
L 298.89304 199.740767 
L 303.656601 199.396232 
L 308.213703 198.856192 
L 312.54933 198.128436 
L 316.649163 197.221584 
L 320.49963 196.145047 
L 324.08796 194.908985 
L 327.402229 193.524261 
L 330.431406 192.002393 
L 332.876487 190.544272 
L 335.08187 188.996236 
L 337.041732 187.367475 
L 338.750896 185.667457 
L 340.204841 183.905899 
L 341.39972 182.092728 
L 342.33237 180.238053 
L 342.931368 178.589219 
L 343.32648 176.923391 
L 343.516903 175.247548 
L 343.535742 174.528 
L 343.535742 174.528 
" style="fill:none;stroke:#1f77b4;stroke-linecap:square;stroke-width:1.5;"/>
   </g>
   <g id="patch_3">
    <path d="M 118.046683 307.584 
L 118.046683 41.472 
" style="fill:none;stroke:#000000;stroke-linecap:square;stroke-linejoin:miter;stroke-width:0.8;"/>
   </g>
   <g id="patch_4">
    <path d="M 354.273317 307.584 
L 354.273317 41.472 
" style="fill:none;stroke:#000000;stroke-linecap:square;stroke-linejoin:miter;stroke-width:0.8;"/>
   </g>
   <g id="patch_5">
    <path d="M 118.046683 307.584 
L 354.273317 307.584 
" style="fill:none;stroke:#000000;stroke-linecap:square;stroke-linejoin:miter;stroke-width:0.8;"/>
   </g>
   <g id="patch_6">
    <path d="M 118.046683 41.472 
L 354.273317 41.472 
" style="fill:none;stroke:#000000;stroke-linecap:square;stroke-linejoin:miter;stroke-width:0.8;"/>
   </g>
  </g>
 </g>
 <defs>
  <clipPath id="pb85d05aa0a">
   <rect height="266.112" width="236.226633" x="118.046683" y="41.472"/>
  </clipPath>
 </defs>
</svg>
