<?xml version="1.0" encoding="utf-8" standalone="no"?>
<!DOCTYPE svg PUBLIC "-//W3C//DTD SVG 1.1//EN"
  "http://www.w3.org/Graphics/SVG/1.1/DTD/svg11.dtd">
<!-- Created with matplotlib (http://matplotlib.org/) -->
<svg height="226.771654pt" version="1.1" viewBox="0 0 226.771654 226.771654" width="226.771654pt" xmlns="http://www.w3.org/2000/svg" xmlns:xlink="http://www.w3.org/1999/xlink">
 <defs>
  <style type="text/css">
*{stroke-linecap:butt;stroke-linejoin:round;}
  </style>
 </defs>
 <g id="figure_1">
  <g id="patch_1">
   <path d="M 0 226.771654 
L 226.771654 226.771654 
L 226.771654 0 
L 0 0 
z
" style="fill:#ffffff;"/>
  </g>
  <g id="axes_1">
   <g id="patch_2">
    <path d="M 28.346457 175.426353 
L 204.094488 175.426353 
L 204.094488 53.613018 
L 28.346457 53.613018 
z
" style="fill:#ffffff;"/>
   </g>
   <g id="matplotlib.axis_1">
    <g id="xtick_1">
     <g id="line2d_1">
      <defs>
       <path d="M 0 0 
L 0 3.5 
" id="mba6339649e" style="stroke:#000000;stroke-width:0.8;"/>
      </defs>
      <g>
       <use style="stroke:#000000;stroke-width:0.8;" x="49.4947" xlink:href="#mba6339649e" y="175.426353"/>
      </g>
     </g>
     <g id="text_1">
      <!-- −2.5 -->
      <defs>
       <path d="M 10.59375 35.5 
L 73.1875 35.5 
L 73.1875 27.203125 
L 10.59375 27.203125 
z
" id="DejaVuSans-2212"/>
       <path d="M 19.1875 8.296875 
L 53.609375 8.296875 
L 53.609375 0 
L 7.328125 0 
L 7.328125 8.296875 
Q 12.9375 14.109375 22.625 23.890625 
Q 32.328125 33.6875 34.8125 36.53125 
Q 39.546875 41.84375 41.421875 45.53125 
Q 43.3125 49.21875 43.3125 52.78125 
Q 43.3125 58.59375 39.234375 62.25 
Q 35.15625 65.921875 28.609375 65.921875 
Q 23.96875 65.921875 18.8125 64.3125 
Q 13.671875 62.703125 7.8125 59.421875 
L 7.8125 69.390625 
Q 13.765625 71.78125 18.9375 73 
Q 24.125 74.21875 28.421875 74.21875 
Q 39.75 74.21875 46.484375 68.546875 
Q 53.21875 62.890625 53.21875 53.421875 
Q 53.21875 48.921875 51.53125 44.890625 
Q 49.859375 40.875 45.40625 35.40625 
Q 44.1875 33.984375 37.640625 27.21875 
Q 31.109375 20.453125 19.1875 8.296875 
z
" id="DejaVuSans-32"/>
       <path d="M 10.6875 12.40625 
L 21 12.40625 
L 21 0 
L 10.6875 0 
z
" id="DejaVuSans-2e"/>
       <path d="M 10.796875 72.90625 
L 49.515625 72.90625 
L 49.515625 64.59375 
L 19.828125 64.59375 
L 19.828125 46.734375 
Q 21.96875 47.46875 24.109375 47.828125 
Q 26.265625 48.1875 28.421875 48.1875 
Q 40.625 48.1875 47.75 41.5 
Q 54.890625 34.8125 54.890625 23.390625 
Q 54.890625 11.625 47.5625 5.09375 
Q 40.234375 -1.421875 26.90625 -1.421875 
Q 22.3125 -1.421875 17.546875 -0.640625 
Q 12.796875 0.140625 7.71875 1.703125 
L 7.71875 11.625 
Q 12.109375 9.234375 16.796875 8.0625 
Q 21.484375 6.890625 26.703125 6.890625 
Q 35.15625 6.890625 40.078125 11.328125 
Q 45.015625 15.765625 45.015625 23.390625 
Q 45.015625 31 40.078125 35.4375 
Q 35.15625 39.890625 26.703125 39.890625 
Q 22.75 39.890625 18.8125 39.015625 
Q 14.890625 38.140625 10.796875 36.28125 
z
" id="DejaVuSans-35"/>
      </defs>
      <g transform="translate(37.353293 190.02479)scale(0.1 -0.1)">
       <use xlink:href="#DejaVuSans-2212"/>
       <use x="83.789062" xlink:href="#DejaVuSans-32"/>
       <use x="147.412109" xlink:href="#DejaVuSans-2e"/>
       <use x="179.199219" xlink:href="#DejaVuSans-35"/>
      </g>
     </g>
    </g>
    <g id="xtick_2">
     <g id="line2d_2">
      <g>
       <use style="stroke:#000000;stroke-width:0.8;" x="91.225358" xlink:href="#mba6339649e" y="175.426353"/>
      </g>
     </g>
     <g id="text_2">
      <!-- 0.0 -->
      <defs>
       <path d="M 31.78125 66.40625 
Q 24.171875 66.40625 20.328125 58.90625 
Q 16.5 51.421875 16.5 36.375 
Q 16.5 21.390625 20.328125 13.890625 
Q 24.171875 6.390625 31.78125 6.390625 
Q 39.453125 6.390625 43.28125 13.890625 
Q 47.125 21.390625 47.125 36.375 
Q 47.125 51.421875 43.28125 58.90625 
Q 39.453125 66.40625 31.78125 66.40625 
z
M 31.78125 74.21875 
Q 44.046875 74.21875 50.515625 64.515625 
Q 56.984375 54.828125 56.984375 36.375 
Q 56.984375 17.96875 50.515625 8.265625 
Q 44.046875 -1.421875 31.78125 -1.421875 
Q 19.53125 -1.421875 13.0625 8.265625 
Q 6.59375 17.96875 6.59375 36.375 
Q 6.59375 54.828125 13.0625 64.515625 
Q 19.53125 74.21875 31.78125 74.21875 
z
" id="DejaVuSans-30"/>
      </defs>
      <g transform="translate(83.273795 190.02479)scale(0.1 -0.1)">
       <use xlink:href="#DejaVuSans-30"/>
       <use x="63.623047" xlink:href="#DejaVuSans-2e"/>
       <use x="95.410156" xlink:href="#DejaVuSans-30"/>
      </g>
     </g>
    </g>
    <g id="xtick_3">
     <g id="line2d_3">
      <g>
       <use style="stroke:#000000;stroke-width:0.8;" x="132.956016" xlink:href="#mba6339649e" y="175.426353"/>
      </g>
     </g>
     <g id="text_3">
      <!-- 2.5 -->
      <g transform="translate(125.004454 190.02479)scale(0.1 -0.1)">
       <use xlink:href="#DejaVuSans-32"/>
       <use x="63.623047" xlink:href="#DejaVuSans-2e"/>
       <use x="95.410156" xlink:href="#DejaVuSans-35"/>
      </g>
     </g>
    </g>
    <g id="xtick_4">
     <g id="line2d_4">
      <g>
       <use style="stroke:#000000;stroke-width:0.8;" x="174.686674" xlink:href="#mba6339649e" y="175.426353"/>
      </g>
     </g>
     <g id="text_4">
      <!-- 5.0 -->
      <g transform="translate(166.735112 190.02479)scale(0.1 -0.1)">
       <use xlink:href="#DejaVuSans-35"/>
       <use x="63.623047" xlink:href="#DejaVuSans-2e"/>
       <use x="95.410156" xlink:href="#DejaVuSans-30"/>
      </g>
     </g>
    </g>
   </g>
   <g id="matplotlib.axis_2">
    <g id="ytick_1">
     <g id="line2d_5">
      <defs>
       <path d="M 0 0 
L -3.5 0 
" id="ma5205d2ed7" style="stroke:#000000;stroke-width:0.8;"/>
      </defs>
      <g>
       <use style="stroke:#000000;stroke-width:0.8;" x="28.346457" xlink:href="#ma5205d2ed7" y="156.294037"/>
      </g>
     </g>
     <g id="text_5">
      <!-- −4 -->
      <defs>
       <path d="M 37.796875 64.3125 
L 12.890625 25.390625 
L 37.796875 25.390625 
z
M 35.203125 72.90625 
L 47.609375 72.90625 
L 47.609375 25.390625 
L 58.015625 25.390625 
L 58.015625 17.1875 
L 47.609375 17.1875 
L 47.609375 0 
L 37.796875 0 
L 37.796875 17.1875 
L 4.890625 17.1875 
L 4.890625 26.703125 
z
" id="DejaVuSans-34"/>
      </defs>
      <g transform="translate(6.604269 160.093256)scale(0.1 -0.1)">
       <use xlink:href="#DejaVuSans-2212"/>
       <use x="83.789062" xlink:href="#DejaVuSans-34"/>
      </g>
     </g>
    </g>
    <g id="ytick_2">
     <g id="line2d_6">
      <g>
       <use style="stroke:#000000;stroke-width:0.8;" x="28.346457" xlink:href="#ma5205d2ed7" y="122.909511"/>
      </g>
     </g>
     <g id="text_6">
      <!-- −2 -->
      <g transform="translate(6.604269 126.708729)scale(0.1 -0.1)">
       <use xlink:href="#DejaVuSans-2212"/>
       <use x="83.789062" xlink:href="#DejaVuSans-32"/>
      </g>
     </g>
    </g>
    <g id="ytick_3">
     <g id="line2d_7">
      <g>
       <use style="stroke:#000000;stroke-width:0.8;" x="28.346457" xlink:href="#ma5205d2ed7" y="89.524984"/>
      </g>
     </g>
     <g id="text_7">
      <!-- 0 -->
      <g transform="translate(14.983957 93.324203)scale(0.1 -0.1)">
       <use xlink:href="#DejaVuSans-30"/>
      </g>
     </g>
    </g>
    <g id="ytick_4">
     <g id="line2d_8">
      <g>
       <use style="stroke:#000000;stroke-width:0.8;" x="28.346457" xlink:href="#ma5205d2ed7" y="56.140457"/>
      </g>
     </g>
     <g id="text_8">
      <!-- 2 -->
      <g transform="translate(14.983957 59.939676)scale(0.1 -0.1)">
       <use xlink:href="#DejaVuSans-32"/>
      </g>
     </g>
    </g>
   </g>
   <g id="line2d_9">
    <path clip-path="url(#p4f33b0dc0a)" d="M 91.225358 89.524984 
L 92.590028 89.412788 
L 93.927134 89.077708 
L 95.20942 88.524257 
L 96.410248 87.759904 
L 97.503892 86.795 
L 98.4469 85.66904 
L 99.242139 84.378302 
L 99.869604 82.939833 
L 100.31112 81.372796 
L 100.550549 79.698283 
L 100.57398 77.93911 
L 100.37682 76.159611 
L 99.953495 74.346289 
L 99.298019 72.523999 
L 98.42931 70.758046 
L 97.334514 69.032228 
L 96.015216 67.371013 
L 94.512839 65.833385 
L 92.805879 64.403314 
L 90.902535 63.102876 
L 88.863777 61.978341 
L 86.65913 61.01707 
L 84.359814 60.253587 
L 81.929348 59.678932 
L 79.383386 59.307834 
L 76.804536 59.154803 
L 74.149078 59.219469 
L 71.435172 59.511591 
L 68.751103 60.023307 
L 66.048174 60.765319 
L 63.345561 61.742336 
L 60.731341 62.923358 
L 58.154743 64.331927 
L 55.634635 65.967998 
L 53.253234 67.778144 
L 50.96099 69.799674 
L 48.775392 72.028371 
L 46.767684 74.390357 
L 44.892985 76.936757 
L 43.166606 79.659939 
L 41.603409 82.551074 
L 40.253688 85.513427 
L 39.084344 88.614859 
L 38.107333 91.844167 
L 37.353081 95.092142 
L 36.800554 98.437387 
L 36.458609 101.867204 
L 36.335291 105.368188 
L 36.437787 108.92628 
L 36.759167 112.420462 
L 37.30407 115.940751 
L 38.076489 119.472832 
L 39.079506 123.002026 
L 40.274373 126.407346 
L 41.689161 129.78196 
L 43.324067 133.111805 
L 45.1784 136.382708 
L 47.250566 139.580439 
L 49.538059 142.690767 
L 51.956185 145.607175 
L 54.569254 148.415478 
L 57.372532 151.103046 
L 60.360484 153.657455 
L 63.526785 156.066531 
L 66.864332 158.3184 
L 70.249856 160.337092 
L 73.780589 162.187675 
L 77.448093 163.860452 
L 81.243312 165.346152 
L 85.156591 166.635972 
L 89.177707 167.721614 
L 93.157169 168.569688 
L 97.217146 169.213217 
L 101.347025 169.646232 
L 105.535795 169.863319 
L 109.772076 169.859644 
L 114.044151 169.630979 
L 118.339999 169.173719 
L 122.647327 168.484906 
L 126.805268 167.597972 
L 130.950776 166.491572 
L 135.072251 165.164844 
L 139.157981 163.617539 
L 143.196177 161.850033 
L 147.175002 159.863327 
L 151.082606 157.65906 
L 154.907161 155.239507 
L 158.505454 152.7052 
L 162.005099 149.976594 
L 165.395725 147.057418 
L 168.667096 143.951949 
L 171.809139 140.665007 
L 174.811975 137.201949 
L 177.665946 133.568663 
L 180.361641 129.771559 
L 182.889928 125.817555 
L 185.241978 121.714068 
L 187.332412 117.628653 
L 189.244263 113.419418 
L 190.970583 109.094219 
L 192.504772 104.661294 
L 193.840599 100.129238 
L 194.972219 95.50699 
L 195.894195 90.803819 
L 196.105941 89.524984 
L 196.105941 89.524984 
" style="fill:none;stroke:#1f77b4;stroke-linecap:square;stroke-width:1.5;"/>
   </g>
   <g id="patch_3">
    <path d="M 28.346457 175.426353 
L 28.346457 53.613018 
" style="fill:none;stroke:#000000;stroke-linecap:square;stroke-linejoin:miter;stroke-width:0.8;"/>
   </g>
   <g id="patch_4">
    <path d="M 204.094488 175.426353 
L 204.094488 53.613018 
" style="fill:none;stroke:#000000;stroke-linecap:square;stroke-linejoin:miter;stroke-width:0.8;"/>
   </g>
   <g id="patch_5">
    <path d="M 28.346457 175.426353 
L 204.094488 175.426353 
" style="fill:none;stroke:#000000;stroke-linecap:square;stroke-linejoin:miter;stroke-width:0.8;"/>
   </g>
   <g id="patch_6">
    <path d="M 28.346457 53.613018 
L 204.094488 53.613018 
" style="fill:none;stroke:#000000;stroke-linecap:square;stroke-linejoin:miter;stroke-width:0.8;"/>
   </g>
  </g>
 </g>
 <defs>
  <clipPath id="p4f33b0dc0a">
   <rect height="121.813335" width="175.748031" x="28.346457" y="53.613018"/>
  </clipPath>
 </defs>
</svg>
