<?xml version="1.0" encoding="utf-8" standalone="no"?>
<!DOCTYPE svg PUBLIC "-//W3C//DTD SVG 1.1//EN"
  "http://www.w3.org/Graphics/SVG/1.1/DTD/svg11.dtd">
<!-- Created with matplotlib (http://matplotlib.org/) -->
<svg height="345.6pt" version="1.1" viewBox="0 0 460.8 345.6" width="460.8pt" xmlns="http://www.w3.org/2000/svg" xmlns:xlink="http://www.w3.org/1999/xlink">
 <defs>
  <style type="text/css">
*{stroke-linecap:butt;stroke-linejoin:round;}
  </style>
 </defs>
 <g id="figure_1">
  <g id="patch_1">
   <path d="M 0 345.6 
L 460.8 345.6 
L 460.8 0 
L 0 0 
z
" style="fill:#ffffff;"/>
  </g>
  <g id="axes_1">
   <g id="patch_2">
    <path d="M 103.104 307.584 
L 369.216 307.584 
L 369.216 41.472 
L 103.104 41.472 
z
" style="fill:#ffffff;"/>
   </g>
   <g id="matplotlib.axis_1">
    <g id="xtick_1">
     <g id="line2d_1">
      <defs>
       <path d="M 0 0 
L 0 3.5 
" id="m38e0d525d3" style="stroke:#000000;stroke-width:0.8;"/>
      </defs>
      <g>
       <use style="stroke:#000000;stroke-width:0.8;" x="103.104" xlink:href="#m38e0d525d3" y="307.584"/>
      </g>
     </g>
     <g id="text_1">
      <!-- −3 -->
      <defs>
       <path d="M 10.59375 35.5 
L 73.1875 35.5 
L 73.1875 27.203125 
L 10.59375 27.203125 
z
" id="DejaVuSans-2212"/>
       <path d="M 40.578125 39.3125 
Q 47.65625 37.796875 51.625 33 
Q 55.609375 28.21875 55.609375 21.1875 
Q 55.609375 10.40625 48.1875 4.484375 
Q 40.765625 -1.421875 27.09375 -1.421875 
Q 22.515625 -1.421875 17.65625 -0.515625 
Q 12.796875 0.390625 7.625 2.203125 
L 7.625 11.71875 
Q 11.71875 9.328125 16.59375 8.109375 
Q 21.484375 6.890625 26.8125 6.890625 
Q 36.078125 6.890625 40.9375 10.546875 
Q 45.796875 14.203125 45.796875 21.1875 
Q 45.796875 27.640625 41.28125 31.265625 
Q 36.765625 34.90625 28.71875 34.90625 
L 20.21875 34.90625 
L 20.21875 43.015625 
L 29.109375 43.015625 
Q 36.375 43.015625 40.234375 45.921875 
Q 44.09375 48.828125 44.09375 54.296875 
Q 44.09375 59.90625 40.109375 62.90625 
Q 36.140625 65.921875 28.71875 65.921875 
Q 24.65625 65.921875 20.015625 65.03125 
Q 15.375 64.15625 9.8125 62.3125 
L 9.8125 71.09375 
Q 15.4375 72.65625 20.34375 73.4375 
Q 25.25 74.21875 29.59375 74.21875 
Q 40.828125 74.21875 47.359375 69.109375 
Q 53.90625 64.015625 53.90625 55.328125 
Q 53.90625 49.265625 50.4375 45.09375 
Q 46.96875 40.921875 40.578125 39.3125 
z
" id="DejaVuSans-33"/>
      </defs>
      <g transform="translate(95.732906 322.182437)scale(0.1 -0.1)">
       <use xlink:href="#DejaVuSans-2212"/>
       <use x="83.789062" xlink:href="#DejaVuSans-33"/>
      </g>
     </g>
    </g>
    <g id="xtick_2">
     <g id="line2d_2">
      <g>
       <use style="stroke:#000000;stroke-width:0.8;" x="147.456" xlink:href="#m38e0d525d3" y="307.584"/>
      </g>
     </g>
     <g id="text_2">
      <!-- −2 -->
      <defs>
       <path d="M 19.1875 8.296875 
L 53.609375 8.296875 
L 53.609375 0 
L 7.328125 0 
L 7.328125 8.296875 
Q 12.9375 14.109375 22.625 23.890625 
Q 32.328125 33.6875 34.8125 36.53125 
Q 39.546875 41.84375 41.421875 45.53125 
Q 43.3125 49.21875 43.3125 52.78125 
Q 43.3125 58.59375 39.234375 62.25 
Q 35.15625 65.921875 28.609375 65.921875 
Q 23.96875 65.921875 18.8125 64.3125 
Q 13.671875 62.703125 7.8125 59.421875 
L 7.8125 69.390625 
Q 13.765625 71.78125 18.9375 73 
Q 24.125 74.21875 28.421875 74.21875 
Q 39.75 74.21875 46.484375 68.546875 
Q 53.21875 62.890625 53.21875 53.421875 
Q 53.21875 48.921875 51.53125 44.890625 
Q 49.859375 40.875 45.40625 35.40625 
Q 44.1875 33.984375 37.640625 27.21875 
Q 31.109375 20.453125 19.1875 8.296875 
z
" id="DejaVuSans-32"/>
      </defs>
      <g transform="translate(140.084906 322.182437)scale(0.1 -0.1)">
       <use xlink:href="#DejaVuSans-2212"/>
       <use x="83.789062" xlink:href="#DejaVuSans-32"/>
      </g>
     </g>
    </g>
    <g id="xtick_3">
     <g id="line2d_3">
      <g>
       <use style="stroke:#000000;stroke-width:0.8;" x="191.808" xlink:href="#m38e0d525d3" y="307.584"/>
      </g>
     </g>
     <g id="text_3">
      <!-- −1 -->
      <defs>
       <path d="M 12.40625 8.296875 
L 28.515625 8.296875 
L 28.515625 63.921875 
L 10.984375 60.40625 
L 10.984375 69.390625 
L 28.421875 72.90625 
L 38.28125 72.90625 
L 38.28125 8.296875 
L 54.390625 8.296875 
L 54.390625 0 
L 12.40625 0 
z
" id="DejaVuSans-31"/>
      </defs>
      <g transform="translate(184.436906 322.182437)scale(0.1 -0.1)">
       <use xlink:href="#DejaVuSans-2212"/>
       <use x="83.789062" xlink:href="#DejaVuSans-31"/>
      </g>
     </g>
    </g>
    <g id="xtick_4">
     <g id="line2d_4">
      <g>
       <use style="stroke:#000000;stroke-width:0.8;" x="236.16" xlink:href="#m38e0d525d3" y="307.584"/>
      </g>
     </g>
     <g id="text_4">
      <!-- 0 -->
      <defs>
       <path d="M 31.78125 66.40625 
Q 24.171875 66.40625 20.328125 58.90625 
Q 16.5 51.421875 16.5 36.375 
Q 16.5 21.390625 20.328125 13.890625 
Q 24.171875 6.390625 31.78125 6.390625 
Q 39.453125 6.390625 43.28125 13.890625 
Q 47.125 21.390625 47.125 36.375 
Q 47.125 51.421875 43.28125 58.90625 
Q 39.453125 66.40625 31.78125 66.40625 
z
M 31.78125 74.21875 
Q 44.046875 74.21875 50.515625 64.515625 
Q 56.984375 54.828125 56.984375 36.375 
Q 56.984375 17.96875 50.515625 8.265625 
Q 44.046875 -1.421875 31.78125 -1.421875 
Q 19.53125 -1.421875 13.0625 8.265625 
Q 6.59375 17.96875 6.59375 36.375 
Q 6.59375 54.828125 13.0625 64.515625 
Q 19.53125 74.21875 31.78125 74.21875 
z
" id="DejaVuSans-30"/>
      </defs>
      <g transform="translate(232.97875 322.182437)scale(0.1 -0.1)">
       <use xlink:href="#DejaVuSans-30"/>
      </g>
     </g>
    </g>
    <g id="xtick_5">
     <g id="line2d_5">
      <g>
       <use style="stroke:#000000;stroke-width:0.8;" x="280.512" xlink:href="#m38e0d525d3" y="307.584"/>
      </g>
     </g>
     <g id="text_5">
      <!-- 1 -->
      <g transform="translate(277.33075 322.182437)scale(0.1 -0.1)">
       <use xlink:href="#DejaVuSans-31"/>
      </g>
     </g>
    </g>
    <g id="xtick_6">
     <g id="line2d_6">
      <g>
       <use style="stroke:#000000;stroke-width:0.8;" x="324.864" xlink:href="#m38e0d525d3" y="307.584"/>
      </g>
     </g>
     <g id="text_6">
      <!-- 2 -->
      <g transform="translate(321.68275 322.182437)scale(0.1 -0.1)">
       <use xlink:href="#DejaVuSans-32"/>
      </g>
     </g>
    </g>
    <g id="xtick_7">
     <g id="line2d_7">
      <g>
       <use style="stroke:#000000;stroke-width:0.8;" x="369.216" xlink:href="#m38e0d525d3" y="307.584"/>
      </g>
     </g>
     <g id="text_7">
      <!-- 3 -->
      <g transform="translate(366.03475 322.182437)scale(0.1 -0.1)">
       <use xlink:href="#DejaVuSans-33"/>
      </g>
     </g>
    </g>
   </g>
   <g id="matplotlib.axis_2">
    <g id="ytick_1">
     <g id="line2d_8">
      <defs>
       <path d="M 0 0 
L -3.5 0 
" id="me3eb3c9354" style="stroke:#000000;stroke-width:0.8;"/>
      </defs>
      <g>
       <use style="stroke:#000000;stroke-width:0.8;" x="103.104" xlink:href="#me3eb3c9354" y="307.584"/>
      </g>
     </g>
     <g id="text_8">
      <!-- −3 -->
      <g transform="translate(81.361813 311.383219)scale(0.1 -0.1)">
       <use xlink:href="#DejaVuSans-2212"/>
       <use x="83.789062" xlink:href="#DejaVuSans-33"/>
      </g>
     </g>
    </g>
    <g id="ytick_2">
     <g id="line2d_9">
      <g>
       <use style="stroke:#000000;stroke-width:0.8;" x="103.104" xlink:href="#me3eb3c9354" y="263.232"/>
      </g>
     </g>
     <g id="text_9">
      <!-- −2 -->
      <g transform="translate(81.361813 267.031219)scale(0.1 -0.1)">
       <use xlink:href="#DejaVuSans-2212"/>
       <use x="83.789062" xlink:href="#DejaVuSans-32"/>
      </g>
     </g>
    </g>
    <g id="ytick_3">
     <g id="line2d_10">
      <g>
       <use style="stroke:#000000;stroke-width:0.8;" x="103.104" xlink:href="#me3eb3c9354" y="218.88"/>
      </g>
     </g>
     <g id="text_10">
      <!-- −1 -->
      <g transform="translate(81.361813 222.679219)scale(0.1 -0.1)">
       <use xlink:href="#DejaVuSans-2212"/>
       <use x="83.789062" xlink:href="#DejaVuSans-31"/>
      </g>
     </g>
    </g>
    <g id="ytick_4">
     <g id="line2d_11">
      <g>
       <use style="stroke:#000000;stroke-width:0.8;" x="103.104" xlink:href="#me3eb3c9354" y="174.528"/>
      </g>
     </g>
     <g id="text_11">
      <!-- 0 -->
      <g transform="translate(89.7415 178.327219)scale(0.1 -0.1)">
       <use xlink:href="#DejaVuSans-30"/>
      </g>
     </g>
    </g>
    <g id="ytick_5">
     <g id="line2d_12">
      <g>
       <use style="stroke:#000000;stroke-width:0.8;" x="103.104" xlink:href="#me3eb3c9354" y="130.176"/>
      </g>
     </g>
     <g id="text_12">
      <!-- 1 -->
      <g transform="translate(89.7415 133.975219)scale(0.1 -0.1)">
       <use xlink:href="#DejaVuSans-31"/>
      </g>
     </g>
    </g>
    <g id="ytick_6">
     <g id="line2d_13">
      <g>
       <use style="stroke:#000000;stroke-width:0.8;" x="103.104" xlink:href="#me3eb3c9354" y="85.824"/>
      </g>
     </g>
     <g id="text_13">
      <!-- 2 -->
      <g transform="translate(89.7415 89.623219)scale(0.1 -0.1)">
       <use xlink:href="#DejaVuSans-32"/>
      </g>
     </g>
    </g>
    <g id="ytick_7">
     <g id="line2d_14">
      <g>
       <use style="stroke:#000000;stroke-width:0.8;" x="103.104" xlink:href="#me3eb3c9354" y="41.472"/>
      </g>
     </g>
     <g id="text_14">
      <!-- 3 -->
      <g transform="translate(89.7415 45.271219)scale(0.1 -0.1)">
       <use xlink:href="#DejaVuSans-33"/>
      </g>
     </g>
    </g>
   </g>
   <g id="line2d_15">
    <path clip-path="url(#pfaf1224ffb)" d="M 103.104 189.312 
L 107.5392 189.821793 
L 111.9744 190.368 
L 116.4096 190.954667 
L 120.8448 191.586462 
L 125.28 192.2688 
L 129.7152 193.008 
L 134.1504 193.811478 
L 138.5856 194.688 
L 143.0208 195.648 
L 147.456 196.704 
L 151.8912 197.871158 
L 156.3264 199.168 
L 160.7616 200.617412 
L 165.1968 202.248 
L 169.632 204.096 
L 174.0672 206.208 
L 178.5024 208.644923 
L 182.9376 211.488 
L 187.3728 214.848 
L 191.808 218.88 
L 196.2432 223.808 
L 200.6784 229.968 
L 205.1136 237.888 
L 209.5488 248.448 
L 213.984 263.232 
L 218.4192 285.408 
L 222.8544 322.368 
L 224.30832 346.6 
M 247.80432 -1 
L 249.4656 26.688 
L 253.9008 63.648 
L 258.336 85.824 
L 262.7712 100.608 
L 267.2064 111.168 
L 271.6416 119.088 
L 276.0768 125.248 
L 280.512 130.176 
L 284.9472 134.208 
L 289.3824 137.568 
L 293.8176 140.411077 
L 298.2528 142.848 
L 302.688 144.96 
L 307.1232 146.808 
L 311.5584 148.438588 
L 315.9936 149.888 
L 320.4288 151.184842 
L 324.864 152.352 
L 329.2992 153.408 
L 333.7344 154.368 
L 338.1696 155.244522 
L 342.6048 156.048 
L 347.04 156.7872 
L 351.4752 157.469538 
L 355.9104 158.101333 
L 360.3456 158.688 
L 364.7808 159.234207 
L 369.216 159.744 
" style="fill:none;stroke:#1f77b4;stroke-linecap:square;stroke-width:1.5;"/>
   </g>
   <g id="line2d_16">
    <path clip-path="url(#pfaf1224ffb)" d="M 103.104 307.584 
L 107.5392 303.1488 
L 111.9744 298.7136 
L 116.4096 294.2784 
L 120.8448 289.8432 
L 125.28 285.408 
L 129.7152 280.9728 
L 134.1504 276.5376 
L 138.5856 272.1024 
L 143.0208 267.6672 
L 147.456 263.232 
L 151.8912 258.7968 
L 156.3264 254.3616 
L 160.7616 249.9264 
L 165.1968 245.4912 
L 169.632 241.056 
L 174.0672 236.6208 
L 178.5024 232.1856 
L 182.9376 227.7504 
L 187.3728 223.3152 
L 191.808 218.88 
L 196.2432 214.4448 
L 200.6784 210.0096 
L 205.1136 205.5744 
L 209.5488 201.1392 
L 213.984 196.704 
L 218.4192 192.2688 
L 222.8544 187.8336 
L 227.2896 183.3984 
L 231.7248 178.9632 
L 236.16 174.528 
L 240.5952 170.0928 
L 245.0304 165.6576 
L 249.4656 161.2224 
L 253.9008 156.7872 
L 258.336 152.352 
L 262.7712 147.9168 
L 267.2064 143.4816 
L 271.6416 139.0464 
L 276.0768 134.6112 
L 280.512 130.176 
L 284.9472 125.7408 
L 289.3824 121.3056 
L 293.8176 116.8704 
L 298.2528 112.4352 
L 302.688 108 
L 307.1232 103.5648 
L 311.5584 99.1296 
L 315.9936 94.6944 
L 320.4288 90.2592 
L 324.864 85.824 
L 329.2992 81.3888 
L 333.7344 76.9536 
L 338.1696 72.5184 
L 342.6048 68.0832 
L 347.04 63.648 
L 351.4752 59.2128 
L 355.9104 54.7776 
L 360.3456 50.3424 
L 364.7808 45.9072 
L 369.216 41.472 
" style="fill:none;stroke:#000000;stroke-linecap:square;stroke-width:0.5;"/>
   </g>
   <g id="line2d_17">
    <path clip-path="url(#pfaf1224ffb)" d="M 103.104 41.472 
L 107.5392 45.9072 
L 111.9744 50.3424 
L 116.4096 54.7776 
L 120.8448 59.2128 
L 125.28 63.648 
L 129.7152 68.0832 
L 134.1504 72.5184 
L 138.5856 76.9536 
L 143.0208 81.3888 
L 147.456 85.824 
L 151.8912 90.2592 
L 156.3264 94.6944 
L 160.7616 99.1296 
L 165.1968 103.5648 
L 169.632 108 
L 174.0672 112.4352 
L 178.5024 116.8704 
L 182.9376 121.3056 
L 187.3728 125.7408 
L 191.808 130.176 
L 196.2432 134.6112 
L 200.6784 139.0464 
L 205.1136 143.4816 
L 209.5488 147.9168 
L 213.984 152.352 
L 218.4192 156.7872 
L 222.8544 161.2224 
L 227.2896 165.6576 
L 231.7248 170.0928 
L 236.16 174.528 
L 240.5952 178.9632 
L 245.0304 183.3984 
L 249.4656 187.8336 
L 253.9008 192.2688 
L 258.336 196.704 
L 262.7712 201.1392 
L 267.2064 205.5744 
L 271.6416 210.0096 
L 276.0768 214.4448 
L 280.512 218.88 
L 284.9472 223.3152 
L 289.3824 227.7504 
L 293.8176 232.1856 
L 298.2528 236.6208 
L 302.688 241.056 
L 307.1232 245.4912 
L 311.5584 249.9264 
L 315.9936 254.3616 
L 320.4288 258.7968 
L 324.864 263.232 
L 329.2992 267.6672 
L 333.7344 272.1024 
L 338.1696 276.5376 
L 342.6048 280.9728 
L 347.04 285.408 
L 351.4752 289.8432 
L 355.9104 294.2784 
L 360.3456 298.7136 
L 364.7808 303.1488 
L 369.216 307.584 
" style="fill:none;stroke:#000000;stroke-linecap:square;stroke-width:0.5;"/>
   </g>
   <g id="line2d_18">
    <path clip-path="url(#pfaf1224ffb)" d="M 103.104 174.528 
L 369.216 174.528 
" style="fill:none;stroke:#000000;stroke-linecap:square;stroke-width:0.5;"/>
   </g>
   <g id="line2d_19">
    <path clip-path="url(#pfaf1224ffb)" d="M 236.16 307.584 
L 236.16 41.472 
" style="fill:none;stroke:#000000;stroke-linecap:square;stroke-width:0.5;"/>
   </g>
   <g id="patch_3">
    <path d="M 103.104 307.584 
L 103.104 41.472 
" style="fill:none;stroke:#000000;stroke-linecap:square;stroke-linejoin:miter;stroke-width:0.8;"/>
   </g>
   <g id="patch_4">
    <path d="M 369.216 307.584 
L 369.216 41.472 
" style="fill:none;stroke:#000000;stroke-linecap:square;stroke-linejoin:miter;stroke-width:0.8;"/>
   </g>
   <g id="patch_5">
    <path d="M 103.104 307.584 
L 369.216 307.584 
" style="fill:none;stroke:#000000;stroke-linecap:square;stroke-linejoin:miter;stroke-width:0.8;"/>
   </g>
   <g id="patch_6">
    <path d="M 103.104 41.472 
L 369.216 41.472 
" style="fill:none;stroke:#000000;stroke-linecap:square;stroke-linejoin:miter;stroke-width:0.8;"/>
   </g>
  </g>
 </g>
 <defs>
  <clipPath id="pfaf1224ffb">
   <rect height="266.112" width="266.112" x="103.104" y="41.472"/>
  </clipPath>
 </defs>
</svg>
