<?xml version="1.0" encoding="utf-8" standalone="no"?>
<!DOCTYPE svg PUBLIC "-//W3C//DTD SVG 1.1//EN"
  "http://www.w3.org/Graphics/SVG/1.1/DTD/svg11.dtd">
<!-- Created with matplotlib (http://matplotlib.org/) -->
<svg height="345.6pt" version="1.1" viewBox="0 0 460.8 345.6" width="460.8pt" xmlns="http://www.w3.org/2000/svg" xmlns:xlink="http://www.w3.org/1999/xlink">
 <defs>
  <style type="text/css">
*{stroke-linecap:butt;stroke-linejoin:round;}
  </style>
 </defs>
 <g id="figure_1">
  <g id="patch_1">
   <path d="M 0 345.6 
L 460.8 345.6 
L 460.8 0 
L 0 0 
z
" style="fill:#ffffff;"/>
  </g>
  <g id="axes_1">
   <g id="patch_2">
    <path d="M 57.6 307.584 
L 414.72 307.584 
L 414.72 41.472 
L 57.6 41.472 
z
" style="fill:#ffffff;"/>
   </g>
   <g id="matplotlib.axis_1">
    <g id="xtick_1">
     <g id="line2d_1">
      <defs>
       <path d="M 0 0 
L 0 3.5 
" id="m6ea7637a79" style="stroke:#000000;stroke-width:0.8;"/>
      </defs>
      <g>
       <use style="stroke:#000000;stroke-width:0.8;" x="81.148873" xlink:href="#m6ea7637a79" y="307.584"/>
      </g>
     </g>
     <g id="text_1">
      <!-- −6 -->
      <defs>
       <path d="M 10.59375 35.5 
L 73.1875 35.5 
L 73.1875 27.203125 
L 10.59375 27.203125 
z
" id="DejaVuSans-2212"/>
       <path d="M 33.015625 40.375 
Q 26.375 40.375 22.484375 35.828125 
Q 18.609375 31.296875 18.609375 23.390625 
Q 18.609375 15.53125 22.484375 10.953125 
Q 26.375 6.390625 33.015625 6.390625 
Q 39.65625 6.390625 43.53125 10.953125 
Q 47.40625 15.53125 47.40625 23.390625 
Q 47.40625 31.296875 43.53125 35.828125 
Q 39.65625 40.375 33.015625 40.375 
z
M 52.59375 71.296875 
L 52.59375 62.3125 
Q 48.875 64.0625 45.09375 64.984375 
Q 41.3125 65.921875 37.59375 65.921875 
Q 27.828125 65.921875 22.671875 59.328125 
Q 17.53125 52.734375 16.796875 39.40625 
Q 19.671875 43.65625 24.015625 45.921875 
Q 28.375 48.1875 33.59375 48.1875 
Q 44.578125 48.1875 50.953125 41.515625 
Q 57.328125 34.859375 57.328125 23.390625 
Q 57.328125 12.15625 50.6875 5.359375 
Q 44.046875 -1.421875 33.015625 -1.421875 
Q 20.359375 -1.421875 13.671875 8.265625 
Q 6.984375 17.96875 6.984375 36.375 
Q 6.984375 53.65625 15.1875 63.9375 
Q 23.390625 74.21875 37.203125 74.21875 
Q 40.921875 74.21875 44.703125 73.484375 
Q 48.484375 72.75 52.59375 71.296875 
z
" id="DejaVuSans-36"/>
      </defs>
      <g transform="translate(73.777779 322.182437)scale(0.1 -0.1)">
       <use xlink:href="#DejaVuSans-2212"/>
       <use x="83.789062" xlink:href="#DejaVuSans-36"/>
      </g>
     </g>
    </g>
    <g id="xtick_2">
     <g id="line2d_2">
      <g>
       <use style="stroke:#000000;stroke-width:0.8;" x="132.819249" xlink:href="#m6ea7637a79" y="307.584"/>
      </g>
     </g>
     <g id="text_2">
      <!-- −4 -->
      <defs>
       <path d="M 37.796875 64.3125 
L 12.890625 25.390625 
L 37.796875 25.390625 
z
M 35.203125 72.90625 
L 47.609375 72.90625 
L 47.609375 25.390625 
L 58.015625 25.390625 
L 58.015625 17.1875 
L 47.609375 17.1875 
L 47.609375 0 
L 37.796875 0 
L 37.796875 17.1875 
L 4.890625 17.1875 
L 4.890625 26.703125 
z
" id="DejaVuSans-34"/>
      </defs>
      <g transform="translate(125.448155 322.182437)scale(0.1 -0.1)">
       <use xlink:href="#DejaVuSans-2212"/>
       <use x="83.789062" xlink:href="#DejaVuSans-34"/>
      </g>
     </g>
    </g>
    <g id="xtick_3">
     <g id="line2d_3">
      <g>
       <use style="stroke:#000000;stroke-width:0.8;" x="184.489624" xlink:href="#m6ea7637a79" y="307.584"/>
      </g>
     </g>
     <g id="text_3">
      <!-- −2 -->
      <defs>
       <path d="M 19.1875 8.296875 
L 53.609375 8.296875 
L 53.609375 0 
L 7.328125 0 
L 7.328125 8.296875 
Q 12.9375 14.109375 22.625 23.890625 
Q 32.328125 33.6875 34.8125 36.53125 
Q 39.546875 41.84375 41.421875 45.53125 
Q 43.3125 49.21875 43.3125 52.78125 
Q 43.3125 58.59375 39.234375 62.25 
Q 35.15625 65.921875 28.609375 65.921875 
Q 23.96875 65.921875 18.8125 64.3125 
Q 13.671875 62.703125 7.8125 59.421875 
L 7.8125 69.390625 
Q 13.765625 71.78125 18.9375 73 
Q 24.125 74.21875 28.421875 74.21875 
Q 39.75 74.21875 46.484375 68.546875 
Q 53.21875 62.890625 53.21875 53.421875 
Q 53.21875 48.921875 51.53125 44.890625 
Q 49.859375 40.875 45.40625 35.40625 
Q 44.1875 33.984375 37.640625 27.21875 
Q 31.109375 20.453125 19.1875 8.296875 
z
" id="DejaVuSans-32"/>
      </defs>
      <g transform="translate(177.118531 322.182437)scale(0.1 -0.1)">
       <use xlink:href="#DejaVuSans-2212"/>
       <use x="83.789062" xlink:href="#DejaVuSans-32"/>
      </g>
     </g>
    </g>
    <g id="xtick_4">
     <g id="line2d_4">
      <g>
       <use style="stroke:#000000;stroke-width:0.8;" x="236.16" xlink:href="#m6ea7637a79" y="307.584"/>
      </g>
     </g>
     <g id="text_4">
      <!-- 0 -->
      <defs>
       <path d="M 31.78125 66.40625 
Q 24.171875 66.40625 20.328125 58.90625 
Q 16.5 51.421875 16.5 36.375 
Q 16.5 21.390625 20.328125 13.890625 
Q 24.171875 6.390625 31.78125 6.390625 
Q 39.453125 6.390625 43.28125 13.890625 
Q 47.125 21.390625 47.125 36.375 
Q 47.125 51.421875 43.28125 58.90625 
Q 39.453125 66.40625 31.78125 66.40625 
z
M 31.78125 74.21875 
Q 44.046875 74.21875 50.515625 64.515625 
Q 56.984375 54.828125 56.984375 36.375 
Q 56.984375 17.96875 50.515625 8.265625 
Q 44.046875 -1.421875 31.78125 -1.421875 
Q 19.53125 -1.421875 13.0625 8.265625 
Q 6.59375 17.96875 6.59375 36.375 
Q 6.59375 54.828125 13.0625 64.515625 
Q 19.53125 74.21875 31.78125 74.21875 
z
" id="DejaVuSans-30"/>
      </defs>
      <g transform="translate(232.97875 322.182437)scale(0.1 -0.1)">
       <use xlink:href="#DejaVuSans-30"/>
      </g>
     </g>
    </g>
    <g id="xtick_5">
     <g id="line2d_5">
      <g>
       <use style="stroke:#000000;stroke-width:0.8;" x="287.830376" xlink:href="#m6ea7637a79" y="307.584"/>
      </g>
     </g>
     <g id="text_5">
      <!-- 2 -->
      <g transform="translate(284.649126 322.182437)scale(0.1 -0.1)">
       <use xlink:href="#DejaVuSans-32"/>
      </g>
     </g>
    </g>
    <g id="xtick_6">
     <g id="line2d_6">
      <g>
       <use style="stroke:#000000;stroke-width:0.8;" x="339.500751" xlink:href="#m6ea7637a79" y="307.584"/>
      </g>
     </g>
     <g id="text_6">
      <!-- 4 -->
      <g transform="translate(336.319501 322.182437)scale(0.1 -0.1)">
       <use xlink:href="#DejaVuSans-34"/>
      </g>
     </g>
    </g>
    <g id="xtick_7">
     <g id="line2d_7">
      <g>
       <use style="stroke:#000000;stroke-width:0.8;" x="391.171127" xlink:href="#m6ea7637a79" y="307.584"/>
      </g>
     </g>
     <g id="text_7">
      <!-- 6 -->
      <g transform="translate(387.989877 322.182437)scale(0.1 -0.1)">
       <use xlink:href="#DejaVuSans-36"/>
      </g>
     </g>
    </g>
    <g id="text_8">
     <!-- radian -->
     <defs>
      <path d="M 41.109375 46.296875 
Q 39.59375 47.171875 37.8125 47.578125 
Q 36.03125 48 33.890625 48 
Q 26.265625 48 22.1875 43.046875 
Q 18.109375 38.09375 18.109375 28.8125 
L 18.109375 0 
L 9.078125 0 
L 9.078125 54.6875 
L 18.109375 54.6875 
L 18.109375 46.1875 
Q 20.953125 51.171875 25.484375 53.578125 
Q 30.03125 56 36.53125 56 
Q 37.453125 56 38.578125 55.875 
Q 39.703125 55.765625 41.0625 55.515625 
z
" id="DejaVuSans-72"/>
      <path d="M 34.28125 27.484375 
Q 23.390625 27.484375 19.1875 25 
Q 14.984375 22.515625 14.984375 16.5 
Q 14.984375 11.71875 18.140625 8.90625 
Q 21.296875 6.109375 26.703125 6.109375 
Q 34.1875 6.109375 38.703125 11.40625 
Q 43.21875 16.703125 43.21875 25.484375 
L 43.21875 27.484375 
z
M 52.203125 31.203125 
L 52.203125 0 
L 43.21875 0 
L 43.21875 8.296875 
Q 40.140625 3.328125 35.546875 0.953125 
Q 30.953125 -1.421875 24.3125 -1.421875 
Q 15.921875 -1.421875 10.953125 3.296875 
Q 6 8.015625 6 15.921875 
Q 6 25.140625 12.171875 29.828125 
Q 18.359375 34.515625 30.609375 34.515625 
L 43.21875 34.515625 
L 43.21875 35.40625 
Q 43.21875 41.609375 39.140625 45 
Q 35.0625 48.390625 27.6875 48.390625 
Q 23 48.390625 18.546875 47.265625 
Q 14.109375 46.140625 10.015625 43.890625 
L 10.015625 52.203125 
Q 14.9375 54.109375 19.578125 55.046875 
Q 24.21875 56 28.609375 56 
Q 40.484375 56 46.34375 49.84375 
Q 52.203125 43.703125 52.203125 31.203125 
z
" id="DejaVuSans-61"/>
      <path d="M 45.40625 46.390625 
L 45.40625 75.984375 
L 54.390625 75.984375 
L 54.390625 0 
L 45.40625 0 
L 45.40625 8.203125 
Q 42.578125 3.328125 38.25 0.953125 
Q 33.9375 -1.421875 27.875 -1.421875 
Q 17.96875 -1.421875 11.734375 6.484375 
Q 5.515625 14.40625 5.515625 27.296875 
Q 5.515625 40.1875 11.734375 48.09375 
Q 17.96875 56 27.875 56 
Q 33.9375 56 38.25 53.625 
Q 42.578125 51.265625 45.40625 46.390625 
z
M 14.796875 27.296875 
Q 14.796875 17.390625 18.875 11.75 
Q 22.953125 6.109375 30.078125 6.109375 
Q 37.203125 6.109375 41.296875 11.75 
Q 45.40625 17.390625 45.40625 27.296875 
Q 45.40625 37.203125 41.296875 42.84375 
Q 37.203125 48.484375 30.078125 48.484375 
Q 22.953125 48.484375 18.875 42.84375 
Q 14.796875 37.203125 14.796875 27.296875 
z
" id="DejaVuSans-64"/>
      <path d="M 9.421875 54.6875 
L 18.40625 54.6875 
L 18.40625 0 
L 9.421875 0 
z
M 9.421875 75.984375 
L 18.40625 75.984375 
L 18.40625 64.59375 
L 9.421875 64.59375 
z
" id="DejaVuSans-69"/>
      <path d="M 54.890625 33.015625 
L 54.890625 0 
L 45.90625 0 
L 45.90625 32.71875 
Q 45.90625 40.484375 42.875 44.328125 
Q 39.84375 48.1875 33.796875 48.1875 
Q 26.515625 48.1875 22.3125 43.546875 
Q 18.109375 38.921875 18.109375 30.90625 
L 18.109375 0 
L 9.078125 0 
L 9.078125 54.6875 
L 18.109375 54.6875 
L 18.109375 46.1875 
Q 21.34375 51.125 25.703125 53.5625 
Q 30.078125 56 35.796875 56 
Q 45.21875 56 50.046875 50.171875 
Q 54.890625 44.34375 54.890625 33.015625 
z
" id="DejaVuSans-6e"/>
     </defs>
     <g transform="translate(220.244375 335.860562)scale(0.1 -0.1)">
      <use xlink:href="#DejaVuSans-72"/>
      <use x="41.113281" xlink:href="#DejaVuSans-61"/>
      <use x="102.392578" xlink:href="#DejaVuSans-64"/>
      <use x="165.869141" xlink:href="#DejaVuSans-69"/>
      <use x="193.652344" xlink:href="#DejaVuSans-61"/>
      <use x="254.931641" xlink:href="#DejaVuSans-6e"/>
     </g>
    </g>
   </g>
   <g id="matplotlib.axis_2">
    <g id="ytick_1">
     <g id="line2d_8">
      <defs>
       <path d="M 0 0 
L -3.5 0 
" id="mc2c116b960" style="stroke:#000000;stroke-width:0.8;"/>
      </defs>
      <g>
       <use style="stroke:#000000;stroke-width:0.8;" x="57.6" xlink:href="#mc2c116b960" y="307.584"/>
      </g>
     </g>
     <g id="text_9">
      <!-- −10.0 -->
      <defs>
       <path d="M 12.40625 8.296875 
L 28.515625 8.296875 
L 28.515625 63.921875 
L 10.984375 60.40625 
L 10.984375 69.390625 
L 28.421875 72.90625 
L 38.28125 72.90625 
L 38.28125 8.296875 
L 54.390625 8.296875 
L 54.390625 0 
L 12.40625 0 
z
" id="DejaVuSans-31"/>
       <path d="M 10.6875 12.40625 
L 21 12.40625 
L 21 0 
L 10.6875 0 
z
" id="DejaVuSans-2e"/>
      </defs>
      <g transform="translate(19.954687 311.383219)scale(0.1 -0.1)">
       <use xlink:href="#DejaVuSans-2212"/>
       <use x="83.789062" xlink:href="#DejaVuSans-31"/>
       <use x="147.412109" xlink:href="#DejaVuSans-30"/>
       <use x="211.035156" xlink:href="#DejaVuSans-2e"/>
       <use x="242.822266" xlink:href="#DejaVuSans-30"/>
      </g>
     </g>
    </g>
    <g id="ytick_2">
     <g id="line2d_9">
      <g>
       <use style="stroke:#000000;stroke-width:0.8;" x="57.6" xlink:href="#mc2c116b960" y="274.32"/>
      </g>
     </g>
     <g id="text_10">
      <!-- −7.5 -->
      <defs>
       <path d="M 8.203125 72.90625 
L 55.078125 72.90625 
L 55.078125 68.703125 
L 28.609375 0 
L 18.3125 0 
L 43.21875 64.59375 
L 8.203125 64.59375 
z
" id="DejaVuSans-37"/>
       <path d="M 10.796875 72.90625 
L 49.515625 72.90625 
L 49.515625 64.59375 
L 19.828125 64.59375 
L 19.828125 46.734375 
Q 21.96875 47.46875 24.109375 47.828125 
Q 26.265625 48.1875 28.421875 48.1875 
Q 40.625 48.1875 47.75 41.5 
Q 54.890625 34.8125 54.890625 23.390625 
Q 54.890625 11.625 47.5625 5.09375 
Q 40.234375 -1.421875 26.90625 -1.421875 
Q 22.3125 -1.421875 17.546875 -0.640625 
Q 12.796875 0.140625 7.71875 1.703125 
L 7.71875 11.625 
Q 12.109375 9.234375 16.796875 8.0625 
Q 21.484375 6.890625 26.703125 6.890625 
Q 35.15625 6.890625 40.078125 11.328125 
Q 45.015625 15.765625 45.015625 23.390625 
Q 45.015625 31 40.078125 35.4375 
Q 35.15625 39.890625 26.703125 39.890625 
Q 22.75 39.890625 18.8125 39.015625 
Q 14.890625 38.140625 10.796875 36.28125 
z
" id="DejaVuSans-35"/>
      </defs>
      <g transform="translate(26.317187 278.119219)scale(0.1 -0.1)">
       <use xlink:href="#DejaVuSans-2212"/>
       <use x="83.789062" xlink:href="#DejaVuSans-37"/>
       <use x="147.412109" xlink:href="#DejaVuSans-2e"/>
       <use x="179.199219" xlink:href="#DejaVuSans-35"/>
      </g>
     </g>
    </g>
    <g id="ytick_3">
     <g id="line2d_10">
      <g>
       <use style="stroke:#000000;stroke-width:0.8;" x="57.6" xlink:href="#mc2c116b960" y="241.056"/>
      </g>
     </g>
     <g id="text_11">
      <!-- −5.0 -->
      <g transform="translate(26.317187 244.855219)scale(0.1 -0.1)">
       <use xlink:href="#DejaVuSans-2212"/>
       <use x="83.789062" xlink:href="#DejaVuSans-35"/>
       <use x="147.412109" xlink:href="#DejaVuSans-2e"/>
       <use x="179.199219" xlink:href="#DejaVuSans-30"/>
      </g>
     </g>
    </g>
    <g id="ytick_4">
     <g id="line2d_11">
      <g>
       <use style="stroke:#000000;stroke-width:0.8;" x="57.6" xlink:href="#mc2c116b960" y="207.792"/>
      </g>
     </g>
     <g id="text_12">
      <!-- −2.5 -->
      <g transform="translate(26.317187 211.591219)scale(0.1 -0.1)">
       <use xlink:href="#DejaVuSans-2212"/>
       <use x="83.789062" xlink:href="#DejaVuSans-32"/>
       <use x="147.412109" xlink:href="#DejaVuSans-2e"/>
       <use x="179.199219" xlink:href="#DejaVuSans-35"/>
      </g>
     </g>
    </g>
    <g id="ytick_5">
     <g id="line2d_12">
      <g>
       <use style="stroke:#000000;stroke-width:0.8;" x="57.6" xlink:href="#mc2c116b960" y="174.528"/>
      </g>
     </g>
     <g id="text_13">
      <!-- 0.0 -->
      <g transform="translate(34.696875 178.327219)scale(0.1 -0.1)">
       <use xlink:href="#DejaVuSans-30"/>
       <use x="63.623047" xlink:href="#DejaVuSans-2e"/>
       <use x="95.410156" xlink:href="#DejaVuSans-30"/>
      </g>
     </g>
    </g>
    <g id="ytick_6">
     <g id="line2d_13">
      <g>
       <use style="stroke:#000000;stroke-width:0.8;" x="57.6" xlink:href="#mc2c116b960" y="141.264"/>
      </g>
     </g>
     <g id="text_14">
      <!-- 2.5 -->
      <g transform="translate(34.696875 145.063219)scale(0.1 -0.1)">
       <use xlink:href="#DejaVuSans-32"/>
       <use x="63.623047" xlink:href="#DejaVuSans-2e"/>
       <use x="95.410156" xlink:href="#DejaVuSans-35"/>
      </g>
     </g>
    </g>
    <g id="ytick_7">
     <g id="line2d_14">
      <g>
       <use style="stroke:#000000;stroke-width:0.8;" x="57.6" xlink:href="#mc2c116b960" y="108"/>
      </g>
     </g>
     <g id="text_15">
      <!-- 5.0 -->
      <g transform="translate(34.696875 111.799219)scale(0.1 -0.1)">
       <use xlink:href="#DejaVuSans-35"/>
       <use x="63.623047" xlink:href="#DejaVuSans-2e"/>
       <use x="95.410156" xlink:href="#DejaVuSans-30"/>
      </g>
     </g>
    </g>
    <g id="ytick_8">
     <g id="line2d_15">
      <g>
       <use style="stroke:#000000;stroke-width:0.8;" x="57.6" xlink:href="#mc2c116b960" y="74.736"/>
      </g>
     </g>
     <g id="text_16">
      <!-- 7.5 -->
      <g transform="translate(34.696875 78.535219)scale(0.1 -0.1)">
       <use xlink:href="#DejaVuSans-37"/>
       <use x="63.623047" xlink:href="#DejaVuSans-2e"/>
       <use x="95.410156" xlink:href="#DejaVuSans-35"/>
      </g>
     </g>
    </g>
    <g id="ytick_9">
     <g id="line2d_16">
      <g>
       <use style="stroke:#000000;stroke-width:0.8;" x="57.6" xlink:href="#mc2c116b960" y="41.472"/>
      </g>
     </g>
     <g id="text_17">
      <!-- 10.0 -->
      <g transform="translate(28.334375 45.271219)scale(0.1 -0.1)">
       <use xlink:href="#DejaVuSans-31"/>
       <use x="63.623047" xlink:href="#DejaVuSans-30"/>
       <use x="127.246094" xlink:href="#DejaVuSans-2e"/>
       <use x="159.033203" xlink:href="#DejaVuSans-30"/>
      </g>
     </g>
    </g>
   </g>
   <g id="line2d_17">
    <path clip-path="url(#p6d6d7fc5c7)" d="M 73.832727 174.528 
L 81.498182 170.46007 
L 85.330909 168.181554 
L 88.487273 166.051398 
L 91.192727 163.944248 
L 93.447273 161.901457 
L 95.476364 159.750634 
L 97.28 157.497609 
L 98.858182 155.168232 
L 100.210909 152.815234 
L 101.563636 150.022133 
L 102.690909 147.247477 
L 103.818182 143.927215 
L 104.945455 139.865727 
L 105.847273 135.885732 
L 106.749091 131.007343 
L 107.650909 124.870825 
L 108.552727 116.895115 
L 109.229091 109.128887 
L 109.905455 99.068193 
L 110.581818 85.498152 
L 111.258182 66.162584 
L 111.709091 47.933672 
L 112.16 22.444296 
L 112.454151 -1 
M 114.189091 -1 
L 114.189091 346.6 
M 116.411667 346.6 
L 116.669091 326.611704 
L 117.345455 291.309752 
L 118.021818 269.202263 
L 118.698182 254.03913 
L 119.374545 242.979378 
L 120.276364 232.160885 
L 121.178182 224.185175 
L 122.08 218.048657 
L 123.207273 212.101855 
L 124.334545 207.460516 
L 125.461818 203.724475 
L 126.814545 200.08782 
L 128.167273 197.116426 
L 129.52 194.630569 
L 131.098182 192.185128 
L 132.901818 189.834342 
L 134.705455 187.8336 
L 136.734545 185.892056 
L 139.214545 183.844681 
L 141.92 181.903415 
L 145.301818 179.769215 
L 149.585455 177.356193 
L 157.025455 173.480827 
L 163.112727 170.204748 
L 166.945455 167.894073 
L 169.876364 165.887242 
L 172.356364 163.944248 
L 174.610909 161.901457 
L 176.64 159.750634 
L 178.443636 157.497609 
L 180.021818 155.168232 
L 181.374545 152.815234 
L 182.727273 150.022133 
L 183.854545 147.247477 
L 184.981818 143.927215 
L 186.109091 139.865727 
L 187.010909 135.885732 
L 187.912727 131.007343 
L 188.814545 124.870825 
L 189.716364 116.895115 
L 190.392727 109.128887 
L 191.069091 99.068193 
L 191.745455 85.498152 
L 192.421818 66.162584 
L 192.872727 47.933672 
L 193.323636 22.444296 
L 193.617787 -1 
M 195.352727 -1 
L 195.352727 346.6 
M 197.575303 346.6 
L 197.832727 326.611704 
L 198.509091 291.309752 
L 199.185455 269.202263 
L 199.861818 254.03913 
L 200.538182 242.979378 
L 201.44 232.160885 
L 202.341818 224.185175 
L 203.243636 218.048657 
L 204.370909 212.101855 
L 205.498182 207.460516 
L 206.625455 203.724475 
L 207.978182 200.08782 
L 209.330909 197.116426 
L 210.683636 194.630569 
L 212.261818 192.185128 
L 214.065455 189.834342 
L 215.869091 187.8336 
L 217.898182 185.892056 
L 220.378182 183.844681 
L 223.083636 181.903415 
L 226.465455 179.769215 
L 230.749091 177.356193 
L 238.189091 173.480827 
L 244.276364 170.204748 
L 248.109091 167.894073 
L 251.04 165.887242 
L 253.52 163.944248 
L 255.774545 161.901457 
L 257.803636 159.750634 
L 259.607273 157.497609 
L 261.185455 155.168232 
L 262.538182 152.815234 
L 263.890909 150.022133 
L 265.018182 147.247477 
L 266.145455 143.927215 
L 267.272727 139.865727 
L 268.174545 135.885732 
L 269.076364 131.007343 
L 269.978182 124.870825 
L 270.88 116.895115 
L 271.556364 109.128887 
L 272.232727 99.068193 
L 272.909091 85.498152 
L 273.585455 66.162584 
L 274.036364 47.933672 
L 274.487273 22.444296 
L 274.781424 -1 
M 276.516364 -1 
L 276.516364 346.6 
M 278.73894 346.6 
L 278.996364 326.611704 
L 279.672727 291.309752 
L 280.349091 269.202263 
L 281.025455 254.03913 
L 281.701818 242.979378 
L 282.603636 232.160885 
L 283.505455 224.185175 
L 284.407273 218.048657 
L 285.534545 212.101855 
L 286.661818 207.460516 
L 287.789091 203.724475 
L 289.141818 200.08782 
L 290.494545 197.116426 
L 291.847273 194.630569 
L 293.425455 192.185128 
L 295.229091 189.834342 
L 297.032727 187.8336 
L 299.061818 185.892056 
L 301.541818 183.844681 
L 304.247273 181.903415 
L 307.629091 179.769215 
L 311.912727 177.356193 
L 319.352727 173.480827 
L 325.44 170.204748 
L 329.272727 167.894073 
L 332.203636 165.887242 
L 334.683636 163.944248 
L 336.938182 161.901457 
L 338.967273 159.750634 
L 340.770909 157.497609 
L 342.349091 155.168232 
L 343.701818 152.815234 
L 345.054545 150.022133 
L 346.181818 147.247477 
L 347.309091 143.927215 
L 348.436364 139.865727 
L 349.338182 135.885732 
L 350.24 131.007343 
L 351.141818 124.870825 
L 352.043636 116.895115 
L 352.72 109.128887 
L 353.396364 99.068193 
L 354.072727 85.498152 
L 354.749091 66.162584 
L 355.2 47.933672 
L 355.650909 22.444296 
L 355.94506 -1 
M 358.130909 -1 
L 358.130909 346.6 
M 359.902576 346.6 
L 360.16 326.611704 
L 360.836364 291.309752 
L 361.512727 269.202263 
L 362.189091 254.03913 
L 362.865455 242.979378 
L 363.767273 232.160885 
L 364.669091 224.185175 
L 365.570909 218.048657 
L 366.698182 212.101855 
L 367.825455 207.460516 
L 368.952727 203.724475 
L 370.305455 200.08782 
L 371.658182 197.116426 
L 373.010909 194.630569 
L 374.589091 192.185128 
L 376.392727 189.834342 
L 378.196364 187.8336 
L 380.225455 185.892056 
L 382.705455 183.844681 
L 385.410909 181.903415 
L 388.792727 179.769215 
L 393.076364 177.356193 
L 398.487273 174.528 
L 398.487273 174.528 
" style="fill:none;stroke:#1f77b4;stroke-linecap:square;stroke-width:1.5;"/>
   </g>
   <g id="line2d_18">
    <path clip-path="url(#p6d6d7fc5c7)" d="M 75.793122 -1 
L 76.087273 22.444296 
L 76.763636 57.746248 
L 77.44 79.853737 
L 78.116364 95.01687 
L 78.792727 106.076622 
L 79.694545 116.895115 
L 80.596364 124.870825 
L 81.498182 131.007343 
L 82.625455 136.954145 
L 83.752727 141.595484 
L 84.88 145.331525 
L 86.232727 148.96818 
L 87.585455 151.939574 
L 88.938182 154.425431 
L 90.516364 156.870872 
L 92.32 159.221658 
L 94.123636 161.2224 
L 96.152727 163.163944 
L 98.632727 165.211319 
L 101.338182 167.152585 
L 104.72 169.286785 
L 109.003636 171.699807 
L 116.443636 175.575173 
L 122.530909 178.851252 
L 126.363636 181.161927 
L 129.294545 183.168758 
L 131.774545 185.111752 
L 134.029091 187.154543 
L 136.058182 189.305366 
L 137.861818 191.558391 
L 139.44 193.887768 
L 140.792727 196.240766 
L 142.145455 199.033867 
L 143.272727 201.808523 
L 144.4 205.128785 
L 145.527273 209.190273 
L 146.429091 213.170268 
L 147.330909 218.048657 
L 148.232727 224.185175 
L 149.134545 232.160885 
L 149.810909 239.927113 
L 150.487273 249.987807 
L 151.163636 263.557848 
L 151.84 282.893416 
L 152.290909 301.122328 
L 152.741818 326.611704 
L 152.999242 346.6 
M 154.770909 346.6 
L 154.770909 -1 
M 156.956758 -1 
L 157.250909 22.444296 
L 157.927273 57.746248 
L 158.603636 79.853737 
L 159.28 95.01687 
L 159.956364 106.076622 
L 160.858182 116.895115 
L 161.76 124.870825 
L 162.661818 131.007343 
L 163.789091 136.954145 
L 164.916364 141.595484 
L 166.043636 145.331525 
L 167.396364 148.96818 
L 168.749091 151.939574 
L 170.101818 154.425431 
L 171.68 156.870872 
L 173.483636 159.221658 
L 175.287273 161.2224 
L 177.316364 163.163944 
L 179.796364 165.211319 
L 182.501818 167.152585 
L 185.883636 169.286785 
L 190.167273 171.699807 
L 197.607273 175.575173 
L 203.694545 178.851252 
L 207.527273 181.161927 
L 210.458182 183.168758 
L 212.938182 185.111752 
L 215.192727 187.154543 
L 217.221818 189.305366 
L 219.025455 191.558391 
L 220.603636 193.887768 
L 221.956364 196.240766 
L 223.309091 199.033867 
L 224.436364 201.808523 
L 225.563636 205.128785 
L 226.690909 209.190273 
L 227.592727 213.170268 
L 228.494545 218.048657 
L 229.396364 224.185175 
L 230.298182 232.160885 
L 230.974545 239.927113 
L 231.650909 249.987807 
L 232.327273 263.557848 
L 233.003636 282.893416 
L 233.454545 301.122328 
L 233.905455 326.611704 
L 234.162879 346.6 
M 235.934545 346.6 
L 235.934545 -1 
M 238.120395 -1 
L 238.414545 22.444296 
L 239.090909 57.746248 
L 239.767273 79.853737 
L 240.443636 95.01687 
L 241.12 106.076622 
L 242.021818 116.895115 
L 242.923636 124.870825 
L 243.825455 131.007343 
L 244.952727 136.954145 
L 246.08 141.595484 
L 247.207273 145.331525 
L 248.56 148.96818 
L 249.912727 151.939574 
L 251.265455 154.425431 
L 252.843636 156.870872 
L 254.647273 159.221658 
L 256.450909 161.2224 
L 258.48 163.163944 
L 260.96 165.211319 
L 263.665455 167.152585 
L 267.047273 169.286785 
L 271.330909 171.699807 
L 278.770909 175.575173 
L 284.858182 178.851252 
L 288.690909 181.161927 
L 291.621818 183.168758 
L 294.101818 185.111752 
L 296.356364 187.154543 
L 298.385455 189.305366 
L 300.189091 191.558391 
L 301.767273 193.887768 
L 303.12 196.240766 
L 304.472727 199.033867 
L 305.6 201.808523 
L 306.727273 205.128785 
L 307.854545 209.190273 
L 308.756364 213.170268 
L 309.658182 218.048657 
L 310.56 224.185175 
L 311.461818 232.160885 
L 312.138182 239.927113 
L 312.814545 249.987807 
L 313.490909 263.557848 
L 314.167273 282.893416 
L 314.618182 301.122328 
L 315.069091 326.611704 
L 315.326515 346.6 
M 317.549091 346.6 
L 317.549091 -1 
M 319.284031 -1 
L 319.578182 22.444296 
L 320.254545 57.746248 
L 320.930909 79.853737 
L 321.607273 95.01687 
L 322.283636 106.076622 
L 323.185455 116.895115 
L 324.087273 124.870825 
L 324.989091 131.007343 
L 326.116364 136.954145 
L 327.243636 141.595484 
L 328.370909 145.331525 
L 329.723636 148.96818 
L 331.076364 151.939574 
L 332.429091 154.425431 
L 334.007273 156.870872 
L 335.810909 159.221658 
L 337.614545 161.2224 
L 339.643636 163.163944 
L 342.123636 165.211319 
L 344.829091 167.152585 
L 348.210909 169.286785 
L 352.494545 171.699807 
L 359.934545 175.575173 
L 366.021818 178.851252 
L 369.854545 181.161927 
L 372.785455 183.168758 
L 375.265455 185.111752 
L 377.52 187.154543 
L 379.549091 189.305366 
L 381.352727 191.558391 
L 382.930909 193.887768 
L 384.283636 196.240766 
L 385.636364 199.033867 
L 386.763636 201.808523 
L 387.890909 205.128785 
L 389.018182 209.190273 
L 389.92 213.170268 
L 390.821818 218.048657 
L 391.723636 224.185175 
L 392.625455 232.160885 
L 393.301818 239.927113 
L 393.978182 249.987807 
L 394.654545 263.557848 
L 395.330909 282.893416 
L 395.781818 301.122328 
L 396.232727 326.611704 
L 396.490151 346.6 
L 396.490151 346.6 
" style="fill:none;stroke:#ff7f0e;stroke-linecap:square;stroke-width:1.5;"/>
   </g>
   <g id="patch_3">
    <path d="M 57.6 307.584 
L 57.6 41.472 
" style="fill:none;stroke:#000000;stroke-linecap:square;stroke-linejoin:miter;stroke-width:0.8;"/>
   </g>
   <g id="patch_4">
    <path d="M 414.72 307.584 
L 414.72 41.472 
" style="fill:none;stroke:#000000;stroke-linecap:square;stroke-linejoin:miter;stroke-width:0.8;"/>
   </g>
   <g id="patch_5">
    <path d="M 57.6 307.584 
L 414.72 307.584 
" style="fill:none;stroke:#000000;stroke-linecap:square;stroke-linejoin:miter;stroke-width:0.8;"/>
   </g>
   <g id="patch_6">
    <path d="M 57.6 41.472 
L 414.72 41.472 
" style="fill:none;stroke:#000000;stroke-linecap:square;stroke-linejoin:miter;stroke-width:0.8;"/>
   </g>
   <g id="legend_1">
    <g id="patch_7">
     <path d="M 359.334063 78.82825 
L 407.72 78.82825 
Q 409.72 78.82825 409.72 76.82825 
L 409.72 48.472 
Q 409.72 46.472 407.72 46.472 
L 359.334063 46.472 
Q 357.334063 46.472 357.334063 48.472 
L 357.334063 76.82825 
Q 357.334063 78.82825 359.334063 78.82825 
z
" style="fill:#ffffff;opacity:0.8;stroke:#cccccc;stroke-linejoin:miter;"/>
    </g>
    <g id="line2d_19">
     <path d="M 361.334063 54.570437 
L 381.334063 54.570437 
" style="fill:none;stroke:#1f77b4;stroke-linecap:square;stroke-width:1.5;"/>
    </g>
    <g id="line2d_20"/>
    <g id="text_18">
     <!-- tan -->
     <defs>
      <path d="M 18.3125 70.21875 
L 18.3125 54.6875 
L 36.8125 54.6875 
L 36.8125 47.703125 
L 18.3125 47.703125 
L 18.3125 18.015625 
Q 18.3125 11.328125 20.140625 9.421875 
Q 21.96875 7.515625 27.59375 7.515625 
L 36.8125 7.515625 
L 36.8125 0 
L 27.59375 0 
Q 17.1875 0 13.234375 3.875 
Q 9.28125 7.765625 9.28125 18.015625 
L 9.28125 47.703125 
L 2.6875 47.703125 
L 2.6875 54.6875 
L 9.28125 54.6875 
L 9.28125 70.21875 
z
" id="DejaVuSans-74"/>
     </defs>
     <g transform="translate(389.334063 58.070437)scale(0.1 -0.1)">
      <use xlink:href="#DejaVuSans-74"/>
      <use x="39.208984" xlink:href="#DejaVuSans-61"/>
      <use x="100.488281" xlink:href="#DejaVuSans-6e"/>
     </g>
    </g>
    <g id="line2d_21">
     <path d="M 361.334063 69.248562 
L 381.334063 69.248562 
" style="fill:none;stroke:#ff7f0e;stroke-linecap:square;stroke-width:1.5;"/>
    </g>
    <g id="line2d_22"/>
    <g id="text_19">
     <!-- cot -->
     <defs>
      <path d="M 48.78125 52.59375 
L 48.78125 44.1875 
Q 44.96875 46.296875 41.140625 47.34375 
Q 37.3125 48.390625 33.40625 48.390625 
Q 24.65625 48.390625 19.8125 42.84375 
Q 14.984375 37.3125 14.984375 27.296875 
Q 14.984375 17.28125 19.8125 11.734375 
Q 24.65625 6.203125 33.40625 6.203125 
Q 37.3125 6.203125 41.140625 7.25 
Q 44.96875 8.296875 48.78125 10.40625 
L 48.78125 2.09375 
Q 45.015625 0.34375 40.984375 -0.53125 
Q 36.96875 -1.421875 32.421875 -1.421875 
Q 20.0625 -1.421875 12.78125 6.34375 
Q 5.515625 14.109375 5.515625 27.296875 
Q 5.515625 40.671875 12.859375 48.328125 
Q 20.21875 56 33.015625 56 
Q 37.15625 56 41.109375 55.140625 
Q 45.0625 54.296875 48.78125 52.59375 
z
" id="DejaVuSans-63"/>
      <path d="M 30.609375 48.390625 
Q 23.390625 48.390625 19.1875 42.75 
Q 14.984375 37.109375 14.984375 27.296875 
Q 14.984375 17.484375 19.15625 11.84375 
Q 23.34375 6.203125 30.609375 6.203125 
Q 37.796875 6.203125 41.984375 11.859375 
Q 46.1875 17.53125 46.1875 27.296875 
Q 46.1875 37.015625 41.984375 42.703125 
Q 37.796875 48.390625 30.609375 48.390625 
z
M 30.609375 56 
Q 42.328125 56 49.015625 48.375 
Q 55.71875 40.765625 55.71875 27.296875 
Q 55.71875 13.875 49.015625 6.21875 
Q 42.328125 -1.421875 30.609375 -1.421875 
Q 18.84375 -1.421875 12.171875 6.21875 
Q 5.515625 13.875 5.515625 27.296875 
Q 5.515625 40.765625 12.171875 48.375 
Q 18.84375 56 30.609375 56 
z
" id="DejaVuSans-6f"/>
     </defs>
     <g transform="translate(389.334063 72.748562)scale(0.1 -0.1)">
      <use xlink:href="#DejaVuSans-63"/>
      <use x="54.980469" xlink:href="#DejaVuSans-6f"/>
      <use x="116.162109" xlink:href="#DejaVuSans-74"/>
     </g>
    </g>
   </g>
  </g>
 </g>
 <defs>
  <clipPath id="p6d6d7fc5c7">
   <rect height="266.112" width="357.12" x="57.6" y="41.472"/>
  </clipPath>
 </defs>
</svg>
