<?xml version="1.0" encoding="utf-8" standalone="no"?>
<!DOCTYPE svg PUBLIC "-//W3C//DTD SVG 1.1//EN"
  "http://www.w3.org/Graphics/SVG/1.1/DTD/svg11.dtd">
<!-- Created with matplotlib (http://matplotlib.org/) -->
<svg height="226.771654pt" version="1.1" viewBox="0 0 226.771654 226.771654" width="226.771654pt" xmlns="http://www.w3.org/2000/svg" xmlns:xlink="http://www.w3.org/1999/xlink">
 <defs>
  <style type="text/css">
*{stroke-linecap:butt;stroke-linejoin:round;}
  </style>
 </defs>
 <g id="figure_1">
  <g id="patch_1">
   <path d="M 0 226.771654 
L 226.771654 226.771654 
L 226.771654 0 
L 0 0 
z
" style="fill:#ffffff;"/>
  </g>
  <g id="axes_1">
   <g id="patch_2">
    <path d="M 28.346457 201.826772 
L 204.094488 201.826772 
L 204.094488 27.212598 
L 28.346457 27.212598 
z
" style="fill:#ffffff;"/>
   </g>
   <g id="matplotlib.axis_1">
    <g id="xtick_1">
     <g id="line2d_1">
      <defs>
       <path d="M 0 0 
L 0 3.5 
" id="md34e1e6df3" style="stroke:#000000;stroke-width:0.8;"/>
      </defs>
      <g>
       <use style="stroke:#000000;stroke-width:0.8;" x="28.346457" xlink:href="#md34e1e6df3" y="201.826772"/>
      </g>
     </g>
     <g id="text_1">
      <!-- −1 -->
      <defs>
       <path d="M 10.59375 35.5 
L 73.1875 35.5 
L 73.1875 27.203125 
L 10.59375 27.203125 
z
" id="DejaVuSans-2212"/>
       <path d="M 12.40625 8.296875 
L 28.515625 8.296875 
L 28.515625 63.921875 
L 10.984375 60.40625 
L 10.984375 69.390625 
L 28.421875 72.90625 
L 38.28125 72.90625 
L 38.28125 8.296875 
L 54.390625 8.296875 
L 54.390625 0 
L 12.40625 0 
z
" id="DejaVuSans-31"/>
      </defs>
      <g transform="translate(20.975363 216.425209)scale(0.1 -0.1)">
       <use xlink:href="#DejaVuSans-2212"/>
       <use x="83.789062" xlink:href="#DejaVuSans-31"/>
      </g>
     </g>
    </g>
    <g id="xtick_2">
     <g id="line2d_2">
      <g>
       <use style="stroke:#000000;stroke-width:0.8;" x="72.283465" xlink:href="#md34e1e6df3" y="201.826772"/>
      </g>
     </g>
     <g id="text_2">
      <!-- 0 -->
      <defs>
       <path d="M 31.78125 66.40625 
Q 24.171875 66.40625 20.328125 58.90625 
Q 16.5 51.421875 16.5 36.375 
Q 16.5 21.390625 20.328125 13.890625 
Q 24.171875 6.390625 31.78125 6.390625 
Q 39.453125 6.390625 43.28125 13.890625 
Q 47.125 21.390625 47.125 36.375 
Q 47.125 51.421875 43.28125 58.90625 
Q 39.453125 66.40625 31.78125 66.40625 
z
M 31.78125 74.21875 
Q 44.046875 74.21875 50.515625 64.515625 
Q 56.984375 54.828125 56.984375 36.375 
Q 56.984375 17.96875 50.515625 8.265625 
Q 44.046875 -1.421875 31.78125 -1.421875 
Q 19.53125 -1.421875 13.0625 8.265625 
Q 6.59375 17.96875 6.59375 36.375 
Q 6.59375 54.828125 13.0625 64.515625 
Q 19.53125 74.21875 31.78125 74.21875 
z
" id="DejaVuSans-30"/>
      </defs>
      <g transform="translate(69.102215 216.425209)scale(0.1 -0.1)">
       <use xlink:href="#DejaVuSans-30"/>
      </g>
     </g>
    </g>
    <g id="xtick_3">
     <g id="line2d_3">
      <g>
       <use style="stroke:#000000;stroke-width:0.8;" x="116.220472" xlink:href="#md34e1e6df3" y="201.826772"/>
      </g>
     </g>
     <g id="text_3">
      <!-- 1 -->
      <g transform="translate(113.039222 216.425209)scale(0.1 -0.1)">
       <use xlink:href="#DejaVuSans-31"/>
      </g>
     </g>
    </g>
    <g id="xtick_4">
     <g id="line2d_4">
      <g>
       <use style="stroke:#000000;stroke-width:0.8;" x="160.15748" xlink:href="#md34e1e6df3" y="201.826772"/>
      </g>
     </g>
     <g id="text_4">
      <!-- 2 -->
      <defs>
       <path d="M 19.1875 8.296875 
L 53.609375 8.296875 
L 53.609375 0 
L 7.328125 0 
L 7.328125 8.296875 
Q 12.9375 14.109375 22.625 23.890625 
Q 32.328125 33.6875 34.8125 36.53125 
Q 39.546875 41.84375 41.421875 45.53125 
Q 43.3125 49.21875 43.3125 52.78125 
Q 43.3125 58.59375 39.234375 62.25 
Q 35.15625 65.921875 28.609375 65.921875 
Q 23.96875 65.921875 18.8125 64.3125 
Q 13.671875 62.703125 7.8125 59.421875 
L 7.8125 69.390625 
Q 13.765625 71.78125 18.9375 73 
Q 24.125 74.21875 28.421875 74.21875 
Q 39.75 74.21875 46.484375 68.546875 
Q 53.21875 62.890625 53.21875 53.421875 
Q 53.21875 48.921875 51.53125 44.890625 
Q 49.859375 40.875 45.40625 35.40625 
Q 44.1875 33.984375 37.640625 27.21875 
Q 31.109375 20.453125 19.1875 8.296875 
z
" id="DejaVuSans-32"/>
      </defs>
      <g transform="translate(156.97623 216.425209)scale(0.1 -0.1)">
       <use xlink:href="#DejaVuSans-32"/>
      </g>
     </g>
    </g>
    <g id="xtick_5">
     <g id="line2d_5">
      <g>
       <use style="stroke:#000000;stroke-width:0.8;" x="204.094488" xlink:href="#md34e1e6df3" y="201.826772"/>
      </g>
     </g>
     <g id="text_5">
      <!-- 3 -->
      <defs>
       <path d="M 40.578125 39.3125 
Q 47.65625 37.796875 51.625 33 
Q 55.609375 28.21875 55.609375 21.1875 
Q 55.609375 10.40625 48.1875 4.484375 
Q 40.765625 -1.421875 27.09375 -1.421875 
Q 22.515625 -1.421875 17.65625 -0.515625 
Q 12.796875 0.390625 7.625 2.203125 
L 7.625 11.71875 
Q 11.71875 9.328125 16.59375 8.109375 
Q 21.484375 6.890625 26.8125 6.890625 
Q 36.078125 6.890625 40.9375 10.546875 
Q 45.796875 14.203125 45.796875 21.1875 
Q 45.796875 27.640625 41.28125 31.265625 
Q 36.765625 34.90625 28.71875 34.90625 
L 20.21875 34.90625 
L 20.21875 43.015625 
L 29.109375 43.015625 
Q 36.375 43.015625 40.234375 45.921875 
Q 44.09375 48.828125 44.09375 54.296875 
Q 44.09375 59.90625 40.109375 62.90625 
Q 36.140625 65.921875 28.71875 65.921875 
Q 24.65625 65.921875 20.015625 65.03125 
Q 15.375 64.15625 9.8125 62.3125 
L 9.8125 71.09375 
Q 15.4375 72.65625 20.34375 73.4375 
Q 25.25 74.21875 29.59375 74.21875 
Q 40.828125 74.21875 47.359375 69.109375 
Q 53.90625 64.015625 53.90625 55.328125 
Q 53.90625 49.265625 50.4375 45.09375 
Q 46.96875 40.921875 40.578125 39.3125 
z
" id="DejaVuSans-33"/>
      </defs>
      <g transform="translate(200.913238 216.425209)scale(0.1 -0.1)">
       <use xlink:href="#DejaVuSans-33"/>
      </g>
     </g>
    </g>
   </g>
   <g id="matplotlib.axis_2">
    <g id="ytick_1">
     <g id="line2d_6">
      <defs>
       <path d="M 0 0 
L -3.5 0 
" id="mfd2f5c5830" style="stroke:#000000;stroke-width:0.8;"/>
      </defs>
      <g>
       <use style="stroke:#000000;stroke-width:0.8;" x="28.346457" xlink:href="#mfd2f5c5830" y="201.826772"/>
      </g>
     </g>
     <g id="text_6">
      <!-- $\mathdefault{10^{-1}}$ -->
      <g transform="translate(-2.153543 205.62599)scale(0.1 -0.1)">
       <use transform="translate(0 0.684375)" xlink:href="#DejaVuSans-31"/>
       <use transform="translate(63.623047 0.684375)" xlink:href="#DejaVuSans-30"/>
       <use transform="translate(128.203125 38.965625)scale(0.7)" xlink:href="#DejaVuSans-2212"/>
       <use transform="translate(186.855469 38.965625)scale(0.7)" xlink:href="#DejaVuSans-31"/>
      </g>
     </g>
    </g>
    <g id="ytick_2">
     <g id="line2d_7">
      <g>
       <use style="stroke:#000000;stroke-width:0.8;" x="28.346457" xlink:href="#mfd2f5c5830" y="158.173228"/>
      </g>
     </g>
     <g id="text_7">
      <!-- $\mathdefault{10^{0}}$ -->
      <g transform="translate(3.746457 161.972447)scale(0.1 -0.1)">
       <use transform="translate(0 0.765625)" xlink:href="#DejaVuSans-31"/>
       <use transform="translate(63.623047 0.765625)" xlink:href="#DejaVuSans-30"/>
       <use transform="translate(128.203125 39.046875)scale(0.7)" xlink:href="#DejaVuSans-30"/>
      </g>
     </g>
    </g>
    <g id="ytick_3">
     <g id="line2d_8">
      <g>
       <use style="stroke:#000000;stroke-width:0.8;" x="28.346457" xlink:href="#mfd2f5c5830" y="114.519685"/>
      </g>
     </g>
     <g id="text_8">
      <!-- $\mathdefault{10^{1}}$ -->
      <g transform="translate(3.746457 118.318904)scale(0.1 -0.1)">
       <use transform="translate(0 0.684375)" xlink:href="#DejaVuSans-31"/>
       <use transform="translate(63.623047 0.684375)" xlink:href="#DejaVuSans-30"/>
       <use transform="translate(128.203125 38.965625)scale(0.7)" xlink:href="#DejaVuSans-31"/>
      </g>
     </g>
    </g>
    <g id="ytick_4">
     <g id="line2d_9">
      <g>
       <use style="stroke:#000000;stroke-width:0.8;" x="28.346457" xlink:href="#mfd2f5c5830" y="70.866142"/>
      </g>
     </g>
     <g id="text_9">
      <!-- $\mathdefault{10^{2}}$ -->
      <g transform="translate(3.746457 74.66536)scale(0.1 -0.1)">
       <use transform="translate(0 0.765625)" xlink:href="#DejaVuSans-31"/>
       <use transform="translate(63.623047 0.765625)" xlink:href="#DejaVuSans-30"/>
       <use transform="translate(128.203125 39.046875)scale(0.7)" xlink:href="#DejaVuSans-32"/>
      </g>
     </g>
    </g>
    <g id="ytick_5">
     <g id="line2d_10">
      <g>
       <use style="stroke:#000000;stroke-width:0.8;" x="28.346457" xlink:href="#mfd2f5c5830" y="27.212598"/>
      </g>
     </g>
     <g id="text_10">
      <!-- $\mathdefault{10^{3}}$ -->
      <g transform="translate(3.746457 31.011817)scale(0.1 -0.1)">
       <use transform="translate(0 0.765625)" xlink:href="#DejaVuSans-31"/>
       <use transform="translate(63.623047 0.765625)" xlink:href="#DejaVuSans-30"/>
       <use transform="translate(128.203125 39.046875)scale(0.7)" xlink:href="#DejaVuSans-33"/>
      </g>
     </g>
    </g>
    <g id="ytick_6">
     <g id="line2d_11">
      <defs>
       <path d="M 0 0 
L -2 0 
" id="mcc413212f5" style="stroke:#000000;stroke-width:0.6;"/>
      </defs>
      <g>
       <use style="stroke:#000000;stroke-width:0.6;" x="28.346457" xlink:href="#mcc413212f5" y="188.685746"/>
      </g>
     </g>
    </g>
    <g id="ytick_7">
     <g id="line2d_12">
      <g>
       <use style="stroke:#000000;stroke-width:0.6;" x="28.346457" xlink:href="#mcc413212f5" y="180.998738"/>
      </g>
     </g>
    </g>
    <g id="ytick_8">
     <g id="line2d_13">
      <g>
       <use style="stroke:#000000;stroke-width:0.6;" x="28.346457" xlink:href="#mcc413212f5" y="175.54472"/>
      </g>
     </g>
    </g>
    <g id="ytick_9">
     <g id="line2d_14">
      <g>
       <use style="stroke:#000000;stroke-width:0.6;" x="28.346457" xlink:href="#mcc413212f5" y="171.314254"/>
      </g>
     </g>
    </g>
    <g id="ytick_10">
     <g id="line2d_15">
      <g>
       <use style="stroke:#000000;stroke-width:0.6;" x="28.346457" xlink:href="#mcc413212f5" y="167.857712"/>
      </g>
     </g>
    </g>
    <g id="ytick_11">
     <g id="line2d_16">
      <g>
       <use style="stroke:#000000;stroke-width:0.6;" x="28.346457" xlink:href="#mcc413212f5" y="164.935248"/>
      </g>
     </g>
    </g>
    <g id="ytick_12">
     <g id="line2d_17">
      <g>
       <use style="stroke:#000000;stroke-width:0.6;" x="28.346457" xlink:href="#mcc413212f5" y="162.403694"/>
      </g>
     </g>
    </g>
    <g id="ytick_13">
     <g id="line2d_18">
      <g>
       <use style="stroke:#000000;stroke-width:0.6;" x="28.346457" xlink:href="#mcc413212f5" y="160.170705"/>
      </g>
     </g>
    </g>
    <g id="ytick_14">
     <g id="line2d_19">
      <g>
       <use style="stroke:#000000;stroke-width:0.6;" x="28.346457" xlink:href="#mcc413212f5" y="145.032202"/>
      </g>
     </g>
    </g>
    <g id="ytick_15">
     <g id="line2d_20">
      <g>
       <use style="stroke:#000000;stroke-width:0.6;" x="28.346457" xlink:href="#mcc413212f5" y="137.345195"/>
      </g>
     </g>
    </g>
    <g id="ytick_16">
     <g id="line2d_21">
      <g>
       <use style="stroke:#000000;stroke-width:0.6;" x="28.346457" xlink:href="#mcc413212f5" y="131.891176"/>
      </g>
     </g>
    </g>
    <g id="ytick_17">
     <g id="line2d_22">
      <g>
       <use style="stroke:#000000;stroke-width:0.6;" x="28.346457" xlink:href="#mcc413212f5" y="127.660711"/>
      </g>
     </g>
    </g>
    <g id="ytick_18">
     <g id="line2d_23">
      <g>
       <use style="stroke:#000000;stroke-width:0.6;" x="28.346457" xlink:href="#mcc413212f5" y="124.204169"/>
      </g>
     </g>
    </g>
    <g id="ytick_19">
     <g id="line2d_24">
      <g>
       <use style="stroke:#000000;stroke-width:0.6;" x="28.346457" xlink:href="#mcc413212f5" y="121.281704"/>
      </g>
     </g>
    </g>
    <g id="ytick_20">
     <g id="line2d_25">
      <g>
       <use style="stroke:#000000;stroke-width:0.6;" x="28.346457" xlink:href="#mcc413212f5" y="118.75015"/>
      </g>
     </g>
    </g>
    <g id="ytick_21">
     <g id="line2d_26">
      <g>
       <use style="stroke:#000000;stroke-width:0.6;" x="28.346457" xlink:href="#mcc413212f5" y="116.517162"/>
      </g>
     </g>
    </g>
    <g id="ytick_22">
     <g id="line2d_27">
      <g>
       <use style="stroke:#000000;stroke-width:0.6;" x="28.346457" xlink:href="#mcc413212f5" y="101.378659"/>
      </g>
     </g>
    </g>
    <g id="ytick_23">
     <g id="line2d_28">
      <g>
       <use style="stroke:#000000;stroke-width:0.6;" x="28.346457" xlink:href="#mcc413212f5" y="93.691652"/>
      </g>
     </g>
    </g>
    <g id="ytick_24">
     <g id="line2d_29">
      <g>
       <use style="stroke:#000000;stroke-width:0.6;" x="28.346457" xlink:href="#mcc413212f5" y="88.237633"/>
      </g>
     </g>
    </g>
    <g id="ytick_25">
     <g id="line2d_30">
      <g>
       <use style="stroke:#000000;stroke-width:0.6;" x="28.346457" xlink:href="#mcc413212f5" y="84.007168"/>
      </g>
     </g>
    </g>
    <g id="ytick_26">
     <g id="line2d_31">
      <g>
       <use style="stroke:#000000;stroke-width:0.6;" x="28.346457" xlink:href="#mcc413212f5" y="80.550626"/>
      </g>
     </g>
    </g>
    <g id="ytick_27">
     <g id="line2d_32">
      <g>
       <use style="stroke:#000000;stroke-width:0.6;" x="28.346457" xlink:href="#mcc413212f5" y="77.628161"/>
      </g>
     </g>
    </g>
    <g id="ytick_28">
     <g id="line2d_33">
      <g>
       <use style="stroke:#000000;stroke-width:0.6;" x="28.346457" xlink:href="#mcc413212f5" y="75.096607"/>
      </g>
     </g>
    </g>
    <g id="ytick_29">
     <g id="line2d_34">
      <g>
       <use style="stroke:#000000;stroke-width:0.6;" x="28.346457" xlink:href="#mcc413212f5" y="72.863618"/>
      </g>
     </g>
    </g>
    <g id="ytick_30">
     <g id="line2d_35">
      <g>
       <use style="stroke:#000000;stroke-width:0.6;" x="28.346457" xlink:href="#mcc413212f5" y="57.725116"/>
      </g>
     </g>
    </g>
    <g id="ytick_31">
     <g id="line2d_36">
      <g>
       <use style="stroke:#000000;stroke-width:0.6;" x="28.346457" xlink:href="#mcc413212f5" y="50.038108"/>
      </g>
     </g>
    </g>
    <g id="ytick_32">
     <g id="line2d_37">
      <g>
       <use style="stroke:#000000;stroke-width:0.6;" x="28.346457" xlink:href="#mcc413212f5" y="44.58409"/>
      </g>
     </g>
    </g>
    <g id="ytick_33">
     <g id="line2d_38">
      <g>
       <use style="stroke:#000000;stroke-width:0.6;" x="28.346457" xlink:href="#mcc413212f5" y="40.353624"/>
      </g>
     </g>
    </g>
    <g id="ytick_34">
     <g id="line2d_39">
      <g>
       <use style="stroke:#000000;stroke-width:0.6;" x="28.346457" xlink:href="#mcc413212f5" y="36.897082"/>
      </g>
     </g>
    </g>
    <g id="ytick_35">
     <g id="line2d_40">
      <g>
       <use style="stroke:#000000;stroke-width:0.6;" x="28.346457" xlink:href="#mcc413212f5" y="33.974618"/>
      </g>
     </g>
    </g>
    <g id="ytick_36">
     <g id="line2d_41">
      <g>
       <use style="stroke:#000000;stroke-width:0.6;" x="28.346457" xlink:href="#mcc413212f5" y="31.443064"/>
      </g>
     </g>
    </g>
    <g id="ytick_37">
     <g id="line2d_42">
      <g>
       <use style="stroke:#000000;stroke-width:0.6;" x="28.346457" xlink:href="#mcc413212f5" y="29.210075"/>
      </g>
     </g>
    </g>
   </g>
   <g id="line2d_43">
    <path clip-path="url(#pc01478e3ce)" d="M 27.907087 171.445665 
L 204.533858 118.61874 
L 204.533858 118.61874 
" style="fill:none;stroke:#1f77b4;stroke-linecap:square;stroke-width:1.5;"/>
   </g>
   <g id="line2d_44">
    <path clip-path="url(#pc01478e3ce)" d="M 27.907087 177.321306 
L 204.533858 101.108164 
L 204.533858 101.108164 
" style="fill:none;stroke:#ff7f0e;stroke-linecap:square;stroke-width:1.5;"/>
   </g>
   <g id="line2d_45">
    <path clip-path="url(#pc01478e3ce)" d="M 27.907087 202.263307 
L 204.533858 26.776063 
L 204.533858 26.776063 
" style="fill:none;stroke:#2ca02c;stroke-linecap:square;stroke-width:1.5;"/>
   </g>
   <g id="patch_3">
    <path d="M 28.346457 201.826772 
L 28.346457 27.212598 
" style="fill:none;stroke:#000000;stroke-linecap:square;stroke-linejoin:miter;stroke-width:0.8;"/>
   </g>
   <g id="patch_4">
    <path d="M 204.094488 201.826772 
L 204.094488 27.212598 
" style="fill:none;stroke:#000000;stroke-linecap:square;stroke-linejoin:miter;stroke-width:0.8;"/>
   </g>
   <g id="patch_5">
    <path d="M 28.346457 201.826772 
L 204.094488 201.826772 
" style="fill:none;stroke:#000000;stroke-linecap:square;stroke-linejoin:miter;stroke-width:0.8;"/>
   </g>
   <g id="patch_6">
    <path d="M 28.346457 27.212598 
L 204.094488 27.212598 
" style="fill:none;stroke:#000000;stroke-linecap:square;stroke-linejoin:miter;stroke-width:0.8;"/>
   </g>
   <g id="legend_1">
    <g id="patch_7">
     <path d="M 35.346457 79.246973 
L 98.490207 79.246973 
Q 100.490207 79.246973 100.490207 77.246973 
L 100.490207 34.212598 
Q 100.490207 32.212598 98.490207 32.212598 
L 35.346457 32.212598 
Q 33.346457 32.212598 33.346457 34.212598 
L 33.346457 77.246973 
Q 33.346457 79.246973 35.346457 79.246973 
z
" style="fill:#ffffff;opacity:0.8;stroke:#cccccc;stroke-linejoin:miter;"/>
    </g>
    <g id="line2d_46">
     <path d="M 37.346457 40.311036 
L 57.346457 40.311036 
" style="fill:none;stroke:#1f77b4;stroke-linecap:square;stroke-width:1.5;"/>
    </g>
    <g id="line2d_47"/>
    <g id="text_11">
     <!-- exp2 -->
     <defs>
      <path d="M 56.203125 29.59375 
L 56.203125 25.203125 
L 14.890625 25.203125 
Q 15.484375 15.921875 20.484375 11.0625 
Q 25.484375 6.203125 34.421875 6.203125 
Q 39.59375 6.203125 44.453125 7.46875 
Q 49.3125 8.734375 54.109375 11.28125 
L 54.109375 2.78125 
Q 49.265625 0.734375 44.1875 -0.34375 
Q 39.109375 -1.421875 33.890625 -1.421875 
Q 20.796875 -1.421875 13.15625 6.1875 
Q 5.515625 13.8125 5.515625 26.8125 
Q 5.515625 40.234375 12.765625 48.109375 
Q 20.015625 56 32.328125 56 
Q 43.359375 56 49.78125 48.890625 
Q 56.203125 41.796875 56.203125 29.59375 
z
M 47.21875 32.234375 
Q 47.125 39.59375 43.09375 43.984375 
Q 39.0625 48.390625 32.421875 48.390625 
Q 24.90625 48.390625 20.390625 44.140625 
Q 15.875 39.890625 15.1875 32.171875 
z
" id="DejaVuSans-65"/>
      <path d="M 54.890625 54.6875 
L 35.109375 28.078125 
L 55.90625 0 
L 45.3125 0 
L 29.390625 21.484375 
L 13.484375 0 
L 2.875 0 
L 24.125 28.609375 
L 4.6875 54.6875 
L 15.28125 54.6875 
L 29.78125 35.203125 
L 44.28125 54.6875 
z
" id="DejaVuSans-78"/>
      <path d="M 18.109375 8.203125 
L 18.109375 -20.796875 
L 9.078125 -20.796875 
L 9.078125 54.6875 
L 18.109375 54.6875 
L 18.109375 46.390625 
Q 20.953125 51.265625 25.265625 53.625 
Q 29.59375 56 35.59375 56 
Q 45.5625 56 51.78125 48.09375 
Q 58.015625 40.1875 58.015625 27.296875 
Q 58.015625 14.40625 51.78125 6.484375 
Q 45.5625 -1.421875 35.59375 -1.421875 
Q 29.59375 -1.421875 25.265625 0.953125 
Q 20.953125 3.328125 18.109375 8.203125 
z
M 48.6875 27.296875 
Q 48.6875 37.203125 44.609375 42.84375 
Q 40.53125 48.484375 33.40625 48.484375 
Q 26.265625 48.484375 22.1875 42.84375 
Q 18.109375 37.203125 18.109375 27.296875 
Q 18.109375 17.390625 22.1875 11.75 
Q 26.265625 6.109375 33.40625 6.109375 
Q 40.53125 6.109375 44.609375 11.75 
Q 48.6875 17.390625 48.6875 27.296875 
z
" id="DejaVuSans-70"/>
     </defs>
     <g transform="translate(65.346457 43.811036)scale(0.1 -0.1)">
      <use xlink:href="#DejaVuSans-65"/>
      <use x="61.507812" xlink:href="#DejaVuSans-78"/>
      <use x="120.6875" xlink:href="#DejaVuSans-70"/>
      <use x="184.164062" xlink:href="#DejaVuSans-32"/>
     </g>
    </g>
    <g id="line2d_48">
     <path d="M 37.346457 54.989161 
L 57.346457 54.989161 
" style="fill:none;stroke:#ff7f0e;stroke-linecap:square;stroke-width:1.5;"/>
    </g>
    <g id="line2d_49"/>
    <g id="text_12">
     <!-- exp -->
     <g transform="translate(65.346457 58.489161)scale(0.1 -0.1)">
      <use xlink:href="#DejaVuSans-65"/>
      <use x="61.507812" xlink:href="#DejaVuSans-78"/>
      <use x="120.6875" xlink:href="#DejaVuSans-70"/>
     </g>
    </g>
    <g id="line2d_50">
     <path d="M 37.346457 69.667286 
L 57.346457 69.667286 
" style="fill:none;stroke:#2ca02c;stroke-linecap:square;stroke-width:1.5;"/>
    </g>
    <g id="line2d_51"/>
    <g id="text_13">
     <!-- exp10 -->
     <g transform="translate(65.346457 73.167286)scale(0.1 -0.1)">
      <use xlink:href="#DejaVuSans-65"/>
      <use x="61.507812" xlink:href="#DejaVuSans-78"/>
      <use x="120.6875" xlink:href="#DejaVuSans-70"/>
      <use x="184.164062" xlink:href="#DejaVuSans-31"/>
      <use x="247.787109" xlink:href="#DejaVuSans-30"/>
     </g>
    </g>
   </g>
  </g>
 </g>
 <defs>
  <clipPath id="pc01478e3ce">
   <rect height="174.614173" width="175.748031" x="28.346457" y="27.212598"/>
  </clipPath>
 </defs>
</svg>
