<?xml version="1.0" encoding="utf-8" standalone="no"?>
<!DOCTYPE svg PUBLIC "-//W3C//DTD SVG 1.1//EN"
  "http://www.w3.org/Graphics/SVG/1.1/DTD/svg11.dtd">
<!-- Created with matplotlib (http://matplotlib.org/) -->
<svg height="226.771654pt" version="1.1" viewBox="0 0 226.771654 226.771654" width="226.771654pt" xmlns="http://www.w3.org/2000/svg" xmlns:xlink="http://www.w3.org/1999/xlink">
 <defs>
  <style type="text/css">
*{stroke-linecap:butt;stroke-linejoin:round;}
  </style>
 </defs>
 <g id="figure_1">
  <g id="patch_1">
   <path d="M 0 226.771654 
L 226.771654 226.771654 
L 226.771654 0 
L 0 0 
z
" style="fill:#ffffff;"/>
  </g>
  <g id="axes_1">
   <g id="patch_2">
    <path d="M 38.718296 201.826772 
L 193.722649 201.826772 
L 193.722649 27.212598 
L 38.718296 27.212598 
z
" style="fill:#ffffff;"/>
   </g>
   <g id="matplotlib.axis_1">
    <g id="xtick_1">
     <g id="line2d_1">
      <defs>
       <path d="M 0 0 
L 0 3.5 
" id="mbf89dd8bb7" style="stroke:#000000;stroke-width:0.8;"/>
      </defs>
      <g>
       <use style="stroke:#000000;stroke-width:0.8;" x="51.400322" xlink:href="#mbf89dd8bb7" y="201.826772"/>
      </g>
     </g>
     <g id="text_1">
      <!-- −0.5 -->
      <defs>
       <path d="M 10.59375 35.5 
L 73.1875 35.5 
L 73.1875 27.203125 
L 10.59375 27.203125 
z
" id="DejaVuSans-2212"/>
       <path d="M 31.78125 66.40625 
Q 24.171875 66.40625 20.328125 58.90625 
Q 16.5 51.421875 16.5 36.375 
Q 16.5 21.390625 20.328125 13.890625 
Q 24.171875 6.390625 31.78125 6.390625 
Q 39.453125 6.390625 43.28125 13.890625 
Q 47.125 21.390625 47.125 36.375 
Q 47.125 51.421875 43.28125 58.90625 
Q 39.453125 66.40625 31.78125 66.40625 
z
M 31.78125 74.21875 
Q 44.046875 74.21875 50.515625 64.515625 
Q 56.984375 54.828125 56.984375 36.375 
Q 56.984375 17.96875 50.515625 8.265625 
Q 44.046875 -1.421875 31.78125 -1.421875 
Q 19.53125 -1.421875 13.0625 8.265625 
Q 6.59375 17.96875 6.59375 36.375 
Q 6.59375 54.828125 13.0625 64.515625 
Q 19.53125 74.21875 31.78125 74.21875 
z
" id="DejaVuSans-30"/>
       <path d="M 10.6875 12.40625 
L 21 12.40625 
L 21 0 
L 10.6875 0 
z
" id="DejaVuSans-2e"/>
       <path d="M 10.796875 72.90625 
L 49.515625 72.90625 
L 49.515625 64.59375 
L 19.828125 64.59375 
L 19.828125 46.734375 
Q 21.96875 47.46875 24.109375 47.828125 
Q 26.265625 48.1875 28.421875 48.1875 
Q 40.625 48.1875 47.75 41.5 
Q 54.890625 34.8125 54.890625 23.390625 
Q 54.890625 11.625 47.5625 5.09375 
Q 40.234375 -1.421875 26.90625 -1.421875 
Q 22.3125 -1.421875 17.546875 -0.640625 
Q 12.796875 0.140625 7.71875 1.703125 
L 7.71875 11.625 
Q 12.109375 9.234375 16.796875 8.0625 
Q 21.484375 6.890625 26.703125 6.890625 
Q 35.15625 6.890625 40.078125 11.328125 
Q 45.015625 15.765625 45.015625 23.390625 
Q 45.015625 31 40.078125 35.4375 
Q 35.15625 39.890625 26.703125 39.890625 
Q 22.75 39.890625 18.8125 39.015625 
Q 14.890625 38.140625 10.796875 36.28125 
z
" id="DejaVuSans-35"/>
      </defs>
      <g transform="translate(39.258916 216.425209)scale(0.1 -0.1)">
       <use xlink:href="#DejaVuSans-2212"/>
       <use x="83.789062" xlink:href="#DejaVuSans-30"/>
       <use x="147.412109" xlink:href="#DejaVuSans-2e"/>
       <use x="179.199219" xlink:href="#DejaVuSans-35"/>
      </g>
     </g>
    </g>
    <g id="xtick_2">
     <g id="line2d_2">
      <g>
       <use style="stroke:#000000;stroke-width:0.8;" x="96.492547" xlink:href="#mbf89dd8bb7" y="201.826772"/>
      </g>
     </g>
     <g id="text_2">
      <!-- 0.0 -->
      <g transform="translate(88.540984 216.425209)scale(0.1 -0.1)">
       <use xlink:href="#DejaVuSans-30"/>
       <use x="63.623047" xlink:href="#DejaVuSans-2e"/>
       <use x="95.410156" xlink:href="#DejaVuSans-30"/>
      </g>
     </g>
    </g>
    <g id="xtick_3">
     <g id="line2d_3">
      <g>
       <use style="stroke:#000000;stroke-width:0.8;" x="141.584772" xlink:href="#mbf89dd8bb7" y="201.826772"/>
      </g>
     </g>
     <g id="text_3">
      <!-- 0.5 -->
      <g transform="translate(133.633209 216.425209)scale(0.1 -0.1)">
       <use xlink:href="#DejaVuSans-30"/>
       <use x="63.623047" xlink:href="#DejaVuSans-2e"/>
       <use x="95.410156" xlink:href="#DejaVuSans-35"/>
      </g>
     </g>
    </g>
    <g id="xtick_4">
     <g id="line2d_4">
      <g>
       <use style="stroke:#000000;stroke-width:0.8;" x="186.676996" xlink:href="#mbf89dd8bb7" y="201.826772"/>
      </g>
     </g>
     <g id="text_4">
      <!-- 1.0 -->
      <defs>
       <path d="M 12.40625 8.296875 
L 28.515625 8.296875 
L 28.515625 63.921875 
L 10.984375 60.40625 
L 10.984375 69.390625 
L 28.421875 72.90625 
L 38.28125 72.90625 
L 38.28125 8.296875 
L 54.390625 8.296875 
L 54.390625 0 
L 12.40625 0 
z
" id="DejaVuSans-31"/>
      </defs>
      <g transform="translate(178.725434 216.425209)scale(0.1 -0.1)">
       <use xlink:href="#DejaVuSans-31"/>
       <use x="63.623047" xlink:href="#DejaVuSans-2e"/>
       <use x="95.410156" xlink:href="#DejaVuSans-30"/>
      </g>
     </g>
    </g>
   </g>
   <g id="matplotlib.axis_2">
    <g id="ytick_1">
     <g id="line2d_5">
      <defs>
       <path d="M 0 0 
L -3.5 0 
" id="mb1c52a570b" style="stroke:#000000;stroke-width:0.8;"/>
      </defs>
      <g>
       <use style="stroke:#000000;stroke-width:0.8;" x="38.718296" xlink:href="#mb1c52a570b" y="182.158022"/>
      </g>
     </g>
     <g id="text_5">
      <!-- −0.75 -->
      <defs>
       <path d="M 8.203125 72.90625 
L 55.078125 72.90625 
L 55.078125 68.703125 
L 28.609375 0 
L 18.3125 0 
L 43.21875 64.59375 
L 8.203125 64.59375 
z
" id="DejaVuSans-37"/>
      </defs>
      <g transform="translate(1.072984 185.957241)scale(0.1 -0.1)">
       <use xlink:href="#DejaVuSans-2212"/>
       <use x="83.789062" xlink:href="#DejaVuSans-30"/>
       <use x="147.412109" xlink:href="#DejaVuSans-2e"/>
       <use x="179.199219" xlink:href="#DejaVuSans-37"/>
       <use x="242.822266" xlink:href="#DejaVuSans-35"/>
      </g>
     </g>
    </g>
    <g id="ytick_2">
     <g id="line2d_6">
      <g>
       <use style="stroke:#000000;stroke-width:0.8;" x="38.718296" xlink:href="#mb1c52a570b" y="159.61191"/>
      </g>
     </g>
     <g id="text_6">
      <!-- −0.50 -->
      <g transform="translate(1.072984 163.411129)scale(0.1 -0.1)">
       <use xlink:href="#DejaVuSans-2212"/>
       <use x="83.789062" xlink:href="#DejaVuSans-30"/>
       <use x="147.412109" xlink:href="#DejaVuSans-2e"/>
       <use x="179.199219" xlink:href="#DejaVuSans-35"/>
       <use x="242.822266" xlink:href="#DejaVuSans-30"/>
      </g>
     </g>
    </g>
    <g id="ytick_3">
     <g id="line2d_7">
      <g>
       <use style="stroke:#000000;stroke-width:0.8;" x="38.718296" xlink:href="#mb1c52a570b" y="137.065797"/>
      </g>
     </g>
     <g id="text_7">
      <!-- −0.25 -->
      <defs>
       <path d="M 19.1875 8.296875 
L 53.609375 8.296875 
L 53.609375 0 
L 7.328125 0 
L 7.328125 8.296875 
Q 12.9375 14.109375 22.625 23.890625 
Q 32.328125 33.6875 34.8125 36.53125 
Q 39.546875 41.84375 41.421875 45.53125 
Q 43.3125 49.21875 43.3125 52.78125 
Q 43.3125 58.59375 39.234375 62.25 
Q 35.15625 65.921875 28.609375 65.921875 
Q 23.96875 65.921875 18.8125 64.3125 
Q 13.671875 62.703125 7.8125 59.421875 
L 7.8125 69.390625 
Q 13.765625 71.78125 18.9375 73 
Q 24.125 74.21875 28.421875 74.21875 
Q 39.75 74.21875 46.484375 68.546875 
Q 53.21875 62.890625 53.21875 53.421875 
Q 53.21875 48.921875 51.53125 44.890625 
Q 49.859375 40.875 45.40625 35.40625 
Q 44.1875 33.984375 37.640625 27.21875 
Q 31.109375 20.453125 19.1875 8.296875 
z
" id="DejaVuSans-32"/>
      </defs>
      <g transform="translate(1.072984 140.865016)scale(0.1 -0.1)">
       <use xlink:href="#DejaVuSans-2212"/>
       <use x="83.789062" xlink:href="#DejaVuSans-30"/>
       <use x="147.412109" xlink:href="#DejaVuSans-2e"/>
       <use x="179.199219" xlink:href="#DejaVuSans-32"/>
       <use x="242.822266" xlink:href="#DejaVuSans-35"/>
      </g>
     </g>
    </g>
    <g id="ytick_4">
     <g id="line2d_8">
      <g>
       <use style="stroke:#000000;stroke-width:0.8;" x="38.718296" xlink:href="#mb1c52a570b" y="114.519685"/>
      </g>
     </g>
     <g id="text_8">
      <!-- 0.00 -->
      <g transform="translate(9.452671 118.318904)scale(0.1 -0.1)">
       <use xlink:href="#DejaVuSans-30"/>
       <use x="63.623047" xlink:href="#DejaVuSans-2e"/>
       <use x="95.410156" xlink:href="#DejaVuSans-30"/>
       <use x="159.033203" xlink:href="#DejaVuSans-30"/>
      </g>
     </g>
    </g>
    <g id="ytick_5">
     <g id="line2d_9">
      <g>
       <use style="stroke:#000000;stroke-width:0.8;" x="38.718296" xlink:href="#mb1c52a570b" y="91.973573"/>
      </g>
     </g>
     <g id="text_9">
      <!-- 0.25 -->
      <g transform="translate(9.452671 95.772791)scale(0.1 -0.1)">
       <use xlink:href="#DejaVuSans-30"/>
       <use x="63.623047" xlink:href="#DejaVuSans-2e"/>
       <use x="95.410156" xlink:href="#DejaVuSans-32"/>
       <use x="159.033203" xlink:href="#DejaVuSans-35"/>
      </g>
     </g>
    </g>
    <g id="ytick_6">
     <g id="line2d_10">
      <g>
       <use style="stroke:#000000;stroke-width:0.8;" x="38.718296" xlink:href="#mb1c52a570b" y="69.42746"/>
      </g>
     </g>
     <g id="text_10">
      <!-- 0.50 -->
      <g transform="translate(9.452671 73.226679)scale(0.1 -0.1)">
       <use xlink:href="#DejaVuSans-30"/>
       <use x="63.623047" xlink:href="#DejaVuSans-2e"/>
       <use x="95.410156" xlink:href="#DejaVuSans-35"/>
       <use x="159.033203" xlink:href="#DejaVuSans-30"/>
      </g>
     </g>
    </g>
    <g id="ytick_7">
     <g id="line2d_11">
      <g>
       <use style="stroke:#000000;stroke-width:0.8;" x="38.718296" xlink:href="#mb1c52a570b" y="46.881348"/>
      </g>
     </g>
     <g id="text_11">
      <!-- 0.75 -->
      <g transform="translate(9.452671 50.680567)scale(0.1 -0.1)">
       <use xlink:href="#DejaVuSans-30"/>
       <use x="63.623047" xlink:href="#DejaVuSans-2e"/>
       <use x="95.410156" xlink:href="#DejaVuSans-37"/>
       <use x="159.033203" xlink:href="#DejaVuSans-35"/>
      </g>
     </g>
    </g>
   </g>
   <g id="line2d_12">
    <path clip-path="url(#p7229e2ed6c)" d="M 186.676996 114.519685 
L 186.565767 113.104702 
L 186.232451 111.699495 
L 185.678168 110.313798 
L 184.904776 108.957259 
L 183.914866 107.639399 
L 182.565083 106.231842 
L 180.957684 104.896098 
L 179.099303 103.644299 
L 176.997604 102.488124 
L 174.41506 101.340078 
L 171.561437 100.335271 
L 168.450901 99.486802 
L 165.098858 98.806742 
L 161.52187 98.306054 
L 157.737558 97.994513 
L 153.764507 97.880642 
L 149.62216 97.971653 
L 145.33071 98.27339 
L 140.910988 98.79029 
L 135.968278 99.603049 
L 130.926588 100.677289 
L 125.814556 102.012788 
L 120.661016 103.607203 
L 115.494803 105.456074 
L 110.344566 107.552845 
L 105.238582 109.888898 
L 100.204566 112.453601 
L 95.269499 115.234377 
L 90.459444 118.216775 
L 85.799385 121.384573 
L 81.313066 124.719873 
L 77.022837 128.203226 
L 72.949517 131.81376 
L 69.112261 135.529317 
L 65.528446 139.326608 
L 62.213561 143.181366 
L 59.181121 147.068516 
L 56.442582 150.962349 
L 54.007286 154.836692 
L 51.882407 158.665097 
L 50.211582 162.111445 
L 48.807995 165.476508 
L 47.672274 168.740091 
L 46.803489 171.882302 
L 46.199167 174.883674 
L 45.855318 177.725279 
L 45.766468 180.38884 
L 45.901188 182.641007 
L 46.234767 184.719009 
L 46.760104 186.610965 
L 47.46923 188.305708 
L 48.257331 189.653755 
L 49.180238 190.826627 
L 50.230525 191.81789 
L 51.400322 192.621709 
L 52.681348 193.232873 
L 54.064951 193.646817 
L 55.542141 193.859642 
L 57.103634 193.868134 
L 58.739889 193.669777 
L 60.633761 193.204609 
L 62.594249 192.480433 
L 64.607529 191.496928 
L 66.659656 190.254891 
L 68.945164 188.592364 
L 71.242165 186.623458 
L 73.532228 184.35389 
L 75.797199 181.790965 
L 78.019302 178.943547 
L 80.18126 175.822007 
L 82.2664 172.438179 
L 84.258756 168.805296 
L 86.143169 164.937923 
L 87.905382 160.851881 
L 89.672867 156.164989 
L 91.263393 151.261637 
L 92.662832 146.166738 
L 93.858799 140.906434 
L 94.840736 135.507927 
L 95.599997 129.999306 
L 96.129909 124.409367 
L 96.425818 118.76743 
L 96.48513 113.103149 
L 96.307324 107.446319 
L 95.89396 101.826691 
L 95.248665 96.273775 
L 94.377107 90.816651 
L 93.286954 85.483785 
L 91.987814 80.302846 
L 90.491172 75.300526 
L 88.810296 70.502373 
L 86.960145 65.932627 
L 84.957256 61.614067 
L 82.819625 57.567867 
L 80.566568 53.813465 
L 78.417356 50.643314 
L 76.204919 47.74524 
L 73.946434 45.129886 
L 71.659592 42.806391 
L 69.362489 40.782346 
L 67.073511 39.063762 
L 64.811224 37.655035 
L 62.79343 36.645622 
L 60.827039 35.895509 
L 58.925888 35.404487 
L 57.103634 35.171236 
L 55.542141 35.179728 
L 54.064951 35.392553 
L 52.681348 35.806497 
L 51.400322 36.417661 
L 50.230525 37.22148 
L 49.180238 38.212743 
L 48.257331 39.385615 
L 47.46923 40.733662 
L 46.822885 42.249879 
L 46.278796 44.122603 
L 45.925707 46.182524 
L 45.770808 48.417828 
L 45.82038 50.816041 
L 46.117416 53.626612 
L 46.674039 56.600326 
L 47.494511 59.718364 
L 48.581583 62.961348 
L 49.936468 66.309455 
L 51.558822 69.742535 
L 53.446733 73.240234 
L 55.596724 76.782106 
L 58.003761 80.347742 
L 60.661271 83.916884 
L 63.836495 87.791017 
L 67.28766 91.620129 
L 71.000252 95.379529 
L 74.957825 99.045418 
L 79.142101 102.595054 
L 83.533077 106.006904 
L 88.10915 109.26079 
L 92.847256 112.338023 
L 97.723012 115.22153 
L 102.710872 117.89596 
L 107.784295 120.347791 
L 112.915909 122.565407 
L 118.077696 124.539178 
L 123.24117 126.26151 
L 128.377565 127.726892 
L 133.458022 128.931922 
L 138.453783 129.875317 
L 143.336374 130.557912 
L 148.077801 130.98264 
L 152.650729 131.154496 
L 157.028665 131.080493 
L 160.848702 130.804296 
L 164.464726 130.337307 
L 167.858932 129.689078 
L 171.014559 128.870363 
L 173.915984 127.893035 
L 176.548811 126.770015 
L 178.899948 125.51518 
L 180.783022 124.272426 
L 182.415835 122.944537 
L 183.791648 121.543604 
L 184.904776 120.082111 
L 185.678168 118.725572 
L 186.232451 117.339875 
L 186.565767 115.934668 
L 186.676996 114.519685 
L 186.565767 113.104702 
L 186.232451 111.699495 
L 185.678168 110.313798 
L 184.904776 108.957259 
L 183.914866 107.639399 
L 182.565083 106.231842 
L 180.957684 104.896098 
L 179.099303 103.644299 
L 176.997604 102.488124 
L 174.41506 101.340078 
L 171.561437 100.335271 
L 168.450901 99.486802 
L 165.098858 98.806742 
L 161.52187 98.306054 
L 157.737558 97.994513 
L 153.764507 97.880642 
L 149.62216 97.971653 
L 145.33071 98.27339 
L 140.910988 98.79029 
L 135.968278 99.603049 
L 130.926588 100.677289 
L 125.814556 102.012788 
L 120.661016 103.607203 
L 115.494803 105.456074 
L 110.344566 107.552845 
L 105.238582 109.888898 
L 100.204566 112.453601 
L 95.269499 115.234377 
L 90.459444 118.216775 
L 85.799385 121.384573 
L 81.313066 124.719873 
L 77.022837 128.203226 
L 72.949517 131.81376 
L 69.112261 135.529317 
L 65.528446 139.326608 
L 62.213561 143.181366 
L 59.181121 147.068516 
L 56.442582 150.962349 
L 54.007286 154.836692 
L 51.882407 158.665097 
L 50.211582 162.111445 
L 48.807995 165.476508 
L 47.672274 168.740091 
L 46.803489 171.882302 
L 46.199167 174.883674 
L 45.855318 177.725279 
L 45.766468 180.38884 
L 45.901188 182.641007 
L 46.234767 184.719009 
L 46.760104 186.610965 
L 47.46923 188.305708 
L 48.257331 189.653755 
L 49.180238 190.826627 
L 50.230525 191.81789 
L 51.400322 192.621709 
L 52.681348 193.232873 
L 54.064951 193.646817 
L 55.542141 193.859642 
L 57.103634 193.868134 
L 58.739889 193.669777 
L 60.633761 193.204609 
L 62.594249 192.480433 
L 64.607529 191.496928 
L 66.659656 190.254891 
L 68.945164 188.592364 
L 71.242165 186.623458 
L 73.532228 184.35389 
L 75.797199 181.790965 
L 78.019302 178.943547 
L 80.18126 175.822007 
L 82.2664 172.438179 
L 84.258756 168.805296 
L 86.143169 164.937923 
L 87.905382 160.851881 
L 89.672867 156.164989 
L 91.263393 151.261637 
L 92.662832 146.166738 
L 93.858799 140.906434 
L 94.840736 135.507927 
L 95.599997 129.999306 
L 96.129909 124.409367 
L 96.425818 118.76743 
L 96.48513 113.103149 
L 96.307324 107.446319 
L 95.89396 101.826691 
L 95.248665 96.273775 
L 94.377107 90.816651 
L 93.286954 85.483785 
L 91.987814 80.302846 
L 90.491172 75.300526 
L 88.810296 70.502373 
L 86.960145 65.932627 
L 84.957256 61.614067 
L 82.819625 57.567867 
L 80.566568 53.813465 
L 78.417356 50.643314 
L 76.204919 47.74524 
L 73.946434 45.129886 
L 71.659592 42.806391 
L 69.362489 40.782346 
L 67.073511 39.063762 
L 64.811224 37.655035 
L 62.79343 36.645622 
L 60.827039 35.895509 
L 58.925888 35.404487 
L 57.103634 35.171236 
L 55.542141 35.179728 
L 54.064951 35.392553 
L 52.681348 35.806497 
L 51.400322 36.417661 
L 50.230525 37.22148 
L 49.180238 38.212743 
L 48.257331 39.385615 
L 47.46923 40.733662 
L 46.822885 42.249879 
L 46.278796 44.122603 
L 45.925707 46.182524 
L 45.770808 48.417828 
L 45.82038 50.816041 
L 46.117416 53.626612 
L 46.674039 56.600326 
L 47.494511 59.718364 
L 48.581583 62.961348 
L 49.936468 66.309455 
L 51.558822 69.742535 
L 53.446733 73.240234 
L 55.596724 76.782106 
L 58.003761 80.347742 
L 60.661271 83.916884 
L 63.836495 87.791017 
L 67.28766 91.620129 
L 71.000252 95.379529 
L 74.957825 99.045418 
L 79.142101 102.595054 
L 83.533077 106.006904 
L 88.10915 109.26079 
L 92.847256 112.338023 
L 97.723012 115.22153 
L 102.710872 117.89596 
L 107.784295 120.347791 
L 112.915909 122.565407 
L 118.077696 124.539178 
L 123.24117 126.26151 
L 128.377565 127.726892 
L 133.458022 128.931922 
L 138.453783 129.875317 
L 143.336374 130.557912 
L 148.077801 130.98264 
L 152.650729 131.154496 
L 157.028665 131.080493 
L 160.848702 130.804296 
L 164.464726 130.337307 
L 167.858932 129.689078 
L 171.014559 128.870363 
L 173.915984 127.893035 
L 176.548811 126.770015 
L 178.899948 125.51518 
L 180.783022 124.272426 
L 182.415835 122.944537 
L 183.791648 121.543604 
L 184.904776 120.082111 
L 185.678168 118.725572 
L 186.232451 117.339875 
L 186.565767 115.934668 
L 186.676996 114.519685 
L 186.676996 114.519685 
" style="fill:none;stroke:#1f77b4;stroke-linecap:square;stroke-width:1.5;"/>
   </g>
   <g id="patch_3">
    <path d="M 38.718296 201.826772 
L 38.718296 27.212598 
" style="fill:none;stroke:#000000;stroke-linecap:square;stroke-linejoin:miter;stroke-width:0.8;"/>
   </g>
   <g id="patch_4">
    <path d="M 193.722649 201.826772 
L 193.722649 27.212598 
" style="fill:none;stroke:#000000;stroke-linecap:square;stroke-linejoin:miter;stroke-width:0.8;"/>
   </g>
   <g id="patch_5">
    <path d="M 38.718296 201.826772 
L 193.722649 201.826772 
" style="fill:none;stroke:#000000;stroke-linecap:square;stroke-linejoin:miter;stroke-width:0.8;"/>
   </g>
   <g id="patch_6">
    <path d="M 38.718296 27.212598 
L 193.722649 27.212598 
" style="fill:none;stroke:#000000;stroke-linecap:square;stroke-linejoin:miter;stroke-width:0.8;"/>
   </g>
  </g>
 </g>
 <defs>
  <clipPath id="p7229e2ed6c">
   <rect height="174.614173" width="155.004353" x="38.718296" y="27.212598"/>
  </clipPath>
 </defs>
</svg>
