<?xml version="1.0" encoding="utf-8" standalone="no"?>
<!DOCTYPE svg PUBLIC "-//W3C//DTD SVG 1.1//EN"
  "http://www.w3.org/Graphics/SVG/1.1/DTD/svg11.dtd">
<!-- Created with matplotlib (http://matplotlib.org/) -->
<svg height="345.6pt" version="1.1" viewBox="0 0 460.8 345.6" width="460.8pt" xmlns="http://www.w3.org/2000/svg" xmlns:xlink="http://www.w3.org/1999/xlink">
 <defs>
  <style type="text/css">
*{stroke-linecap:butt;stroke-linejoin:round;}
  </style>
 </defs>
 <g id="figure_1">
  <g id="patch_1">
   <path d="M 0 345.6 
L 460.8 345.6 
L 460.8 0 
L 0 0 
z
" style="fill:#ffffff;"/>
  </g>
  <g id="axes_1">
   <g id="patch_2">
    <path d="M 57.6 307.584 
L 414.72 307.584 
L 414.72 41.472 
L 57.6 41.472 
z
" style="fill:#ffffff;"/>
   </g>
   <g id="matplotlib.axis_1">
    <g id="xtick_1">
     <g id="line2d_1">
      <defs>
       <path d="M 0 0 
L 0 3.5 
" id="mfa598e4c0c" style="stroke:#000000;stroke-width:0.8;"/>
      </defs>
      <g>
       <use style="stroke:#000000;stroke-width:0.8;" x="83.978182" xlink:href="#mfa598e4c0c" y="307.584"/>
      </g>
     </g>
     <g id="text_1">
      <!-- −6 -->
      <defs>
       <path d="M 10.59375 35.5 
L 73.1875 35.5 
L 73.1875 27.203125 
L 10.59375 27.203125 
z
" id="DejaVuSans-2212"/>
       <path d="M 33.015625 40.375 
Q 26.375 40.375 22.484375 35.828125 
Q 18.609375 31.296875 18.609375 23.390625 
Q 18.609375 15.53125 22.484375 10.953125 
Q 26.375 6.390625 33.015625 6.390625 
Q 39.65625 6.390625 43.53125 10.953125 
Q 47.40625 15.53125 47.40625 23.390625 
Q 47.40625 31.296875 43.53125 35.828125 
Q 39.65625 40.375 33.015625 40.375 
z
M 52.59375 71.296875 
L 52.59375 62.3125 
Q 48.875 64.0625 45.09375 64.984375 
Q 41.3125 65.921875 37.59375 65.921875 
Q 27.828125 65.921875 22.671875 59.328125 
Q 17.53125 52.734375 16.796875 39.40625 
Q 19.671875 43.65625 24.015625 45.921875 
Q 28.375 48.1875 33.59375 48.1875 
Q 44.578125 48.1875 50.953125 41.515625 
Q 57.328125 34.859375 57.328125 23.390625 
Q 57.328125 12.15625 50.6875 5.359375 
Q 44.046875 -1.421875 33.015625 -1.421875 
Q 20.359375 -1.421875 13.671875 8.265625 
Q 6.984375 17.96875 6.984375 36.375 
Q 6.984375 53.65625 15.1875 63.9375 
Q 23.390625 74.21875 37.203125 74.21875 
Q 40.921875 74.21875 44.703125 73.484375 
Q 48.484375 72.75 52.59375 71.296875 
z
" id="DejaVuSans-36"/>
      </defs>
      <g transform="translate(76.607088 322.182437)scale(0.1 -0.1)">
       <use xlink:href="#DejaVuSans-2212"/>
       <use x="83.789062" xlink:href="#DejaVuSans-36"/>
      </g>
     </g>
    </g>
    <g id="xtick_2">
     <g id="line2d_2">
      <g>
       <use style="stroke:#000000;stroke-width:0.8;" x="134.705455" xlink:href="#mfa598e4c0c" y="307.584"/>
      </g>
     </g>
     <g id="text_2">
      <!-- −4 -->
      <defs>
       <path d="M 37.796875 64.3125 
L 12.890625 25.390625 
L 37.796875 25.390625 
z
M 35.203125 72.90625 
L 47.609375 72.90625 
L 47.609375 25.390625 
L 58.015625 25.390625 
L 58.015625 17.1875 
L 47.609375 17.1875 
L 47.609375 0 
L 37.796875 0 
L 37.796875 17.1875 
L 4.890625 17.1875 
L 4.890625 26.703125 
z
" id="DejaVuSans-34"/>
      </defs>
      <g transform="translate(127.334361 322.182437)scale(0.1 -0.1)">
       <use xlink:href="#DejaVuSans-2212"/>
       <use x="83.789062" xlink:href="#DejaVuSans-34"/>
      </g>
     </g>
    </g>
    <g id="xtick_3">
     <g id="line2d_3">
      <g>
       <use style="stroke:#000000;stroke-width:0.8;" x="185.432727" xlink:href="#mfa598e4c0c" y="307.584"/>
      </g>
     </g>
     <g id="text_3">
      <!-- −2 -->
      <defs>
       <path d="M 19.1875 8.296875 
L 53.609375 8.296875 
L 53.609375 0 
L 7.328125 0 
L 7.328125 8.296875 
Q 12.9375 14.109375 22.625 23.890625 
Q 32.328125 33.6875 34.8125 36.53125 
Q 39.546875 41.84375 41.421875 45.53125 
Q 43.3125 49.21875 43.3125 52.78125 
Q 43.3125 58.59375 39.234375 62.25 
Q 35.15625 65.921875 28.609375 65.921875 
Q 23.96875 65.921875 18.8125 64.3125 
Q 13.671875 62.703125 7.8125 59.421875 
L 7.8125 69.390625 
Q 13.765625 71.78125 18.9375 73 
Q 24.125 74.21875 28.421875 74.21875 
Q 39.75 74.21875 46.484375 68.546875 
Q 53.21875 62.890625 53.21875 53.421875 
Q 53.21875 48.921875 51.53125 44.890625 
Q 49.859375 40.875 45.40625 35.40625 
Q 44.1875 33.984375 37.640625 27.21875 
Q 31.109375 20.453125 19.1875 8.296875 
z
" id="DejaVuSans-32"/>
      </defs>
      <g transform="translate(178.061634 322.182437)scale(0.1 -0.1)">
       <use xlink:href="#DejaVuSans-2212"/>
       <use x="83.789062" xlink:href="#DejaVuSans-32"/>
      </g>
     </g>
    </g>
    <g id="xtick_4">
     <g id="line2d_4">
      <g>
       <use style="stroke:#000000;stroke-width:0.8;" x="236.16" xlink:href="#mfa598e4c0c" y="307.584"/>
      </g>
     </g>
     <g id="text_4">
      <!-- 0 -->
      <defs>
       <path d="M 31.78125 66.40625 
Q 24.171875 66.40625 20.328125 58.90625 
Q 16.5 51.421875 16.5 36.375 
Q 16.5 21.390625 20.328125 13.890625 
Q 24.171875 6.390625 31.78125 6.390625 
Q 39.453125 6.390625 43.28125 13.890625 
Q 47.125 21.390625 47.125 36.375 
Q 47.125 51.421875 43.28125 58.90625 
Q 39.453125 66.40625 31.78125 66.40625 
z
M 31.78125 74.21875 
Q 44.046875 74.21875 50.515625 64.515625 
Q 56.984375 54.828125 56.984375 36.375 
Q 56.984375 17.96875 50.515625 8.265625 
Q 44.046875 -1.421875 31.78125 -1.421875 
Q 19.53125 -1.421875 13.0625 8.265625 
Q 6.59375 17.96875 6.59375 36.375 
Q 6.59375 54.828125 13.0625 64.515625 
Q 19.53125 74.21875 31.78125 74.21875 
z
" id="DejaVuSans-30"/>
      </defs>
      <g transform="translate(232.97875 322.182437)scale(0.1 -0.1)">
       <use xlink:href="#DejaVuSans-30"/>
      </g>
     </g>
    </g>
    <g id="xtick_5">
     <g id="line2d_5">
      <g>
       <use style="stroke:#000000;stroke-width:0.8;" x="286.887273" xlink:href="#mfa598e4c0c" y="307.584"/>
      </g>
     </g>
     <g id="text_5">
      <!-- 2 -->
      <g transform="translate(283.706023 322.182437)scale(0.1 -0.1)">
       <use xlink:href="#DejaVuSans-32"/>
      </g>
     </g>
    </g>
    <g id="xtick_6">
     <g id="line2d_6">
      <g>
       <use style="stroke:#000000;stroke-width:0.8;" x="337.614545" xlink:href="#mfa598e4c0c" y="307.584"/>
      </g>
     </g>
     <g id="text_6">
      <!-- 4 -->
      <g transform="translate(334.433295 322.182437)scale(0.1 -0.1)">
       <use xlink:href="#DejaVuSans-34"/>
      </g>
     </g>
    </g>
    <g id="xtick_7">
     <g id="line2d_7">
      <g>
       <use style="stroke:#000000;stroke-width:0.8;" x="388.341818" xlink:href="#mfa598e4c0c" y="307.584"/>
      </g>
     </g>
     <g id="text_7">
      <!-- 6 -->
      <g transform="translate(385.160568 322.182437)scale(0.1 -0.1)">
       <use xlink:href="#DejaVuSans-36"/>
      </g>
     </g>
    </g>
   </g>
   <g id="matplotlib.axis_2">
    <g id="ytick_1">
     <g id="line2d_8">
      <defs>
       <path d="M 0 0 
L -3.5 0 
" id="m68befe26d6" style="stroke:#000000;stroke-width:0.8;"/>
      </defs>
      <g>
       <use style="stroke:#000000;stroke-width:0.8;" x="57.6" xlink:href="#m68befe26d6" y="295.488"/>
      </g>
     </g>
     <g id="text_8">
      <!-- −1.00 -->
      <defs>
       <path d="M 12.40625 8.296875 
L 28.515625 8.296875 
L 28.515625 63.921875 
L 10.984375 60.40625 
L 10.984375 69.390625 
L 28.421875 72.90625 
L 38.28125 72.90625 
L 38.28125 8.296875 
L 54.390625 8.296875 
L 54.390625 0 
L 12.40625 0 
z
" id="DejaVuSans-31"/>
       <path d="M 10.6875 12.40625 
L 21 12.40625 
L 21 0 
L 10.6875 0 
z
" id="DejaVuSans-2e"/>
      </defs>
      <g transform="translate(19.954687 299.287219)scale(0.1 -0.1)">
       <use xlink:href="#DejaVuSans-2212"/>
       <use x="83.789062" xlink:href="#DejaVuSans-31"/>
       <use x="147.412109" xlink:href="#DejaVuSans-2e"/>
       <use x="179.199219" xlink:href="#DejaVuSans-30"/>
       <use x="242.822266" xlink:href="#DejaVuSans-30"/>
      </g>
     </g>
    </g>
    <g id="ytick_2">
     <g id="line2d_9">
      <g>
       <use style="stroke:#000000;stroke-width:0.8;" x="57.6" xlink:href="#m68befe26d6" y="265.248"/>
      </g>
     </g>
     <g id="text_9">
      <!-- −0.75 -->
      <defs>
       <path d="M 8.203125 72.90625 
L 55.078125 72.90625 
L 55.078125 68.703125 
L 28.609375 0 
L 18.3125 0 
L 43.21875 64.59375 
L 8.203125 64.59375 
z
" id="DejaVuSans-37"/>
       <path d="M 10.796875 72.90625 
L 49.515625 72.90625 
L 49.515625 64.59375 
L 19.828125 64.59375 
L 19.828125 46.734375 
Q 21.96875 47.46875 24.109375 47.828125 
Q 26.265625 48.1875 28.421875 48.1875 
Q 40.625 48.1875 47.75 41.5 
Q 54.890625 34.8125 54.890625 23.390625 
Q 54.890625 11.625 47.5625 5.09375 
Q 40.234375 -1.421875 26.90625 -1.421875 
Q 22.3125 -1.421875 17.546875 -0.640625 
Q 12.796875 0.140625 7.71875 1.703125 
L 7.71875 11.625 
Q 12.109375 9.234375 16.796875 8.0625 
Q 21.484375 6.890625 26.703125 6.890625 
Q 35.15625 6.890625 40.078125 11.328125 
Q 45.015625 15.765625 45.015625 23.390625 
Q 45.015625 31 40.078125 35.4375 
Q 35.15625 39.890625 26.703125 39.890625 
Q 22.75 39.890625 18.8125 39.015625 
Q 14.890625 38.140625 10.796875 36.28125 
z
" id="DejaVuSans-35"/>
      </defs>
      <g transform="translate(19.954687 269.047219)scale(0.1 -0.1)">
       <use xlink:href="#DejaVuSans-2212"/>
       <use x="83.789062" xlink:href="#DejaVuSans-30"/>
       <use x="147.412109" xlink:href="#DejaVuSans-2e"/>
       <use x="179.199219" xlink:href="#DejaVuSans-37"/>
       <use x="242.822266" xlink:href="#DejaVuSans-35"/>
      </g>
     </g>
    </g>
    <g id="ytick_3">
     <g id="line2d_10">
      <g>
       <use style="stroke:#000000;stroke-width:0.8;" x="57.6" xlink:href="#m68befe26d6" y="235.008"/>
      </g>
     </g>
     <g id="text_10">
      <!-- −0.50 -->
      <g transform="translate(19.954687 238.807219)scale(0.1 -0.1)">
       <use xlink:href="#DejaVuSans-2212"/>
       <use x="83.789062" xlink:href="#DejaVuSans-30"/>
       <use x="147.412109" xlink:href="#DejaVuSans-2e"/>
       <use x="179.199219" xlink:href="#DejaVuSans-35"/>
       <use x="242.822266" xlink:href="#DejaVuSans-30"/>
      </g>
     </g>
    </g>
    <g id="ytick_4">
     <g id="line2d_11">
      <g>
       <use style="stroke:#000000;stroke-width:0.8;" x="57.6" xlink:href="#m68befe26d6" y="204.768"/>
      </g>
     </g>
     <g id="text_11">
      <!-- −0.25 -->
      <g transform="translate(19.954687 208.567219)scale(0.1 -0.1)">
       <use xlink:href="#DejaVuSans-2212"/>
       <use x="83.789062" xlink:href="#DejaVuSans-30"/>
       <use x="147.412109" xlink:href="#DejaVuSans-2e"/>
       <use x="179.199219" xlink:href="#DejaVuSans-32"/>
       <use x="242.822266" xlink:href="#DejaVuSans-35"/>
      </g>
     </g>
    </g>
    <g id="ytick_5">
     <g id="line2d_12">
      <g>
       <use style="stroke:#000000;stroke-width:0.8;" x="57.6" xlink:href="#m68befe26d6" y="174.528"/>
      </g>
     </g>
     <g id="text_12">
      <!-- 0.00 -->
      <g transform="translate(28.334375 178.327219)scale(0.1 -0.1)">
       <use xlink:href="#DejaVuSans-30"/>
       <use x="63.623047" xlink:href="#DejaVuSans-2e"/>
       <use x="95.410156" xlink:href="#DejaVuSans-30"/>
       <use x="159.033203" xlink:href="#DejaVuSans-30"/>
      </g>
     </g>
    </g>
    <g id="ytick_6">
     <g id="line2d_13">
      <g>
       <use style="stroke:#000000;stroke-width:0.8;" x="57.6" xlink:href="#m68befe26d6" y="144.288"/>
      </g>
     </g>
     <g id="text_13">
      <!-- 0.25 -->
      <g transform="translate(28.334375 148.087219)scale(0.1 -0.1)">
       <use xlink:href="#DejaVuSans-30"/>
       <use x="63.623047" xlink:href="#DejaVuSans-2e"/>
       <use x="95.410156" xlink:href="#DejaVuSans-32"/>
       <use x="159.033203" xlink:href="#DejaVuSans-35"/>
      </g>
     </g>
    </g>
    <g id="ytick_7">
     <g id="line2d_14">
      <g>
       <use style="stroke:#000000;stroke-width:0.8;" x="57.6" xlink:href="#m68befe26d6" y="114.048"/>
      </g>
     </g>
     <g id="text_14">
      <!-- 0.50 -->
      <g transform="translate(28.334375 117.847219)scale(0.1 -0.1)">
       <use xlink:href="#DejaVuSans-30"/>
       <use x="63.623047" xlink:href="#DejaVuSans-2e"/>
       <use x="95.410156" xlink:href="#DejaVuSans-35"/>
       <use x="159.033203" xlink:href="#DejaVuSans-30"/>
      </g>
     </g>
    </g>
    <g id="ytick_8">
     <g id="line2d_15">
      <g>
       <use style="stroke:#000000;stroke-width:0.8;" x="57.6" xlink:href="#m68befe26d6" y="83.808"/>
      </g>
     </g>
     <g id="text_15">
      <!-- 0.75 -->
      <g transform="translate(28.334375 87.607219)scale(0.1 -0.1)">
       <use xlink:href="#DejaVuSans-30"/>
       <use x="63.623047" xlink:href="#DejaVuSans-2e"/>
       <use x="95.410156" xlink:href="#DejaVuSans-37"/>
       <use x="159.033203" xlink:href="#DejaVuSans-35"/>
      </g>
     </g>
    </g>
    <g id="ytick_9">
     <g id="line2d_16">
      <g>
       <use style="stroke:#000000;stroke-width:0.8;" x="57.6" xlink:href="#m68befe26d6" y="53.568"/>
      </g>
     </g>
     <g id="text_16">
      <!-- 1.00 -->
      <g transform="translate(28.334375 57.367219)scale(0.1 -0.1)">
       <use xlink:href="#DejaVuSans-31"/>
       <use x="63.623047" xlink:href="#DejaVuSans-2e"/>
       <use x="95.410156" xlink:href="#DejaVuSans-30"/>
       <use x="159.033203" xlink:href="#DejaVuSans-30"/>
      </g>
     </g>
    </g>
   </g>
   <g id="line2d_17">
    <path clip-path="url(#pd28883231a)" d="M 73.832727 54.392352 
L 76.369091 53.585099 
L 78.905455 53.986268 
L 81.441818 55.59185 
L 83.978182 58.385802 
L 86.514545 62.340209 
L 89.050909 67.415559 
L 91.587273 73.561142 
L 94.123636 80.715551 
L 96.66 88.807304 
L 99.196364 97.75555 
L 101.732727 107.47088 
L 104.269091 117.856223 
L 109.341818 140.216222 
L 114.414545 163.944123 
L 122.023636 200.02586 
L 127.096364 223.008668 
L 129.632727 233.829949 
L 132.169091 244.058705 
L 134.705455 253.592732 
L 137.241818 262.336772 
L 139.778182 270.203454 
L 142.314545 277.11418 
L 144.850909 282.999898 
L 147.387273 287.801801 
L 149.923636 291.471909 
L 152.46 293.973553 
L 154.996364 295.281736 
L 157.532727 295.383388 
L 160.069091 294.277492 
L 162.605455 291.9751 
L 165.141818 288.499214 
L 167.678182 283.884566 
L 170.214545 278.177264 
L 172.750909 271.434332 
L 175.287273 263.723144 
L 177.823636 255.120748 
L 180.36 245.713095 
L 182.896364 235.594185 
L 185.432727 224.865121 
L 190.505455 202.010365 
L 205.723636 130.697206 
L 208.26 119.661013 
L 210.796364 109.173033 
L 213.332727 99.338058 
L 215.869091 90.254356 
L 218.405455 82.012689 
L 220.941818 74.695404 
L 223.478182 68.375613 
L 226.014545 63.116462 
L 228.550909 58.970498 
L 231.087273 55.979147 
L 233.623636 54.172296 
L 236.16 53.568 
L 238.696364 54.172296 
L 241.232727 55.979147 
L 243.769091 58.970498 
L 246.305455 63.116462 
L 248.841818 68.375613 
L 251.378182 74.695404 
L 253.914545 82.012689 
L 256.450909 90.254356 
L 258.987273 99.338058 
L 261.523636 109.173033 
L 264.06 119.661013 
L 269.132727 142.171342 
L 276.741818 178.059974 
L 281.814545 202.010365 
L 286.887273 224.865121 
L 289.423636 235.594185 
L 291.96 245.713095 
L 294.496364 255.120748 
L 297.032727 263.723144 
L 299.569091 271.434332 
L 302.105455 278.177264 
L 304.641818 283.884566 
L 307.178182 288.499214 
L 309.714545 291.9751 
L 312.250909 294.277492 
L 314.787273 295.383388 
L 317.323636 295.281736 
L 319.86 293.973553 
L 322.396364 291.471909 
L 324.932727 287.801801 
L 327.469091 282.999898 
L 330.005455 277.11418 
L 332.541818 270.203454 
L 335.078182 262.336772 
L 337.614545 253.592732 
L 340.150909 244.058705 
L 342.687273 233.829949 
L 347.76 211.702984 
L 352.832727 188.09397 
L 362.978182 140.216222 
L 368.050909 117.856223 
L 370.587273 107.47088 
L 373.123636 97.75555 
L 375.66 88.807304 
L 378.196364 80.715551 
L 380.732727 73.561142 
L 383.269091 67.415559 
L 385.805455 62.340209 
L 388.341818 58.385802 
L 390.878182 55.59185 
L 393.414545 53.986268 
L 395.950909 53.585099 
L 398.487273 54.392352 
L 398.487273 54.392352 
" style="fill:none;stroke:#ff0000;stroke-linecap:square;stroke-width:1.5;"/>
   </g>
   <g id="line2d_18">
    <defs>
     <path d="M 0 1.5 
C 0.397805 1.5 0.77937 1.341951 1.06066 1.06066 
C 1.341951 0.77937 1.5 0.397805 1.5 0 
C 1.5 -0.397805 1.341951 -0.77937 1.06066 -1.06066 
C 0.77937 -1.341951 0.397805 -1.5 0 -1.5 
C -0.397805 -1.5 -0.77937 -1.341951 -1.06066 -1.06066 
C -1.341951 -0.77937 -1.5 -0.397805 -1.5 0 
C -1.5 0.397805 -1.341951 0.77937 -1.06066 1.06066 
C -0.77937 1.341951 -0.397805 1.5 0 1.5 
z
" id="ma29b786be3" style="stroke:#0000ff;"/>
    </defs>
    <g clip-path="url(#pd28883231a)">
     <use style="fill:#0000ff;stroke:#0000ff;" x="73.832727" xlink:href="#ma29b786be3" y="53.568"/>
     <use style="fill:#0000ff;stroke:#0000ff;" x="76.369091" xlink:href="#ma29b786be3" y="53.568"/>
     <use style="fill:#0000ff;stroke:#0000ff;" x="78.905455" xlink:href="#ma29b786be3" y="53.568"/>
     <use style="fill:#0000ff;stroke:#0000ff;" x="81.441818" xlink:href="#ma29b786be3" y="53.568"/>
     <use style="fill:#0000ff;stroke:#0000ff;" x="83.978182" xlink:href="#ma29b786be3" y="53.568"/>
     <use style="fill:#0000ff;stroke:#0000ff;" x="86.514545" xlink:href="#ma29b786be3" y="53.568"/>
     <use style="fill:#0000ff;stroke:#0000ff;" x="89.050909" xlink:href="#ma29b786be3" y="53.568"/>
     <use style="fill:#0000ff;stroke:#0000ff;" x="91.587273" xlink:href="#ma29b786be3" y="53.568"/>
     <use style="fill:#0000ff;stroke:#0000ff;" x="94.123636" xlink:href="#ma29b786be3" y="53.568"/>
     <use style="fill:#0000ff;stroke:#0000ff;" x="96.66" xlink:href="#ma29b786be3" y="53.568"/>
     <use style="fill:#0000ff;stroke:#0000ff;" x="99.196364" xlink:href="#ma29b786be3" y="53.568"/>
     <use style="fill:#0000ff;stroke:#0000ff;" x="101.732727" xlink:href="#ma29b786be3" y="53.568"/>
     <use style="fill:#0000ff;stroke:#0000ff;" x="104.269091" xlink:href="#ma29b786be3" y="53.568"/>
     <use style="fill:#0000ff;stroke:#0000ff;" x="106.805455" xlink:href="#ma29b786be3" y="53.568"/>
     <use style="fill:#0000ff;stroke:#0000ff;" x="109.341818" xlink:href="#ma29b786be3" y="53.568"/>
     <use style="fill:#0000ff;stroke:#0000ff;" x="111.878182" xlink:href="#ma29b786be3" y="53.568"/>
     <use style="fill:#0000ff;stroke:#0000ff;" x="114.414545" xlink:href="#ma29b786be3" y="53.568"/>
     <use style="fill:#0000ff;stroke:#0000ff;" x="116.950909" xlink:href="#ma29b786be3" y="295.488"/>
     <use style="fill:#0000ff;stroke:#0000ff;" x="119.487273" xlink:href="#ma29b786be3" y="295.488"/>
     <use style="fill:#0000ff;stroke:#0000ff;" x="122.023636" xlink:href="#ma29b786be3" y="295.488"/>
     <use style="fill:#0000ff;stroke:#0000ff;" x="124.56" xlink:href="#ma29b786be3" y="295.488"/>
     <use style="fill:#0000ff;stroke:#0000ff;" x="127.096364" xlink:href="#ma29b786be3" y="295.488"/>
     <use style="fill:#0000ff;stroke:#0000ff;" x="129.632727" xlink:href="#ma29b786be3" y="295.488"/>
     <use style="fill:#0000ff;stroke:#0000ff;" x="132.169091" xlink:href="#ma29b786be3" y="295.488"/>
     <use style="fill:#0000ff;stroke:#0000ff;" x="134.705455" xlink:href="#ma29b786be3" y="295.488"/>
     <use style="fill:#0000ff;stroke:#0000ff;" x="137.241818" xlink:href="#ma29b786be3" y="295.488"/>
     <use style="fill:#0000ff;stroke:#0000ff;" x="139.778182" xlink:href="#ma29b786be3" y="295.488"/>
     <use style="fill:#0000ff;stroke:#0000ff;" x="142.314545" xlink:href="#ma29b786be3" y="295.488"/>
     <use style="fill:#0000ff;stroke:#0000ff;" x="144.850909" xlink:href="#ma29b786be3" y="295.488"/>
     <use style="fill:#0000ff;stroke:#0000ff;" x="147.387273" xlink:href="#ma29b786be3" y="295.488"/>
     <use style="fill:#0000ff;stroke:#0000ff;" x="149.923636" xlink:href="#ma29b786be3" y="295.488"/>
     <use style="fill:#0000ff;stroke:#0000ff;" x="152.46" xlink:href="#ma29b786be3" y="295.488"/>
     <use style="fill:#0000ff;stroke:#0000ff;" x="154.996364" xlink:href="#ma29b786be3" y="295.488"/>
     <use style="fill:#0000ff;stroke:#0000ff;" x="157.532727" xlink:href="#ma29b786be3" y="295.488"/>
     <use style="fill:#0000ff;stroke:#0000ff;" x="160.069091" xlink:href="#ma29b786be3" y="295.488"/>
     <use style="fill:#0000ff;stroke:#0000ff;" x="162.605455" xlink:href="#ma29b786be3" y="295.488"/>
     <use style="fill:#0000ff;stroke:#0000ff;" x="165.141818" xlink:href="#ma29b786be3" y="295.488"/>
     <use style="fill:#0000ff;stroke:#0000ff;" x="167.678182" xlink:href="#ma29b786be3" y="295.488"/>
     <use style="fill:#0000ff;stroke:#0000ff;" x="170.214545" xlink:href="#ma29b786be3" y="295.488"/>
     <use style="fill:#0000ff;stroke:#0000ff;" x="172.750909" xlink:href="#ma29b786be3" y="295.488"/>
     <use style="fill:#0000ff;stroke:#0000ff;" x="175.287273" xlink:href="#ma29b786be3" y="295.488"/>
     <use style="fill:#0000ff;stroke:#0000ff;" x="177.823636" xlink:href="#ma29b786be3" y="295.488"/>
     <use style="fill:#0000ff;stroke:#0000ff;" x="180.36" xlink:href="#ma29b786be3" y="295.488"/>
     <use style="fill:#0000ff;stroke:#0000ff;" x="182.896364" xlink:href="#ma29b786be3" y="295.488"/>
     <use style="fill:#0000ff;stroke:#0000ff;" x="185.432727" xlink:href="#ma29b786be3" y="295.488"/>
     <use style="fill:#0000ff;stroke:#0000ff;" x="187.969091" xlink:href="#ma29b786be3" y="295.488"/>
     <use style="fill:#0000ff;stroke:#0000ff;" x="190.505455" xlink:href="#ma29b786be3" y="295.488"/>
     <use style="fill:#0000ff;stroke:#0000ff;" x="193.041818" xlink:href="#ma29b786be3" y="295.488"/>
     <use style="fill:#0000ff;stroke:#0000ff;" x="195.578182" xlink:href="#ma29b786be3" y="295.488"/>
     <use style="fill:#0000ff;stroke:#0000ff;" x="198.114545" xlink:href="#ma29b786be3" y="53.568"/>
     <use style="fill:#0000ff;stroke:#0000ff;" x="200.650909" xlink:href="#ma29b786be3" y="53.568"/>
     <use style="fill:#0000ff;stroke:#0000ff;" x="203.187273" xlink:href="#ma29b786be3" y="53.568"/>
     <use style="fill:#0000ff;stroke:#0000ff;" x="205.723636" xlink:href="#ma29b786be3" y="53.568"/>
     <use style="fill:#0000ff;stroke:#0000ff;" x="208.26" xlink:href="#ma29b786be3" y="53.568"/>
     <use style="fill:#0000ff;stroke:#0000ff;" x="210.796364" xlink:href="#ma29b786be3" y="53.568"/>
     <use style="fill:#0000ff;stroke:#0000ff;" x="213.332727" xlink:href="#ma29b786be3" y="53.568"/>
     <use style="fill:#0000ff;stroke:#0000ff;" x="215.869091" xlink:href="#ma29b786be3" y="53.568"/>
     <use style="fill:#0000ff;stroke:#0000ff;" x="218.405455" xlink:href="#ma29b786be3" y="53.568"/>
     <use style="fill:#0000ff;stroke:#0000ff;" x="220.941818" xlink:href="#ma29b786be3" y="53.568"/>
     <use style="fill:#0000ff;stroke:#0000ff;" x="223.478182" xlink:href="#ma29b786be3" y="53.568"/>
     <use style="fill:#0000ff;stroke:#0000ff;" x="226.014545" xlink:href="#ma29b786be3" y="53.568"/>
     <use style="fill:#0000ff;stroke:#0000ff;" x="228.550909" xlink:href="#ma29b786be3" y="53.568"/>
     <use style="fill:#0000ff;stroke:#0000ff;" x="231.087273" xlink:href="#ma29b786be3" y="53.568"/>
     <use style="fill:#0000ff;stroke:#0000ff;" x="233.623636" xlink:href="#ma29b786be3" y="53.568"/>
     <use style="fill:#0000ff;stroke:#0000ff;" x="236.16" xlink:href="#ma29b786be3" y="53.568"/>
     <use style="fill:#0000ff;stroke:#0000ff;" x="238.696364" xlink:href="#ma29b786be3" y="53.568"/>
     <use style="fill:#0000ff;stroke:#0000ff;" x="241.232727" xlink:href="#ma29b786be3" y="53.568"/>
     <use style="fill:#0000ff;stroke:#0000ff;" x="243.769091" xlink:href="#ma29b786be3" y="53.568"/>
     <use style="fill:#0000ff;stroke:#0000ff;" x="246.305455" xlink:href="#ma29b786be3" y="53.568"/>
     <use style="fill:#0000ff;stroke:#0000ff;" x="248.841818" xlink:href="#ma29b786be3" y="53.568"/>
     <use style="fill:#0000ff;stroke:#0000ff;" x="251.378182" xlink:href="#ma29b786be3" y="53.568"/>
     <use style="fill:#0000ff;stroke:#0000ff;" x="253.914545" xlink:href="#ma29b786be3" y="53.568"/>
     <use style="fill:#0000ff;stroke:#0000ff;" x="256.450909" xlink:href="#ma29b786be3" y="53.568"/>
     <use style="fill:#0000ff;stroke:#0000ff;" x="258.987273" xlink:href="#ma29b786be3" y="53.568"/>
     <use style="fill:#0000ff;stroke:#0000ff;" x="261.523636" xlink:href="#ma29b786be3" y="53.568"/>
     <use style="fill:#0000ff;stroke:#0000ff;" x="264.06" xlink:href="#ma29b786be3" y="53.568"/>
     <use style="fill:#0000ff;stroke:#0000ff;" x="266.596364" xlink:href="#ma29b786be3" y="53.568"/>
     <use style="fill:#0000ff;stroke:#0000ff;" x="269.132727" xlink:href="#ma29b786be3" y="53.568"/>
     <use style="fill:#0000ff;stroke:#0000ff;" x="271.669091" xlink:href="#ma29b786be3" y="53.568"/>
     <use style="fill:#0000ff;stroke:#0000ff;" x="274.205455" xlink:href="#ma29b786be3" y="53.568"/>
     <use style="fill:#0000ff;stroke:#0000ff;" x="276.741818" xlink:href="#ma29b786be3" y="295.488"/>
     <use style="fill:#0000ff;stroke:#0000ff;" x="279.278182" xlink:href="#ma29b786be3" y="295.488"/>
     <use style="fill:#0000ff;stroke:#0000ff;" x="281.814545" xlink:href="#ma29b786be3" y="295.488"/>
     <use style="fill:#0000ff;stroke:#0000ff;" x="284.350909" xlink:href="#ma29b786be3" y="295.488"/>
     <use style="fill:#0000ff;stroke:#0000ff;" x="286.887273" xlink:href="#ma29b786be3" y="295.488"/>
     <use style="fill:#0000ff;stroke:#0000ff;" x="289.423636" xlink:href="#ma29b786be3" y="295.488"/>
     <use style="fill:#0000ff;stroke:#0000ff;" x="291.96" xlink:href="#ma29b786be3" y="295.488"/>
     <use style="fill:#0000ff;stroke:#0000ff;" x="294.496364" xlink:href="#ma29b786be3" y="295.488"/>
     <use style="fill:#0000ff;stroke:#0000ff;" x="297.032727" xlink:href="#ma29b786be3" y="295.488"/>
     <use style="fill:#0000ff;stroke:#0000ff;" x="299.569091" xlink:href="#ma29b786be3" y="295.488"/>
     <use style="fill:#0000ff;stroke:#0000ff;" x="302.105455" xlink:href="#ma29b786be3" y="295.488"/>
     <use style="fill:#0000ff;stroke:#0000ff;" x="304.641818" xlink:href="#ma29b786be3" y="295.488"/>
     <use style="fill:#0000ff;stroke:#0000ff;" x="307.178182" xlink:href="#ma29b786be3" y="295.488"/>
     <use style="fill:#0000ff;stroke:#0000ff;" x="309.714545" xlink:href="#ma29b786be3" y="295.488"/>
     <use style="fill:#0000ff;stroke:#0000ff;" x="312.250909" xlink:href="#ma29b786be3" y="295.488"/>
     <use style="fill:#0000ff;stroke:#0000ff;" x="314.787273" xlink:href="#ma29b786be3" y="295.488"/>
     <use style="fill:#0000ff;stroke:#0000ff;" x="317.323636" xlink:href="#ma29b786be3" y="295.488"/>
     <use style="fill:#0000ff;stroke:#0000ff;" x="319.86" xlink:href="#ma29b786be3" y="295.488"/>
     <use style="fill:#0000ff;stroke:#0000ff;" x="322.396364" xlink:href="#ma29b786be3" y="295.488"/>
     <use style="fill:#0000ff;stroke:#0000ff;" x="324.932727" xlink:href="#ma29b786be3" y="295.488"/>
     <use style="fill:#0000ff;stroke:#0000ff;" x="327.469091" xlink:href="#ma29b786be3" y="295.488"/>
     <use style="fill:#0000ff;stroke:#0000ff;" x="330.005455" xlink:href="#ma29b786be3" y="295.488"/>
     <use style="fill:#0000ff;stroke:#0000ff;" x="332.541818" xlink:href="#ma29b786be3" y="295.488"/>
     <use style="fill:#0000ff;stroke:#0000ff;" x="335.078182" xlink:href="#ma29b786be3" y="295.488"/>
     <use style="fill:#0000ff;stroke:#0000ff;" x="337.614545" xlink:href="#ma29b786be3" y="295.488"/>
     <use style="fill:#0000ff;stroke:#0000ff;" x="340.150909" xlink:href="#ma29b786be3" y="295.488"/>
     <use style="fill:#0000ff;stroke:#0000ff;" x="342.687273" xlink:href="#ma29b786be3" y="295.488"/>
     <use style="fill:#0000ff;stroke:#0000ff;" x="345.223636" xlink:href="#ma29b786be3" y="295.488"/>
     <use style="fill:#0000ff;stroke:#0000ff;" x="347.76" xlink:href="#ma29b786be3" y="295.488"/>
     <use style="fill:#0000ff;stroke:#0000ff;" x="350.296364" xlink:href="#ma29b786be3" y="295.488"/>
     <use style="fill:#0000ff;stroke:#0000ff;" x="352.832727" xlink:href="#ma29b786be3" y="295.488"/>
     <use style="fill:#0000ff;stroke:#0000ff;" x="355.369091" xlink:href="#ma29b786be3" y="295.488"/>
     <use style="fill:#0000ff;stroke:#0000ff;" x="357.905455" xlink:href="#ma29b786be3" y="53.568"/>
     <use style="fill:#0000ff;stroke:#0000ff;" x="360.441818" xlink:href="#ma29b786be3" y="53.568"/>
     <use style="fill:#0000ff;stroke:#0000ff;" x="362.978182" xlink:href="#ma29b786be3" y="53.568"/>
     <use style="fill:#0000ff;stroke:#0000ff;" x="365.514545" xlink:href="#ma29b786be3" y="53.568"/>
     <use style="fill:#0000ff;stroke:#0000ff;" x="368.050909" xlink:href="#ma29b786be3" y="53.568"/>
     <use style="fill:#0000ff;stroke:#0000ff;" x="370.587273" xlink:href="#ma29b786be3" y="53.568"/>
     <use style="fill:#0000ff;stroke:#0000ff;" x="373.123636" xlink:href="#ma29b786be3" y="53.568"/>
     <use style="fill:#0000ff;stroke:#0000ff;" x="375.66" xlink:href="#ma29b786be3" y="53.568"/>
     <use style="fill:#0000ff;stroke:#0000ff;" x="378.196364" xlink:href="#ma29b786be3" y="53.568"/>
     <use style="fill:#0000ff;stroke:#0000ff;" x="380.732727" xlink:href="#ma29b786be3" y="53.568"/>
     <use style="fill:#0000ff;stroke:#0000ff;" x="383.269091" xlink:href="#ma29b786be3" y="53.568"/>
     <use style="fill:#0000ff;stroke:#0000ff;" x="385.805455" xlink:href="#ma29b786be3" y="53.568"/>
     <use style="fill:#0000ff;stroke:#0000ff;" x="388.341818" xlink:href="#ma29b786be3" y="53.568"/>
     <use style="fill:#0000ff;stroke:#0000ff;" x="390.878182" xlink:href="#ma29b786be3" y="53.568"/>
     <use style="fill:#0000ff;stroke:#0000ff;" x="393.414545" xlink:href="#ma29b786be3" y="53.568"/>
     <use style="fill:#0000ff;stroke:#0000ff;" x="395.950909" xlink:href="#ma29b786be3" y="53.568"/>
     <use style="fill:#0000ff;stroke:#0000ff;" x="398.487273" xlink:href="#ma29b786be3" y="53.568"/>
    </g>
   </g>
   <g id="patch_3">
    <path d="M 57.6 307.584 
L 57.6 41.472 
" style="fill:none;stroke:#000000;stroke-linecap:square;stroke-linejoin:miter;stroke-width:0.8;"/>
   </g>
   <g id="patch_4">
    <path d="M 414.72 307.584 
L 414.72 41.472 
" style="fill:none;stroke:#000000;stroke-linecap:square;stroke-linejoin:miter;stroke-width:0.8;"/>
   </g>
   <g id="patch_5">
    <path d="M 57.6 307.584 
L 414.72 307.584 
" style="fill:none;stroke:#000000;stroke-linecap:square;stroke-linejoin:miter;stroke-width:0.8;"/>
   </g>
   <g id="patch_6">
    <path d="M 57.6 41.472 
L 414.72 41.472 
" style="fill:none;stroke:#000000;stroke-linecap:square;stroke-linejoin:miter;stroke-width:0.8;"/>
   </g>
   <g id="legend_1">
    <g id="patch_7">
     <path d="M 316.695 190.706125 
L 407.72 190.706125 
Q 409.72 190.706125 409.72 188.706125 
L 409.72 160.349875 
Q 409.72 158.349875 407.72 158.349875 
L 316.695 158.349875 
Q 314.695 158.349875 314.695 160.349875 
L 314.695 188.706125 
Q 314.695 190.706125 316.695 190.706125 
z
" style="fill:#ffffff;opacity:0.8;stroke:#cccccc;stroke-linejoin:miter;"/>
    </g>
    <g id="line2d_19">
     <path d="M 318.695 166.448312 
L 338.695 166.448312 
" style="fill:none;stroke:#ff0000;stroke-linecap:square;stroke-width:1.5;"/>
    </g>
    <g id="line2d_20"/>
    <g id="text_17">
     <!-- cos(x) -->
     <defs>
      <path d="M 48.78125 52.59375 
L 48.78125 44.1875 
Q 44.96875 46.296875 41.140625 47.34375 
Q 37.3125 48.390625 33.40625 48.390625 
Q 24.65625 48.390625 19.8125 42.84375 
Q 14.984375 37.3125 14.984375 27.296875 
Q 14.984375 17.28125 19.8125 11.734375 
Q 24.65625 6.203125 33.40625 6.203125 
Q 37.3125 6.203125 41.140625 7.25 
Q 44.96875 8.296875 48.78125 10.40625 
L 48.78125 2.09375 
Q 45.015625 0.34375 40.984375 -0.53125 
Q 36.96875 -1.421875 32.421875 -1.421875 
Q 20.0625 -1.421875 12.78125 6.34375 
Q 5.515625 14.109375 5.515625 27.296875 
Q 5.515625 40.671875 12.859375 48.328125 
Q 20.21875 56 33.015625 56 
Q 37.15625 56 41.109375 55.140625 
Q 45.0625 54.296875 48.78125 52.59375 
z
" id="DejaVuSans-63"/>
      <path d="M 30.609375 48.390625 
Q 23.390625 48.390625 19.1875 42.75 
Q 14.984375 37.109375 14.984375 27.296875 
Q 14.984375 17.484375 19.15625 11.84375 
Q 23.34375 6.203125 30.609375 6.203125 
Q 37.796875 6.203125 41.984375 11.859375 
Q 46.1875 17.53125 46.1875 27.296875 
Q 46.1875 37.015625 41.984375 42.703125 
Q 37.796875 48.390625 30.609375 48.390625 
z
M 30.609375 56 
Q 42.328125 56 49.015625 48.375 
Q 55.71875 40.765625 55.71875 27.296875 
Q 55.71875 13.875 49.015625 6.21875 
Q 42.328125 -1.421875 30.609375 -1.421875 
Q 18.84375 -1.421875 12.171875 6.21875 
Q 5.515625 13.875 5.515625 27.296875 
Q 5.515625 40.765625 12.171875 48.375 
Q 18.84375 56 30.609375 56 
z
" id="DejaVuSans-6f"/>
      <path d="M 44.28125 53.078125 
L 44.28125 44.578125 
Q 40.484375 46.53125 36.375 47.5 
Q 32.28125 48.484375 27.875 48.484375 
Q 21.1875 48.484375 17.84375 46.4375 
Q 14.5 44.390625 14.5 40.28125 
Q 14.5 37.15625 16.890625 35.375 
Q 19.28125 33.59375 26.515625 31.984375 
L 29.59375 31.296875 
Q 39.15625 29.25 43.1875 25.515625 
Q 47.21875 21.78125 47.21875 15.09375 
Q 47.21875 7.46875 41.1875 3.015625 
Q 35.15625 -1.421875 24.609375 -1.421875 
Q 20.21875 -1.421875 15.453125 -0.5625 
Q 10.6875 0.296875 5.421875 2 
L 5.421875 11.28125 
Q 10.40625 8.6875 15.234375 7.390625 
Q 20.0625 6.109375 24.8125 6.109375 
Q 31.15625 6.109375 34.5625 8.28125 
Q 37.984375 10.453125 37.984375 14.40625 
Q 37.984375 18.0625 35.515625 20.015625 
Q 33.0625 21.96875 24.703125 23.78125 
L 21.578125 24.515625 
Q 13.234375 26.265625 9.515625 29.90625 
Q 5.8125 33.546875 5.8125 39.890625 
Q 5.8125 47.609375 11.28125 51.796875 
Q 16.75 56 26.8125 56 
Q 31.78125 56 36.171875 55.265625 
Q 40.578125 54.546875 44.28125 53.078125 
z
" id="DejaVuSans-73"/>
      <path d="M 31 75.875 
Q 24.46875 64.65625 21.28125 53.65625 
Q 18.109375 42.671875 18.109375 31.390625 
Q 18.109375 20.125 21.3125 9.0625 
Q 24.515625 -2 31 -13.1875 
L 23.1875 -13.1875 
Q 15.875 -1.703125 12.234375 9.375 
Q 8.59375 20.453125 8.59375 31.390625 
Q 8.59375 42.28125 12.203125 53.3125 
Q 15.828125 64.359375 23.1875 75.875 
z
" id="DejaVuSans-28"/>
      <path d="M 54.890625 54.6875 
L 35.109375 28.078125 
L 55.90625 0 
L 45.3125 0 
L 29.390625 21.484375 
L 13.484375 0 
L 2.875 0 
L 24.125 28.609375 
L 4.6875 54.6875 
L 15.28125 54.6875 
L 29.78125 35.203125 
L 44.28125 54.6875 
z
" id="DejaVuSans-78"/>
      <path d="M 8.015625 75.875 
L 15.828125 75.875 
Q 23.140625 64.359375 26.78125 53.3125 
Q 30.421875 42.28125 30.421875 31.390625 
Q 30.421875 20.453125 26.78125 9.375 
Q 23.140625 -1.703125 15.828125 -13.1875 
L 8.015625 -13.1875 
Q 14.5 -2 17.703125 9.0625 
Q 20.90625 20.125 20.90625 31.390625 
Q 20.90625 42.671875 17.703125 53.65625 
Q 14.5 64.65625 8.015625 75.875 
z
" id="DejaVuSans-29"/>
     </defs>
     <g transform="translate(346.695 169.948312)scale(0.1 -0.1)">
      <use xlink:href="#DejaVuSans-63"/>
      <use x="54.980469" xlink:href="#DejaVuSans-6f"/>
      <use x="116.162109" xlink:href="#DejaVuSans-73"/>
      <use x="168.261719" xlink:href="#DejaVuSans-28"/>
      <use x="207.275391" xlink:href="#DejaVuSans-78"/>
      <use x="266.455078" xlink:href="#DejaVuSans-29"/>
     </g>
    </g>
    <g id="line2d_21"/>
    <g id="line2d_22">
     <g>
      <use style="fill:#0000ff;stroke:#0000ff;" x="328.695" xlink:href="#ma29b786be3" y="181.126437"/>
     </g>
    </g>
    <g id="text_18">
     <!-- sign(cos(x)) -->
     <defs>
      <path d="M 9.421875 54.6875 
L 18.40625 54.6875 
L 18.40625 0 
L 9.421875 0 
z
M 9.421875 75.984375 
L 18.40625 75.984375 
L 18.40625 64.59375 
L 9.421875 64.59375 
z
" id="DejaVuSans-69"/>
      <path d="M 45.40625 27.984375 
Q 45.40625 37.75 41.375 43.109375 
Q 37.359375 48.484375 30.078125 48.484375 
Q 22.859375 48.484375 18.828125 43.109375 
Q 14.796875 37.75 14.796875 27.984375 
Q 14.796875 18.265625 18.828125 12.890625 
Q 22.859375 7.515625 30.078125 7.515625 
Q 37.359375 7.515625 41.375 12.890625 
Q 45.40625 18.265625 45.40625 27.984375 
z
M 54.390625 6.78125 
Q 54.390625 -7.171875 48.1875 -13.984375 
Q 42 -20.796875 29.203125 -20.796875 
Q 24.46875 -20.796875 20.265625 -20.09375 
Q 16.0625 -19.390625 12.109375 -17.921875 
L 12.109375 -9.1875 
Q 16.0625 -11.328125 19.921875 -12.34375 
Q 23.78125 -13.375 27.78125 -13.375 
Q 36.625 -13.375 41.015625 -8.765625 
Q 45.40625 -4.15625 45.40625 5.171875 
L 45.40625 9.625 
Q 42.625 4.78125 38.28125 2.390625 
Q 33.9375 0 27.875 0 
Q 17.828125 0 11.671875 7.65625 
Q 5.515625 15.328125 5.515625 27.984375 
Q 5.515625 40.671875 11.671875 48.328125 
Q 17.828125 56 27.875 56 
Q 33.9375 56 38.28125 53.609375 
Q 42.625 51.21875 45.40625 46.390625 
L 45.40625 54.6875 
L 54.390625 54.6875 
z
" id="DejaVuSans-67"/>
      <path d="M 54.890625 33.015625 
L 54.890625 0 
L 45.90625 0 
L 45.90625 32.71875 
Q 45.90625 40.484375 42.875 44.328125 
Q 39.84375 48.1875 33.796875 48.1875 
Q 26.515625 48.1875 22.3125 43.546875 
Q 18.109375 38.921875 18.109375 30.90625 
L 18.109375 0 
L 9.078125 0 
L 9.078125 54.6875 
L 18.109375 54.6875 
L 18.109375 46.1875 
Q 21.34375 51.125 25.703125 53.5625 
Q 30.078125 56 35.796875 56 
Q 45.21875 56 50.046875 50.171875 
Q 54.890625 44.34375 54.890625 33.015625 
z
" id="DejaVuSans-6e"/>
     </defs>
     <g transform="translate(346.695 184.626437)scale(0.1 -0.1)">
      <use xlink:href="#DejaVuSans-73"/>
      <use x="52.099609" xlink:href="#DejaVuSans-69"/>
      <use x="79.882812" xlink:href="#DejaVuSans-67"/>
      <use x="143.359375" xlink:href="#DejaVuSans-6e"/>
      <use x="206.738281" xlink:href="#DejaVuSans-28"/>
      <use x="245.751953" xlink:href="#DejaVuSans-63"/>
      <use x="300.732422" xlink:href="#DejaVuSans-6f"/>
      <use x="361.914062" xlink:href="#DejaVuSans-73"/>
      <use x="414.013672" xlink:href="#DejaVuSans-28"/>
      <use x="453.027344" xlink:href="#DejaVuSans-78"/>
      <use x="512.207031" xlink:href="#DejaVuSans-29"/>
      <use x="551.220703" xlink:href="#DejaVuSans-29"/>
     </g>
    </g>
   </g>
  </g>
 </g>
 <defs>
  <clipPath id="pd28883231a">
   <rect height="266.112" width="357.12" x="57.6" y="41.472"/>
  </clipPath>
 </defs>
</svg>
