<?xml version="1.0" encoding="utf-8" standalone="no"?>
<!DOCTYPE svg PUBLIC "-//W3C//DTD SVG 1.1//EN"
  "http://www.w3.org/Graphics/SVG/1.1/DTD/svg11.dtd">
<!-- Created with matplotlib (http://matplotlib.org/) -->
<svg height="345.6pt" version="1.1" viewBox="0 0 460.8 345.6" width="460.8pt" xmlns="http://www.w3.org/2000/svg" xmlns:xlink="http://www.w3.org/1999/xlink">
 <defs>
  <style type="text/css">
*{stroke-linecap:butt;stroke-linejoin:round;}
  </style>
 </defs>
 <g id="figure_1">
  <g id="patch_1">
   <path d="M 0 345.6 
L 460.8 345.6 
L 460.8 0 
L 0 0 
z
" style="fill:#ffffff;"/>
  </g>
  <g id="axes_1">
   <g id="patch_2">
    <path d="M 57.6 307.584 
L 414.72 307.584 
L 414.72 41.472 
L 57.6 41.472 
z
" style="fill:#ffffff;"/>
   </g>
   <g id="matplotlib.axis_1">
    <g id="xtick_1">
     <g id="line2d_1">
      <defs>
       <path d="M 0 0 
L 0 3.5 
" id="m5de484112b" style="stroke:#000000;stroke-width:0.8;"/>
      </defs>
      <g>
       <use style="stroke:#000000;stroke-width:0.8;" x="83.978182" xlink:href="#m5de484112b" y="307.584"/>
      </g>
     </g>
     <g id="text_1">
      <!-- −6 -->
      <defs>
       <path d="M 10.59375 35.5 
L 73.1875 35.5 
L 73.1875 27.203125 
L 10.59375 27.203125 
z
" id="DejaVuSans-2212"/>
       <path d="M 33.015625 40.375 
Q 26.375 40.375 22.484375 35.828125 
Q 18.609375 31.296875 18.609375 23.390625 
Q 18.609375 15.53125 22.484375 10.953125 
Q 26.375 6.390625 33.015625 6.390625 
Q 39.65625 6.390625 43.53125 10.953125 
Q 47.40625 15.53125 47.40625 23.390625 
Q 47.40625 31.296875 43.53125 35.828125 
Q 39.65625 40.375 33.015625 40.375 
z
M 52.59375 71.296875 
L 52.59375 62.3125 
Q 48.875 64.0625 45.09375 64.984375 
Q 41.3125 65.921875 37.59375 65.921875 
Q 27.828125 65.921875 22.671875 59.328125 
Q 17.53125 52.734375 16.796875 39.40625 
Q 19.671875 43.65625 24.015625 45.921875 
Q 28.375 48.1875 33.59375 48.1875 
Q 44.578125 48.1875 50.953125 41.515625 
Q 57.328125 34.859375 57.328125 23.390625 
Q 57.328125 12.15625 50.6875 5.359375 
Q 44.046875 -1.421875 33.015625 -1.421875 
Q 20.359375 -1.421875 13.671875 8.265625 
Q 6.984375 17.96875 6.984375 36.375 
Q 6.984375 53.65625 15.1875 63.9375 
Q 23.390625 74.21875 37.203125 74.21875 
Q 40.921875 74.21875 44.703125 73.484375 
Q 48.484375 72.75 52.59375 71.296875 
z
" id="DejaVuSans-36"/>
      </defs>
      <g transform="translate(76.607088 322.182437)scale(0.1 -0.1)">
       <use xlink:href="#DejaVuSans-2212"/>
       <use x="83.789062" xlink:href="#DejaVuSans-36"/>
      </g>
     </g>
    </g>
    <g id="xtick_2">
     <g id="line2d_2">
      <g>
       <use style="stroke:#000000;stroke-width:0.8;" x="134.705455" xlink:href="#m5de484112b" y="307.584"/>
      </g>
     </g>
     <g id="text_2">
      <!-- −4 -->
      <defs>
       <path d="M 37.796875 64.3125 
L 12.890625 25.390625 
L 37.796875 25.390625 
z
M 35.203125 72.90625 
L 47.609375 72.90625 
L 47.609375 25.390625 
L 58.015625 25.390625 
L 58.015625 17.1875 
L 47.609375 17.1875 
L 47.609375 0 
L 37.796875 0 
L 37.796875 17.1875 
L 4.890625 17.1875 
L 4.890625 26.703125 
z
" id="DejaVuSans-34"/>
      </defs>
      <g transform="translate(127.334361 322.182437)scale(0.1 -0.1)">
       <use xlink:href="#DejaVuSans-2212"/>
       <use x="83.789062" xlink:href="#DejaVuSans-34"/>
      </g>
     </g>
    </g>
    <g id="xtick_3">
     <g id="line2d_3">
      <g>
       <use style="stroke:#000000;stroke-width:0.8;" x="185.432727" xlink:href="#m5de484112b" y="307.584"/>
      </g>
     </g>
     <g id="text_3">
      <!-- −2 -->
      <defs>
       <path d="M 19.1875 8.296875 
L 53.609375 8.296875 
L 53.609375 0 
L 7.328125 0 
L 7.328125 8.296875 
Q 12.9375 14.109375 22.625 23.890625 
Q 32.328125 33.6875 34.8125 36.53125 
Q 39.546875 41.84375 41.421875 45.53125 
Q 43.3125 49.21875 43.3125 52.78125 
Q 43.3125 58.59375 39.234375 62.25 
Q 35.15625 65.921875 28.609375 65.921875 
Q 23.96875 65.921875 18.8125 64.3125 
Q 13.671875 62.703125 7.8125 59.421875 
L 7.8125 69.390625 
Q 13.765625 71.78125 18.9375 73 
Q 24.125 74.21875 28.421875 74.21875 
Q 39.75 74.21875 46.484375 68.546875 
Q 53.21875 62.890625 53.21875 53.421875 
Q 53.21875 48.921875 51.53125 44.890625 
Q 49.859375 40.875 45.40625 35.40625 
Q 44.1875 33.984375 37.640625 27.21875 
Q 31.109375 20.453125 19.1875 8.296875 
z
" id="DejaVuSans-32"/>
      </defs>
      <g transform="translate(178.061634 322.182437)scale(0.1 -0.1)">
       <use xlink:href="#DejaVuSans-2212"/>
       <use x="83.789062" xlink:href="#DejaVuSans-32"/>
      </g>
     </g>
    </g>
    <g id="xtick_4">
     <g id="line2d_4">
      <g>
       <use style="stroke:#000000;stroke-width:0.8;" x="236.16" xlink:href="#m5de484112b" y="307.584"/>
      </g>
     </g>
     <g id="text_4">
      <!-- 0 -->
      <defs>
       <path d="M 31.78125 66.40625 
Q 24.171875 66.40625 20.328125 58.90625 
Q 16.5 51.421875 16.5 36.375 
Q 16.5 21.390625 20.328125 13.890625 
Q 24.171875 6.390625 31.78125 6.390625 
Q 39.453125 6.390625 43.28125 13.890625 
Q 47.125 21.390625 47.125 36.375 
Q 47.125 51.421875 43.28125 58.90625 
Q 39.453125 66.40625 31.78125 66.40625 
z
M 31.78125 74.21875 
Q 44.046875 74.21875 50.515625 64.515625 
Q 56.984375 54.828125 56.984375 36.375 
Q 56.984375 17.96875 50.515625 8.265625 
Q 44.046875 -1.421875 31.78125 -1.421875 
Q 19.53125 -1.421875 13.0625 8.265625 
Q 6.59375 17.96875 6.59375 36.375 
Q 6.59375 54.828125 13.0625 64.515625 
Q 19.53125 74.21875 31.78125 74.21875 
z
" id="DejaVuSans-30"/>
      </defs>
      <g transform="translate(232.97875 322.182437)scale(0.1 -0.1)">
       <use xlink:href="#DejaVuSans-30"/>
      </g>
     </g>
    </g>
    <g id="xtick_5">
     <g id="line2d_5">
      <g>
       <use style="stroke:#000000;stroke-width:0.8;" x="286.887273" xlink:href="#m5de484112b" y="307.584"/>
      </g>
     </g>
     <g id="text_5">
      <!-- 2 -->
      <g transform="translate(283.706023 322.182437)scale(0.1 -0.1)">
       <use xlink:href="#DejaVuSans-32"/>
      </g>
     </g>
    </g>
    <g id="xtick_6">
     <g id="line2d_6">
      <g>
       <use style="stroke:#000000;stroke-width:0.8;" x="337.614545" xlink:href="#m5de484112b" y="307.584"/>
      </g>
     </g>
     <g id="text_6">
      <!-- 4 -->
      <g transform="translate(334.433295 322.182437)scale(0.1 -0.1)">
       <use xlink:href="#DejaVuSans-34"/>
      </g>
     </g>
    </g>
    <g id="xtick_7">
     <g id="line2d_7">
      <g>
       <use style="stroke:#000000;stroke-width:0.8;" x="388.341818" xlink:href="#m5de484112b" y="307.584"/>
      </g>
     </g>
     <g id="text_7">
      <!-- 6 -->
      <g transform="translate(385.160568 322.182437)scale(0.1 -0.1)">
       <use xlink:href="#DejaVuSans-36"/>
      </g>
     </g>
    </g>
   </g>
   <g id="matplotlib.axis_2">
    <g id="ytick_1">
     <g id="line2d_8">
      <defs>
       <path d="M 0 0 
L -3.5 0 
" id="md411e55801" style="stroke:#000000;stroke-width:0.8;"/>
      </defs>
      <g>
       <use style="stroke:#000000;stroke-width:0.8;" x="57.6" xlink:href="#md411e55801" y="295.488"/>
      </g>
     </g>
     <g id="text_8">
      <!-- −1.00 -->
      <defs>
       <path d="M 12.40625 8.296875 
L 28.515625 8.296875 
L 28.515625 63.921875 
L 10.984375 60.40625 
L 10.984375 69.390625 
L 28.421875 72.90625 
L 38.28125 72.90625 
L 38.28125 8.296875 
L 54.390625 8.296875 
L 54.390625 0 
L 12.40625 0 
z
" id="DejaVuSans-31"/>
       <path d="M 10.6875 12.40625 
L 21 12.40625 
L 21 0 
L 10.6875 0 
z
" id="DejaVuSans-2e"/>
      </defs>
      <g transform="translate(19.954687 299.287219)scale(0.1 -0.1)">
       <use xlink:href="#DejaVuSans-2212"/>
       <use x="83.789062" xlink:href="#DejaVuSans-31"/>
       <use x="147.412109" xlink:href="#DejaVuSans-2e"/>
       <use x="179.199219" xlink:href="#DejaVuSans-30"/>
       <use x="242.822266" xlink:href="#DejaVuSans-30"/>
      </g>
     </g>
    </g>
    <g id="ytick_2">
     <g id="line2d_9">
      <g>
       <use style="stroke:#000000;stroke-width:0.8;" x="57.6" xlink:href="#md411e55801" y="265.248"/>
      </g>
     </g>
     <g id="text_9">
      <!-- −0.75 -->
      <defs>
       <path d="M 8.203125 72.90625 
L 55.078125 72.90625 
L 55.078125 68.703125 
L 28.609375 0 
L 18.3125 0 
L 43.21875 64.59375 
L 8.203125 64.59375 
z
" id="DejaVuSans-37"/>
       <path d="M 10.796875 72.90625 
L 49.515625 72.90625 
L 49.515625 64.59375 
L 19.828125 64.59375 
L 19.828125 46.734375 
Q 21.96875 47.46875 24.109375 47.828125 
Q 26.265625 48.1875 28.421875 48.1875 
Q 40.625 48.1875 47.75 41.5 
Q 54.890625 34.8125 54.890625 23.390625 
Q 54.890625 11.625 47.5625 5.09375 
Q 40.234375 -1.421875 26.90625 -1.421875 
Q 22.3125 -1.421875 17.546875 -0.640625 
Q 12.796875 0.140625 7.71875 1.703125 
L 7.71875 11.625 
Q 12.109375 9.234375 16.796875 8.0625 
Q 21.484375 6.890625 26.703125 6.890625 
Q 35.15625 6.890625 40.078125 11.328125 
Q 45.015625 15.765625 45.015625 23.390625 
Q 45.015625 31 40.078125 35.4375 
Q 35.15625 39.890625 26.703125 39.890625 
Q 22.75 39.890625 18.8125 39.015625 
Q 14.890625 38.140625 10.796875 36.28125 
z
" id="DejaVuSans-35"/>
      </defs>
      <g transform="translate(19.954687 269.047219)scale(0.1 -0.1)">
       <use xlink:href="#DejaVuSans-2212"/>
       <use x="83.789062" xlink:href="#DejaVuSans-30"/>
       <use x="147.412109" xlink:href="#DejaVuSans-2e"/>
       <use x="179.199219" xlink:href="#DejaVuSans-37"/>
       <use x="242.822266" xlink:href="#DejaVuSans-35"/>
      </g>
     </g>
    </g>
    <g id="ytick_3">
     <g id="line2d_10">
      <g>
       <use style="stroke:#000000;stroke-width:0.8;" x="57.6" xlink:href="#md411e55801" y="235.008"/>
      </g>
     </g>
     <g id="text_10">
      <!-- −0.50 -->
      <g transform="translate(19.954687 238.807219)scale(0.1 -0.1)">
       <use xlink:href="#DejaVuSans-2212"/>
       <use x="83.789062" xlink:href="#DejaVuSans-30"/>
       <use x="147.412109" xlink:href="#DejaVuSans-2e"/>
       <use x="179.199219" xlink:href="#DejaVuSans-35"/>
       <use x="242.822266" xlink:href="#DejaVuSans-30"/>
      </g>
     </g>
    </g>
    <g id="ytick_4">
     <g id="line2d_11">
      <g>
       <use style="stroke:#000000;stroke-width:0.8;" x="57.6" xlink:href="#md411e55801" y="204.768"/>
      </g>
     </g>
     <g id="text_11">
      <!-- −0.25 -->
      <g transform="translate(19.954687 208.567219)scale(0.1 -0.1)">
       <use xlink:href="#DejaVuSans-2212"/>
       <use x="83.789062" xlink:href="#DejaVuSans-30"/>
       <use x="147.412109" xlink:href="#DejaVuSans-2e"/>
       <use x="179.199219" xlink:href="#DejaVuSans-32"/>
       <use x="242.822266" xlink:href="#DejaVuSans-35"/>
      </g>
     </g>
    </g>
    <g id="ytick_5">
     <g id="line2d_12">
      <g>
       <use style="stroke:#000000;stroke-width:0.8;" x="57.6" xlink:href="#md411e55801" y="174.528"/>
      </g>
     </g>
     <g id="text_12">
      <!-- 0.00 -->
      <g transform="translate(28.334375 178.327219)scale(0.1 -0.1)">
       <use xlink:href="#DejaVuSans-30"/>
       <use x="63.623047" xlink:href="#DejaVuSans-2e"/>
       <use x="95.410156" xlink:href="#DejaVuSans-30"/>
       <use x="159.033203" xlink:href="#DejaVuSans-30"/>
      </g>
     </g>
    </g>
    <g id="ytick_6">
     <g id="line2d_13">
      <g>
       <use style="stroke:#000000;stroke-width:0.8;" x="57.6" xlink:href="#md411e55801" y="144.288"/>
      </g>
     </g>
     <g id="text_13">
      <!-- 0.25 -->
      <g transform="translate(28.334375 148.087219)scale(0.1 -0.1)">
       <use xlink:href="#DejaVuSans-30"/>
       <use x="63.623047" xlink:href="#DejaVuSans-2e"/>
       <use x="95.410156" xlink:href="#DejaVuSans-32"/>
       <use x="159.033203" xlink:href="#DejaVuSans-35"/>
      </g>
     </g>
    </g>
    <g id="ytick_7">
     <g id="line2d_14">
      <g>
       <use style="stroke:#000000;stroke-width:0.8;" x="57.6" xlink:href="#md411e55801" y="114.048"/>
      </g>
     </g>
     <g id="text_14">
      <!-- 0.50 -->
      <g transform="translate(28.334375 117.847219)scale(0.1 -0.1)">
       <use xlink:href="#DejaVuSans-30"/>
       <use x="63.623047" xlink:href="#DejaVuSans-2e"/>
       <use x="95.410156" xlink:href="#DejaVuSans-35"/>
       <use x="159.033203" xlink:href="#DejaVuSans-30"/>
      </g>
     </g>
    </g>
    <g id="ytick_8">
     <g id="line2d_15">
      <g>
       <use style="stroke:#000000;stroke-width:0.8;" x="57.6" xlink:href="#md411e55801" y="83.808"/>
      </g>
     </g>
     <g id="text_15">
      <!-- 0.75 -->
      <g transform="translate(28.334375 87.607219)scale(0.1 -0.1)">
       <use xlink:href="#DejaVuSans-30"/>
       <use x="63.623047" xlink:href="#DejaVuSans-2e"/>
       <use x="95.410156" xlink:href="#DejaVuSans-37"/>
       <use x="159.033203" xlink:href="#DejaVuSans-35"/>
      </g>
     </g>
    </g>
    <g id="ytick_9">
     <g id="line2d_16">
      <g>
       <use style="stroke:#000000;stroke-width:0.8;" x="57.6" xlink:href="#md411e55801" y="53.568"/>
      </g>
     </g>
     <g id="text_16">
      <!-- 1.00 -->
      <g transform="translate(28.334375 57.367219)scale(0.1 -0.1)">
       <use xlink:href="#DejaVuSans-31"/>
       <use x="63.623047" xlink:href="#DejaVuSans-2e"/>
       <use x="95.410156" xlink:href="#DejaVuSans-30"/>
       <use x="159.033203" xlink:href="#DejaVuSans-30"/>
      </g>
     </g>
    </g>
   </g>
   <g id="line2d_17">
    <defs>
     <path d="M 0 1.5 
C 0.397805 1.5 0.77937 1.341951 1.06066 1.06066 
C 1.341951 0.77937 1.5 0.397805 1.5 0 
C 1.5 -0.397805 1.341951 -0.77937 1.06066 -1.06066 
C 0.77937 -1.341951 0.397805 -1.5 0 -1.5 
C -0.397805 -1.5 -0.77937 -1.341951 -1.06066 -1.06066 
C -1.341951 -0.77937 -1.5 -0.397805 -1.5 0 
C -1.5 0.397805 -1.341951 0.77937 -1.06066 1.06066 
C -0.77937 1.341951 -0.397805 1.5 0 1.5 
z
" id="mc62be71699" style="stroke:#1f77b4;"/>
    </defs>
    <g clip-path="url(#p2b29118bc6)">
     <use style="fill:#1f77b4;stroke:#1f77b4;" x="73.832727" xlink:href="#mc62be71699" y="295.488"/>
     <use style="fill:#1f77b4;stroke:#1f77b4;" x="76.369091" xlink:href="#mc62be71699" y="295.488"/>
     <use style="fill:#1f77b4;stroke:#1f77b4;" x="78.905455" xlink:href="#mc62be71699" y="295.488"/>
     <use style="fill:#1f77b4;stroke:#1f77b4;" x="81.441818" xlink:href="#mc62be71699" y="295.488"/>
     <use style="fill:#1f77b4;stroke:#1f77b4;" x="83.978182" xlink:href="#mc62be71699" y="295.488"/>
     <use style="fill:#1f77b4;stroke:#1f77b4;" x="86.514545" xlink:href="#mc62be71699" y="295.488"/>
     <use style="fill:#1f77b4;stroke:#1f77b4;" x="89.050909" xlink:href="#mc62be71699" y="295.488"/>
     <use style="fill:#1f77b4;stroke:#1f77b4;" x="91.587273" xlink:href="#mc62be71699" y="295.488"/>
     <use style="fill:#1f77b4;stroke:#1f77b4;" x="94.123636" xlink:href="#mc62be71699" y="295.488"/>
     <use style="fill:#1f77b4;stroke:#1f77b4;" x="96.66" xlink:href="#mc62be71699" y="295.488"/>
     <use style="fill:#1f77b4;stroke:#1f77b4;" x="99.196364" xlink:href="#mc62be71699" y="295.488"/>
     <use style="fill:#1f77b4;stroke:#1f77b4;" x="101.732727" xlink:href="#mc62be71699" y="295.488"/>
     <use style="fill:#1f77b4;stroke:#1f77b4;" x="104.269091" xlink:href="#mc62be71699" y="295.488"/>
     <use style="fill:#1f77b4;stroke:#1f77b4;" x="106.805455" xlink:href="#mc62be71699" y="295.488"/>
     <use style="fill:#1f77b4;stroke:#1f77b4;" x="109.341818" xlink:href="#mc62be71699" y="295.488"/>
     <use style="fill:#1f77b4;stroke:#1f77b4;" x="111.878182" xlink:href="#mc62be71699" y="295.488"/>
     <use style="fill:#1f77b4;stroke:#1f77b4;" x="114.414545" xlink:href="#mc62be71699" y="295.488"/>
     <use style="fill:#1f77b4;stroke:#1f77b4;" x="116.950909" xlink:href="#mc62be71699" y="295.488"/>
     <use style="fill:#1f77b4;stroke:#1f77b4;" x="119.487273" xlink:href="#mc62be71699" y="295.488"/>
     <use style="fill:#1f77b4;stroke:#1f77b4;" x="122.023636" xlink:href="#mc62be71699" y="295.488"/>
     <use style="fill:#1f77b4;stroke:#1f77b4;" x="124.56" xlink:href="#mc62be71699" y="295.488"/>
     <use style="fill:#1f77b4;stroke:#1f77b4;" x="127.096364" xlink:href="#mc62be71699" y="295.488"/>
     <use style="fill:#1f77b4;stroke:#1f77b4;" x="129.632727" xlink:href="#mc62be71699" y="295.488"/>
     <use style="fill:#1f77b4;stroke:#1f77b4;" x="132.169091" xlink:href="#mc62be71699" y="295.488"/>
     <use style="fill:#1f77b4;stroke:#1f77b4;" x="134.705455" xlink:href="#mc62be71699" y="295.488"/>
     <use style="fill:#1f77b4;stroke:#1f77b4;" x="137.241818" xlink:href="#mc62be71699" y="295.488"/>
     <use style="fill:#1f77b4;stroke:#1f77b4;" x="139.778182" xlink:href="#mc62be71699" y="295.488"/>
     <use style="fill:#1f77b4;stroke:#1f77b4;" x="142.314545" xlink:href="#mc62be71699" y="295.488"/>
     <use style="fill:#1f77b4;stroke:#1f77b4;" x="144.850909" xlink:href="#mc62be71699" y="295.488"/>
     <use style="fill:#1f77b4;stroke:#1f77b4;" x="147.387273" xlink:href="#mc62be71699" y="295.488"/>
     <use style="fill:#1f77b4;stroke:#1f77b4;" x="149.923636" xlink:href="#mc62be71699" y="295.488"/>
     <use style="fill:#1f77b4;stroke:#1f77b4;" x="152.46" xlink:href="#mc62be71699" y="295.488"/>
     <use style="fill:#1f77b4;stroke:#1f77b4;" x="154.996364" xlink:href="#mc62be71699" y="295.488"/>
     <use style="fill:#1f77b4;stroke:#1f77b4;" x="157.532727" xlink:href="#mc62be71699" y="295.488"/>
     <use style="fill:#1f77b4;stroke:#1f77b4;" x="160.069091" xlink:href="#mc62be71699" y="295.488"/>
     <use style="fill:#1f77b4;stroke:#1f77b4;" x="162.605455" xlink:href="#mc62be71699" y="295.488"/>
     <use style="fill:#1f77b4;stroke:#1f77b4;" x="165.141818" xlink:href="#mc62be71699" y="295.488"/>
     <use style="fill:#1f77b4;stroke:#1f77b4;" x="167.678182" xlink:href="#mc62be71699" y="295.488"/>
     <use style="fill:#1f77b4;stroke:#1f77b4;" x="170.214545" xlink:href="#mc62be71699" y="295.488"/>
     <use style="fill:#1f77b4;stroke:#1f77b4;" x="172.750909" xlink:href="#mc62be71699" y="295.488"/>
     <use style="fill:#1f77b4;stroke:#1f77b4;" x="175.287273" xlink:href="#mc62be71699" y="295.488"/>
     <use style="fill:#1f77b4;stroke:#1f77b4;" x="177.823636" xlink:href="#mc62be71699" y="295.488"/>
     <use style="fill:#1f77b4;stroke:#1f77b4;" x="180.36" xlink:href="#mc62be71699" y="295.488"/>
     <use style="fill:#1f77b4;stroke:#1f77b4;" x="182.896364" xlink:href="#mc62be71699" y="295.488"/>
     <use style="fill:#1f77b4;stroke:#1f77b4;" x="185.432727" xlink:href="#mc62be71699" y="295.488"/>
     <use style="fill:#1f77b4;stroke:#1f77b4;" x="187.969091" xlink:href="#mc62be71699" y="295.488"/>
     <use style="fill:#1f77b4;stroke:#1f77b4;" x="190.505455" xlink:href="#mc62be71699" y="295.488"/>
     <use style="fill:#1f77b4;stroke:#1f77b4;" x="193.041818" xlink:href="#mc62be71699" y="295.488"/>
     <use style="fill:#1f77b4;stroke:#1f77b4;" x="195.578182" xlink:href="#mc62be71699" y="295.488"/>
     <use style="fill:#1f77b4;stroke:#1f77b4;" x="198.114545" xlink:href="#mc62be71699" y="295.488"/>
     <use style="fill:#1f77b4;stroke:#1f77b4;" x="200.650909" xlink:href="#mc62be71699" y="295.488"/>
     <use style="fill:#1f77b4;stroke:#1f77b4;" x="203.187273" xlink:href="#mc62be71699" y="295.488"/>
     <use style="fill:#1f77b4;stroke:#1f77b4;" x="205.723636" xlink:href="#mc62be71699" y="295.488"/>
     <use style="fill:#1f77b4;stroke:#1f77b4;" x="208.26" xlink:href="#mc62be71699" y="295.488"/>
     <use style="fill:#1f77b4;stroke:#1f77b4;" x="210.796364" xlink:href="#mc62be71699" y="295.488"/>
     <use style="fill:#1f77b4;stroke:#1f77b4;" x="213.332727" xlink:href="#mc62be71699" y="295.488"/>
     <use style="fill:#1f77b4;stroke:#1f77b4;" x="215.869091" xlink:href="#mc62be71699" y="295.488"/>
     <use style="fill:#1f77b4;stroke:#1f77b4;" x="218.405455" xlink:href="#mc62be71699" y="295.488"/>
     <use style="fill:#1f77b4;stroke:#1f77b4;" x="220.941818" xlink:href="#mc62be71699" y="295.488"/>
     <use style="fill:#1f77b4;stroke:#1f77b4;" x="223.478182" xlink:href="#mc62be71699" y="295.488"/>
     <use style="fill:#1f77b4;stroke:#1f77b4;" x="226.014545" xlink:href="#mc62be71699" y="295.488"/>
     <use style="fill:#1f77b4;stroke:#1f77b4;" x="228.550909" xlink:href="#mc62be71699" y="295.488"/>
     <use style="fill:#1f77b4;stroke:#1f77b4;" x="231.087273" xlink:href="#mc62be71699" y="295.488"/>
     <use style="fill:#1f77b4;stroke:#1f77b4;" x="233.623636" xlink:href="#mc62be71699" y="295.488"/>
     <use style="fill:#1f77b4;stroke:#1f77b4;" x="236.16" xlink:href="#mc62be71699" y="174.528"/>
     <use style="fill:#1f77b4;stroke:#1f77b4;" x="238.696364" xlink:href="#mc62be71699" y="53.568"/>
     <use style="fill:#1f77b4;stroke:#1f77b4;" x="241.232727" xlink:href="#mc62be71699" y="53.568"/>
     <use style="fill:#1f77b4;stroke:#1f77b4;" x="243.769091" xlink:href="#mc62be71699" y="53.568"/>
     <use style="fill:#1f77b4;stroke:#1f77b4;" x="246.305455" xlink:href="#mc62be71699" y="53.568"/>
     <use style="fill:#1f77b4;stroke:#1f77b4;" x="248.841818" xlink:href="#mc62be71699" y="53.568"/>
     <use style="fill:#1f77b4;stroke:#1f77b4;" x="251.378182" xlink:href="#mc62be71699" y="53.568"/>
     <use style="fill:#1f77b4;stroke:#1f77b4;" x="253.914545" xlink:href="#mc62be71699" y="53.568"/>
     <use style="fill:#1f77b4;stroke:#1f77b4;" x="256.450909" xlink:href="#mc62be71699" y="53.568"/>
     <use style="fill:#1f77b4;stroke:#1f77b4;" x="258.987273" xlink:href="#mc62be71699" y="53.568"/>
     <use style="fill:#1f77b4;stroke:#1f77b4;" x="261.523636" xlink:href="#mc62be71699" y="53.568"/>
     <use style="fill:#1f77b4;stroke:#1f77b4;" x="264.06" xlink:href="#mc62be71699" y="53.568"/>
     <use style="fill:#1f77b4;stroke:#1f77b4;" x="266.596364" xlink:href="#mc62be71699" y="53.568"/>
     <use style="fill:#1f77b4;stroke:#1f77b4;" x="269.132727" xlink:href="#mc62be71699" y="53.568"/>
     <use style="fill:#1f77b4;stroke:#1f77b4;" x="271.669091" xlink:href="#mc62be71699" y="53.568"/>
     <use style="fill:#1f77b4;stroke:#1f77b4;" x="274.205455" xlink:href="#mc62be71699" y="53.568"/>
     <use style="fill:#1f77b4;stroke:#1f77b4;" x="276.741818" xlink:href="#mc62be71699" y="53.568"/>
     <use style="fill:#1f77b4;stroke:#1f77b4;" x="279.278182" xlink:href="#mc62be71699" y="53.568"/>
     <use style="fill:#1f77b4;stroke:#1f77b4;" x="281.814545" xlink:href="#mc62be71699" y="53.568"/>
     <use style="fill:#1f77b4;stroke:#1f77b4;" x="284.350909" xlink:href="#mc62be71699" y="53.568"/>
     <use style="fill:#1f77b4;stroke:#1f77b4;" x="286.887273" xlink:href="#mc62be71699" y="53.568"/>
     <use style="fill:#1f77b4;stroke:#1f77b4;" x="289.423636" xlink:href="#mc62be71699" y="53.568"/>
     <use style="fill:#1f77b4;stroke:#1f77b4;" x="291.96" xlink:href="#mc62be71699" y="53.568"/>
     <use style="fill:#1f77b4;stroke:#1f77b4;" x="294.496364" xlink:href="#mc62be71699" y="53.568"/>
     <use style="fill:#1f77b4;stroke:#1f77b4;" x="297.032727" xlink:href="#mc62be71699" y="53.568"/>
     <use style="fill:#1f77b4;stroke:#1f77b4;" x="299.569091" xlink:href="#mc62be71699" y="53.568"/>
     <use style="fill:#1f77b4;stroke:#1f77b4;" x="302.105455" xlink:href="#mc62be71699" y="53.568"/>
     <use style="fill:#1f77b4;stroke:#1f77b4;" x="304.641818" xlink:href="#mc62be71699" y="53.568"/>
     <use style="fill:#1f77b4;stroke:#1f77b4;" x="307.178182" xlink:href="#mc62be71699" y="53.568"/>
     <use style="fill:#1f77b4;stroke:#1f77b4;" x="309.714545" xlink:href="#mc62be71699" y="53.568"/>
     <use style="fill:#1f77b4;stroke:#1f77b4;" x="312.250909" xlink:href="#mc62be71699" y="53.568"/>
     <use style="fill:#1f77b4;stroke:#1f77b4;" x="314.787273" xlink:href="#mc62be71699" y="53.568"/>
     <use style="fill:#1f77b4;stroke:#1f77b4;" x="317.323636" xlink:href="#mc62be71699" y="53.568"/>
     <use style="fill:#1f77b4;stroke:#1f77b4;" x="319.86" xlink:href="#mc62be71699" y="53.568"/>
     <use style="fill:#1f77b4;stroke:#1f77b4;" x="322.396364" xlink:href="#mc62be71699" y="53.568"/>
     <use style="fill:#1f77b4;stroke:#1f77b4;" x="324.932727" xlink:href="#mc62be71699" y="53.568"/>
     <use style="fill:#1f77b4;stroke:#1f77b4;" x="327.469091" xlink:href="#mc62be71699" y="53.568"/>
     <use style="fill:#1f77b4;stroke:#1f77b4;" x="330.005455" xlink:href="#mc62be71699" y="53.568"/>
     <use style="fill:#1f77b4;stroke:#1f77b4;" x="332.541818" xlink:href="#mc62be71699" y="53.568"/>
     <use style="fill:#1f77b4;stroke:#1f77b4;" x="335.078182" xlink:href="#mc62be71699" y="53.568"/>
     <use style="fill:#1f77b4;stroke:#1f77b4;" x="337.614545" xlink:href="#mc62be71699" y="53.568"/>
     <use style="fill:#1f77b4;stroke:#1f77b4;" x="340.150909" xlink:href="#mc62be71699" y="53.568"/>
     <use style="fill:#1f77b4;stroke:#1f77b4;" x="342.687273" xlink:href="#mc62be71699" y="53.568"/>
     <use style="fill:#1f77b4;stroke:#1f77b4;" x="345.223636" xlink:href="#mc62be71699" y="53.568"/>
     <use style="fill:#1f77b4;stroke:#1f77b4;" x="347.76" xlink:href="#mc62be71699" y="53.568"/>
     <use style="fill:#1f77b4;stroke:#1f77b4;" x="350.296364" xlink:href="#mc62be71699" y="53.568"/>
     <use style="fill:#1f77b4;stroke:#1f77b4;" x="352.832727" xlink:href="#mc62be71699" y="53.568"/>
     <use style="fill:#1f77b4;stroke:#1f77b4;" x="355.369091" xlink:href="#mc62be71699" y="53.568"/>
     <use style="fill:#1f77b4;stroke:#1f77b4;" x="357.905455" xlink:href="#mc62be71699" y="53.568"/>
     <use style="fill:#1f77b4;stroke:#1f77b4;" x="360.441818" xlink:href="#mc62be71699" y="53.568"/>
     <use style="fill:#1f77b4;stroke:#1f77b4;" x="362.978182" xlink:href="#mc62be71699" y="53.568"/>
     <use style="fill:#1f77b4;stroke:#1f77b4;" x="365.514545" xlink:href="#mc62be71699" y="53.568"/>
     <use style="fill:#1f77b4;stroke:#1f77b4;" x="368.050909" xlink:href="#mc62be71699" y="53.568"/>
     <use style="fill:#1f77b4;stroke:#1f77b4;" x="370.587273" xlink:href="#mc62be71699" y="53.568"/>
     <use style="fill:#1f77b4;stroke:#1f77b4;" x="373.123636" xlink:href="#mc62be71699" y="53.568"/>
     <use style="fill:#1f77b4;stroke:#1f77b4;" x="375.66" xlink:href="#mc62be71699" y="53.568"/>
     <use style="fill:#1f77b4;stroke:#1f77b4;" x="378.196364" xlink:href="#mc62be71699" y="53.568"/>
     <use style="fill:#1f77b4;stroke:#1f77b4;" x="380.732727" xlink:href="#mc62be71699" y="53.568"/>
     <use style="fill:#1f77b4;stroke:#1f77b4;" x="383.269091" xlink:href="#mc62be71699" y="53.568"/>
     <use style="fill:#1f77b4;stroke:#1f77b4;" x="385.805455" xlink:href="#mc62be71699" y="53.568"/>
     <use style="fill:#1f77b4;stroke:#1f77b4;" x="388.341818" xlink:href="#mc62be71699" y="53.568"/>
     <use style="fill:#1f77b4;stroke:#1f77b4;" x="390.878182" xlink:href="#mc62be71699" y="53.568"/>
     <use style="fill:#1f77b4;stroke:#1f77b4;" x="393.414545" xlink:href="#mc62be71699" y="53.568"/>
     <use style="fill:#1f77b4;stroke:#1f77b4;" x="395.950909" xlink:href="#mc62be71699" y="53.568"/>
     <use style="fill:#1f77b4;stroke:#1f77b4;" x="398.487273" xlink:href="#mc62be71699" y="53.568"/>
    </g>
   </g>
   <g id="patch_3">
    <path d="M 57.6 307.584 
L 57.6 41.472 
" style="fill:none;stroke:#000000;stroke-linecap:square;stroke-linejoin:miter;stroke-width:0.8;"/>
   </g>
   <g id="patch_4">
    <path d="M 414.72 307.584 
L 414.72 41.472 
" style="fill:none;stroke:#000000;stroke-linecap:square;stroke-linejoin:miter;stroke-width:0.8;"/>
   </g>
   <g id="patch_5">
    <path d="M 57.6 307.584 
L 414.72 307.584 
" style="fill:none;stroke:#000000;stroke-linecap:square;stroke-linejoin:miter;stroke-width:0.8;"/>
   </g>
   <g id="patch_6">
    <path d="M 57.6 41.472 
L 414.72 41.472 
" style="fill:none;stroke:#000000;stroke-linecap:square;stroke-linejoin:miter;stroke-width:0.8;"/>
   </g>
  </g>
 </g>
 <defs>
  <clipPath id="p2b29118bc6">
   <rect height="266.112" width="357.12" x="57.6" y="41.472"/>
  </clipPath>
 </defs>
</svg>
