<?xml version="1.0" encoding="utf-8" standalone="no"?>
<!DOCTYPE svg PUBLIC "-//W3C//DTD SVG 1.1//EN"
  "http://www.w3.org/Graphics/SVG/1.1/DTD/svg11.dtd">
<!-- Created with matplotlib (http://matplotlib.org/) -->
<svg height="345.6pt" version="1.1" viewBox="0 0 460.8 345.6" width="460.8pt" xmlns="http://www.w3.org/2000/svg" xmlns:xlink="http://www.w3.org/1999/xlink">
 <defs>
  <style type="text/css">
*{stroke-linecap:butt;stroke-linejoin:round;}
  </style>
 </defs>
 <g id="figure_1">
  <g id="patch_1">
   <path d="M 0 345.6 
L 460.8 345.6 
L 460.8 0 
L 0 0 
z
" style="fill:#ffffff;"/>
  </g>
  <g id="axes_1">
   <g id="patch_2">
    <path d="M 57.6 266.688 
L 414.72 266.688 
L 414.72 82.368 
L 57.6 82.368 
z
" style="fill:#ffffff;"/>
   </g>
   <g id="matplotlib.axis_1">
    <g id="xtick_1">
     <g id="line2d_1">
      <defs>
       <path d="M 0 0 
L 0 3.5 
" id="m76cd0e7bcf" style="stroke:#000000;stroke-width:0.8;"/>
      </defs>
      <g>
       <use style="stroke:#000000;stroke-width:0.8;" x="63.36" xlink:href="#m76cd0e7bcf" y="266.688"/>
      </g>
     </g>
     <g id="text_1">
      <!-- −6 -->
      <defs>
       <path d="M 10.59375 35.5 
L 73.1875 35.5 
L 73.1875 27.203125 
L 10.59375 27.203125 
z
" id="DejaVuSans-2212"/>
       <path d="M 33.015625 40.375 
Q 26.375 40.375 22.484375 35.828125 
Q 18.609375 31.296875 18.609375 23.390625 
Q 18.609375 15.53125 22.484375 10.953125 
Q 26.375 6.390625 33.015625 6.390625 
Q 39.65625 6.390625 43.53125 10.953125 
Q 47.40625 15.53125 47.40625 23.390625 
Q 47.40625 31.296875 43.53125 35.828125 
Q 39.65625 40.375 33.015625 40.375 
z
M 52.59375 71.296875 
L 52.59375 62.3125 
Q 48.875 64.0625 45.09375 64.984375 
Q 41.3125 65.921875 37.59375 65.921875 
Q 27.828125 65.921875 22.671875 59.328125 
Q 17.53125 52.734375 16.796875 39.40625 
Q 19.671875 43.65625 24.015625 45.921875 
Q 28.375 48.1875 33.59375 48.1875 
Q 44.578125 48.1875 50.953125 41.515625 
Q 57.328125 34.859375 57.328125 23.390625 
Q 57.328125 12.15625 50.6875 5.359375 
Q 44.046875 -1.421875 33.015625 -1.421875 
Q 20.359375 -1.421875 13.671875 8.265625 
Q 6.984375 17.96875 6.984375 36.375 
Q 6.984375 53.65625 15.1875 63.9375 
Q 23.390625 74.21875 37.203125 74.21875 
Q 40.921875 74.21875 44.703125 73.484375 
Q 48.484375 72.75 52.59375 71.296875 
z
" id="DejaVuSans-36"/>
      </defs>
      <g transform="translate(55.988906 281.286437)scale(0.1 -0.1)">
       <use xlink:href="#DejaVuSans-2212"/>
       <use x="83.789062" xlink:href="#DejaVuSans-36"/>
      </g>
     </g>
    </g>
    <g id="xtick_2">
     <g id="line2d_2">
      <g>
       <use style="stroke:#000000;stroke-width:0.8;" x="120.96" xlink:href="#m76cd0e7bcf" y="266.688"/>
      </g>
     </g>
     <g id="text_2">
      <!-- −4 -->
      <defs>
       <path d="M 37.796875 64.3125 
L 12.890625 25.390625 
L 37.796875 25.390625 
z
M 35.203125 72.90625 
L 47.609375 72.90625 
L 47.609375 25.390625 
L 58.015625 25.390625 
L 58.015625 17.1875 
L 47.609375 17.1875 
L 47.609375 0 
L 37.796875 0 
L 37.796875 17.1875 
L 4.890625 17.1875 
L 4.890625 26.703125 
z
" id="DejaVuSans-34"/>
      </defs>
      <g transform="translate(113.588906 281.286437)scale(0.1 -0.1)">
       <use xlink:href="#DejaVuSans-2212"/>
       <use x="83.789062" xlink:href="#DejaVuSans-34"/>
      </g>
     </g>
    </g>
    <g id="xtick_3">
     <g id="line2d_3">
      <g>
       <use style="stroke:#000000;stroke-width:0.8;" x="178.56" xlink:href="#m76cd0e7bcf" y="266.688"/>
      </g>
     </g>
     <g id="text_3">
      <!-- −2 -->
      <defs>
       <path d="M 19.1875 8.296875 
L 53.609375 8.296875 
L 53.609375 0 
L 7.328125 0 
L 7.328125 8.296875 
Q 12.9375 14.109375 22.625 23.890625 
Q 32.328125 33.6875 34.8125 36.53125 
Q 39.546875 41.84375 41.421875 45.53125 
Q 43.3125 49.21875 43.3125 52.78125 
Q 43.3125 58.59375 39.234375 62.25 
Q 35.15625 65.921875 28.609375 65.921875 
Q 23.96875 65.921875 18.8125 64.3125 
Q 13.671875 62.703125 7.8125 59.421875 
L 7.8125 69.390625 
Q 13.765625 71.78125 18.9375 73 
Q 24.125 74.21875 28.421875 74.21875 
Q 39.75 74.21875 46.484375 68.546875 
Q 53.21875 62.890625 53.21875 53.421875 
Q 53.21875 48.921875 51.53125 44.890625 
Q 49.859375 40.875 45.40625 35.40625 
Q 44.1875 33.984375 37.640625 27.21875 
Q 31.109375 20.453125 19.1875 8.296875 
z
" id="DejaVuSans-32"/>
      </defs>
      <g transform="translate(171.188906 281.286437)scale(0.1 -0.1)">
       <use xlink:href="#DejaVuSans-2212"/>
       <use x="83.789062" xlink:href="#DejaVuSans-32"/>
      </g>
     </g>
    </g>
    <g id="xtick_4">
     <g id="line2d_4">
      <g>
       <use style="stroke:#000000;stroke-width:0.8;" x="236.16" xlink:href="#m76cd0e7bcf" y="266.688"/>
      </g>
     </g>
     <g id="text_4">
      <!-- 0 -->
      <defs>
       <path d="M 31.78125 66.40625 
Q 24.171875 66.40625 20.328125 58.90625 
Q 16.5 51.421875 16.5 36.375 
Q 16.5 21.390625 20.328125 13.890625 
Q 24.171875 6.390625 31.78125 6.390625 
Q 39.453125 6.390625 43.28125 13.890625 
Q 47.125 21.390625 47.125 36.375 
Q 47.125 51.421875 43.28125 58.90625 
Q 39.453125 66.40625 31.78125 66.40625 
z
M 31.78125 74.21875 
Q 44.046875 74.21875 50.515625 64.515625 
Q 56.984375 54.828125 56.984375 36.375 
Q 56.984375 17.96875 50.515625 8.265625 
Q 44.046875 -1.421875 31.78125 -1.421875 
Q 19.53125 -1.421875 13.0625 8.265625 
Q 6.59375 17.96875 6.59375 36.375 
Q 6.59375 54.828125 13.0625 64.515625 
Q 19.53125 74.21875 31.78125 74.21875 
z
" id="DejaVuSans-30"/>
      </defs>
      <g transform="translate(232.97875 281.286437)scale(0.1 -0.1)">
       <use xlink:href="#DejaVuSans-30"/>
      </g>
     </g>
    </g>
    <g id="xtick_5">
     <g id="line2d_5">
      <g>
       <use style="stroke:#000000;stroke-width:0.8;" x="293.76" xlink:href="#m76cd0e7bcf" y="266.688"/>
      </g>
     </g>
     <g id="text_5">
      <!-- 2 -->
      <g transform="translate(290.57875 281.286437)scale(0.1 -0.1)">
       <use xlink:href="#DejaVuSans-32"/>
      </g>
     </g>
    </g>
    <g id="xtick_6">
     <g id="line2d_6">
      <g>
       <use style="stroke:#000000;stroke-width:0.8;" x="351.36" xlink:href="#m76cd0e7bcf" y="266.688"/>
      </g>
     </g>
     <g id="text_6">
      <!-- 4 -->
      <g transform="translate(348.17875 281.286437)scale(0.1 -0.1)">
       <use xlink:href="#DejaVuSans-34"/>
      </g>
     </g>
    </g>
    <g id="xtick_7">
     <g id="line2d_7">
      <g>
       <use style="stroke:#000000;stroke-width:0.8;" x="408.96" xlink:href="#m76cd0e7bcf" y="266.688"/>
      </g>
     </g>
     <g id="text_7">
      <!-- 6 -->
      <g transform="translate(405.77875 281.286437)scale(0.1 -0.1)">
       <use xlink:href="#DejaVuSans-36"/>
      </g>
     </g>
    </g>
    <g id="text_8">
     <!-- x -->
     <defs>
      <path d="M 54.890625 54.6875 
L 35.109375 28.078125 
L 55.90625 0 
L 45.3125 0 
L 29.390625 21.484375 
L 13.484375 0 
L 2.875 0 
L 24.125 28.609375 
L 4.6875 54.6875 
L 15.28125 54.6875 
L 29.78125 35.203125 
L 44.28125 54.6875 
z
" id="DejaVuSans-78"/>
     </defs>
     <g transform="translate(233.200625 294.964562)scale(0.1 -0.1)">
      <use xlink:href="#DejaVuSans-78"/>
     </g>
    </g>
   </g>
   <g id="matplotlib.axis_2">
    <g id="ytick_1">
     <g id="line2d_8">
      <defs>
       <path d="M 0 0 
L -3.5 0 
" id="m15b19ba989" style="stroke:#000000;stroke-width:0.8;"/>
      </defs>
      <g>
       <use style="stroke:#000000;stroke-width:0.8;" x="57.6" xlink:href="#m15b19ba989" y="260.928"/>
      </g>
     </g>
     <g id="text_9">
      <!-- −3 -->
      <defs>
       <path d="M 40.578125 39.3125 
Q 47.65625 37.796875 51.625 33 
Q 55.609375 28.21875 55.609375 21.1875 
Q 55.609375 10.40625 48.1875 4.484375 
Q 40.765625 -1.421875 27.09375 -1.421875 
Q 22.515625 -1.421875 17.65625 -0.515625 
Q 12.796875 0.390625 7.625 2.203125 
L 7.625 11.71875 
Q 11.71875 9.328125 16.59375 8.109375 
Q 21.484375 6.890625 26.8125 6.890625 
Q 36.078125 6.890625 40.9375 10.546875 
Q 45.796875 14.203125 45.796875 21.1875 
Q 45.796875 27.640625 41.28125 31.265625 
Q 36.765625 34.90625 28.71875 34.90625 
L 20.21875 34.90625 
L 20.21875 43.015625 
L 29.109375 43.015625 
Q 36.375 43.015625 40.234375 45.921875 
Q 44.09375 48.828125 44.09375 54.296875 
Q 44.09375 59.90625 40.109375 62.90625 
Q 36.140625 65.921875 28.71875 65.921875 
Q 24.65625 65.921875 20.015625 65.03125 
Q 15.375 64.15625 9.8125 62.3125 
L 9.8125 71.09375 
Q 15.4375 72.65625 20.34375 73.4375 
Q 25.25 74.21875 29.59375 74.21875 
Q 40.828125 74.21875 47.359375 69.109375 
Q 53.90625 64.015625 53.90625 55.328125 
Q 53.90625 49.265625 50.4375 45.09375 
Q 46.96875 40.921875 40.578125 39.3125 
z
" id="DejaVuSans-33"/>
      </defs>
      <g transform="translate(35.857813 264.727219)scale(0.1 -0.1)">
       <use xlink:href="#DejaVuSans-2212"/>
       <use x="83.789062" xlink:href="#DejaVuSans-33"/>
      </g>
     </g>
    </g>
    <g id="ytick_2">
     <g id="line2d_9">
      <g>
       <use style="stroke:#000000;stroke-width:0.8;" x="57.6" xlink:href="#m15b19ba989" y="232.128"/>
      </g>
     </g>
     <g id="text_10">
      <!-- −2 -->
      <g transform="translate(35.857813 235.927219)scale(0.1 -0.1)">
       <use xlink:href="#DejaVuSans-2212"/>
       <use x="83.789062" xlink:href="#DejaVuSans-32"/>
      </g>
     </g>
    </g>
    <g id="ytick_3">
     <g id="line2d_10">
      <g>
       <use style="stroke:#000000;stroke-width:0.8;" x="57.6" xlink:href="#m15b19ba989" y="203.328"/>
      </g>
     </g>
     <g id="text_11">
      <!-- −1 -->
      <defs>
       <path d="M 12.40625 8.296875 
L 28.515625 8.296875 
L 28.515625 63.921875 
L 10.984375 60.40625 
L 10.984375 69.390625 
L 28.421875 72.90625 
L 38.28125 72.90625 
L 38.28125 8.296875 
L 54.390625 8.296875 
L 54.390625 0 
L 12.40625 0 
z
" id="DejaVuSans-31"/>
      </defs>
      <g transform="translate(35.857813 207.127219)scale(0.1 -0.1)">
       <use xlink:href="#DejaVuSans-2212"/>
       <use x="83.789062" xlink:href="#DejaVuSans-31"/>
      </g>
     </g>
    </g>
    <g id="ytick_4">
     <g id="line2d_11">
      <g>
       <use style="stroke:#000000;stroke-width:0.8;" x="57.6" xlink:href="#m15b19ba989" y="174.528"/>
      </g>
     </g>
     <g id="text_12">
      <!-- 0 -->
      <g transform="translate(44.2375 178.327219)scale(0.1 -0.1)">
       <use xlink:href="#DejaVuSans-30"/>
      </g>
     </g>
    </g>
    <g id="ytick_5">
     <g id="line2d_12">
      <g>
       <use style="stroke:#000000;stroke-width:0.8;" x="57.6" xlink:href="#m15b19ba989" y="145.728"/>
      </g>
     </g>
     <g id="text_13">
      <!-- 1 -->
      <g transform="translate(44.2375 149.527219)scale(0.1 -0.1)">
       <use xlink:href="#DejaVuSans-31"/>
      </g>
     </g>
    </g>
    <g id="ytick_6">
     <g id="line2d_13">
      <g>
       <use style="stroke:#000000;stroke-width:0.8;" x="57.6" xlink:href="#m15b19ba989" y="116.928"/>
      </g>
     </g>
     <g id="text_14">
      <!-- 2 -->
      <g transform="translate(44.2375 120.727219)scale(0.1 -0.1)">
       <use xlink:href="#DejaVuSans-32"/>
      </g>
     </g>
    </g>
    <g id="ytick_7">
     <g id="line2d_14">
      <g>
       <use style="stroke:#000000;stroke-width:0.8;" x="57.6" xlink:href="#m15b19ba989" y="88.128"/>
      </g>
     </g>
     <g id="text_15">
      <!-- 3 -->
      <g transform="translate(44.2375 91.927219)scale(0.1 -0.1)">
       <use xlink:href="#DejaVuSans-33"/>
      </g>
     </g>
    </g>
   </g>
   <g id="line2d_15">
    <defs>
     <path d="M 0 3 
C 0.795609 3 1.55874 2.683901 2.12132 2.12132 
C 2.683901 1.55874 3 0.795609 3 0 
C 3 -0.795609 2.683901 -1.55874 2.12132 -2.12132 
C 1.55874 -2.683901 0.795609 -3 0 -3 
C -0.795609 -3 -1.55874 -2.683901 -2.12132 -2.12132 
C -2.683901 -1.55874 -3 -0.795609 -3 0 
C -3 0.795609 -2.683901 1.55874 -2.12132 2.12132 
C -1.55874 2.683901 -0.795609 3 0 3 
z
" id="m6dba4313f5" style="stroke:#ff0000;"/>
    </defs>
    <g clip-path="url(#pedd9a91382)">
     <use style="fill:#ff0000;stroke:#ff0000;" x="40.32" xlink:href="#m6dba4313f5" y="111.168"/>
     <use style="fill:#ff0000;stroke:#ff0000;" x="46.08" xlink:href="#m6dba4313f5" y="105.408"/>
     <use style="fill:#ff0000;stroke:#ff0000;" x="51.84" xlink:href="#m6dba4313f5" y="99.648"/>
     <use style="fill:#ff0000;stroke:#ff0000;" x="57.6" xlink:href="#m6dba4313f5" y="93.888"/>
     <use style="fill:#ff0000;stroke:#ff0000;" x="63.36" xlink:href="#m6dba4313f5" y="174.528"/>
     <use style="fill:#ff0000;stroke:#ff0000;" x="69.12" xlink:href="#m6dba4313f5" y="168.768"/>
     <use style="fill:#ff0000;stroke:#ff0000;" x="74.88" xlink:href="#m6dba4313f5" y="163.008"/>
     <use style="fill:#ff0000;stroke:#ff0000;" x="80.64" xlink:href="#m6dba4313f5" y="157.248"/>
     <use style="fill:#ff0000;stroke:#ff0000;" x="86.4" xlink:href="#m6dba4313f5" y="151.488"/>
     <use style="fill:#ff0000;stroke:#ff0000;" x="92.16" xlink:href="#m6dba4313f5" y="145.728"/>
     <use style="fill:#ff0000;stroke:#ff0000;" x="97.92" xlink:href="#m6dba4313f5" y="139.968"/>
     <use style="fill:#ff0000;stroke:#ff0000;" x="103.68" xlink:href="#m6dba4313f5" y="134.208"/>
     <use style="fill:#ff0000;stroke:#ff0000;" x="109.44" xlink:href="#m6dba4313f5" y="128.448"/>
     <use style="fill:#ff0000;stroke:#ff0000;" x="115.2" xlink:href="#m6dba4313f5" y="122.688"/>
     <use style="fill:#ff0000;stroke:#ff0000;" x="120.96" xlink:href="#m6dba4313f5" y="116.928"/>
     <use style="fill:#ff0000;stroke:#ff0000;" x="126.72" xlink:href="#m6dba4313f5" y="111.168"/>
     <use style="fill:#ff0000;stroke:#ff0000;" x="132.48" xlink:href="#m6dba4313f5" y="105.408"/>
     <use style="fill:#ff0000;stroke:#ff0000;" x="138.24" xlink:href="#m6dba4313f5" y="99.648"/>
     <use style="fill:#ff0000;stroke:#ff0000;" x="144" xlink:href="#m6dba4313f5" y="93.888"/>
     <use style="fill:#ff0000;stroke:#ff0000;" x="149.76" xlink:href="#m6dba4313f5" y="174.528"/>
     <use style="fill:#ff0000;stroke:#ff0000;" x="155.52" xlink:href="#m6dba4313f5" y="168.768"/>
     <use style="fill:#ff0000;stroke:#ff0000;" x="161.28" xlink:href="#m6dba4313f5" y="163.008"/>
     <use style="fill:#ff0000;stroke:#ff0000;" x="167.04" xlink:href="#m6dba4313f5" y="157.248"/>
     <use style="fill:#ff0000;stroke:#ff0000;" x="172.8" xlink:href="#m6dba4313f5" y="151.488"/>
     <use style="fill:#ff0000;stroke:#ff0000;" x="178.56" xlink:href="#m6dba4313f5" y="145.728"/>
     <use style="fill:#ff0000;stroke:#ff0000;" x="184.32" xlink:href="#m6dba4313f5" y="139.968"/>
     <use style="fill:#ff0000;stroke:#ff0000;" x="190.08" xlink:href="#m6dba4313f5" y="134.208"/>
     <use style="fill:#ff0000;stroke:#ff0000;" x="195.84" xlink:href="#m6dba4313f5" y="128.448"/>
     <use style="fill:#ff0000;stroke:#ff0000;" x="201.6" xlink:href="#m6dba4313f5" y="122.688"/>
     <use style="fill:#ff0000;stroke:#ff0000;" x="207.36" xlink:href="#m6dba4313f5" y="116.928"/>
     <use style="fill:#ff0000;stroke:#ff0000;" x="213.12" xlink:href="#m6dba4313f5" y="111.168"/>
     <use style="fill:#ff0000;stroke:#ff0000;" x="218.88" xlink:href="#m6dba4313f5" y="105.408"/>
     <use style="fill:#ff0000;stroke:#ff0000;" x="224.64" xlink:href="#m6dba4313f5" y="99.648"/>
     <use style="fill:#ff0000;stroke:#ff0000;" x="230.4" xlink:href="#m6dba4313f5" y="93.888"/>
     <use style="fill:#ff0000;stroke:#ff0000;" x="236.16" xlink:href="#m6dba4313f5" y="174.528"/>
     <use style="fill:#ff0000;stroke:#ff0000;" x="241.92" xlink:href="#m6dba4313f5" y="168.768"/>
     <use style="fill:#ff0000;stroke:#ff0000;" x="247.68" xlink:href="#m6dba4313f5" y="163.008"/>
     <use style="fill:#ff0000;stroke:#ff0000;" x="253.44" xlink:href="#m6dba4313f5" y="157.248"/>
     <use style="fill:#ff0000;stroke:#ff0000;" x="259.2" xlink:href="#m6dba4313f5" y="151.488"/>
     <use style="fill:#ff0000;stroke:#ff0000;" x="264.96" xlink:href="#m6dba4313f5" y="145.728"/>
     <use style="fill:#ff0000;stroke:#ff0000;" x="270.72" xlink:href="#m6dba4313f5" y="139.968"/>
     <use style="fill:#ff0000;stroke:#ff0000;" x="276.48" xlink:href="#m6dba4313f5" y="134.208"/>
     <use style="fill:#ff0000;stroke:#ff0000;" x="282.24" xlink:href="#m6dba4313f5" y="128.448"/>
     <use style="fill:#ff0000;stroke:#ff0000;" x="288" xlink:href="#m6dba4313f5" y="122.688"/>
     <use style="fill:#ff0000;stroke:#ff0000;" x="293.76" xlink:href="#m6dba4313f5" y="116.928"/>
     <use style="fill:#ff0000;stroke:#ff0000;" x="299.52" xlink:href="#m6dba4313f5" y="111.168"/>
     <use style="fill:#ff0000;stroke:#ff0000;" x="305.28" xlink:href="#m6dba4313f5" y="105.408"/>
     <use style="fill:#ff0000;stroke:#ff0000;" x="311.04" xlink:href="#m6dba4313f5" y="99.648"/>
     <use style="fill:#ff0000;stroke:#ff0000;" x="316.8" xlink:href="#m6dba4313f5" y="93.888"/>
     <use style="fill:#ff0000;stroke:#ff0000;" x="322.56" xlink:href="#m6dba4313f5" y="174.528"/>
     <use style="fill:#ff0000;stroke:#ff0000;" x="328.32" xlink:href="#m6dba4313f5" y="168.768"/>
     <use style="fill:#ff0000;stroke:#ff0000;" x="334.08" xlink:href="#m6dba4313f5" y="163.008"/>
     <use style="fill:#ff0000;stroke:#ff0000;" x="339.84" xlink:href="#m6dba4313f5" y="157.248"/>
     <use style="fill:#ff0000;stroke:#ff0000;" x="345.6" xlink:href="#m6dba4313f5" y="151.488"/>
     <use style="fill:#ff0000;stroke:#ff0000;" x="351.36" xlink:href="#m6dba4313f5" y="145.728"/>
     <use style="fill:#ff0000;stroke:#ff0000;" x="357.12" xlink:href="#m6dba4313f5" y="139.968"/>
     <use style="fill:#ff0000;stroke:#ff0000;" x="362.88" xlink:href="#m6dba4313f5" y="134.208"/>
     <use style="fill:#ff0000;stroke:#ff0000;" x="368.64" xlink:href="#m6dba4313f5" y="128.448"/>
     <use style="fill:#ff0000;stroke:#ff0000;" x="374.4" xlink:href="#m6dba4313f5" y="122.688"/>
     <use style="fill:#ff0000;stroke:#ff0000;" x="380.16" xlink:href="#m6dba4313f5" y="116.928"/>
     <use style="fill:#ff0000;stroke:#ff0000;" x="385.92" xlink:href="#m6dba4313f5" y="111.168"/>
     <use style="fill:#ff0000;stroke:#ff0000;" x="391.68" xlink:href="#m6dba4313f5" y="105.408"/>
     <use style="fill:#ff0000;stroke:#ff0000;" x="397.44" xlink:href="#m6dba4313f5" y="99.648"/>
     <use style="fill:#ff0000;stroke:#ff0000;" x="403.2" xlink:href="#m6dba4313f5" y="93.888"/>
     <use style="fill:#ff0000;stroke:#ff0000;" x="408.96" xlink:href="#m6dba4313f5" y="174.528"/>
     <use style="fill:#ff0000;stroke:#ff0000;" x="414.72" xlink:href="#m6dba4313f5" y="168.768"/>
     <use style="fill:#ff0000;stroke:#ff0000;" x="420.48" xlink:href="#m6dba4313f5" y="163.008"/>
     <use style="fill:#ff0000;stroke:#ff0000;" x="426.24" xlink:href="#m6dba4313f5" y="157.248"/>
     <use style="fill:#ff0000;stroke:#ff0000;" x="432" xlink:href="#m6dba4313f5" y="151.488"/>
    </g>
   </g>
   <g id="line2d_16">
    <defs>
     <path d="M 0 1.5 
C 0.397805 1.5 0.77937 1.341951 1.06066 1.06066 
C 1.341951 0.77937 1.5 0.397805 1.5 0 
C 1.5 -0.397805 1.341951 -0.77937 1.06066 -1.06066 
C 0.77937 -1.341951 0.397805 -1.5 0 -1.5 
C -0.397805 -1.5 -0.77937 -1.341951 -1.06066 -1.06066 
C -1.341951 -0.77937 -1.5 -0.397805 -1.5 0 
C -1.5 0.397805 -1.341951 0.77937 -1.06066 1.06066 
C -0.77937 1.341951 -0.397805 1.5 0 1.5 
z
" id="mc9702cd69c" style="stroke:#0000ff;"/>
    </defs>
    <g clip-path="url(#pedd9a91382)">
     <use style="fill:#0000ff;stroke:#0000ff;" x="40.32" xlink:href="#mc9702cd69c" y="260.928"/>
     <use style="fill:#0000ff;stroke:#0000ff;" x="46.08" xlink:href="#mc9702cd69c" y="260.928"/>
     <use style="fill:#0000ff;stroke:#0000ff;" x="51.84" xlink:href="#mc9702cd69c" y="260.928"/>
     <use style="fill:#0000ff;stroke:#0000ff;" x="57.6" xlink:href="#mc9702cd69c" y="260.928"/>
     <use style="fill:#0000ff;stroke:#0000ff;" x="63.36" xlink:href="#mc9702cd69c" y="232.128"/>
     <use style="fill:#0000ff;stroke:#0000ff;" x="69.12" xlink:href="#mc9702cd69c" y="232.128"/>
     <use style="fill:#0000ff;stroke:#0000ff;" x="74.88" xlink:href="#mc9702cd69c" y="232.128"/>
     <use style="fill:#0000ff;stroke:#0000ff;" x="80.64" xlink:href="#mc9702cd69c" y="232.128"/>
     <use style="fill:#0000ff;stroke:#0000ff;" x="86.4" xlink:href="#mc9702cd69c" y="232.128"/>
     <use style="fill:#0000ff;stroke:#0000ff;" x="92.16" xlink:href="#mc9702cd69c" y="232.128"/>
     <use style="fill:#0000ff;stroke:#0000ff;" x="97.92" xlink:href="#mc9702cd69c" y="232.128"/>
     <use style="fill:#0000ff;stroke:#0000ff;" x="103.68" xlink:href="#mc9702cd69c" y="232.128"/>
     <use style="fill:#0000ff;stroke:#0000ff;" x="109.44" xlink:href="#mc9702cd69c" y="232.128"/>
     <use style="fill:#0000ff;stroke:#0000ff;" x="115.2" xlink:href="#mc9702cd69c" y="232.128"/>
     <use style="fill:#0000ff;stroke:#0000ff;" x="120.96" xlink:href="#mc9702cd69c" y="232.128"/>
     <use style="fill:#0000ff;stroke:#0000ff;" x="126.72" xlink:href="#mc9702cd69c" y="232.128"/>
     <use style="fill:#0000ff;stroke:#0000ff;" x="132.48" xlink:href="#mc9702cd69c" y="232.128"/>
     <use style="fill:#0000ff;stroke:#0000ff;" x="138.24" xlink:href="#mc9702cd69c" y="232.128"/>
     <use style="fill:#0000ff;stroke:#0000ff;" x="144" xlink:href="#mc9702cd69c" y="232.128"/>
     <use style="fill:#0000ff;stroke:#0000ff;" x="149.76" xlink:href="#mc9702cd69c" y="203.328"/>
     <use style="fill:#0000ff;stroke:#0000ff;" x="155.52" xlink:href="#mc9702cd69c" y="203.328"/>
     <use style="fill:#0000ff;stroke:#0000ff;" x="161.28" xlink:href="#mc9702cd69c" y="203.328"/>
     <use style="fill:#0000ff;stroke:#0000ff;" x="167.04" xlink:href="#mc9702cd69c" y="203.328"/>
     <use style="fill:#0000ff;stroke:#0000ff;" x="172.8" xlink:href="#mc9702cd69c" y="203.328"/>
     <use style="fill:#0000ff;stroke:#0000ff;" x="178.56" xlink:href="#mc9702cd69c" y="203.328"/>
     <use style="fill:#0000ff;stroke:#0000ff;" x="184.32" xlink:href="#mc9702cd69c" y="203.328"/>
     <use style="fill:#0000ff;stroke:#0000ff;" x="190.08" xlink:href="#mc9702cd69c" y="203.328"/>
     <use style="fill:#0000ff;stroke:#0000ff;" x="195.84" xlink:href="#mc9702cd69c" y="203.328"/>
     <use style="fill:#0000ff;stroke:#0000ff;" x="201.6" xlink:href="#mc9702cd69c" y="203.328"/>
     <use style="fill:#0000ff;stroke:#0000ff;" x="207.36" xlink:href="#mc9702cd69c" y="203.328"/>
     <use style="fill:#0000ff;stroke:#0000ff;" x="213.12" xlink:href="#mc9702cd69c" y="203.328"/>
     <use style="fill:#0000ff;stroke:#0000ff;" x="218.88" xlink:href="#mc9702cd69c" y="203.328"/>
     <use style="fill:#0000ff;stroke:#0000ff;" x="224.64" xlink:href="#mc9702cd69c" y="203.328"/>
     <use style="fill:#0000ff;stroke:#0000ff;" x="230.4" xlink:href="#mc9702cd69c" y="203.328"/>
     <use style="fill:#0000ff;stroke:#0000ff;" x="236.16" xlink:href="#mc9702cd69c" y="174.528"/>
     <use style="fill:#0000ff;stroke:#0000ff;" x="241.92" xlink:href="#mc9702cd69c" y="174.528"/>
     <use style="fill:#0000ff;stroke:#0000ff;" x="247.68" xlink:href="#mc9702cd69c" y="174.528"/>
     <use style="fill:#0000ff;stroke:#0000ff;" x="253.44" xlink:href="#mc9702cd69c" y="174.528"/>
     <use style="fill:#0000ff;stroke:#0000ff;" x="259.2" xlink:href="#mc9702cd69c" y="174.528"/>
     <use style="fill:#0000ff;stroke:#0000ff;" x="264.96" xlink:href="#mc9702cd69c" y="174.528"/>
     <use style="fill:#0000ff;stroke:#0000ff;" x="270.72" xlink:href="#mc9702cd69c" y="174.528"/>
     <use style="fill:#0000ff;stroke:#0000ff;" x="276.48" xlink:href="#mc9702cd69c" y="174.528"/>
     <use style="fill:#0000ff;stroke:#0000ff;" x="282.24" xlink:href="#mc9702cd69c" y="174.528"/>
     <use style="fill:#0000ff;stroke:#0000ff;" x="288" xlink:href="#mc9702cd69c" y="174.528"/>
     <use style="fill:#0000ff;stroke:#0000ff;" x="293.76" xlink:href="#mc9702cd69c" y="174.528"/>
     <use style="fill:#0000ff;stroke:#0000ff;" x="299.52" xlink:href="#mc9702cd69c" y="174.528"/>
     <use style="fill:#0000ff;stroke:#0000ff;" x="305.28" xlink:href="#mc9702cd69c" y="174.528"/>
     <use style="fill:#0000ff;stroke:#0000ff;" x="311.04" xlink:href="#mc9702cd69c" y="174.528"/>
     <use style="fill:#0000ff;stroke:#0000ff;" x="316.8" xlink:href="#mc9702cd69c" y="174.528"/>
     <use style="fill:#0000ff;stroke:#0000ff;" x="322.56" xlink:href="#mc9702cd69c" y="145.728"/>
     <use style="fill:#0000ff;stroke:#0000ff;" x="328.32" xlink:href="#mc9702cd69c" y="145.728"/>
     <use style="fill:#0000ff;stroke:#0000ff;" x="334.08" xlink:href="#mc9702cd69c" y="145.728"/>
     <use style="fill:#0000ff;stroke:#0000ff;" x="339.84" xlink:href="#mc9702cd69c" y="145.728"/>
     <use style="fill:#0000ff;stroke:#0000ff;" x="345.6" xlink:href="#mc9702cd69c" y="145.728"/>
     <use style="fill:#0000ff;stroke:#0000ff;" x="351.36" xlink:href="#mc9702cd69c" y="145.728"/>
     <use style="fill:#0000ff;stroke:#0000ff;" x="357.12" xlink:href="#mc9702cd69c" y="145.728"/>
     <use style="fill:#0000ff;stroke:#0000ff;" x="362.88" xlink:href="#mc9702cd69c" y="145.728"/>
     <use style="fill:#0000ff;stroke:#0000ff;" x="368.64" xlink:href="#mc9702cd69c" y="145.728"/>
     <use style="fill:#0000ff;stroke:#0000ff;" x="374.4" xlink:href="#mc9702cd69c" y="145.728"/>
     <use style="fill:#0000ff;stroke:#0000ff;" x="380.16" xlink:href="#mc9702cd69c" y="145.728"/>
     <use style="fill:#0000ff;stroke:#0000ff;" x="385.92" xlink:href="#mc9702cd69c" y="145.728"/>
     <use style="fill:#0000ff;stroke:#0000ff;" x="391.68" xlink:href="#mc9702cd69c" y="145.728"/>
     <use style="fill:#0000ff;stroke:#0000ff;" x="397.44" xlink:href="#mc9702cd69c" y="145.728"/>
     <use style="fill:#0000ff;stroke:#0000ff;" x="403.2" xlink:href="#mc9702cd69c" y="145.728"/>
     <use style="fill:#0000ff;stroke:#0000ff;" x="408.96" xlink:href="#mc9702cd69c" y="116.928"/>
     <use style="fill:#0000ff;stroke:#0000ff;" x="414.72" xlink:href="#mc9702cd69c" y="116.928"/>
     <use style="fill:#0000ff;stroke:#0000ff;" x="420.48" xlink:href="#mc9702cd69c" y="116.928"/>
     <use style="fill:#0000ff;stroke:#0000ff;" x="426.24" xlink:href="#mc9702cd69c" y="116.928"/>
     <use style="fill:#0000ff;stroke:#0000ff;" x="432" xlink:href="#mc9702cd69c" y="116.928"/>
    </g>
   </g>
   <g id="line2d_17">
    <path clip-path="url(#pedd9a91382)" d="M 34.56 266.688 
L 34.56 82.368 
" style="fill:none;stroke:#000000;stroke-linecap:square;stroke-width:0.5;"/>
   </g>
   <g id="line2d_18">
    <path clip-path="url(#pedd9a91382)" d="M 63.36 266.688 
L 63.36 82.368 
" style="fill:none;stroke:#000000;stroke-linecap:square;stroke-width:0.5;"/>
   </g>
   <g id="line2d_19">
    <path clip-path="url(#pedd9a91382)" d="M 92.16 266.688 
L 92.16 82.368 
" style="fill:none;stroke:#000000;stroke-linecap:square;stroke-width:0.5;"/>
   </g>
   <g id="line2d_20">
    <path clip-path="url(#pedd9a91382)" d="M 120.96 266.688 
L 120.96 82.368 
" style="fill:none;stroke:#000000;stroke-linecap:square;stroke-width:0.5;"/>
   </g>
   <g id="line2d_21">
    <path clip-path="url(#pedd9a91382)" d="M 149.76 266.688 
L 149.76 82.368 
" style="fill:none;stroke:#000000;stroke-linecap:square;stroke-width:0.5;"/>
   </g>
   <g id="line2d_22">
    <path clip-path="url(#pedd9a91382)" d="M 178.56 266.688 
L 178.56 82.368 
" style="fill:none;stroke:#000000;stroke-linecap:square;stroke-width:0.5;"/>
   </g>
   <g id="line2d_23">
    <path clip-path="url(#pedd9a91382)" d="M 207.36 266.688 
L 207.36 82.368 
" style="fill:none;stroke:#000000;stroke-linecap:square;stroke-width:0.5;"/>
   </g>
   <g id="line2d_24">
    <path clip-path="url(#pedd9a91382)" d="M 236.16 266.688 
L 236.16 82.368 
" style="fill:none;stroke:#000000;stroke-linecap:square;stroke-width:0.5;"/>
   </g>
   <g id="line2d_25">
    <path clip-path="url(#pedd9a91382)" d="M 264.96 266.688 
L 264.96 82.368 
" style="fill:none;stroke:#000000;stroke-linecap:square;stroke-width:0.5;"/>
   </g>
   <g id="line2d_26">
    <path clip-path="url(#pedd9a91382)" d="M 293.76 266.688 
L 293.76 82.368 
" style="fill:none;stroke:#000000;stroke-linecap:square;stroke-width:0.5;"/>
   </g>
   <g id="line2d_27">
    <path clip-path="url(#pedd9a91382)" d="M 322.56 266.688 
L 322.56 82.368 
" style="fill:none;stroke:#000000;stroke-linecap:square;stroke-width:0.5;"/>
   </g>
   <g id="line2d_28">
    <path clip-path="url(#pedd9a91382)" d="M 351.36 266.688 
L 351.36 82.368 
" style="fill:none;stroke:#000000;stroke-linecap:square;stroke-width:0.5;"/>
   </g>
   <g id="line2d_29">
    <path clip-path="url(#pedd9a91382)" d="M 380.16 266.688 
L 380.16 82.368 
" style="fill:none;stroke:#000000;stroke-linecap:square;stroke-width:0.5;"/>
   </g>
   <g id="line2d_30">
    <path clip-path="url(#pedd9a91382)" d="M 408.96 266.688 
L 408.96 82.368 
" style="fill:none;stroke:#000000;stroke-linecap:square;stroke-width:0.5;"/>
   </g>
   <g id="line2d_31">
    <path clip-path="url(#pedd9a91382)" d="M 437.76 266.688 
L 437.76 82.368 
" style="fill:none;stroke:#000000;stroke-linecap:square;stroke-width:0.5;"/>
   </g>
   <g id="line2d_32">
    <path clip-path="url(#pedd9a91382)" d="M 57.6 260.928 
L 414.72 260.928 
" style="fill:none;stroke:#000000;stroke-linecap:square;stroke-width:0.5;"/>
   </g>
   <g id="line2d_33">
    <path clip-path="url(#pedd9a91382)" d="M 57.6 232.128 
L 414.72 232.128 
" style="fill:none;stroke:#000000;stroke-linecap:square;stroke-width:0.5;"/>
   </g>
   <g id="line2d_34">
    <path clip-path="url(#pedd9a91382)" d="M 57.6 203.328 
L 414.72 203.328 
" style="fill:none;stroke:#000000;stroke-linecap:square;stroke-width:0.5;"/>
   </g>
   <g id="line2d_35">
    <path clip-path="url(#pedd9a91382)" d="M 57.6 174.528 
L 414.72 174.528 
" style="fill:none;stroke:#000000;stroke-linecap:square;stroke-width:0.5;"/>
   </g>
   <g id="line2d_36">
    <path clip-path="url(#pedd9a91382)" d="M 57.6 145.728 
L 414.72 145.728 
" style="fill:none;stroke:#000000;stroke-linecap:square;stroke-width:0.5;"/>
   </g>
   <g id="line2d_37">
    <path clip-path="url(#pedd9a91382)" d="M 57.6 116.928 
L 414.72 116.928 
" style="fill:none;stroke:#000000;stroke-linecap:square;stroke-width:0.5;"/>
   </g>
   <g id="line2d_38">
    <path clip-path="url(#pedd9a91382)" d="M 57.6 88.128 
L 414.72 88.128 
" style="fill:none;stroke:#000000;stroke-linecap:square;stroke-width:0.5;"/>
   </g>
   <g id="patch_3">
    <path d="M 57.6 266.688 
L 57.6 82.368 
" style="fill:none;stroke:#000000;stroke-linecap:square;stroke-linejoin:miter;stroke-width:0.8;"/>
   </g>
   <g id="patch_4">
    <path d="M 414.72 266.688 
L 414.72 82.368 
" style="fill:none;stroke:#000000;stroke-linecap:square;stroke-linejoin:miter;stroke-width:0.8;"/>
   </g>
   <g id="patch_5">
    <path d="M 57.6 266.688 
L 414.72 266.688 
" style="fill:none;stroke:#000000;stroke-linecap:square;stroke-linejoin:miter;stroke-width:0.8;"/>
   </g>
   <g id="patch_6">
    <path d="M 57.6 82.368 
L 414.72 82.368 
" style="fill:none;stroke:#000000;stroke-linecap:square;stroke-linejoin:miter;stroke-width:0.8;"/>
   </g>
   <g id="legend_1">
    <g id="patch_7">
     <path d="M 330.249688 261.688 
L 407.72 261.688 
Q 409.72 261.688 409.72 259.688 
L 409.72 231.33175 
Q 409.72 229.33175 407.72 229.33175 
L 330.249688 229.33175 
Q 328.249688 229.33175 328.249688 231.33175 
L 328.249688 259.688 
Q 328.249688 261.688 330.249688 261.688 
z
" style="fill:#ffffff;opacity:0.8;stroke:#cccccc;stroke-linejoin:miter;"/>
    </g>
    <g id="line2d_39"/>
    <g id="line2d_40">
     <g>
      <use style="fill:#ff0000;stroke:#ff0000;" x="342.249688" xlink:href="#m6dba4313f5" y="237.430187"/>
     </g>
    </g>
    <g id="text_16">
     <!-- mod(x,3) -->
     <defs>
      <path d="M 52 44.1875 
Q 55.375 50.25 60.0625 53.125 
Q 64.75 56 71.09375 56 
Q 79.640625 56 84.28125 50.015625 
Q 88.921875 44.046875 88.921875 33.015625 
L 88.921875 0 
L 79.890625 0 
L 79.890625 32.71875 
Q 79.890625 40.578125 77.09375 44.375 
Q 74.3125 48.1875 68.609375 48.1875 
Q 61.625 48.1875 57.5625 43.546875 
Q 53.515625 38.921875 53.515625 30.90625 
L 53.515625 0 
L 44.484375 0 
L 44.484375 32.71875 
Q 44.484375 40.625 41.703125 44.40625 
Q 38.921875 48.1875 33.109375 48.1875 
Q 26.21875 48.1875 22.15625 43.53125 
Q 18.109375 38.875 18.109375 30.90625 
L 18.109375 0 
L 9.078125 0 
L 9.078125 54.6875 
L 18.109375 54.6875 
L 18.109375 46.1875 
Q 21.1875 51.21875 25.484375 53.609375 
Q 29.78125 56 35.6875 56 
Q 41.65625 56 45.828125 52.96875 
Q 50 49.953125 52 44.1875 
z
" id="DejaVuSans-6d"/>
      <path d="M 30.609375 48.390625 
Q 23.390625 48.390625 19.1875 42.75 
Q 14.984375 37.109375 14.984375 27.296875 
Q 14.984375 17.484375 19.15625 11.84375 
Q 23.34375 6.203125 30.609375 6.203125 
Q 37.796875 6.203125 41.984375 11.859375 
Q 46.1875 17.53125 46.1875 27.296875 
Q 46.1875 37.015625 41.984375 42.703125 
Q 37.796875 48.390625 30.609375 48.390625 
z
M 30.609375 56 
Q 42.328125 56 49.015625 48.375 
Q 55.71875 40.765625 55.71875 27.296875 
Q 55.71875 13.875 49.015625 6.21875 
Q 42.328125 -1.421875 30.609375 -1.421875 
Q 18.84375 -1.421875 12.171875 6.21875 
Q 5.515625 13.875 5.515625 27.296875 
Q 5.515625 40.765625 12.171875 48.375 
Q 18.84375 56 30.609375 56 
z
" id="DejaVuSans-6f"/>
      <path d="M 45.40625 46.390625 
L 45.40625 75.984375 
L 54.390625 75.984375 
L 54.390625 0 
L 45.40625 0 
L 45.40625 8.203125 
Q 42.578125 3.328125 38.25 0.953125 
Q 33.9375 -1.421875 27.875 -1.421875 
Q 17.96875 -1.421875 11.734375 6.484375 
Q 5.515625 14.40625 5.515625 27.296875 
Q 5.515625 40.1875 11.734375 48.09375 
Q 17.96875 56 27.875 56 
Q 33.9375 56 38.25 53.625 
Q 42.578125 51.265625 45.40625 46.390625 
z
M 14.796875 27.296875 
Q 14.796875 17.390625 18.875 11.75 
Q 22.953125 6.109375 30.078125 6.109375 
Q 37.203125 6.109375 41.296875 11.75 
Q 45.40625 17.390625 45.40625 27.296875 
Q 45.40625 37.203125 41.296875 42.84375 
Q 37.203125 48.484375 30.078125 48.484375 
Q 22.953125 48.484375 18.875 42.84375 
Q 14.796875 37.203125 14.796875 27.296875 
z
" id="DejaVuSans-64"/>
      <path d="M 31 75.875 
Q 24.46875 64.65625 21.28125 53.65625 
Q 18.109375 42.671875 18.109375 31.390625 
Q 18.109375 20.125 21.3125 9.0625 
Q 24.515625 -2 31 -13.1875 
L 23.1875 -13.1875 
Q 15.875 -1.703125 12.234375 9.375 
Q 8.59375 20.453125 8.59375 31.390625 
Q 8.59375 42.28125 12.203125 53.3125 
Q 15.828125 64.359375 23.1875 75.875 
z
" id="DejaVuSans-28"/>
      <path d="M 11.71875 12.40625 
L 22.015625 12.40625 
L 22.015625 4 
L 14.015625 -11.625 
L 7.71875 -11.625 
L 11.71875 4 
z
" id="DejaVuSans-2c"/>
      <path d="M 8.015625 75.875 
L 15.828125 75.875 
Q 23.140625 64.359375 26.78125 53.3125 
Q 30.421875 42.28125 30.421875 31.390625 
Q 30.421875 20.453125 26.78125 9.375 
Q 23.140625 -1.703125 15.828125 -13.1875 
L 8.015625 -13.1875 
Q 14.5 -2 17.703125 9.0625 
Q 20.90625 20.125 20.90625 31.390625 
Q 20.90625 42.671875 17.703125 53.65625 
Q 14.5 64.65625 8.015625 75.875 
z
" id="DejaVuSans-29"/>
     </defs>
     <g transform="translate(360.249688 240.930187)scale(0.1 -0.1)">
      <use xlink:href="#DejaVuSans-6d"/>
      <use x="97.412109" xlink:href="#DejaVuSans-6f"/>
      <use x="158.59375" xlink:href="#DejaVuSans-64"/>
      <use x="222.070312" xlink:href="#DejaVuSans-28"/>
      <use x="261.083984" xlink:href="#DejaVuSans-78"/>
      <use x="320.263672" xlink:href="#DejaVuSans-2c"/>
      <use x="352.050781" xlink:href="#DejaVuSans-33"/>
      <use x="415.673828" xlink:href="#DejaVuSans-29"/>
     </g>
    </g>
    <g id="line2d_41"/>
    <g id="line2d_42">
     <g>
      <use style="fill:#0000ff;stroke:#0000ff;" x="342.249688" xlink:href="#mc9702cd69c" y="252.108312"/>
     </g>
    </g>
    <g id="text_17">
     <!-- fld(x,3) -->
     <defs>
      <path d="M 37.109375 75.984375 
L 37.109375 68.5 
L 28.515625 68.5 
Q 23.6875 68.5 21.796875 66.546875 
Q 19.921875 64.59375 19.921875 59.515625 
L 19.921875 54.6875 
L 34.71875 54.6875 
L 34.71875 47.703125 
L 19.921875 47.703125 
L 19.921875 0 
L 10.890625 0 
L 10.890625 47.703125 
L 2.296875 47.703125 
L 2.296875 54.6875 
L 10.890625 54.6875 
L 10.890625 58.5 
Q 10.890625 67.625 15.140625 71.796875 
Q 19.390625 75.984375 28.609375 75.984375 
z
" id="DejaVuSans-66"/>
      <path d="M 9.421875 75.984375 
L 18.40625 75.984375 
L 18.40625 0 
L 9.421875 0 
z
" id="DejaVuSans-6c"/>
     </defs>
     <g transform="translate(360.249688 255.608312)scale(0.1 -0.1)">
      <use xlink:href="#DejaVuSans-66"/>
      <use x="35.205078" xlink:href="#DejaVuSans-6c"/>
      <use x="62.988281" xlink:href="#DejaVuSans-64"/>
      <use x="126.464844" xlink:href="#DejaVuSans-28"/>
      <use x="165.478516" xlink:href="#DejaVuSans-78"/>
      <use x="224.658203" xlink:href="#DejaVuSans-2c"/>
      <use x="256.445312" xlink:href="#DejaVuSans-33"/>
      <use x="320.068359" xlink:href="#DejaVuSans-29"/>
     </g>
    </g>
   </g>
  </g>
 </g>
 <defs>
  <clipPath id="pedd9a91382">
   <rect height="184.32" width="357.12" x="57.6" y="82.368"/>
  </clipPath>
 </defs>
</svg>
