<?xml version="1.0" encoding="utf-8" standalone="no"?>
<!DOCTYPE svg PUBLIC "-//W3C//DTD SVG 1.1//EN"
  "http://www.w3.org/Graphics/SVG/1.1/DTD/svg11.dtd">
<!-- Created with matplotlib (http://matplotlib.org/) -->
<svg height="345.6pt" version="1.1" viewBox="0 0 460.8 345.6" width="460.8pt" xmlns="http://www.w3.org/2000/svg" xmlns:xlink="http://www.w3.org/1999/xlink">
 <defs>
  <style type="text/css">
*{stroke-linecap:butt;stroke-linejoin:round;}
  </style>
 </defs>
 <g id="figure_1">
  <g id="patch_1">
   <path d="M 0 345.6 
L 460.8 345.6 
L 460.8 0 
L 0 0 
z
" style="fill:#ffffff;"/>
  </g>
  <g id="axes_1">
   <g id="patch_2">
    <path d="M 57.6 206.993455 
L 414.72 206.993455 
L 414.72 142.062545 
L 57.6 142.062545 
z
" style="fill:#ffffff;"/>
   </g>
   <g id="matplotlib.axis_1">
    <g id="xtick_1">
     <g id="line2d_1">
      <defs>
       <path d="M 0 0 
L 0 3.5 
" id="m63e8cca1df" style="stroke:#000000;stroke-width:0.8;"/>
      </defs>
      <g>
       <use style="stroke:#000000;stroke-width:0.8;" x="80.483769" xlink:href="#m63e8cca1df" y="206.993455"/>
      </g>
     </g>
     <g id="text_1">
      <!-- −15 -->
      <defs>
       <path d="M 10.59375 35.5 
L 73.1875 35.5 
L 73.1875 27.203125 
L 10.59375 27.203125 
z
" id="DejaVuSans-2212"/>
       <path d="M 12.40625 8.296875 
L 28.515625 8.296875 
L 28.515625 63.921875 
L 10.984375 60.40625 
L 10.984375 69.390625 
L 28.421875 72.90625 
L 38.28125 72.90625 
L 38.28125 8.296875 
L 54.390625 8.296875 
L 54.390625 0 
L 12.40625 0 
z
" id="DejaVuSans-31"/>
       <path d="M 10.796875 72.90625 
L 49.515625 72.90625 
L 49.515625 64.59375 
L 19.828125 64.59375 
L 19.828125 46.734375 
Q 21.96875 47.46875 24.109375 47.828125 
Q 26.265625 48.1875 28.421875 48.1875 
Q 40.625 48.1875 47.75 41.5 
Q 54.890625 34.8125 54.890625 23.390625 
Q 54.890625 11.625 47.5625 5.09375 
Q 40.234375 -1.421875 26.90625 -1.421875 
Q 22.3125 -1.421875 17.546875 -0.640625 
Q 12.796875 0.140625 7.71875 1.703125 
L 7.71875 11.625 
Q 12.109375 9.234375 16.796875 8.0625 
Q 21.484375 6.890625 26.703125 6.890625 
Q 35.15625 6.890625 40.078125 11.328125 
Q 45.015625 15.765625 45.015625 23.390625 
Q 45.015625 31 40.078125 35.4375 
Q 35.15625 39.890625 26.703125 39.890625 
Q 22.75 39.890625 18.8125 39.015625 
Q 14.890625 38.140625 10.796875 36.28125 
z
" id="DejaVuSans-35"/>
      </defs>
      <g transform="translate(69.931425 221.591892)scale(0.1 -0.1)">
       <use xlink:href="#DejaVuSans-2212"/>
       <use x="83.789062" xlink:href="#DejaVuSans-31"/>
       <use x="147.412109" xlink:href="#DejaVuSans-35"/>
      </g>
     </g>
    </g>
    <g id="xtick_2">
     <g id="line2d_2">
      <g>
       <use style="stroke:#000000;stroke-width:0.8;" x="127.456838" xlink:href="#m63e8cca1df" y="206.993455"/>
      </g>
     </g>
     <g id="text_2">
      <!-- −10 -->
      <defs>
       <path d="M 31.78125 66.40625 
Q 24.171875 66.40625 20.328125 58.90625 
Q 16.5 51.421875 16.5 36.375 
Q 16.5 21.390625 20.328125 13.890625 
Q 24.171875 6.390625 31.78125 6.390625 
Q 39.453125 6.390625 43.28125 13.890625 
Q 47.125 21.390625 47.125 36.375 
Q 47.125 51.421875 43.28125 58.90625 
Q 39.453125 66.40625 31.78125 66.40625 
z
M 31.78125 74.21875 
Q 44.046875 74.21875 50.515625 64.515625 
Q 56.984375 54.828125 56.984375 36.375 
Q 56.984375 17.96875 50.515625 8.265625 
Q 44.046875 -1.421875 31.78125 -1.421875 
Q 19.53125 -1.421875 13.0625 8.265625 
Q 6.59375 17.96875 6.59375 36.375 
Q 6.59375 54.828125 13.0625 64.515625 
Q 19.53125 74.21875 31.78125 74.21875 
z
" id="DejaVuSans-30"/>
      </defs>
      <g transform="translate(116.904494 221.591892)scale(0.1 -0.1)">
       <use xlink:href="#DejaVuSans-2212"/>
       <use x="83.789062" xlink:href="#DejaVuSans-31"/>
       <use x="147.412109" xlink:href="#DejaVuSans-30"/>
      </g>
     </g>
    </g>
    <g id="xtick_3">
     <g id="line2d_3">
      <g>
       <use style="stroke:#000000;stroke-width:0.8;" x="174.429906" xlink:href="#m63e8cca1df" y="206.993455"/>
      </g>
     </g>
     <g id="text_3">
      <!-- −5 -->
      <g transform="translate(167.058813 221.591892)scale(0.1 -0.1)">
       <use xlink:href="#DejaVuSans-2212"/>
       <use x="83.789062" xlink:href="#DejaVuSans-35"/>
      </g>
     </g>
    </g>
    <g id="xtick_4">
     <g id="line2d_4">
      <g>
       <use style="stroke:#000000;stroke-width:0.8;" x="221.402975" xlink:href="#m63e8cca1df" y="206.993455"/>
      </g>
     </g>
     <g id="text_4">
      <!-- 0 -->
      <g transform="translate(218.221725 221.591892)scale(0.1 -0.1)">
       <use xlink:href="#DejaVuSans-30"/>
      </g>
     </g>
    </g>
    <g id="xtick_5">
     <g id="line2d_5">
      <g>
       <use style="stroke:#000000;stroke-width:0.8;" x="268.376044" xlink:href="#m63e8cca1df" y="206.993455"/>
      </g>
     </g>
     <g id="text_5">
      <!-- 5 -->
      <g transform="translate(265.194794 221.591892)scale(0.1 -0.1)">
       <use xlink:href="#DejaVuSans-35"/>
      </g>
     </g>
    </g>
    <g id="xtick_6">
     <g id="line2d_6">
      <g>
       <use style="stroke:#000000;stroke-width:0.8;" x="315.349113" xlink:href="#m63e8cca1df" y="206.993455"/>
      </g>
     </g>
     <g id="text_6">
      <!-- 10 -->
      <g transform="translate(308.986613 221.591892)scale(0.1 -0.1)">
       <use xlink:href="#DejaVuSans-31"/>
       <use x="63.623047" xlink:href="#DejaVuSans-30"/>
      </g>
     </g>
    </g>
    <g id="xtick_7">
     <g id="line2d_7">
      <g>
       <use style="stroke:#000000;stroke-width:0.8;" x="362.322182" xlink:href="#m63e8cca1df" y="206.993455"/>
      </g>
     </g>
     <g id="text_7">
      <!-- 15 -->
      <g transform="translate(355.959682 221.591892)scale(0.1 -0.1)">
       <use xlink:href="#DejaVuSans-31"/>
       <use x="63.623047" xlink:href="#DejaVuSans-35"/>
      </g>
     </g>
    </g>
    <g id="xtick_8">
     <g id="line2d_8">
      <g>
       <use style="stroke:#000000;stroke-width:0.8;" x="409.295251" xlink:href="#m63e8cca1df" y="206.993455"/>
      </g>
     </g>
     <g id="text_8">
      <!-- 20 -->
      <defs>
       <path d="M 19.1875 8.296875 
L 53.609375 8.296875 
L 53.609375 0 
L 7.328125 0 
L 7.328125 8.296875 
Q 12.9375 14.109375 22.625 23.890625 
Q 32.328125 33.6875 34.8125 36.53125 
Q 39.546875 41.84375 41.421875 45.53125 
Q 43.3125 49.21875 43.3125 52.78125 
Q 43.3125 58.59375 39.234375 62.25 
Q 35.15625 65.921875 28.609375 65.921875 
Q 23.96875 65.921875 18.8125 64.3125 
Q 13.671875 62.703125 7.8125 59.421875 
L 7.8125 69.390625 
Q 13.765625 71.78125 18.9375 73 
Q 24.125 74.21875 28.421875 74.21875 
Q 39.75 74.21875 46.484375 68.546875 
Q 53.21875 62.890625 53.21875 53.421875 
Q 53.21875 48.921875 51.53125 44.890625 
Q 49.859375 40.875 45.40625 35.40625 
Q 44.1875 33.984375 37.640625 27.21875 
Q 31.109375 20.453125 19.1875 8.296875 
z
" id="DejaVuSans-32"/>
      </defs>
      <g transform="translate(402.932751 221.591892)scale(0.1 -0.1)">
       <use xlink:href="#DejaVuSans-32"/>
       <use x="63.623047" xlink:href="#DejaVuSans-30"/>
      </g>
     </g>
    </g>
    <g id="text_9">
     <!-- x -->
     <defs>
      <path d="M 54.890625 54.6875 
L 35.109375 28.078125 
L 55.90625 0 
L 45.3125 0 
L 29.390625 21.484375 
L 13.484375 0 
L 2.875 0 
L 24.125 28.609375 
L 4.6875 54.6875 
L 15.28125 54.6875 
L 29.78125 35.203125 
L 44.28125 54.6875 
z
" id="DejaVuSans-78"/>
     </defs>
     <g transform="translate(233.200625 235.270017)scale(0.1 -0.1)">
      <use xlink:href="#DejaVuSans-78"/>
     </g>
    </g>
   </g>
   <g id="matplotlib.axis_2">
    <g id="ytick_1">
     <g id="line2d_9">
      <defs>
       <path d="M 0 0 
L -3.5 0 
" id="m8f8205ba05" style="stroke:#000000;stroke-width:0.8;"/>
      </defs>
      <g>
       <use style="stroke:#000000;stroke-width:0.8;" x="57.6" xlink:href="#m8f8205ba05" y="204.04205"/>
      </g>
     </g>
     <g id="text_10">
      <!-- 0.0 -->
      <defs>
       <path d="M 10.6875 12.40625 
L 21 12.40625 
L 21 0 
L 10.6875 0 
z
" id="DejaVuSans-2e"/>
      </defs>
      <g transform="translate(34.696875 207.841268)scale(0.1 -0.1)">
       <use xlink:href="#DejaVuSans-30"/>
       <use x="63.623047" xlink:href="#DejaVuSans-2e"/>
       <use x="95.410156" xlink:href="#DejaVuSans-30"/>
      </g>
     </g>
    </g>
    <g id="ytick_2">
     <g id="line2d_10">
      <g>
       <use style="stroke:#000000;stroke-width:0.8;" x="57.6" xlink:href="#m8f8205ba05" y="180.555515"/>
      </g>
     </g>
     <g id="text_11">
      <!-- 2.5 -->
      <g transform="translate(34.696875 184.354734)scale(0.1 -0.1)">
       <use xlink:href="#DejaVuSans-32"/>
       <use x="63.623047" xlink:href="#DejaVuSans-2e"/>
       <use x="95.410156" xlink:href="#DejaVuSans-35"/>
      </g>
     </g>
    </g>
    <g id="ytick_3">
     <g id="line2d_11">
      <g>
       <use style="stroke:#000000;stroke-width:0.8;" x="57.6" xlink:href="#m8f8205ba05" y="157.068981"/>
      </g>
     </g>
     <g id="text_12">
      <!-- 5.0 -->
      <g transform="translate(34.696875 160.8682)scale(0.1 -0.1)">
       <use xlink:href="#DejaVuSans-35"/>
       <use x="63.623047" xlink:href="#DejaVuSans-2e"/>
       <use x="95.410156" xlink:href="#DejaVuSans-30"/>
      </g>
     </g>
    </g>
    <g id="text_13">
     <!-- mod2pi(x) -->
     <defs>
      <path d="M 52 44.1875 
Q 55.375 50.25 60.0625 53.125 
Q 64.75 56 71.09375 56 
Q 79.640625 56 84.28125 50.015625 
Q 88.921875 44.046875 88.921875 33.015625 
L 88.921875 0 
L 79.890625 0 
L 79.890625 32.71875 
Q 79.890625 40.578125 77.09375 44.375 
Q 74.3125 48.1875 68.609375 48.1875 
Q 61.625 48.1875 57.5625 43.546875 
Q 53.515625 38.921875 53.515625 30.90625 
L 53.515625 0 
L 44.484375 0 
L 44.484375 32.71875 
Q 44.484375 40.625 41.703125 44.40625 
Q 38.921875 48.1875 33.109375 48.1875 
Q 26.21875 48.1875 22.15625 43.53125 
Q 18.109375 38.875 18.109375 30.90625 
L 18.109375 0 
L 9.078125 0 
L 9.078125 54.6875 
L 18.109375 54.6875 
L 18.109375 46.1875 
Q 21.1875 51.21875 25.484375 53.609375 
Q 29.78125 56 35.6875 56 
Q 41.65625 56 45.828125 52.96875 
Q 50 49.953125 52 44.1875 
z
" id="DejaVuSans-6d"/>
      <path d="M 30.609375 48.390625 
Q 23.390625 48.390625 19.1875 42.75 
Q 14.984375 37.109375 14.984375 27.296875 
Q 14.984375 17.484375 19.15625 11.84375 
Q 23.34375 6.203125 30.609375 6.203125 
Q 37.796875 6.203125 41.984375 11.859375 
Q 46.1875 17.53125 46.1875 27.296875 
Q 46.1875 37.015625 41.984375 42.703125 
Q 37.796875 48.390625 30.609375 48.390625 
z
M 30.609375 56 
Q 42.328125 56 49.015625 48.375 
Q 55.71875 40.765625 55.71875 27.296875 
Q 55.71875 13.875 49.015625 6.21875 
Q 42.328125 -1.421875 30.609375 -1.421875 
Q 18.84375 -1.421875 12.171875 6.21875 
Q 5.515625 13.875 5.515625 27.296875 
Q 5.515625 40.765625 12.171875 48.375 
Q 18.84375 56 30.609375 56 
z
" id="DejaVuSans-6f"/>
      <path d="M 45.40625 46.390625 
L 45.40625 75.984375 
L 54.390625 75.984375 
L 54.390625 0 
L 45.40625 0 
L 45.40625 8.203125 
Q 42.578125 3.328125 38.25 0.953125 
Q 33.9375 -1.421875 27.875 -1.421875 
Q 17.96875 -1.421875 11.734375 6.484375 
Q 5.515625 14.40625 5.515625 27.296875 
Q 5.515625 40.1875 11.734375 48.09375 
Q 17.96875 56 27.875 56 
Q 33.9375 56 38.25 53.625 
Q 42.578125 51.265625 45.40625 46.390625 
z
M 14.796875 27.296875 
Q 14.796875 17.390625 18.875 11.75 
Q 22.953125 6.109375 30.078125 6.109375 
Q 37.203125 6.109375 41.296875 11.75 
Q 45.40625 17.390625 45.40625 27.296875 
Q 45.40625 37.203125 41.296875 42.84375 
Q 37.203125 48.484375 30.078125 48.484375 
Q 22.953125 48.484375 18.875 42.84375 
Q 14.796875 37.203125 14.796875 27.296875 
z
" id="DejaVuSans-64"/>
      <path d="M 18.109375 8.203125 
L 18.109375 -20.796875 
L 9.078125 -20.796875 
L 9.078125 54.6875 
L 18.109375 54.6875 
L 18.109375 46.390625 
Q 20.953125 51.265625 25.265625 53.625 
Q 29.59375 56 35.59375 56 
Q 45.5625 56 51.78125 48.09375 
Q 58.015625 40.1875 58.015625 27.296875 
Q 58.015625 14.40625 51.78125 6.484375 
Q 45.5625 -1.421875 35.59375 -1.421875 
Q 29.59375 -1.421875 25.265625 0.953125 
Q 20.953125 3.328125 18.109375 8.203125 
z
M 48.6875 27.296875 
Q 48.6875 37.203125 44.609375 42.84375 
Q 40.53125 48.484375 33.40625 48.484375 
Q 26.265625 48.484375 22.1875 42.84375 
Q 18.109375 37.203125 18.109375 27.296875 
Q 18.109375 17.390625 22.1875 11.75 
Q 26.265625 6.109375 33.40625 6.109375 
Q 40.53125 6.109375 44.609375 11.75 
Q 48.6875 17.390625 48.6875 27.296875 
z
" id="DejaVuSans-70"/>
      <path d="M 9.421875 54.6875 
L 18.40625 54.6875 
L 18.40625 0 
L 9.421875 0 
z
M 9.421875 75.984375 
L 18.40625 75.984375 
L 18.40625 64.59375 
L 9.421875 64.59375 
z
" id="DejaVuSans-69"/>
      <path d="M 31 75.875 
Q 24.46875 64.65625 21.28125 53.65625 
Q 18.109375 42.671875 18.109375 31.390625 
Q 18.109375 20.125 21.3125 9.0625 
Q 24.515625 -2 31 -13.1875 
L 23.1875 -13.1875 
Q 15.875 -1.703125 12.234375 9.375 
Q 8.59375 20.453125 8.59375 31.390625 
Q 8.59375 42.28125 12.203125 53.3125 
Q 15.828125 64.359375 23.1875 75.875 
z
" id="DejaVuSans-28"/>
      <path d="M 8.015625 75.875 
L 15.828125 75.875 
Q 23.140625 64.359375 26.78125 53.3125 
Q 30.421875 42.28125 30.421875 31.390625 
Q 30.421875 20.453125 26.78125 9.375 
Q 23.140625 -1.703125 15.828125 -13.1875 
L 8.015625 -13.1875 
Q 14.5 -2 17.703125 9.0625 
Q 20.90625 20.125 20.90625 31.390625 
Q 20.90625 42.671875 17.703125 53.65625 
Q 14.5 64.65625 8.015625 75.875 
z
" id="DejaVuSans-29"/>
     </defs>
     <g transform="translate(28.617187 200.237375)rotate(-90)scale(0.1 -0.1)">
      <use xlink:href="#DejaVuSans-6d"/>
      <use x="97.412109" xlink:href="#DejaVuSans-6f"/>
      <use x="158.59375" xlink:href="#DejaVuSans-64"/>
      <use x="222.070312" xlink:href="#DejaVuSans-32"/>
      <use x="285.693359" xlink:href="#DejaVuSans-70"/>
      <use x="349.169922" xlink:href="#DejaVuSans-69"/>
      <use x="376.953125" xlink:href="#DejaVuSans-28"/>
      <use x="415.966797" xlink:href="#DejaVuSans-78"/>
      <use x="475.146484" xlink:href="#DejaVuSans-29"/>
     </g>
    </g>
   </g>
   <g id="line2d_12">
    <defs>
     <path d="M 0 1.5 
C 0.397805 1.5 0.77937 1.341951 1.06066 1.06066 
C 1.341951 0.77937 1.5 0.397805 1.5 0 
C 1.5 -0.397805 1.341951 -0.77937 1.06066 -1.06066 
C 0.77937 -1.341951 0.397805 -1.5 0 -1.5 
C -0.397805 -1.5 -0.77937 -1.341951 -1.06066 -1.06066 
C -1.341951 -0.77937 -1.5 -0.397805 -1.5 0 
C -1.5 0.397805 -1.341951 0.77937 -1.06066 1.06066 
C -0.77937 1.341951 -0.397805 1.5 0 1.5 
z
" id="mb5dcd4e3ae" style="stroke:#1f77b4;"/>
    </defs>
    <g clip-path="url(#p648c8a9d2a)">
     <use style="fill:#1f77b4;stroke:#1f77b4;" x="73.832727" xlink:href="#mb5dcd4e3ae" y="174.528"/>
     <use style="fill:#1f77b4;stroke:#1f77b4;" x="78.751736" xlink:href="#mb5dcd4e3ae" y="169.608992"/>
     <use style="fill:#1f77b4;stroke:#1f77b4;" x="83.670744" xlink:href="#mb5dcd4e3ae" y="164.689983"/>
     <use style="fill:#1f77b4;stroke:#1f77b4;" x="88.589752" xlink:href="#mb5dcd4e3ae" y="159.770975"/>
     <use style="fill:#1f77b4;stroke:#1f77b4;" x="93.50876" xlink:href="#mb5dcd4e3ae" y="154.851967"/>
     <use style="fill:#1f77b4;stroke:#1f77b4;" x="98.427769" xlink:href="#mb5dcd4e3ae" y="149.932959"/>
     <use style="fill:#1f77b4;stroke:#1f77b4;" x="103.346777" xlink:href="#mb5dcd4e3ae" y="204.04205"/>
     <use style="fill:#1f77b4;stroke:#1f77b4;" x="108.265785" xlink:href="#mb5dcd4e3ae" y="199.123041"/>
     <use style="fill:#1f77b4;stroke:#1f77b4;" x="113.184793" xlink:href="#mb5dcd4e3ae" y="194.204033"/>
     <use style="fill:#1f77b4;stroke:#1f77b4;" x="118.103802" xlink:href="#mb5dcd4e3ae" y="189.285025"/>
     <use style="fill:#1f77b4;stroke:#1f77b4;" x="123.02281" xlink:href="#mb5dcd4e3ae" y="184.366017"/>
     <use style="fill:#1f77b4;stroke:#1f77b4;" x="127.941818" xlink:href="#mb5dcd4e3ae" y="179.447008"/>
     <use style="fill:#1f77b4;stroke:#1f77b4;" x="132.860826" xlink:href="#mb5dcd4e3ae" y="174.528"/>
     <use style="fill:#1f77b4;stroke:#1f77b4;" x="137.779835" xlink:href="#mb5dcd4e3ae" y="169.608992"/>
     <use style="fill:#1f77b4;stroke:#1f77b4;" x="142.698843" xlink:href="#mb5dcd4e3ae" y="164.689983"/>
     <use style="fill:#1f77b4;stroke:#1f77b4;" x="147.617851" xlink:href="#mb5dcd4e3ae" y="159.770975"/>
     <use style="fill:#1f77b4;stroke:#1f77b4;" x="152.53686" xlink:href="#mb5dcd4e3ae" y="154.851967"/>
     <use style="fill:#1f77b4;stroke:#1f77b4;" x="157.455868" xlink:href="#mb5dcd4e3ae" y="149.932959"/>
     <use style="fill:#1f77b4;stroke:#1f77b4;" x="162.374876" xlink:href="#mb5dcd4e3ae" y="145.01395"/>
     <use style="fill:#1f77b4;stroke:#1f77b4;" x="167.293884" xlink:href="#mb5dcd4e3ae" y="199.123041"/>
     <use style="fill:#1f77b4;stroke:#1f77b4;" x="172.212893" xlink:href="#mb5dcd4e3ae" y="194.204033"/>
     <use style="fill:#1f77b4;stroke:#1f77b4;" x="177.131901" xlink:href="#mb5dcd4e3ae" y="189.285025"/>
     <use style="fill:#1f77b4;stroke:#1f77b4;" x="182.050909" xlink:href="#mb5dcd4e3ae" y="184.366017"/>
     <use style="fill:#1f77b4;stroke:#1f77b4;" x="186.969917" xlink:href="#mb5dcd4e3ae" y="179.447008"/>
     <use style="fill:#1f77b4;stroke:#1f77b4;" x="191.888926" xlink:href="#mb5dcd4e3ae" y="174.528"/>
     <use style="fill:#1f77b4;stroke:#1f77b4;" x="196.807934" xlink:href="#mb5dcd4e3ae" y="169.608992"/>
     <use style="fill:#1f77b4;stroke:#1f77b4;" x="201.726942" xlink:href="#mb5dcd4e3ae" y="164.689983"/>
     <use style="fill:#1f77b4;stroke:#1f77b4;" x="206.64595" xlink:href="#mb5dcd4e3ae" y="159.770975"/>
     <use style="fill:#1f77b4;stroke:#1f77b4;" x="211.564959" xlink:href="#mb5dcd4e3ae" y="154.851967"/>
     <use style="fill:#1f77b4;stroke:#1f77b4;" x="216.483967" xlink:href="#mb5dcd4e3ae" y="149.932959"/>
     <use style="fill:#1f77b4;stroke:#1f77b4;" x="221.402975" xlink:href="#mb5dcd4e3ae" y="145.01395"/>
     <use style="fill:#1f77b4;stroke:#1f77b4;" x="226.321983" xlink:href="#mb5dcd4e3ae" y="199.123041"/>
     <use style="fill:#1f77b4;stroke:#1f77b4;" x="231.240992" xlink:href="#mb5dcd4e3ae" y="194.204033"/>
     <use style="fill:#1f77b4;stroke:#1f77b4;" x="236.16" xlink:href="#mb5dcd4e3ae" y="189.285025"/>
     <use style="fill:#1f77b4;stroke:#1f77b4;" x="241.079008" xlink:href="#mb5dcd4e3ae" y="184.366017"/>
     <use style="fill:#1f77b4;stroke:#1f77b4;" x="245.998017" xlink:href="#mb5dcd4e3ae" y="179.447008"/>
     <use style="fill:#1f77b4;stroke:#1f77b4;" x="250.917025" xlink:href="#mb5dcd4e3ae" y="174.528"/>
     <use style="fill:#1f77b4;stroke:#1f77b4;" x="255.836033" xlink:href="#mb5dcd4e3ae" y="169.608992"/>
     <use style="fill:#1f77b4;stroke:#1f77b4;" x="260.755041" xlink:href="#mb5dcd4e3ae" y="164.689983"/>
     <use style="fill:#1f77b4;stroke:#1f77b4;" x="265.67405" xlink:href="#mb5dcd4e3ae" y="159.770975"/>
     <use style="fill:#1f77b4;stroke:#1f77b4;" x="270.593058" xlink:href="#mb5dcd4e3ae" y="154.851967"/>
     <use style="fill:#1f77b4;stroke:#1f77b4;" x="275.512066" xlink:href="#mb5dcd4e3ae" y="149.932959"/>
     <use style="fill:#1f77b4;stroke:#1f77b4;" x="280.431074" xlink:href="#mb5dcd4e3ae" y="145.01395"/>
     <use style="fill:#1f77b4;stroke:#1f77b4;" x="285.350083" xlink:href="#mb5dcd4e3ae" y="199.123041"/>
     <use style="fill:#1f77b4;stroke:#1f77b4;" x="290.269091" xlink:href="#mb5dcd4e3ae" y="194.204033"/>
     <use style="fill:#1f77b4;stroke:#1f77b4;" x="295.188099" xlink:href="#mb5dcd4e3ae" y="189.285025"/>
     <use style="fill:#1f77b4;stroke:#1f77b4;" x="300.107107" xlink:href="#mb5dcd4e3ae" y="184.366017"/>
     <use style="fill:#1f77b4;stroke:#1f77b4;" x="305.026116" xlink:href="#mb5dcd4e3ae" y="179.447008"/>
     <use style="fill:#1f77b4;stroke:#1f77b4;" x="309.945124" xlink:href="#mb5dcd4e3ae" y="174.528"/>
     <use style="fill:#1f77b4;stroke:#1f77b4;" x="314.864132" xlink:href="#mb5dcd4e3ae" y="169.608992"/>
     <use style="fill:#1f77b4;stroke:#1f77b4;" x="319.78314" xlink:href="#mb5dcd4e3ae" y="164.689983"/>
     <use style="fill:#1f77b4;stroke:#1f77b4;" x="324.702149" xlink:href="#mb5dcd4e3ae" y="159.770975"/>
     <use style="fill:#1f77b4;stroke:#1f77b4;" x="329.621157" xlink:href="#mb5dcd4e3ae" y="154.851967"/>
     <use style="fill:#1f77b4;stroke:#1f77b4;" x="334.540165" xlink:href="#mb5dcd4e3ae" y="149.932959"/>
     <use style="fill:#1f77b4;stroke:#1f77b4;" x="339.459174" xlink:href="#mb5dcd4e3ae" y="145.01395"/>
     <use style="fill:#1f77b4;stroke:#1f77b4;" x="344.378182" xlink:href="#mb5dcd4e3ae" y="199.123041"/>
     <use style="fill:#1f77b4;stroke:#1f77b4;" x="349.29719" xlink:href="#mb5dcd4e3ae" y="194.204033"/>
     <use style="fill:#1f77b4;stroke:#1f77b4;" x="354.216198" xlink:href="#mb5dcd4e3ae" y="189.285025"/>
     <use style="fill:#1f77b4;stroke:#1f77b4;" x="359.135207" xlink:href="#mb5dcd4e3ae" y="184.366017"/>
     <use style="fill:#1f77b4;stroke:#1f77b4;" x="364.054215" xlink:href="#mb5dcd4e3ae" y="179.447008"/>
     <use style="fill:#1f77b4;stroke:#1f77b4;" x="368.973223" xlink:href="#mb5dcd4e3ae" y="174.528"/>
     <use style="fill:#1f77b4;stroke:#1f77b4;" x="373.892231" xlink:href="#mb5dcd4e3ae" y="169.608992"/>
     <use style="fill:#1f77b4;stroke:#1f77b4;" x="378.81124" xlink:href="#mb5dcd4e3ae" y="164.689983"/>
     <use style="fill:#1f77b4;stroke:#1f77b4;" x="383.730248" xlink:href="#mb5dcd4e3ae" y="159.770975"/>
     <use style="fill:#1f77b4;stroke:#1f77b4;" x="388.649256" xlink:href="#mb5dcd4e3ae" y="154.851967"/>
     <use style="fill:#1f77b4;stroke:#1f77b4;" x="393.568264" xlink:href="#mb5dcd4e3ae" y="149.932959"/>
     <use style="fill:#1f77b4;stroke:#1f77b4;" x="398.487273" xlink:href="#mb5dcd4e3ae" y="145.01395"/>
    </g>
   </g>
   <g id="patch_3">
    <path d="M 57.6 206.993455 
L 57.6 142.062545 
" style="fill:none;stroke:#000000;stroke-linecap:square;stroke-linejoin:miter;stroke-width:0.8;"/>
   </g>
   <g id="patch_4">
    <path d="M 414.72 206.993455 
L 414.72 142.062545 
" style="fill:none;stroke:#000000;stroke-linecap:square;stroke-linejoin:miter;stroke-width:0.8;"/>
   </g>
   <g id="patch_5">
    <path d="M 57.6 206.993455 
L 414.72 206.993455 
" style="fill:none;stroke:#000000;stroke-linecap:square;stroke-linejoin:miter;stroke-width:0.8;"/>
   </g>
   <g id="patch_6">
    <path d="M 57.6 142.062545 
L 414.72 142.062545 
" style="fill:none;stroke:#000000;stroke-linecap:square;stroke-linejoin:miter;stroke-width:0.8;"/>
   </g>
   <g id="legend_1">
    <g id="patch_7">
     <path d="M 403.72 155.062545 
L 407.72 155.062545 
Q 409.72 155.062545 409.72 153.062545 
L 409.72 149.062545 
Q 409.72 147.062545 407.72 147.062545 
L 403.72 147.062545 
Q 401.72 147.062545 401.72 149.062545 
L 401.72 153.062545 
Q 401.72 155.062545 403.72 155.062545 
z
" style="fill:#ffffff;opacity:0.8;stroke:#cccccc;stroke-linejoin:miter;"/>
    </g>
   </g>
  </g>
 </g>
 <defs>
  <clipPath id="p648c8a9d2a">
   <rect height="64.930909" width="357.12" x="57.6" y="142.062545"/>
  </clipPath>
 </defs>
</svg>
