<?xml version="1.0" encoding="utf-8" standalone="no"?>
<!DOCTYPE svg PUBLIC "-//W3C//DTD SVG 1.1//EN"
  "http://www.w3.org/Graphics/SVG/1.1/DTD/svg11.dtd">
<!-- Created with matplotlib (http://matplotlib.org/) -->
<svg height="345.6pt" version="1.1" viewBox="0 0 460.8 345.6" width="460.8pt" xmlns="http://www.w3.org/2000/svg" xmlns:xlink="http://www.w3.org/1999/xlink">
 <defs>
  <style type="text/css">
*{stroke-linecap:butt;stroke-linejoin:round;}
  </style>
 </defs>
 <g id="figure_1">
  <g id="patch_1">
   <path d="M 0 345.6 
L 460.8 345.6 
L 460.8 0 
L 0 0 
z
" style="fill:#ffffff;"/>
  </g>
  <g id="axes_1">
   <g id="patch_2">
    <path d="M 57.6 307.584 
L 414.72 307.584 
L 414.72 41.472 
L 57.6 41.472 
z
" style="fill:#ffffff;"/>
   </g>
   <g id="matplotlib.axis_1">
    <g id="xtick_1">
     <g id="line2d_1">
      <defs>
       <path d="M 0 0 
L 0 3.5 
" id="m12fd1a32ca" style="stroke:#000000;stroke-width:0.8;"/>
      </defs>
      <g>
       <use style="stroke:#000000;stroke-width:0.8;" x="73.832727" xlink:href="#m12fd1a32ca" y="307.584"/>
      </g>
     </g>
     <g id="text_1">
      <!-- $-3\pi$ -->
      <defs>
       <path d="M 10.59375 35.5 
L 73.1875 35.5 
L 73.1875 27.203125 
L 10.59375 27.203125 
z
" id="DejaVuSans-2212"/>
       <path d="M 40.578125 39.3125 
Q 47.65625 37.796875 51.625 33 
Q 55.609375 28.21875 55.609375 21.1875 
Q 55.609375 10.40625 48.1875 4.484375 
Q 40.765625 -1.421875 27.09375 -1.421875 
Q 22.515625 -1.421875 17.65625 -0.515625 
Q 12.796875 0.390625 7.625 2.203125 
L 7.625 11.71875 
Q 11.71875 9.328125 16.59375 8.109375 
Q 21.484375 6.890625 26.8125 6.890625 
Q 36.078125 6.890625 40.9375 10.546875 
Q 45.796875 14.203125 45.796875 21.1875 
Q 45.796875 27.640625 41.28125 31.265625 
Q 36.765625 34.90625 28.71875 34.90625 
L 20.21875 34.90625 
L 20.21875 43.015625 
L 29.109375 43.015625 
Q 36.375 43.015625 40.234375 45.921875 
Q 44.09375 48.828125 44.09375 54.296875 
Q 44.09375 59.90625 40.109375 62.90625 
Q 36.140625 65.921875 28.71875 65.921875 
Q 24.65625 65.921875 20.015625 65.03125 
Q 15.375 64.15625 9.8125 62.3125 
L 9.8125 71.09375 
Q 15.4375 72.65625 20.34375 73.4375 
Q 25.25 74.21875 29.59375 74.21875 
Q 40.828125 74.21875 47.359375 69.109375 
Q 53.90625 64.015625 53.90625 55.328125 
Q 53.90625 49.265625 50.4375 45.09375 
Q 46.96875 40.921875 40.578125 39.3125 
z
" id="DejaVuSans-33"/>
       <path d="M 9.125 54.6875 
L 61.53125 54.6875 
L 59.765625 45.703125 
L 52.875 45.703125 
L 46.34375 12.109375 
Q 45.65625 8.59375 46.578125 7.03125 
Q 47.46875 5.515625 50.140625 5.515625 
Q 50.875 5.515625 51.953125 5.671875 
Q 53.078125 5.765625 53.421875 5.8125 
L 52.15625 -0.6875 
Q 50.34375 -1.3125 48.484375 -1.609375 
Q 46.578125 -1.90625 44.78125 -1.90625 
Q 38.921875 -1.90625 37.3125 1.265625 
Q 35.6875 4.5 37.359375 13.09375 
L 43.703125 45.703125 
L 23.53125 45.703125 
L 14.65625 0 
L 5.46875 0 
L 14.359375 45.703125 
L 7.375 45.703125 
z
" id="DejaVuSans-Oblique-3c0"/>
      </defs>
      <g transform="translate(63.432727 322.182437)scale(0.1 -0.1)">
       <use transform="translate(0 0.78125)" xlink:href="#DejaVuSans-2212"/>
       <use transform="translate(83.789062 0.78125)" xlink:href="#DejaVuSans-33"/>
       <use transform="translate(147.412109 0.78125)" xlink:href="#DejaVuSans-Oblique-3c0"/>
      </g>
     </g>
    </g>
    <g id="xtick_2">
     <g id="line2d_2">
      <g>
       <use style="stroke:#000000;stroke-width:0.8;" x="127.941818" xlink:href="#m12fd1a32ca" y="307.584"/>
      </g>
     </g>
     <g id="text_2">
      <!-- $-2\pi$ -->
      <defs>
       <path d="M 19.1875 8.296875 
L 53.609375 8.296875 
L 53.609375 0 
L 7.328125 0 
L 7.328125 8.296875 
Q 12.9375 14.109375 22.625 23.890625 
Q 32.328125 33.6875 34.8125 36.53125 
Q 39.546875 41.84375 41.421875 45.53125 
Q 43.3125 49.21875 43.3125 52.78125 
Q 43.3125 58.59375 39.234375 62.25 
Q 35.15625 65.921875 28.609375 65.921875 
Q 23.96875 65.921875 18.8125 64.3125 
Q 13.671875 62.703125 7.8125 59.421875 
L 7.8125 69.390625 
Q 13.765625 71.78125 18.9375 73 
Q 24.125 74.21875 28.421875 74.21875 
Q 39.75 74.21875 46.484375 68.546875 
Q 53.21875 62.890625 53.21875 53.421875 
Q 53.21875 48.921875 51.53125 44.890625 
Q 49.859375 40.875 45.40625 35.40625 
Q 44.1875 33.984375 37.640625 27.21875 
Q 31.109375 20.453125 19.1875 8.296875 
z
" id="DejaVuSans-32"/>
      </defs>
      <g transform="translate(117.541818 322.182437)scale(0.1 -0.1)">
       <use transform="translate(0 0.78125)" xlink:href="#DejaVuSans-2212"/>
       <use transform="translate(83.789062 0.78125)" xlink:href="#DejaVuSans-32"/>
       <use transform="translate(147.412109 0.78125)" xlink:href="#DejaVuSans-Oblique-3c0"/>
      </g>
     </g>
    </g>
    <g id="xtick_3">
     <g id="line2d_3">
      <g>
       <use style="stroke:#000000;stroke-width:0.8;" x="182.050909" xlink:href="#m12fd1a32ca" y="307.584"/>
      </g>
     </g>
     <g id="text_3">
      <!-- $-\pi$ -->
      <g transform="translate(174.850909 322.182437)scale(0.1 -0.1)">
       <use transform="translate(0 0.3125)" xlink:href="#DejaVuSans-2212"/>
       <use transform="translate(83.789062 0.3125)" xlink:href="#DejaVuSans-Oblique-3c0"/>
      </g>
     </g>
    </g>
    <g id="xtick_4">
     <g id="line2d_4">
      <g>
       <use style="stroke:#000000;stroke-width:0.8;" x="236.16" xlink:href="#m12fd1a32ca" y="307.584"/>
      </g>
     </g>
     <g id="text_4">
      <!-- 0 -->
      <defs>
       <path d="M 31.78125 66.40625 
Q 24.171875 66.40625 20.328125 58.90625 
Q 16.5 51.421875 16.5 36.375 
Q 16.5 21.390625 20.328125 13.890625 
Q 24.171875 6.390625 31.78125 6.390625 
Q 39.453125 6.390625 43.28125 13.890625 
Q 47.125 21.390625 47.125 36.375 
Q 47.125 51.421875 43.28125 58.90625 
Q 39.453125 66.40625 31.78125 66.40625 
z
M 31.78125 74.21875 
Q 44.046875 74.21875 50.515625 64.515625 
Q 56.984375 54.828125 56.984375 36.375 
Q 56.984375 17.96875 50.515625 8.265625 
Q 44.046875 -1.421875 31.78125 -1.421875 
Q 19.53125 -1.421875 13.0625 8.265625 
Q 6.59375 17.96875 6.59375 36.375 
Q 6.59375 54.828125 13.0625 64.515625 
Q 19.53125 74.21875 31.78125 74.21875 
z
" id="DejaVuSans-30"/>
      </defs>
      <g transform="translate(232.97875 322.182437)scale(0.1 -0.1)">
       <use xlink:href="#DejaVuSans-30"/>
      </g>
     </g>
    </g>
    <g id="xtick_5">
     <g id="line2d_5">
      <g>
       <use style="stroke:#000000;stroke-width:0.8;" x="290.269091" xlink:href="#m12fd1a32ca" y="307.584"/>
      </g>
     </g>
     <g id="text_5">
      <!-- $\pi$ -->
      <g transform="translate(287.219091 322.182437)scale(0.1 -0.1)">
       <use transform="translate(0 0.3125)" xlink:href="#DejaVuSans-Oblique-3c0"/>
      </g>
     </g>
    </g>
    <g id="xtick_6">
     <g id="line2d_6">
      <g>
       <use style="stroke:#000000;stroke-width:0.8;" x="344.378182" xlink:href="#m12fd1a32ca" y="307.584"/>
      </g>
     </g>
     <g id="text_6">
      <!-- $2\pi$ -->
      <g transform="translate(338.178182 322.182437)scale(0.1 -0.1)">
       <use transform="translate(0 0.78125)" xlink:href="#DejaVuSans-32"/>
       <use transform="translate(63.623047 0.78125)" xlink:href="#DejaVuSans-Oblique-3c0"/>
      </g>
     </g>
    </g>
    <g id="xtick_7">
     <g id="line2d_7">
      <g>
       <use style="stroke:#000000;stroke-width:0.8;" x="398.487273" xlink:href="#m12fd1a32ca" y="307.584"/>
      </g>
     </g>
     <g id="text_7">
      <!-- $3\pi$ -->
      <g transform="translate(392.287273 322.182437)scale(0.1 -0.1)">
       <use transform="translate(0 0.78125)" xlink:href="#DejaVuSans-33"/>
       <use transform="translate(63.623047 0.78125)" xlink:href="#DejaVuSans-Oblique-3c0"/>
      </g>
     </g>
    </g>
   </g>
   <g id="matplotlib.axis_2">
    <g id="ytick_1">
     <g id="line2d_8">
      <defs>
       <path d="M 0 0 
L -3.5 0 
" id="maf7973e5da" style="stroke:#000000;stroke-width:0.8;"/>
      </defs>
      <g>
       <use style="stroke:#000000;stroke-width:0.8;" x="57.6" xlink:href="#maf7973e5da" y="269.529762"/>
      </g>
     </g>
     <g id="text_8">
      <!-- -1 -->
      <defs>
       <path d="M 4.890625 31.390625 
L 31.203125 31.390625 
L 31.203125 23.390625 
L 4.890625 23.390625 
z
" id="DejaVuSans-2d"/>
       <path d="M 12.40625 8.296875 
L 28.515625 8.296875 
L 28.515625 63.921875 
L 10.984375 60.40625 
L 10.984375 69.390625 
L 28.421875 72.90625 
L 38.28125 72.90625 
L 38.28125 8.296875 
L 54.390625 8.296875 
L 54.390625 0 
L 12.40625 0 
z
" id="DejaVuSans-31"/>
      </defs>
      <g transform="translate(40.629688 273.328981)scale(0.1 -0.1)">
       <use xlink:href="#DejaVuSans-2d"/>
       <use x="36.083984" xlink:href="#DejaVuSans-31"/>
      </g>
     </g>
    </g>
    <g id="ytick_2">
     <g id="line2d_9">
      <g>
       <use style="stroke:#000000;stroke-width:0.8;" x="57.6" xlink:href="#maf7973e5da" y="174.528"/>
      </g>
     </g>
     <g id="text_9">
      <!-- 0 -->
      <g transform="translate(44.2375 178.327219)scale(0.1 -0.1)">
       <use xlink:href="#DejaVuSans-30"/>
      </g>
     </g>
    </g>
    <g id="ytick_3">
     <g id="line2d_10">
      <g>
       <use style="stroke:#000000;stroke-width:0.8;" x="57.6" xlink:href="#maf7973e5da" y="79.526238"/>
      </g>
     </g>
     <g id="text_10">
      <!-- 1 -->
      <g transform="translate(44.2375 83.325457)scale(0.1 -0.1)">
       <use xlink:href="#DejaVuSans-31"/>
      </g>
     </g>
    </g>
   </g>
   <g id="line2d_11">
    <path clip-path="url(#pf983507e67)" d="M 73.832727 174.528 
L 78.341818 205.834752 
L 81.347879 225.647905 
L 84.353939 243.907806 
L 87.36 260.059636 
L 88.86303 267.188736 
L 90.366061 273.612631 
L 91.869091 279.282433 
L 93.372121 284.15499 
L 94.875152 288.193219 
L 96.378182 291.366388 
L 97.881212 293.650346 
L 99.384242 295.027711 
L 100.887273 295.488 
L 102.390303 295.027711 
L 103.893333 293.650346 
L 105.396364 291.366388 
L 106.899394 288.193219 
L 108.402424 284.15499 
L 109.905455 279.282433 
L 111.408485 273.612631 
L 112.911515 267.188736 
L 114.414545 260.059636 
L 115.917576 252.279589 
L 118.923636 235.008 
L 121.929697 215.898757 
L 126.438788 185.070359 
L 132.450909 143.221248 
L 135.45697 123.408095 
L 138.46303 105.148194 
L 141.469091 88.996364 
L 142.972121 81.867264 
L 144.475152 75.443369 
L 145.978182 69.773567 
L 147.481212 64.90101 
L 148.984242 60.862781 
L 150.487273 57.689612 
L 151.990303 55.405654 
L 153.493333 54.028289 
L 154.996364 53.568 
L 156.499394 54.028289 
L 158.002424 55.405654 
L 159.505455 57.689612 
L 161.008485 60.862781 
L 162.511515 64.90101 
L 164.014545 69.773567 
L 165.517576 75.443369 
L 167.020606 81.867264 
L 168.523636 88.996364 
L 170.026667 96.776411 
L 173.032727 114.048 
L 176.038788 133.157243 
L 180.547879 163.985641 
L 186.56 205.834752 
L 189.566061 225.647905 
L 192.572121 243.907806 
L 195.578182 260.059636 
L 197.081212 267.188736 
L 198.584242 273.612631 
L 200.087273 279.282433 
L 201.590303 284.15499 
L 203.093333 288.193219 
L 204.596364 291.366388 
L 206.099394 293.650346 
L 207.602424 295.027711 
L 209.105455 295.488 
L 210.608485 295.027711 
L 212.111515 293.650346 
L 213.614545 291.366388 
L 215.117576 288.193219 
L 216.620606 284.15499 
L 218.123636 279.282433 
L 219.626667 273.612631 
L 221.129697 267.188736 
L 222.632727 260.059636 
L 224.135758 252.279589 
L 227.141818 235.008 
L 230.147879 215.898757 
L 234.65697 185.070359 
L 240.669091 143.221248 
L 243.675152 123.408095 
L 246.681212 105.148194 
L 249.687273 88.996364 
L 251.190303 81.867264 
L 252.693333 75.443369 
L 254.196364 69.773567 
L 255.699394 64.90101 
L 257.202424 60.862781 
L 258.705455 57.689612 
L 260.208485 55.405654 
L 261.711515 54.028289 
L 263.214545 53.568 
L 264.717576 54.028289 
L 266.220606 55.405654 
L 267.723636 57.689612 
L 269.226667 60.862781 
L 270.729697 64.90101 
L 272.232727 69.773567 
L 273.735758 75.443369 
L 275.238788 81.867264 
L 276.741818 88.996364 
L 278.244848 96.776411 
L 281.250909 114.048 
L 284.25697 133.157243 
L 288.766061 163.985641 
L 294.778182 205.834752 
L 297.784242 225.647905 
L 300.790303 243.907806 
L 303.796364 260.059636 
L 305.299394 267.188736 
L 306.802424 273.612631 
L 308.305455 279.282433 
L 309.808485 284.15499 
L 311.311515 288.193219 
L 312.814545 291.366388 
L 314.317576 293.650346 
L 315.820606 295.027711 
L 317.323636 295.488 
L 318.826667 295.027711 
L 320.329697 293.650346 
L 321.832727 291.366388 
L 323.335758 288.193219 
L 324.838788 284.15499 
L 326.341818 279.282433 
L 327.844848 273.612631 
L 329.347879 267.188736 
L 330.850909 260.059636 
L 332.353939 252.279589 
L 335.36 235.008 
L 338.366061 215.898757 
L 342.875152 185.070359 
L 348.887273 143.221248 
L 351.893333 123.408095 
L 354.899394 105.148194 
L 357.905455 88.996364 
L 359.408485 81.867264 
L 360.911515 75.443369 
L 362.414545 69.773567 
L 363.917576 64.90101 
L 365.420606 60.862781 
L 366.923636 57.689612 
L 368.426667 55.405654 
L 369.929697 54.028289 
L 371.432727 53.568 
L 372.935758 54.028289 
L 374.438788 55.405654 
L 375.941818 57.689612 
L 377.444848 60.862781 
L 378.947879 64.90101 
L 380.450909 69.773567 
L 381.953939 75.443369 
L 383.45697 81.867264 
L 384.96 88.996364 
L 386.46303 96.776411 
L 389.469091 114.048 
L 392.475152 133.157243 
L 396.984242 163.985641 
L 398.487273 174.528 
L 398.487273 174.528 
" style="fill:none;stroke:#1f77b4;stroke-linecap:square;stroke-width:1.5;"/>
   </g>
   <g id="line2d_12">
    <path clip-path="url(#pf983507e67)" d="M 73.832727 174.528 
L 76.838788 215.692484 
L 78.341818 234.345297 
L 79.844848 250.816901 
L 81.347879 264.594034 
L 82.850909 275.328 
L 84.353939 282.853935 
L 85.85697 287.197734 
L 87.36 288.570182 
L 88.86303 287.348736 
L 90.366061 284.048215 
L 91.869091 279.282433 
L 96.378182 262.855843 
L 97.881212 258.732202 
L 99.384242 256.081581 
L 100.887273 255.168 
L 102.390303 256.081581 
L 103.893333 258.732202 
L 105.396364 262.855843 
L 106.899394 268.033219 
L 109.905455 279.282433 
L 111.408485 284.048215 
L 112.911515 287.348736 
L 114.414545 288.570182 
L 115.917576 287.197734 
L 117.420606 282.853935 
L 118.923636 275.328 
L 120.426667 264.594034 
L 121.929697 250.816901 
L 123.432727 234.345297 
L 124.935758 215.692484 
L 127.941818 174.528 
L 130.947879 133.363516 
L 132.450909 114.710703 
L 133.953939 98.239099 
L 135.45697 84.461966 
L 136.96 73.728 
L 138.46303 66.202065 
L 139.966061 61.858266 
L 141.469091 60.485818 
L 142.972121 61.707264 
L 144.475152 65.007785 
L 145.978182 69.773567 
L 150.487273 86.200157 
L 151.990303 90.323798 
L 153.493333 92.974419 
L 154.996364 93.888 
L 156.499394 92.974419 
L 158.002424 90.323798 
L 159.505455 86.200157 
L 161.008485 81.022781 
L 164.014545 69.773567 
L 165.517576 65.007785 
L 167.020606 61.707264 
L 168.523636 60.485818 
L 170.026667 61.858266 
L 171.529697 66.202065 
L 173.032727 73.728 
L 174.535758 84.461966 
L 176.038788 98.239099 
L 177.541818 114.710703 
L 179.044848 133.363516 
L 182.050909 174.528 
L 185.05697 215.692484 
L 186.56 234.345297 
L 188.06303 250.816901 
L 189.566061 264.594034 
L 191.069091 275.328 
L 192.572121 282.853935 
L 194.075152 287.197734 
L 195.578182 288.570182 
L 197.081212 287.348736 
L 198.584242 284.048215 
L 200.087273 279.282433 
L 204.596364 262.855843 
L 206.099394 258.732202 
L 207.602424 256.081581 
L 209.105455 255.168 
L 210.608485 256.081581 
L 212.111515 258.732202 
L 213.614545 262.855843 
L 215.117576 268.033219 
L 218.123636 279.282433 
L 219.626667 284.048215 
L 221.129697 287.348736 
L 222.632727 288.570182 
L 224.135758 287.197734 
L 225.638788 282.853935 
L 227.141818 275.328 
L 228.644848 264.594034 
L 230.147879 250.816901 
L 231.650909 234.345297 
L 233.153939 215.692484 
L 236.16 174.528 
L 239.166061 133.363516 
L 240.669091 114.710703 
L 242.172121 98.239099 
L 243.675152 84.461966 
L 245.178182 73.728 
L 246.681212 66.202065 
L 248.184242 61.858266 
L 249.687273 60.485818 
L 251.190303 61.707264 
L 252.693333 65.007785 
L 254.196364 69.773567 
L 258.705455 86.200157 
L 260.208485 90.323798 
L 261.711515 92.974419 
L 263.214545 93.888 
L 264.717576 92.974419 
L 266.220606 90.323798 
L 267.723636 86.200157 
L 269.226667 81.022781 
L 272.232727 69.773567 
L 273.735758 65.007785 
L 275.238788 61.707264 
L 276.741818 60.485818 
L 278.244848 61.858266 
L 279.747879 66.202065 
L 281.250909 73.728 
L 282.753939 84.461966 
L 284.25697 98.239099 
L 285.76 114.710703 
L 287.26303 133.363516 
L 290.269091 174.528 
L 293.275152 215.692484 
L 294.778182 234.345297 
L 296.281212 250.816901 
L 297.784242 264.594034 
L 299.287273 275.328 
L 300.790303 282.853935 
L 302.293333 287.197734 
L 303.796364 288.570182 
L 305.299394 287.348736 
L 306.802424 284.048215 
L 308.305455 279.282433 
L 312.814545 262.855843 
L 314.317576 258.732202 
L 315.820606 256.081581 
L 317.323636 255.168 
L 318.826667 256.081581 
L 320.329697 258.732202 
L 321.832727 262.855843 
L 323.335758 268.033219 
L 326.341818 279.282433 
L 327.844848 284.048215 
L 329.347879 287.348736 
L 330.850909 288.570182 
L 332.353939 287.197734 
L 333.85697 282.853935 
L 335.36 275.328 
L 336.86303 264.594034 
L 338.366061 250.816901 
L 339.869091 234.345297 
L 341.372121 215.692484 
L 344.378182 174.528 
L 347.384242 133.363516 
L 348.887273 114.710703 
L 350.390303 98.239099 
L 351.893333 84.461966 
L 353.396364 73.728 
L 354.899394 66.202065 
L 356.402424 61.858266 
L 357.905455 60.485818 
L 359.408485 61.707264 
L 360.911515 65.007785 
L 362.414545 69.773567 
L 366.923636 86.200157 
L 368.426667 90.323798 
L 369.929697 92.974419 
L 371.432727 93.888 
L 372.935758 92.974419 
L 374.438788 90.323798 
L 375.941818 86.200157 
L 377.444848 81.022781 
L 380.450909 69.773567 
L 381.953939 65.007785 
L 383.45697 61.707264 
L 384.96 60.485818 
L 386.46303 61.858266 
L 387.966061 66.202065 
L 389.469091 73.728 
L 390.972121 84.461966 
L 392.475152 98.239099 
L 393.978182 114.710703 
L 395.481212 133.363516 
L 398.487273 174.528 
L 398.487273 174.528 
" style="fill:none;stroke:#ff7f0e;stroke-linecap:square;stroke-width:1.5;"/>
   </g>
   <g id="line2d_13">
    <path clip-path="url(#pf983507e67)" d="M 73.832727 174.528 
L 75.335758 205.729924 
L 76.838788 234.224631 
L 78.341818 257.712975 
L 79.844848 274.64137 
L 81.347879 284.410961 
L 82.850909 287.424 
L 84.353939 284.962407 
L 85.85697 278.923582 
L 87.36 271.463854 
L 88.86303 264.615692 
L 90.366061 259.948273 
L 91.869091 258.331546 
L 93.372121 259.843445 
L 94.875152 263.832323 
L 97.881212 274.282519 
L 99.384242 278.006979 
L 100.887273 279.36 
L 102.390303 278.006979 
L 103.893333 274.282519 
L 106.899394 263.832323 
L 108.402424 259.843445 
L 109.905455 258.331546 
L 111.408485 259.948273 
L 112.911515 264.615692 
L 114.414545 271.463854 
L 115.917576 278.923582 
L 117.420606 284.962407 
L 118.923636 287.424 
L 120.426667 284.410961 
L 121.929697 274.64137 
L 123.432727 257.712975 
L 124.935758 234.224631 
L 126.438788 205.729924 
L 129.444848 143.326076 
L 130.947879 114.831369 
L 132.450909 91.343025 
L 133.953939 74.41463 
L 135.45697 64.645039 
L 136.96 61.632 
L 138.46303 64.093593 
L 139.966061 70.132418 
L 141.469091 77.592146 
L 142.972121 84.440308 
L 144.475152 89.107727 
L 145.978182 90.724454 
L 147.481212 89.212555 
L 148.984242 85.223677 
L 151.990303 74.773481 
L 153.493333 71.049021 
L 154.996364 69.696 
L 156.499394 71.049021 
L 158.002424 74.773481 
L 161.008485 85.223677 
L 162.511515 89.212555 
L 164.014545 90.724454 
L 165.517576 89.107727 
L 167.020606 84.440308 
L 168.523636 77.592146 
L 170.026667 70.132418 
L 171.529697 64.093593 
L 173.032727 61.632 
L 174.535758 64.645039 
L 176.038788 74.41463 
L 177.541818 91.343025 
L 179.044848 114.831369 
L 180.547879 143.326076 
L 183.553939 205.729924 
L 185.05697 234.224631 
L 186.56 257.712975 
L 188.06303 274.64137 
L 189.566061 284.410961 
L 191.069091 287.424 
L 192.572121 284.962407 
L 194.075152 278.923582 
L 195.578182 271.463854 
L 197.081212 264.615692 
L 198.584242 259.948273 
L 200.087273 258.331546 
L 201.590303 259.843445 
L 203.093333 263.832323 
L 206.099394 274.282519 
L 207.602424 278.006979 
L 209.105455 279.36 
L 210.608485 278.006979 
L 212.111515 274.282519 
L 215.117576 263.832323 
L 216.620606 259.843445 
L 218.123636 258.331546 
L 219.626667 259.948273 
L 221.129697 264.615692 
L 222.632727 271.463854 
L 224.135758 278.923582 
L 225.638788 284.962407 
L 227.141818 287.424 
L 228.644848 284.410961 
L 230.147879 274.64137 
L 231.650909 257.712975 
L 233.153939 234.224631 
L 234.65697 205.729924 
L 237.66303 143.326076 
L 239.166061 114.831369 
L 240.669091 91.343025 
L 242.172121 74.41463 
L 243.675152 64.645039 
L 245.178182 61.632 
L 246.681212 64.093593 
L 248.184242 70.132418 
L 249.687273 77.592146 
L 251.190303 84.440308 
L 252.693333 89.107727 
L 254.196364 90.724454 
L 255.699394 89.212555 
L 257.202424 85.223677 
L 260.208485 74.773481 
L 261.711515 71.049021 
L 263.214545 69.696 
L 264.717576 71.049021 
L 266.220606 74.773481 
L 269.226667 85.223677 
L 270.729697 89.212555 
L 272.232727 90.724454 
L 273.735758 89.107727 
L 275.238788 84.440308 
L 276.741818 77.592146 
L 278.244848 70.132418 
L 279.747879 64.093593 
L 281.250909 61.632 
L 282.753939 64.645039 
L 284.25697 74.41463 
L 285.76 91.343025 
L 287.26303 114.831369 
L 288.766061 143.326076 
L 291.772121 205.729924 
L 293.275152 234.224631 
L 294.778182 257.712975 
L 296.281212 274.64137 
L 297.784242 284.410961 
L 299.287273 287.424 
L 300.790303 284.962407 
L 302.293333 278.923582 
L 303.796364 271.463854 
L 305.299394 264.615692 
L 306.802424 259.948273 
L 308.305455 258.331546 
L 309.808485 259.843445 
L 311.311515 263.832323 
L 314.317576 274.282519 
L 315.820606 278.006979 
L 317.323636 279.36 
L 318.826667 278.006979 
L 320.329697 274.282519 
L 323.335758 263.832323 
L 324.838788 259.843445 
L 326.341818 258.331546 
L 327.844848 259.948273 
L 329.347879 264.615692 
L 330.850909 271.463854 
L 332.353939 278.923582 
L 333.85697 284.962407 
L 335.36 287.424 
L 336.86303 284.410961 
L 338.366061 274.64137 
L 339.869091 257.712975 
L 341.372121 234.224631 
L 342.875152 205.729924 
L 345.881212 143.326076 
L 347.384242 114.831369 
L 348.887273 91.343025 
L 350.390303 74.41463 
L 351.893333 64.645039 
L 353.396364 61.632 
L 354.899394 64.093593 
L 356.402424 70.132418 
L 357.905455 77.592146 
L 359.408485 84.440308 
L 360.911515 89.107727 
L 362.414545 90.724454 
L 363.917576 89.212555 
L 365.420606 85.223677 
L 368.426667 74.773481 
L 369.929697 71.049021 
L 371.432727 69.696 
L 372.935758 71.049021 
L 374.438788 74.773481 
L 377.444848 85.223677 
L 378.947879 89.212555 
L 380.450909 90.724454 
L 381.953939 89.107727 
L 383.45697 84.440308 
L 384.96 77.592146 
L 386.46303 70.132418 
L 387.966061 64.093593 
L 389.469091 61.632 
L 390.972121 64.645039 
L 392.475152 74.41463 
L 393.978182 91.343025 
L 395.481212 114.831369 
L 396.984242 143.326076 
L 398.487273 174.528 
L 398.487273 174.528 
" style="fill:none;stroke:#2ca02c;stroke-linecap:square;stroke-width:1.5;"/>
   </g>
   <g id="patch_3">
    <path d="M 57.6 307.584 
L 57.6 41.472 
" style="fill:none;stroke:#000000;stroke-linecap:square;stroke-linejoin:miter;stroke-width:0.8;"/>
   </g>
   <g id="patch_4">
    <path d="M 414.72 307.584 
L 414.72 41.472 
" style="fill:none;stroke:#000000;stroke-linecap:square;stroke-linejoin:miter;stroke-width:0.8;"/>
   </g>
   <g id="patch_5">
    <path d="M 57.6 307.584 
L 414.72 307.584 
" style="fill:none;stroke:#000000;stroke-linecap:square;stroke-linejoin:miter;stroke-width:0.8;"/>
   </g>
   <g id="patch_6">
    <path d="M 57.6 41.472 
L 414.72 41.472 
" style="fill:none;stroke:#000000;stroke-linecap:square;stroke-linejoin:miter;stroke-width:0.8;"/>
   </g>
   <g id="legend_1">
    <g id="patch_7">
     <path d="M 64.6 93.506375 
L 136.760938 93.506375 
Q 138.760938 93.506375 138.760938 91.506375 
L 138.760938 48.472 
Q 138.760938 46.472 136.760938 46.472 
L 64.6 46.472 
Q 62.6 46.472 62.6 48.472 
L 62.6 91.506375 
Q 62.6 93.506375 64.6 93.506375 
z
" style="fill:#ffffff;opacity:0.8;stroke:#cccccc;stroke-linejoin:miter;"/>
    </g>
    <g id="line2d_14">
     <path d="M 66.6 54.570438 
L 86.6 54.570438 
" style="fill:none;stroke:#1f77b4;stroke-linecap:square;stroke-width:1.5;"/>
    </g>
    <g id="line2d_15"/>
    <g id="text_11">
     <!-- n=1 -->
     <defs>
      <path d="M 54.890625 33.015625 
L 54.890625 0 
L 45.90625 0 
L 45.90625 32.71875 
Q 45.90625 40.484375 42.875 44.328125 
Q 39.84375 48.1875 33.796875 48.1875 
Q 26.515625 48.1875 22.3125 43.546875 
Q 18.109375 38.921875 18.109375 30.90625 
L 18.109375 0 
L 9.078125 0 
L 9.078125 54.6875 
L 18.109375 54.6875 
L 18.109375 46.1875 
Q 21.34375 51.125 25.703125 53.5625 
Q 30.078125 56 35.796875 56 
Q 45.21875 56 50.046875 50.171875 
Q 54.890625 44.34375 54.890625 33.015625 
z
" id="DejaVuSans-6e"/>
      <path d="M 10.59375 45.40625 
L 73.1875 45.40625 
L 73.1875 37.203125 
L 10.59375 37.203125 
z
M 10.59375 25.484375 
L 73.1875 25.484375 
L 73.1875 17.1875 
L 10.59375 17.1875 
z
" id="DejaVuSans-3d"/>
     </defs>
     <g transform="translate(94.6 58.070438)scale(0.1 -0.1)">
      <use xlink:href="#DejaVuSans-6e"/>
      <use x="63.378906" xlink:href="#DejaVuSans-3d"/>
      <use x="147.167969" xlink:href="#DejaVuSans-31"/>
     </g>
    </g>
    <g id="line2d_16">
     <path d="M 66.6 69.248563 
L 86.6 69.248563 
" style="fill:none;stroke:#ff7f0e;stroke-linecap:square;stroke-width:1.5;"/>
    </g>
    <g id="line2d_17"/>
    <g id="text_12">
     <!-- n=1,3 -->
     <defs>
      <path d="M 11.71875 12.40625 
L 22.015625 12.40625 
L 22.015625 4 
L 14.015625 -11.625 
L 7.71875 -11.625 
L 11.71875 4 
z
" id="DejaVuSans-2c"/>
     </defs>
     <g transform="translate(94.6 72.748563)scale(0.1 -0.1)">
      <use xlink:href="#DejaVuSans-6e"/>
      <use x="63.378906" xlink:href="#DejaVuSans-3d"/>
      <use x="147.167969" xlink:href="#DejaVuSans-31"/>
      <use x="210.791016" xlink:href="#DejaVuSans-2c"/>
      <use x="242.578125" xlink:href="#DejaVuSans-33"/>
     </g>
    </g>
    <g id="line2d_18">
     <path d="M 66.6 83.926688 
L 86.6 83.926688 
" style="fill:none;stroke:#2ca02c;stroke-linecap:square;stroke-width:1.5;"/>
    </g>
    <g id="line2d_19"/>
    <g id="text_13">
     <!-- n=1,3,5 -->
     <defs>
      <path d="M 10.796875 72.90625 
L 49.515625 72.90625 
L 49.515625 64.59375 
L 19.828125 64.59375 
L 19.828125 46.734375 
Q 21.96875 47.46875 24.109375 47.828125 
Q 26.265625 48.1875 28.421875 48.1875 
Q 40.625 48.1875 47.75 41.5 
Q 54.890625 34.8125 54.890625 23.390625 
Q 54.890625 11.625 47.5625 5.09375 
Q 40.234375 -1.421875 26.90625 -1.421875 
Q 22.3125 -1.421875 17.546875 -0.640625 
Q 12.796875 0.140625 7.71875 1.703125 
L 7.71875 11.625 
Q 12.109375 9.234375 16.796875 8.0625 
Q 21.484375 6.890625 26.703125 6.890625 
Q 35.15625 6.890625 40.078125 11.328125 
Q 45.015625 15.765625 45.015625 23.390625 
Q 45.015625 31 40.078125 35.4375 
Q 35.15625 39.890625 26.703125 39.890625 
Q 22.75 39.890625 18.8125 39.015625 
Q 14.890625 38.140625 10.796875 36.28125 
z
" id="DejaVuSans-35"/>
     </defs>
     <g transform="translate(94.6 87.426688)scale(0.1 -0.1)">
      <use xlink:href="#DejaVuSans-6e"/>
      <use x="63.378906" xlink:href="#DejaVuSans-3d"/>
      <use x="147.167969" xlink:href="#DejaVuSans-31"/>
      <use x="210.791016" xlink:href="#DejaVuSans-2c"/>
      <use x="242.578125" xlink:href="#DejaVuSans-33"/>
      <use x="306.201172" xlink:href="#DejaVuSans-2c"/>
      <use x="337.988281" xlink:href="#DejaVuSans-35"/>
     </g>
    </g>
   </g>
  </g>
 </g>
 <defs>
  <clipPath id="pf983507e67">
   <rect height="266.112" width="357.12" x="57.6" y="41.472"/>
  </clipPath>
 </defs>
</svg>
