<?xml version="1.0" encoding="utf-8" standalone="no"?>
<!DOCTYPE svg PUBLIC "-//W3C//DTD SVG 1.1//EN"
  "http://www.w3.org/Graphics/SVG/1.1/DTD/svg11.dtd">
<!-- Created with matplotlib (http://matplotlib.org/) -->
<svg height="345.6pt" version="1.1" viewBox="0 0 460.8 345.6" width="460.8pt" xmlns="http://www.w3.org/2000/svg" xmlns:xlink="http://www.w3.org/1999/xlink">
 <defs>
  <style type="text/css">
*{stroke-linecap:butt;stroke-linejoin:round;}
  </style>
 </defs>
 <g id="figure_1">
  <g id="patch_1">
   <path d="M 0 345.6 
L 460.8 345.6 
L 460.8 0 
L 0 0 
z
" style="fill:#ffffff;"/>
  </g>
  <g id="axes_1">
   <g id="patch_2">
    <path d="M 57.6 307.584 
L 414.72 307.584 
L 414.72 41.472 
L 57.6 41.472 
z
" style="fill:#ffffff;"/>
   </g>
   <g id="matplotlib.axis_1">
    <g id="xtick_1">
     <g id="line2d_1">
      <defs>
       <path d="M 0 0 
L 0 3.5 
" id="mfde9b9f796" style="stroke:#000000;stroke-width:0.8;"/>
      </defs>
      <g>
       <use style="stroke:#000000;stroke-width:0.8;" x="73.832727" xlink:href="#mfde9b9f796" y="307.584"/>
      </g>
     </g>
     <g id="text_1">
      <!-- 0 -->
      <defs>
       <path d="M 31.78125 66.40625 
Q 24.171875 66.40625 20.328125 58.90625 
Q 16.5 51.421875 16.5 36.375 
Q 16.5 21.390625 20.328125 13.890625 
Q 24.171875 6.390625 31.78125 6.390625 
Q 39.453125 6.390625 43.28125 13.890625 
Q 47.125 21.390625 47.125 36.375 
Q 47.125 51.421875 43.28125 58.90625 
Q 39.453125 66.40625 31.78125 66.40625 
z
M 31.78125 74.21875 
Q 44.046875 74.21875 50.515625 64.515625 
Q 56.984375 54.828125 56.984375 36.375 
Q 56.984375 17.96875 50.515625 8.265625 
Q 44.046875 -1.421875 31.78125 -1.421875 
Q 19.53125 -1.421875 13.0625 8.265625 
Q 6.59375 17.96875 6.59375 36.375 
Q 6.59375 54.828125 13.0625 64.515625 
Q 19.53125 74.21875 31.78125 74.21875 
z
" id="DejaVuSans-30"/>
      </defs>
      <g transform="translate(70.651477 322.182437)scale(0.1 -0.1)">
       <use xlink:href="#DejaVuSans-30"/>
      </g>
     </g>
    </g>
    <g id="xtick_2">
     <g id="line2d_2">
      <g>
       <use style="stroke:#000000;stroke-width:0.8;" x="138.763636" xlink:href="#mfde9b9f796" y="307.584"/>
      </g>
     </g>
     <g id="text_2">
      <!-- 5 -->
      <defs>
       <path d="M 10.796875 72.90625 
L 49.515625 72.90625 
L 49.515625 64.59375 
L 19.828125 64.59375 
L 19.828125 46.734375 
Q 21.96875 47.46875 24.109375 47.828125 
Q 26.265625 48.1875 28.421875 48.1875 
Q 40.625 48.1875 47.75 41.5 
Q 54.890625 34.8125 54.890625 23.390625 
Q 54.890625 11.625 47.5625 5.09375 
Q 40.234375 -1.421875 26.90625 -1.421875 
Q 22.3125 -1.421875 17.546875 -0.640625 
Q 12.796875 0.140625 7.71875 1.703125 
L 7.71875 11.625 
Q 12.109375 9.234375 16.796875 8.0625 
Q 21.484375 6.890625 26.703125 6.890625 
Q 35.15625 6.890625 40.078125 11.328125 
Q 45.015625 15.765625 45.015625 23.390625 
Q 45.015625 31 40.078125 35.4375 
Q 35.15625 39.890625 26.703125 39.890625 
Q 22.75 39.890625 18.8125 39.015625 
Q 14.890625 38.140625 10.796875 36.28125 
z
" id="DejaVuSans-35"/>
      </defs>
      <g transform="translate(135.582386 322.182437)scale(0.1 -0.1)">
       <use xlink:href="#DejaVuSans-35"/>
      </g>
     </g>
    </g>
    <g id="xtick_3">
     <g id="line2d_3">
      <g>
       <use style="stroke:#000000;stroke-width:0.8;" x="203.694545" xlink:href="#mfde9b9f796" y="307.584"/>
      </g>
     </g>
     <g id="text_3">
      <!-- 10 -->
      <defs>
       <path d="M 12.40625 8.296875 
L 28.515625 8.296875 
L 28.515625 63.921875 
L 10.984375 60.40625 
L 10.984375 69.390625 
L 28.421875 72.90625 
L 38.28125 72.90625 
L 38.28125 8.296875 
L 54.390625 8.296875 
L 54.390625 0 
L 12.40625 0 
z
" id="DejaVuSans-31"/>
      </defs>
      <g transform="translate(197.332045 322.182437)scale(0.1 -0.1)">
       <use xlink:href="#DejaVuSans-31"/>
       <use x="63.623047" xlink:href="#DejaVuSans-30"/>
      </g>
     </g>
    </g>
    <g id="xtick_4">
     <g id="line2d_4">
      <g>
       <use style="stroke:#000000;stroke-width:0.8;" x="268.625455" xlink:href="#mfde9b9f796" y="307.584"/>
      </g>
     </g>
     <g id="text_4">
      <!-- 15 -->
      <g transform="translate(262.262955 322.182437)scale(0.1 -0.1)">
       <use xlink:href="#DejaVuSans-31"/>
       <use x="63.623047" xlink:href="#DejaVuSans-35"/>
      </g>
     </g>
    </g>
    <g id="xtick_5">
     <g id="line2d_5">
      <g>
       <use style="stroke:#000000;stroke-width:0.8;" x="333.556364" xlink:href="#mfde9b9f796" y="307.584"/>
      </g>
     </g>
     <g id="text_5">
      <!-- 20 -->
      <defs>
       <path d="M 19.1875 8.296875 
L 53.609375 8.296875 
L 53.609375 0 
L 7.328125 0 
L 7.328125 8.296875 
Q 12.9375 14.109375 22.625 23.890625 
Q 32.328125 33.6875 34.8125 36.53125 
Q 39.546875 41.84375 41.421875 45.53125 
Q 43.3125 49.21875 43.3125 52.78125 
Q 43.3125 58.59375 39.234375 62.25 
Q 35.15625 65.921875 28.609375 65.921875 
Q 23.96875 65.921875 18.8125 64.3125 
Q 13.671875 62.703125 7.8125 59.421875 
L 7.8125 69.390625 
Q 13.765625 71.78125 18.9375 73 
Q 24.125 74.21875 28.421875 74.21875 
Q 39.75 74.21875 46.484375 68.546875 
Q 53.21875 62.890625 53.21875 53.421875 
Q 53.21875 48.921875 51.53125 44.890625 
Q 49.859375 40.875 45.40625 35.40625 
Q 44.1875 33.984375 37.640625 27.21875 
Q 31.109375 20.453125 19.1875 8.296875 
z
" id="DejaVuSans-32"/>
      </defs>
      <g transform="translate(327.193864 322.182437)scale(0.1 -0.1)">
       <use xlink:href="#DejaVuSans-32"/>
       <use x="63.623047" xlink:href="#DejaVuSans-30"/>
      </g>
     </g>
    </g>
    <g id="xtick_6">
     <g id="line2d_6">
      <g>
       <use style="stroke:#000000;stroke-width:0.8;" x="398.487273" xlink:href="#mfde9b9f796" y="307.584"/>
      </g>
     </g>
     <g id="text_6">
      <!-- 25 -->
      <g transform="translate(392.124773 322.182437)scale(0.1 -0.1)">
       <use xlink:href="#DejaVuSans-32"/>
       <use x="63.623047" xlink:href="#DejaVuSans-35"/>
      </g>
     </g>
    </g>
    <g id="text_7">
     <!-- n -->
     <defs>
      <path d="M 54.890625 33.015625 
L 54.890625 0 
L 45.90625 0 
L 45.90625 32.71875 
Q 45.90625 40.484375 42.875 44.328125 
Q 39.84375 48.1875 33.796875 48.1875 
Q 26.515625 48.1875 22.3125 43.546875 
Q 18.109375 38.921875 18.109375 30.90625 
L 18.109375 0 
L 9.078125 0 
L 9.078125 54.6875 
L 18.109375 54.6875 
L 18.109375 46.1875 
Q 21.34375 51.125 25.703125 53.5625 
Q 30.078125 56 35.796875 56 
Q 45.21875 56 50.046875 50.171875 
Q 54.890625 44.34375 54.890625 33.015625 
z
" id="DejaVuSans-6e"/>
     </defs>
     <g transform="translate(232.99125 335.860562)scale(0.1 -0.1)">
      <use xlink:href="#DejaVuSans-6e"/>
     </g>
    </g>
   </g>
   <g id="matplotlib.axis_2">
    <g id="ytick_1">
     <g id="line2d_7">
      <defs>
       <path d="M 0 0 
L -3.5 0 
" id="m8353bb0b24" style="stroke:#000000;stroke-width:0.8;"/>
      </defs>
      <g>
       <use style="stroke:#000000;stroke-width:0.8;" x="57.6" xlink:href="#m8353bb0b24" y="295.488"/>
      </g>
     </g>
     <g id="text_8">
      <!-- 0 -->
      <g transform="translate(44.2375 299.287219)scale(0.1 -0.1)">
       <use xlink:href="#DejaVuSans-30"/>
      </g>
     </g>
    </g>
    <g id="ytick_2">
     <g id="line2d_8">
      <g>
       <use style="stroke:#000000;stroke-width:0.8;" x="57.6" xlink:href="#m8353bb0b24" y="258.269538"/>
      </g>
     </g>
     <g id="text_9">
      <!-- 50 -->
      <g transform="translate(37.875 262.068757)scale(0.1 -0.1)">
       <use xlink:href="#DejaVuSans-35"/>
       <use x="63.623047" xlink:href="#DejaVuSans-30"/>
      </g>
     </g>
    </g>
    <g id="ytick_3">
     <g id="line2d_9">
      <g>
       <use style="stroke:#000000;stroke-width:0.8;" x="57.6" xlink:href="#m8353bb0b24" y="221.051077"/>
      </g>
     </g>
     <g id="text_10">
      <!-- 100 -->
      <g transform="translate(31.5125 224.850296)scale(0.1 -0.1)">
       <use xlink:href="#DejaVuSans-31"/>
       <use x="63.623047" xlink:href="#DejaVuSans-30"/>
       <use x="127.246094" xlink:href="#DejaVuSans-30"/>
      </g>
     </g>
    </g>
    <g id="ytick_4">
     <g id="line2d_10">
      <g>
       <use style="stroke:#000000;stroke-width:0.8;" x="57.6" xlink:href="#m8353bb0b24" y="183.832615"/>
      </g>
     </g>
     <g id="text_11">
      <!-- 150 -->
      <g transform="translate(31.5125 187.631834)scale(0.1 -0.1)">
       <use xlink:href="#DejaVuSans-31"/>
       <use x="63.623047" xlink:href="#DejaVuSans-35"/>
       <use x="127.246094" xlink:href="#DejaVuSans-30"/>
      </g>
     </g>
    </g>
    <g id="ytick_5">
     <g id="line2d_11">
      <g>
       <use style="stroke:#000000;stroke-width:0.8;" x="57.6" xlink:href="#m8353bb0b24" y="146.614154"/>
      </g>
     </g>
     <g id="text_12">
      <!-- 200 -->
      <g transform="translate(31.5125 150.413373)scale(0.1 -0.1)">
       <use xlink:href="#DejaVuSans-32"/>
       <use x="63.623047" xlink:href="#DejaVuSans-30"/>
       <use x="127.246094" xlink:href="#DejaVuSans-30"/>
      </g>
     </g>
    </g>
    <g id="ytick_6">
     <g id="line2d_12">
      <g>
       <use style="stroke:#000000;stroke-width:0.8;" x="57.6" xlink:href="#m8353bb0b24" y="109.395692"/>
      </g>
     </g>
     <g id="text_13">
      <!-- 250 -->
      <g transform="translate(31.5125 113.194911)scale(0.1 -0.1)">
       <use xlink:href="#DejaVuSans-32"/>
       <use x="63.623047" xlink:href="#DejaVuSans-35"/>
       <use x="127.246094" xlink:href="#DejaVuSans-30"/>
      </g>
     </g>
    </g>
    <g id="ytick_7">
     <g id="line2d_13">
      <g>
       <use style="stroke:#000000;stroke-width:0.8;" x="57.6" xlink:href="#m8353bb0b24" y="72.177231"/>
      </g>
     </g>
     <g id="text_14">
      <!-- 300 -->
      <defs>
       <path d="M 40.578125 39.3125 
Q 47.65625 37.796875 51.625 33 
Q 55.609375 28.21875 55.609375 21.1875 
Q 55.609375 10.40625 48.1875 4.484375 
Q 40.765625 -1.421875 27.09375 -1.421875 
Q 22.515625 -1.421875 17.65625 -0.515625 
Q 12.796875 0.390625 7.625 2.203125 
L 7.625 11.71875 
Q 11.71875 9.328125 16.59375 8.109375 
Q 21.484375 6.890625 26.8125 6.890625 
Q 36.078125 6.890625 40.9375 10.546875 
Q 45.796875 14.203125 45.796875 21.1875 
Q 45.796875 27.640625 41.28125 31.265625 
Q 36.765625 34.90625 28.71875 34.90625 
L 20.21875 34.90625 
L 20.21875 43.015625 
L 29.109375 43.015625 
Q 36.375 43.015625 40.234375 45.921875 
Q 44.09375 48.828125 44.09375 54.296875 
Q 44.09375 59.90625 40.109375 62.90625 
Q 36.140625 65.921875 28.71875 65.921875 
Q 24.65625 65.921875 20.015625 65.03125 
Q 15.375 64.15625 9.8125 62.3125 
L 9.8125 71.09375 
Q 15.4375 72.65625 20.34375 73.4375 
Q 25.25 74.21875 29.59375 74.21875 
Q 40.828125 74.21875 47.359375 69.109375 
Q 53.90625 64.015625 53.90625 55.328125 
Q 53.90625 49.265625 50.4375 45.09375 
Q 46.96875 40.921875 40.578125 39.3125 
z
" id="DejaVuSans-33"/>
      </defs>
      <g transform="translate(31.5125 75.97645)scale(0.1 -0.1)">
       <use xlink:href="#DejaVuSans-33"/>
       <use x="63.623047" xlink:href="#DejaVuSans-30"/>
       <use x="127.246094" xlink:href="#DejaVuSans-30"/>
      </g>
     </g>
    </g>
    <g id="text_15">
     <!-- sum i up to n -->
     <defs>
      <path d="M 44.28125 53.078125 
L 44.28125 44.578125 
Q 40.484375 46.53125 36.375 47.5 
Q 32.28125 48.484375 27.875 48.484375 
Q 21.1875 48.484375 17.84375 46.4375 
Q 14.5 44.390625 14.5 40.28125 
Q 14.5 37.15625 16.890625 35.375 
Q 19.28125 33.59375 26.515625 31.984375 
L 29.59375 31.296875 
Q 39.15625 29.25 43.1875 25.515625 
Q 47.21875 21.78125 47.21875 15.09375 
Q 47.21875 7.46875 41.1875 3.015625 
Q 35.15625 -1.421875 24.609375 -1.421875 
Q 20.21875 -1.421875 15.453125 -0.5625 
Q 10.6875 0.296875 5.421875 2 
L 5.421875 11.28125 
Q 10.40625 8.6875 15.234375 7.390625 
Q 20.0625 6.109375 24.8125 6.109375 
Q 31.15625 6.109375 34.5625 8.28125 
Q 37.984375 10.453125 37.984375 14.40625 
Q 37.984375 18.0625 35.515625 20.015625 
Q 33.0625 21.96875 24.703125 23.78125 
L 21.578125 24.515625 
Q 13.234375 26.265625 9.515625 29.90625 
Q 5.8125 33.546875 5.8125 39.890625 
Q 5.8125 47.609375 11.28125 51.796875 
Q 16.75 56 26.8125 56 
Q 31.78125 56 36.171875 55.265625 
Q 40.578125 54.546875 44.28125 53.078125 
z
" id="DejaVuSans-73"/>
      <path d="M 8.5 21.578125 
L 8.5 54.6875 
L 17.484375 54.6875 
L 17.484375 21.921875 
Q 17.484375 14.15625 20.5 10.265625 
Q 23.53125 6.390625 29.59375 6.390625 
Q 36.859375 6.390625 41.078125 11.03125 
Q 45.3125 15.671875 45.3125 23.6875 
L 45.3125 54.6875 
L 54.296875 54.6875 
L 54.296875 0 
L 45.3125 0 
L 45.3125 8.40625 
Q 42.046875 3.421875 37.71875 1 
Q 33.40625 -1.421875 27.6875 -1.421875 
Q 18.265625 -1.421875 13.375 4.4375 
Q 8.5 10.296875 8.5 21.578125 
z
M 31.109375 56 
z
" id="DejaVuSans-75"/>
      <path d="M 52 44.1875 
Q 55.375 50.25 60.0625 53.125 
Q 64.75 56 71.09375 56 
Q 79.640625 56 84.28125 50.015625 
Q 88.921875 44.046875 88.921875 33.015625 
L 88.921875 0 
L 79.890625 0 
L 79.890625 32.71875 
Q 79.890625 40.578125 77.09375 44.375 
Q 74.3125 48.1875 68.609375 48.1875 
Q 61.625 48.1875 57.5625 43.546875 
Q 53.515625 38.921875 53.515625 30.90625 
L 53.515625 0 
L 44.484375 0 
L 44.484375 32.71875 
Q 44.484375 40.625 41.703125 44.40625 
Q 38.921875 48.1875 33.109375 48.1875 
Q 26.21875 48.1875 22.15625 43.53125 
Q 18.109375 38.875 18.109375 30.90625 
L 18.109375 0 
L 9.078125 0 
L 9.078125 54.6875 
L 18.109375 54.6875 
L 18.109375 46.1875 
Q 21.1875 51.21875 25.484375 53.609375 
Q 29.78125 56 35.6875 56 
Q 41.65625 56 45.828125 52.96875 
Q 50 49.953125 52 44.1875 
z
" id="DejaVuSans-6d"/>
      <path id="DejaVuSans-20"/>
      <path d="M 9.421875 54.6875 
L 18.40625 54.6875 
L 18.40625 0 
L 9.421875 0 
z
M 9.421875 75.984375 
L 18.40625 75.984375 
L 18.40625 64.59375 
L 9.421875 64.59375 
z
" id="DejaVuSans-69"/>
      <path d="M 18.109375 8.203125 
L 18.109375 -20.796875 
L 9.078125 -20.796875 
L 9.078125 54.6875 
L 18.109375 54.6875 
L 18.109375 46.390625 
Q 20.953125 51.265625 25.265625 53.625 
Q 29.59375 56 35.59375 56 
Q 45.5625 56 51.78125 48.09375 
Q 58.015625 40.1875 58.015625 27.296875 
Q 58.015625 14.40625 51.78125 6.484375 
Q 45.5625 -1.421875 35.59375 -1.421875 
Q 29.59375 -1.421875 25.265625 0.953125 
Q 20.953125 3.328125 18.109375 8.203125 
z
M 48.6875 27.296875 
Q 48.6875 37.203125 44.609375 42.84375 
Q 40.53125 48.484375 33.40625 48.484375 
Q 26.265625 48.484375 22.1875 42.84375 
Q 18.109375 37.203125 18.109375 27.296875 
Q 18.109375 17.390625 22.1875 11.75 
Q 26.265625 6.109375 33.40625 6.109375 
Q 40.53125 6.109375 44.609375 11.75 
Q 48.6875 17.390625 48.6875 27.296875 
z
" id="DejaVuSans-70"/>
      <path d="M 18.3125 70.21875 
L 18.3125 54.6875 
L 36.8125 54.6875 
L 36.8125 47.703125 
L 18.3125 47.703125 
L 18.3125 18.015625 
Q 18.3125 11.328125 20.140625 9.421875 
Q 21.96875 7.515625 27.59375 7.515625 
L 36.8125 7.515625 
L 36.8125 0 
L 27.59375 0 
Q 17.1875 0 13.234375 3.875 
Q 9.28125 7.765625 9.28125 18.015625 
L 9.28125 47.703125 
L 2.6875 47.703125 
L 2.6875 54.6875 
L 9.28125 54.6875 
L 9.28125 70.21875 
z
" id="DejaVuSans-74"/>
      <path d="M 30.609375 48.390625 
Q 23.390625 48.390625 19.1875 42.75 
Q 14.984375 37.109375 14.984375 27.296875 
Q 14.984375 17.484375 19.15625 11.84375 
Q 23.34375 6.203125 30.609375 6.203125 
Q 37.796875 6.203125 41.984375 11.859375 
Q 46.1875 17.53125 46.1875 27.296875 
Q 46.1875 37.015625 41.984375 42.703125 
Q 37.796875 48.390625 30.609375 48.390625 
z
M 30.609375 56 
Q 42.328125 56 49.015625 48.375 
Q 55.71875 40.765625 55.71875 27.296875 
Q 55.71875 13.875 49.015625 6.21875 
Q 42.328125 -1.421875 30.609375 -1.421875 
Q 18.84375 -1.421875 12.171875 6.21875 
Q 5.515625 13.875 5.515625 27.296875 
Q 5.515625 40.765625 12.171875 48.375 
Q 18.84375 56 30.609375 56 
z
" id="DejaVuSans-6f"/>
     </defs>
     <g transform="translate(25.432812 207.448312)rotate(-90)scale(0.1 -0.1)">
      <use xlink:href="#DejaVuSans-73"/>
      <use x="52.099609" xlink:href="#DejaVuSans-75"/>
      <use x="115.478516" xlink:href="#DejaVuSans-6d"/>
      <use x="212.890625" xlink:href="#DejaVuSans-20"/>
      <use x="244.677734" xlink:href="#DejaVuSans-69"/>
      <use x="272.460938" xlink:href="#DejaVuSans-20"/>
      <use x="304.248047" xlink:href="#DejaVuSans-75"/>
      <use x="367.626953" xlink:href="#DejaVuSans-70"/>
      <use x="431.103516" xlink:href="#DejaVuSans-20"/>
      <use x="462.890625" xlink:href="#DejaVuSans-74"/>
      <use x="502.099609" xlink:href="#DejaVuSans-6f"/>
      <use x="563.28125" xlink:href="#DejaVuSans-20"/>
      <use x="595.068359" xlink:href="#DejaVuSans-6e"/>
     </g>
    </g>
   </g>
   <g id="line2d_14">
    <path clip-path="url(#pc3acb6c6ee)" d="M 73.832727 295.488 
L 76.429964 295.398676 
L 79.0272 295.279577 
L 81.624436 295.130703 
L 84.221673 294.952054 
L 86.818909 294.743631 
L 89.416145 294.505433 
L 92.013382 294.23746 
L 94.610618 293.939712 
L 97.207855 293.61219 
L 99.805091 293.254892 
L 102.402327 292.86782 
L 104.999564 292.450974 
L 107.5968 292.004352 
L 110.194036 291.527956 
L 112.791273 291.021785 
L 115.388509 290.485839 
L 117.985745 289.920118 
L 120.582982 289.324623 
L 123.180218 288.699353 
L 125.777455 288.044308 
L 128.374691 287.359488 
L 130.971927 286.644894 
L 133.569164 285.900524 
L 136.1664 285.12638 
L 138.763636 284.322462 
L 141.360873 283.488768 
L 143.958109 282.6253 
L 146.555345 281.732057 
L 149.152582 280.809039 
L 151.749818 279.856246 
L 154.347055 278.873679 
L 156.944291 277.861337 
L 159.541527 276.81922 
L 162.138764 275.747328 
L 164.736 274.645662 
L 167.333236 273.51422 
L 169.930473 272.353004 
L 172.527709 271.162014 
L 175.124945 269.941248 
L 177.722182 268.690708 
L 180.319418 267.410393 
L 182.916655 266.100303 
L 185.513891 264.760438 
L 188.111127 263.390799 
L 190.708364 261.991385 
L 193.3056 260.562196 
L 195.902836 259.103232 
L 198.500073 257.614494 
L 201.097309 256.09598 
L 203.694545 254.547692 
L 206.291782 252.96963 
L 208.889018 251.361792 
L 211.486255 249.72418 
L 214.083491 248.056793 
L 216.680727 246.359631 
L 219.277964 244.632694 
L 221.8752 242.875983 
L 224.472436 241.089497 
L 227.069673 239.273236 
L 229.666909 237.4272 
L 232.264145 235.55139 
L 234.861382 233.645804 
L 237.458618 231.710444 
L 240.055855 229.74531 
L 242.653091 227.7504 
L 245.250327 225.725716 
L 247.847564 223.671257 
L 250.4448 221.587023 
L 253.042036 219.473014 
L 255.639273 217.329231 
L 258.236509 215.155673 
L 260.833745 212.95234 
L 263.430982 210.719232 
L 266.028218 208.45635 
L 268.625455 206.163692 
L 271.222691 203.84126 
L 273.819927 201.489054 
L 276.417164 199.107072 
L 279.0144 196.695316 
L 281.611636 194.253785 
L 284.208873 191.782479 
L 286.806109 189.281398 
L 289.403345 186.750543 
L 292.000582 184.189913 
L 294.597818 181.599508 
L 297.195055 178.979328 
L 299.792291 176.329374 
L 302.389527 173.649644 
L 304.986764 170.94014 
L 307.584 168.200862 
L 310.181236 165.431808 
L 312.778473 162.63298 
L 315.375709 159.804377 
L 317.972945 156.945999 
L 320.570182 154.057846 
L 323.167418 151.139919 
L 325.764655 148.192217 
L 328.361891 145.21474 
L 330.959127 142.207488 
L 333.556364 139.170462 
L 336.1536 136.10366 
L 338.750836 133.007084 
L 341.348073 129.880734 
L 343.945309 126.724608 
L 346.542545 123.538708 
L 349.139782 120.323033 
L 351.737018 117.077583 
L 354.334255 113.802358 
L 356.931491 110.497359 
L 359.528727 107.162585 
L 362.125964 103.798036 
L 364.7232 100.403712 
L 367.320436 96.979614 
L 369.917673 93.52574 
L 372.514909 90.042092 
L 375.112145 86.52867 
L 377.709382 82.985472 
L 380.306618 79.4125 
L 382.903855 75.809753 
L 385.501091 72.177231 
L 388.098327 68.514934 
L 390.695564 64.822863 
L 393.2928 61.101017 
L 395.890036 57.349396 
L 398.487273 53.568 
" style="fill:none;stroke:#0000ff;stroke-linecap:square;stroke-width:1.5;"/>
   </g>
   <g id="line2d_15">
    <defs>
     <path d="M 0 3 
C 0.795609 3 1.55874 2.683901 2.12132 2.12132 
C 2.683901 1.55874 3 0.795609 3 0 
C 3 -0.795609 2.683901 -1.55874 2.12132 -2.12132 
C 1.55874 -2.683901 0.795609 -3 0 -3 
C -0.795609 -3 -1.55874 -2.683901 -2.12132 -2.12132 
C -2.683901 -1.55874 -3 -0.795609 -3 0 
C -3 0.795609 -2.683901 1.55874 -2.12132 2.12132 
C -1.55874 2.683901 -0.795609 3 0 3 
z
" id="mb468fd331e" style="stroke:#0000ff;"/>
    </defs>
    <g clip-path="url(#pc3acb6c6ee)">
     <use style="fill:#0000ff;stroke:#0000ff;" x="73.832727" xlink:href="#mb468fd331e" y="295.488"/>
    </g>
   </g>
   <g id="line2d_16">
    <g clip-path="url(#pc3acb6c6ee)">
     <use style="fill:#0000ff;stroke:#0000ff;" x="86.818909" xlink:href="#mb468fd331e" y="294.743631"/>
    </g>
   </g>
   <g id="line2d_17">
    <g clip-path="url(#pc3acb6c6ee)">
     <use style="fill:#0000ff;stroke:#0000ff;" x="99.805091" xlink:href="#mb468fd331e" y="293.254892"/>
    </g>
   </g>
   <g id="line2d_18">
    <g clip-path="url(#pc3acb6c6ee)">
     <use style="fill:#0000ff;stroke:#0000ff;" x="112.791273" xlink:href="#mb468fd331e" y="291.021785"/>
    </g>
   </g>
   <g id="line2d_19">
    <g clip-path="url(#pc3acb6c6ee)">
     <use style="fill:#0000ff;stroke:#0000ff;" x="125.777455" xlink:href="#mb468fd331e" y="288.044308"/>
    </g>
   </g>
   <g id="line2d_20">
    <g clip-path="url(#pc3acb6c6ee)">
     <use style="fill:#0000ff;stroke:#0000ff;" x="138.763636" xlink:href="#mb468fd331e" y="284.322462"/>
    </g>
   </g>
   <g id="line2d_21">
    <g clip-path="url(#pc3acb6c6ee)">
     <use style="fill:#0000ff;stroke:#0000ff;" x="151.749818" xlink:href="#mb468fd331e" y="279.856246"/>
    </g>
   </g>
   <g id="line2d_22">
    <g clip-path="url(#pc3acb6c6ee)">
     <use style="fill:#0000ff;stroke:#0000ff;" x="164.736" xlink:href="#mb468fd331e" y="274.645662"/>
    </g>
   </g>
   <g id="line2d_23">
    <g clip-path="url(#pc3acb6c6ee)">
     <use style="fill:#0000ff;stroke:#0000ff;" x="177.722182" xlink:href="#mb468fd331e" y="268.690708"/>
    </g>
   </g>
   <g id="line2d_24">
    <g clip-path="url(#pc3acb6c6ee)">
     <use style="fill:#0000ff;stroke:#0000ff;" x="190.708364" xlink:href="#mb468fd331e" y="261.991385"/>
    </g>
   </g>
   <g id="line2d_25">
    <g clip-path="url(#pc3acb6c6ee)">
     <use style="fill:#0000ff;stroke:#0000ff;" x="203.694545" xlink:href="#mb468fd331e" y="254.547692"/>
    </g>
   </g>
   <g id="line2d_26">
    <g clip-path="url(#pc3acb6c6ee)">
     <use style="fill:#0000ff;stroke:#0000ff;" x="216.680727" xlink:href="#mb468fd331e" y="246.359631"/>
    </g>
   </g>
   <g id="line2d_27">
    <g clip-path="url(#pc3acb6c6ee)">
     <use style="fill:#0000ff;stroke:#0000ff;" x="229.666909" xlink:href="#mb468fd331e" y="237.4272"/>
    </g>
   </g>
   <g id="line2d_28">
    <g clip-path="url(#pc3acb6c6ee)">
     <use style="fill:#0000ff;stroke:#0000ff;" x="242.653091" xlink:href="#mb468fd331e" y="227.7504"/>
    </g>
   </g>
   <g id="line2d_29">
    <g clip-path="url(#pc3acb6c6ee)">
     <use style="fill:#0000ff;stroke:#0000ff;" x="255.639273" xlink:href="#mb468fd331e" y="217.329231"/>
    </g>
   </g>
   <g id="line2d_30">
    <g clip-path="url(#pc3acb6c6ee)">
     <use style="fill:#0000ff;stroke:#0000ff;" x="268.625455" xlink:href="#mb468fd331e" y="206.163692"/>
    </g>
   </g>
   <g id="line2d_31">
    <g clip-path="url(#pc3acb6c6ee)">
     <use style="fill:#0000ff;stroke:#0000ff;" x="281.611636" xlink:href="#mb468fd331e" y="194.253785"/>
    </g>
   </g>
   <g id="line2d_32">
    <g clip-path="url(#pc3acb6c6ee)">
     <use style="fill:#0000ff;stroke:#0000ff;" x="294.597818" xlink:href="#mb468fd331e" y="181.599508"/>
    </g>
   </g>
   <g id="line2d_33">
    <g clip-path="url(#pc3acb6c6ee)">
     <use style="fill:#0000ff;stroke:#0000ff;" x="307.584" xlink:href="#mb468fd331e" y="168.200862"/>
    </g>
   </g>
   <g id="line2d_34">
    <g clip-path="url(#pc3acb6c6ee)">
     <use style="fill:#0000ff;stroke:#0000ff;" x="320.570182" xlink:href="#mb468fd331e" y="154.057846"/>
    </g>
   </g>
   <g id="line2d_35">
    <g clip-path="url(#pc3acb6c6ee)">
     <use style="fill:#0000ff;stroke:#0000ff;" x="333.556364" xlink:href="#mb468fd331e" y="139.170462"/>
    </g>
   </g>
   <g id="line2d_36">
    <g clip-path="url(#pc3acb6c6ee)">
     <use style="fill:#0000ff;stroke:#0000ff;" x="346.542545" xlink:href="#mb468fd331e" y="123.538708"/>
    </g>
   </g>
   <g id="line2d_37">
    <g clip-path="url(#pc3acb6c6ee)">
     <use style="fill:#0000ff;stroke:#0000ff;" x="359.528727" xlink:href="#mb468fd331e" y="107.162585"/>
    </g>
   </g>
   <g id="line2d_38">
    <g clip-path="url(#pc3acb6c6ee)">
     <use style="fill:#0000ff;stroke:#0000ff;" x="372.514909" xlink:href="#mb468fd331e" y="90.042092"/>
    </g>
   </g>
   <g id="line2d_39">
    <g clip-path="url(#pc3acb6c6ee)">
     <use style="fill:#0000ff;stroke:#0000ff;" x="385.501091" xlink:href="#mb468fd331e" y="72.177231"/>
    </g>
   </g>
   <g id="line2d_40">
    <g clip-path="url(#pc3acb6c6ee)">
     <use style="fill:#0000ff;stroke:#0000ff;" x="398.487273" xlink:href="#mb468fd331e" y="53.568"/>
    </g>
   </g>
   <g id="patch_3">
    <path d="M 57.6 307.584 
L 57.6 41.472 
" style="fill:none;stroke:#000000;stroke-linecap:square;stroke-linejoin:miter;stroke-width:0.8;"/>
   </g>
   <g id="patch_4">
    <path d="M 414.72 307.584 
L 414.72 41.472 
" style="fill:none;stroke:#000000;stroke-linecap:square;stroke-linejoin:miter;stroke-width:0.8;"/>
   </g>
   <g id="patch_5">
    <path d="M 57.6 307.584 
L 414.72 307.584 
" style="fill:none;stroke:#000000;stroke-linecap:square;stroke-linejoin:miter;stroke-width:0.8;"/>
   </g>
   <g id="patch_6">
    <path d="M 57.6 41.472 
L 414.72 41.472 
" style="fill:none;stroke:#000000;stroke-linecap:square;stroke-linejoin:miter;stroke-width:0.8;"/>
   </g>
  </g>
 </g>
 <defs>
  <clipPath id="pc3acb6c6ee">
   <rect height="266.112" width="357.12" x="57.6" y="41.472"/>
  </clipPath>
 </defs>
</svg>
