<?xml version="1.0" encoding="utf-8" standalone="no"?>
<!DOCTYPE svg PUBLIC "-//W3C//DTD SVG 1.1//EN"
  "http://www.w3.org/Graphics/SVG/1.1/DTD/svg11.dtd">
<!-- Created with matplotlib (http://matplotlib.org/) -->
<svg height="345.6pt" version="1.1" viewBox="0 0 460.8 345.6" width="460.8pt" xmlns="http://www.w3.org/2000/svg" xmlns:xlink="http://www.w3.org/1999/xlink">
 <defs>
  <style type="text/css">
*{stroke-linecap:butt;stroke-linejoin:round;}
  </style>
 </defs>
 <g id="figure_1">
  <g id="patch_1">
   <path d="M 0 345.6 
L 460.8 345.6 
L 460.8 0 
L 0 0 
z
" style="fill:#ffffff;"/>
  </g>
  <g id="axes_1">
   <g id="patch_2">
    <path d="M 103.104 307.584 
L 369.216 307.584 
L 369.216 41.472 
L 103.104 41.472 
z
" style="fill:#ffffff;"/>
   </g>
   <g id="matplotlib.axis_1">
    <g id="xtick_1">
     <g id="line2d_1">
      <defs>
       <path d="M 0 0 
L 0 3.5 
" id="ma5f6eb173a" style="stroke:#000000;stroke-width:0.8;"/>
      </defs>
      <g>
       <use style="stroke:#000000;stroke-width:0.8;" x="103.104" xlink:href="#ma5f6eb173a" y="307.584"/>
      </g>
     </g>
     <g id="text_1">
      <!-- −3 -->
      <defs>
       <path d="M 10.59375 35.5 
L 73.1875 35.5 
L 73.1875 27.203125 
L 10.59375 27.203125 
z
" id="DejaVuSans-2212"/>
       <path d="M 40.578125 39.3125 
Q 47.65625 37.796875 51.625 33 
Q 55.609375 28.21875 55.609375 21.1875 
Q 55.609375 10.40625 48.1875 4.484375 
Q 40.765625 -1.421875 27.09375 -1.421875 
Q 22.515625 -1.421875 17.65625 -0.515625 
Q 12.796875 0.390625 7.625 2.203125 
L 7.625 11.71875 
Q 11.71875 9.328125 16.59375 8.109375 
Q 21.484375 6.890625 26.8125 6.890625 
Q 36.078125 6.890625 40.9375 10.546875 
Q 45.796875 14.203125 45.796875 21.1875 
Q 45.796875 27.640625 41.28125 31.265625 
Q 36.765625 34.90625 28.71875 34.90625 
L 20.21875 34.90625 
L 20.21875 43.015625 
L 29.109375 43.015625 
Q 36.375 43.015625 40.234375 45.921875 
Q 44.09375 48.828125 44.09375 54.296875 
Q 44.09375 59.90625 40.109375 62.90625 
Q 36.140625 65.921875 28.71875 65.921875 
Q 24.65625 65.921875 20.015625 65.03125 
Q 15.375 64.15625 9.8125 62.3125 
L 9.8125 71.09375 
Q 15.4375 72.65625 20.34375 73.4375 
Q 25.25 74.21875 29.59375 74.21875 
Q 40.828125 74.21875 47.359375 69.109375 
Q 53.90625 64.015625 53.90625 55.328125 
Q 53.90625 49.265625 50.4375 45.09375 
Q 46.96875 40.921875 40.578125 39.3125 
z
" id="DejaVuSans-33"/>
      </defs>
      <g transform="translate(95.732906 322.182437)scale(0.1 -0.1)">
       <use xlink:href="#DejaVuSans-2212"/>
       <use x="83.789062" xlink:href="#DejaVuSans-33"/>
      </g>
     </g>
    </g>
    <g id="xtick_2">
     <g id="line2d_2">
      <g>
       <use style="stroke:#000000;stroke-width:0.8;" x="147.456" xlink:href="#ma5f6eb173a" y="307.584"/>
      </g>
     </g>
     <g id="text_2">
      <!-- −2 -->
      <defs>
       <path d="M 19.1875 8.296875 
L 53.609375 8.296875 
L 53.609375 0 
L 7.328125 0 
L 7.328125 8.296875 
Q 12.9375 14.109375 22.625 23.890625 
Q 32.328125 33.6875 34.8125 36.53125 
Q 39.546875 41.84375 41.421875 45.53125 
Q 43.3125 49.21875 43.3125 52.78125 
Q 43.3125 58.59375 39.234375 62.25 
Q 35.15625 65.921875 28.609375 65.921875 
Q 23.96875 65.921875 18.8125 64.3125 
Q 13.671875 62.703125 7.8125 59.421875 
L 7.8125 69.390625 
Q 13.765625 71.78125 18.9375 73 
Q 24.125 74.21875 28.421875 74.21875 
Q 39.75 74.21875 46.484375 68.546875 
Q 53.21875 62.890625 53.21875 53.421875 
Q 53.21875 48.921875 51.53125 44.890625 
Q 49.859375 40.875 45.40625 35.40625 
Q 44.1875 33.984375 37.640625 27.21875 
Q 31.109375 20.453125 19.1875 8.296875 
z
" id="DejaVuSans-32"/>
      </defs>
      <g transform="translate(140.084906 322.182437)scale(0.1 -0.1)">
       <use xlink:href="#DejaVuSans-2212"/>
       <use x="83.789062" xlink:href="#DejaVuSans-32"/>
      </g>
     </g>
    </g>
    <g id="xtick_3">
     <g id="line2d_3">
      <g>
       <use style="stroke:#000000;stroke-width:0.8;" x="191.808" xlink:href="#ma5f6eb173a" y="307.584"/>
      </g>
     </g>
     <g id="text_3">
      <!-- −1 -->
      <defs>
       <path d="M 12.40625 8.296875 
L 28.515625 8.296875 
L 28.515625 63.921875 
L 10.984375 60.40625 
L 10.984375 69.390625 
L 28.421875 72.90625 
L 38.28125 72.90625 
L 38.28125 8.296875 
L 54.390625 8.296875 
L 54.390625 0 
L 12.40625 0 
z
" id="DejaVuSans-31"/>
      </defs>
      <g transform="translate(184.436906 322.182437)scale(0.1 -0.1)">
       <use xlink:href="#DejaVuSans-2212"/>
       <use x="83.789062" xlink:href="#DejaVuSans-31"/>
      </g>
     </g>
    </g>
    <g id="xtick_4">
     <g id="line2d_4">
      <g>
       <use style="stroke:#000000;stroke-width:0.8;" x="236.16" xlink:href="#ma5f6eb173a" y="307.584"/>
      </g>
     </g>
     <g id="text_4">
      <!-- 0 -->
      <defs>
       <path d="M 31.78125 66.40625 
Q 24.171875 66.40625 20.328125 58.90625 
Q 16.5 51.421875 16.5 36.375 
Q 16.5 21.390625 20.328125 13.890625 
Q 24.171875 6.390625 31.78125 6.390625 
Q 39.453125 6.390625 43.28125 13.890625 
Q 47.125 21.390625 47.125 36.375 
Q 47.125 51.421875 43.28125 58.90625 
Q 39.453125 66.40625 31.78125 66.40625 
z
M 31.78125 74.21875 
Q 44.046875 74.21875 50.515625 64.515625 
Q 56.984375 54.828125 56.984375 36.375 
Q 56.984375 17.96875 50.515625 8.265625 
Q 44.046875 -1.421875 31.78125 -1.421875 
Q 19.53125 -1.421875 13.0625 8.265625 
Q 6.59375 17.96875 6.59375 36.375 
Q 6.59375 54.828125 13.0625 64.515625 
Q 19.53125 74.21875 31.78125 74.21875 
z
" id="DejaVuSans-30"/>
      </defs>
      <g transform="translate(232.97875 322.182437)scale(0.1 -0.1)">
       <use xlink:href="#DejaVuSans-30"/>
      </g>
     </g>
    </g>
    <g id="xtick_5">
     <g id="line2d_5">
      <g>
       <use style="stroke:#000000;stroke-width:0.8;" x="280.512" xlink:href="#ma5f6eb173a" y="307.584"/>
      </g>
     </g>
     <g id="text_5">
      <!-- 1 -->
      <g transform="translate(277.33075 322.182437)scale(0.1 -0.1)">
       <use xlink:href="#DejaVuSans-31"/>
      </g>
     </g>
    </g>
    <g id="xtick_6">
     <g id="line2d_6">
      <g>
       <use style="stroke:#000000;stroke-width:0.8;" x="324.864" xlink:href="#ma5f6eb173a" y="307.584"/>
      </g>
     </g>
     <g id="text_6">
      <!-- 2 -->
      <g transform="translate(321.68275 322.182437)scale(0.1 -0.1)">
       <use xlink:href="#DejaVuSans-32"/>
      </g>
     </g>
    </g>
    <g id="xtick_7">
     <g id="line2d_7">
      <g>
       <use style="stroke:#000000;stroke-width:0.8;" x="369.216" xlink:href="#ma5f6eb173a" y="307.584"/>
      </g>
     </g>
     <g id="text_7">
      <!-- 3 -->
      <g transform="translate(366.03475 322.182437)scale(0.1 -0.1)">
       <use xlink:href="#DejaVuSans-33"/>
      </g>
     </g>
    </g>
   </g>
   <g id="matplotlib.axis_2">
    <g id="ytick_1">
     <g id="line2d_8">
      <defs>
       <path d="M 0 0 
L -3.5 0 
" id="mf4b9ca4c8a" style="stroke:#000000;stroke-width:0.8;"/>
      </defs>
      <g>
       <use style="stroke:#000000;stroke-width:0.8;" x="103.104" xlink:href="#mf4b9ca4c8a" y="307.584"/>
      </g>
     </g>
     <g id="text_8">
      <!-- −3 -->
      <g transform="translate(81.361813 311.383219)scale(0.1 -0.1)">
       <use xlink:href="#DejaVuSans-2212"/>
       <use x="83.789062" xlink:href="#DejaVuSans-33"/>
      </g>
     </g>
    </g>
    <g id="ytick_2">
     <g id="line2d_9">
      <g>
       <use style="stroke:#000000;stroke-width:0.8;" x="103.104" xlink:href="#mf4b9ca4c8a" y="263.232"/>
      </g>
     </g>
     <g id="text_9">
      <!-- −2 -->
      <g transform="translate(81.361813 267.031219)scale(0.1 -0.1)">
       <use xlink:href="#DejaVuSans-2212"/>
       <use x="83.789062" xlink:href="#DejaVuSans-32"/>
      </g>
     </g>
    </g>
    <g id="ytick_3">
     <g id="line2d_10">
      <g>
       <use style="stroke:#000000;stroke-width:0.8;" x="103.104" xlink:href="#mf4b9ca4c8a" y="218.88"/>
      </g>
     </g>
     <g id="text_10">
      <!-- −1 -->
      <g transform="translate(81.361813 222.679219)scale(0.1 -0.1)">
       <use xlink:href="#DejaVuSans-2212"/>
       <use x="83.789062" xlink:href="#DejaVuSans-31"/>
      </g>
     </g>
    </g>
    <g id="ytick_4">
     <g id="line2d_11">
      <g>
       <use style="stroke:#000000;stroke-width:0.8;" x="103.104" xlink:href="#mf4b9ca4c8a" y="174.528"/>
      </g>
     </g>
     <g id="text_11">
      <!-- 0 -->
      <g transform="translate(89.7415 178.327219)scale(0.1 -0.1)">
       <use xlink:href="#DejaVuSans-30"/>
      </g>
     </g>
    </g>
    <g id="ytick_5">
     <g id="line2d_12">
      <g>
       <use style="stroke:#000000;stroke-width:0.8;" x="103.104" xlink:href="#mf4b9ca4c8a" y="130.176"/>
      </g>
     </g>
     <g id="text_12">
      <!-- 1 -->
      <g transform="translate(89.7415 133.975219)scale(0.1 -0.1)">
       <use xlink:href="#DejaVuSans-31"/>
      </g>
     </g>
    </g>
    <g id="ytick_6">
     <g id="line2d_13">
      <g>
       <use style="stroke:#000000;stroke-width:0.8;" x="103.104" xlink:href="#mf4b9ca4c8a" y="85.824"/>
      </g>
     </g>
     <g id="text_13">
      <!-- 2 -->
      <g transform="translate(89.7415 89.623219)scale(0.1 -0.1)">
       <use xlink:href="#DejaVuSans-32"/>
      </g>
     </g>
    </g>
    <g id="ytick_7">
     <g id="line2d_14">
      <g>
       <use style="stroke:#000000;stroke-width:0.8;" x="103.104" xlink:href="#mf4b9ca4c8a" y="41.472"/>
      </g>
     </g>
     <g id="text_14">
      <!-- 3 -->
      <g transform="translate(89.7415 45.271219)scale(0.1 -0.1)">
       <use xlink:href="#DejaVuSans-33"/>
      </g>
     </g>
    </g>
   </g>
   <g id="line2d_15">
    <defs>
     <path d="M 0 1.5 
C 0.397805 1.5 0.77937 1.341951 1.06066 1.06066 
C 1.341951 0.77937 1.5 0.397805 1.5 0 
C 1.5 -0.397805 1.341951 -0.77937 1.06066 -1.06066 
C 0.77937 -1.341951 0.397805 -1.5 0 -1.5 
C -0.397805 -1.5 -0.77937 -1.341951 -1.06066 -1.06066 
C -1.341951 -0.77937 -1.5 -0.397805 -1.5 0 
C -1.5 0.397805 -1.341951 0.77937 -1.06066 1.06066 
C -0.77937 1.341951 -0.397805 1.5 0 1.5 
z
" id="m0d719934a6" style="stroke:#008000;"/>
    </defs>
    <g clip-path="url(#pbb618057db)">
     <use style="fill:#008000;stroke:#008000;" x="169.632" xlink:href="#m0d719934a6" y="289.757876"/>
    </g>
   </g>
   <g id="line2d_16">
    <g clip-path="url(#pbb618057db)">
     <use style="fill:#008000;stroke:#008000;" x="147.456" xlink:href="#m0d719934a6" y="251.347917"/>
    </g>
   </g>
   <g id="line2d_17">
    <g clip-path="url(#pbb618057db)">
     <use style="fill:#008000;stroke:#008000;" x="125.28" xlink:href="#m0d719934a6" y="212.937959"/>
    </g>
   </g>
   <g id="line2d_18">
    <g clip-path="url(#pbb618057db)">
     <use style="fill:#008000;stroke:#008000;" x="103.104" xlink:href="#m0d719934a6" y="174.528"/>
    </g>
   </g>
   <g id="line2d_19">
    <g clip-path="url(#pbb618057db)">
     <use style="fill:#008000;stroke:#008000;" x="80.928" xlink:href="#m0d719934a6" y="136.118041"/>
    </g>
   </g>
   <g id="line2d_20">
    <g clip-path="url(#pbb618057db)">
     <use style="fill:#008000;stroke:#008000;" x="58.752" xlink:href="#m0d719934a6" y="97.708083"/>
    </g>
   </g>
   <g id="line2d_21">
    <g clip-path="url(#pbb618057db)">
     <use style="fill:#008000;stroke:#008000;" x="36.576" xlink:href="#m0d719934a6" y="59.298124"/>
    </g>
   </g>
   <g id="line2d_22">
    <g clip-path="url(#pbb618057db)">
     <use style="fill:#008000;stroke:#008000;" x="213.984" xlink:href="#m0d719934a6" y="289.757876"/>
    </g>
   </g>
   <g id="line2d_23">
    <g clip-path="url(#pbb618057db)">
     <use style="fill:#008000;stroke:#008000;" x="191.808" xlink:href="#m0d719934a6" y="251.347917"/>
    </g>
   </g>
   <g id="line2d_24">
    <g clip-path="url(#pbb618057db)">
     <use style="fill:#008000;stroke:#008000;" x="169.632" xlink:href="#m0d719934a6" y="212.937959"/>
    </g>
   </g>
   <g id="line2d_25">
    <g clip-path="url(#pbb618057db)">
     <use style="fill:#008000;stroke:#008000;" x="147.456" xlink:href="#m0d719934a6" y="174.528"/>
    </g>
   </g>
   <g id="line2d_26">
    <g clip-path="url(#pbb618057db)">
     <use style="fill:#008000;stroke:#008000;" x="125.28" xlink:href="#m0d719934a6" y="136.118041"/>
    </g>
   </g>
   <g id="line2d_27">
    <g clip-path="url(#pbb618057db)">
     <use style="fill:#008000;stroke:#008000;" x="103.104" xlink:href="#m0d719934a6" y="97.708083"/>
    </g>
   </g>
   <g id="line2d_28">
    <g clip-path="url(#pbb618057db)">
     <use style="fill:#008000;stroke:#008000;" x="80.928" xlink:href="#m0d719934a6" y="59.298124"/>
    </g>
   </g>
   <g id="line2d_29">
    <g clip-path="url(#pbb618057db)">
     <use style="fill:#008000;stroke:#008000;" x="258.336" xlink:href="#m0d719934a6" y="289.757876"/>
    </g>
   </g>
   <g id="line2d_30">
    <g clip-path="url(#pbb618057db)">
     <use style="fill:#008000;stroke:#008000;" x="236.16" xlink:href="#m0d719934a6" y="251.347917"/>
    </g>
   </g>
   <g id="line2d_31">
    <g clip-path="url(#pbb618057db)">
     <use style="fill:#008000;stroke:#008000;" x="213.984" xlink:href="#m0d719934a6" y="212.937959"/>
    </g>
   </g>
   <g id="line2d_32">
    <g clip-path="url(#pbb618057db)">
     <use style="fill:#008000;stroke:#008000;" x="191.808" xlink:href="#m0d719934a6" y="174.528"/>
    </g>
   </g>
   <g id="line2d_33">
    <g clip-path="url(#pbb618057db)">
     <use style="fill:#008000;stroke:#008000;" x="169.632" xlink:href="#m0d719934a6" y="136.118041"/>
    </g>
   </g>
   <g id="line2d_34">
    <g clip-path="url(#pbb618057db)">
     <use style="fill:#008000;stroke:#008000;" x="147.456" xlink:href="#m0d719934a6" y="97.708083"/>
    </g>
   </g>
   <g id="line2d_35">
    <g clip-path="url(#pbb618057db)">
     <use style="fill:#008000;stroke:#008000;" x="125.28" xlink:href="#m0d719934a6" y="59.298124"/>
    </g>
   </g>
   <g id="line2d_36">
    <g clip-path="url(#pbb618057db)">
     <use style="fill:#008000;stroke:#008000;" x="302.688" xlink:href="#m0d719934a6" y="289.757876"/>
    </g>
   </g>
   <g id="line2d_37">
    <g clip-path="url(#pbb618057db)">
     <use style="fill:#008000;stroke:#008000;" x="280.512" xlink:href="#m0d719934a6" y="251.347917"/>
    </g>
   </g>
   <g id="line2d_38">
    <g clip-path="url(#pbb618057db)">
     <use style="fill:#008000;stroke:#008000;" x="258.336" xlink:href="#m0d719934a6" y="212.937959"/>
    </g>
   </g>
   <g id="line2d_39">
    <g clip-path="url(#pbb618057db)">
     <use style="fill:#008000;stroke:#008000;" x="236.16" xlink:href="#m0d719934a6" y="174.528"/>
    </g>
   </g>
   <g id="line2d_40">
    <g clip-path="url(#pbb618057db)">
     <use style="fill:#008000;stroke:#008000;" x="213.984" xlink:href="#m0d719934a6" y="136.118041"/>
    </g>
   </g>
   <g id="line2d_41">
    <g clip-path="url(#pbb618057db)">
     <use style="fill:#008000;stroke:#008000;" x="191.808" xlink:href="#m0d719934a6" y="97.708083"/>
    </g>
   </g>
   <g id="line2d_42">
    <g clip-path="url(#pbb618057db)">
     <use style="fill:#008000;stroke:#008000;" x="169.632" xlink:href="#m0d719934a6" y="59.298124"/>
    </g>
   </g>
   <g id="line2d_43">
    <g clip-path="url(#pbb618057db)">
     <use style="fill:#008000;stroke:#008000;" x="347.04" xlink:href="#m0d719934a6" y="289.757876"/>
    </g>
   </g>
   <g id="line2d_44">
    <g clip-path="url(#pbb618057db)">
     <use style="fill:#008000;stroke:#008000;" x="324.864" xlink:href="#m0d719934a6" y="251.347917"/>
    </g>
   </g>
   <g id="line2d_45">
    <g clip-path="url(#pbb618057db)">
     <use style="fill:#008000;stroke:#008000;" x="302.688" xlink:href="#m0d719934a6" y="212.937959"/>
    </g>
   </g>
   <g id="line2d_46">
    <g clip-path="url(#pbb618057db)">
     <use style="fill:#008000;stroke:#008000;" x="280.512" xlink:href="#m0d719934a6" y="174.528"/>
    </g>
   </g>
   <g id="line2d_47">
    <g clip-path="url(#pbb618057db)">
     <use style="fill:#008000;stroke:#008000;" x="258.336" xlink:href="#m0d719934a6" y="136.118041"/>
    </g>
   </g>
   <g id="line2d_48">
    <g clip-path="url(#pbb618057db)">
     <use style="fill:#008000;stroke:#008000;" x="236.16" xlink:href="#m0d719934a6" y="97.708083"/>
    </g>
   </g>
   <g id="line2d_49">
    <g clip-path="url(#pbb618057db)">
     <use style="fill:#008000;stroke:#008000;" x="213.984" xlink:href="#m0d719934a6" y="59.298124"/>
    </g>
   </g>
   <g id="line2d_50">
    <g clip-path="url(#pbb618057db)">
     <use style="fill:#008000;stroke:#008000;" x="391.392" xlink:href="#m0d719934a6" y="289.757876"/>
    </g>
   </g>
   <g id="line2d_51">
    <g clip-path="url(#pbb618057db)">
     <use style="fill:#008000;stroke:#008000;" x="369.216" xlink:href="#m0d719934a6" y="251.347917"/>
    </g>
   </g>
   <g id="line2d_52">
    <g clip-path="url(#pbb618057db)">
     <use style="fill:#008000;stroke:#008000;" x="347.04" xlink:href="#m0d719934a6" y="212.937959"/>
    </g>
   </g>
   <g id="line2d_53">
    <g clip-path="url(#pbb618057db)">
     <use style="fill:#008000;stroke:#008000;" x="324.864" xlink:href="#m0d719934a6" y="174.528"/>
    </g>
   </g>
   <g id="line2d_54">
    <g clip-path="url(#pbb618057db)">
     <use style="fill:#008000;stroke:#008000;" x="302.688" xlink:href="#m0d719934a6" y="136.118041"/>
    </g>
   </g>
   <g id="line2d_55">
    <g clip-path="url(#pbb618057db)">
     <use style="fill:#008000;stroke:#008000;" x="280.512" xlink:href="#m0d719934a6" y="97.708083"/>
    </g>
   </g>
   <g id="line2d_56">
    <g clip-path="url(#pbb618057db)">
     <use style="fill:#008000;stroke:#008000;" x="258.336" xlink:href="#m0d719934a6" y="59.298124"/>
    </g>
   </g>
   <g id="line2d_57">
    <g clip-path="url(#pbb618057db)">
     <use style="fill:#008000;stroke:#008000;" x="435.744" xlink:href="#m0d719934a6" y="289.757876"/>
    </g>
   </g>
   <g id="line2d_58">
    <g clip-path="url(#pbb618057db)">
     <use style="fill:#008000;stroke:#008000;" x="413.568" xlink:href="#m0d719934a6" y="251.347917"/>
    </g>
   </g>
   <g id="line2d_59">
    <g clip-path="url(#pbb618057db)">
     <use style="fill:#008000;stroke:#008000;" x="391.392" xlink:href="#m0d719934a6" y="212.937959"/>
    </g>
   </g>
   <g id="line2d_60">
    <g clip-path="url(#pbb618057db)">
     <use style="fill:#008000;stroke:#008000;" x="369.216" xlink:href="#m0d719934a6" y="174.528"/>
    </g>
   </g>
   <g id="line2d_61">
    <g clip-path="url(#pbb618057db)">
     <use style="fill:#008000;stroke:#008000;" x="347.04" xlink:href="#m0d719934a6" y="136.118041"/>
    </g>
   </g>
   <g id="line2d_62">
    <g clip-path="url(#pbb618057db)">
     <use style="fill:#008000;stroke:#008000;" x="324.864" xlink:href="#m0d719934a6" y="97.708083"/>
    </g>
   </g>
   <g id="line2d_63">
    <g clip-path="url(#pbb618057db)">
     <use style="fill:#008000;stroke:#008000;" x="302.688" xlink:href="#m0d719934a6" y="59.298124"/>
    </g>
   </g>
   <g id="line2d_64">
    <path clip-path="url(#pbb618057db)" d="M 103.104 174.528 
L 369.216 174.528 
" style="fill:none;stroke:#000000;stroke-linecap:square;stroke-width:0.5;"/>
   </g>
   <g id="line2d_65">
    <path clip-path="url(#pbb618057db)" d="M 236.16 307.584 
L 236.16 41.472 
" style="fill:none;stroke:#000000;stroke-linecap:square;stroke-width:0.5;"/>
   </g>
   <g id="patch_3">
    <path d="M 103.104 307.584 
L 103.104 41.472 
" style="fill:none;stroke:#000000;stroke-linecap:square;stroke-linejoin:miter;stroke-width:0.8;"/>
   </g>
   <g id="patch_4">
    <path d="M 369.216 307.584 
L 369.216 41.472 
" style="fill:none;stroke:#000000;stroke-linecap:square;stroke-linejoin:miter;stroke-width:0.8;"/>
   </g>
   <g id="patch_5">
    <path d="M 103.104 307.584 
L 369.216 307.584 
" style="fill:none;stroke:#000000;stroke-linecap:square;stroke-linejoin:miter;stroke-width:0.8;"/>
   </g>
   <g id="patch_6">
    <path d="M 103.104 41.472 
L 369.216 41.472 
" style="fill:none;stroke:#000000;stroke-linecap:square;stroke-linejoin:miter;stroke-width:0.8;"/>
   </g>
  </g>
 </g>
 <defs>
  <clipPath id="pbb618057db">
   <rect height="266.112" width="266.112" x="103.104" y="41.472"/>
  </clipPath>
 </defs>
</svg>
