<?xml version="1.0" encoding="utf-8" standalone="no"?>
<!DOCTYPE svg PUBLIC "-//W3C//DTD SVG 1.1//EN"
  "http://www.w3.org/Graphics/SVG/1.1/DTD/svg11.dtd">
<!-- Created with matplotlib (http://matplotlib.org/) -->
<svg height="345.6pt" version="1.1" viewBox="0 0 460.8 345.6" width="460.8pt" xmlns="http://www.w3.org/2000/svg" xmlns:xlink="http://www.w3.org/1999/xlink">
 <defs>
  <style type="text/css">
*{stroke-linecap:butt;stroke-linejoin:round;}
  </style>
 </defs>
 <g id="figure_1">
  <g id="patch_1">
   <path d="M 0 345.6 
L 460.8 345.6 
L 460.8 0 
L 0 0 
z
" style="fill:#ffffff;"/>
  </g>
  <g id="axes_1">
   <g id="patch_2">
    <path d="M 103.104 307.584 
L 369.216 307.584 
L 369.216 41.472 
L 103.104 41.472 
z
" style="fill:#ffffff;"/>
   </g>
   <g id="matplotlib.axis_1">
    <g id="xtick_1">
     <g id="line2d_1">
      <defs>
       <path d="M 0 0 
L 0 3.5 
" id="m6d4c5f0b2e" style="stroke:#000000;stroke-width:0.8;"/>
      </defs>
      <g>
       <use style="stroke:#000000;stroke-width:0.8;" x="115.2" xlink:href="#m6d4c5f0b2e" y="307.584"/>
      </g>
     </g>
     <g id="text_1">
      <!-- −2 -->
      <defs>
       <path d="M 10.59375 35.5 
L 73.1875 35.5 
L 73.1875 27.203125 
L 10.59375 27.203125 
z
" id="DejaVuSans-2212"/>
       <path d="M 19.1875 8.296875 
L 53.609375 8.296875 
L 53.609375 0 
L 7.328125 0 
L 7.328125 8.296875 
Q 12.9375 14.109375 22.625 23.890625 
Q 32.328125 33.6875 34.8125 36.53125 
Q 39.546875 41.84375 41.421875 45.53125 
Q 43.3125 49.21875 43.3125 52.78125 
Q 43.3125 58.59375 39.234375 62.25 
Q 35.15625 65.921875 28.609375 65.921875 
Q 23.96875 65.921875 18.8125 64.3125 
Q 13.671875 62.703125 7.8125 59.421875 
L 7.8125 69.390625 
Q 13.765625 71.78125 18.9375 73 
Q 24.125 74.21875 28.421875 74.21875 
Q 39.75 74.21875 46.484375 68.546875 
Q 53.21875 62.890625 53.21875 53.421875 
Q 53.21875 48.921875 51.53125 44.890625 
Q 49.859375 40.875 45.40625 35.40625 
Q 44.1875 33.984375 37.640625 27.21875 
Q 31.109375 20.453125 19.1875 8.296875 
z
" id="DejaVuSans-32"/>
      </defs>
      <g transform="translate(107.828906 322.182437)scale(0.1 -0.1)">
       <use xlink:href="#DejaVuSans-2212"/>
       <use x="83.789062" xlink:href="#DejaVuSans-32"/>
      </g>
     </g>
    </g>
    <g id="xtick_2">
     <g id="line2d_2">
      <g>
       <use style="stroke:#000000;stroke-width:0.8;" x="175.68" xlink:href="#m6d4c5f0b2e" y="307.584"/>
      </g>
     </g>
     <g id="text_2">
      <!-- −1 -->
      <defs>
       <path d="M 12.40625 8.296875 
L 28.515625 8.296875 
L 28.515625 63.921875 
L 10.984375 60.40625 
L 10.984375 69.390625 
L 28.421875 72.90625 
L 38.28125 72.90625 
L 38.28125 8.296875 
L 54.390625 8.296875 
L 54.390625 0 
L 12.40625 0 
z
" id="DejaVuSans-31"/>
      </defs>
      <g transform="translate(168.308906 322.182437)scale(0.1 -0.1)">
       <use xlink:href="#DejaVuSans-2212"/>
       <use x="83.789062" xlink:href="#DejaVuSans-31"/>
      </g>
     </g>
    </g>
    <g id="xtick_3">
     <g id="line2d_3">
      <g>
       <use style="stroke:#000000;stroke-width:0.8;" x="236.16" xlink:href="#m6d4c5f0b2e" y="307.584"/>
      </g>
     </g>
     <g id="text_3">
      <!-- 0 -->
      <defs>
       <path d="M 31.78125 66.40625 
Q 24.171875 66.40625 20.328125 58.90625 
Q 16.5 51.421875 16.5 36.375 
Q 16.5 21.390625 20.328125 13.890625 
Q 24.171875 6.390625 31.78125 6.390625 
Q 39.453125 6.390625 43.28125 13.890625 
Q 47.125 21.390625 47.125 36.375 
Q 47.125 51.421875 43.28125 58.90625 
Q 39.453125 66.40625 31.78125 66.40625 
z
M 31.78125 74.21875 
Q 44.046875 74.21875 50.515625 64.515625 
Q 56.984375 54.828125 56.984375 36.375 
Q 56.984375 17.96875 50.515625 8.265625 
Q 44.046875 -1.421875 31.78125 -1.421875 
Q 19.53125 -1.421875 13.0625 8.265625 
Q 6.59375 17.96875 6.59375 36.375 
Q 6.59375 54.828125 13.0625 64.515625 
Q 19.53125 74.21875 31.78125 74.21875 
z
" id="DejaVuSans-30"/>
      </defs>
      <g transform="translate(232.97875 322.182437)scale(0.1 -0.1)">
       <use xlink:href="#DejaVuSans-30"/>
      </g>
     </g>
    </g>
    <g id="xtick_4">
     <g id="line2d_4">
      <g>
       <use style="stroke:#000000;stroke-width:0.8;" x="296.64" xlink:href="#m6d4c5f0b2e" y="307.584"/>
      </g>
     </g>
     <g id="text_4">
      <!-- 1 -->
      <g transform="translate(293.45875 322.182437)scale(0.1 -0.1)">
       <use xlink:href="#DejaVuSans-31"/>
      </g>
     </g>
    </g>
    <g id="xtick_5">
     <g id="line2d_5">
      <g>
       <use style="stroke:#000000;stroke-width:0.8;" x="357.12" xlink:href="#m6d4c5f0b2e" y="307.584"/>
      </g>
     </g>
     <g id="text_5">
      <!-- 2 -->
      <g transform="translate(353.93875 322.182437)scale(0.1 -0.1)">
       <use xlink:href="#DejaVuSans-32"/>
      </g>
     </g>
    </g>
   </g>
   <g id="matplotlib.axis_2">
    <g id="ytick_1">
     <g id="line2d_6">
      <defs>
       <path d="M 0 0 
L -3.5 0 
" id="m79f7c706fa" style="stroke:#000000;stroke-width:0.8;"/>
      </defs>
      <g>
       <use style="stroke:#000000;stroke-width:0.8;" x="103.104" xlink:href="#m79f7c706fa" y="295.488"/>
      </g>
     </g>
     <g id="text_6">
      <!-- −2.0 -->
      <defs>
       <path d="M 10.6875 12.40625 
L 21 12.40625 
L 21 0 
L 10.6875 0 
z
" id="DejaVuSans-2e"/>
      </defs>
      <g transform="translate(71.821188 299.287219)scale(0.1 -0.1)">
       <use xlink:href="#DejaVuSans-2212"/>
       <use x="83.789062" xlink:href="#DejaVuSans-32"/>
       <use x="147.412109" xlink:href="#DejaVuSans-2e"/>
       <use x="179.199219" xlink:href="#DejaVuSans-30"/>
      </g>
     </g>
    </g>
    <g id="ytick_2">
     <g id="line2d_7">
      <g>
       <use style="stroke:#000000;stroke-width:0.8;" x="103.104" xlink:href="#m79f7c706fa" y="265.248"/>
      </g>
     </g>
     <g id="text_7">
      <!-- −1.5 -->
      <defs>
       <path d="M 10.796875 72.90625 
L 49.515625 72.90625 
L 49.515625 64.59375 
L 19.828125 64.59375 
L 19.828125 46.734375 
Q 21.96875 47.46875 24.109375 47.828125 
Q 26.265625 48.1875 28.421875 48.1875 
Q 40.625 48.1875 47.75 41.5 
Q 54.890625 34.8125 54.890625 23.390625 
Q 54.890625 11.625 47.5625 5.09375 
Q 40.234375 -1.421875 26.90625 -1.421875 
Q 22.3125 -1.421875 17.546875 -0.640625 
Q 12.796875 0.140625 7.71875 1.703125 
L 7.71875 11.625 
Q 12.109375 9.234375 16.796875 8.0625 
Q 21.484375 6.890625 26.703125 6.890625 
Q 35.15625 6.890625 40.078125 11.328125 
Q 45.015625 15.765625 45.015625 23.390625 
Q 45.015625 31 40.078125 35.4375 
Q 35.15625 39.890625 26.703125 39.890625 
Q 22.75 39.890625 18.8125 39.015625 
Q 14.890625 38.140625 10.796875 36.28125 
z
" id="DejaVuSans-35"/>
      </defs>
      <g transform="translate(71.821188 269.047219)scale(0.1 -0.1)">
       <use xlink:href="#DejaVuSans-2212"/>
       <use x="83.789062" xlink:href="#DejaVuSans-31"/>
       <use x="147.412109" xlink:href="#DejaVuSans-2e"/>
       <use x="179.199219" xlink:href="#DejaVuSans-35"/>
      </g>
     </g>
    </g>
    <g id="ytick_3">
     <g id="line2d_8">
      <g>
       <use style="stroke:#000000;stroke-width:0.8;" x="103.104" xlink:href="#m79f7c706fa" y="235.008"/>
      </g>
     </g>
     <g id="text_8">
      <!-- −1.0 -->
      <g transform="translate(71.821188 238.807219)scale(0.1 -0.1)">
       <use xlink:href="#DejaVuSans-2212"/>
       <use x="83.789062" xlink:href="#DejaVuSans-31"/>
       <use x="147.412109" xlink:href="#DejaVuSans-2e"/>
       <use x="179.199219" xlink:href="#DejaVuSans-30"/>
      </g>
     </g>
    </g>
    <g id="ytick_4">
     <g id="line2d_9">
      <g>
       <use style="stroke:#000000;stroke-width:0.8;" x="103.104" xlink:href="#m79f7c706fa" y="204.768"/>
      </g>
     </g>
     <g id="text_9">
      <!-- −0.5 -->
      <g transform="translate(71.821188 208.567219)scale(0.1 -0.1)">
       <use xlink:href="#DejaVuSans-2212"/>
       <use x="83.789062" xlink:href="#DejaVuSans-30"/>
       <use x="147.412109" xlink:href="#DejaVuSans-2e"/>
       <use x="179.199219" xlink:href="#DejaVuSans-35"/>
      </g>
     </g>
    </g>
    <g id="ytick_5">
     <g id="line2d_10">
      <g>
       <use style="stroke:#000000;stroke-width:0.8;" x="103.104" xlink:href="#m79f7c706fa" y="174.528"/>
      </g>
     </g>
     <g id="text_10">
      <!-- 0.0 -->
      <g transform="translate(80.200875 178.327219)scale(0.1 -0.1)">
       <use xlink:href="#DejaVuSans-30"/>
       <use x="63.623047" xlink:href="#DejaVuSans-2e"/>
       <use x="95.410156" xlink:href="#DejaVuSans-30"/>
      </g>
     </g>
    </g>
    <g id="ytick_6">
     <g id="line2d_11">
      <g>
       <use style="stroke:#000000;stroke-width:0.8;" x="103.104" xlink:href="#m79f7c706fa" y="144.288"/>
      </g>
     </g>
     <g id="text_11">
      <!-- 0.5 -->
      <g transform="translate(80.200875 148.087219)scale(0.1 -0.1)">
       <use xlink:href="#DejaVuSans-30"/>
       <use x="63.623047" xlink:href="#DejaVuSans-2e"/>
       <use x="95.410156" xlink:href="#DejaVuSans-35"/>
      </g>
     </g>
    </g>
    <g id="ytick_7">
     <g id="line2d_12">
      <g>
       <use style="stroke:#000000;stroke-width:0.8;" x="103.104" xlink:href="#m79f7c706fa" y="114.048"/>
      </g>
     </g>
     <g id="text_12">
      <!-- 1.0 -->
      <g transform="translate(80.200875 117.847219)scale(0.1 -0.1)">
       <use xlink:href="#DejaVuSans-31"/>
       <use x="63.623047" xlink:href="#DejaVuSans-2e"/>
       <use x="95.410156" xlink:href="#DejaVuSans-30"/>
      </g>
     </g>
    </g>
    <g id="ytick_8">
     <g id="line2d_13">
      <g>
       <use style="stroke:#000000;stroke-width:0.8;" x="103.104" xlink:href="#m79f7c706fa" y="83.808"/>
      </g>
     </g>
     <g id="text_13">
      <!-- 1.5 -->
      <g transform="translate(80.200875 87.607219)scale(0.1 -0.1)">
       <use xlink:href="#DejaVuSans-31"/>
       <use x="63.623047" xlink:href="#DejaVuSans-2e"/>
       <use x="95.410156" xlink:href="#DejaVuSans-35"/>
      </g>
     </g>
    </g>
    <g id="ytick_9">
     <g id="line2d_14">
      <g>
       <use style="stroke:#000000;stroke-width:0.8;" x="103.104" xlink:href="#m79f7c706fa" y="53.568"/>
      </g>
     </g>
     <g id="text_14">
      <!-- 2.0 -->
      <g transform="translate(80.200875 57.367219)scale(0.1 -0.1)">
       <use xlink:href="#DejaVuSans-32"/>
       <use x="63.623047" xlink:href="#DejaVuSans-2e"/>
       <use x="95.410156" xlink:href="#DejaVuSans-30"/>
      </g>
     </g>
    </g>
   </g>
   <g id="line2d_15">
    <path clip-path="url(#p3939ac7b47)" d="M 357.12 174.528 
L 355.282346 164.025758 
L 349.825219 153.842622 
L 340.914433 144.288 
L 328.820736 135.652205 
L 313.911589 128.197632 
L 296.64 122.150784 
L 277.530757 117.69539 
L 257.164484 114.966827 
L 236.16 114.048 
L 215.155516 114.966827 
L 194.789243 117.69539 
L 175.68 122.150784 
L 158.408411 128.197632 
L 143.499264 135.652205 
L 131.405567 144.288 
L 122.494781 153.842622 
L 117.037654 164.025758 
L 115.2 174.528 
L 117.037654 185.030242 
L 122.494781 195.213378 
L 131.405567 204.768 
L 143.499264 213.403795 
L 158.408411 220.858368 
L 175.68 226.905216 
L 194.789243 231.36061 
L 215.155516 234.089173 
L 236.16 235.008 
L 257.164484 234.089173 
L 277.530757 231.36061 
L 296.64 226.905216 
L 313.911589 220.858368 
L 328.820736 213.403795 
L 340.914433 204.768 
L 349.825219 195.213378 
L 355.282346 185.030242 
L 357.12 174.528 
" style="fill:none;stroke:#1f77b4;stroke-linecap:square;stroke-width:1.5;"/>
   </g>
   <g id="line2d_16">
    <path clip-path="url(#p3939ac7b47)" d="M 352.998388 143.221248 
L 348.50517 133.552482 
L 340.598401 125.128735 
L 329.518324 118.205961 
L 315.601602 112.994503 
L 299.271087 109.652709 
L 281.022973 108.282118 
L 261.41172 108.924375 
L 241.033207 111.559964 
L 220.506624 116.108806 
L 200.455661 122.432685 
L 181.489556 130.339454 
L 164.184585 139.58887 
L 149.06655 149.899893 
L 136.594806 160.959229 
L 127.1483 172.430845 
L 121.014059 183.966182 
L 118.37847 195.214745 
L 119.321612 205.834752 
L 123.81483 215.503518 
L 131.721599 223.927265 
L 142.801676 230.850039 
L 156.718398 236.061497 
L 173.048913 239.403291 
L 191.297027 240.773882 
L 210.90828 240.131625 
L 231.286793 237.496036 
L 251.813376 232.947194 
L 271.864339 226.623315 
L 290.830444 218.716546 
L 308.135415 209.46713 
L 323.25345 199.156107 
L 335.725194 188.096771 
L 345.1717 176.625155 
L 351.305941 165.089818 
L 353.94153 153.841255 
L 352.998388 143.221248 
" style="fill:none;stroke:#ff7f0e;stroke-linecap:square;stroke-width:1.5;"/>
   </g>
   <g id="line2d_17">
    <path clip-path="url(#p3939ac7b47)" d="M 352.998388 143.221248 
L 348.50517 133.552482 
L 340.598401 125.128735 
L 329.518324 118.205961 
L 315.601602 112.994503 
L 299.271087 109.652709 
L 281.022973 108.282118 
L 261.41172 108.924375 
L 241.033207 111.559964 
L 220.506624 116.108806 
L 200.455661 122.432685 
L 181.489556 130.339454 
L 164.184585 139.58887 
L 149.06655 149.899893 
L 136.594806 160.959229 
L 127.1483 172.430845 
L 121.014059 183.966182 
L 118.37847 195.214745 
L 119.321612 205.834752 
L 123.81483 215.503518 
L 131.721599 223.927265 
L 142.801676 230.850039 
L 156.718398 236.061497 
L 173.048913 239.403291 
L 191.297027 240.773882 
L 210.90828 240.131625 
L 231.286793 237.496036 
L 251.813376 232.947194 
L 271.864339 226.623315 
L 290.830444 218.716546 
L 308.135415 209.46713 
L 323.25345 199.156107 
L 335.725194 188.096771 
L 345.1717 176.625155 
L 351.305941 165.089818 
L 353.94153 153.841255 
L 352.998388 143.221248 
" style="fill:none;stroke:#2ca02c;stroke-linecap:square;stroke-width:1.5;"/>
   </g>
   <g id="line2d_18">
    <path clip-path="url(#p3939ac7b47)" d="M 340.914433 114.048 
L 334.071857 105.871619 
L 324.254278 99.781327 
L 311.76 95.962175 
L 296.968654 94.530206 
L 280.329668 95.52893 
L 262.348608 98.928 
L 243.571821 104.624138 
L 224.56983 112.444269 
L 205.92 122.150784 
L 188.188997 133.448753 
L 171.915569 145.994895 
L 157.594175 159.408 
L 145.659965 173.280519 
L 136.475552 187.190942 
L 130.32 200.716608 
L 127.380343 213.446547 
L 127.745901 224.993965 
L 131.405567 235.008 
L 138.248143 243.184381 
L 148.065722 249.274673 
L 160.56 253.093825 
L 175.351346 254.525794 
L 191.990332 253.52707 
L 209.971392 250.128 
L 228.748179 244.431862 
L 247.75017 236.611731 
L 266.4 226.905216 
L 284.131003 215.607247 
L 300.404431 203.061105 
L 314.725825 189.648 
L 326.660035 175.775481 
L 335.844448 161.865058 
L 342 148.339392 
L 344.939657 135.609453 
L 344.574099 124.062035 
L 340.914433 114.048 
" style="fill:none;stroke:#d62728;stroke-linecap:square;stroke-width:1.5;"/>
   </g>
   <g id="line2d_19">
    <path clip-path="url(#p3939ac7b47)" d="M 321.691636 88.996364 
L 312.966012 82.869575 
L 301.906676 79.527781 
L 288.849661 79.072521 
L 274.191697 81.517627 
L 258.378159 86.788807 
L 241.889533 94.725897 
L 225.226819 105.087734 
L 208.896304 117.559478 
L 193.394182 131.762182 
L 179.191478 147.264304 
L 166.719734 163.594819 
L 156.357897 180.257533 
L 148.420807 196.746159 
L 143.149627 212.559697 
L 140.704521 227.217661 
L 141.159781 240.274676 
L 144.501575 251.334012 
L 150.628364 260.059636 
L 159.353988 266.186425 
L 170.413324 269.528219 
L 183.470339 269.983479 
L 198.128303 267.538373 
L 213.941841 262.267193 
L 230.430467 254.330103 
L 247.093181 243.968266 
L 263.423696 231.496522 
L 278.925818 217.293818 
L 293.128522 201.791696 
L 305.600266 185.461181 
L 315.962103 168.798467 
L 323.899193 152.309841 
L 329.170373 136.496303 
L 331.615479 121.838339 
L 331.160219 108.781324 
L 327.818425 97.721988 
L 321.691636 88.996364 
" style="fill:none;stroke:#9467bd;stroke-linecap:square;stroke-width:1.5;"/>
   </g>
   <g id="line2d_20">
    <path clip-path="url(#p3939ac7b47)" d="M 296.64 69.773567 
L 286.625965 66.113901 
L 275.078547 65.748343 
L 262.348608 68.688 
L 248.822942 74.843552 
L 234.912519 84.027965 
L 221.04 95.962175 
L 207.626895 110.283569 
L 195.080753 126.556997 
L 183.782784 144.288 
L 174.076269 162.93783 
L 166.256138 181.939821 
L 160.56 200.716608 
L 157.16093 218.697668 
L 156.162206 235.336654 
L 157.594175 250.128 
L 161.413327 262.622278 
L 167.503619 272.439857 
L 175.68 279.282433 
L 185.694035 282.942099 
L 197.241453 283.307657 
L 209.971392 280.368 
L 223.497058 274.212448 
L 237.407481 265.028035 
L 251.28 253.093825 
L 264.693105 238.772431 
L 277.239247 222.499003 
L 288.537216 204.768 
L 298.243731 186.11817 
L 306.063862 167.116179 
L 311.76 148.339392 
L 315.15907 130.358332 
L 316.157794 113.719346 
L 314.725825 98.928 
L 310.906673 86.433722 
L 304.816381 76.616143 
L 296.64 69.773567 
" style="fill:none;stroke:#8c564b;stroke-linecap:square;stroke-width:1.5;"/>
   </g>
   <g id="line2d_21">
    <path clip-path="url(#p3939ac7b47)" d="M 267.466752 57.689612 
L 256.846745 56.74647 
L 245.598182 59.382059 
L 234.062845 65.5163 
L 222.591229 74.962806 
L 211.531893 87.43455 
L 201.22087 102.552585 
L 191.971454 119.857556 
L 184.064685 138.823661 
L 177.740806 158.874624 
L 173.191964 179.401207 
L 170.556375 199.77972 
L 169.914118 219.390973 
L 171.284709 237.639087 
L 174.626503 253.969602 
L 179.837961 267.886324 
L 186.760735 278.966401 
L 195.184482 286.87317 
L 204.853248 291.366388 
L 215.473255 292.30953 
L 226.721818 289.673941 
L 238.257155 283.5397 
L 249.728771 274.093194 
L 260.788107 261.62145 
L 271.09913 246.503415 
L 280.348546 229.198444 
L 288.255315 210.232339 
L 294.579194 190.181376 
L 299.128036 169.654793 
L 301.763625 149.27628 
L 302.405882 129.665027 
L 301.035291 111.416913 
L 297.693497 95.086398 
L 292.482039 81.169676 
L 285.559265 70.089599 
L 277.135518 62.18283 
L 267.466752 57.689612 
" style="fill:none;stroke:#e377c2;stroke-linecap:square;stroke-width:1.5;"/>
   </g>
   <g id="line2d_22">
    <path clip-path="url(#p3939ac7b47)" d="M 236.16 53.568 
L 225.657758 55.405654 
L 215.474622 60.862781 
L 205.92 69.773567 
L 197.284205 81.867264 
L 189.829632 96.776411 
L 183.782784 114.048 
L 179.32739 133.157243 
L 176.598827 153.523516 
L 175.68 174.528 
L 176.598827 195.532484 
L 179.32739 215.898757 
L 183.782784 235.008 
L 189.829632 252.279589 
L 197.284205 267.188736 
L 205.92 279.282433 
L 215.474622 288.193219 
L 225.657758 293.650346 
L 236.16 295.488 
L 246.662242 293.650346 
L 256.845378 288.193219 
L 266.4 279.282433 
L 275.035795 267.188736 
L 282.490368 252.279589 
L 288.537216 235.008 
L 292.99261 215.898757 
L 295.721173 195.532484 
L 296.64 174.528 
L 295.721173 153.523516 
L 292.99261 133.157243 
L 288.537216 114.048 
L 282.490368 96.776411 
L 275.035795 81.867264 
L 266.4 69.773567 
L 256.845378 60.862781 
L 246.662242 55.405654 
L 236.16 53.568 
" style="fill:none;stroke:#7f7f7f;stroke-linecap:square;stroke-width:1.5;"/>
   </g>
   <g id="patch_3">
    <path d="M 103.104 307.584 
L 103.104 41.472 
" style="fill:none;stroke:#000000;stroke-linecap:square;stroke-linejoin:miter;stroke-width:0.8;"/>
   </g>
   <g id="patch_4">
    <path d="M 369.216 307.584 
L 369.216 41.472 
" style="fill:none;stroke:#000000;stroke-linecap:square;stroke-linejoin:miter;stroke-width:0.8;"/>
   </g>
   <g id="patch_5">
    <path d="M 103.104 307.584 
L 369.216 307.584 
" style="fill:none;stroke:#000000;stroke-linecap:square;stroke-linejoin:miter;stroke-width:0.8;"/>
   </g>
   <g id="patch_6">
    <path d="M 103.104 41.472 
L 369.216 41.472 
" style="fill:none;stroke:#000000;stroke-linecap:square;stroke-linejoin:miter;stroke-width:0.8;"/>
   </g>
  </g>
 </g>
 <defs>
  <clipPath id="p3939ac7b47">
   <rect height="266.112" width="266.112" x="103.104" y="41.472"/>
  </clipPath>
 </defs>
</svg>
