<?xml version="1.0" encoding="utf-8" standalone="no"?>
<!DOCTYPE svg PUBLIC "-//W3C//DTD SVG 1.1//EN"
  "http://www.w3.org/Graphics/SVG/1.1/DTD/svg11.dtd">
<!-- Created with matplotlib (http://matplotlib.org/) -->
<svg height="345.6pt" version="1.1" viewBox="0 0 460.8 345.6" width="460.8pt" xmlns="http://www.w3.org/2000/svg" xmlns:xlink="http://www.w3.org/1999/xlink">
 <defs>
  <style type="text/css">
*{stroke-linecap:butt;stroke-linejoin:round;}
  </style>
 </defs>
 <g id="figure_1">
  <g id="patch_1">
   <path d="M 0 345.6 
L 460.8 345.6 
L 460.8 0 
L 0 0 
z
" style="fill:#ffffff;"/>
  </g>
  <g id="axes_1">
   <g id="patch_2">
    <path d="M 99.513331 307.584 
L 372.806669 307.584 
L 372.806669 41.472 
L 99.513331 41.472 
z
" style="fill:#ffffff;"/>
   </g>
   <g id="matplotlib.axis_1">
    <g id="xtick_1">
     <g id="line2d_1">
      <defs>
       <path d="M 0 0 
L 0 3.5 
" id="m687e1db61a" style="stroke:#000000;stroke-width:0.8;"/>
      </defs>
      <g>
       <use style="stroke:#000000;stroke-width:0.8;" x="111.935756" xlink:href="#m687e1db61a" y="307.584"/>
      </g>
     </g>
     <g id="text_1">
      <!-- −2.0 -->
      <defs>
       <path d="M 10.59375 35.5 
L 73.1875 35.5 
L 73.1875 27.203125 
L 10.59375 27.203125 
z
" id="DejaVuSans-2212"/>
       <path d="M 19.1875 8.296875 
L 53.609375 8.296875 
L 53.609375 0 
L 7.328125 0 
L 7.328125 8.296875 
Q 12.9375 14.109375 22.625 23.890625 
Q 32.328125 33.6875 34.8125 36.53125 
Q 39.546875 41.84375 41.421875 45.53125 
Q 43.3125 49.21875 43.3125 52.78125 
Q 43.3125 58.59375 39.234375 62.25 
Q 35.15625 65.921875 28.609375 65.921875 
Q 23.96875 65.921875 18.8125 64.3125 
Q 13.671875 62.703125 7.8125 59.421875 
L 7.8125 69.390625 
Q 13.765625 71.78125 18.9375 73 
Q 24.125 74.21875 28.421875 74.21875 
Q 39.75 74.21875 46.484375 68.546875 
Q 53.21875 62.890625 53.21875 53.421875 
Q 53.21875 48.921875 51.53125 44.890625 
Q 49.859375 40.875 45.40625 35.40625 
Q 44.1875 33.984375 37.640625 27.21875 
Q 31.109375 20.453125 19.1875 8.296875 
z
" id="DejaVuSans-32"/>
       <path d="M 10.6875 12.40625 
L 21 12.40625 
L 21 0 
L 10.6875 0 
z
" id="DejaVuSans-2e"/>
       <path d="M 31.78125 66.40625 
Q 24.171875 66.40625 20.328125 58.90625 
Q 16.5 51.421875 16.5 36.375 
Q 16.5 21.390625 20.328125 13.890625 
Q 24.171875 6.390625 31.78125 6.390625 
Q 39.453125 6.390625 43.28125 13.890625 
Q 47.125 21.390625 47.125 36.375 
Q 47.125 51.421875 43.28125 58.90625 
Q 39.453125 66.40625 31.78125 66.40625 
z
M 31.78125 74.21875 
Q 44.046875 74.21875 50.515625 64.515625 
Q 56.984375 54.828125 56.984375 36.375 
Q 56.984375 17.96875 50.515625 8.265625 
Q 44.046875 -1.421875 31.78125 -1.421875 
Q 19.53125 -1.421875 13.0625 8.265625 
Q 6.59375 17.96875 6.59375 36.375 
Q 6.59375 54.828125 13.0625 64.515625 
Q 19.53125 74.21875 31.78125 74.21875 
z
" id="DejaVuSans-30"/>
      </defs>
      <g transform="translate(99.79435 322.182437)scale(0.1 -0.1)">
       <use xlink:href="#DejaVuSans-2212"/>
       <use x="83.789062" xlink:href="#DejaVuSans-32"/>
       <use x="147.412109" xlink:href="#DejaVuSans-2e"/>
       <use x="179.199219" xlink:href="#DejaVuSans-30"/>
      </g>
     </g>
    </g>
    <g id="xtick_2">
     <g id="line2d_2">
      <g>
       <use style="stroke:#000000;stroke-width:0.8;" x="142.991817" xlink:href="#m687e1db61a" y="307.584"/>
      </g>
     </g>
     <g id="text_2">
      <!-- −1.5 -->
      <defs>
       <path d="M 12.40625 8.296875 
L 28.515625 8.296875 
L 28.515625 63.921875 
L 10.984375 60.40625 
L 10.984375 69.390625 
L 28.421875 72.90625 
L 38.28125 72.90625 
L 38.28125 8.296875 
L 54.390625 8.296875 
L 54.390625 0 
L 12.40625 0 
z
" id="DejaVuSans-31"/>
       <path d="M 10.796875 72.90625 
L 49.515625 72.90625 
L 49.515625 64.59375 
L 19.828125 64.59375 
L 19.828125 46.734375 
Q 21.96875 47.46875 24.109375 47.828125 
Q 26.265625 48.1875 28.421875 48.1875 
Q 40.625 48.1875 47.75 41.5 
Q 54.890625 34.8125 54.890625 23.390625 
Q 54.890625 11.625 47.5625 5.09375 
Q 40.234375 -1.421875 26.90625 -1.421875 
Q 22.3125 -1.421875 17.546875 -0.640625 
Q 12.796875 0.140625 7.71875 1.703125 
L 7.71875 11.625 
Q 12.109375 9.234375 16.796875 8.0625 
Q 21.484375 6.890625 26.703125 6.890625 
Q 35.15625 6.890625 40.078125 11.328125 
Q 45.015625 15.765625 45.015625 23.390625 
Q 45.015625 31 40.078125 35.4375 
Q 35.15625 39.890625 26.703125 39.890625 
Q 22.75 39.890625 18.8125 39.015625 
Q 14.890625 38.140625 10.796875 36.28125 
z
" id="DejaVuSans-35"/>
      </defs>
      <g transform="translate(130.850411 322.182437)scale(0.1 -0.1)">
       <use xlink:href="#DejaVuSans-2212"/>
       <use x="83.789062" xlink:href="#DejaVuSans-31"/>
       <use x="147.412109" xlink:href="#DejaVuSans-2e"/>
       <use x="179.199219" xlink:href="#DejaVuSans-35"/>
      </g>
     </g>
    </g>
    <g id="xtick_3">
     <g id="line2d_3">
      <g>
       <use style="stroke:#000000;stroke-width:0.8;" x="174.047878" xlink:href="#m687e1db61a" y="307.584"/>
      </g>
     </g>
     <g id="text_3">
      <!-- −1.0 -->
      <g transform="translate(161.906472 322.182437)scale(0.1 -0.1)">
       <use xlink:href="#DejaVuSans-2212"/>
       <use x="83.789062" xlink:href="#DejaVuSans-31"/>
       <use x="147.412109" xlink:href="#DejaVuSans-2e"/>
       <use x="179.199219" xlink:href="#DejaVuSans-30"/>
      </g>
     </g>
    </g>
    <g id="xtick_4">
     <g id="line2d_4">
      <g>
       <use style="stroke:#000000;stroke-width:0.8;" x="205.103939" xlink:href="#m687e1db61a" y="307.584"/>
      </g>
     </g>
     <g id="text_4">
      <!-- −0.5 -->
      <g transform="translate(192.962533 322.182437)scale(0.1 -0.1)">
       <use xlink:href="#DejaVuSans-2212"/>
       <use x="83.789062" xlink:href="#DejaVuSans-30"/>
       <use x="147.412109" xlink:href="#DejaVuSans-2e"/>
       <use x="179.199219" xlink:href="#DejaVuSans-35"/>
      </g>
     </g>
    </g>
    <g id="xtick_5">
     <g id="line2d_5">
      <g>
       <use style="stroke:#000000;stroke-width:0.8;" x="236.16" xlink:href="#m687e1db61a" y="307.584"/>
      </g>
     </g>
     <g id="text_5">
      <!-- 0.0 -->
      <g transform="translate(228.208438 322.182437)scale(0.1 -0.1)">
       <use xlink:href="#DejaVuSans-30"/>
       <use x="63.623047" xlink:href="#DejaVuSans-2e"/>
       <use x="95.410156" xlink:href="#DejaVuSans-30"/>
      </g>
     </g>
    </g>
    <g id="xtick_6">
     <g id="line2d_6">
      <g>
       <use style="stroke:#000000;stroke-width:0.8;" x="267.216061" xlink:href="#m687e1db61a" y="307.584"/>
      </g>
     </g>
     <g id="text_6">
      <!-- 0.5 -->
      <g transform="translate(259.264499 322.182437)scale(0.1 -0.1)">
       <use xlink:href="#DejaVuSans-30"/>
       <use x="63.623047" xlink:href="#DejaVuSans-2e"/>
       <use x="95.410156" xlink:href="#DejaVuSans-35"/>
      </g>
     </g>
    </g>
    <g id="xtick_7">
     <g id="line2d_7">
      <g>
       <use style="stroke:#000000;stroke-width:0.8;" x="298.272122" xlink:href="#m687e1db61a" y="307.584"/>
      </g>
     </g>
     <g id="text_7">
      <!-- 1.0 -->
      <g transform="translate(290.32056 322.182437)scale(0.1 -0.1)">
       <use xlink:href="#DejaVuSans-31"/>
       <use x="63.623047" xlink:href="#DejaVuSans-2e"/>
       <use x="95.410156" xlink:href="#DejaVuSans-30"/>
      </g>
     </g>
    </g>
    <g id="xtick_8">
     <g id="line2d_8">
      <g>
       <use style="stroke:#000000;stroke-width:0.8;" x="329.328183" xlink:href="#m687e1db61a" y="307.584"/>
      </g>
     </g>
     <g id="text_8">
      <!-- 1.5 -->
      <g transform="translate(321.376621 322.182437)scale(0.1 -0.1)">
       <use xlink:href="#DejaVuSans-31"/>
       <use x="63.623047" xlink:href="#DejaVuSans-2e"/>
       <use x="95.410156" xlink:href="#DejaVuSans-35"/>
      </g>
     </g>
    </g>
    <g id="xtick_9">
     <g id="line2d_9">
      <g>
       <use style="stroke:#000000;stroke-width:0.8;" x="360.384244" xlink:href="#m687e1db61a" y="307.584"/>
      </g>
     </g>
     <g id="text_9">
      <!-- 2.0 -->
      <g transform="translate(352.432682 322.182437)scale(0.1 -0.1)">
       <use xlink:href="#DejaVuSans-32"/>
       <use x="63.623047" xlink:href="#DejaVuSans-2e"/>
       <use x="95.410156" xlink:href="#DejaVuSans-30"/>
      </g>
     </g>
    </g>
   </g>
   <g id="matplotlib.axis_2">
    <g id="ytick_1">
     <g id="line2d_10">
      <defs>
       <path d="M 0 0 
L -3.5 0 
" id="m4239e0ac70" style="stroke:#000000;stroke-width:0.8;"/>
      </defs>
      <g>
       <use style="stroke:#000000;stroke-width:0.8;" x="99.513331" xlink:href="#m4239e0ac70" y="298.752244"/>
      </g>
     </g>
     <g id="text_10">
      <!-- −2.0 -->
      <g transform="translate(68.230519 302.551463)scale(0.1 -0.1)">
       <use xlink:href="#DejaVuSans-2212"/>
       <use x="83.789062" xlink:href="#DejaVuSans-32"/>
       <use x="147.412109" xlink:href="#DejaVuSans-2e"/>
       <use x="179.199219" xlink:href="#DejaVuSans-30"/>
      </g>
     </g>
    </g>
    <g id="ytick_2">
     <g id="line2d_11">
      <g>
       <use style="stroke:#000000;stroke-width:0.8;" x="99.513331" xlink:href="#m4239e0ac70" y="267.696183"/>
      </g>
     </g>
     <g id="text_11">
      <!-- −1.5 -->
      <g transform="translate(68.230519 271.495402)scale(0.1 -0.1)">
       <use xlink:href="#DejaVuSans-2212"/>
       <use x="83.789062" xlink:href="#DejaVuSans-31"/>
       <use x="147.412109" xlink:href="#DejaVuSans-2e"/>
       <use x="179.199219" xlink:href="#DejaVuSans-35"/>
      </g>
     </g>
    </g>
    <g id="ytick_3">
     <g id="line2d_12">
      <g>
       <use style="stroke:#000000;stroke-width:0.8;" x="99.513331" xlink:href="#m4239e0ac70" y="236.640122"/>
      </g>
     </g>
     <g id="text_12">
      <!-- −1.0 -->
      <g transform="translate(68.230519 240.439341)scale(0.1 -0.1)">
       <use xlink:href="#DejaVuSans-2212"/>
       <use x="83.789062" xlink:href="#DejaVuSans-31"/>
       <use x="147.412109" xlink:href="#DejaVuSans-2e"/>
       <use x="179.199219" xlink:href="#DejaVuSans-30"/>
      </g>
     </g>
    </g>
    <g id="ytick_4">
     <g id="line2d_13">
      <g>
       <use style="stroke:#000000;stroke-width:0.8;" x="99.513331" xlink:href="#m4239e0ac70" y="205.584061"/>
      </g>
     </g>
     <g id="text_13">
      <!-- −0.5 -->
      <g transform="translate(68.230519 209.38328)scale(0.1 -0.1)">
       <use xlink:href="#DejaVuSans-2212"/>
       <use x="83.789062" xlink:href="#DejaVuSans-30"/>
       <use x="147.412109" xlink:href="#DejaVuSans-2e"/>
       <use x="179.199219" xlink:href="#DejaVuSans-35"/>
      </g>
     </g>
    </g>
    <g id="ytick_5">
     <g id="line2d_14">
      <g>
       <use style="stroke:#000000;stroke-width:0.8;" x="99.513331" xlink:href="#m4239e0ac70" y="174.528"/>
      </g>
     </g>
     <g id="text_14">
      <!-- 0.0 -->
      <g transform="translate(76.610206 178.327219)scale(0.1 -0.1)">
       <use xlink:href="#DejaVuSans-30"/>
       <use x="63.623047" xlink:href="#DejaVuSans-2e"/>
       <use x="95.410156" xlink:href="#DejaVuSans-30"/>
      </g>
     </g>
    </g>
    <g id="ytick_6">
     <g id="line2d_15">
      <g>
       <use style="stroke:#000000;stroke-width:0.8;" x="99.513331" xlink:href="#m4239e0ac70" y="143.471939"/>
      </g>
     </g>
     <g id="text_15">
      <!-- 0.5 -->
      <g transform="translate(76.610206 147.271158)scale(0.1 -0.1)">
       <use xlink:href="#DejaVuSans-30"/>
       <use x="63.623047" xlink:href="#DejaVuSans-2e"/>
       <use x="95.410156" xlink:href="#DejaVuSans-35"/>
      </g>
     </g>
    </g>
    <g id="ytick_7">
     <g id="line2d_16">
      <g>
       <use style="stroke:#000000;stroke-width:0.8;" x="99.513331" xlink:href="#m4239e0ac70" y="112.415878"/>
      </g>
     </g>
     <g id="text_16">
      <!-- 1.0 -->
      <g transform="translate(76.610206 116.215097)scale(0.1 -0.1)">
       <use xlink:href="#DejaVuSans-31"/>
       <use x="63.623047" xlink:href="#DejaVuSans-2e"/>
       <use x="95.410156" xlink:href="#DejaVuSans-30"/>
      </g>
     </g>
    </g>
    <g id="ytick_8">
     <g id="line2d_17">
      <g>
       <use style="stroke:#000000;stroke-width:0.8;" x="99.513331" xlink:href="#m4239e0ac70" y="81.359817"/>
      </g>
     </g>
     <g id="text_17">
      <!-- 1.5 -->
      <g transform="translate(76.610206 85.159036)scale(0.1 -0.1)">
       <use xlink:href="#DejaVuSans-31"/>
       <use x="63.623047" xlink:href="#DejaVuSans-2e"/>
       <use x="95.410156" xlink:href="#DejaVuSans-35"/>
      </g>
     </g>
    </g>
    <g id="ytick_9">
     <g id="line2d_18">
      <g>
       <use style="stroke:#000000;stroke-width:0.8;" x="99.513331" xlink:href="#m4239e0ac70" y="50.303756"/>
      </g>
     </g>
     <g id="text_18">
      <!-- 2.0 -->
      <g transform="translate(76.610206 54.102975)scale(0.1 -0.1)">
       <use xlink:href="#DejaVuSans-32"/>
       <use x="63.623047" xlink:href="#DejaVuSans-2e"/>
       <use x="95.410156" xlink:href="#DejaVuSans-30"/>
      </g>
     </g>
    </g>
   </g>
   <g id="line2d_19">
    <path clip-path="url(#p5800eacb78)" d="M 360.384244 174.528 
L 358.496999 163.742343 
L 352.892606 153.284403 
L 343.741351 143.471939 
L 331.321292 134.603098 
L 316.009805 126.947354 
L 298.272122 120.737324 
L 278.647194 116.161697 
L 257.731314 113.359501 
L 236.16 112.415878 
L 214.588686 113.359501 
L 193.672806 116.161697 
L 174.047878 120.737324 
L 156.310195 126.947354 
L 140.998708 134.603098 
L 128.578649 143.471939 
L 119.427394 153.284403 
L 113.823001 163.742343 
L 111.935756 174.528 
L 113.823001 185.313657 
L 119.427394 195.771597 
L 128.578649 205.584061 
L 140.998708 214.452902 
L 156.310195 222.108646 
L 174.047878 228.318676 
L 193.672806 232.894303 
L 214.588686 235.696499 
L 236.16 236.640122 
L 257.731314 235.696499 
L 278.647194 232.894303 
L 298.272122 228.318676 
L 316.009805 222.108646 
L 331.321292 214.452902 
L 343.741351 205.584061 
L 352.892606 195.771597 
L 358.496999 185.313657 
L 360.384244 174.528 
" style="fill:none;stroke:#1f77b4;stroke-linecap:square;stroke-width:1.5;"/>
   </g>
   <g id="line2d_20">
    <path clip-path="url(#p5800eacb78)" d="M 356.151406 206.6796 
L 357.12 195.773001 
L 354.413286 184.220883 
L 348.113506 172.374251 
L 338.412075 160.59306 
L 325.603766 149.235276 
L 310.077754 138.645997 
L 292.305789 129.146976 
L 272.827862 121.026833 
L 252.2358 114.532297 
L 231.155284 109.8607 
L 210.226833 107.153986 
L 190.086348 106.494397 
L 171.345789 107.901975 
L 154.574576 111.333951 
L 140.282295 116.686046 
L 128.903209 123.79564 
L 120.783067 132.44671 
L 116.168594 142.3764 
L 115.2 153.282999 
L 117.906714 164.835117 
L 124.206494 176.681749 
L 133.907925 188.46294 
L 146.716234 199.820724 
L 162.242246 210.410003 
L 180.014211 219.909024 
L 199.492138 228.029167 
L 220.0842 234.523703 
L 241.164716 239.1953 
L 262.093167 241.902014 
L 282.233652 242.561603 
L 300.974211 241.154025 
L 317.745424 237.722049 
L 332.037705 232.369954 
L 343.416791 225.26036 
L 351.536933 216.60929 
L 356.151406 206.6796 
" style="fill:none;stroke:#ff7f0e;stroke-linecap:square;stroke-width:1.5;"/>
   </g>
   <g id="line2d_21">
    <path clip-path="url(#p5800eacb78)" d="M 343.741351 236.640122 
L 347.499777 226.355847 
L 347.8752 214.496808 
L 344.856214 201.423338 
L 338.534548 187.532666 
L 329.102283 173.246854 
L 316.846013 158.999969 
L 302.138141 145.224896 
L 285.425555 132.340182 
L 267.216061 120.737324 
L 248.062944 110.768869 
L 228.548162 102.737702 
L 209.264662 96.887847 
L 190.798363 93.397049 
L 173.710355 92.371374 
L 158.519847 93.841987 
L 145.688397 97.764203 
L 135.60588 104.018848 
L 128.578649 112.415878 
L 124.820223 122.700153 
L 124.4448 134.559192 
L 127.463786 147.632662 
L 133.785452 161.523334 
L 143.217717 175.809146 
L 155.473987 190.056031 
L 170.181859 203.831104 
L 186.894445 216.715818 
L 205.103939 228.318676 
L 224.257056 238.287131 
L 243.771838 246.318298 
L 263.055338 252.168153 
L 281.521637 255.658951 
L 298.609645 256.684626 
L 313.800153 255.214013 
L 326.631603 251.291797 
L 336.71412 245.037152 
L 343.741351 236.640122 
" style="fill:none;stroke:#2ca02c;stroke-linecap:square;stroke-width:1.5;"/>
   </g>
   <g id="line2d_22">
    <path clip-path="url(#p5800eacb78)" d="M 323.999805 262.367805 
L 330.291932 253.40671 
L 333.723908 242.048926 
L 334.191454 228.639552 
L 331.680364 213.586026 
L 326.266936 197.345741 
L 318.115654 180.412151 
L 307.474191 163.299774 
L 294.665883 146.528561 
L 280.079903 130.608097 
L 264.159439 116.022117 
L 247.388226 103.213809 
L 230.275849 92.572346 
L 213.342259 84.421064 
L 197.101974 79.007636 
L 182.048448 76.496546 
L 168.639074 76.964092 
L 157.28129 80.396068 
L 148.320195 86.688195 
L 142.028068 95.64929 
L 138.596092 107.007074 
L 138.128546 120.416448 
L 140.639636 135.469974 
L 146.053064 151.710259 
L 154.204346 168.643849 
L 164.845809 185.756226 
L 177.654117 202.527439 
L 192.240097 218.447903 
L 208.160561 233.033883 
L 224.931774 245.842191 
L 242.044151 256.483654 
L 258.977741 264.634936 
L 275.218026 270.048364 
L 290.271552 272.559454 
L 303.680926 272.091908 
L 315.03871 268.659932 
L 323.999805 262.367805 
" style="fill:none;stroke:#d62728;stroke-linecap:square;stroke-width:1.5;"/>
   </g>
   <g id="line2d_23">
    <path clip-path="url(#p5800eacb78)" d="M 298.272122 282.109351 
L 306.669152 275.08212 
L 312.923797 264.999603 
L 316.846013 252.168153 
L 318.316626 236.977645 
L 317.290951 219.889637 
L 313.800153 201.423338 
L 307.950298 182.139838 
L 299.919131 162.625056 
L 289.950676 143.471939 
L 278.347818 125.262445 
L 265.463104 108.549859 
L 251.688031 93.841987 
L 237.441146 81.585717 
L 223.155334 72.153452 
L 209.264662 65.831786 
L 196.191192 62.8128 
L 184.332153 63.188223 
L 174.047878 66.946649 
L 165.650848 73.97388 
L 159.396203 84.056397 
L 155.473987 96.887847 
L 154.003374 112.078355 
L 155.029049 129.166363 
L 158.519847 147.632662 
L 164.369702 166.916162 
L 172.400869 186.430944 
L 182.369324 205.584061 
L 193.972182 223.793555 
L 206.856896 240.506141 
L 220.631969 255.214013 
L 234.878854 267.470283 
L 249.164666 276.902548 
L 263.055338 283.224214 
L 276.128808 286.2432 
L 287.987847 285.867777 
L 298.272122 282.109351 
" style="fill:none;stroke:#9467bd;stroke-linecap:square;stroke-width:1.5;"/>
   </g>
   <g id="line2d_24">
    <path clip-path="url(#p5800eacb78)" d="M 268.3116 294.519406 
L 278.24129 289.904933 
L 286.89236 281.784791 
L 294.001954 270.405705 
L 299.354049 256.113424 
L 302.786025 239.342211 
L 304.193603 220.601652 
L 303.534014 200.461167 
L 300.8273 179.532716 
L 296.155703 158.4522 
L 289.661167 137.860138 
L 281.541024 118.382211 
L 272.042003 100.610246 
L 261.452724 85.084234 
L 250.09494 72.275925 
L 238.313749 62.574494 
L 226.467117 56.274714 
L 214.914999 53.568 
L 204.0084 54.536594 
L 194.07871 59.151067 
L 185.42764 67.271209 
L 178.318046 78.650295 
L 172.965951 92.942576 
L 169.533975 109.713789 
L 168.126397 128.454348 
L 168.785986 148.594833 
L 171.4927 169.523284 
L 176.164297 190.6038 
L 182.658833 211.195862 
L 190.778976 230.673789 
L 200.277997 248.445754 
L 210.867276 263.971766 
L 222.22506 276.780075 
L 234.006251 286.481506 
L 245.852883 292.781286 
L 257.405001 295.488 
L 268.3116 294.519406 
" style="fill:none;stroke:#8c564b;stroke-linecap:square;stroke-width:1.5;"/>
   </g>
   <g id="patch_3">
    <path d="M 99.513331 307.584 
L 99.513331 41.472 
" style="fill:none;stroke:#000000;stroke-linecap:square;stroke-linejoin:miter;stroke-width:0.8;"/>
   </g>
   <g id="patch_4">
    <path d="M 372.806669 307.584 
L 372.806669 41.472 
" style="fill:none;stroke:#000000;stroke-linecap:square;stroke-linejoin:miter;stroke-width:0.8;"/>
   </g>
   <g id="patch_5">
    <path d="M 99.513331 307.584 
L 372.806669 307.584 
" style="fill:none;stroke:#000000;stroke-linecap:square;stroke-linejoin:miter;stroke-width:0.8;"/>
   </g>
   <g id="patch_6">
    <path d="M 99.513331 41.472 
L 372.806669 41.472 
" style="fill:none;stroke:#000000;stroke-linecap:square;stroke-linejoin:miter;stroke-width:0.8;"/>
   </g>
  </g>
 </g>
 <defs>
  <clipPath id="p5800eacb78">
   <rect height="266.112" width="273.293337" x="99.513331" y="41.472"/>
  </clipPath>
 </defs>
</svg>
