<?xml version="1.0" encoding="utf-8" standalone="no"?>
<!DOCTYPE svg PUBLIC "-//W3C//DTD SVG 1.1//EN"
  "http://www.w3.org/Graphics/SVG/1.1/DTD/svg11.dtd">
<!-- Created with matplotlib (http://matplotlib.org/) -->
<svg height="345.6pt" version="1.1" viewBox="0 0 460.8 345.6" width="460.8pt" xmlns="http://www.w3.org/2000/svg" xmlns:xlink="http://www.w3.org/1999/xlink">
 <defs>
  <style type="text/css">
*{stroke-linecap:butt;stroke-linejoin:round;}
  </style>
 </defs>
 <g id="figure_1">
  <g id="patch_1">
   <path d="M 0 345.6 
L 460.8 345.6 
L 460.8 0 
L 0 0 
z
" style="fill:#ffffff;"/>
  </g>
  <g id="axes_1">
   <g id="patch_2">
    <path d="M 57.6 307.584 
L 414.72 307.584 
L 414.72 41.472 
L 57.6 41.472 
z
" style="fill:#ffffff;"/>
   </g>
   <g id="matplotlib.axis_1">
    <g id="xtick_1">
     <g id="line2d_1">
      <defs>
       <path d="M 0 0 
L 0 3.5 
" id="m5af90a3665" style="stroke:#000000;stroke-width:0.8;"/>
      </defs>
      <g>
       <use style="stroke:#000000;stroke-width:0.8;" x="78.219951" xlink:href="#m5af90a3665" y="307.584"/>
      </g>
     </g>
     <g id="text_1">
      <!-- $-2\pi$ -->
      <defs>
       <path d="M 10.59375 35.5 
L 73.1875 35.5 
L 73.1875 27.203125 
L 10.59375 27.203125 
z
" id="DejaVuSans-2212"/>
       <path d="M 19.1875 8.296875 
L 53.609375 8.296875 
L 53.609375 0 
L 7.328125 0 
L 7.328125 8.296875 
Q 12.9375 14.109375 22.625 23.890625 
Q 32.328125 33.6875 34.8125 36.53125 
Q 39.546875 41.84375 41.421875 45.53125 
Q 43.3125 49.21875 43.3125 52.78125 
Q 43.3125 58.59375 39.234375 62.25 
Q 35.15625 65.921875 28.609375 65.921875 
Q 23.96875 65.921875 18.8125 64.3125 
Q 13.671875 62.703125 7.8125 59.421875 
L 7.8125 69.390625 
Q 13.765625 71.78125 18.9375 73 
Q 24.125 74.21875 28.421875 74.21875 
Q 39.75 74.21875 46.484375 68.546875 
Q 53.21875 62.890625 53.21875 53.421875 
Q 53.21875 48.921875 51.53125 44.890625 
Q 49.859375 40.875 45.40625 35.40625 
Q 44.1875 33.984375 37.640625 27.21875 
Q 31.109375 20.453125 19.1875 8.296875 
z
" id="DejaVuSans-32"/>
       <path d="M 9.125 54.6875 
L 61.53125 54.6875 
L 59.765625 45.703125 
L 52.875 45.703125 
L 46.34375 12.109375 
Q 45.65625 8.59375 46.578125 7.03125 
Q 47.46875 5.515625 50.140625 5.515625 
Q 50.875 5.515625 51.953125 5.671875 
Q 53.078125 5.765625 53.421875 5.8125 
L 52.15625 -0.6875 
Q 50.34375 -1.3125 48.484375 -1.609375 
Q 46.578125 -1.90625 44.78125 -1.90625 
Q 38.921875 -1.90625 37.3125 1.265625 
Q 35.6875 4.5 37.359375 13.09375 
L 43.703125 45.703125 
L 23.53125 45.703125 
L 14.65625 0 
L 5.46875 0 
L 14.359375 45.703125 
L 7.375 45.703125 
z
" id="DejaVuSans-Oblique-3c0"/>
      </defs>
      <g transform="translate(67.819951 322.182437)scale(0.1 -0.1)">
       <use transform="translate(0 0.78125)" xlink:href="#DejaVuSans-2212"/>
       <use transform="translate(83.789062 0.78125)" xlink:href="#DejaVuSans-32"/>
       <use transform="translate(147.412109 0.78125)" xlink:href="#DejaVuSans-Oblique-3c0"/>
      </g>
     </g>
    </g>
    <g id="xtick_2">
     <g id="line2d_2">
      <g>
       <use style="stroke:#000000;stroke-width:0.8;" x="157.189975" xlink:href="#m5af90a3665" y="307.584"/>
      </g>
     </g>
     <g id="text_2">
      <!-- $-\pi$ -->
      <g transform="translate(149.989975 322.182437)scale(0.1 -0.1)">
       <use transform="translate(0 0.3125)" xlink:href="#DejaVuSans-2212"/>
       <use transform="translate(83.789062 0.3125)" xlink:href="#DejaVuSans-Oblique-3c0"/>
      </g>
     </g>
    </g>
    <g id="xtick_3">
     <g id="line2d_3">
      <g>
       <use style="stroke:#000000;stroke-width:0.8;" x="236.16" xlink:href="#m5af90a3665" y="307.584"/>
      </g>
     </g>
     <g id="text_3">
      <!-- 0 -->
      <defs>
       <path d="M 31.78125 66.40625 
Q 24.171875 66.40625 20.328125 58.90625 
Q 16.5 51.421875 16.5 36.375 
Q 16.5 21.390625 20.328125 13.890625 
Q 24.171875 6.390625 31.78125 6.390625 
Q 39.453125 6.390625 43.28125 13.890625 
Q 47.125 21.390625 47.125 36.375 
Q 47.125 51.421875 43.28125 58.90625 
Q 39.453125 66.40625 31.78125 66.40625 
z
M 31.78125 74.21875 
Q 44.046875 74.21875 50.515625 64.515625 
Q 56.984375 54.828125 56.984375 36.375 
Q 56.984375 17.96875 50.515625 8.265625 
Q 44.046875 -1.421875 31.78125 -1.421875 
Q 19.53125 -1.421875 13.0625 8.265625 
Q 6.59375 17.96875 6.59375 36.375 
Q 6.59375 54.828125 13.0625 64.515625 
Q 19.53125 74.21875 31.78125 74.21875 
z
" id="DejaVuSans-30"/>
      </defs>
      <g transform="translate(232.97875 322.182437)scale(0.1 -0.1)">
       <use xlink:href="#DejaVuSans-30"/>
      </g>
     </g>
    </g>
    <g id="xtick_4">
     <g id="line2d_4">
      <g>
       <use style="stroke:#000000;stroke-width:0.8;" x="315.130025" xlink:href="#m5af90a3665" y="307.584"/>
      </g>
     </g>
     <g id="text_4">
      <!-- $\pi$ -->
      <g transform="translate(312.080025 322.182437)scale(0.1 -0.1)">
       <use transform="translate(0 0.3125)" xlink:href="#DejaVuSans-Oblique-3c0"/>
      </g>
     </g>
    </g>
    <g id="xtick_5">
     <g id="line2d_5">
      <g>
       <use style="stroke:#000000;stroke-width:0.8;" x="394.100049" xlink:href="#m5af90a3665" y="307.584"/>
      </g>
     </g>
     <g id="text_5">
      <!-- $2\pi$ -->
      <g transform="translate(387.900049 322.182437)scale(0.1 -0.1)">
       <use transform="translate(0 0.78125)" xlink:href="#DejaVuSans-32"/>
       <use transform="translate(63.623047 0.78125)" xlink:href="#DejaVuSans-Oblique-3c0"/>
      </g>
     </g>
    </g>
   </g>
   <g id="matplotlib.axis_2">
    <g id="ytick_1">
     <g id="line2d_6">
      <defs>
       <path d="M 0 0 
L -3.5 0 
" id="m4d1339d40f" style="stroke:#000000;stroke-width:0.8;"/>
      </defs>
      <g>
       <use style="stroke:#000000;stroke-width:0.8;" x="57.6" xlink:href="#m4d1339d40f" y="276.315602"/>
      </g>
     </g>
     <g id="text_6">
      <!-- -1 -->
      <defs>
       <path d="M 4.890625 31.390625 
L 31.203125 31.390625 
L 31.203125 23.390625 
L 4.890625 23.390625 
z
" id="DejaVuSans-2d"/>
       <path d="M 12.40625 8.296875 
L 28.515625 8.296875 
L 28.515625 63.921875 
L 10.984375 60.40625 
L 10.984375 69.390625 
L 28.421875 72.90625 
L 38.28125 72.90625 
L 38.28125 8.296875 
L 54.390625 8.296875 
L 54.390625 0 
L 12.40625 0 
z
" id="DejaVuSans-31"/>
      </defs>
      <g transform="translate(40.629688 280.114821)scale(0.1 -0.1)">
       <use xlink:href="#DejaVuSans-2d"/>
       <use x="36.083984" xlink:href="#DejaVuSans-31"/>
      </g>
     </g>
    </g>
    <g id="ytick_2">
     <g id="line2d_7">
      <g>
       <use style="stroke:#000000;stroke-width:0.8;" x="57.6" xlink:href="#m4d1339d40f" y="174.528"/>
      </g>
     </g>
     <g id="text_7">
      <!-- 0 -->
      <g transform="translate(44.2375 178.327219)scale(0.1 -0.1)">
       <use xlink:href="#DejaVuSans-30"/>
      </g>
     </g>
    </g>
    <g id="ytick_3">
     <g id="line2d_8">
      <g>
       <use style="stroke:#000000;stroke-width:0.8;" x="57.6" xlink:href="#m4d1339d40f" y="72.740398"/>
      </g>
     </g>
     <g id="text_8">
      <!-- 1 -->
      <g transform="translate(44.2375 76.539617)scale(0.1 -0.1)">
       <use xlink:href="#DejaVuSans-31"/>
      </g>
     </g>
    </g>
   </g>
   <g id="line2d_9">
    <path clip-path="url(#pad2d9096fa)" d="M 73.832727 276.315602 
L 76.026339 276.315602 
L 78.219951 72.740398 
L 154.996364 72.740398 
L 157.189975 276.315602 
L 233.966388 276.315602 
L 236.16 72.740398 
L 315.130025 72.740398 
L 317.323636 276.315602 
L 394.100049 276.315602 
L 396.293661 72.740398 
L 398.487273 72.740398 
L 398.487273 72.740398 
" style="fill:none;stroke:#1f77b4;stroke-linecap:square;stroke-width:1.5;"/>
   </g>
   <g id="line2d_10">
    <path clip-path="url(#pad2d9096fa)" d="M 73.832727 238.488676 
L 76.026339 207.958632 
L 80.413563 141.097368 
L 82.607174 110.567324 
L 84.800786 85.401241 
L 86.994398 67.263675 
L 89.18801 56.796257 
L 91.381622 53.568 
L 93.575233 56.205421 
L 95.768845 62.67559 
L 97.962457 70.668156 
L 100.156069 78.005473 
L 102.349681 83.006279 
L 104.543292 84.738486 
L 106.736904 83.118595 
L 108.930516 78.844797 
L 113.31774 67.648158 
L 115.511351 63.657665 
L 117.704963 62.208 
L 119.898575 63.657665 
L 122.092187 67.648158 
L 126.47941 78.844797 
L 128.673022 83.118595 
L 130.866634 84.738486 
L 133.060246 83.006279 
L 135.253857 78.005473 
L 137.447469 70.668156 
L 139.641081 62.67559 
L 141.834693 56.205421 
L 144.028305 53.568 
L 146.221916 56.796257 
L 148.415528 67.263675 
L 150.60914 85.401241 
L 152.802752 110.567324 
L 154.996364 141.097368 
L 159.383587 207.958632 
L 161.577199 238.488676 
L 163.770811 263.654759 
L 165.964423 281.792325 
L 168.158034 292.259743 
L 170.351646 295.488 
L 172.545258 292.850579 
L 174.73887 286.38041 
L 176.932482 278.387844 
L 179.126093 271.050527 
L 181.319705 266.049721 
L 183.513317 264.317514 
L 185.706929 265.937405 
L 187.900541 270.211203 
L 192.287764 281.407842 
L 194.481376 285.398335 
L 196.674988 286.848 
L 198.8686 285.398335 
L 201.062211 281.407842 
L 205.449435 270.211203 
L 207.643047 265.937405 
L 209.836658 264.317514 
L 212.03027 266.049721 
L 214.223882 271.050527 
L 216.417494 278.387844 
L 218.611106 286.38041 
L 220.804717 292.850579 
L 222.998329 295.488 
L 225.191941 292.259743 
L 227.385553 281.792325 
L 229.579165 263.654759 
L 231.772776 238.488676 
L 233.966388 207.958632 
L 238.353612 141.097368 
L 240.547224 110.567324 
L 242.740835 85.401241 
L 244.934447 67.263675 
L 247.128059 56.796257 
L 249.321671 53.568 
L 251.515283 56.205421 
L 253.708894 62.67559 
L 255.902506 70.668156 
L 258.096118 78.005473 
L 260.28973 83.006279 
L 262.483342 84.738486 
L 264.676953 83.118595 
L 266.870565 78.844797 
L 271.257789 67.648158 
L 273.4514 63.657665 
L 275.645012 62.208 
L 277.838624 63.657665 
L 280.032236 67.648158 
L 284.419459 78.844797 
L 286.613071 83.118595 
L 288.806683 84.738486 
L 291.000295 83.006279 
L 293.193907 78.005473 
L 295.387518 70.668156 
L 297.58113 62.67559 
L 299.774742 56.205421 
L 301.968354 53.568 
L 304.161966 56.796257 
L 306.355577 67.263675 
L 308.549189 85.401241 
L 310.742801 110.567324 
L 312.936413 141.097368 
L 317.323636 207.958632 
L 319.517248 238.488676 
L 321.71086 263.654759 
L 323.904472 281.792325 
L 326.098084 292.259743 
L 328.291695 295.488 
L 330.485307 292.850579 
L 332.678919 286.38041 
L 334.872531 278.387844 
L 337.066143 271.050527 
L 339.259754 266.049721 
L 341.453366 264.317514 
L 343.646978 265.937405 
L 345.84059 270.211203 
L 350.227813 281.407842 
L 352.421425 285.398335 
L 354.615037 286.848 
L 356.808649 285.398335 
L 359.00226 281.407842 
L 363.389484 270.211203 
L 365.583096 265.937405 
L 367.776708 264.317514 
L 369.970319 266.049721 
L 372.163931 271.050527 
L 374.357543 278.387844 
L 376.551155 286.38041 
L 378.744767 292.850579 
L 380.938378 295.488 
L 383.13199 292.259743 
L 385.325602 281.792325 
L 387.519214 263.654759 
L 389.712826 238.488676 
L 391.906437 207.958632 
L 396.293661 141.097368 
L 398.487273 110.567324 
L 398.487273 110.567324 
" style="fill:none;stroke:#ff7f0e;stroke-linecap:square;stroke-width:1.5;"/>
   </g>
   <g id="line2d_11">
    <path clip-path="url(#pad2d9096fa)" d="M 73.832727 270.286413 
L 76.026339 228.760328 
L 80.413563 120.295672 
L 82.607174 78.769587 
L 84.800786 57.335477 
L 86.994398 55.362922 
L 89.18801 65.364968 
L 91.381622 77.225143 
L 93.575233 83.1674 
L 95.768845 80.908603 
L 97.962457 73.577395 
L 100.156069 66.820445 
L 102.349681 64.999466 
L 104.543292 68.704644 
L 106.736904 74.857099 
L 108.930516 79.062031 
L 111.124128 78.572924 
L 113.31774 73.980416 
L 115.511351 68.641342 
L 117.704963 66.322286 
L 119.898575 68.641342 
L 122.092187 73.980416 
L 124.285799 78.572924 
L 126.47941 79.062031 
L 128.673022 74.857099 
L 130.866634 68.704644 
L 133.060246 64.999466 
L 135.253857 66.820445 
L 137.447469 73.577395 
L 139.641081 80.908603 
L 141.834693 83.1674 
L 144.028305 77.225143 
L 146.221916 65.364968 
L 148.415528 55.362922 
L 150.60914 57.335477 
L 152.802752 78.769587 
L 154.996364 120.295672 
L 159.383587 228.760328 
L 161.577199 270.286413 
L 163.770811 291.720523 
L 165.964423 293.693078 
L 168.158034 283.691032 
L 170.351646 271.830857 
L 172.545258 265.8886 
L 174.73887 268.147397 
L 176.932482 275.478605 
L 179.126093 282.235555 
L 181.319705 284.056534 
L 183.513317 280.351356 
L 185.706929 274.198901 
L 187.900541 269.993969 
L 190.094152 270.483076 
L 192.287764 275.075584 
L 194.481376 280.414658 
L 196.674988 282.733714 
L 198.8686 280.414658 
L 201.062211 275.075584 
L 203.255823 270.483076 
L 205.449435 269.993969 
L 207.643047 274.198901 
L 209.836658 280.351356 
L 212.03027 284.056534 
L 214.223882 282.235555 
L 216.417494 275.478605 
L 218.611106 268.147397 
L 220.804717 265.8886 
L 222.998329 271.830857 
L 225.191941 283.691032 
L 227.385553 293.693078 
L 229.579165 291.720523 
L 231.772776 270.286413 
L 233.966388 228.760328 
L 238.353612 120.295672 
L 240.547224 78.769587 
L 242.740835 57.335477 
L 244.934447 55.362922 
L 247.128059 65.364968 
L 249.321671 77.225143 
L 251.515283 83.1674 
L 253.708894 80.908603 
L 255.902506 73.577395 
L 258.096118 66.820445 
L 260.28973 64.999466 
L 262.483342 68.704644 
L 264.676953 74.857099 
L 266.870565 79.062031 
L 269.064177 78.572924 
L 271.257789 73.980416 
L 273.4514 68.641342 
L 275.645012 66.322286 
L 277.838624 68.641342 
L 280.032236 73.980416 
L 282.225848 78.572924 
L 284.419459 79.062031 
L 286.613071 74.857099 
L 288.806683 68.704644 
L 291.000295 64.999466 
L 293.193907 66.820445 
L 295.387518 73.577395 
L 297.58113 80.908603 
L 299.774742 83.1674 
L 301.968354 77.225143 
L 304.161966 65.364968 
L 306.355577 55.362922 
L 308.549189 57.335477 
L 310.742801 78.769587 
L 312.936413 120.295672 
L 317.323636 228.760328 
L 319.517248 270.286413 
L 321.71086 291.720523 
L 323.904472 293.693078 
L 326.098084 283.691032 
L 328.291695 271.830857 
L 330.485307 265.8886 
L 332.678919 268.147397 
L 334.872531 275.478605 
L 337.066143 282.235555 
L 339.259754 284.056534 
L 341.453366 280.351356 
L 343.646978 274.198901 
L 345.84059 269.993969 
L 348.034201 270.483076 
L 350.227813 275.075584 
L 352.421425 280.414658 
L 354.615037 282.733714 
L 356.808649 280.414658 
L 359.00226 275.075584 
L 361.195872 270.483076 
L 363.389484 269.993969 
L 365.583096 274.198901 
L 367.776708 280.351356 
L 369.970319 284.056534 
L 372.163931 282.235555 
L 374.357543 275.478605 
L 376.551155 268.147397 
L 378.744767 265.8886 
L 380.938378 271.830857 
L 383.13199 283.691032 
L 385.325602 293.693078 
L 387.519214 291.720523 
L 389.712826 270.286413 
L 391.906437 228.760328 
L 396.293661 120.295672 
L 398.487273 78.769587 
L 398.487273 78.769587 
" style="fill:none;stroke:#2ca02c;stroke-linecap:square;stroke-width:1.5;"/>
   </g>
   <g id="line2d_12">
    <path clip-path="url(#pad2d9096fa)" d="M 73.832727 288.994575 
L 76.026339 247.44662 
L 80.413563 101.60938 
L 82.607174 60.061425 
L 84.800786 56.866345 
L 86.994398 72.753904 
L 89.18801 82.820069 
L 91.381622 78.131437 
L 93.575233 68.256894 
L 95.768845 65.896099 
L 97.962457 72.295702 
L 100.156069 78.234349 
L 102.349681 76.546295 
L 104.543292 70.274391 
L 106.736904 67.717637 
L 108.930516 71.767774 
L 111.124128 76.822099 
L 113.31774 76.358895 
L 115.511351 71.185937 
L 117.704963 68.134873 
L 119.898575 71.185937 
L 122.092187 76.358895 
L 124.285799 76.822099 
L 126.47941 71.767774 
L 128.673022 67.717637 
L 130.866634 70.274391 
L 133.060246 76.546295 
L 135.253857 78.234349 
L 137.447469 72.295702 
L 139.641081 65.896099 
L 141.834693 68.256894 
L 144.028305 78.131437 
L 146.221916 82.820069 
L 148.415528 72.753904 
L 150.60914 56.866345 
L 152.802752 60.061425 
L 154.996364 101.60938 
L 159.383587 247.44662 
L 161.577199 288.994575 
L 163.770811 292.189655 
L 165.964423 276.302096 
L 168.158034 266.235931 
L 170.351646 270.924563 
L 172.545258 280.799106 
L 174.73887 283.159901 
L 176.932482 276.760298 
L 179.126093 270.821651 
L 181.319705 272.509705 
L 183.513317 278.781609 
L 185.706929 281.338363 
L 187.900541 277.288226 
L 190.094152 272.233901 
L 192.287764 272.697105 
L 194.481376 277.870063 
L 196.674988 280.921127 
L 198.8686 277.870063 
L 201.062211 272.697105 
L 203.255823 272.233901 
L 205.449435 277.288226 
L 207.643047 281.338363 
L 209.836658 278.781609 
L 212.03027 272.509705 
L 214.223882 270.821651 
L 216.417494 276.760298 
L 218.611106 283.159901 
L 220.804717 280.799106 
L 222.998329 270.924563 
L 225.191941 266.235931 
L 227.385553 276.302096 
L 229.579165 292.189655 
L 231.772776 288.994575 
L 233.966388 247.44662 
L 238.353612 101.60938 
L 240.547224 60.061425 
L 242.740835 56.866345 
L 244.934447 72.753904 
L 247.128059 82.820069 
L 249.321671 78.131437 
L 251.515283 68.256894 
L 253.708894 65.896099 
L 255.902506 72.295702 
L 258.096118 78.234349 
L 260.28973 76.546295 
L 262.483342 70.274391 
L 264.676953 67.717637 
L 266.870565 71.767774 
L 269.064177 76.822099 
L 271.257789 76.358895 
L 273.4514 71.185937 
L 275.645012 68.134873 
L 277.838624 71.185937 
L 280.032236 76.358895 
L 282.225848 76.822099 
L 284.419459 71.767774 
L 286.613071 67.717637 
L 288.806683 70.274391 
L 291.000295 76.546295 
L 293.193907 78.234349 
L 295.387518 72.295702 
L 297.58113 65.896099 
L 299.774742 68.256894 
L 301.968354 78.131437 
L 304.161966 82.820069 
L 306.355577 72.753904 
L 308.549189 56.866345 
L 310.742801 60.061425 
L 312.936413 101.60938 
L 317.323636 247.44662 
L 319.517248 288.994575 
L 321.71086 292.189655 
L 323.904472 276.302096 
L 326.098084 266.235931 
L 328.291695 270.924563 
L 330.485307 280.799106 
L 332.678919 283.159901 
L 334.872531 276.760298 
L 337.066143 270.821651 
L 339.259754 272.509705 
L 341.453366 278.781609 
L 343.646978 281.338363 
L 345.84059 277.288226 
L 348.034201 272.233901 
L 350.227813 272.697105 
L 352.421425 277.870063 
L 354.615037 280.921127 
L 356.808649 277.870063 
L 359.00226 272.697105 
L 361.195872 272.233901 
L 363.389484 277.288226 
L 365.583096 281.338363 
L 367.776708 278.781609 
L 369.970319 272.509705 
L 372.163931 270.821651 
L 374.357543 276.760298 
L 376.551155 283.159901 
L 378.744767 280.799106 
L 380.938378 270.924563 
L 383.13199 266.235931 
L 385.325602 276.302096 
L 387.519214 292.189655 
L 389.712826 288.994575 
L 391.906437 247.44662 
L 396.293661 101.60938 
L 398.487273 60.061425 
L 398.487273 60.061425 
" style="fill:none;stroke:#d62728;stroke-linecap:square;stroke-width:1.5;"/>
   </g>
   <g id="patch_3">
    <path d="M 57.6 307.584 
L 57.6 41.472 
" style="fill:none;stroke:#000000;stroke-linecap:square;stroke-linejoin:miter;stroke-width:0.8;"/>
   </g>
   <g id="patch_4">
    <path d="M 414.72 307.584 
L 414.72 41.472 
" style="fill:none;stroke:#000000;stroke-linecap:square;stroke-linejoin:miter;stroke-width:0.8;"/>
   </g>
   <g id="patch_5">
    <path d="M 57.6 307.584 
L 414.72 307.584 
" style="fill:none;stroke:#000000;stroke-linecap:square;stroke-linejoin:miter;stroke-width:0.8;"/>
   </g>
   <g id="patch_6">
    <path d="M 57.6 41.472 
L 414.72 41.472 
" style="fill:none;stroke:#000000;stroke-linecap:square;stroke-linejoin:miter;stroke-width:0.8;"/>
   </g>
   <g id="legend_1">
    <g id="patch_7">
     <path d="M 311.879375 205.38425 
L 407.72 205.38425 
Q 409.72 205.38425 409.72 203.38425 
L 409.72 145.67175 
Q 409.72 143.67175 407.72 143.67175 
L 311.879375 143.67175 
Q 309.879375 143.67175 309.879375 145.67175 
L 309.879375 203.38425 
Q 309.879375 205.38425 311.879375 205.38425 
z
" style="fill:#ffffff;opacity:0.8;stroke:#cccccc;stroke-linejoin:miter;"/>
    </g>
    <g id="line2d_13">
     <path d="M 313.879375 151.770188 
L 333.879375 151.770188 
" style="fill:none;stroke:#1f77b4;stroke-linecap:square;stroke-width:1.5;"/>
    </g>
    <g id="line2d_14"/>
    <g id="text_9">
     <!-- square wave -->
     <defs>
      <path d="M 44.28125 53.078125 
L 44.28125 44.578125 
Q 40.484375 46.53125 36.375 47.5 
Q 32.28125 48.484375 27.875 48.484375 
Q 21.1875 48.484375 17.84375 46.4375 
Q 14.5 44.390625 14.5 40.28125 
Q 14.5 37.15625 16.890625 35.375 
Q 19.28125 33.59375 26.515625 31.984375 
L 29.59375 31.296875 
Q 39.15625 29.25 43.1875 25.515625 
Q 47.21875 21.78125 47.21875 15.09375 
Q 47.21875 7.46875 41.1875 3.015625 
Q 35.15625 -1.421875 24.609375 -1.421875 
Q 20.21875 -1.421875 15.453125 -0.5625 
Q 10.6875 0.296875 5.421875 2 
L 5.421875 11.28125 
Q 10.40625 8.6875 15.234375 7.390625 
Q 20.0625 6.109375 24.8125 6.109375 
Q 31.15625 6.109375 34.5625 8.28125 
Q 37.984375 10.453125 37.984375 14.40625 
Q 37.984375 18.0625 35.515625 20.015625 
Q 33.0625 21.96875 24.703125 23.78125 
L 21.578125 24.515625 
Q 13.234375 26.265625 9.515625 29.90625 
Q 5.8125 33.546875 5.8125 39.890625 
Q 5.8125 47.609375 11.28125 51.796875 
Q 16.75 56 26.8125 56 
Q 31.78125 56 36.171875 55.265625 
Q 40.578125 54.546875 44.28125 53.078125 
z
" id="DejaVuSans-73"/>
      <path d="M 14.796875 27.296875 
Q 14.796875 17.390625 18.875 11.75 
Q 22.953125 6.109375 30.078125 6.109375 
Q 37.203125 6.109375 41.296875 11.75 
Q 45.40625 17.390625 45.40625 27.296875 
Q 45.40625 37.203125 41.296875 42.84375 
Q 37.203125 48.484375 30.078125 48.484375 
Q 22.953125 48.484375 18.875 42.84375 
Q 14.796875 37.203125 14.796875 27.296875 
z
M 45.40625 8.203125 
Q 42.578125 3.328125 38.25 0.953125 
Q 33.9375 -1.421875 27.875 -1.421875 
Q 17.96875 -1.421875 11.734375 6.484375 
Q 5.515625 14.40625 5.515625 27.296875 
Q 5.515625 40.1875 11.734375 48.09375 
Q 17.96875 56 27.875 56 
Q 33.9375 56 38.25 53.625 
Q 42.578125 51.265625 45.40625 46.390625 
L 45.40625 54.6875 
L 54.390625 54.6875 
L 54.390625 -20.796875 
L 45.40625 -20.796875 
z
" id="DejaVuSans-71"/>
      <path d="M 8.5 21.578125 
L 8.5 54.6875 
L 17.484375 54.6875 
L 17.484375 21.921875 
Q 17.484375 14.15625 20.5 10.265625 
Q 23.53125 6.390625 29.59375 6.390625 
Q 36.859375 6.390625 41.078125 11.03125 
Q 45.3125 15.671875 45.3125 23.6875 
L 45.3125 54.6875 
L 54.296875 54.6875 
L 54.296875 0 
L 45.3125 0 
L 45.3125 8.40625 
Q 42.046875 3.421875 37.71875 1 
Q 33.40625 -1.421875 27.6875 -1.421875 
Q 18.265625 -1.421875 13.375 4.4375 
Q 8.5 10.296875 8.5 21.578125 
z
M 31.109375 56 
z
" id="DejaVuSans-75"/>
      <path d="M 34.28125 27.484375 
Q 23.390625 27.484375 19.1875 25 
Q 14.984375 22.515625 14.984375 16.5 
Q 14.984375 11.71875 18.140625 8.90625 
Q 21.296875 6.109375 26.703125 6.109375 
Q 34.1875 6.109375 38.703125 11.40625 
Q 43.21875 16.703125 43.21875 25.484375 
L 43.21875 27.484375 
z
M 52.203125 31.203125 
L 52.203125 0 
L 43.21875 0 
L 43.21875 8.296875 
Q 40.140625 3.328125 35.546875 0.953125 
Q 30.953125 -1.421875 24.3125 -1.421875 
Q 15.921875 -1.421875 10.953125 3.296875 
Q 6 8.015625 6 15.921875 
Q 6 25.140625 12.171875 29.828125 
Q 18.359375 34.515625 30.609375 34.515625 
L 43.21875 34.515625 
L 43.21875 35.40625 
Q 43.21875 41.609375 39.140625 45 
Q 35.0625 48.390625 27.6875 48.390625 
Q 23 48.390625 18.546875 47.265625 
Q 14.109375 46.140625 10.015625 43.890625 
L 10.015625 52.203125 
Q 14.9375 54.109375 19.578125 55.046875 
Q 24.21875 56 28.609375 56 
Q 40.484375 56 46.34375 49.84375 
Q 52.203125 43.703125 52.203125 31.203125 
z
" id="DejaVuSans-61"/>
      <path d="M 41.109375 46.296875 
Q 39.59375 47.171875 37.8125 47.578125 
Q 36.03125 48 33.890625 48 
Q 26.265625 48 22.1875 43.046875 
Q 18.109375 38.09375 18.109375 28.8125 
L 18.109375 0 
L 9.078125 0 
L 9.078125 54.6875 
L 18.109375 54.6875 
L 18.109375 46.1875 
Q 20.953125 51.171875 25.484375 53.578125 
Q 30.03125 56 36.53125 56 
Q 37.453125 56 38.578125 55.875 
Q 39.703125 55.765625 41.0625 55.515625 
z
" id="DejaVuSans-72"/>
      <path d="M 56.203125 29.59375 
L 56.203125 25.203125 
L 14.890625 25.203125 
Q 15.484375 15.921875 20.484375 11.0625 
Q 25.484375 6.203125 34.421875 6.203125 
Q 39.59375 6.203125 44.453125 7.46875 
Q 49.3125 8.734375 54.109375 11.28125 
L 54.109375 2.78125 
Q 49.265625 0.734375 44.1875 -0.34375 
Q 39.109375 -1.421875 33.890625 -1.421875 
Q 20.796875 -1.421875 13.15625 6.1875 
Q 5.515625 13.8125 5.515625 26.8125 
Q 5.515625 40.234375 12.765625 48.109375 
Q 20.015625 56 32.328125 56 
Q 43.359375 56 49.78125 48.890625 
Q 56.203125 41.796875 56.203125 29.59375 
z
M 47.21875 32.234375 
Q 47.125 39.59375 43.09375 43.984375 
Q 39.0625 48.390625 32.421875 48.390625 
Q 24.90625 48.390625 20.390625 44.140625 
Q 15.875 39.890625 15.1875 32.171875 
z
" id="DejaVuSans-65"/>
      <path id="DejaVuSans-20"/>
      <path d="M 4.203125 54.6875 
L 13.1875 54.6875 
L 24.421875 12.015625 
L 35.59375 54.6875 
L 46.1875 54.6875 
L 57.421875 12.015625 
L 68.609375 54.6875 
L 77.59375 54.6875 
L 63.28125 0 
L 52.6875 0 
L 40.921875 44.828125 
L 29.109375 0 
L 18.5 0 
z
" id="DejaVuSans-77"/>
      <path d="M 2.984375 54.6875 
L 12.5 54.6875 
L 29.59375 8.796875 
L 46.6875 54.6875 
L 56.203125 54.6875 
L 35.6875 0 
L 23.484375 0 
z
" id="DejaVuSans-76"/>
     </defs>
     <g transform="translate(341.879375 155.270188)scale(0.1 -0.1)">
      <use xlink:href="#DejaVuSans-73"/>
      <use x="52.099609" xlink:href="#DejaVuSans-71"/>
      <use x="115.576172" xlink:href="#DejaVuSans-75"/>
      <use x="178.955078" xlink:href="#DejaVuSans-61"/>
      <use x="240.234375" xlink:href="#DejaVuSans-72"/>
      <use x="281.316406" xlink:href="#DejaVuSans-65"/>
      <use x="342.839844" xlink:href="#DejaVuSans-20"/>
      <use x="374.626953" xlink:href="#DejaVuSans-77"/>
      <use x="456.414062" xlink:href="#DejaVuSans-61"/>
      <use x="517.693359" xlink:href="#DejaVuSans-76"/>
      <use x="576.873047" xlink:href="#DejaVuSans-65"/>
     </g>
    </g>
    <g id="line2d_15">
     <path d="M 313.879375 166.448313 
L 333.879375 166.448313 
" style="fill:none;stroke:#ff7f0e;stroke-linecap:square;stroke-width:1.5;"/>
    </g>
    <g id="line2d_16"/>
    <g id="text_10">
     <!-- up to 5 -->
     <defs>
      <path d="M 18.109375 8.203125 
L 18.109375 -20.796875 
L 9.078125 -20.796875 
L 9.078125 54.6875 
L 18.109375 54.6875 
L 18.109375 46.390625 
Q 20.953125 51.265625 25.265625 53.625 
Q 29.59375 56 35.59375 56 
Q 45.5625 56 51.78125 48.09375 
Q 58.015625 40.1875 58.015625 27.296875 
Q 58.015625 14.40625 51.78125 6.484375 
Q 45.5625 -1.421875 35.59375 -1.421875 
Q 29.59375 -1.421875 25.265625 0.953125 
Q 20.953125 3.328125 18.109375 8.203125 
z
M 48.6875 27.296875 
Q 48.6875 37.203125 44.609375 42.84375 
Q 40.53125 48.484375 33.40625 48.484375 
Q 26.265625 48.484375 22.1875 42.84375 
Q 18.109375 37.203125 18.109375 27.296875 
Q 18.109375 17.390625 22.1875 11.75 
Q 26.265625 6.109375 33.40625 6.109375 
Q 40.53125 6.109375 44.609375 11.75 
Q 48.6875 17.390625 48.6875 27.296875 
z
" id="DejaVuSans-70"/>
      <path d="M 18.3125 70.21875 
L 18.3125 54.6875 
L 36.8125 54.6875 
L 36.8125 47.703125 
L 18.3125 47.703125 
L 18.3125 18.015625 
Q 18.3125 11.328125 20.140625 9.421875 
Q 21.96875 7.515625 27.59375 7.515625 
L 36.8125 7.515625 
L 36.8125 0 
L 27.59375 0 
Q 17.1875 0 13.234375 3.875 
Q 9.28125 7.765625 9.28125 18.015625 
L 9.28125 47.703125 
L 2.6875 47.703125 
L 2.6875 54.6875 
L 9.28125 54.6875 
L 9.28125 70.21875 
z
" id="DejaVuSans-74"/>
      <path d="M 30.609375 48.390625 
Q 23.390625 48.390625 19.1875 42.75 
Q 14.984375 37.109375 14.984375 27.296875 
Q 14.984375 17.484375 19.15625 11.84375 
Q 23.34375 6.203125 30.609375 6.203125 
Q 37.796875 6.203125 41.984375 11.859375 
Q 46.1875 17.53125 46.1875 27.296875 
Q 46.1875 37.015625 41.984375 42.703125 
Q 37.796875 48.390625 30.609375 48.390625 
z
M 30.609375 56 
Q 42.328125 56 49.015625 48.375 
Q 55.71875 40.765625 55.71875 27.296875 
Q 55.71875 13.875 49.015625 6.21875 
Q 42.328125 -1.421875 30.609375 -1.421875 
Q 18.84375 -1.421875 12.171875 6.21875 
Q 5.515625 13.875 5.515625 27.296875 
Q 5.515625 40.765625 12.171875 48.375 
Q 18.84375 56 30.609375 56 
z
" id="DejaVuSans-6f"/>
      <path d="M 10.796875 72.90625 
L 49.515625 72.90625 
L 49.515625 64.59375 
L 19.828125 64.59375 
L 19.828125 46.734375 
Q 21.96875 47.46875 24.109375 47.828125 
Q 26.265625 48.1875 28.421875 48.1875 
Q 40.625 48.1875 47.75 41.5 
Q 54.890625 34.8125 54.890625 23.390625 
Q 54.890625 11.625 47.5625 5.09375 
Q 40.234375 -1.421875 26.90625 -1.421875 
Q 22.3125 -1.421875 17.546875 -0.640625 
Q 12.796875 0.140625 7.71875 1.703125 
L 7.71875 11.625 
Q 12.109375 9.234375 16.796875 8.0625 
Q 21.484375 6.890625 26.703125 6.890625 
Q 35.15625 6.890625 40.078125 11.328125 
Q 45.015625 15.765625 45.015625 23.390625 
Q 45.015625 31 40.078125 35.4375 
Q 35.15625 39.890625 26.703125 39.890625 
Q 22.75 39.890625 18.8125 39.015625 
Q 14.890625 38.140625 10.796875 36.28125 
z
" id="DejaVuSans-35"/>
     </defs>
     <g transform="translate(341.879375 169.948313)scale(0.1 -0.1)">
      <use xlink:href="#DejaVuSans-75"/>
      <use x="63.378906" xlink:href="#DejaVuSans-70"/>
      <use x="126.855469" xlink:href="#DejaVuSans-20"/>
      <use x="158.642578" xlink:href="#DejaVuSans-74"/>
      <use x="197.851562" xlink:href="#DejaVuSans-6f"/>
      <use x="259.033203" xlink:href="#DejaVuSans-20"/>
      <use x="290.820312" xlink:href="#DejaVuSans-35"/>
     </g>
    </g>
    <g id="line2d_17">
     <path d="M 313.879375 181.126438 
L 333.879375 181.126438 
" style="fill:none;stroke:#2ca02c;stroke-linecap:square;stroke-width:1.5;"/>
    </g>
    <g id="line2d_18"/>
    <g id="text_11">
     <!-- up to 9 -->
     <defs>
      <path d="M 10.984375 1.515625 
L 10.984375 10.5 
Q 14.703125 8.734375 18.5 7.8125 
Q 22.3125 6.890625 25.984375 6.890625 
Q 35.75 6.890625 40.890625 13.453125 
Q 46.046875 20.015625 46.78125 33.40625 
Q 43.953125 29.203125 39.59375 26.953125 
Q 35.25 24.703125 29.984375 24.703125 
Q 19.046875 24.703125 12.671875 31.3125 
Q 6.296875 37.9375 6.296875 49.421875 
Q 6.296875 60.640625 12.9375 67.421875 
Q 19.578125 74.21875 30.609375 74.21875 
Q 43.265625 74.21875 49.921875 64.515625 
Q 56.59375 54.828125 56.59375 36.375 
Q 56.59375 19.140625 48.40625 8.859375 
Q 40.234375 -1.421875 26.421875 -1.421875 
Q 22.703125 -1.421875 18.890625 -0.6875 
Q 15.09375 0.046875 10.984375 1.515625 
z
M 30.609375 32.421875 
Q 37.25 32.421875 41.125 36.953125 
Q 45.015625 41.5 45.015625 49.421875 
Q 45.015625 57.28125 41.125 61.84375 
Q 37.25 66.40625 30.609375 66.40625 
Q 23.96875 66.40625 20.09375 61.84375 
Q 16.21875 57.28125 16.21875 49.421875 
Q 16.21875 41.5 20.09375 36.953125 
Q 23.96875 32.421875 30.609375 32.421875 
z
" id="DejaVuSans-39"/>
     </defs>
     <g transform="translate(341.879375 184.626438)scale(0.1 -0.1)">
      <use xlink:href="#DejaVuSans-75"/>
      <use x="63.378906" xlink:href="#DejaVuSans-70"/>
      <use x="126.855469" xlink:href="#DejaVuSans-20"/>
      <use x="158.642578" xlink:href="#DejaVuSans-74"/>
      <use x="197.851562" xlink:href="#DejaVuSans-6f"/>
      <use x="259.033203" xlink:href="#DejaVuSans-20"/>
      <use x="290.820312" xlink:href="#DejaVuSans-39"/>
     </g>
    </g>
    <g id="line2d_19">
     <path d="M 313.879375 195.804563 
L 333.879375 195.804563 
" style="fill:none;stroke:#d62728;stroke-linecap:square;stroke-width:1.5;"/>
    </g>
    <g id="line2d_20"/>
    <g id="text_12">
     <!-- up to 13 -->
     <defs>
      <path d="M 40.578125 39.3125 
Q 47.65625 37.796875 51.625 33 
Q 55.609375 28.21875 55.609375 21.1875 
Q 55.609375 10.40625 48.1875 4.484375 
Q 40.765625 -1.421875 27.09375 -1.421875 
Q 22.515625 -1.421875 17.65625 -0.515625 
Q 12.796875 0.390625 7.625 2.203125 
L 7.625 11.71875 
Q 11.71875 9.328125 16.59375 8.109375 
Q 21.484375 6.890625 26.8125 6.890625 
Q 36.078125 6.890625 40.9375 10.546875 
Q 45.796875 14.203125 45.796875 21.1875 
Q 45.796875 27.640625 41.28125 31.265625 
Q 36.765625 34.90625 28.71875 34.90625 
L 20.21875 34.90625 
L 20.21875 43.015625 
L 29.109375 43.015625 
Q 36.375 43.015625 40.234375 45.921875 
Q 44.09375 48.828125 44.09375 54.296875 
Q 44.09375 59.90625 40.109375 62.90625 
Q 36.140625 65.921875 28.71875 65.921875 
Q 24.65625 65.921875 20.015625 65.03125 
Q 15.375 64.15625 9.8125 62.3125 
L 9.8125 71.09375 
Q 15.4375 72.65625 20.34375 73.4375 
Q 25.25 74.21875 29.59375 74.21875 
Q 40.828125 74.21875 47.359375 69.109375 
Q 53.90625 64.015625 53.90625 55.328125 
Q 53.90625 49.265625 50.4375 45.09375 
Q 46.96875 40.921875 40.578125 39.3125 
z
" id="DejaVuSans-33"/>
     </defs>
     <g transform="translate(341.879375 199.304563)scale(0.1 -0.1)">
      <use xlink:href="#DejaVuSans-75"/>
      <use x="63.378906" xlink:href="#DejaVuSans-70"/>
      <use x="126.855469" xlink:href="#DejaVuSans-20"/>
      <use x="158.642578" xlink:href="#DejaVuSans-74"/>
      <use x="197.851562" xlink:href="#DejaVuSans-6f"/>
      <use x="259.033203" xlink:href="#DejaVuSans-20"/>
      <use x="290.820312" xlink:href="#DejaVuSans-31"/>
      <use x="354.443359" xlink:href="#DejaVuSans-33"/>
     </g>
    </g>
   </g>
  </g>
 </g>
 <defs>
  <clipPath id="pad2d9096fa">
   <rect height="266.112" width="357.12" x="57.6" y="41.472"/>
  </clipPath>
 </defs>
</svg>
