<?xml version="1.0" encoding="utf-8" standalone="no"?>
<!DOCTYPE svg PUBLIC "-//W3C//DTD SVG 1.1//EN"
  "http://www.w3.org/Graphics/SVG/1.1/DTD/svg11.dtd">
<!-- Created with matplotlib (http://matplotlib.org/) -->
<svg height="345.6pt" version="1.1" viewBox="0 0 460.8 345.6" width="460.8pt" xmlns="http://www.w3.org/2000/svg" xmlns:xlink="http://www.w3.org/1999/xlink">
 <defs>
  <style type="text/css">
*{stroke-linecap:butt;stroke-linejoin:round;}
  </style>
 </defs>
 <g id="figure_1">
  <g id="patch_1">
   <path d="M 0 345.6 
L 460.8 345.6 
L 460.8 0 
L 0 0 
z
" style="fill:#ffffff;"/>
  </g>
  <g id="axes_1">
   <g id="line2d_1">
    <path clip-path="url(#pad8dbf5c78)" d="M 286.887273 146.628 
L 286.116611 137.819302 
L 283.828044 129.278251 
L 280.091107 121.264364 
L 275.019345 114.021138 
L 268.766862 107.768655 
L 261.523636 102.696893 
L 253.509749 98.959956 
L 244.968698 96.671389 
L 236.16 95.900727 
L 227.351302 96.671389 
L 218.810251 98.959956 
L 210.796364 102.696893 
L 203.553138 107.768655 
L 197.300655 114.021138 
L 192.228893 121.264364 
L 188.491956 129.278251 
L 186.203389 137.819302 
L 185.432727 146.628 
L 186.203389 155.436698 
L 188.491956 163.977749 
L 192.228893 171.991636 
L 197.300655 179.234862 
L 203.553138 185.487345 
L 210.796364 190.559107 
L 218.810251 194.296044 
L 227.351302 196.584611 
L 236.16 197.355273 
L 244.968698 196.584611 
L 253.509749 194.296044 
L 261.523636 190.559107 
L 268.766862 185.487345 
L 275.019345 179.234862 
L 280.091107 171.991636 
L 283.828044 163.977749 
L 286.116611 155.436698 
L 286.887273 146.628 
" style="fill:none;stroke:#000000;stroke-linecap:square;stroke-width:1.5;"/>
   </g>
   <g id="line2d_2">
    <path clip-path="url(#pad8dbf5c78)" d="M 231.087273 202.428 
L 230.316611 193.619302 
L 228.028044 185.078251 
L 224.291107 177.064364 
L 219.219345 169.821138 
L 212.966862 163.568655 
L 205.723636 158.496893 
L 197.709749 154.759956 
L 189.168698 152.471389 
L 180.36 151.700727 
L 171.551302 152.471389 
L 163.010251 154.759956 
L 154.996364 158.496893 
L 147.753138 163.568655 
L 141.500655 169.821138 
L 136.428893 177.064364 
L 132.691956 185.078251 
L 130.403389 193.619302 
L 129.632727 202.428 
L 130.403389 211.236698 
L 132.691956 219.777749 
L 136.428893 227.791636 
L 141.500655 235.034862 
L 147.753138 241.287345 
L 154.996364 246.359107 
L 163.010251 250.096044 
L 171.551302 252.384611 
L 180.36 253.155273 
L 189.168698 252.384611 
L 197.709749 250.096044 
L 205.723636 246.359107 
L 212.966862 241.287345 
L 219.219345 235.034862 
L 224.291107 227.791636 
L 228.028044 219.777749 
L 230.316611 211.236698 
L 231.087273 202.428 
" style="fill:none;stroke:#bfbf00;stroke-linecap:square;stroke-width:1.5;"/>
   </g>
   <g id="line2d_3">
    <path clip-path="url(#pad8dbf5c78)" d="M 175.287273 146.628 
L 174.516611 137.819302 
L 172.228044 129.278251 
L 168.491107 121.264364 
L 163.419345 114.021138 
L 157.166862 107.768655 
L 149.923636 102.696893 
L 141.909749 98.959956 
L 133.368698 96.671389 
L 124.56 95.900727 
L 115.751302 96.671389 
L 107.210251 98.959956 
L 99.196364 102.696893 
L 91.953138 107.768655 
L 85.700655 114.021138 
L 80.628893 121.264364 
L 76.891956 129.278251 
L 74.603389 137.819302 
L 73.832727 146.628 
L 74.603389 155.436698 
L 76.891956 163.977749 
L 80.628893 171.991636 
L 85.700655 179.234862 
L 91.953138 185.487345 
L 99.196364 190.559107 
L 107.210251 194.296044 
L 115.751302 196.584611 
L 124.56 197.355273 
L 133.368698 196.584611 
L 141.909749 194.296044 
L 149.923636 190.559107 
L 157.166862 185.487345 
L 163.419345 179.234862 
L 168.491107 171.991636 
L 172.228044 163.977749 
L 174.516611 155.436698 
L 175.287273 146.628 
" style="fill:none;stroke:#0000ff;stroke-linecap:square;stroke-width:1.5;"/>
   </g>
   <g id="line2d_4">
    <path clip-path="url(#pad8dbf5c78)" d="M 342.687273 202.428 
L 341.916611 193.619302 
L 339.628044 185.078251 
L 335.891107 177.064364 
L 330.819345 169.821138 
L 324.566862 163.568655 
L 317.323636 158.496893 
L 309.309749 154.759956 
L 300.768698 152.471389 
L 291.96 151.700727 
L 283.151302 152.471389 
L 274.610251 154.759956 
L 266.596364 158.496893 
L 259.353138 163.568655 
L 253.100655 169.821138 
L 248.028893 177.064364 
L 244.291956 185.078251 
L 242.003389 193.619302 
L 241.232727 202.428 
L 242.003389 211.236698 
L 244.291956 219.777749 
L 248.028893 227.791636 
L 253.100655 235.034862 
L 259.353138 241.287345 
L 266.596364 246.359107 
L 274.610251 250.096044 
L 283.151302 252.384611 
L 291.96 253.155273 
L 300.768698 252.384611 
L 309.309749 250.096044 
L 317.323636 246.359107 
L 324.566862 241.287345 
L 330.819345 235.034862 
L 335.891107 227.791636 
L 339.628044 219.777749 
L 341.916611 211.236698 
L 342.687273 202.428 
" style="fill:none;stroke:#008000;stroke-linecap:square;stroke-width:1.5;"/>
   </g>
   <g id="line2d_5">
    <path clip-path="url(#pad8dbf5c78)" d="M 398.487273 146.628 
L 397.716611 137.819302 
L 395.428044 129.278251 
L 391.691107 121.264364 
L 386.619345 114.021138 
L 380.366862 107.768655 
L 373.123636 102.696893 
L 365.109749 98.959956 
L 356.568698 96.671389 
L 347.76 95.900727 
L 338.951302 96.671389 
L 330.410251 98.959956 
L 322.396364 102.696893 
L 315.153138 107.768655 
L 308.900655 114.021138 
L 303.828893 121.264364 
L 300.091956 129.278251 
L 297.803389 137.819302 
L 297.032727 146.628 
L 297.803389 155.436698 
L 300.091956 163.977749 
L 303.828893 171.991636 
L 308.900655 179.234862 
L 315.153138 185.487345 
L 322.396364 190.559107 
L 330.410251 194.296044 
L 338.951302 196.584611 
L 347.76 197.355273 
L 356.568698 196.584611 
L 365.109749 194.296044 
L 373.123636 190.559107 
L 380.366862 185.487345 
L 386.619345 179.234862 
L 391.691107 171.991636 
L 395.428044 163.977749 
L 397.716611 155.436698 
L 398.487273 146.628 
" style="fill:none;stroke:#ff0000;stroke-linecap:square;stroke-width:1.5;"/>
   </g>
  </g>
 </g>
 <defs>
  <clipPath id="pad8dbf5c78">
   <rect height="172.98" width="357.12" x="57.6" y="88.038"/>
  </clipPath>
 </defs>
</svg>
