<?xml version="1.0" encoding="utf-8" standalone="no"?>
<!DOCTYPE svg PUBLIC "-//W3C//DTD SVG 1.1//EN"
  "http://www.w3.org/Graphics/SVG/1.1/DTD/svg11.dtd">
<!-- Created with matplotlib (http://matplotlib.org/) -->
<svg height="345.6pt" version="1.1" viewBox="0 0 460.8 345.6" width="460.8pt" xmlns="http://www.w3.org/2000/svg" xmlns:xlink="http://www.w3.org/1999/xlink">
 <defs>
  <style type="text/css">
*{stroke-linecap:butt;stroke-linejoin:round;}
  </style>
 </defs>
 <g id="figure_1">
  <g id="patch_1">
   <path d="M 0 345.6 
L 460.8 345.6 
L 460.8 0 
L 0 0 
z
" style="fill:#ffffff;"/>
  </g>
  <g id="axes_1">
   <g id="patch_2">
    <path d="M 57.6 261.018 
L 414.72 261.018 
L 414.72 88.038 
L 57.6 88.038 
z
" style="fill:#ffffff;"/>
   </g>
   <g id="matplotlib.axis_1">
    <g id="xtick_1">
     <g id="line2d_1">
      <defs>
       <path d="M 0 0 
L 0 3.5 
" id="m59f24c2147" style="stroke:#000000;stroke-width:0.8;"/>
      </defs>
      <g>
       <use style="stroke:#000000;stroke-width:0.8;" x="83.978182" xlink:href="#m59f24c2147" y="261.018"/>
      </g>
     </g>
     <g id="text_1">
      <!-- −3 -->
      <defs>
       <path d="M 10.59375 35.5 
L 73.1875 35.5 
L 73.1875 27.203125 
L 10.59375 27.203125 
z
" id="DejaVuSans-2212"/>
       <path d="M 40.578125 39.3125 
Q 47.65625 37.796875 51.625 33 
Q 55.609375 28.21875 55.609375 21.1875 
Q 55.609375 10.40625 48.1875 4.484375 
Q 40.765625 -1.421875 27.09375 -1.421875 
Q 22.515625 -1.421875 17.65625 -0.515625 
Q 12.796875 0.390625 7.625 2.203125 
L 7.625 11.71875 
Q 11.71875 9.328125 16.59375 8.109375 
Q 21.484375 6.890625 26.8125 6.890625 
Q 36.078125 6.890625 40.9375 10.546875 
Q 45.796875 14.203125 45.796875 21.1875 
Q 45.796875 27.640625 41.28125 31.265625 
Q 36.765625 34.90625 28.71875 34.90625 
L 20.21875 34.90625 
L 20.21875 43.015625 
L 29.109375 43.015625 
Q 36.375 43.015625 40.234375 45.921875 
Q 44.09375 48.828125 44.09375 54.296875 
Q 44.09375 59.90625 40.109375 62.90625 
Q 36.140625 65.921875 28.71875 65.921875 
Q 24.65625 65.921875 20.015625 65.03125 
Q 15.375 64.15625 9.8125 62.3125 
L 9.8125 71.09375 
Q 15.4375 72.65625 20.34375 73.4375 
Q 25.25 74.21875 29.59375 74.21875 
Q 40.828125 74.21875 47.359375 69.109375 
Q 53.90625 64.015625 53.90625 55.328125 
Q 53.90625 49.265625 50.4375 45.09375 
Q 46.96875 40.921875 40.578125 39.3125 
z
" id="DejaVuSans-33"/>
      </defs>
      <g transform="translate(76.607088 275.616437)scale(0.1 -0.1)">
       <use xlink:href="#DejaVuSans-2212"/>
       <use x="83.789062" xlink:href="#DejaVuSans-33"/>
      </g>
     </g>
    </g>
    <g id="xtick_2">
     <g id="line2d_2">
      <g>
       <use style="stroke:#000000;stroke-width:0.8;" x="134.705455" xlink:href="#m59f24c2147" y="261.018"/>
      </g>
     </g>
     <g id="text_2">
      <!-- −2 -->
      <defs>
       <path d="M 19.1875 8.296875 
L 53.609375 8.296875 
L 53.609375 0 
L 7.328125 0 
L 7.328125 8.296875 
Q 12.9375 14.109375 22.625 23.890625 
Q 32.328125 33.6875 34.8125 36.53125 
Q 39.546875 41.84375 41.421875 45.53125 
Q 43.3125 49.21875 43.3125 52.78125 
Q 43.3125 58.59375 39.234375 62.25 
Q 35.15625 65.921875 28.609375 65.921875 
Q 23.96875 65.921875 18.8125 64.3125 
Q 13.671875 62.703125 7.8125 59.421875 
L 7.8125 69.390625 
Q 13.765625 71.78125 18.9375 73 
Q 24.125 74.21875 28.421875 74.21875 
Q 39.75 74.21875 46.484375 68.546875 
Q 53.21875 62.890625 53.21875 53.421875 
Q 53.21875 48.921875 51.53125 44.890625 
Q 49.859375 40.875 45.40625 35.40625 
Q 44.1875 33.984375 37.640625 27.21875 
Q 31.109375 20.453125 19.1875 8.296875 
z
" id="DejaVuSans-32"/>
      </defs>
      <g transform="translate(127.334361 275.616437)scale(0.1 -0.1)">
       <use xlink:href="#DejaVuSans-2212"/>
       <use x="83.789062" xlink:href="#DejaVuSans-32"/>
      </g>
     </g>
    </g>
    <g id="xtick_3">
     <g id="line2d_3">
      <g>
       <use style="stroke:#000000;stroke-width:0.8;" x="185.432727" xlink:href="#m59f24c2147" y="261.018"/>
      </g>
     </g>
     <g id="text_3">
      <!-- −1 -->
      <defs>
       <path d="M 12.40625 8.296875 
L 28.515625 8.296875 
L 28.515625 63.921875 
L 10.984375 60.40625 
L 10.984375 69.390625 
L 28.421875 72.90625 
L 38.28125 72.90625 
L 38.28125 8.296875 
L 54.390625 8.296875 
L 54.390625 0 
L 12.40625 0 
z
" id="DejaVuSans-31"/>
      </defs>
      <g transform="translate(178.061634 275.616437)scale(0.1 -0.1)">
       <use xlink:href="#DejaVuSans-2212"/>
       <use x="83.789062" xlink:href="#DejaVuSans-31"/>
      </g>
     </g>
    </g>
    <g id="xtick_4">
     <g id="line2d_4">
      <g>
       <use style="stroke:#000000;stroke-width:0.8;" x="236.16" xlink:href="#m59f24c2147" y="261.018"/>
      </g>
     </g>
     <g id="text_4">
      <!-- 0 -->
      <defs>
       <path d="M 31.78125 66.40625 
Q 24.171875 66.40625 20.328125 58.90625 
Q 16.5 51.421875 16.5 36.375 
Q 16.5 21.390625 20.328125 13.890625 
Q 24.171875 6.390625 31.78125 6.390625 
Q 39.453125 6.390625 43.28125 13.890625 
Q 47.125 21.390625 47.125 36.375 
Q 47.125 51.421875 43.28125 58.90625 
Q 39.453125 66.40625 31.78125 66.40625 
z
M 31.78125 74.21875 
Q 44.046875 74.21875 50.515625 64.515625 
Q 56.984375 54.828125 56.984375 36.375 
Q 56.984375 17.96875 50.515625 8.265625 
Q 44.046875 -1.421875 31.78125 -1.421875 
Q 19.53125 -1.421875 13.0625 8.265625 
Q 6.59375 17.96875 6.59375 36.375 
Q 6.59375 54.828125 13.0625 64.515625 
Q 19.53125 74.21875 31.78125 74.21875 
z
" id="DejaVuSans-30"/>
      </defs>
      <g transform="translate(232.97875 275.616437)scale(0.1 -0.1)">
       <use xlink:href="#DejaVuSans-30"/>
      </g>
     </g>
    </g>
    <g id="xtick_5">
     <g id="line2d_5">
      <g>
       <use style="stroke:#000000;stroke-width:0.8;" x="286.887273" xlink:href="#m59f24c2147" y="261.018"/>
      </g>
     </g>
     <g id="text_5">
      <!-- 1 -->
      <g transform="translate(283.706023 275.616437)scale(0.1 -0.1)">
       <use xlink:href="#DejaVuSans-31"/>
      </g>
     </g>
    </g>
    <g id="xtick_6">
     <g id="line2d_6">
      <g>
       <use style="stroke:#000000;stroke-width:0.8;" x="337.614545" xlink:href="#m59f24c2147" y="261.018"/>
      </g>
     </g>
     <g id="text_6">
      <!-- 2 -->
      <g transform="translate(334.433295 275.616437)scale(0.1 -0.1)">
       <use xlink:href="#DejaVuSans-32"/>
      </g>
     </g>
    </g>
    <g id="xtick_7">
     <g id="line2d_7">
      <g>
       <use style="stroke:#000000;stroke-width:0.8;" x="388.341818" xlink:href="#m59f24c2147" y="261.018"/>
      </g>
     </g>
     <g id="text_7">
      <!-- 3 -->
      <g transform="translate(385.160568 275.616437)scale(0.1 -0.1)">
       <use xlink:href="#DejaVuSans-33"/>
      </g>
     </g>
    </g>
   </g>
   <g id="matplotlib.axis_2">
    <g id="ytick_1">
     <g id="line2d_8">
      <defs>
       <path d="M 0 0 
L -3.5 0 
" id="m7f9ba2c21a" style="stroke:#000000;stroke-width:0.8;"/>
      </defs>
      <g>
       <use style="stroke:#000000;stroke-width:0.8;" x="57.6" xlink:href="#m7f9ba2c21a" y="253.155273"/>
      </g>
     </g>
     <g id="text_8">
      <!-- −1.0 -->
      <defs>
       <path d="M 10.6875 12.40625 
L 21 12.40625 
L 21 0 
L 10.6875 0 
z
" id="DejaVuSans-2e"/>
      </defs>
      <g transform="translate(26.317187 256.954491)scale(0.1 -0.1)">
       <use xlink:href="#DejaVuSans-2212"/>
       <use x="83.789062" xlink:href="#DejaVuSans-31"/>
       <use x="147.412109" xlink:href="#DejaVuSans-2e"/>
       <use x="179.199219" xlink:href="#DejaVuSans-30"/>
      </g>
     </g>
    </g>
    <g id="ytick_2">
     <g id="line2d_9">
      <g>
       <use style="stroke:#000000;stroke-width:0.8;" x="57.6" xlink:href="#m7f9ba2c21a" y="227.791636"/>
      </g>
     </g>
     <g id="text_9">
      <!-- −0.5 -->
      <defs>
       <path d="M 10.796875 72.90625 
L 49.515625 72.90625 
L 49.515625 64.59375 
L 19.828125 64.59375 
L 19.828125 46.734375 
Q 21.96875 47.46875 24.109375 47.828125 
Q 26.265625 48.1875 28.421875 48.1875 
Q 40.625 48.1875 47.75 41.5 
Q 54.890625 34.8125 54.890625 23.390625 
Q 54.890625 11.625 47.5625 5.09375 
Q 40.234375 -1.421875 26.90625 -1.421875 
Q 22.3125 -1.421875 17.546875 -0.640625 
Q 12.796875 0.140625 7.71875 1.703125 
L 7.71875 11.625 
Q 12.109375 9.234375 16.796875 8.0625 
Q 21.484375 6.890625 26.703125 6.890625 
Q 35.15625 6.890625 40.078125 11.328125 
Q 45.015625 15.765625 45.015625 23.390625 
Q 45.015625 31 40.078125 35.4375 
Q 35.15625 39.890625 26.703125 39.890625 
Q 22.75 39.890625 18.8125 39.015625 
Q 14.890625 38.140625 10.796875 36.28125 
z
" id="DejaVuSans-35"/>
      </defs>
      <g transform="translate(26.317187 231.590855)scale(0.1 -0.1)">
       <use xlink:href="#DejaVuSans-2212"/>
       <use x="83.789062" xlink:href="#DejaVuSans-30"/>
       <use x="147.412109" xlink:href="#DejaVuSans-2e"/>
       <use x="179.199219" xlink:href="#DejaVuSans-35"/>
      </g>
     </g>
    </g>
    <g id="ytick_3">
     <g id="line2d_10">
      <g>
       <use style="stroke:#000000;stroke-width:0.8;" x="57.6" xlink:href="#m7f9ba2c21a" y="202.428"/>
      </g>
     </g>
     <g id="text_10">
      <!-- 0.0 -->
      <g transform="translate(34.696875 206.227219)scale(0.1 -0.1)">
       <use xlink:href="#DejaVuSans-30"/>
       <use x="63.623047" xlink:href="#DejaVuSans-2e"/>
       <use x="95.410156" xlink:href="#DejaVuSans-30"/>
      </g>
     </g>
    </g>
    <g id="ytick_4">
     <g id="line2d_11">
      <g>
       <use style="stroke:#000000;stroke-width:0.8;" x="57.6" xlink:href="#m7f9ba2c21a" y="177.064364"/>
      </g>
     </g>
     <g id="text_11">
      <!-- 0.5 -->
      <g transform="translate(34.696875 180.863582)scale(0.1 -0.1)">
       <use xlink:href="#DejaVuSans-30"/>
       <use x="63.623047" xlink:href="#DejaVuSans-2e"/>
       <use x="95.410156" xlink:href="#DejaVuSans-35"/>
      </g>
     </g>
    </g>
    <g id="ytick_5">
     <g id="line2d_12">
      <g>
       <use style="stroke:#000000;stroke-width:0.8;" x="57.6" xlink:href="#m7f9ba2c21a" y="151.700727"/>
      </g>
     </g>
     <g id="text_12">
      <!-- 1.0 -->
      <g transform="translate(34.696875 155.499946)scale(0.1 -0.1)">
       <use xlink:href="#DejaVuSans-31"/>
       <use x="63.623047" xlink:href="#DejaVuSans-2e"/>
       <use x="95.410156" xlink:href="#DejaVuSans-30"/>
      </g>
     </g>
    </g>
    <g id="ytick_6">
     <g id="line2d_13">
      <g>
       <use style="stroke:#000000;stroke-width:0.8;" x="57.6" xlink:href="#m7f9ba2c21a" y="126.337091"/>
      </g>
     </g>
     <g id="text_13">
      <!-- 1.5 -->
      <g transform="translate(34.696875 130.13631)scale(0.1 -0.1)">
       <use xlink:href="#DejaVuSans-31"/>
       <use x="63.623047" xlink:href="#DejaVuSans-2e"/>
       <use x="95.410156" xlink:href="#DejaVuSans-35"/>
      </g>
     </g>
    </g>
    <g id="ytick_7">
     <g id="line2d_14">
      <g>
       <use style="stroke:#000000;stroke-width:0.8;" x="57.6" xlink:href="#m7f9ba2c21a" y="100.973455"/>
      </g>
     </g>
     <g id="text_14">
      <!-- 2.0 -->
      <g transform="translate(34.696875 104.772673)scale(0.1 -0.1)">
       <use xlink:href="#DejaVuSans-32"/>
       <use x="63.623047" xlink:href="#DejaVuSans-2e"/>
       <use x="95.410156" xlink:href="#DejaVuSans-30"/>
      </g>
     </g>
    </g>
   </g>
   <g id="line2d_15">
    <path clip-path="url(#p5855780251)" d="M 286.887273 146.628 
L 286.116611 137.819302 
L 283.828044 129.278251 
L 280.091107 121.264364 
L 275.019345 114.021138 
L 268.766862 107.768655 
L 261.523636 102.696893 
L 253.509749 98.959956 
L 244.968698 96.671389 
L 236.16 95.900727 
L 227.351302 96.671389 
L 218.810251 98.959956 
L 210.796364 102.696893 
L 203.553138 107.768655 
L 197.300655 114.021138 
L 192.228893 121.264364 
L 188.491956 129.278251 
L 186.203389 137.819302 
L 185.432727 146.628 
L 186.203389 155.436698 
L 188.491956 163.977749 
L 192.228893 171.991636 
L 197.300655 179.234862 
L 203.553138 185.487345 
L 210.796364 190.559107 
L 218.810251 194.296044 
L 227.351302 196.584611 
L 236.16 197.355273 
L 244.968698 196.584611 
L 253.509749 194.296044 
L 261.523636 190.559107 
L 268.766862 185.487345 
L 275.019345 179.234862 
L 280.091107 171.991636 
L 283.828044 163.977749 
L 286.116611 155.436698 
L 286.887273 146.628 
" style="fill:none;stroke:#000000;stroke-linecap:square;stroke-width:1.5;"/>
   </g>
   <g id="line2d_16">
    <path clip-path="url(#p5855780251)" d="M 231.087273 202.428 
L 230.316611 193.619302 
L 228.028044 185.078251 
L 224.291107 177.064364 
L 219.219345 169.821138 
L 212.966862 163.568655 
L 205.723636 158.496893 
L 197.709749 154.759956 
L 189.168698 152.471389 
L 180.36 151.700727 
L 171.551302 152.471389 
L 163.010251 154.759956 
L 154.996364 158.496893 
L 147.753138 163.568655 
L 141.500655 169.821138 
L 136.428893 177.064364 
L 132.691956 185.078251 
L 130.403389 193.619302 
L 129.632727 202.428 
L 130.403389 211.236698 
L 132.691956 219.777749 
L 136.428893 227.791636 
L 141.500655 235.034862 
L 147.753138 241.287345 
L 154.996364 246.359107 
L 163.010251 250.096044 
L 171.551302 252.384611 
L 180.36 253.155273 
L 189.168698 252.384611 
L 197.709749 250.096044 
L 205.723636 246.359107 
L 212.966862 241.287345 
L 219.219345 235.034862 
L 224.291107 227.791636 
L 228.028044 219.777749 
L 230.316611 211.236698 
L 231.087273 202.428 
" style="fill:none;stroke:#bfbf00;stroke-linecap:square;stroke-width:1.5;"/>
   </g>
   <g id="line2d_17">
    <path clip-path="url(#p5855780251)" d="M 175.287273 146.628 
L 174.516611 137.819302 
L 172.228044 129.278251 
L 168.491107 121.264364 
L 163.419345 114.021138 
L 157.166862 107.768655 
L 149.923636 102.696893 
L 141.909749 98.959956 
L 133.368698 96.671389 
L 124.56 95.900727 
L 115.751302 96.671389 
L 107.210251 98.959956 
L 99.196364 102.696893 
L 91.953138 107.768655 
L 85.700655 114.021138 
L 80.628893 121.264364 
L 76.891956 129.278251 
L 74.603389 137.819302 
L 73.832727 146.628 
L 74.603389 155.436698 
L 76.891956 163.977749 
L 80.628893 171.991636 
L 85.700655 179.234862 
L 91.953138 185.487345 
L 99.196364 190.559107 
L 107.210251 194.296044 
L 115.751302 196.584611 
L 124.56 197.355273 
L 133.368698 196.584611 
L 141.909749 194.296044 
L 149.923636 190.559107 
L 157.166862 185.487345 
L 163.419345 179.234862 
L 168.491107 171.991636 
L 172.228044 163.977749 
L 174.516611 155.436698 
L 175.287273 146.628 
" style="fill:none;stroke:#0000ff;stroke-linecap:square;stroke-width:1.5;"/>
   </g>
   <g id="line2d_18">
    <path clip-path="url(#p5855780251)" d="M 342.687273 202.428 
L 341.916611 193.619302 
L 339.628044 185.078251 
L 335.891107 177.064364 
L 330.819345 169.821138 
L 324.566862 163.568655 
L 317.323636 158.496893 
L 309.309749 154.759956 
L 300.768698 152.471389 
L 291.96 151.700727 
L 283.151302 152.471389 
L 274.610251 154.759956 
L 266.596364 158.496893 
L 259.353138 163.568655 
L 253.100655 169.821138 
L 248.028893 177.064364 
L 244.291956 185.078251 
L 242.003389 193.619302 
L 241.232727 202.428 
L 242.003389 211.236698 
L 244.291956 219.777749 
L 248.028893 227.791636 
L 253.100655 235.034862 
L 259.353138 241.287345 
L 266.596364 246.359107 
L 274.610251 250.096044 
L 283.151302 252.384611 
L 291.96 253.155273 
L 300.768698 252.384611 
L 309.309749 250.096044 
L 317.323636 246.359107 
L 324.566862 241.287345 
L 330.819345 235.034862 
L 335.891107 227.791636 
L 339.628044 219.777749 
L 341.916611 211.236698 
L 342.687273 202.428 
" style="fill:none;stroke:#008000;stroke-linecap:square;stroke-width:1.5;"/>
   </g>
   <g id="line2d_19">
    <path clip-path="url(#p5855780251)" d="M 398.487273 146.628 
L 397.716611 137.819302 
L 395.428044 129.278251 
L 391.691107 121.264364 
L 386.619345 114.021138 
L 380.366862 107.768655 
L 373.123636 102.696893 
L 365.109749 98.959956 
L 356.568698 96.671389 
L 347.76 95.900727 
L 338.951302 96.671389 
L 330.410251 98.959956 
L 322.396364 102.696893 
L 315.153138 107.768655 
L 308.900655 114.021138 
L 303.828893 121.264364 
L 300.091956 129.278251 
L 297.803389 137.819302 
L 297.032727 146.628 
L 297.803389 155.436698 
L 300.091956 163.977749 
L 303.828893 171.991636 
L 308.900655 179.234862 
L 315.153138 185.487345 
L 322.396364 190.559107 
L 330.410251 194.296044 
L 338.951302 196.584611 
L 347.76 197.355273 
L 356.568698 196.584611 
L 365.109749 194.296044 
L 373.123636 190.559107 
L 380.366862 185.487345 
L 386.619345 179.234862 
L 391.691107 171.991636 
L 395.428044 163.977749 
L 397.716611 155.436698 
L 398.487273 146.628 
" style="fill:none;stroke:#ff0000;stroke-linecap:square;stroke-width:1.5;"/>
   </g>
   <g id="patch_3">
    <path d="M 57.6 261.018 
L 57.6 88.038 
" style="fill:none;stroke:#000000;stroke-linecap:square;stroke-linejoin:miter;stroke-width:0.8;"/>
   </g>
   <g id="patch_4">
    <path d="M 414.72 261.018 
L 414.72 88.038 
" style="fill:none;stroke:#000000;stroke-linecap:square;stroke-linejoin:miter;stroke-width:0.8;"/>
   </g>
   <g id="patch_5">
    <path d="M 57.6 261.018 
L 414.72 261.018 
" style="fill:none;stroke:#000000;stroke-linecap:square;stroke-linejoin:miter;stroke-width:0.8;"/>
   </g>
   <g id="patch_6">
    <path d="M 57.6 88.038 
L 414.72 88.038 
" style="fill:none;stroke:#000000;stroke-linecap:square;stroke-linejoin:miter;stroke-width:0.8;"/>
   </g>
  </g>
 </g>
 <defs>
  <clipPath id="p5855780251">
   <rect height="172.98" width="357.12" x="57.6" y="88.038"/>
  </clipPath>
 </defs>
</svg>
