<?xml version="1.0" encoding="utf-8" standalone="no"?>
<!DOCTYPE svg PUBLIC "-//W3C//DTD SVG 1.1//EN"
  "http://www.w3.org/Graphics/SVG/1.1/DTD/svg11.dtd">
<!-- Created with matplotlib (http://matplotlib.org/) -->
<svg height="345.6pt" version="1.1" viewBox="0 0 460.8 345.6" width="460.8pt" xmlns="http://www.w3.org/2000/svg" xmlns:xlink="http://www.w3.org/1999/xlink">
 <defs>
  <style type="text/css">
*{stroke-linecap:butt;stroke-linejoin:round;}
  </style>
 </defs>
 <g id="figure_1">
  <g id="patch_1">
   <path d="M 0 345.6 
L 460.8 345.6 
L 460.8 0 
L 0 0 
z
" style="fill:#ffffff;"/>
  </g>
  <g id="axes_1">
   <g id="patch_2">
    <path d="M 81.390671 307.584 
L 390.929329 307.584 
L 390.929329 41.472 
L 81.390671 41.472 
z
" style="fill:#ffffff;"/>
   </g>
   <g id="matplotlib.axis_1">
    <g id="xtick_1">
     <g id="line2d_1">
      <defs>
       <path d="M 0 0 
L 0 3.5 
" id="m59949a4d27" style="stroke:#000000;stroke-width:0.8;"/>
      </defs>
      <g>
       <use style="stroke:#000000;stroke-width:0.8;" x="88.785758" xlink:href="#m59949a4d27" y="307.584"/>
      </g>
     </g>
     <g id="text_1">
      <!-- −10 -->
      <defs>
       <path d="M 10.59375 35.5 
L 73.1875 35.5 
L 73.1875 27.203125 
L 10.59375 27.203125 
z
" id="DejaVuSans-2212"/>
       <path d="M 12.40625 8.296875 
L 28.515625 8.296875 
L 28.515625 63.921875 
L 10.984375 60.40625 
L 10.984375 69.390625 
L 28.421875 72.90625 
L 38.28125 72.90625 
L 38.28125 8.296875 
L 54.390625 8.296875 
L 54.390625 0 
L 12.40625 0 
z
" id="DejaVuSans-31"/>
       <path d="M 31.78125 66.40625 
Q 24.171875 66.40625 20.328125 58.90625 
Q 16.5 51.421875 16.5 36.375 
Q 16.5 21.390625 20.328125 13.890625 
Q 24.171875 6.390625 31.78125 6.390625 
Q 39.453125 6.390625 43.28125 13.890625 
Q 47.125 21.390625 47.125 36.375 
Q 47.125 51.421875 43.28125 58.90625 
Q 39.453125 66.40625 31.78125 66.40625 
z
M 31.78125 74.21875 
Q 44.046875 74.21875 50.515625 64.515625 
Q 56.984375 54.828125 56.984375 36.375 
Q 56.984375 17.96875 50.515625 8.265625 
Q 44.046875 -1.421875 31.78125 -1.421875 
Q 19.53125 -1.421875 13.0625 8.265625 
Q 6.59375 17.96875 6.59375 36.375 
Q 6.59375 54.828125 13.0625 64.515625 
Q 19.53125 74.21875 31.78125 74.21875 
z
" id="DejaVuSans-30"/>
      </defs>
      <g transform="translate(78.233415 322.182437)scale(0.1 -0.1)">
       <use xlink:href="#DejaVuSans-2212"/>
       <use x="83.789062" xlink:href="#DejaVuSans-31"/>
       <use x="147.412109" xlink:href="#DejaVuSans-30"/>
      </g>
     </g>
    </g>
    <g id="xtick_2">
     <g id="line2d_2">
      <g>
       <use style="stroke:#000000;stroke-width:0.8;" x="152.61384" xlink:href="#m59949a4d27" y="307.584"/>
      </g>
     </g>
     <g id="text_2">
      <!-- −5 -->
      <defs>
       <path d="M 10.796875 72.90625 
L 49.515625 72.90625 
L 49.515625 64.59375 
L 19.828125 64.59375 
L 19.828125 46.734375 
Q 21.96875 47.46875 24.109375 47.828125 
Q 26.265625 48.1875 28.421875 48.1875 
Q 40.625 48.1875 47.75 41.5 
Q 54.890625 34.8125 54.890625 23.390625 
Q 54.890625 11.625 47.5625 5.09375 
Q 40.234375 -1.421875 26.90625 -1.421875 
Q 22.3125 -1.421875 17.546875 -0.640625 
Q 12.796875 0.140625 7.71875 1.703125 
L 7.71875 11.625 
Q 12.109375 9.234375 16.796875 8.0625 
Q 21.484375 6.890625 26.703125 6.890625 
Q 35.15625 6.890625 40.078125 11.328125 
Q 45.015625 15.765625 45.015625 23.390625 
Q 45.015625 31 40.078125 35.4375 
Q 35.15625 39.890625 26.703125 39.890625 
Q 22.75 39.890625 18.8125 39.015625 
Q 14.890625 38.140625 10.796875 36.28125 
z
" id="DejaVuSans-35"/>
      </defs>
      <g transform="translate(145.242747 322.182437)scale(0.1 -0.1)">
       <use xlink:href="#DejaVuSans-2212"/>
       <use x="83.789062" xlink:href="#DejaVuSans-35"/>
      </g>
     </g>
    </g>
    <g id="xtick_3">
     <g id="line2d_3">
      <g>
       <use style="stroke:#000000;stroke-width:0.8;" x="216.441923" xlink:href="#m59949a4d27" y="307.584"/>
      </g>
     </g>
     <g id="text_3">
      <!-- 0 -->
      <g transform="translate(213.260673 322.182437)scale(0.1 -0.1)">
       <use xlink:href="#DejaVuSans-30"/>
      </g>
     </g>
    </g>
    <g id="xtick_4">
     <g id="line2d_4">
      <g>
       <use style="stroke:#000000;stroke-width:0.8;" x="280.270005" xlink:href="#m59949a4d27" y="307.584"/>
      </g>
     </g>
     <g id="text_4">
      <!-- 5 -->
      <g transform="translate(277.088755 322.182437)scale(0.1 -0.1)">
       <use xlink:href="#DejaVuSans-35"/>
      </g>
     </g>
    </g>
    <g id="xtick_5">
     <g id="line2d_5">
      <g>
       <use style="stroke:#000000;stroke-width:0.8;" x="344.098087" xlink:href="#m59949a4d27" y="307.584"/>
      </g>
     </g>
     <g id="text_5">
      <!-- 10 -->
      <g transform="translate(337.735587 322.182437)scale(0.1 -0.1)">
       <use xlink:href="#DejaVuSans-31"/>
       <use x="63.623047" xlink:href="#DejaVuSans-30"/>
      </g>
     </g>
    </g>
   </g>
   <g id="matplotlib.axis_2">
    <g id="ytick_1">
     <g id="line2d_6">
      <defs>
       <path d="M 0 0 
L -3.5 0 
" id="m86e1290c2a" style="stroke:#000000;stroke-width:0.8;"/>
      </defs>
      <g>
       <use style="stroke:#000000;stroke-width:0.8;" x="81.390671" xlink:href="#m86e1290c2a" y="282.260731"/>
      </g>
     </g>
     <g id="text_6">
      <!-- −10.0 -->
      <defs>
       <path d="M 10.6875 12.40625 
L 21 12.40625 
L 21 0 
L 10.6875 0 
z
" id="DejaVuSans-2e"/>
      </defs>
      <g transform="translate(43.745359 286.05995)scale(0.1 -0.1)">
       <use xlink:href="#DejaVuSans-2212"/>
       <use x="83.789062" xlink:href="#DejaVuSans-31"/>
       <use x="147.412109" xlink:href="#DejaVuSans-30"/>
       <use x="211.035156" xlink:href="#DejaVuSans-2e"/>
       <use x="242.822266" xlink:href="#DejaVuSans-30"/>
      </g>
     </g>
    </g>
    <g id="ytick_2">
     <g id="line2d_7">
      <g>
       <use style="stroke:#000000;stroke-width:0.8;" x="81.390671" xlink:href="#m86e1290c2a" y="250.34669"/>
      </g>
     </g>
     <g id="text_7">
      <!-- −7.5 -->
      <defs>
       <path d="M 8.203125 72.90625 
L 55.078125 72.90625 
L 55.078125 68.703125 
L 28.609375 0 
L 18.3125 0 
L 43.21875 64.59375 
L 8.203125 64.59375 
z
" id="DejaVuSans-37"/>
      </defs>
      <g transform="translate(50.107859 254.145909)scale(0.1 -0.1)">
       <use xlink:href="#DejaVuSans-2212"/>
       <use x="83.789062" xlink:href="#DejaVuSans-37"/>
       <use x="147.412109" xlink:href="#DejaVuSans-2e"/>
       <use x="179.199219" xlink:href="#DejaVuSans-35"/>
      </g>
     </g>
    </g>
    <g id="ytick_3">
     <g id="line2d_8">
      <g>
       <use style="stroke:#000000;stroke-width:0.8;" x="81.390671" xlink:href="#m86e1290c2a" y="218.432649"/>
      </g>
     </g>
     <g id="text_8">
      <!-- −5.0 -->
      <g transform="translate(50.107859 222.231868)scale(0.1 -0.1)">
       <use xlink:href="#DejaVuSans-2212"/>
       <use x="83.789062" xlink:href="#DejaVuSans-35"/>
       <use x="147.412109" xlink:href="#DejaVuSans-2e"/>
       <use x="179.199219" xlink:href="#DejaVuSans-30"/>
      </g>
     </g>
    </g>
    <g id="ytick_4">
     <g id="line2d_9">
      <g>
       <use style="stroke:#000000;stroke-width:0.8;" x="81.390671" xlink:href="#m86e1290c2a" y="186.518608"/>
      </g>
     </g>
     <g id="text_9">
      <!-- −2.5 -->
      <defs>
       <path d="M 19.1875 8.296875 
L 53.609375 8.296875 
L 53.609375 0 
L 7.328125 0 
L 7.328125 8.296875 
Q 12.9375 14.109375 22.625 23.890625 
Q 32.328125 33.6875 34.8125 36.53125 
Q 39.546875 41.84375 41.421875 45.53125 
Q 43.3125 49.21875 43.3125 52.78125 
Q 43.3125 58.59375 39.234375 62.25 
Q 35.15625 65.921875 28.609375 65.921875 
Q 23.96875 65.921875 18.8125 64.3125 
Q 13.671875 62.703125 7.8125 59.421875 
L 7.8125 69.390625 
Q 13.765625 71.78125 18.9375 73 
Q 24.125 74.21875 28.421875 74.21875 
Q 39.75 74.21875 46.484375 68.546875 
Q 53.21875 62.890625 53.21875 53.421875 
Q 53.21875 48.921875 51.53125 44.890625 
Q 49.859375 40.875 45.40625 35.40625 
Q 44.1875 33.984375 37.640625 27.21875 
Q 31.109375 20.453125 19.1875 8.296875 
z
" id="DejaVuSans-32"/>
      </defs>
      <g transform="translate(50.107859 190.317827)scale(0.1 -0.1)">
       <use xlink:href="#DejaVuSans-2212"/>
       <use x="83.789062" xlink:href="#DejaVuSans-32"/>
       <use x="147.412109" xlink:href="#DejaVuSans-2e"/>
       <use x="179.199219" xlink:href="#DejaVuSans-35"/>
      </g>
     </g>
    </g>
    <g id="ytick_5">
     <g id="line2d_10">
      <g>
       <use style="stroke:#000000;stroke-width:0.8;" x="81.390671" xlink:href="#m86e1290c2a" y="154.604567"/>
      </g>
     </g>
     <g id="text_10">
      <!-- 0.0 -->
      <g transform="translate(58.487546 158.403786)scale(0.1 -0.1)">
       <use xlink:href="#DejaVuSans-30"/>
       <use x="63.623047" xlink:href="#DejaVuSans-2e"/>
       <use x="95.410156" xlink:href="#DejaVuSans-30"/>
      </g>
     </g>
    </g>
    <g id="ytick_6">
     <g id="line2d_11">
      <g>
       <use style="stroke:#000000;stroke-width:0.8;" x="81.390671" xlink:href="#m86e1290c2a" y="122.690526"/>
      </g>
     </g>
     <g id="text_11">
      <!-- 2.5 -->
      <g transform="translate(58.487546 126.489745)scale(0.1 -0.1)">
       <use xlink:href="#DejaVuSans-32"/>
       <use x="63.623047" xlink:href="#DejaVuSans-2e"/>
       <use x="95.410156" xlink:href="#DejaVuSans-35"/>
      </g>
     </g>
    </g>
    <g id="ytick_7">
     <g id="line2d_12">
      <g>
       <use style="stroke:#000000;stroke-width:0.8;" x="81.390671" xlink:href="#m86e1290c2a" y="90.776485"/>
      </g>
     </g>
     <g id="text_12">
      <!-- 5.0 -->
      <g transform="translate(58.487546 94.575704)scale(0.1 -0.1)">
       <use xlink:href="#DejaVuSans-35"/>
       <use x="63.623047" xlink:href="#DejaVuSans-2e"/>
       <use x="95.410156" xlink:href="#DejaVuSans-30"/>
      </g>
     </g>
    </g>
    <g id="ytick_8">
     <g id="line2d_13">
      <g>
       <use style="stroke:#000000;stroke-width:0.8;" x="81.390671" xlink:href="#m86e1290c2a" y="58.862444"/>
      </g>
     </g>
     <g id="text_13">
      <!-- 7.5 -->
      <g transform="translate(58.487546 62.661663)scale(0.1 -0.1)">
       <use xlink:href="#DejaVuSans-37"/>
       <use x="63.623047" xlink:href="#DejaVuSans-2e"/>
       <use x="95.410156" xlink:href="#DejaVuSans-35"/>
      </g>
     </g>
    </g>
   </g>
   <g id="line2d_14">
    <path clip-path="url(#pe04afbf665)" d="M 216.441923 154.604567 
L 218.041318 154.40149 
L 219.564076 153.79873 
L 220.935598 152.81554 
L 222.085309 151.4835 
L 222.948561 149.845757 
L 223.468399 147.955989 
L 223.597159 145.87711 
L 223.297854 143.679747 
L 222.545316 141.440516 
L 221.994676 140.330319 
L 221.327081 139.240138 
L 220.543054 138.180376 
L 219.643968 137.161438 
L 218.632049 136.193664 
L 217.510371 135.287262 
L 216.282848 134.452247 
L 214.954221 133.698367 
L 213.53004 133.035047 
L 212.016639 132.471322 
L 210.421113 132.015773 
L 208.751279 131.676473 
L 207.015642 131.460926 
L 205.223355 131.376014 
L 203.384174 131.427945 
L 201.508403 131.622205 
L 199.606849 131.963514 
L 197.690761 132.455785 
L 195.771769 133.102086 
L 193.861827 133.904611 
L 191.973144 134.864649 
L 190.118118 135.982561 
L 188.30927 137.257765 
L 186.559167 138.68872 
L 184.880359 140.272918 
L 183.285298 142.006885 
L 181.786274 143.886177 
L 180.395335 145.905394 
L 179.124221 148.058191 
L 177.984287 150.337295 
L 176.986436 152.734529 
L 176.141049 155.240846 
L 175.457919 157.846354 
L 174.946187 160.540364 
L 174.614275 163.311428 
L 174.469835 166.14739 
L 174.519686 169.035438 
L 174.769767 171.962162 
L 175.225085 174.913612 
L 175.889674 177.875368 
L 176.766556 180.832605 
L 177.857701 183.770161 
L 179.164005 186.672617 
L 180.685259 189.524369 
L 182.420136 192.30971 
L 184.366169 195.012905 
L 186.519753 197.618275 
L 188.876137 200.110281 
L 191.429425 202.473601 
L 194.172594 204.693218 
L 197.097502 206.7545 
L 200.194913 208.643281 
L 203.454521 210.345941 
L 206.864989 211.849487 
L 210.413979 213.141626 
L 214.088205 214.21084 
L 217.873475 215.046461 
L 221.754751 215.638733 
L 225.716207 215.978883 
L 229.741292 216.059175 
L 233.8128 215.872971 
L 237.912947 215.414782 
L 242.02344 214.680311 
L 246.125566 213.666501 
L 250.20027 212.371565 
L 254.228244 210.795019 
L 258.190019 208.937707 
L 262.066049 206.801818 
L 265.836811 204.390898 
L 269.482896 201.709859 
L 272.985103 198.764971 
L 276.324537 195.563863 
L 279.4827 192.115503 
L 282.44159 188.43018 
L 285.183789 184.519476 
L 287.692561 180.396231 
L 289.951937 176.074508 
L 291.946805 171.569537 
L 293.662991 166.897674 
L 295.087347 162.07633 
L 296.207821 157.123916 
L 297.013537 152.05977 
L 297.49486 146.904077 
L 297.643458 141.677795 
L 297.452369 136.402567 
L 296.916044 131.100632 
L 296.030402 125.794729 
L 294.792868 120.508004 
L 293.202405 115.263908 
L 291.259549 110.086093 
L 288.966422 104.998308 
L 286.326753 100.024292 
L 283.345878 95.187665 
L 280.030745 90.511818 
L 276.389902 86.019807 
L 272.433487 81.734238 
L 268.173197 77.677162 
L 263.622263 73.869967 
L 258.795414 70.333271 
L 253.708825 67.086816 
L 248.380071 64.149373 
L 242.828066 61.538637 
L 237.072995 59.271137 
L 231.136243 57.362144 
L 225.040317 55.825587 
L 218.808756 54.673969 
L 212.466048 53.918295 
L 206.037527 53.568 
L 199.549276 53.630888 
L 193.028016 54.113075 
L 186.501004 55.018937 
L 179.995913 56.35107 
L 173.540716 58.110254 
L 167.163569 60.295426 
L 160.892687 62.903659 
L 154.75622 65.930153 
L 148.78213 69.368229 
L 142.998065 73.209337 
L 137.431231 77.443068 
L 132.108273 82.057176 
L 127.055143 87.037609 
L 122.296984 92.368546 
L 117.858009 98.032446 
L 113.761379 104.010104 
L 110.029096 110.280709 
L 106.681884 116.821923 
L 103.739094 123.609949 
L 101.218591 130.619629 
L 99.136669 137.824526 
L 97.507952 145.197028 
L 96.345319 152.708457 
L 95.65982 160.329172 
L 95.46061 168.028694 
L 95.754888 175.775825 
L 96.547839 183.538771 
L 97.842592 191.285279 
L 99.640177 198.982766 
L 101.939505 206.598456 
L 104.737338 214.09952 
L 108.028286 221.453219 
L 111.804801 228.627041 
L 116.057189 235.588847 
L 120.773621 242.307011 
L 125.940168 248.750564 
L 131.540828 254.889332 
L 137.557579 260.694074 
L 143.970432 266.13662 
L 150.757489 271.190001 
L 157.895025 275.828579 
L 165.357562 280.02817 
L 173.117961 283.766163 
L 181.147522 287.021635 
L 189.416086 289.775457 
L 197.892149 292.010395 
L 206.542984 293.711205 
L 215.334763 294.864716 
L 224.232694 295.459913 
L 233.201154 295.488 
L 242.203836 294.942466 
L 251.203893 293.819135 
L 260.164088 292.116205 
L 269.046952 289.834286 
L 277.814937 286.976415 
L 286.430574 283.548077 
L 294.856633 279.557197 
L 303.056286 275.014138 
L 310.993261 269.93168 
L 318.632006 264.324989 
L 325.937842 258.211578 
L 332.877123 251.611258 
L 339.417383 244.546074 
L 345.527488 237.040235 
L 351.17778 229.120036 
L 356.340214 220.813764 
L 360.988495 212.151601 
L 365.098204 203.165512 
L 368.646918 193.889134 
L 371.614324 184.357643 
L 373.982327 174.607627 
L 375.735143 164.676942 
L 376.85939 154.604567 
L 376.85939 154.604567 
" style="fill:none;stroke:#1f77b4;stroke-linecap:square;stroke-width:1.5;"/>
   </g>
   <g id="patch_3">
    <path d="M 81.390671 307.584 
L 81.390671 41.472 
" style="fill:none;stroke:#000000;stroke-linecap:square;stroke-linejoin:miter;stroke-width:0.8;"/>
   </g>
   <g id="patch_4">
    <path d="M 390.929329 307.584 
L 390.929329 41.472 
" style="fill:none;stroke:#000000;stroke-linecap:square;stroke-linejoin:miter;stroke-width:0.8;"/>
   </g>
   <g id="patch_5">
    <path d="M 81.390671 307.584 
L 390.929329 307.584 
" style="fill:none;stroke:#000000;stroke-linecap:square;stroke-linejoin:miter;stroke-width:0.8;"/>
   </g>
   <g id="patch_6">
    <path d="M 81.390671 41.472 
L 390.929329 41.472 
" style="fill:none;stroke:#000000;stroke-linecap:square;stroke-linejoin:miter;stroke-width:0.8;"/>
   </g>
  </g>
 </g>
 <defs>
  <clipPath id="pe04afbf665">
   <rect height="266.112" width="309.538657" x="81.390671" y="41.472"/>
  </clipPath>
 </defs>
</svg>
