<?xml version="1.0" encoding="utf-8" standalone="no"?>
<!DOCTYPE svg PUBLIC "-//W3C//DTD SVG 1.1//EN"
  "http://www.w3.org/Graphics/SVG/1.1/DTD/svg11.dtd">
<!-- Created with matplotlib (http://matplotlib.org/) -->
<svg height="345.6pt" version="1.1" viewBox="0 0 460.8 345.6" width="460.8pt" xmlns="http://www.w3.org/2000/svg" xmlns:xlink="http://www.w3.org/1999/xlink">
 <defs>
  <style type="text/css">
*{stroke-linecap:butt;stroke-linejoin:round;}
  </style>
 </defs>
 <g id="figure_1">
  <g id="patch_1">
   <path d="M 0 345.6 
L 460.8 345.6 
L 460.8 0 
L 0 0 
z
" style="fill:#ffffff;"/>
  </g>
  <g id="axes_1">
   <g id="patch_2">
    <path d="M 103.104 307.584 
L 369.216 307.584 
L 369.216 41.472 
L 103.104 41.472 
z
" style="fill:#ffffff;"/>
   </g>
   <g id="matplotlib.axis_1">
    <g id="xtick_1">
     <g id="line2d_1">
      <defs>
       <path d="M 0 0 
L 0 3.5 
" id="mf6a11e95ef" style="stroke:#000000;stroke-width:0.8;"/>
      </defs>
      <g>
       <use style="stroke:#000000;stroke-width:0.8;" x="103.104" xlink:href="#mf6a11e95ef" y="307.584"/>
      </g>
     </g>
     <g id="text_1">
      <!-- −1.5 -->
      <defs>
       <path d="M 10.59375 35.5 
L 73.1875 35.5 
L 73.1875 27.203125 
L 10.59375 27.203125 
z
" id="DejaVuSans-2212"/>
       <path d="M 12.40625 8.296875 
L 28.515625 8.296875 
L 28.515625 63.921875 
L 10.984375 60.40625 
L 10.984375 69.390625 
L 28.421875 72.90625 
L 38.28125 72.90625 
L 38.28125 8.296875 
L 54.390625 8.296875 
L 54.390625 0 
L 12.40625 0 
z
" id="DejaVuSans-31"/>
       <path d="M 10.6875 12.40625 
L 21 12.40625 
L 21 0 
L 10.6875 0 
z
" id="DejaVuSans-2e"/>
       <path d="M 10.796875 72.90625 
L 49.515625 72.90625 
L 49.515625 64.59375 
L 19.828125 64.59375 
L 19.828125 46.734375 
Q 21.96875 47.46875 24.109375 47.828125 
Q 26.265625 48.1875 28.421875 48.1875 
Q 40.625 48.1875 47.75 41.5 
Q 54.890625 34.8125 54.890625 23.390625 
Q 54.890625 11.625 47.5625 5.09375 
Q 40.234375 -1.421875 26.90625 -1.421875 
Q 22.3125 -1.421875 17.546875 -0.640625 
Q 12.796875 0.140625 7.71875 1.703125 
L 7.71875 11.625 
Q 12.109375 9.234375 16.796875 8.0625 
Q 21.484375 6.890625 26.703125 6.890625 
Q 35.15625 6.890625 40.078125 11.328125 
Q 45.015625 15.765625 45.015625 23.390625 
Q 45.015625 31 40.078125 35.4375 
Q 35.15625 39.890625 26.703125 39.890625 
Q 22.75 39.890625 18.8125 39.015625 
Q 14.890625 38.140625 10.796875 36.28125 
z
" id="DejaVuSans-35"/>
      </defs>
      <g transform="translate(90.962594 322.182437)scale(0.1 -0.1)">
       <use xlink:href="#DejaVuSans-2212"/>
       <use x="83.789062" xlink:href="#DejaVuSans-31"/>
       <use x="147.412109" xlink:href="#DejaVuSans-2e"/>
       <use x="179.199219" xlink:href="#DejaVuSans-35"/>
      </g>
     </g>
    </g>
    <g id="xtick_2">
     <g id="line2d_2">
      <g>
       <use style="stroke:#000000;stroke-width:0.8;" x="147.456" xlink:href="#mf6a11e95ef" y="307.584"/>
      </g>
     </g>
     <g id="text_2">
      <!-- −1.0 -->
      <defs>
       <path d="M 31.78125 66.40625 
Q 24.171875 66.40625 20.328125 58.90625 
Q 16.5 51.421875 16.5 36.375 
Q 16.5 21.390625 20.328125 13.890625 
Q 24.171875 6.390625 31.78125 6.390625 
Q 39.453125 6.390625 43.28125 13.890625 
Q 47.125 21.390625 47.125 36.375 
Q 47.125 51.421875 43.28125 58.90625 
Q 39.453125 66.40625 31.78125 66.40625 
z
M 31.78125 74.21875 
Q 44.046875 74.21875 50.515625 64.515625 
Q 56.984375 54.828125 56.984375 36.375 
Q 56.984375 17.96875 50.515625 8.265625 
Q 44.046875 -1.421875 31.78125 -1.421875 
Q 19.53125 -1.421875 13.0625 8.265625 
Q 6.59375 17.96875 6.59375 36.375 
Q 6.59375 54.828125 13.0625 64.515625 
Q 19.53125 74.21875 31.78125 74.21875 
z
" id="DejaVuSans-30"/>
      </defs>
      <g transform="translate(135.314594 322.182437)scale(0.1 -0.1)">
       <use xlink:href="#DejaVuSans-2212"/>
       <use x="83.789062" xlink:href="#DejaVuSans-31"/>
       <use x="147.412109" xlink:href="#DejaVuSans-2e"/>
       <use x="179.199219" xlink:href="#DejaVuSans-30"/>
      </g>
     </g>
    </g>
    <g id="xtick_3">
     <g id="line2d_3">
      <g>
       <use style="stroke:#000000;stroke-width:0.8;" x="191.808" xlink:href="#mf6a11e95ef" y="307.584"/>
      </g>
     </g>
     <g id="text_3">
      <!-- −0.5 -->
      <g transform="translate(179.666594 322.182437)scale(0.1 -0.1)">
       <use xlink:href="#DejaVuSans-2212"/>
       <use x="83.789062" xlink:href="#DejaVuSans-30"/>
       <use x="147.412109" xlink:href="#DejaVuSans-2e"/>
       <use x="179.199219" xlink:href="#DejaVuSans-35"/>
      </g>
     </g>
    </g>
    <g id="xtick_4">
     <g id="line2d_4">
      <g>
       <use style="stroke:#000000;stroke-width:0.8;" x="236.16" xlink:href="#mf6a11e95ef" y="307.584"/>
      </g>
     </g>
     <g id="text_4">
      <!-- 0.0 -->
      <g transform="translate(228.208438 322.182437)scale(0.1 -0.1)">
       <use xlink:href="#DejaVuSans-30"/>
       <use x="63.623047" xlink:href="#DejaVuSans-2e"/>
       <use x="95.410156" xlink:href="#DejaVuSans-30"/>
      </g>
     </g>
    </g>
    <g id="xtick_5">
     <g id="line2d_5">
      <g>
       <use style="stroke:#000000;stroke-width:0.8;" x="280.512" xlink:href="#mf6a11e95ef" y="307.584"/>
      </g>
     </g>
     <g id="text_5">
      <!-- 0.5 -->
      <g transform="translate(272.560437 322.182437)scale(0.1 -0.1)">
       <use xlink:href="#DejaVuSans-30"/>
       <use x="63.623047" xlink:href="#DejaVuSans-2e"/>
       <use x="95.410156" xlink:href="#DejaVuSans-35"/>
      </g>
     </g>
    </g>
    <g id="xtick_6">
     <g id="line2d_6">
      <g>
       <use style="stroke:#000000;stroke-width:0.8;" x="324.864" xlink:href="#mf6a11e95ef" y="307.584"/>
      </g>
     </g>
     <g id="text_6">
      <!-- 1.0 -->
      <g transform="translate(316.912438 322.182437)scale(0.1 -0.1)">
       <use xlink:href="#DejaVuSans-31"/>
       <use x="63.623047" xlink:href="#DejaVuSans-2e"/>
       <use x="95.410156" xlink:href="#DejaVuSans-30"/>
      </g>
     </g>
    </g>
    <g id="xtick_7">
     <g id="line2d_7">
      <g>
       <use style="stroke:#000000;stroke-width:0.8;" x="369.216" xlink:href="#mf6a11e95ef" y="307.584"/>
      </g>
     </g>
     <g id="text_7">
      <!-- 1.5 -->
      <g transform="translate(361.264437 322.182437)scale(0.1 -0.1)">
       <use xlink:href="#DejaVuSans-31"/>
       <use x="63.623047" xlink:href="#DejaVuSans-2e"/>
       <use x="95.410156" xlink:href="#DejaVuSans-35"/>
      </g>
     </g>
    </g>
   </g>
   <g id="matplotlib.axis_2">
    <g id="ytick_1">
     <g id="line2d_8">
      <defs>
       <path d="M 0 0 
L -3.5 0 
" id="m997dc10725" style="stroke:#000000;stroke-width:0.8;"/>
      </defs>
      <g>
       <use style="stroke:#000000;stroke-width:0.8;" x="103.104" xlink:href="#m997dc10725" y="307.584"/>
      </g>
     </g>
     <g id="text_8">
      <!-- −1.5 -->
      <g transform="translate(71.821188 311.383219)scale(0.1 -0.1)">
       <use xlink:href="#DejaVuSans-2212"/>
       <use x="83.789062" xlink:href="#DejaVuSans-31"/>
       <use x="147.412109" xlink:href="#DejaVuSans-2e"/>
       <use x="179.199219" xlink:href="#DejaVuSans-35"/>
      </g>
     </g>
    </g>
    <g id="ytick_2">
     <g id="line2d_9">
      <g>
       <use style="stroke:#000000;stroke-width:0.8;" x="103.104" xlink:href="#m997dc10725" y="263.232"/>
      </g>
     </g>
     <g id="text_9">
      <!-- −1.0 -->
      <g transform="translate(71.821188 267.031219)scale(0.1 -0.1)">
       <use xlink:href="#DejaVuSans-2212"/>
       <use x="83.789062" xlink:href="#DejaVuSans-31"/>
       <use x="147.412109" xlink:href="#DejaVuSans-2e"/>
       <use x="179.199219" xlink:href="#DejaVuSans-30"/>
      </g>
     </g>
    </g>
    <g id="ytick_3">
     <g id="line2d_10">
      <g>
       <use style="stroke:#000000;stroke-width:0.8;" x="103.104" xlink:href="#m997dc10725" y="218.88"/>
      </g>
     </g>
     <g id="text_10">
      <!-- −0.5 -->
      <g transform="translate(71.821188 222.679219)scale(0.1 -0.1)">
       <use xlink:href="#DejaVuSans-2212"/>
       <use x="83.789062" xlink:href="#DejaVuSans-30"/>
       <use x="147.412109" xlink:href="#DejaVuSans-2e"/>
       <use x="179.199219" xlink:href="#DejaVuSans-35"/>
      </g>
     </g>
    </g>
    <g id="ytick_4">
     <g id="line2d_11">
      <g>
       <use style="stroke:#000000;stroke-width:0.8;" x="103.104" xlink:href="#m997dc10725" y="174.528"/>
      </g>
     </g>
     <g id="text_11">
      <!-- 0.0 -->
      <g transform="translate(80.200875 178.327219)scale(0.1 -0.1)">
       <use xlink:href="#DejaVuSans-30"/>
       <use x="63.623047" xlink:href="#DejaVuSans-2e"/>
       <use x="95.410156" xlink:href="#DejaVuSans-30"/>
      </g>
     </g>
    </g>
    <g id="ytick_5">
     <g id="line2d_12">
      <g>
       <use style="stroke:#000000;stroke-width:0.8;" x="103.104" xlink:href="#m997dc10725" y="130.176"/>
      </g>
     </g>
     <g id="text_12">
      <!-- 0.5 -->
      <g transform="translate(80.200875 133.975219)scale(0.1 -0.1)">
       <use xlink:href="#DejaVuSans-30"/>
       <use x="63.623047" xlink:href="#DejaVuSans-2e"/>
       <use x="95.410156" xlink:href="#DejaVuSans-35"/>
      </g>
     </g>
    </g>
    <g id="ytick_6">
     <g id="line2d_13">
      <g>
       <use style="stroke:#000000;stroke-width:0.8;" x="103.104" xlink:href="#m997dc10725" y="85.824"/>
      </g>
     </g>
     <g id="text_13">
      <!-- 1.0 -->
      <g transform="translate(80.200875 89.623219)scale(0.1 -0.1)">
       <use xlink:href="#DejaVuSans-31"/>
       <use x="63.623047" xlink:href="#DejaVuSans-2e"/>
       <use x="95.410156" xlink:href="#DejaVuSans-30"/>
      </g>
     </g>
    </g>
    <g id="ytick_7">
     <g id="line2d_14">
      <g>
       <use style="stroke:#000000;stroke-width:0.8;" x="103.104" xlink:href="#m997dc10725" y="41.472"/>
      </g>
     </g>
     <g id="text_14">
      <!-- 1.5 -->
      <g transform="translate(80.200875 45.271219)scale(0.1 -0.1)">
       <use xlink:href="#DejaVuSans-31"/>
       <use x="63.623047" xlink:href="#DejaVuSans-2e"/>
       <use x="95.410156" xlink:href="#DejaVuSans-35"/>
      </g>
     </g>
    </g>
   </g>
   <g id="line2d_15">
    <path clip-path="url(#pa8986c4f45)" d="M 324.864 174.528 
L 323.183969 159.183326 
L 318.248152 144.650356 
L 310.362342 131.687258 
L 300.013247 120.948764 
L 287.835705 112.943293 
L 274.569959 108 
L 261.011889 106.247996 
L 247.959603 107.609125 
L 236.16 111.8048 
L 226.258957 118.376397 
L 218.75852 126.717826 
L 213.984 136.118041 
L 212.063223 145.810579 
L 212.919319 155.026753 
L 216.277542 163.048858 
L 221.685644 169.259765 
L 228.546389 173.185515 
L 236.16 174.528 
L 243.773611 173.185515 
L 250.634356 169.259765 
L 256.042458 163.048858 
L 259.400681 155.026753 
L 260.256777 145.810579 
L 258.336 136.118041 
L 253.56148 126.717826 
L 246.061043 118.376397 
L 236.16 111.8048 
L 224.360397 107.609125 
L 211.308111 106.247996 
L 197.750041 108 
L 184.484295 112.943293 
L 172.306753 120.948764 
L 161.957658 131.687258 
L 154.071848 144.650356 
L 149.136031 159.183326 
L 147.456 174.528 
L 149.136031 189.872674 
L 154.071848 204.405644 
L 161.957658 217.368742 
L 172.306753 228.107236 
L 184.484295 236.112707 
L 197.750041 241.056 
L 211.308111 242.808004 
L 224.360397 241.446875 
L 236.16 237.2512 
L 246.061043 230.679603 
L 253.56148 222.338174 
L 258.336 212.937959 
L 260.256777 203.245421 
L 259.400681 194.029247 
L 256.042458 186.007142 
L 250.634356 179.796235 
L 243.773611 175.870485 
L 236.16 174.528 
L 228.546389 175.870485 
L 221.685644 179.796235 
L 216.277542 186.007142 
L 212.919319 194.029247 
L 212.063223 203.245421 
L 213.984 212.937959 
L 218.75852 222.338174 
L 226.258957 230.679603 
L 236.16 237.2512 
L 247.959603 241.446875 
L 261.011889 242.808004 
L 274.569959 241.056 
L 287.835705 236.112707 
L 300.013247 228.107236 
L 310.362342 217.368742 
L 318.248152 204.405644 
L 323.183969 189.872674 
L 324.864 174.528 
" style="fill:none;stroke:#1f77b4;stroke-linecap:square;stroke-width:1.5;"/>
   </g>
   <g id="line2d_16">
    <defs>
     <path d="M 0 1.5 
C 0.397805 1.5 0.77937 1.341951 1.06066 1.06066 
C 1.341951 0.77937 1.5 0.397805 1.5 0 
C 1.5 -0.397805 1.341951 -0.77937 1.06066 -1.06066 
C 0.77937 -1.341951 0.397805 -1.5 0 -1.5 
C -0.397805 -1.5 -0.77937 -1.341951 -1.06066 -1.06066 
C -1.341951 -0.77937 -1.5 -0.397805 -1.5 0 
C -1.5 0.397805 -1.341951 0.77937 -1.06066 1.06066 
C -0.77937 1.341951 -0.397805 1.5 0 1.5 
z
" id="m616c57ed2a" style="stroke:#ff7f0e;"/>
    </defs>
    <g clip-path="url(#pa8986c4f45)">
     <use style="fill:#ff7f0e;stroke:#ff7f0e;" x="236.16" xlink:href="#m616c57ed2a" y="174.528"/>
     <use style="fill:#ff7f0e;stroke:#ff7f0e;" x="243.773611" xlink:href="#m616c57ed2a" y="173.185515"/>
     <use style="fill:#ff7f0e;stroke:#ff7f0e;" x="250.634356" xlink:href="#m616c57ed2a" y="169.259765"/>
     <use style="fill:#ff7f0e;stroke:#ff7f0e;" x="256.042458" xlink:href="#m616c57ed2a" y="163.048858"/>
     <use style="fill:#ff7f0e;stroke:#ff7f0e;" x="259.400681" xlink:href="#m616c57ed2a" y="155.026753"/>
     <use style="fill:#ff7f0e;stroke:#ff7f0e;" x="260.256777" xlink:href="#m616c57ed2a" y="145.810579"/>
     <use style="fill:#ff7f0e;stroke:#ff7f0e;" x="258.336" xlink:href="#m616c57ed2a" y="136.118041"/>
     <use style="fill:#ff7f0e;stroke:#ff7f0e;" x="253.56148" xlink:href="#m616c57ed2a" y="126.717826"/>
     <use style="fill:#ff7f0e;stroke:#ff7f0e;" x="246.061043" xlink:href="#m616c57ed2a" y="118.376397"/>
     <use style="fill:#ff7f0e;stroke:#ff7f0e;" x="236.16" xlink:href="#m616c57ed2a" y="111.8048"/>
     <use style="fill:#ff7f0e;stroke:#ff7f0e;" x="224.360397" xlink:href="#m616c57ed2a" y="107.609125"/>
     <use style="fill:#ff7f0e;stroke:#ff7f0e;" x="211.308111" xlink:href="#m616c57ed2a" y="106.247996"/>
     <use style="fill:#ff7f0e;stroke:#ff7f0e;" x="197.750041" xlink:href="#m616c57ed2a" y="108"/>
     <use style="fill:#ff7f0e;stroke:#ff7f0e;" x="184.484295" xlink:href="#m616c57ed2a" y="112.943293"/>
     <use style="fill:#ff7f0e;stroke:#ff7f0e;" x="172.306753" xlink:href="#m616c57ed2a" y="120.948764"/>
     <use style="fill:#ff7f0e;stroke:#ff7f0e;" x="161.957658" xlink:href="#m616c57ed2a" y="131.687258"/>
     <use style="fill:#ff7f0e;stroke:#ff7f0e;" x="154.071848" xlink:href="#m616c57ed2a" y="144.650356"/>
     <use style="fill:#ff7f0e;stroke:#ff7f0e;" x="149.136031" xlink:href="#m616c57ed2a" y="159.183326"/>
     <use style="fill:#ff7f0e;stroke:#ff7f0e;" x="147.456" xlink:href="#m616c57ed2a" y="174.528"/>
     <use style="fill:#ff7f0e;stroke:#ff7f0e;" x="149.136031" xlink:href="#m616c57ed2a" y="189.872674"/>
     <use style="fill:#ff7f0e;stroke:#ff7f0e;" x="154.071848" xlink:href="#m616c57ed2a" y="204.405644"/>
     <use style="fill:#ff7f0e;stroke:#ff7f0e;" x="161.957658" xlink:href="#m616c57ed2a" y="217.368742"/>
     <use style="fill:#ff7f0e;stroke:#ff7f0e;" x="172.306753" xlink:href="#m616c57ed2a" y="228.107236"/>
     <use style="fill:#ff7f0e;stroke:#ff7f0e;" x="184.484295" xlink:href="#m616c57ed2a" y="236.112707"/>
     <use style="fill:#ff7f0e;stroke:#ff7f0e;" x="197.750041" xlink:href="#m616c57ed2a" y="241.056"/>
     <use style="fill:#ff7f0e;stroke:#ff7f0e;" x="211.308111" xlink:href="#m616c57ed2a" y="242.808004"/>
     <use style="fill:#ff7f0e;stroke:#ff7f0e;" x="224.360397" xlink:href="#m616c57ed2a" y="241.446875"/>
     <use style="fill:#ff7f0e;stroke:#ff7f0e;" x="236.16" xlink:href="#m616c57ed2a" y="237.2512"/>
     <use style="fill:#ff7f0e;stroke:#ff7f0e;" x="246.061043" xlink:href="#m616c57ed2a" y="230.679603"/>
     <use style="fill:#ff7f0e;stroke:#ff7f0e;" x="253.56148" xlink:href="#m616c57ed2a" y="222.338174"/>
     <use style="fill:#ff7f0e;stroke:#ff7f0e;" x="258.336" xlink:href="#m616c57ed2a" y="212.937959"/>
     <use style="fill:#ff7f0e;stroke:#ff7f0e;" x="260.256777" xlink:href="#m616c57ed2a" y="203.245421"/>
     <use style="fill:#ff7f0e;stroke:#ff7f0e;" x="259.400681" xlink:href="#m616c57ed2a" y="194.029247"/>
     <use style="fill:#ff7f0e;stroke:#ff7f0e;" x="256.042458" xlink:href="#m616c57ed2a" y="186.007142"/>
     <use style="fill:#ff7f0e;stroke:#ff7f0e;" x="250.634356" xlink:href="#m616c57ed2a" y="179.796235"/>
     <use style="fill:#ff7f0e;stroke:#ff7f0e;" x="243.773611" xlink:href="#m616c57ed2a" y="175.870485"/>
     <use style="fill:#ff7f0e;stroke:#ff7f0e;" x="236.16" xlink:href="#m616c57ed2a" y="174.528"/>
     <use style="fill:#ff7f0e;stroke:#ff7f0e;" x="228.546389" xlink:href="#m616c57ed2a" y="175.870485"/>
     <use style="fill:#ff7f0e;stroke:#ff7f0e;" x="221.685644" xlink:href="#m616c57ed2a" y="179.796235"/>
     <use style="fill:#ff7f0e;stroke:#ff7f0e;" x="216.277542" xlink:href="#m616c57ed2a" y="186.007142"/>
     <use style="fill:#ff7f0e;stroke:#ff7f0e;" x="212.919319" xlink:href="#m616c57ed2a" y="194.029247"/>
     <use style="fill:#ff7f0e;stroke:#ff7f0e;" x="212.063223" xlink:href="#m616c57ed2a" y="203.245421"/>
     <use style="fill:#ff7f0e;stroke:#ff7f0e;" x="213.984" xlink:href="#m616c57ed2a" y="212.937959"/>
     <use style="fill:#ff7f0e;stroke:#ff7f0e;" x="218.75852" xlink:href="#m616c57ed2a" y="222.338174"/>
     <use style="fill:#ff7f0e;stroke:#ff7f0e;" x="226.258957" xlink:href="#m616c57ed2a" y="230.679603"/>
     <use style="fill:#ff7f0e;stroke:#ff7f0e;" x="236.16" xlink:href="#m616c57ed2a" y="237.2512"/>
     <use style="fill:#ff7f0e;stroke:#ff7f0e;" x="247.959603" xlink:href="#m616c57ed2a" y="241.446875"/>
     <use style="fill:#ff7f0e;stroke:#ff7f0e;" x="261.011889" xlink:href="#m616c57ed2a" y="242.808004"/>
     <use style="fill:#ff7f0e;stroke:#ff7f0e;" x="274.569959" xlink:href="#m616c57ed2a" y="241.056"/>
     <use style="fill:#ff7f0e;stroke:#ff7f0e;" x="287.835705" xlink:href="#m616c57ed2a" y="236.112707"/>
     <use style="fill:#ff7f0e;stroke:#ff7f0e;" x="300.013247" xlink:href="#m616c57ed2a" y="228.107236"/>
     <use style="fill:#ff7f0e;stroke:#ff7f0e;" x="310.362342" xlink:href="#m616c57ed2a" y="217.368742"/>
     <use style="fill:#ff7f0e;stroke:#ff7f0e;" x="318.248152" xlink:href="#m616c57ed2a" y="204.405644"/>
     <use style="fill:#ff7f0e;stroke:#ff7f0e;" x="323.183969" xlink:href="#m616c57ed2a" y="189.872674"/>
     <use style="fill:#ff7f0e;stroke:#ff7f0e;" x="324.864" xlink:href="#m616c57ed2a" y="174.528"/>
     <use style="fill:#ff7f0e;stroke:#ff7f0e;" x="323.183969" xlink:href="#m616c57ed2a" y="159.183326"/>
     <use style="fill:#ff7f0e;stroke:#ff7f0e;" x="318.248152" xlink:href="#m616c57ed2a" y="144.650356"/>
     <use style="fill:#ff7f0e;stroke:#ff7f0e;" x="310.362342" xlink:href="#m616c57ed2a" y="131.687258"/>
     <use style="fill:#ff7f0e;stroke:#ff7f0e;" x="300.013247" xlink:href="#m616c57ed2a" y="120.948764"/>
     <use style="fill:#ff7f0e;stroke:#ff7f0e;" x="287.835705" xlink:href="#m616c57ed2a" y="112.943293"/>
     <use style="fill:#ff7f0e;stroke:#ff7f0e;" x="274.569959" xlink:href="#m616c57ed2a" y="108"/>
     <use style="fill:#ff7f0e;stroke:#ff7f0e;" x="261.011889" xlink:href="#m616c57ed2a" y="106.247996"/>
     <use style="fill:#ff7f0e;stroke:#ff7f0e;" x="247.959603" xlink:href="#m616c57ed2a" y="107.609125"/>
     <use style="fill:#ff7f0e;stroke:#ff7f0e;" x="236.16" xlink:href="#m616c57ed2a" y="111.8048"/>
     <use style="fill:#ff7f0e;stroke:#ff7f0e;" x="226.258957" xlink:href="#m616c57ed2a" y="118.376397"/>
     <use style="fill:#ff7f0e;stroke:#ff7f0e;" x="218.75852" xlink:href="#m616c57ed2a" y="126.717826"/>
     <use style="fill:#ff7f0e;stroke:#ff7f0e;" x="213.984" xlink:href="#m616c57ed2a" y="136.118041"/>
     <use style="fill:#ff7f0e;stroke:#ff7f0e;" x="212.063223" xlink:href="#m616c57ed2a" y="145.810579"/>
     <use style="fill:#ff7f0e;stroke:#ff7f0e;" x="212.919319" xlink:href="#m616c57ed2a" y="155.026753"/>
     <use style="fill:#ff7f0e;stroke:#ff7f0e;" x="216.277542" xlink:href="#m616c57ed2a" y="163.048858"/>
     <use style="fill:#ff7f0e;stroke:#ff7f0e;" x="221.685644" xlink:href="#m616c57ed2a" y="169.259765"/>
     <use style="fill:#ff7f0e;stroke:#ff7f0e;" x="228.546389" xlink:href="#m616c57ed2a" y="173.185515"/>
     <use style="fill:#ff7f0e;stroke:#ff7f0e;" x="236.16" xlink:href="#m616c57ed2a" y="174.528"/>
     <use style="fill:#ff7f0e;stroke:#ff7f0e;" x="243.773611" xlink:href="#m616c57ed2a" y="173.185515"/>
     <use style="fill:#ff7f0e;stroke:#ff7f0e;" x="250.634356" xlink:href="#m616c57ed2a" y="169.259765"/>
     <use style="fill:#ff7f0e;stroke:#ff7f0e;" x="256.042458" xlink:href="#m616c57ed2a" y="163.048858"/>
     <use style="fill:#ff7f0e;stroke:#ff7f0e;" x="259.400681" xlink:href="#m616c57ed2a" y="155.026753"/>
     <use style="fill:#ff7f0e;stroke:#ff7f0e;" x="260.256777" xlink:href="#m616c57ed2a" y="145.810579"/>
     <use style="fill:#ff7f0e;stroke:#ff7f0e;" x="258.336" xlink:href="#m616c57ed2a" y="136.118041"/>
     <use style="fill:#ff7f0e;stroke:#ff7f0e;" x="253.56148" xlink:href="#m616c57ed2a" y="126.717826"/>
     <use style="fill:#ff7f0e;stroke:#ff7f0e;" x="246.061043" xlink:href="#m616c57ed2a" y="118.376397"/>
     <use style="fill:#ff7f0e;stroke:#ff7f0e;" x="236.16" xlink:href="#m616c57ed2a" y="111.8048"/>
     <use style="fill:#ff7f0e;stroke:#ff7f0e;" x="224.360397" xlink:href="#m616c57ed2a" y="107.609125"/>
     <use style="fill:#ff7f0e;stroke:#ff7f0e;" x="211.308111" xlink:href="#m616c57ed2a" y="106.247996"/>
     <use style="fill:#ff7f0e;stroke:#ff7f0e;" x="197.750041" xlink:href="#m616c57ed2a" y="108"/>
     <use style="fill:#ff7f0e;stroke:#ff7f0e;" x="184.484295" xlink:href="#m616c57ed2a" y="112.943293"/>
     <use style="fill:#ff7f0e;stroke:#ff7f0e;" x="172.306753" xlink:href="#m616c57ed2a" y="120.948764"/>
     <use style="fill:#ff7f0e;stroke:#ff7f0e;" x="161.957658" xlink:href="#m616c57ed2a" y="131.687258"/>
     <use style="fill:#ff7f0e;stroke:#ff7f0e;" x="154.071848" xlink:href="#m616c57ed2a" y="144.650356"/>
     <use style="fill:#ff7f0e;stroke:#ff7f0e;" x="149.136031" xlink:href="#m616c57ed2a" y="159.183326"/>
     <use style="fill:#ff7f0e;stroke:#ff7f0e;" x="147.456" xlink:href="#m616c57ed2a" y="174.528"/>
     <use style="fill:#ff7f0e;stroke:#ff7f0e;" x="149.136031" xlink:href="#m616c57ed2a" y="189.872674"/>
     <use style="fill:#ff7f0e;stroke:#ff7f0e;" x="154.071848" xlink:href="#m616c57ed2a" y="204.405644"/>
     <use style="fill:#ff7f0e;stroke:#ff7f0e;" x="161.957658" xlink:href="#m616c57ed2a" y="217.368742"/>
     <use style="fill:#ff7f0e;stroke:#ff7f0e;" x="172.306753" xlink:href="#m616c57ed2a" y="228.107236"/>
     <use style="fill:#ff7f0e;stroke:#ff7f0e;" x="184.484295" xlink:href="#m616c57ed2a" y="236.112707"/>
     <use style="fill:#ff7f0e;stroke:#ff7f0e;" x="197.750041" xlink:href="#m616c57ed2a" y="241.056"/>
     <use style="fill:#ff7f0e;stroke:#ff7f0e;" x="211.308111" xlink:href="#m616c57ed2a" y="242.808004"/>
     <use style="fill:#ff7f0e;stroke:#ff7f0e;" x="224.360397" xlink:href="#m616c57ed2a" y="241.446875"/>
     <use style="fill:#ff7f0e;stroke:#ff7f0e;" x="236.16" xlink:href="#m616c57ed2a" y="237.2512"/>
     <use style="fill:#ff7f0e;stroke:#ff7f0e;" x="246.061043" xlink:href="#m616c57ed2a" y="230.679603"/>
     <use style="fill:#ff7f0e;stroke:#ff7f0e;" x="253.56148" xlink:href="#m616c57ed2a" y="222.338174"/>
     <use style="fill:#ff7f0e;stroke:#ff7f0e;" x="258.336" xlink:href="#m616c57ed2a" y="212.937959"/>
     <use style="fill:#ff7f0e;stroke:#ff7f0e;" x="260.256777" xlink:href="#m616c57ed2a" y="203.245421"/>
     <use style="fill:#ff7f0e;stroke:#ff7f0e;" x="259.400681" xlink:href="#m616c57ed2a" y="194.029247"/>
     <use style="fill:#ff7f0e;stroke:#ff7f0e;" x="256.042458" xlink:href="#m616c57ed2a" y="186.007142"/>
     <use style="fill:#ff7f0e;stroke:#ff7f0e;" x="250.634356" xlink:href="#m616c57ed2a" y="179.796235"/>
     <use style="fill:#ff7f0e;stroke:#ff7f0e;" x="243.773611" xlink:href="#m616c57ed2a" y="175.870485"/>
     <use style="fill:#ff7f0e;stroke:#ff7f0e;" x="236.16" xlink:href="#m616c57ed2a" y="174.528"/>
    </g>
   </g>
   <g id="line2d_17">
    <path clip-path="url(#pa8986c4f45)" d="M 103.104 174.528 
L 369.216 174.528 
" style="fill:none;stroke:#000000;stroke-linecap:square;stroke-width:0.5;"/>
   </g>
   <g id="line2d_18">
    <path clip-path="url(#pa8986c4f45)" d="M 236.16 307.584 
L 236.16 41.472 
" style="fill:none;stroke:#000000;stroke-linecap:square;stroke-width:0.5;"/>
   </g>
   <g id="patch_3">
    <path d="M 103.104 307.584 
L 103.104 41.472 
" style="fill:none;stroke:#000000;stroke-linecap:square;stroke-linejoin:miter;stroke-width:0.8;"/>
   </g>
   <g id="patch_4">
    <path d="M 369.216 307.584 
L 369.216 41.472 
" style="fill:none;stroke:#000000;stroke-linecap:square;stroke-linejoin:miter;stroke-width:0.8;"/>
   </g>
   <g id="patch_5">
    <path d="M 103.104 307.584 
L 369.216 307.584 
" style="fill:none;stroke:#000000;stroke-linecap:square;stroke-linejoin:miter;stroke-width:0.8;"/>
   </g>
   <g id="patch_6">
    <path d="M 103.104 41.472 
L 369.216 41.472 
" style="fill:none;stroke:#000000;stroke-linecap:square;stroke-linejoin:miter;stroke-width:0.8;"/>
   </g>
   <g id="legend_1">
    <g id="patch_7">
     <path d="M 319.742563 78.82825 
L 362.216 78.82825 
Q 364.216 78.82825 364.216 76.82825 
L 364.216 48.472 
Q 364.216 46.472 362.216 46.472 
L 319.742563 46.472 
Q 317.742563 46.472 317.742563 48.472 
L 317.742563 76.82825 
Q 317.742563 78.82825 319.742563 78.82825 
z
" style="fill:#ffffff;opacity:0.8;stroke:#cccccc;stroke-linejoin:miter;"/>
    </g>
    <g id="line2d_19">
     <path d="M 321.742563 54.570437 
L 341.742563 54.570437 
" style="fill:none;stroke:#1f77b4;stroke-linecap:square;stroke-width:1.5;"/>
    </g>
    <g id="line2d_20"/>
    <g id="text_15">
     <!-- r6 -->
     <defs>
      <path d="M 41.109375 46.296875 
Q 39.59375 47.171875 37.8125 47.578125 
Q 36.03125 48 33.890625 48 
Q 26.265625 48 22.1875 43.046875 
Q 18.109375 38.09375 18.109375 28.8125 
L 18.109375 0 
L 9.078125 0 
L 9.078125 54.6875 
L 18.109375 54.6875 
L 18.109375 46.1875 
Q 20.953125 51.171875 25.484375 53.578125 
Q 30.03125 56 36.53125 56 
Q 37.453125 56 38.578125 55.875 
Q 39.703125 55.765625 41.0625 55.515625 
z
" id="DejaVuSans-72"/>
      <path d="M 33.015625 40.375 
Q 26.375 40.375 22.484375 35.828125 
Q 18.609375 31.296875 18.609375 23.390625 
Q 18.609375 15.53125 22.484375 10.953125 
Q 26.375 6.390625 33.015625 6.390625 
Q 39.65625 6.390625 43.53125 10.953125 
Q 47.40625 15.53125 47.40625 23.390625 
Q 47.40625 31.296875 43.53125 35.828125 
Q 39.65625 40.375 33.015625 40.375 
z
M 52.59375 71.296875 
L 52.59375 62.3125 
Q 48.875 64.0625 45.09375 64.984375 
Q 41.3125 65.921875 37.59375 65.921875 
Q 27.828125 65.921875 22.671875 59.328125 
Q 17.53125 52.734375 16.796875 39.40625 
Q 19.671875 43.65625 24.015625 45.921875 
Q 28.375 48.1875 33.59375 48.1875 
Q 44.578125 48.1875 50.953125 41.515625 
Q 57.328125 34.859375 57.328125 23.390625 
Q 57.328125 12.15625 50.6875 5.359375 
Q 44.046875 -1.421875 33.015625 -1.421875 
Q 20.359375 -1.421875 13.671875 8.265625 
Q 6.984375 17.96875 6.984375 36.375 
Q 6.984375 53.65625 15.1875 63.9375 
Q 23.390625 74.21875 37.203125 74.21875 
Q 40.921875 74.21875 44.703125 73.484375 
Q 48.484375 72.75 52.59375 71.296875 
z
" id="DejaVuSans-36"/>
     </defs>
     <g transform="translate(349.742563 58.070437)scale(0.1 -0.1)">
      <use xlink:href="#DejaVuSans-72"/>
      <use x="41.113281" xlink:href="#DejaVuSans-36"/>
     </g>
    </g>
    <g id="line2d_21"/>
    <g id="line2d_22">
     <g>
      <use style="fill:#ff7f0e;stroke:#ff7f0e;" x="331.742563" xlink:href="#m616c57ed2a" y="69.248562"/>
     </g>
    </g>
    <g id="text_16">
     <!-- r7 -->
     <defs>
      <path d="M 8.203125 72.90625 
L 55.078125 72.90625 
L 55.078125 68.703125 
L 28.609375 0 
L 18.3125 0 
L 43.21875 64.59375 
L 8.203125 64.59375 
z
" id="DejaVuSans-37"/>
     </defs>
     <g transform="translate(349.742563 72.748562)scale(0.1 -0.1)">
      <use xlink:href="#DejaVuSans-72"/>
      <use x="41.113281" xlink:href="#DejaVuSans-37"/>
     </g>
    </g>
   </g>
  </g>
 </g>
 <defs>
  <clipPath id="pa8986c4f45">
   <rect height="266.112" width="266.112" x="103.104" y="41.472"/>
  </clipPath>
 </defs>
</svg>
