<?xml version="1.0" encoding="utf-8" standalone="no"?>
<!DOCTYPE svg PUBLIC "-//W3C//DTD SVG 1.1//EN"
  "http://www.w3.org/Graphics/SVG/1.1/DTD/svg11.dtd">
<!-- Created with matplotlib (http://matplotlib.org/) -->
<svg height="345.6pt" version="1.1" viewBox="0 0 460.8 345.6" width="460.8pt" xmlns="http://www.w3.org/2000/svg" xmlns:xlink="http://www.w3.org/1999/xlink">
 <defs>
  <style type="text/css">
*{stroke-linecap:butt;stroke-linejoin:round;}
  </style>
 </defs>
 <g id="figure_1">
  <g id="patch_1">
   <path d="M 0 345.6 
L 460.8 345.6 
L 460.8 0 
L 0 0 
z
" style="fill:#ffffff;"/>
  </g>
  <g id="axes_1">
   <g id="patch_2">
    <path d="M 122.112 307.584 
L 350.208 307.584 
L 350.208 41.472 
L 122.112 41.472 
z
" style="fill:#ffffff;"/>
   </g>
   <g id="matplotlib.axis_1">
    <g id="xtick_1">
     <g id="line2d_1">
      <defs>
       <path d="M 0 0 
L 0 3.5 
" id="m28bb77342d" style="stroke:#000000;stroke-width:0.8;"/>
      </defs>
      <g>
       <use style="stroke:#000000;stroke-width:0.8;" x="122.112" xlink:href="#m28bb77342d" y="307.584"/>
      </g>
     </g>
     <g id="text_1">
      <!-- −3 -->
      <defs>
       <path d="M 10.59375 35.5 
L 73.1875 35.5 
L 73.1875 27.203125 
L 10.59375 27.203125 
z
" id="DejaVuSans-2212"/>
       <path d="M 40.578125 39.3125 
Q 47.65625 37.796875 51.625 33 
Q 55.609375 28.21875 55.609375 21.1875 
Q 55.609375 10.40625 48.1875 4.484375 
Q 40.765625 -1.421875 27.09375 -1.421875 
Q 22.515625 -1.421875 17.65625 -0.515625 
Q 12.796875 0.390625 7.625 2.203125 
L 7.625 11.71875 
Q 11.71875 9.328125 16.59375 8.109375 
Q 21.484375 6.890625 26.8125 6.890625 
Q 36.078125 6.890625 40.9375 10.546875 
Q 45.796875 14.203125 45.796875 21.1875 
Q 45.796875 27.640625 41.28125 31.265625 
Q 36.765625 34.90625 28.71875 34.90625 
L 20.21875 34.90625 
L 20.21875 43.015625 
L 29.109375 43.015625 
Q 36.375 43.015625 40.234375 45.921875 
Q 44.09375 48.828125 44.09375 54.296875 
Q 44.09375 59.90625 40.109375 62.90625 
Q 36.140625 65.921875 28.71875 65.921875 
Q 24.65625 65.921875 20.015625 65.03125 
Q 15.375 64.15625 9.8125 62.3125 
L 9.8125 71.09375 
Q 15.4375 72.65625 20.34375 73.4375 
Q 25.25 74.21875 29.59375 74.21875 
Q 40.828125 74.21875 47.359375 69.109375 
Q 53.90625 64.015625 53.90625 55.328125 
Q 53.90625 49.265625 50.4375 45.09375 
Q 46.96875 40.921875 40.578125 39.3125 
z
" id="DejaVuSans-33"/>
      </defs>
      <g transform="translate(114.740906 322.182437)scale(0.1 -0.1)">
       <use xlink:href="#DejaVuSans-2212"/>
       <use x="83.789062" xlink:href="#DejaVuSans-33"/>
      </g>
     </g>
    </g>
    <g id="xtick_2">
     <g id="line2d_2">
      <g>
       <use style="stroke:#000000;stroke-width:0.8;" x="160.128" xlink:href="#m28bb77342d" y="307.584"/>
      </g>
     </g>
     <g id="text_2">
      <!-- −2 -->
      <defs>
       <path d="M 19.1875 8.296875 
L 53.609375 8.296875 
L 53.609375 0 
L 7.328125 0 
L 7.328125 8.296875 
Q 12.9375 14.109375 22.625 23.890625 
Q 32.328125 33.6875 34.8125 36.53125 
Q 39.546875 41.84375 41.421875 45.53125 
Q 43.3125 49.21875 43.3125 52.78125 
Q 43.3125 58.59375 39.234375 62.25 
Q 35.15625 65.921875 28.609375 65.921875 
Q 23.96875 65.921875 18.8125 64.3125 
Q 13.671875 62.703125 7.8125 59.421875 
L 7.8125 69.390625 
Q 13.765625 71.78125 18.9375 73 
Q 24.125 74.21875 28.421875 74.21875 
Q 39.75 74.21875 46.484375 68.546875 
Q 53.21875 62.890625 53.21875 53.421875 
Q 53.21875 48.921875 51.53125 44.890625 
Q 49.859375 40.875 45.40625 35.40625 
Q 44.1875 33.984375 37.640625 27.21875 
Q 31.109375 20.453125 19.1875 8.296875 
z
" id="DejaVuSans-32"/>
      </defs>
      <g transform="translate(152.756906 322.182437)scale(0.1 -0.1)">
       <use xlink:href="#DejaVuSans-2212"/>
       <use x="83.789062" xlink:href="#DejaVuSans-32"/>
      </g>
     </g>
    </g>
    <g id="xtick_3">
     <g id="line2d_3">
      <g>
       <use style="stroke:#000000;stroke-width:0.8;" x="198.144" xlink:href="#m28bb77342d" y="307.584"/>
      </g>
     </g>
     <g id="text_3">
      <!-- −1 -->
      <defs>
       <path d="M 12.40625 8.296875 
L 28.515625 8.296875 
L 28.515625 63.921875 
L 10.984375 60.40625 
L 10.984375 69.390625 
L 28.421875 72.90625 
L 38.28125 72.90625 
L 38.28125 8.296875 
L 54.390625 8.296875 
L 54.390625 0 
L 12.40625 0 
z
" id="DejaVuSans-31"/>
      </defs>
      <g transform="translate(190.772906 322.182437)scale(0.1 -0.1)">
       <use xlink:href="#DejaVuSans-2212"/>
       <use x="83.789062" xlink:href="#DejaVuSans-31"/>
      </g>
     </g>
    </g>
    <g id="xtick_4">
     <g id="line2d_4">
      <g>
       <use style="stroke:#000000;stroke-width:0.8;" x="236.16" xlink:href="#m28bb77342d" y="307.584"/>
      </g>
     </g>
     <g id="text_4">
      <!-- 0 -->
      <defs>
       <path d="M 31.78125 66.40625 
Q 24.171875 66.40625 20.328125 58.90625 
Q 16.5 51.421875 16.5 36.375 
Q 16.5 21.390625 20.328125 13.890625 
Q 24.171875 6.390625 31.78125 6.390625 
Q 39.453125 6.390625 43.28125 13.890625 
Q 47.125 21.390625 47.125 36.375 
Q 47.125 51.421875 43.28125 58.90625 
Q 39.453125 66.40625 31.78125 66.40625 
z
M 31.78125 74.21875 
Q 44.046875 74.21875 50.515625 64.515625 
Q 56.984375 54.828125 56.984375 36.375 
Q 56.984375 17.96875 50.515625 8.265625 
Q 44.046875 -1.421875 31.78125 -1.421875 
Q 19.53125 -1.421875 13.0625 8.265625 
Q 6.59375 17.96875 6.59375 36.375 
Q 6.59375 54.828125 13.0625 64.515625 
Q 19.53125 74.21875 31.78125 74.21875 
z
" id="DejaVuSans-30"/>
      </defs>
      <g transform="translate(232.97875 322.182437)scale(0.1 -0.1)">
       <use xlink:href="#DejaVuSans-30"/>
      </g>
     </g>
    </g>
    <g id="xtick_5">
     <g id="line2d_5">
      <g>
       <use style="stroke:#000000;stroke-width:0.8;" x="274.176" xlink:href="#m28bb77342d" y="307.584"/>
      </g>
     </g>
     <g id="text_5">
      <!-- 1 -->
      <g transform="translate(270.99475 322.182437)scale(0.1 -0.1)">
       <use xlink:href="#DejaVuSans-31"/>
      </g>
     </g>
    </g>
    <g id="xtick_6">
     <g id="line2d_6">
      <g>
       <use style="stroke:#000000;stroke-width:0.8;" x="312.192" xlink:href="#m28bb77342d" y="307.584"/>
      </g>
     </g>
     <g id="text_6">
      <!-- 2 -->
      <g transform="translate(309.01075 322.182437)scale(0.1 -0.1)">
       <use xlink:href="#DejaVuSans-32"/>
      </g>
     </g>
    </g>
    <g id="xtick_7">
     <g id="line2d_7">
      <g>
       <use style="stroke:#000000;stroke-width:0.8;" x="350.208" xlink:href="#m28bb77342d" y="307.584"/>
      </g>
     </g>
     <g id="text_7">
      <!-- 3 -->
      <g transform="translate(347.02675 322.182437)scale(0.1 -0.1)">
       <use xlink:href="#DejaVuSans-33"/>
      </g>
     </g>
    </g>
   </g>
   <g id="matplotlib.axis_2">
    <g id="ytick_1">
     <g id="line2d_8">
      <defs>
       <path d="M 0 0 
L -3.5 0 
" id="m73bd41c875" style="stroke:#000000;stroke-width:0.8;"/>
      </defs>
      <g>
       <use style="stroke:#000000;stroke-width:0.8;" x="122.112" xlink:href="#m73bd41c875" y="307.584"/>
      </g>
     </g>
     <g id="text_8">
      <!-- −2 -->
      <g transform="translate(100.369813 311.383219)scale(0.1 -0.1)">
       <use xlink:href="#DejaVuSans-2212"/>
       <use x="83.789062" xlink:href="#DejaVuSans-32"/>
      </g>
     </g>
    </g>
    <g id="ytick_2">
     <g id="line2d_9">
      <g>
       <use style="stroke:#000000;stroke-width:0.8;" x="122.112" xlink:href="#m73bd41c875" y="269.568"/>
      </g>
     </g>
     <g id="text_9">
      <!-- −1 -->
      <g transform="translate(100.369813 273.367219)scale(0.1 -0.1)">
       <use xlink:href="#DejaVuSans-2212"/>
       <use x="83.789062" xlink:href="#DejaVuSans-31"/>
      </g>
     </g>
    </g>
    <g id="ytick_3">
     <g id="line2d_10">
      <g>
       <use style="stroke:#000000;stroke-width:0.8;" x="122.112" xlink:href="#m73bd41c875" y="231.552"/>
      </g>
     </g>
     <g id="text_10">
      <!-- 0 -->
      <g transform="translate(108.7495 235.351219)scale(0.1 -0.1)">
       <use xlink:href="#DejaVuSans-30"/>
      </g>
     </g>
    </g>
    <g id="ytick_4">
     <g id="line2d_11">
      <g>
       <use style="stroke:#000000;stroke-width:0.8;" x="122.112" xlink:href="#m73bd41c875" y="193.536"/>
      </g>
     </g>
     <g id="text_11">
      <!-- 1 -->
      <g transform="translate(108.7495 197.335219)scale(0.1 -0.1)">
       <use xlink:href="#DejaVuSans-31"/>
      </g>
     </g>
    </g>
    <g id="ytick_5">
     <g id="line2d_12">
      <g>
       <use style="stroke:#000000;stroke-width:0.8;" x="122.112" xlink:href="#m73bd41c875" y="155.52"/>
      </g>
     </g>
     <g id="text_12">
      <!-- 2 -->
      <g transform="translate(108.7495 159.319219)scale(0.1 -0.1)">
       <use xlink:href="#DejaVuSans-32"/>
      </g>
     </g>
    </g>
    <g id="ytick_6">
     <g id="line2d_13">
      <g>
       <use style="stroke:#000000;stroke-width:0.8;" x="122.112" xlink:href="#m73bd41c875" y="117.504"/>
      </g>
     </g>
     <g id="text_13">
      <!-- 3 -->
      <g transform="translate(108.7495 121.303219)scale(0.1 -0.1)">
       <use xlink:href="#DejaVuSans-33"/>
      </g>
     </g>
    </g>
    <g id="ytick_7">
     <g id="line2d_14">
      <g>
       <use style="stroke:#000000;stroke-width:0.8;" x="122.112" xlink:href="#m73bd41c875" y="79.488"/>
      </g>
     </g>
     <g id="text_14">
      <!-- 4 -->
      <defs>
       <path d="M 37.796875 64.3125 
L 12.890625 25.390625 
L 37.796875 25.390625 
z
M 35.203125 72.90625 
L 47.609375 72.90625 
L 47.609375 25.390625 
L 58.015625 25.390625 
L 58.015625 17.1875 
L 47.609375 17.1875 
L 47.609375 0 
L 37.796875 0 
L 37.796875 17.1875 
L 4.890625 17.1875 
L 4.890625 26.703125 
z
" id="DejaVuSans-34"/>
      </defs>
      <g transform="translate(108.7495 83.287219)scale(0.1 -0.1)">
       <use xlink:href="#DejaVuSans-34"/>
      </g>
     </g>
    </g>
    <g id="ytick_8">
     <g id="line2d_15">
      <g>
       <use style="stroke:#000000;stroke-width:0.8;" x="122.112" xlink:href="#m73bd41c875" y="41.472"/>
      </g>
     </g>
     <g id="text_15">
      <!-- 5 -->
      <defs>
       <path d="M 10.796875 72.90625 
L 49.515625 72.90625 
L 49.515625 64.59375 
L 19.828125 64.59375 
L 19.828125 46.734375 
Q 21.96875 47.46875 24.109375 47.828125 
Q 26.265625 48.1875 28.421875 48.1875 
Q 40.625 48.1875 47.75 41.5 
Q 54.890625 34.8125 54.890625 23.390625 
Q 54.890625 11.625 47.5625 5.09375 
Q 40.234375 -1.421875 26.90625 -1.421875 
Q 22.3125 -1.421875 17.546875 -0.640625 
Q 12.796875 0.140625 7.71875 1.703125 
L 7.71875 11.625 
Q 12.109375 9.234375 16.796875 8.0625 
Q 21.484375 6.890625 26.703125 6.890625 
Q 35.15625 6.890625 40.078125 11.328125 
Q 45.015625 15.765625 45.015625 23.390625 
Q 45.015625 31 40.078125 35.4375 
Q 35.15625 39.890625 26.703125 39.890625 
Q 22.75 39.890625 18.8125 39.015625 
Q 14.890625 38.140625 10.796875 36.28125 
z
" id="DejaVuSans-35"/>
      </defs>
      <g transform="translate(108.7495 45.271219)scale(0.1 -0.1)">
       <use xlink:href="#DejaVuSans-35"/>
      </g>
     </g>
    </g>
   </g>
   <g id="line2d_16">
    <path clip-path="url(#p786d588b63)" d="M 312.192 231.552 
L 315.432947 228.090868 
L 318.504084 224.347826 
L 321.380801 220.332469 
L 324.039141 216.056536 
L 326.455994 211.53386 
L 328.609272 206.780292 
L 330.478089 201.813621 
L 332.042923 196.65347 
L 333.28578 191.321185 
L 334.190339 185.839702 
L 334.742092 180.233411 
L 334.928465 174.528 
L 334.738935 168.750292 
L 334.165123 162.928074 
L 333.200877 157.089916 
L 331.842343 151.264982 
L 330.088008 145.482838 
L 327.938743 139.773257 
L 325.397812 134.166017 
L 322.470879 128.6907 
L 319.165985 123.376494 
L 315.493518 118.251994 
L 311.466161 113.345006 
L 307.098822 108.682356 
L 302.408555 104.289711 
L 297.414457 100.191393 
L 292.137558 96.41022 
L 286.600689 92.967345 
L 280.828345 89.882109 
L 274.84653 87.171906 
L 268.682593 84.852065 
L 262.365056 82.935742 
L 255.923432 81.433828 
L 249.388035 80.354873 
L 242.789782 79.705028 
L 236.16 79.488 
L 229.530218 79.705028 
L 222.931965 80.354873 
L 216.396568 81.433828 
L 209.954944 82.935742 
L 203.637407 84.852065 
L 197.47347 87.171906 
L 191.491655 89.882109 
L 185.719311 92.967345 
L 180.182442 96.41022 
L 174.905543 100.191393 
L 169.911445 104.289711 
L 165.221178 108.682356 
L 160.853839 113.345006 
L 156.826482 118.251994 
L 153.154015 123.376494 
L 149.849121 128.6907 
L 146.922188 134.166017 
L 144.381257 139.773257 
L 142.231992 145.482838 
L 140.477657 151.264982 
L 139.119123 157.089916 
L 138.154877 162.928074 
L 137.581065 168.750292 
L 137.391535 174.528 
L 137.577908 180.233411 
L 138.129661 185.839702 
L 139.03422 191.321185 
L 140.277077 196.65347 
L 141.841911 201.813621 
L 143.710728 206.780292 
L 145.864006 211.53386 
L 148.280859 216.056536 
L 150.939199 220.332469 
L 153.815916 224.347826 
L 156.887053 228.090868 
L 160.128 231.552 
L 163.513678 234.723807 
L 167.018734 237.601077 
L 170.617729 240.180804 
L 174.285335 242.462173 
L 177.996518 244.446534 
L 181.726728 246.137351 
L 185.452075 247.540147 
L 189.149504 248.662421 
L 192.796963 249.513558 
L 196.373552 250.104725 
L 199.859676 250.448752 
L 203.237178 250.56 
L 206.489458 250.45422 
L 209.601586 250.148401 
L 212.560395 249.660614 
L 215.35456 249.009837 
L 217.974667 248.215787 
L 220.413257 247.298743 
L 222.664863 246.279358 
L 224.726024 245.178482 
L 226.595287 244.016976 
L 228.273191 242.81553 
L 229.762233 241.594483 
L 232.193214 239.172126 
L 233.945185 236.899037 
L 235.101818 234.908123 
L 235.769919 233.311541 
L 236.134784 231.840224 
L 236.16 231.552 
L 236.185216 231.840224 
L 236.36058 232.689548 
L 236.83053 234.054451 
L 237.728262 235.860764 
L 239.170566 238.00818 
L 241.253178 240.373644 
L 242.557767 241.594483 
L 244.046809 242.81553 
L 245.724713 244.016976 
L 247.593976 245.178482 
L 249.655137 246.279358 
L 251.906743 247.298743 
L 254.345333 248.215787 
L 256.96544 249.009837 
L 259.759605 249.660614 
L 262.718414 250.148401 
L 265.830542 250.45422 
L 269.082822 250.56 
L 272.460324 250.448752 
L 275.946448 250.104725 
L 279.523037 249.513558 
L 283.170496 248.662421 
L 286.867925 247.540147 
L 290.593272 246.137351 
L 294.323482 244.446534 
L 298.034665 242.462173 
L 301.702271 240.180804 
L 305.301266 237.601077 
L 308.806322 234.723807 
L 312.192 231.552 
L 312.192 231.552 
" style="fill:none;stroke:#1f77b4;stroke-linecap:square;stroke-width:1.5;"/>
   </g>
   <g id="line2d_17">
    <path clip-path="url(#p786d588b63)" d="M 293.184 231.552 
L 294.786382 228.992317 
L 296.267711 226.293257 
L 297.615784 223.461193 
L 298.818796 220.503564 
L 299.865431 217.428846 
L 300.744954 214.246514 
L 301.447296 210.966995 
L 301.963139 207.601616 
L 302.283992 204.162546 
L 302.402268 200.662723 
L 302.311348 197.115788 
L 302.005644 193.536 
L 301.480652 189.938155 
L 300.733004 186.337496 
L 299.760499 182.749621 
L 298.562144 179.190384 
L 297.138172 175.6758 
L 295.490057 172.221943 
L 293.620525 168.844841 
L 291.533546 165.560377 
L 289.23433 162.384187 
L 286.7293 159.331555 
L 284.026071 156.417318 
L 281.133411 153.655767 
L 278.061195 151.060553 
L 274.820357 148.644598 
L 271.422826 146.420008 
L 267.881464 144.397995 
L 264.209988 142.588803 
L 260.422897 141.001635 
L 256.53538 139.644598 
L 252.563233 138.524645 
L 248.522758 137.64753 
L 244.430674 137.017768 
L 240.304008 136.638605 
L 236.16 136.512 
L 232.015992 136.638605 
L 227.889326 137.017768 
L 223.797242 137.64753 
L 219.756767 138.524645 
L 215.78462 139.644598 
L 211.897103 141.001635 
L 208.110012 142.588803 
L 204.438536 144.397995 
L 200.897174 146.420008 
L 197.499643 148.644598 
L 194.258805 151.060553 
L 191.186589 153.655767 
L 188.293929 156.417318 
L 185.5907 159.331555 
L 183.08567 162.384187 
L 180.786454 165.560377 
L 178.699475 168.844841 
L 176.829943 172.221943 
L 175.181828 175.6758 
L 173.757856 179.190384 
L 172.559501 182.749621 
L 171.586996 186.337496 
L 170.839348 189.938155 
L 170.314356 193.536 
L 170.008652 197.115788 
L 169.917732 200.662723 
L 170.036008 204.162546 
L 170.356861 207.601616 
L 170.872704 210.966995 
L 171.575046 214.246514 
L 172.454569 217.428846 
L 173.501204 220.503564 
L 174.704216 223.461193 
L 176.052289 226.293257 
L 177.533618 228.992317 
L 179.136 231.552 
L 180.846931 233.967021 
L 182.653698 236.233195 
L 184.543481 238.347444 
L 186.503442 240.307791 
L 188.520824 242.113351 
L 190.583046 243.764308 
L 192.677786 245.26189 
L 194.793075 246.608329 
L 196.917379 247.806826 
L 199.039678 248.861491 
L 201.149536 249.777294 
L 205.293545 251.216101 
L 209.280137 252.177644 
L 213.053166 252.725512 
L 216.570813 252.929846 
L 219.806306 252.864548 
L 222.748126 252.604426 
L 226.621589 252.007188 
L 233.636507 250.719834 
L 236.16 250.56 
L 238.683493 250.719834 
L 241.414897 251.163543 
L 248.210589 252.424233 
L 251.005945 252.754207 
L 254.095095 252.926214 
L 257.474057 252.866057 
L 261.123693 252.499025 
L 265.009649 251.752742 
L 269.082822 250.56 
L 271.170464 249.777294 
L 273.280322 248.861491 
L 275.402621 247.806826 
L 277.526925 246.608329 
L 279.642214 245.26189 
L 281.736954 243.764308 
L 283.799176 242.113351 
L 285.816558 240.307791 
L 287.776519 238.347444 
L 289.666302 236.233195 
L 291.473069 233.967021 
L 293.184 231.552 
L 293.184 231.552 
" style="fill:none;stroke:#ff7f0e;stroke-linecap:square;stroke-width:1.5;"/>
   </g>
   <g id="line2d_18">
    <path clip-path="url(#p786d588b63)" d="M 122.112 231.552 
L 350.208 231.552 
" style="fill:none;stroke:#000000;stroke-linecap:square;stroke-width:0.5;"/>
   </g>
   <g id="line2d_19">
    <path clip-path="url(#p786d588b63)" d="M 236.16 307.584 
L 236.16 41.472 
" style="fill:none;stroke:#000000;stroke-linecap:square;stroke-width:0.5;"/>
   </g>
   <g id="patch_3">
    <path d="M 122.112 307.584 
L 122.112 41.472 
" style="fill:none;stroke:#000000;stroke-linecap:square;stroke-linejoin:miter;stroke-width:0.8;"/>
   </g>
   <g id="patch_4">
    <path d="M 350.208 307.584 
L 350.208 41.472 
" style="fill:none;stroke:#000000;stroke-linecap:square;stroke-linejoin:miter;stroke-width:0.8;"/>
   </g>
   <g id="patch_5">
    <path d="M 122.112 307.584 
L 350.208 307.584 
" style="fill:none;stroke:#000000;stroke-linecap:square;stroke-linejoin:miter;stroke-width:0.8;"/>
   </g>
   <g id="patch_6">
    <path d="M 122.112 41.472 
L 350.208 41.472 
" style="fill:none;stroke:#000000;stroke-linecap:square;stroke-linejoin:miter;stroke-width:0.8;"/>
   </g>
   <g id="legend_1">
    <g id="patch_7">
     <path d="M 300.734563 78.82825 
L 343.208 78.82825 
Q 345.208 78.82825 345.208 76.82825 
L 345.208 48.472 
Q 345.208 46.472 343.208 46.472 
L 300.734563 46.472 
Q 298.734563 46.472 298.734563 48.472 
L 298.734563 76.82825 
Q 298.734563 78.82825 300.734563 78.82825 
z
" style="fill:#ffffff;opacity:0.8;stroke:#cccccc;stroke-linejoin:miter;"/>
    </g>
    <g id="line2d_20">
     <path d="M 302.734563 54.570437 
L 322.734563 54.570437 
" style="fill:none;stroke:#1f77b4;stroke-linecap:square;stroke-width:1.5;"/>
    </g>
    <g id="line2d_21"/>
    <g id="text_16">
     <!-- r2 -->
     <defs>
      <path d="M 41.109375 46.296875 
Q 39.59375 47.171875 37.8125 47.578125 
Q 36.03125 48 33.890625 48 
Q 26.265625 48 22.1875 43.046875 
Q 18.109375 38.09375 18.109375 28.8125 
L 18.109375 0 
L 9.078125 0 
L 9.078125 54.6875 
L 18.109375 54.6875 
L 18.109375 46.1875 
Q 20.953125 51.171875 25.484375 53.578125 
Q 30.03125 56 36.53125 56 
Q 37.453125 56 38.578125 55.875 
Q 39.703125 55.765625 41.0625 55.515625 
z
" id="DejaVuSans-72"/>
     </defs>
     <g transform="translate(330.734563 58.070437)scale(0.1 -0.1)">
      <use xlink:href="#DejaVuSans-72"/>
      <use x="41.113281" xlink:href="#DejaVuSans-32"/>
     </g>
    </g>
    <g id="line2d_22">
     <path d="M 302.734563 69.248562 
L 322.734563 69.248562 
" style="fill:none;stroke:#ff7f0e;stroke-linecap:square;stroke-width:1.5;"/>
    </g>
    <g id="line2d_23"/>
    <g id="text_17">
     <!-- r3 -->
     <g transform="translate(330.734563 72.748562)scale(0.1 -0.1)">
      <use xlink:href="#DejaVuSans-72"/>
      <use x="41.113281" xlink:href="#DejaVuSans-33"/>
     </g>
    </g>
   </g>
  </g>
 </g>
 <defs>
  <clipPath id="p786d588b63">
   <rect height="266.112" width="228.096" x="122.112" y="41.472"/>
  </clipPath>
 </defs>
</svg>
