<?xml version="1.0" encoding="utf-8" standalone="no"?>
<!DOCTYPE svg PUBLIC "-//W3C//DTD SVG 1.1//EN"
  "http://www.w3.org/Graphics/SVG/1.1/DTD/svg11.dtd">
<!-- Created with matplotlib (http://matplotlib.org/) -->
<svg height="345.6pt" version="1.1" viewBox="0 0 460.8 345.6" width="460.8pt" xmlns="http://www.w3.org/2000/svg" xmlns:xlink="http://www.w3.org/1999/xlink">
 <defs>
  <style type="text/css">
*{stroke-linecap:butt;stroke-linejoin:round;}
  </style>
 </defs>
 <g id="figure_1">
  <g id="patch_1">
   <path d="M 0 345.6 
L 460.8 345.6 
L 460.8 0 
L 0 0 
z
" style="fill:#ffffff;"/>
  </g>
  <g id="axes_1">
   <g id="patch_2">
    <path d="M 103.104 307.584 
L 369.216 307.584 
L 369.216 41.472 
L 103.104 41.472 
z
" style="fill:#ffffff;"/>
   </g>
   <g id="matplotlib.axis_1">
    <g id="xtick_1">
     <g id="line2d_1">
      <defs>
       <path d="M 0 0 
L 0 3.5 
" id="m83c6487d09" style="stroke:#000000;stroke-width:0.8;"/>
      </defs>
      <g>
       <use style="stroke:#000000;stroke-width:0.8;" x="103.104" xlink:href="#m83c6487d09" y="307.584"/>
      </g>
     </g>
     <g id="text_1">
      <!-- −4 -->
      <defs>
       <path d="M 10.59375 35.5 
L 73.1875 35.5 
L 73.1875 27.203125 
L 10.59375 27.203125 
z
" id="DejaVuSans-2212"/>
       <path d="M 37.796875 64.3125 
L 12.890625 25.390625 
L 37.796875 25.390625 
z
M 35.203125 72.90625 
L 47.609375 72.90625 
L 47.609375 25.390625 
L 58.015625 25.390625 
L 58.015625 17.1875 
L 47.609375 17.1875 
L 47.609375 0 
L 37.796875 0 
L 37.796875 17.1875 
L 4.890625 17.1875 
L 4.890625 26.703125 
z
" id="DejaVuSans-34"/>
      </defs>
      <g transform="translate(95.732906 322.182437)scale(0.1 -0.1)">
       <use xlink:href="#DejaVuSans-2212"/>
       <use x="83.789062" xlink:href="#DejaVuSans-34"/>
      </g>
     </g>
    </g>
    <g id="xtick_2">
     <g id="line2d_2">
      <g>
       <use style="stroke:#000000;stroke-width:0.8;" x="136.368" xlink:href="#m83c6487d09" y="307.584"/>
      </g>
     </g>
     <g id="text_2">
      <!-- −3 -->
      <defs>
       <path d="M 40.578125 39.3125 
Q 47.65625 37.796875 51.625 33 
Q 55.609375 28.21875 55.609375 21.1875 
Q 55.609375 10.40625 48.1875 4.484375 
Q 40.765625 -1.421875 27.09375 -1.421875 
Q 22.515625 -1.421875 17.65625 -0.515625 
Q 12.796875 0.390625 7.625 2.203125 
L 7.625 11.71875 
Q 11.71875 9.328125 16.59375 8.109375 
Q 21.484375 6.890625 26.8125 6.890625 
Q 36.078125 6.890625 40.9375 10.546875 
Q 45.796875 14.203125 45.796875 21.1875 
Q 45.796875 27.640625 41.28125 31.265625 
Q 36.765625 34.90625 28.71875 34.90625 
L 20.21875 34.90625 
L 20.21875 43.015625 
L 29.109375 43.015625 
Q 36.375 43.015625 40.234375 45.921875 
Q 44.09375 48.828125 44.09375 54.296875 
Q 44.09375 59.90625 40.109375 62.90625 
Q 36.140625 65.921875 28.71875 65.921875 
Q 24.65625 65.921875 20.015625 65.03125 
Q 15.375 64.15625 9.8125 62.3125 
L 9.8125 71.09375 
Q 15.4375 72.65625 20.34375 73.4375 
Q 25.25 74.21875 29.59375 74.21875 
Q 40.828125 74.21875 47.359375 69.109375 
Q 53.90625 64.015625 53.90625 55.328125 
Q 53.90625 49.265625 50.4375 45.09375 
Q 46.96875 40.921875 40.578125 39.3125 
z
" id="DejaVuSans-33"/>
      </defs>
      <g transform="translate(128.996906 322.182437)scale(0.1 -0.1)">
       <use xlink:href="#DejaVuSans-2212"/>
       <use x="83.789062" xlink:href="#DejaVuSans-33"/>
      </g>
     </g>
    </g>
    <g id="xtick_3">
     <g id="line2d_3">
      <g>
       <use style="stroke:#000000;stroke-width:0.8;" x="169.632" xlink:href="#m83c6487d09" y="307.584"/>
      </g>
     </g>
     <g id="text_3">
      <!-- −2 -->
      <defs>
       <path d="M 19.1875 8.296875 
L 53.609375 8.296875 
L 53.609375 0 
L 7.328125 0 
L 7.328125 8.296875 
Q 12.9375 14.109375 22.625 23.890625 
Q 32.328125 33.6875 34.8125 36.53125 
Q 39.546875 41.84375 41.421875 45.53125 
Q 43.3125 49.21875 43.3125 52.78125 
Q 43.3125 58.59375 39.234375 62.25 
Q 35.15625 65.921875 28.609375 65.921875 
Q 23.96875 65.921875 18.8125 64.3125 
Q 13.671875 62.703125 7.8125 59.421875 
L 7.8125 69.390625 
Q 13.765625 71.78125 18.9375 73 
Q 24.125 74.21875 28.421875 74.21875 
Q 39.75 74.21875 46.484375 68.546875 
Q 53.21875 62.890625 53.21875 53.421875 
Q 53.21875 48.921875 51.53125 44.890625 
Q 49.859375 40.875 45.40625 35.40625 
Q 44.1875 33.984375 37.640625 27.21875 
Q 31.109375 20.453125 19.1875 8.296875 
z
" id="DejaVuSans-32"/>
      </defs>
      <g transform="translate(162.260906 322.182437)scale(0.1 -0.1)">
       <use xlink:href="#DejaVuSans-2212"/>
       <use x="83.789062" xlink:href="#DejaVuSans-32"/>
      </g>
     </g>
    </g>
    <g id="xtick_4">
     <g id="line2d_4">
      <g>
       <use style="stroke:#000000;stroke-width:0.8;" x="202.896" xlink:href="#m83c6487d09" y="307.584"/>
      </g>
     </g>
     <g id="text_4">
      <!-- −1 -->
      <defs>
       <path d="M 12.40625 8.296875 
L 28.515625 8.296875 
L 28.515625 63.921875 
L 10.984375 60.40625 
L 10.984375 69.390625 
L 28.421875 72.90625 
L 38.28125 72.90625 
L 38.28125 8.296875 
L 54.390625 8.296875 
L 54.390625 0 
L 12.40625 0 
z
" id="DejaVuSans-31"/>
      </defs>
      <g transform="translate(195.524906 322.182437)scale(0.1 -0.1)">
       <use xlink:href="#DejaVuSans-2212"/>
       <use x="83.789062" xlink:href="#DejaVuSans-31"/>
      </g>
     </g>
    </g>
    <g id="xtick_5">
     <g id="line2d_5">
      <g>
       <use style="stroke:#000000;stroke-width:0.8;" x="236.16" xlink:href="#m83c6487d09" y="307.584"/>
      </g>
     </g>
     <g id="text_5">
      <!-- 0 -->
      <defs>
       <path d="M 31.78125 66.40625 
Q 24.171875 66.40625 20.328125 58.90625 
Q 16.5 51.421875 16.5 36.375 
Q 16.5 21.390625 20.328125 13.890625 
Q 24.171875 6.390625 31.78125 6.390625 
Q 39.453125 6.390625 43.28125 13.890625 
Q 47.125 21.390625 47.125 36.375 
Q 47.125 51.421875 43.28125 58.90625 
Q 39.453125 66.40625 31.78125 66.40625 
z
M 31.78125 74.21875 
Q 44.046875 74.21875 50.515625 64.515625 
Q 56.984375 54.828125 56.984375 36.375 
Q 56.984375 17.96875 50.515625 8.265625 
Q 44.046875 -1.421875 31.78125 -1.421875 
Q 19.53125 -1.421875 13.0625 8.265625 
Q 6.59375 17.96875 6.59375 36.375 
Q 6.59375 54.828125 13.0625 64.515625 
Q 19.53125 74.21875 31.78125 74.21875 
z
" id="DejaVuSans-30"/>
      </defs>
      <g transform="translate(232.97875 322.182437)scale(0.1 -0.1)">
       <use xlink:href="#DejaVuSans-30"/>
      </g>
     </g>
    </g>
    <g id="xtick_6">
     <g id="line2d_6">
      <g>
       <use style="stroke:#000000;stroke-width:0.8;" x="269.424" xlink:href="#m83c6487d09" y="307.584"/>
      </g>
     </g>
     <g id="text_6">
      <!-- 1 -->
      <g transform="translate(266.24275 322.182437)scale(0.1 -0.1)">
       <use xlink:href="#DejaVuSans-31"/>
      </g>
     </g>
    </g>
    <g id="xtick_7">
     <g id="line2d_7">
      <g>
       <use style="stroke:#000000;stroke-width:0.8;" x="302.688" xlink:href="#m83c6487d09" y="307.584"/>
      </g>
     </g>
     <g id="text_7">
      <!-- 2 -->
      <g transform="translate(299.50675 322.182437)scale(0.1 -0.1)">
       <use xlink:href="#DejaVuSans-32"/>
      </g>
     </g>
    </g>
    <g id="xtick_8">
     <g id="line2d_8">
      <g>
       <use style="stroke:#000000;stroke-width:0.8;" x="335.952" xlink:href="#m83c6487d09" y="307.584"/>
      </g>
     </g>
     <g id="text_8">
      <!-- 3 -->
      <g transform="translate(332.77075 322.182437)scale(0.1 -0.1)">
       <use xlink:href="#DejaVuSans-33"/>
      </g>
     </g>
    </g>
    <g id="xtick_9">
     <g id="line2d_9">
      <g>
       <use style="stroke:#000000;stroke-width:0.8;" x="369.216" xlink:href="#m83c6487d09" y="307.584"/>
      </g>
     </g>
     <g id="text_9">
      <!-- 4 -->
      <g transform="translate(366.03475 322.182437)scale(0.1 -0.1)">
       <use xlink:href="#DejaVuSans-34"/>
      </g>
     </g>
    </g>
   </g>
   <g id="matplotlib.axis_2">
    <g id="ytick_1">
     <g id="line2d_10">
      <defs>
       <path d="M 0 0 
L -3.5 0 
" id="m1395cc3f99" style="stroke:#000000;stroke-width:0.8;"/>
      </defs>
      <g>
       <use style="stroke:#000000;stroke-width:0.8;" x="103.104" xlink:href="#m1395cc3f99" y="307.584"/>
      </g>
     </g>
     <g id="text_10">
      <!-- −4 -->
      <g transform="translate(81.361813 311.383219)scale(0.1 -0.1)">
       <use xlink:href="#DejaVuSans-2212"/>
       <use x="83.789062" xlink:href="#DejaVuSans-34"/>
      </g>
     </g>
    </g>
    <g id="ytick_2">
     <g id="line2d_11">
      <g>
       <use style="stroke:#000000;stroke-width:0.8;" x="103.104" xlink:href="#m1395cc3f99" y="274.32"/>
      </g>
     </g>
     <g id="text_11">
      <!-- −3 -->
      <g transform="translate(81.361813 278.119219)scale(0.1 -0.1)">
       <use xlink:href="#DejaVuSans-2212"/>
       <use x="83.789062" xlink:href="#DejaVuSans-33"/>
      </g>
     </g>
    </g>
    <g id="ytick_3">
     <g id="line2d_12">
      <g>
       <use style="stroke:#000000;stroke-width:0.8;" x="103.104" xlink:href="#m1395cc3f99" y="241.056"/>
      </g>
     </g>
     <g id="text_12">
      <!-- −2 -->
      <g transform="translate(81.361813 244.855219)scale(0.1 -0.1)">
       <use xlink:href="#DejaVuSans-2212"/>
       <use x="83.789062" xlink:href="#DejaVuSans-32"/>
      </g>
     </g>
    </g>
    <g id="ytick_4">
     <g id="line2d_13">
      <g>
       <use style="stroke:#000000;stroke-width:0.8;" x="103.104" xlink:href="#m1395cc3f99" y="207.792"/>
      </g>
     </g>
     <g id="text_13">
      <!-- −1 -->
      <g transform="translate(81.361813 211.591219)scale(0.1 -0.1)">
       <use xlink:href="#DejaVuSans-2212"/>
       <use x="83.789062" xlink:href="#DejaVuSans-31"/>
      </g>
     </g>
    </g>
    <g id="ytick_5">
     <g id="line2d_14">
      <g>
       <use style="stroke:#000000;stroke-width:0.8;" x="103.104" xlink:href="#m1395cc3f99" y="174.528"/>
      </g>
     </g>
     <g id="text_14">
      <!-- 0 -->
      <g transform="translate(89.7415 178.327219)scale(0.1 -0.1)">
       <use xlink:href="#DejaVuSans-30"/>
      </g>
     </g>
    </g>
    <g id="ytick_6">
     <g id="line2d_15">
      <g>
       <use style="stroke:#000000;stroke-width:0.8;" x="103.104" xlink:href="#m1395cc3f99" y="141.264"/>
      </g>
     </g>
     <g id="text_15">
      <!-- 1 -->
      <g transform="translate(89.7415 145.063219)scale(0.1 -0.1)">
       <use xlink:href="#DejaVuSans-31"/>
      </g>
     </g>
    </g>
    <g id="ytick_7">
     <g id="line2d_16">
      <g>
       <use style="stroke:#000000;stroke-width:0.8;" x="103.104" xlink:href="#m1395cc3f99" y="108"/>
      </g>
     </g>
     <g id="text_16">
      <!-- 2 -->
      <g transform="translate(89.7415 111.799219)scale(0.1 -0.1)">
       <use xlink:href="#DejaVuSans-32"/>
      </g>
     </g>
    </g>
    <g id="ytick_8">
     <g id="line2d_17">
      <g>
       <use style="stroke:#000000;stroke-width:0.8;" x="103.104" xlink:href="#m1395cc3f99" y="74.736"/>
      </g>
     </g>
     <g id="text_17">
      <!-- 3 -->
      <g transform="translate(89.7415 78.535219)scale(0.1 -0.1)">
       <use xlink:href="#DejaVuSans-33"/>
      </g>
     </g>
    </g>
    <g id="ytick_9">
     <g id="line2d_18">
      <g>
       <use style="stroke:#000000;stroke-width:0.8;" x="103.104" xlink:href="#m1395cc3f99" y="41.472"/>
      </g>
     </g>
     <g id="text_18">
      <!-- 4 -->
      <g transform="translate(89.7415 45.271219)scale(0.1 -0.1)">
       <use xlink:href="#DejaVuSans-34"/>
      </g>
     </g>
    </g>
   </g>
   <g id="line2d_19">
    <defs>
     <path d="M 0 1.5 
C 0.397805 1.5 0.77937 1.341951 1.06066 1.06066 
C 1.341951 0.77937 1.5 0.397805 1.5 0 
C 1.5 -0.397805 1.341951 -0.77937 1.06066 -1.06066 
C 0.77937 -1.341951 0.397805 -1.5 0 -1.5 
C -0.397805 -1.5 -0.77937 -1.341951 -1.06066 -1.06066 
C -1.341951 -0.77937 -1.5 -0.397805 -1.5 0 
C -1.5 0.397805 -1.341951 0.77937 -1.06066 1.06066 
C -0.77937 1.341951 -0.397805 1.5 0 1.5 
z
" id="mccdb1769f6" style="stroke:#1f77b4;"/>
    </defs>
    <g clip-path="url(#pa933be622d)">
     <use style="fill:#1f77b4;stroke:#1f77b4;" x="236.16" xlink:href="#mccdb1769f6" y="174.528"/>
     <use style="fill:#1f77b4;stroke:#1f77b4;" x="237.610955" xlink:href="#mccdb1769f6" y="174.46465"/>
     <use style="fill:#1f77b4;stroke:#1f77b4;" x="239.059149" xlink:href="#mccdb1769f6" y="174.274357"/>
     <use style="fill:#1f77b4;stroke:#1f77b4;" x="240.501823" xlink:href="#mccdb1769f6" y="173.956388"/>
     <use style="fill:#1f77b4;stroke:#1f77b4;" x="241.936233" xlink:href="#mccdb1769f6" y="173.509494"/>
     <use style="fill:#1f77b4;stroke:#1f77b4;" x="243.359647" xlink:href="#mccdb1769f6" y="172.931877"/>
     <use style="fill:#1f77b4;stroke:#1f77b4;" x="244.769357" xlink:href="#mccdb1769f6" y="172.22113"/>
     <use style="fill:#1f77b4;stroke:#1f77b4;" x="246.162678" xlink:href="#mccdb1769f6" y="171.374168"/>
     <use style="fill:#1f77b4;stroke:#1f77b4;" x="247.536958" xlink:href="#mccdb1769f6" y="170.387126"/>
     <use style="fill:#1f77b4;stroke:#1f77b4;" x="248.889582" xlink:href="#mccdb1769f6" y="169.255235"/>
     <use style="fill:#1f77b4;stroke:#1f77b4;" x="250.217974" xlink:href="#mccdb1769f6" y="167.972659"/>
     <use style="fill:#1f77b4;stroke:#1f77b4;" x="251.519606" xlink:href="#mccdb1769f6" y="166.532295"/>
     <use style="fill:#1f77b4;stroke:#1f77b4;" x="252.792" xlink:href="#mccdb1769f6" y="164.92551"/>
     <use style="fill:#1f77b4;stroke:#1f77b4;" x="254.032734" xlink:href="#mccdb1769f6" y="163.141813"/>
     <use style="fill:#1f77b4;stroke:#1f77b4;" x="255.239447" xlink:href="#mccdb1769f6" y="161.168428"/>
     <use style="fill:#1f77b4;stroke:#1f77b4;" x="256.40984" xlink:href="#mccdb1769f6" y="158.989751"/>
     <use style="fill:#1f77b4;stroke:#1f77b4;" x="257.541687" xlink:href="#mccdb1769f6" y="156.586634"/>
     <use style="fill:#1f77b4;stroke:#1f77b4;" x="258.632833" xlink:href="#mccdb1769f6" y="153.935443"/>
     <use style="fill:#1f77b4;stroke:#1f77b4;" x="259.6812" xlink:href="#mccdb1769f6" y="151.0068"/>
     <use style="fill:#1f77b4;stroke:#1f77b4;" x="260.684793" xlink:href="#mccdb1769f6" y="147.763885"/>
     <use style="fill:#1f77b4;stroke:#1f77b4;" x="261.641702" xlink:href="#mccdb1769f6" y="144.16009"/>
     <use style="fill:#1f77b4;stroke:#1f77b4;" x="262.550106" xlink:href="#mccdb1769f6" y="140.135745"/>
     <use style="fill:#1f77b4;stroke:#1f77b4;" x="263.408274" xlink:href="#mccdb1769f6" y="135.613432"/>
     <use style="fill:#1f77b4;stroke:#1f77b4;" x="264.214573" xlink:href="#mccdb1769f6" y="130.491141"/>
     <use style="fill:#1f77b4;stroke:#1f77b4;" x="264.967469" xlink:href="#mccdb1769f6" y="124.632"/>
     <use style="fill:#1f77b4;stroke:#1f77b4;" x="265.665528" xlink:href="#mccdb1769f6" y="117.848407"/>
     <use style="fill:#1f77b4;stroke:#1f77b4;" x="266.307422" xlink:href="#mccdb1769f6" y="109.876644"/>
     <use style="fill:#1f77b4;stroke:#1f77b4;" x="266.891929" xlink:href="#mccdb1769f6" y="100.334561"/>
     <use style="fill:#1f77b4;stroke:#1f77b4;" x="267.417935" xlink:href="#mccdb1769f6" y="88.647528"/>
     <use style="fill:#1f77b4;stroke:#1f77b4;" x="267.884441" xlink:href="#mccdb1769f6" y="73.910929"/>
     <use style="fill:#1f77b4;stroke:#1f77b4;" x="268.290557" xlink:href="#mccdb1769f6" y="54.61513"/>
     <use style="fill:#1f77b4;stroke:#1f77b4;" x="268.63551" xlink:href="#mccdb1769f6" y="28.040439"/>
     <use style="fill:#1f77b4;stroke:#1f77b4;" x="268.844752" xlink:href="#mccdb1769f6" y="-1"/>
     <use style="fill:#1f77b4;stroke:#1f77b4;" x="269.39234" xlink:href="#mccdb1769f6" y="-1"/>
     <use style="fill:#1f77b4;stroke:#1f77b4;" x="269.39234" xlink:href="#mccdb1769f6" y="935.673725"/>
     <use style="fill:#1f77b4;stroke:#1f77b4;" x="269.29742" xlink:href="#mccdb1769f6" y="553.290449"/>
     <use style="fill:#1f77b4;stroke:#1f77b4;" x="269.139422" xlink:href="#mccdb1769f6" y="425.031579"/>
     <use style="fill:#1f77b4;stroke:#1f77b4;" x="268.918645" xlink:href="#mccdb1769f6" y="360.311508"/>
     <use style="fill:#1f77b4;stroke:#1f77b4;" x="268.63551" xlink:href="#mccdb1769f6" y="321.015561"/>
     <use style="fill:#1f77b4;stroke:#1f77b4;" x="268.290557" xlink:href="#mccdb1769f6" y="294.44087"/>
     <use style="fill:#1f77b4;stroke:#1f77b4;" x="267.884441" xlink:href="#mccdb1769f6" y="275.145071"/>
     <use style="fill:#1f77b4;stroke:#1f77b4;" x="267.417935" xlink:href="#mccdb1769f6" y="260.408472"/>
     <use style="fill:#1f77b4;stroke:#1f77b4;" x="266.891929" xlink:href="#mccdb1769f6" y="248.721439"/>
     <use style="fill:#1f77b4;stroke:#1f77b4;" x="266.307422" xlink:href="#mccdb1769f6" y="239.179356"/>
     <use style="fill:#1f77b4;stroke:#1f77b4;" x="265.665528" xlink:href="#mccdb1769f6" y="231.207593"/>
     <use style="fill:#1f77b4;stroke:#1f77b4;" x="264.967469" xlink:href="#mccdb1769f6" y="224.424"/>
     <use style="fill:#1f77b4;stroke:#1f77b4;" x="264.214573" xlink:href="#mccdb1769f6" y="218.564859"/>
     <use style="fill:#1f77b4;stroke:#1f77b4;" x="263.408274" xlink:href="#mccdb1769f6" y="213.442568"/>
     <use style="fill:#1f77b4;stroke:#1f77b4;" x="262.550106" xlink:href="#mccdb1769f6" y="208.920255"/>
     <use style="fill:#1f77b4;stroke:#1f77b4;" x="261.641702" xlink:href="#mccdb1769f6" y="204.89591"/>
     <use style="fill:#1f77b4;stroke:#1f77b4;" x="260.684793" xlink:href="#mccdb1769f6" y="201.292115"/>
     <use style="fill:#1f77b4;stroke:#1f77b4;" x="259.6812" xlink:href="#mccdb1769f6" y="198.0492"/>
     <use style="fill:#1f77b4;stroke:#1f77b4;" x="258.632833" xlink:href="#mccdb1769f6" y="195.120557"/>
     <use style="fill:#1f77b4;stroke:#1f77b4;" x="257.541687" xlink:href="#mccdb1769f6" y="192.469366"/>
     <use style="fill:#1f77b4;stroke:#1f77b4;" x="256.40984" xlink:href="#mccdb1769f6" y="190.066249"/>
     <use style="fill:#1f77b4;stroke:#1f77b4;" x="255.239447" xlink:href="#mccdb1769f6" y="187.887572"/>
     <use style="fill:#1f77b4;stroke:#1f77b4;" x="254.032734" xlink:href="#mccdb1769f6" y="185.914187"/>
     <use style="fill:#1f77b4;stroke:#1f77b4;" x="252.792" xlink:href="#mccdb1769f6" y="184.13049"/>
     <use style="fill:#1f77b4;stroke:#1f77b4;" x="251.519606" xlink:href="#mccdb1769f6" y="182.523705"/>
     <use style="fill:#1f77b4;stroke:#1f77b4;" x="250.217974" xlink:href="#mccdb1769f6" y="181.083341"/>
     <use style="fill:#1f77b4;stroke:#1f77b4;" x="248.889582" xlink:href="#mccdb1769f6" y="179.800765"/>
     <use style="fill:#1f77b4;stroke:#1f77b4;" x="247.536958" xlink:href="#mccdb1769f6" y="178.668874"/>
     <use style="fill:#1f77b4;stroke:#1f77b4;" x="246.162678" xlink:href="#mccdb1769f6" y="177.681832"/>
     <use style="fill:#1f77b4;stroke:#1f77b4;" x="244.769357" xlink:href="#mccdb1769f6" y="176.83487"/>
     <use style="fill:#1f77b4;stroke:#1f77b4;" x="243.359647" xlink:href="#mccdb1769f6" y="176.124123"/>
     <use style="fill:#1f77b4;stroke:#1f77b4;" x="241.936233" xlink:href="#mccdb1769f6" y="175.546506"/>
     <use style="fill:#1f77b4;stroke:#1f77b4;" x="240.501823" xlink:href="#mccdb1769f6" y="175.099612"/>
     <use style="fill:#1f77b4;stroke:#1f77b4;" x="239.059149" xlink:href="#mccdb1769f6" y="174.781643"/>
     <use style="fill:#1f77b4;stroke:#1f77b4;" x="237.610955" xlink:href="#mccdb1769f6" y="174.59135"/>
     <use style="fill:#1f77b4;stroke:#1f77b4;" x="236.16" xlink:href="#mccdb1769f6" y="174.528"/>
     <use style="fill:#1f77b4;stroke:#1f77b4;" x="234.709045" xlink:href="#mccdb1769f6" y="174.59135"/>
     <use style="fill:#1f77b4;stroke:#1f77b4;" x="233.260851" xlink:href="#mccdb1769f6" y="174.781643"/>
     <use style="fill:#1f77b4;stroke:#1f77b4;" x="231.818177" xlink:href="#mccdb1769f6" y="175.099612"/>
     <use style="fill:#1f77b4;stroke:#1f77b4;" x="230.383767" xlink:href="#mccdb1769f6" y="175.546506"/>
     <use style="fill:#1f77b4;stroke:#1f77b4;" x="228.960353" xlink:href="#mccdb1769f6" y="176.124123"/>
     <use style="fill:#1f77b4;stroke:#1f77b4;" x="227.550643" xlink:href="#mccdb1769f6" y="176.83487"/>
     <use style="fill:#1f77b4;stroke:#1f77b4;" x="226.157322" xlink:href="#mccdb1769f6" y="177.681832"/>
     <use style="fill:#1f77b4;stroke:#1f77b4;" x="224.783042" xlink:href="#mccdb1769f6" y="178.668874"/>
     <use style="fill:#1f77b4;stroke:#1f77b4;" x="223.430418" xlink:href="#mccdb1769f6" y="179.800765"/>
     <use style="fill:#1f77b4;stroke:#1f77b4;" x="222.102026" xlink:href="#mccdb1769f6" y="181.083341"/>
     <use style="fill:#1f77b4;stroke:#1f77b4;" x="220.800394" xlink:href="#mccdb1769f6" y="182.523705"/>
     <use style="fill:#1f77b4;stroke:#1f77b4;" x="219.528" xlink:href="#mccdb1769f6" y="184.13049"/>
     <use style="fill:#1f77b4;stroke:#1f77b4;" x="218.287266" xlink:href="#mccdb1769f6" y="185.914187"/>
     <use style="fill:#1f77b4;stroke:#1f77b4;" x="217.080553" xlink:href="#mccdb1769f6" y="187.887572"/>
     <use style="fill:#1f77b4;stroke:#1f77b4;" x="215.91016" xlink:href="#mccdb1769f6" y="190.066249"/>
     <use style="fill:#1f77b4;stroke:#1f77b4;" x="214.778313" xlink:href="#mccdb1769f6" y="192.469366"/>
     <use style="fill:#1f77b4;stroke:#1f77b4;" x="213.687167" xlink:href="#mccdb1769f6" y="195.120557"/>
     <use style="fill:#1f77b4;stroke:#1f77b4;" x="212.6388" xlink:href="#mccdb1769f6" y="198.0492"/>
     <use style="fill:#1f77b4;stroke:#1f77b4;" x="211.635207" xlink:href="#mccdb1769f6" y="201.292115"/>
     <use style="fill:#1f77b4;stroke:#1f77b4;" x="210.678298" xlink:href="#mccdb1769f6" y="204.89591"/>
     <use style="fill:#1f77b4;stroke:#1f77b4;" x="209.769894" xlink:href="#mccdb1769f6" y="208.920255"/>
     <use style="fill:#1f77b4;stroke:#1f77b4;" x="208.911726" xlink:href="#mccdb1769f6" y="213.442568"/>
     <use style="fill:#1f77b4;stroke:#1f77b4;" x="208.105427" xlink:href="#mccdb1769f6" y="218.564859"/>
     <use style="fill:#1f77b4;stroke:#1f77b4;" x="207.352531" xlink:href="#mccdb1769f6" y="224.424"/>
     <use style="fill:#1f77b4;stroke:#1f77b4;" x="206.654472" xlink:href="#mccdb1769f6" y="231.207593"/>
     <use style="fill:#1f77b4;stroke:#1f77b4;" x="206.012578" xlink:href="#mccdb1769f6" y="239.179356"/>
     <use style="fill:#1f77b4;stroke:#1f77b4;" x="205.428071" xlink:href="#mccdb1769f6" y="248.721439"/>
     <use style="fill:#1f77b4;stroke:#1f77b4;" x="204.902065" xlink:href="#mccdb1769f6" y="260.408472"/>
     <use style="fill:#1f77b4;stroke:#1f77b4;" x="204.435559" xlink:href="#mccdb1769f6" y="275.145071"/>
     <use style="fill:#1f77b4;stroke:#1f77b4;" x="204.029443" xlink:href="#mccdb1769f6" y="294.44087"/>
     <use style="fill:#1f77b4;stroke:#1f77b4;" x="203.68449" xlink:href="#mccdb1769f6" y="321.015561"/>
     <use style="fill:#1f77b4;stroke:#1f77b4;" x="203.401355" xlink:href="#mccdb1769f6" y="360.311508"/>
     <use style="fill:#1f77b4;stroke:#1f77b4;" x="203.180578" xlink:href="#mccdb1769f6" y="425.031579"/>
     <use style="fill:#1f77b4;stroke:#1f77b4;" x="203.02258" xlink:href="#mccdb1769f6" y="553.290449"/>
     <use style="fill:#1f77b4;stroke:#1f77b4;" x="202.92766" xlink:href="#mccdb1769f6" y="935.673725"/>
     <use style="fill:#1f77b4;stroke:#1f77b4;" x="202.92766" xlink:href="#mccdb1769f6" y="24884.2"/>
     <use style="fill:#1f77b4;stroke:#1f77b4;" x="202.92766" xlink:href="#mccdb1769f6" y="24884.2"/>
     <use style="fill:#1f77b4;stroke:#1f77b4;" x="202.92766" xlink:href="#mccdb1769f6" y="-1"/>
     <use style="fill:#1f77b4;stroke:#1f77b4;" x="203.475248" xlink:href="#mccdb1769f6" y="-1"/>
     <use style="fill:#1f77b4;stroke:#1f77b4;" x="203.68449" xlink:href="#mccdb1769f6" y="28.040439"/>
     <use style="fill:#1f77b4;stroke:#1f77b4;" x="204.029443" xlink:href="#mccdb1769f6" y="54.61513"/>
     <use style="fill:#1f77b4;stroke:#1f77b4;" x="204.435559" xlink:href="#mccdb1769f6" y="73.910929"/>
     <use style="fill:#1f77b4;stroke:#1f77b4;" x="204.902065" xlink:href="#mccdb1769f6" y="88.647528"/>
     <use style="fill:#1f77b4;stroke:#1f77b4;" x="205.428071" xlink:href="#mccdb1769f6" y="100.334561"/>
     <use style="fill:#1f77b4;stroke:#1f77b4;" x="206.012578" xlink:href="#mccdb1769f6" y="109.876644"/>
     <use style="fill:#1f77b4;stroke:#1f77b4;" x="206.654472" xlink:href="#mccdb1769f6" y="117.848407"/>
     <use style="fill:#1f77b4;stroke:#1f77b4;" x="207.352531" xlink:href="#mccdb1769f6" y="124.632"/>
     <use style="fill:#1f77b4;stroke:#1f77b4;" x="208.105427" xlink:href="#mccdb1769f6" y="130.491141"/>
     <use style="fill:#1f77b4;stroke:#1f77b4;" x="208.911726" xlink:href="#mccdb1769f6" y="135.613432"/>
     <use style="fill:#1f77b4;stroke:#1f77b4;" x="209.769894" xlink:href="#mccdb1769f6" y="140.135745"/>
     <use style="fill:#1f77b4;stroke:#1f77b4;" x="210.678298" xlink:href="#mccdb1769f6" y="144.16009"/>
     <use style="fill:#1f77b4;stroke:#1f77b4;" x="211.635207" xlink:href="#mccdb1769f6" y="147.763885"/>
     <use style="fill:#1f77b4;stroke:#1f77b4;" x="212.6388" xlink:href="#mccdb1769f6" y="151.0068"/>
     <use style="fill:#1f77b4;stroke:#1f77b4;" x="213.687167" xlink:href="#mccdb1769f6" y="153.935443"/>
     <use style="fill:#1f77b4;stroke:#1f77b4;" x="214.778313" xlink:href="#mccdb1769f6" y="156.586634"/>
     <use style="fill:#1f77b4;stroke:#1f77b4;" x="215.91016" xlink:href="#mccdb1769f6" y="158.989751"/>
     <use style="fill:#1f77b4;stroke:#1f77b4;" x="217.080553" xlink:href="#mccdb1769f6" y="161.168428"/>
     <use style="fill:#1f77b4;stroke:#1f77b4;" x="218.287266" xlink:href="#mccdb1769f6" y="163.141813"/>
     <use style="fill:#1f77b4;stroke:#1f77b4;" x="219.528" xlink:href="#mccdb1769f6" y="164.92551"/>
     <use style="fill:#1f77b4;stroke:#1f77b4;" x="220.800394" xlink:href="#mccdb1769f6" y="166.532295"/>
     <use style="fill:#1f77b4;stroke:#1f77b4;" x="222.102026" xlink:href="#mccdb1769f6" y="167.972659"/>
     <use style="fill:#1f77b4;stroke:#1f77b4;" x="223.430418" xlink:href="#mccdb1769f6" y="169.255235"/>
     <use style="fill:#1f77b4;stroke:#1f77b4;" x="224.783042" xlink:href="#mccdb1769f6" y="170.387126"/>
     <use style="fill:#1f77b4;stroke:#1f77b4;" x="226.157322" xlink:href="#mccdb1769f6" y="171.374168"/>
     <use style="fill:#1f77b4;stroke:#1f77b4;" x="227.550643" xlink:href="#mccdb1769f6" y="172.22113"/>
     <use style="fill:#1f77b4;stroke:#1f77b4;" x="228.960353" xlink:href="#mccdb1769f6" y="172.931877"/>
     <use style="fill:#1f77b4;stroke:#1f77b4;" x="230.383767" xlink:href="#mccdb1769f6" y="173.509494"/>
     <use style="fill:#1f77b4;stroke:#1f77b4;" x="231.818177" xlink:href="#mccdb1769f6" y="173.956388"/>
     <use style="fill:#1f77b4;stroke:#1f77b4;" x="233.260851" xlink:href="#mccdb1769f6" y="174.274357"/>
     <use style="fill:#1f77b4;stroke:#1f77b4;" x="234.709045" xlink:href="#mccdb1769f6" y="174.46465"/>
     <use style="fill:#1f77b4;stroke:#1f77b4;" x="236.16" xlink:href="#mccdb1769f6" y="174.528"/>
    </g>
   </g>
   <g id="line2d_20">
    <defs>
     <path d="M 0 1.5 
C 0.397805 1.5 0.77937 1.341951 1.06066 1.06066 
C 1.341951 0.77937 1.5 0.397805 1.5 0 
C 1.5 -0.397805 1.341951 -0.77937 1.06066 -1.06066 
C 0.77937 -1.341951 0.397805 -1.5 0 -1.5 
C -0.397805 -1.5 -0.77937 -1.341951 -1.06066 -1.06066 
C -1.341951 -0.77937 -1.5 -0.397805 -1.5 0 
C -1.5 0.397805 -1.341951 0.77937 -1.06066 1.06066 
C -0.77937 1.341951 -0.397805 1.5 0 1.5 
z
" id="mb9f2438ea3" style="stroke:#ff7f0e;"/>
    </defs>
    <g clip-path="url(#pa933be622d)">
     <use style="fill:#ff7f0e;stroke:#ff7f0e;" x="616.007385" xlink:href="#mb9f2438ea3" y="157.943505"/>
     <use style="fill:#ff7f0e;stroke:#ff7f0e;" x="424.09165" xlink:href="#mb9f2438ea3" y="158.086111"/>
     <use style="fill:#ff7f0e;stroke:#ff7f0e;" x="359.240878" xlink:href="#mb9f2438ea3" y="158.324095"/>
     <use style="fill:#ff7f0e;stroke:#ff7f0e;" x="326.163638" xlink:href="#mb9f2438ea3" y="158.65793"/>
     <use style="fill:#ff7f0e;stroke:#ff7f0e;" x="305.803957" xlink:href="#mb9f2438ea3" y="159.088307"/>
     <use style="fill:#ff7f0e;stroke:#ff7f0e;" x="291.811757" xlink:href="#mb9f2438ea3" y="159.616157"/>
     <use style="fill:#ff7f0e;stroke:#ff7f0e;" x="281.467197" xlink:href="#mb9f2438ea3" y="160.242696"/>
     <use style="fill:#ff7f0e;stroke:#ff7f0e;" x="273.411757" xlink:href="#mb9f2438ea3" y="160.969469"/>
     <use style="fill:#ff7f0e;stroke:#ff7f0e;" x="266.891929" xlink:href="#mb9f2438ea3" y="161.798418"/>
     <use style="fill:#ff7f0e;stroke:#ff7f0e;" x="261.456691" xlink:href="#mb9f2438ea3" y="162.731959"/>
     <use style="fill:#ff7f0e;stroke:#ff7f0e;" x="256.819993" xlink:href="#mb9f2438ea3" y="163.773088"/>
     <use style="fill:#ff7f0e;stroke:#ff7f0e;" x="252.792" xlink:href="#mb9f2438ea3" y="164.92551"/>
     <use style="fill:#ff7f0e;stroke:#ff7f0e;" x="249.242062" xlink:href="#mb9f2438ea3" y="166.193807"/>
     <use style="fill:#ff7f0e;stroke:#ff7f0e;" x="246.077561" xlink:href="#mb9f2438ea3" y="167.583649"/>
     <use style="fill:#ff7f0e;stroke:#ff7f0e;" x="243.231207" xlink:href="#mb9f2438ea3" y="169.102072"/>
     <use style="fill:#ff7f0e;stroke:#ff7f0e;" x="240.653112" xlink:href="#mb9f2438ea3" y="170.757832"/>
     <use style="fill:#ff7f0e;stroke:#ff7f0e;" x="238.305641" xlink:href="#mb9f2438ea3" y="172.561882"/>
     <use style="fill:#ff7f0e;stroke:#ff7f0e;" x="236.16" xlink:href="#mb9f2438ea3" y="174.528"/>
     <use style="fill:#ff7f0e;stroke:#ff7f0e;" x="234.193882" xlink:href="#mb9f2438ea3" y="176.673641"/>
     <use style="fill:#ff7f0e;stroke:#ff7f0e;" x="232.389832" xlink:href="#mb9f2438ea3" y="179.021112"/>
     <use style="fill:#ff7f0e;stroke:#ff7f0e;" x="230.734072" xlink:href="#mb9f2438ea3" y="181.599207"/>
     <use style="fill:#ff7f0e;stroke:#ff7f0e;" x="229.215649" xlink:href="#mb9f2438ea3" y="184.445561"/>
     <use style="fill:#ff7f0e;stroke:#ff7f0e;" x="227.825807" xlink:href="#mb9f2438ea3" y="187.610062"/>
     <use style="fill:#ff7f0e;stroke:#ff7f0e;" x="226.55751" xlink:href="#mb9f2438ea3" y="191.16"/>
     <use style="fill:#ff7f0e;stroke:#ff7f0e;" x="225.405088" xlink:href="#mb9f2438ea3" y="195.187993"/>
     <use style="fill:#ff7f0e;stroke:#ff7f0e;" x="224.363959" xlink:href="#mb9f2438ea3" y="199.824691"/>
     <use style="fill:#ff7f0e;stroke:#ff7f0e;" x="223.430418" xlink:href="#mb9f2438ea3" y="205.259929"/>
     <use style="fill:#ff7f0e;stroke:#ff7f0e;" x="222.601469" xlink:href="#mb9f2438ea3" y="211.779757"/>
     <use style="fill:#ff7f0e;stroke:#ff7f0e;" x="221.874696" xlink:href="#mb9f2438ea3" y="219.835197"/>
     <use style="fill:#ff7f0e;stroke:#ff7f0e;" x="221.248157" xlink:href="#mb9f2438ea3" y="230.179757"/>
     <use style="fill:#ff7f0e;stroke:#ff7f0e;" x="220.720307" xlink:href="#mb9f2438ea3" y="244.171957"/>
     <use style="fill:#ff7f0e;stroke:#ff7f0e;" x="220.28993" xlink:href="#mb9f2438ea3" y="264.531638"/>
     <use style="fill:#ff7f0e;stroke:#ff7f0e;" x="219.956095" xlink:href="#mb9f2438ea3" y="297.608878"/>
     <use style="fill:#ff7f0e;stroke:#ff7f0e;" x="219.718111" xlink:href="#mb9f2438ea3" y="362.45965"/>
     <use style="fill:#ff7f0e;stroke:#ff7f0e;" x="219.575505" xlink:href="#mb9f2438ea3" y="554.375385"/>
     <use style="fill:#ff7f0e;stroke:#ff7f0e;" x="219.575505" xlink:href="#mb9f2438ea3" y="24884.2"/>
     <use style="fill:#ff7f0e;stroke:#ff7f0e;" x="219.575505" xlink:href="#mb9f2438ea3" y="24884.2"/>
     <use style="fill:#ff7f0e;stroke:#ff7f0e;" x="219.575505" xlink:href="#mb9f2438ea3" y="-1"/>
     <use style="fill:#ff7f0e;stroke:#ff7f0e;" x="219.763629" xlink:href="#mb9f2438ea3" y="-1"/>
     <use style="fill:#ff7f0e;stroke:#ff7f0e;" x="219.956095" xlink:href="#mb9f2438ea3" y="51.447122"/>
     <use style="fill:#ff7f0e;stroke:#ff7f0e;" x="220.28993" xlink:href="#mb9f2438ea3" y="84.524362"/>
     <use style="fill:#ff7f0e;stroke:#ff7f0e;" x="220.720307" xlink:href="#mb9f2438ea3" y="104.884043"/>
     <use style="fill:#ff7f0e;stroke:#ff7f0e;" x="221.248157" xlink:href="#mb9f2438ea3" y="118.876243"/>
     <use style="fill:#ff7f0e;stroke:#ff7f0e;" x="221.874696" xlink:href="#mb9f2438ea3" y="129.220803"/>
     <use style="fill:#ff7f0e;stroke:#ff7f0e;" x="222.601469" xlink:href="#mb9f2438ea3" y="137.276243"/>
     <use style="fill:#ff7f0e;stroke:#ff7f0e;" x="223.430418" xlink:href="#mb9f2438ea3" y="143.796071"/>
     <use style="fill:#ff7f0e;stroke:#ff7f0e;" x="224.363959" xlink:href="#mb9f2438ea3" y="149.231309"/>
     <use style="fill:#ff7f0e;stroke:#ff7f0e;" x="225.405088" xlink:href="#mb9f2438ea3" y="153.868007"/>
     <use style="fill:#ff7f0e;stroke:#ff7f0e;" x="226.55751" xlink:href="#mb9f2438ea3" y="157.896"/>
     <use style="fill:#ff7f0e;stroke:#ff7f0e;" x="227.825807" xlink:href="#mb9f2438ea3" y="161.445938"/>
     <use style="fill:#ff7f0e;stroke:#ff7f0e;" x="229.215649" xlink:href="#mb9f2438ea3" y="164.610439"/>
     <use style="fill:#ff7f0e;stroke:#ff7f0e;" x="230.734072" xlink:href="#mb9f2438ea3" y="167.456793"/>
     <use style="fill:#ff7f0e;stroke:#ff7f0e;" x="232.389832" xlink:href="#mb9f2438ea3" y="170.034888"/>
     <use style="fill:#ff7f0e;stroke:#ff7f0e;" x="234.193882" xlink:href="#mb9f2438ea3" y="172.382359"/>
     <use style="fill:#ff7f0e;stroke:#ff7f0e;" x="236.16" xlink:href="#mb9f2438ea3" y="174.528"/>
     <use style="fill:#ff7f0e;stroke:#ff7f0e;" x="238.305641" xlink:href="#mb9f2438ea3" y="176.494118"/>
     <use style="fill:#ff7f0e;stroke:#ff7f0e;" x="240.653112" xlink:href="#mb9f2438ea3" y="178.298168"/>
     <use style="fill:#ff7f0e;stroke:#ff7f0e;" x="243.231207" xlink:href="#mb9f2438ea3" y="179.953928"/>
     <use style="fill:#ff7f0e;stroke:#ff7f0e;" x="246.077561" xlink:href="#mb9f2438ea3" y="181.472351"/>
     <use style="fill:#ff7f0e;stroke:#ff7f0e;" x="249.242062" xlink:href="#mb9f2438ea3" y="182.862193"/>
     <use style="fill:#ff7f0e;stroke:#ff7f0e;" x="252.792" xlink:href="#mb9f2438ea3" y="184.13049"/>
     <use style="fill:#ff7f0e;stroke:#ff7f0e;" x="256.819993" xlink:href="#mb9f2438ea3" y="185.282912"/>
     <use style="fill:#ff7f0e;stroke:#ff7f0e;" x="261.456691" xlink:href="#mb9f2438ea3" y="186.324041"/>
     <use style="fill:#ff7f0e;stroke:#ff7f0e;" x="266.891929" xlink:href="#mb9f2438ea3" y="187.257582"/>
     <use style="fill:#ff7f0e;stroke:#ff7f0e;" x="273.411757" xlink:href="#mb9f2438ea3" y="188.086531"/>
     <use style="fill:#ff7f0e;stroke:#ff7f0e;" x="281.467197" xlink:href="#mb9f2438ea3" y="188.813304"/>
     <use style="fill:#ff7f0e;stroke:#ff7f0e;" x="291.811757" xlink:href="#mb9f2438ea3" y="189.439843"/>
     <use style="fill:#ff7f0e;stroke:#ff7f0e;" x="305.803957" xlink:href="#mb9f2438ea3" y="189.967693"/>
     <use style="fill:#ff7f0e;stroke:#ff7f0e;" x="326.163638" xlink:href="#mb9f2438ea3" y="190.39807"/>
     <use style="fill:#ff7f0e;stroke:#ff7f0e;" x="359.240878" xlink:href="#mb9f2438ea3" y="190.731905"/>
     <use style="fill:#ff7f0e;stroke:#ff7f0e;" x="424.09165" xlink:href="#mb9f2438ea3" y="190.969889"/>
     <use style="fill:#ff7f0e;stroke:#ff7f0e;" x="616.007385" xlink:href="#mb9f2438ea3" y="191.112495"/>
     <use style="fill:#ff7f0e;stroke:#ff7f0e;" x="33178.6" xlink:href="#mb9f2438ea3" y="191.112495"/>
     <use style="fill:#ff7f0e;stroke:#ff7f0e;" x="33178.6" xlink:href="#mb9f2438ea3" y="191.112495"/>
     <use style="fill:#ff7f0e;stroke:#ff7f0e;" x="-1" xlink:href="#mb9f2438ea3" y="191.112495"/>
     <use style="fill:#ff7f0e;stroke:#ff7f0e;" x="-1" xlink:href="#mb9f2438ea3" y="191.006469"/>
     <use style="fill:#ff7f0e;stroke:#ff7f0e;" x="48.22835" xlink:href="#mb9f2438ea3" y="190.969889"/>
     <use style="fill:#ff7f0e;stroke:#ff7f0e;" x="113.079122" xlink:href="#mb9f2438ea3" y="190.731905"/>
     <use style="fill:#ff7f0e;stroke:#ff7f0e;" x="146.156362" xlink:href="#mb9f2438ea3" y="190.39807"/>
     <use style="fill:#ff7f0e;stroke:#ff7f0e;" x="166.516043" xlink:href="#mb9f2438ea3" y="189.967693"/>
     <use style="fill:#ff7f0e;stroke:#ff7f0e;" x="180.508243" xlink:href="#mb9f2438ea3" y="189.439843"/>
     <use style="fill:#ff7f0e;stroke:#ff7f0e;" x="190.852803" xlink:href="#mb9f2438ea3" y="188.813304"/>
     <use style="fill:#ff7f0e;stroke:#ff7f0e;" x="198.908243" xlink:href="#mb9f2438ea3" y="188.086531"/>
     <use style="fill:#ff7f0e;stroke:#ff7f0e;" x="205.428071" xlink:href="#mb9f2438ea3" y="187.257582"/>
     <use style="fill:#ff7f0e;stroke:#ff7f0e;" x="210.863309" xlink:href="#mb9f2438ea3" y="186.324041"/>
     <use style="fill:#ff7f0e;stroke:#ff7f0e;" x="215.500007" xlink:href="#mb9f2438ea3" y="185.282912"/>
     <use style="fill:#ff7f0e;stroke:#ff7f0e;" x="219.528" xlink:href="#mb9f2438ea3" y="184.13049"/>
     <use style="fill:#ff7f0e;stroke:#ff7f0e;" x="223.077938" xlink:href="#mb9f2438ea3" y="182.862193"/>
     <use style="fill:#ff7f0e;stroke:#ff7f0e;" x="226.242439" xlink:href="#mb9f2438ea3" y="181.472351"/>
     <use style="fill:#ff7f0e;stroke:#ff7f0e;" x="229.088793" xlink:href="#mb9f2438ea3" y="179.953928"/>
     <use style="fill:#ff7f0e;stroke:#ff7f0e;" x="231.666888" xlink:href="#mb9f2438ea3" y="178.298168"/>
     <use style="fill:#ff7f0e;stroke:#ff7f0e;" x="234.014359" xlink:href="#mb9f2438ea3" y="176.494118"/>
     <use style="fill:#ff7f0e;stroke:#ff7f0e;" x="236.16" xlink:href="#mb9f2438ea3" y="174.528"/>
     <use style="fill:#ff7f0e;stroke:#ff7f0e;" x="238.126118" xlink:href="#mb9f2438ea3" y="172.382359"/>
     <use style="fill:#ff7f0e;stroke:#ff7f0e;" x="239.930168" xlink:href="#mb9f2438ea3" y="170.034888"/>
     <use style="fill:#ff7f0e;stroke:#ff7f0e;" x="241.585928" xlink:href="#mb9f2438ea3" y="167.456793"/>
     <use style="fill:#ff7f0e;stroke:#ff7f0e;" x="243.104351" xlink:href="#mb9f2438ea3" y="164.610439"/>
     <use style="fill:#ff7f0e;stroke:#ff7f0e;" x="244.494193" xlink:href="#mb9f2438ea3" y="161.445938"/>
     <use style="fill:#ff7f0e;stroke:#ff7f0e;" x="245.76249" xlink:href="#mb9f2438ea3" y="157.896"/>
     <use style="fill:#ff7f0e;stroke:#ff7f0e;" x="246.914912" xlink:href="#mb9f2438ea3" y="153.868007"/>
     <use style="fill:#ff7f0e;stroke:#ff7f0e;" x="247.956041" xlink:href="#mb9f2438ea3" y="149.231309"/>
     <use style="fill:#ff7f0e;stroke:#ff7f0e;" x="248.889582" xlink:href="#mb9f2438ea3" y="143.796071"/>
     <use style="fill:#ff7f0e;stroke:#ff7f0e;" x="249.718531" xlink:href="#mb9f2438ea3" y="137.276243"/>
     <use style="fill:#ff7f0e;stroke:#ff7f0e;" x="250.445304" xlink:href="#mb9f2438ea3" y="129.220803"/>
     <use style="fill:#ff7f0e;stroke:#ff7f0e;" x="251.071843" xlink:href="#mb9f2438ea3" y="118.876243"/>
     <use style="fill:#ff7f0e;stroke:#ff7f0e;" x="251.599693" xlink:href="#mb9f2438ea3" y="104.884043"/>
     <use style="fill:#ff7f0e;stroke:#ff7f0e;" x="252.03007" xlink:href="#mb9f2438ea3" y="84.524362"/>
     <use style="fill:#ff7f0e;stroke:#ff7f0e;" x="252.363905" xlink:href="#mb9f2438ea3" y="51.447122"/>
     <use style="fill:#ff7f0e;stroke:#ff7f0e;" x="252.556371" xlink:href="#mb9f2438ea3" y="-1"/>
     <use style="fill:#ff7f0e;stroke:#ff7f0e;" x="252.744495" xlink:href="#mb9f2438ea3" y="-1"/>
     <use style="fill:#ff7f0e;stroke:#ff7f0e;" x="252.744495" xlink:href="#mb9f2438ea3" y="554.375385"/>
     <use style="fill:#ff7f0e;stroke:#ff7f0e;" x="252.601889" xlink:href="#mb9f2438ea3" y="362.45965"/>
     <use style="fill:#ff7f0e;stroke:#ff7f0e;" x="252.363905" xlink:href="#mb9f2438ea3" y="297.608878"/>
     <use style="fill:#ff7f0e;stroke:#ff7f0e;" x="252.03007" xlink:href="#mb9f2438ea3" y="264.531638"/>
     <use style="fill:#ff7f0e;stroke:#ff7f0e;" x="251.599693" xlink:href="#mb9f2438ea3" y="244.171957"/>
     <use style="fill:#ff7f0e;stroke:#ff7f0e;" x="251.071843" xlink:href="#mb9f2438ea3" y="230.179757"/>
     <use style="fill:#ff7f0e;stroke:#ff7f0e;" x="250.445304" xlink:href="#mb9f2438ea3" y="219.835197"/>
     <use style="fill:#ff7f0e;stroke:#ff7f0e;" x="249.718531" xlink:href="#mb9f2438ea3" y="211.779757"/>
     <use style="fill:#ff7f0e;stroke:#ff7f0e;" x="248.889582" xlink:href="#mb9f2438ea3" y="205.259929"/>
     <use style="fill:#ff7f0e;stroke:#ff7f0e;" x="247.956041" xlink:href="#mb9f2438ea3" y="199.824691"/>
     <use style="fill:#ff7f0e;stroke:#ff7f0e;" x="246.914912" xlink:href="#mb9f2438ea3" y="195.187993"/>
     <use style="fill:#ff7f0e;stroke:#ff7f0e;" x="245.76249" xlink:href="#mb9f2438ea3" y="191.16"/>
     <use style="fill:#ff7f0e;stroke:#ff7f0e;" x="244.494193" xlink:href="#mb9f2438ea3" y="187.610062"/>
     <use style="fill:#ff7f0e;stroke:#ff7f0e;" x="243.104351" xlink:href="#mb9f2438ea3" y="184.445561"/>
     <use style="fill:#ff7f0e;stroke:#ff7f0e;" x="241.585928" xlink:href="#mb9f2438ea3" y="181.599207"/>
     <use style="fill:#ff7f0e;stroke:#ff7f0e;" x="239.930168" xlink:href="#mb9f2438ea3" y="179.021112"/>
     <use style="fill:#ff7f0e;stroke:#ff7f0e;" x="238.126118" xlink:href="#mb9f2438ea3" y="176.673641"/>
     <use style="fill:#ff7f0e;stroke:#ff7f0e;" x="236.16" xlink:href="#mb9f2438ea3" y="174.528"/>
     <use style="fill:#ff7f0e;stroke:#ff7f0e;" x="234.014359" xlink:href="#mb9f2438ea3" y="172.561882"/>
     <use style="fill:#ff7f0e;stroke:#ff7f0e;" x="231.666888" xlink:href="#mb9f2438ea3" y="170.757832"/>
     <use style="fill:#ff7f0e;stroke:#ff7f0e;" x="229.088793" xlink:href="#mb9f2438ea3" y="169.102072"/>
     <use style="fill:#ff7f0e;stroke:#ff7f0e;" x="226.242439" xlink:href="#mb9f2438ea3" y="167.583649"/>
     <use style="fill:#ff7f0e;stroke:#ff7f0e;" x="223.077938" xlink:href="#mb9f2438ea3" y="166.193807"/>
     <use style="fill:#ff7f0e;stroke:#ff7f0e;" x="219.528" xlink:href="#mb9f2438ea3" y="164.92551"/>
     <use style="fill:#ff7f0e;stroke:#ff7f0e;" x="215.500007" xlink:href="#mb9f2438ea3" y="163.773088"/>
     <use style="fill:#ff7f0e;stroke:#ff7f0e;" x="210.863309" xlink:href="#mb9f2438ea3" y="162.731959"/>
     <use style="fill:#ff7f0e;stroke:#ff7f0e;" x="205.428071" xlink:href="#mb9f2438ea3" y="161.798418"/>
     <use style="fill:#ff7f0e;stroke:#ff7f0e;" x="198.908243" xlink:href="#mb9f2438ea3" y="160.969469"/>
     <use style="fill:#ff7f0e;stroke:#ff7f0e;" x="190.852803" xlink:href="#mb9f2438ea3" y="160.242696"/>
     <use style="fill:#ff7f0e;stroke:#ff7f0e;" x="180.508243" xlink:href="#mb9f2438ea3" y="159.616157"/>
     <use style="fill:#ff7f0e;stroke:#ff7f0e;" x="166.516043" xlink:href="#mb9f2438ea3" y="159.088307"/>
     <use style="fill:#ff7f0e;stroke:#ff7f0e;" x="146.156362" xlink:href="#mb9f2438ea3" y="158.65793"/>
     <use style="fill:#ff7f0e;stroke:#ff7f0e;" x="113.079122" xlink:href="#mb9f2438ea3" y="158.324095"/>
     <use style="fill:#ff7f0e;stroke:#ff7f0e;" x="48.22835" xlink:href="#mb9f2438ea3" y="158.086111"/>
     <use style="fill:#ff7f0e;stroke:#ff7f0e;" x="-1" xlink:href="#mb9f2438ea3" y="158.049531"/>
    </g>
   </g>
   <g id="patch_3">
    <path d="M 103.104 307.584 
L 103.104 41.472 
" style="fill:none;stroke:#000000;stroke-linecap:square;stroke-linejoin:miter;stroke-width:0.8;"/>
   </g>
   <g id="patch_4">
    <path d="M 369.216 307.584 
L 369.216 41.472 
" style="fill:none;stroke:#000000;stroke-linecap:square;stroke-linejoin:miter;stroke-width:0.8;"/>
   </g>
   <g id="patch_5">
    <path d="M 103.104 307.584 
L 369.216 307.584 
" style="fill:none;stroke:#000000;stroke-linecap:square;stroke-linejoin:miter;stroke-width:0.8;"/>
   </g>
   <g id="patch_6">
    <path d="M 103.104 41.472 
L 369.216 41.472 
" style="fill:none;stroke:#000000;stroke-linecap:square;stroke-linejoin:miter;stroke-width:0.8;"/>
   </g>
   <g id="legend_1">
    <g id="patch_7">
     <path d="M 313.380063 78.82825 
L 362.216 78.82825 
Q 364.216 78.82825 364.216 76.82825 
L 364.216 48.472 
Q 364.216 46.472 362.216 46.472 
L 313.380063 46.472 
Q 311.380063 46.472 311.380063 48.472 
L 311.380063 76.82825 
Q 311.380063 78.82825 313.380063 78.82825 
z
" style="fill:#ffffff;opacity:0.8;stroke:#cccccc;stroke-linejoin:miter;"/>
    </g>
    <g id="line2d_21"/>
    <g id="line2d_22">
     <g>
      <use style="fill:#1f77b4;stroke:#1f77b4;" x="325.380063" xlink:href="#mccdb1769f6" y="54.570437"/>
     </g>
    </g>
    <g id="text_19">
     <!-- r11 -->
     <defs>
      <path d="M 41.109375 46.296875 
Q 39.59375 47.171875 37.8125 47.578125 
Q 36.03125 48 33.890625 48 
Q 26.265625 48 22.1875 43.046875 
Q 18.109375 38.09375 18.109375 28.8125 
L 18.109375 0 
L 9.078125 0 
L 9.078125 54.6875 
L 18.109375 54.6875 
L 18.109375 46.1875 
Q 20.953125 51.171875 25.484375 53.578125 
Q 30.03125 56 36.53125 56 
Q 37.453125 56 38.578125 55.875 
Q 39.703125 55.765625 41.0625 55.515625 
z
" id="DejaVuSans-72"/>
     </defs>
     <g transform="translate(343.380063 58.070437)scale(0.1 -0.1)">
      <use xlink:href="#DejaVuSans-72"/>
      <use x="41.113281" xlink:href="#DejaVuSans-31"/>
      <use x="104.736328" xlink:href="#DejaVuSans-31"/>
     </g>
    </g>
    <g id="line2d_23"/>
    <g id="line2d_24">
     <g>
      <use style="fill:#ff7f0e;stroke:#ff7f0e;" x="325.380063" xlink:href="#mb9f2438ea3" y="69.248562"/>
     </g>
    </g>
    <g id="text_20">
     <!-- r12 -->
     <g transform="translate(343.380063 72.748562)scale(0.1 -0.1)">
      <use xlink:href="#DejaVuSans-72"/>
      <use x="41.113281" xlink:href="#DejaVuSans-31"/>
      <use x="104.736328" xlink:href="#DejaVuSans-32"/>
     </g>
    </g>
   </g>
  </g>
 </g>
 <defs>
  <clipPath id="pa933be622d">
   <rect height="266.112" width="266.112" x="103.104" y="41.472"/>
  </clipPath>
 </defs>
</svg>
