<?xml version="1.0" encoding="utf-8" standalone="no"?>
<!DOCTYPE svg PUBLIC "-//W3C//DTD SVG 1.1//EN"
  "http://www.w3.org/Graphics/SVG/1.1/DTD/svg11.dtd">
<!-- Created with matplotlib (http://matplotlib.org/) -->
<svg height="345.6pt" version="1.1" viewBox="0 0 460.8 345.6" width="460.8pt" xmlns="http://www.w3.org/2000/svg" xmlns:xlink="http://www.w3.org/1999/xlink">
 <defs>
  <style type="text/css">
*{stroke-linecap:butt;stroke-linejoin:round;}
  </style>
 </defs>
 <g id="figure_1">
  <g id="patch_1">
   <path d="M 0 345.6 
L 460.8 345.6 
L 460.8 0 
L 0 0 
z
" style="fill:#ffffff;"/>
  </g>
  <g id="axes_1">
   <g id="patch_2">
    <path d="M 103.104 307.584 
L 369.216 307.584 
L 369.216 41.472 
L 103.104 41.472 
z
" style="fill:#ffffff;"/>
   </g>
   <g id="matplotlib.axis_1">
    <g id="xtick_1">
     <g id="line2d_1">
      <defs>
       <path d="M 0 0 
L 0 3.5 
" id="m63ee80d631" style="stroke:#000000;stroke-width:0.8;"/>
      </defs>
      <g>
       <use style="stroke:#000000;stroke-width:0.8;" x="129.7152" xlink:href="#m63ee80d631" y="307.584"/>
      </g>
     </g>
     <g id="text_1">
      <!-- −4 -->
      <defs>
       <path d="M 10.59375 35.5 
L 73.1875 35.5 
L 73.1875 27.203125 
L 10.59375 27.203125 
z
" id="DejaVuSans-2212"/>
       <path d="M 37.796875 64.3125 
L 12.890625 25.390625 
L 37.796875 25.390625 
z
M 35.203125 72.90625 
L 47.609375 72.90625 
L 47.609375 25.390625 
L 58.015625 25.390625 
L 58.015625 17.1875 
L 47.609375 17.1875 
L 47.609375 0 
L 37.796875 0 
L 37.796875 17.1875 
L 4.890625 17.1875 
L 4.890625 26.703125 
z
" id="DejaVuSans-34"/>
      </defs>
      <g transform="translate(122.344106 322.182437)scale(0.1 -0.1)">
       <use xlink:href="#DejaVuSans-2212"/>
       <use x="83.789062" xlink:href="#DejaVuSans-34"/>
      </g>
     </g>
    </g>
    <g id="xtick_2">
     <g id="line2d_2">
      <g>
       <use style="stroke:#000000;stroke-width:0.8;" x="182.9376" xlink:href="#m63ee80d631" y="307.584"/>
      </g>
     </g>
     <g id="text_2">
      <!-- −2 -->
      <defs>
       <path d="M 19.1875 8.296875 
L 53.609375 8.296875 
L 53.609375 0 
L 7.328125 0 
L 7.328125 8.296875 
Q 12.9375 14.109375 22.625 23.890625 
Q 32.328125 33.6875 34.8125 36.53125 
Q 39.546875 41.84375 41.421875 45.53125 
Q 43.3125 49.21875 43.3125 52.78125 
Q 43.3125 58.59375 39.234375 62.25 
Q 35.15625 65.921875 28.609375 65.921875 
Q 23.96875 65.921875 18.8125 64.3125 
Q 13.671875 62.703125 7.8125 59.421875 
L 7.8125 69.390625 
Q 13.765625 71.78125 18.9375 73 
Q 24.125 74.21875 28.421875 74.21875 
Q 39.75 74.21875 46.484375 68.546875 
Q 53.21875 62.890625 53.21875 53.421875 
Q 53.21875 48.921875 51.53125 44.890625 
Q 49.859375 40.875 45.40625 35.40625 
Q 44.1875 33.984375 37.640625 27.21875 
Q 31.109375 20.453125 19.1875 8.296875 
z
" id="DejaVuSans-32"/>
      </defs>
      <g transform="translate(175.566506 322.182437)scale(0.1 -0.1)">
       <use xlink:href="#DejaVuSans-2212"/>
       <use x="83.789062" xlink:href="#DejaVuSans-32"/>
      </g>
     </g>
    </g>
    <g id="xtick_3">
     <g id="line2d_3">
      <g>
       <use style="stroke:#000000;stroke-width:0.8;" x="236.16" xlink:href="#m63ee80d631" y="307.584"/>
      </g>
     </g>
     <g id="text_3">
      <!-- 0 -->
      <defs>
       <path d="M 31.78125 66.40625 
Q 24.171875 66.40625 20.328125 58.90625 
Q 16.5 51.421875 16.5 36.375 
Q 16.5 21.390625 20.328125 13.890625 
Q 24.171875 6.390625 31.78125 6.390625 
Q 39.453125 6.390625 43.28125 13.890625 
Q 47.125 21.390625 47.125 36.375 
Q 47.125 51.421875 43.28125 58.90625 
Q 39.453125 66.40625 31.78125 66.40625 
z
M 31.78125 74.21875 
Q 44.046875 74.21875 50.515625 64.515625 
Q 56.984375 54.828125 56.984375 36.375 
Q 56.984375 17.96875 50.515625 8.265625 
Q 44.046875 -1.421875 31.78125 -1.421875 
Q 19.53125 -1.421875 13.0625 8.265625 
Q 6.59375 17.96875 6.59375 36.375 
Q 6.59375 54.828125 13.0625 64.515625 
Q 19.53125 74.21875 31.78125 74.21875 
z
" id="DejaVuSans-30"/>
      </defs>
      <g transform="translate(232.97875 322.182437)scale(0.1 -0.1)">
       <use xlink:href="#DejaVuSans-30"/>
      </g>
     </g>
    </g>
    <g id="xtick_4">
     <g id="line2d_4">
      <g>
       <use style="stroke:#000000;stroke-width:0.8;" x="289.3824" xlink:href="#m63ee80d631" y="307.584"/>
      </g>
     </g>
     <g id="text_4">
      <!-- 2 -->
      <g transform="translate(286.20115 322.182437)scale(0.1 -0.1)">
       <use xlink:href="#DejaVuSans-32"/>
      </g>
     </g>
    </g>
    <g id="xtick_5">
     <g id="line2d_5">
      <g>
       <use style="stroke:#000000;stroke-width:0.8;" x="342.6048" xlink:href="#m63ee80d631" y="307.584"/>
      </g>
     </g>
     <g id="text_5">
      <!-- 4 -->
      <g transform="translate(339.42355 322.182437)scale(0.1 -0.1)">
       <use xlink:href="#DejaVuSans-34"/>
      </g>
     </g>
    </g>
   </g>
   <g id="matplotlib.axis_2">
    <g id="ytick_1">
     <g id="line2d_6">
      <defs>
       <path d="M 0 0 
L -3.5 0 
" id="m29b6c8ad71" style="stroke:#000000;stroke-width:0.8;"/>
      </defs>
      <g>
       <use style="stroke:#000000;stroke-width:0.8;" x="103.104" xlink:href="#m29b6c8ad71" y="280.9728"/>
      </g>
     </g>
     <g id="text_6">
      <!-- −4 -->
      <g transform="translate(81.361813 284.772019)scale(0.1 -0.1)">
       <use xlink:href="#DejaVuSans-2212"/>
       <use x="83.789062" xlink:href="#DejaVuSans-34"/>
      </g>
     </g>
    </g>
    <g id="ytick_2">
     <g id="line2d_7">
      <g>
       <use style="stroke:#000000;stroke-width:0.8;" x="103.104" xlink:href="#m29b6c8ad71" y="227.7504"/>
      </g>
     </g>
     <g id="text_7">
      <!-- −2 -->
      <g transform="translate(81.361813 231.549619)scale(0.1 -0.1)">
       <use xlink:href="#DejaVuSans-2212"/>
       <use x="83.789062" xlink:href="#DejaVuSans-32"/>
      </g>
     </g>
    </g>
    <g id="ytick_3">
     <g id="line2d_8">
      <g>
       <use style="stroke:#000000;stroke-width:0.8;" x="103.104" xlink:href="#m29b6c8ad71" y="174.528"/>
      </g>
     </g>
     <g id="text_8">
      <!-- 0 -->
      <g transform="translate(89.7415 178.327219)scale(0.1 -0.1)">
       <use xlink:href="#DejaVuSans-30"/>
      </g>
     </g>
    </g>
    <g id="ytick_4">
     <g id="line2d_9">
      <g>
       <use style="stroke:#000000;stroke-width:0.8;" x="103.104" xlink:href="#m29b6c8ad71" y="121.3056"/>
      </g>
     </g>
     <g id="text_9">
      <!-- 2 -->
      <g transform="translate(89.7415 125.104819)scale(0.1 -0.1)">
       <use xlink:href="#DejaVuSans-32"/>
      </g>
     </g>
    </g>
    <g id="ytick_5">
     <g id="line2d_10">
      <g>
       <use style="stroke:#000000;stroke-width:0.8;" x="103.104" xlink:href="#m29b6c8ad71" y="68.0832"/>
      </g>
     </g>
     <g id="text_10">
      <!-- 4 -->
      <g transform="translate(89.7415 71.882419)scale(0.1 -0.1)">
       <use xlink:href="#DejaVuSans-34"/>
      </g>
     </g>
    </g>
   </g>
   <g id="line2d_11">
    <path clip-path="url(#pe465a0c4bd)" d="M 236.16 174.528 
L 236.950235 174.38866 
L 237.881871 174.066626 
L 239.085187 173.463319 
L 240.467613 172.519327 
L 241.921494 171.2016 
L 243.331526 169.506443 
L 244.58274 167.460482 
L 245.56848 165.11952 
L 246.197831 162.565379 
L 246.356354 161.239853 
L 246.402001 159.900907 
L 246.330431 158.563621 
L 246.1392 157.243519 
L 245.827806 155.956318 
L 245.397706 154.717675 
L 244.852302 153.542926 
L 244.196885 152.446839 
L 243.438557 151.443368 
L 242.586111 150.545426 
L 241.649897 149.764673 
L 240.641647 149.111319 
L 239.574281 148.593961 
L 238.461701 148.219436 
L 237.318556 147.992712 
L 236.16 147.9168 
L 235.001444 147.992712 
L 233.858299 148.219436 
L 232.745719 148.593961 
L 231.678353 149.111319 
L 230.670103 149.764673 
L 229.733889 150.545426 
L 228.881443 151.443368 
L 228.123115 152.446839 
L 227.467698 153.542926 
L 226.922294 154.717675 
L 226.492194 155.956318 
L 226.1808 157.243519 
L 225.989569 158.563621 
L 225.917999 159.900907 
L 225.963646 161.239853 
L 226.387412 163.863092 
L 227.205073 166.322322 
L 228.336063 168.524482 
L 229.680721 170.400244 
L 231.127259 171.908121 
L 232.559531 173.036637 
L 233.86508 173.804414 
L 235.369765 174.38866 
L 236.16 174.528 
L 235.958627 174.545618 
L 234.942919 174.79782 
L 233.86508 175.251586 
L 232.559531 176.019363 
L 231.127259 177.147879 
L 229.680721 178.655756 
L 228.336063 180.531518 
L 227.205073 182.733678 
L 226.387412 185.192908 
L 225.963646 187.816147 
L 225.917999 189.155093 
L 225.989569 190.492379 
L 226.1808 191.812481 
L 226.492194 193.099682 
L 226.922294 194.338325 
L 227.467698 195.513074 
L 228.123115 196.609161 
L 228.881443 197.612632 
L 229.733889 198.510574 
L 230.670103 199.291327 
L 231.678353 199.944681 
L 232.745719 200.462039 
L 233.858299 200.836564 
L 235.001444 201.063288 
L 236.16 201.1392 
L 237.318556 201.063288 
L 238.461701 200.836564 
L 239.574281 200.462039 
L 240.641647 199.944681 
L 241.649897 199.291327 
L 242.586111 198.510574 
L 243.438557 197.612632 
L 244.196885 196.609161 
L 244.852302 195.513074 
L 245.397706 194.338325 
L 245.827806 193.099682 
L 246.1392 191.812481 
L 246.330431 190.492379 
L 246.402001 189.155093 
L 246.356354 187.816147 
L 245.932588 185.192908 
L 245.114927 182.733678 
L 243.983937 180.531518 
L 242.639279 178.655756 
L 241.192741 177.147879 
L 239.760469 176.019363 
L 238.45492 175.251586 
L 236.950235 174.66734 
L 236.16 174.528 
L 236.16 174.528 
" style="fill:none;stroke:#1f77b4;stroke-linecap:square;stroke-width:1.5;"/>
   </g>
   <g id="line2d_12">
    <path clip-path="url(#pe465a0c4bd)" d="M 342.6048 174.528 
L 341.897639 169.911395 
L 339.801628 165.460532 
L 336.392064 161.332198 
L 331.790784 157.665713 
L 326.160848 154.575292 
L 319.699447 152.143673 
L 312.629359 150.417304 
L 305.189331 149.403378 
L 297.623858 149.068837 
L 290.172791 149.341422 
L 283.061275 150.112742 
L 276.490457 151.2432 
L 270.629388 152.568578 
L 258.389444 155.875282 
L 256.226939 156.140038 
L 254.97696 155.71104 
L 254.547962 154.461061 
L 254.812718 152.298556 
L 256.780048 145.079519 
L 258.119422 140.058612 
L 259.4448 134.197543 
L 260.575258 127.626725 
L 261.346578 120.515209 
L 261.619163 113.064142 
L 261.284622 105.498669 
L 260.270696 98.058641 
L 258.544327 90.988553 
L 256.112708 84.527152 
L 253.022287 78.897216 
L 249.355802 74.295936 
L 245.227468 70.886372 
L 240.776605 68.790361 
L 236.16 68.0832 
L 231.543395 68.790361 
L 227.092532 70.886372 
L 222.964198 74.295936 
L 219.297713 78.897216 
L 216.207292 84.527152 
L 213.775673 90.988553 
L 212.049304 98.058641 
L 211.035378 105.498669 
L 210.700837 113.064142 
L 210.973422 120.515209 
L 211.744742 127.626725 
L 212.8752 134.197543 
L 214.200578 140.058612 
L 217.507282 152.298556 
L 217.772038 154.461061 
L 217.34304 155.71104 
L 216.093061 156.140038 
L 213.930556 155.875282 
L 206.711519 153.907952 
L 201.690612 152.568578 
L 195.829543 151.2432 
L 189.258725 150.112742 
L 182.147209 149.341422 
L 174.696142 149.068837 
L 167.130669 149.403378 
L 159.690641 150.417304 
L 152.620553 152.143673 
L 146.159152 154.575292 
L 140.529216 157.665713 
L 135.927936 161.332198 
L 132.518372 165.460532 
L 130.422361 169.911395 
L 129.7152 174.528 
L 130.422361 179.144605 
L 132.518372 183.595468 
L 135.927936 187.723802 
L 140.529216 191.390287 
L 146.159152 194.480708 
L 152.620553 196.912327 
L 159.690641 198.638696 
L 167.130669 199.652622 
L 174.696142 199.987163 
L 182.147209 199.714578 
L 189.258725 198.943258 
L 195.829543 197.8128 
L 201.690612 196.487422 
L 213.930556 193.180718 
L 216.093061 192.915962 
L 217.34304 193.34496 
L 217.772038 194.594939 
L 217.507282 196.757444 
L 215.539952 203.976481 
L 214.200578 208.997388 
L 212.8752 214.858457 
L 211.744742 221.429275 
L 210.973422 228.540791 
L 210.700837 235.991858 
L 211.035378 243.557331 
L 212.049304 250.997359 
L 213.775673 258.067447 
L 216.207292 264.528848 
L 219.297713 270.158784 
L 222.964198 274.760064 
L 227.092532 278.169628 
L 231.543395 280.265639 
L 236.16 280.9728 
L 240.776605 280.265639 
L 245.227468 278.169628 
L 249.355802 274.760064 
L 253.022287 270.158784 
L 256.112708 264.528848 
L 258.544327 258.067447 
L 260.270696 250.997359 
L 261.284622 243.557331 
L 261.619163 235.991858 
L 261.346578 228.540791 
L 260.575258 221.429275 
L 259.4448 214.858457 
L 258.119422 208.997388 
L 254.812718 196.757444 
L 254.547962 194.594939 
L 254.97696 193.34496 
L 256.226939 192.915962 
L 258.389444 193.180718 
L 265.608481 195.148048 
L 270.629388 196.487422 
L 276.490457 197.8128 
L 283.061275 198.943258 
L 290.172791 199.714578 
L 297.623858 199.987163 
L 305.189331 199.652622 
L 312.629359 198.638696 
L 319.699447 196.912327 
L 326.160848 194.480708 
L 331.790784 191.390287 
L 336.392064 187.723802 
L 339.801628 183.595468 
L 341.897639 179.144605 
L 342.6048 174.528 
L 342.6048 174.528 
" style="fill:none;stroke:#ff7f0e;stroke-linecap:square;stroke-width:1.5;"/>
   </g>
   <g id="patch_3">
    <path d="M 103.104 307.584 
L 103.104 41.472 
" style="fill:none;stroke:#000000;stroke-linecap:square;stroke-linejoin:miter;stroke-width:0.8;"/>
   </g>
   <g id="patch_4">
    <path d="M 369.216 307.584 
L 369.216 41.472 
" style="fill:none;stroke:#000000;stroke-linecap:square;stroke-linejoin:miter;stroke-width:0.8;"/>
   </g>
   <g id="patch_5">
    <path d="M 103.104 307.584 
L 369.216 307.584 
" style="fill:none;stroke:#000000;stroke-linecap:square;stroke-linejoin:miter;stroke-width:0.8;"/>
   </g>
   <g id="patch_6">
    <path d="M 103.104 41.472 
L 369.216 41.472 
" style="fill:none;stroke:#000000;stroke-linecap:square;stroke-linejoin:miter;stroke-width:0.8;"/>
   </g>
   <g id="legend_1">
    <g id="patch_7">
     <path d="M 319.742563 78.82825 
L 362.216 78.82825 
Q 364.216 78.82825 364.216 76.82825 
L 364.216 48.472 
Q 364.216 46.472 362.216 46.472 
L 319.742563 46.472 
Q 317.742563 46.472 317.742563 48.472 
L 317.742563 76.82825 
Q 317.742563 78.82825 319.742563 78.82825 
z
" style="fill:#ffffff;opacity:0.8;stroke:#cccccc;stroke-linejoin:miter;"/>
    </g>
    <g id="line2d_13">
     <path d="M 321.742563 54.570437 
L 341.742563 54.570437 
" style="fill:none;stroke:#1f77b4;stroke-linecap:square;stroke-width:1.5;"/>
    </g>
    <g id="line2d_14"/>
    <g id="text_11">
     <!-- r8 -->
     <defs>
      <path d="M 41.109375 46.296875 
Q 39.59375 47.171875 37.8125 47.578125 
Q 36.03125 48 33.890625 48 
Q 26.265625 48 22.1875 43.046875 
Q 18.109375 38.09375 18.109375 28.8125 
L 18.109375 0 
L 9.078125 0 
L 9.078125 54.6875 
L 18.109375 54.6875 
L 18.109375 46.1875 
Q 20.953125 51.171875 25.484375 53.578125 
Q 30.03125 56 36.53125 56 
Q 37.453125 56 38.578125 55.875 
Q 39.703125 55.765625 41.0625 55.515625 
z
" id="DejaVuSans-72"/>
      <path d="M 31.78125 34.625 
Q 24.75 34.625 20.71875 30.859375 
Q 16.703125 27.09375 16.703125 20.515625 
Q 16.703125 13.921875 20.71875 10.15625 
Q 24.75 6.390625 31.78125 6.390625 
Q 38.8125 6.390625 42.859375 10.171875 
Q 46.921875 13.96875 46.921875 20.515625 
Q 46.921875 27.09375 42.890625 30.859375 
Q 38.875 34.625 31.78125 34.625 
z
M 21.921875 38.8125 
Q 15.578125 40.375 12.03125 44.71875 
Q 8.5 49.078125 8.5 55.328125 
Q 8.5 64.0625 14.71875 69.140625 
Q 20.953125 74.21875 31.78125 74.21875 
Q 42.671875 74.21875 48.875 69.140625 
Q 55.078125 64.0625 55.078125 55.328125 
Q 55.078125 49.078125 51.53125 44.71875 
Q 48 40.375 41.703125 38.8125 
Q 48.828125 37.15625 52.796875 32.3125 
Q 56.78125 27.484375 56.78125 20.515625 
Q 56.78125 9.90625 50.3125 4.234375 
Q 43.84375 -1.421875 31.78125 -1.421875 
Q 19.734375 -1.421875 13.25 4.234375 
Q 6.78125 9.90625 6.78125 20.515625 
Q 6.78125 27.484375 10.78125 32.3125 
Q 14.796875 37.15625 21.921875 38.8125 
z
M 18.3125 54.390625 
Q 18.3125 48.734375 21.84375 45.5625 
Q 25.390625 42.390625 31.78125 42.390625 
Q 38.140625 42.390625 41.71875 45.5625 
Q 45.3125 48.734375 45.3125 54.390625 
Q 45.3125 60.0625 41.71875 63.234375 
Q 38.140625 66.40625 31.78125 66.40625 
Q 25.390625 66.40625 21.84375 63.234375 
Q 18.3125 60.0625 18.3125 54.390625 
z
" id="DejaVuSans-38"/>
     </defs>
     <g transform="translate(349.742563 58.070437)scale(0.1 -0.1)">
      <use xlink:href="#DejaVuSans-72"/>
      <use x="41.113281" xlink:href="#DejaVuSans-38"/>
     </g>
    </g>
    <g id="line2d_15">
     <path d="M 321.742563 69.248562 
L 341.742563 69.248562 
" style="fill:none;stroke:#ff7f0e;stroke-linecap:square;stroke-width:1.5;"/>
    </g>
    <g id="line2d_16"/>
    <g id="text_12">
     <!-- r9 -->
     <defs>
      <path d="M 10.984375 1.515625 
L 10.984375 10.5 
Q 14.703125 8.734375 18.5 7.8125 
Q 22.3125 6.890625 25.984375 6.890625 
Q 35.75 6.890625 40.890625 13.453125 
Q 46.046875 20.015625 46.78125 33.40625 
Q 43.953125 29.203125 39.59375 26.953125 
Q 35.25 24.703125 29.984375 24.703125 
Q 19.046875 24.703125 12.671875 31.3125 
Q 6.296875 37.9375 6.296875 49.421875 
Q 6.296875 60.640625 12.9375 67.421875 
Q 19.578125 74.21875 30.609375 74.21875 
Q 43.265625 74.21875 49.921875 64.515625 
Q 56.59375 54.828125 56.59375 36.375 
Q 56.59375 19.140625 48.40625 8.859375 
Q 40.234375 -1.421875 26.421875 -1.421875 
Q 22.703125 -1.421875 18.890625 -0.6875 
Q 15.09375 0.046875 10.984375 1.515625 
z
M 30.609375 32.421875 
Q 37.25 32.421875 41.125 36.953125 
Q 45.015625 41.5 45.015625 49.421875 
Q 45.015625 57.28125 41.125 61.84375 
Q 37.25 66.40625 30.609375 66.40625 
Q 23.96875 66.40625 20.09375 61.84375 
Q 16.21875 57.28125 16.21875 49.421875 
Q 16.21875 41.5 20.09375 36.953125 
Q 23.96875 32.421875 30.609375 32.421875 
z
" id="DejaVuSans-39"/>
     </defs>
     <g transform="translate(349.742563 72.748562)scale(0.1 -0.1)">
      <use xlink:href="#DejaVuSans-72"/>
      <use x="41.113281" xlink:href="#DejaVuSans-39"/>
     </g>
    </g>
   </g>
  </g>
 </g>
 <defs>
  <clipPath id="pe465a0c4bd">
   <rect height="266.112" width="266.112" x="103.104" y="41.472"/>
  </clipPath>
 </defs>
</svg>
