<?xml version="1.0" encoding="utf-8" standalone="no"?>
<!DOCTYPE svg PUBLIC "-//W3C//DTD SVG 1.1//EN"
  "http://www.w3.org/Graphics/SVG/1.1/DTD/svg11.dtd">
<!-- Created with matplotlib (http://matplotlib.org/) -->
<svg height="345.6pt" version="1.1" viewBox="0 0 460.8 345.6" width="460.8pt" xmlns="http://www.w3.org/2000/svg" xmlns:xlink="http://www.w3.org/1999/xlink">
 <defs>
  <style type="text/css">
*{stroke-linecap:butt;stroke-linejoin:round;}
  </style>
 </defs>
 <g id="figure_1">
  <g id="patch_1">
   <path d="M 0 345.6 
L 460.8 345.6 
L 460.8 0 
L 0 0 
z
" style="fill:#ffffff;"/>
  </g>
  <g id="axes_1">
   <g id="patch_2">
    <path d="M 103.104 307.584 
L 369.216 307.584 
L 369.216 41.472 
L 103.104 41.472 
z
" style="fill:#ffffff;"/>
   </g>
   <g id="matplotlib.axis_1">
    <g id="xtick_1">
     <g id="line2d_1">
      <defs>
       <path d="M 0 0 
L 0 3.5 
" id="m94b2cd70f9" style="stroke:#000000;stroke-width:0.8;"/>
      </defs>
      <g>
       <use style="stroke:#000000;stroke-width:0.8;" x="129.7152" xlink:href="#m94b2cd70f9" y="307.584"/>
      </g>
     </g>
     <g id="text_1">
      <!-- −1.0 -->
      <defs>
       <path d="M 10.59375 35.5 
L 73.1875 35.5 
L 73.1875 27.203125 
L 10.59375 27.203125 
z
" id="DejaVuSans-2212"/>
       <path d="M 12.40625 8.296875 
L 28.515625 8.296875 
L 28.515625 63.921875 
L 10.984375 60.40625 
L 10.984375 69.390625 
L 28.421875 72.90625 
L 38.28125 72.90625 
L 38.28125 8.296875 
L 54.390625 8.296875 
L 54.390625 0 
L 12.40625 0 
z
" id="DejaVuSans-31"/>
       <path d="M 10.6875 12.40625 
L 21 12.40625 
L 21 0 
L 10.6875 0 
z
" id="DejaVuSans-2e"/>
       <path d="M 31.78125 66.40625 
Q 24.171875 66.40625 20.328125 58.90625 
Q 16.5 51.421875 16.5 36.375 
Q 16.5 21.390625 20.328125 13.890625 
Q 24.171875 6.390625 31.78125 6.390625 
Q 39.453125 6.390625 43.28125 13.890625 
Q 47.125 21.390625 47.125 36.375 
Q 47.125 51.421875 43.28125 58.90625 
Q 39.453125 66.40625 31.78125 66.40625 
z
M 31.78125 74.21875 
Q 44.046875 74.21875 50.515625 64.515625 
Q 56.984375 54.828125 56.984375 36.375 
Q 56.984375 17.96875 50.515625 8.265625 
Q 44.046875 -1.421875 31.78125 -1.421875 
Q 19.53125 -1.421875 13.0625 8.265625 
Q 6.59375 17.96875 6.59375 36.375 
Q 6.59375 54.828125 13.0625 64.515625 
Q 19.53125 74.21875 31.78125 74.21875 
z
" id="DejaVuSans-30"/>
      </defs>
      <g transform="translate(117.573794 322.182437)scale(0.1 -0.1)">
       <use xlink:href="#DejaVuSans-2212"/>
       <use x="83.789062" xlink:href="#DejaVuSans-31"/>
       <use x="147.412109" xlink:href="#DejaVuSans-2e"/>
       <use x="179.199219" xlink:href="#DejaVuSans-30"/>
      </g>
     </g>
    </g>
    <g id="xtick_2">
     <g id="line2d_2">
      <g>
       <use style="stroke:#000000;stroke-width:0.8;" x="182.9376" xlink:href="#m94b2cd70f9" y="307.584"/>
      </g>
     </g>
     <g id="text_2">
      <!-- −0.5 -->
      <defs>
       <path d="M 10.796875 72.90625 
L 49.515625 72.90625 
L 49.515625 64.59375 
L 19.828125 64.59375 
L 19.828125 46.734375 
Q 21.96875 47.46875 24.109375 47.828125 
Q 26.265625 48.1875 28.421875 48.1875 
Q 40.625 48.1875 47.75 41.5 
Q 54.890625 34.8125 54.890625 23.390625 
Q 54.890625 11.625 47.5625 5.09375 
Q 40.234375 -1.421875 26.90625 -1.421875 
Q 22.3125 -1.421875 17.546875 -0.640625 
Q 12.796875 0.140625 7.71875 1.703125 
L 7.71875 11.625 
Q 12.109375 9.234375 16.796875 8.0625 
Q 21.484375 6.890625 26.703125 6.890625 
Q 35.15625 6.890625 40.078125 11.328125 
Q 45.015625 15.765625 45.015625 23.390625 
Q 45.015625 31 40.078125 35.4375 
Q 35.15625 39.890625 26.703125 39.890625 
Q 22.75 39.890625 18.8125 39.015625 
Q 14.890625 38.140625 10.796875 36.28125 
z
" id="DejaVuSans-35"/>
      </defs>
      <g transform="translate(170.796194 322.182437)scale(0.1 -0.1)">
       <use xlink:href="#DejaVuSans-2212"/>
       <use x="83.789062" xlink:href="#DejaVuSans-30"/>
       <use x="147.412109" xlink:href="#DejaVuSans-2e"/>
       <use x="179.199219" xlink:href="#DejaVuSans-35"/>
      </g>
     </g>
    </g>
    <g id="xtick_3">
     <g id="line2d_3">
      <g>
       <use style="stroke:#000000;stroke-width:0.8;" x="236.16" xlink:href="#m94b2cd70f9" y="307.584"/>
      </g>
     </g>
     <g id="text_3">
      <!-- 0.0 -->
      <g transform="translate(228.208438 322.182437)scale(0.1 -0.1)">
       <use xlink:href="#DejaVuSans-30"/>
       <use x="63.623047" xlink:href="#DejaVuSans-2e"/>
       <use x="95.410156" xlink:href="#DejaVuSans-30"/>
      </g>
     </g>
    </g>
    <g id="xtick_4">
     <g id="line2d_4">
      <g>
       <use style="stroke:#000000;stroke-width:0.8;" x="289.3824" xlink:href="#m94b2cd70f9" y="307.584"/>
      </g>
     </g>
     <g id="text_4">
      <!-- 0.5 -->
      <g transform="translate(281.430837 322.182437)scale(0.1 -0.1)">
       <use xlink:href="#DejaVuSans-30"/>
       <use x="63.623047" xlink:href="#DejaVuSans-2e"/>
       <use x="95.410156" xlink:href="#DejaVuSans-35"/>
      </g>
     </g>
    </g>
    <g id="xtick_5">
     <g id="line2d_5">
      <g>
       <use style="stroke:#000000;stroke-width:0.8;" x="342.6048" xlink:href="#m94b2cd70f9" y="307.584"/>
      </g>
     </g>
     <g id="text_5">
      <!-- 1.0 -->
      <g transform="translate(334.653237 322.182437)scale(0.1 -0.1)">
       <use xlink:href="#DejaVuSans-31"/>
       <use x="63.623047" xlink:href="#DejaVuSans-2e"/>
       <use x="95.410156" xlink:href="#DejaVuSans-30"/>
      </g>
     </g>
    </g>
   </g>
   <g id="matplotlib.axis_2">
    <g id="ytick_1">
     <g id="line2d_6">
      <defs>
       <path d="M 0 0 
L -3.5 0 
" id="m14a0d87848" style="stroke:#000000;stroke-width:0.8;"/>
      </defs>
      <g>
       <use style="stroke:#000000;stroke-width:0.8;" x="103.104" xlink:href="#m14a0d87848" y="280.9728"/>
      </g>
     </g>
     <g id="text_6">
      <!-- −1.0 -->
      <g transform="translate(71.821188 284.772019)scale(0.1 -0.1)">
       <use xlink:href="#DejaVuSans-2212"/>
       <use x="83.789062" xlink:href="#DejaVuSans-31"/>
       <use x="147.412109" xlink:href="#DejaVuSans-2e"/>
       <use x="179.199219" xlink:href="#DejaVuSans-30"/>
      </g>
     </g>
    </g>
    <g id="ytick_2">
     <g id="line2d_7">
      <g>
       <use style="stroke:#000000;stroke-width:0.8;" x="103.104" xlink:href="#m14a0d87848" y="227.7504"/>
      </g>
     </g>
     <g id="text_7">
      <!-- −0.5 -->
      <g transform="translate(71.821188 231.549619)scale(0.1 -0.1)">
       <use xlink:href="#DejaVuSans-2212"/>
       <use x="83.789062" xlink:href="#DejaVuSans-30"/>
       <use x="147.412109" xlink:href="#DejaVuSans-2e"/>
       <use x="179.199219" xlink:href="#DejaVuSans-35"/>
      </g>
     </g>
    </g>
    <g id="ytick_3">
     <g id="line2d_8">
      <g>
       <use style="stroke:#000000;stroke-width:0.8;" x="103.104" xlink:href="#m14a0d87848" y="174.528"/>
      </g>
     </g>
     <g id="text_8">
      <!-- 0.0 -->
      <g transform="translate(80.200875 178.327219)scale(0.1 -0.1)">
       <use xlink:href="#DejaVuSans-30"/>
       <use x="63.623047" xlink:href="#DejaVuSans-2e"/>
       <use x="95.410156" xlink:href="#DejaVuSans-30"/>
      </g>
     </g>
    </g>
    <g id="ytick_4">
     <g id="line2d_9">
      <g>
       <use style="stroke:#000000;stroke-width:0.8;" x="103.104" xlink:href="#m14a0d87848" y="121.3056"/>
      </g>
     </g>
     <g id="text_9">
      <!-- 0.5 -->
      <g transform="translate(80.200875 125.104819)scale(0.1 -0.1)">
       <use xlink:href="#DejaVuSans-30"/>
       <use x="63.623047" xlink:href="#DejaVuSans-2e"/>
       <use x="95.410156" xlink:href="#DejaVuSans-35"/>
      </g>
     </g>
    </g>
    <g id="ytick_5">
     <g id="line2d_10">
      <g>
       <use style="stroke:#000000;stroke-width:0.8;" x="103.104" xlink:href="#m14a0d87848" y="68.0832"/>
      </g>
     </g>
     <g id="text_10">
      <!-- 1.0 -->
      <g transform="translate(80.200875 71.882419)scale(0.1 -0.1)">
       <use xlink:href="#DejaVuSans-31"/>
       <use x="63.623047" xlink:href="#DejaVuSans-2e"/>
       <use x="95.410156" xlink:href="#DejaVuSans-30"/>
      </g>
     </g>
    </g>
   </g>
   <g id="line2d_11">
    <path clip-path="url(#p70f94f3458)" d="M 236.16 174.528 
L 237.971783 174.448896 
L 243.263316 173.90654 
L 251.615118 172.493295 
L 262.366916 169.907014 
L 274.672368 165.990014 
L 287.568891 160.753029 
L 300.056528 154.381502 
L 311.179045 147.223301 
L 320.100294 139.758792 
L 326.169369 132.555942 
L 328.969088 126.214647 
L 328.343901 121.3056 
L 324.405136 118.309648 
L 317.513553 117.563629 
L 308.241165 119.218177 
L 297.316086 123.211951 
L 285.555643 129.265232 
L 273.79392 136.89408 
L 262.810297 145.444304 
L 253.26535 154.142638 
L 245.649665 162.160827 
L 240.249858 168.687078 
L 236.16 174.528 
L 236.997385 172.919398 
L 239.173458 168.065618 
L 242.125453 160.126122 
L 245.261566 149.521652 
L 248.022071 136.906318 
L 249.934971 123.119109 
L 250.660885 109.118734 
L 250.022959 95.907252 
L 248.019129 84.448968 
L 244.815816 75.591571 
L 240.723953 69.996295 
L 236.16 68.0832 
L 231.596047 69.996295 
L 227.504184 75.591571 
L 224.300871 84.448968 
L 222.297041 95.907252 
L 221.659115 109.118734 
L 222.385029 123.119109 
L 224.297929 136.906318 
L 227.058434 149.521652 
L 230.194547 160.126122 
L 233.146542 168.065618 
L 236.16 174.528 
L 235.185602 172.998502 
L 232.070142 168.687078 
L 226.670335 162.160827 
L 219.05465 154.142638 
L 209.509703 145.444304 
L 198.52608 136.89408 
L 186.764357 129.265232 
L 175.003914 123.211951 
L 164.078835 119.218177 
L 154.806447 117.563629 
L 147.914864 118.309648 
L 143.976099 121.3056 
L 143.350912 126.214647 
L 146.150631 132.555942 
L 152.219706 139.758792 
L 161.140955 147.223301 
L 172.263472 154.381502 
L 184.751109 160.753029 
L 197.647632 165.990014 
L 209.953084 169.907014 
L 220.704882 172.493295 
L 229.056684 173.90654 
L 236.16 174.528 
L 234.348217 174.607104 
L 229.056684 175.14946 
L 220.704882 176.562705 
L 209.953084 179.148986 
L 197.647632 183.065986 
L 184.751109 188.302971 
L 172.263472 194.674498 
L 161.140955 201.832699 
L 152.219706 209.297208 
L 146.150631 216.500058 
L 143.350912 222.841353 
L 143.976099 227.7504 
L 147.914864 230.746352 
L 154.806447 231.492371 
L 164.078835 229.837823 
L 175.003914 225.844049 
L 186.764357 219.790768 
L 198.52608 212.16192 
L 209.509703 203.611696 
L 219.05465 194.913362 
L 226.670335 186.895173 
L 232.070142 180.368922 
L 236.16 174.528 
L 235.322615 176.136602 
L 233.146542 180.990382 
L 230.194547 188.929878 
L 227.058434 199.534348 
L 224.297929 212.149682 
L 222.385029 225.936891 
L 221.659115 239.937266 
L 222.297041 253.148748 
L 224.300871 264.607032 
L 227.504184 273.464429 
L 231.596047 279.059705 
L 236.16 280.9728 
L 240.723953 279.059705 
L 244.815816 273.464429 
L 248.019129 264.607032 
L 250.022959 253.148748 
L 250.660885 239.937266 
L 249.934971 225.936891 
L 248.022071 212.149682 
L 245.261566 199.534348 
L 242.125453 188.929878 
L 239.173458 180.990382 
L 236.16 174.528 
L 237.134398 176.057498 
L 240.249858 180.368922 
L 245.649665 186.895173 
L 253.26535 194.913362 
L 262.810297 203.611696 
L 273.79392 212.16192 
L 285.555643 219.790768 
L 297.316086 225.844049 
L 308.241165 229.837823 
L 317.513553 231.492371 
L 324.405136 230.746352 
L 328.343901 227.7504 
L 328.969088 222.841353 
L 326.169369 216.500058 
L 320.100294 209.297208 
L 311.179045 201.832699 
L 300.056528 194.674498 
L 287.568891 188.302971 
L 274.672368 183.065986 
L 262.366916 179.148986 
L 251.615118 176.562705 
L 243.263316 175.14946 
L 236.16 174.528 
L 236.16 174.528 
" style="fill:none;stroke:#1f77b4;stroke-linecap:square;stroke-width:1.5;"/>
   </g>
   <g id="line2d_12">
    <path clip-path="url(#p70f94f3458)" d="M 236.16 174.528 
L 250.040611 173.921959 
L 263.605106 172.126864 
L 276.546171 169.21106 
L 288.573832 165.286027 
L 299.423482 160.502824 
L 308.86315 155.04725 
L 316.699811 149.133895 
L 322.784531 142.999249 
L 327.01632 136.89408 
L 329.344556 131.075328 
L 329.769934 125.797753 
L 328.343901 121.3056 
L 325.166599 117.824543 
L 320.383396 115.554143 
L 314.180091 114.661079 
L 306.776965 115.273331 
L 298.421845 117.47553 
L 289.3824 121.3056 
L 279.9379 126.752806 
L 270.370699 133.757276 
L 260.957691 142.21102 
L 251.961997 151.960409 
L 243.625152 162.810059 
L 236.16 174.528 
L 229.744541 186.851982 
L 224.516892 199.496727 
L 220.57152 212.16192 
L 217.956867 224.540697 
L 216.674418 236.328371 
L 216.67925 247.23115 
L 217.882034 256.974575 
L 220.152434 265.31142 
L 223.323771 272.028841 
L 227.19884 276.954529 
L 231.556665 279.961705 
L 236.16 280.9728 
L 240.763335 279.961705 
L 245.12116 276.954529 
L 248.996229 272.028841 
L 252.167566 265.31142 
L 254.437966 256.974575 
L 255.64075 247.23115 
L 255.645582 236.328371 
L 254.363133 224.540697 
L 251.74848 212.16192 
L 247.803108 199.496727 
L 242.575459 186.851982 
L 236.16 174.528 
L 228.694848 162.810059 
L 220.358003 151.960409 
L 211.362309 142.21102 
L 201.949301 133.757276 
L 192.3821 126.752806 
L 182.9376 121.3056 
L 173.898155 117.47553 
L 165.543035 115.273331 
L 158.139909 114.661079 
L 151.936604 115.554143 
L 147.153401 117.824543 
L 143.976099 121.3056 
L 142.550066 125.797753 
L 142.975444 131.075328 
L 145.30368 136.89408 
L 149.535469 142.999249 
L 155.620189 149.133895 
L 163.45685 155.04725 
L 172.896518 160.502824 
L 183.746168 165.286027 
L 195.773829 169.21106 
L 208.714894 172.126864 
L 222.279389 173.921959 
L 236.16 174.528 
L 250.040611 173.921959 
L 263.605106 172.126864 
L 276.546171 169.21106 
L 288.573832 165.286027 
L 299.423482 160.502824 
L 308.86315 155.04725 
L 316.699811 149.133895 
L 322.784531 142.999249 
L 327.01632 136.89408 
L 329.344556 131.075328 
L 329.769934 125.797753 
L 328.343901 121.3056 
L 325.166599 117.824543 
L 320.383396 115.554143 
L 314.180091 114.661079 
L 306.776965 115.273331 
L 298.421845 117.47553 
L 289.3824 121.3056 
L 279.9379 126.752806 
L 270.370699 133.757276 
L 260.957691 142.21102 
L 251.961997 151.960409 
L 243.625152 162.810059 
L 236.16 174.528 
L 229.744541 186.851982 
L 224.516892 199.496727 
L 220.57152 212.16192 
L 217.956867 224.540697 
L 216.674418 236.328371 
L 216.67925 247.23115 
L 217.882034 256.974575 
L 220.152434 265.31142 
L 223.323771 272.028841 
L 227.19884 276.954529 
L 231.556665 279.961705 
L 236.16 280.9728 
L 240.763335 279.961705 
L 245.12116 276.954529 
L 248.996229 272.028841 
L 252.167566 265.31142 
L 254.437966 256.974575 
L 255.64075 247.23115 
L 255.645582 236.328371 
L 254.363133 224.540697 
L 251.74848 212.16192 
L 247.803108 199.496727 
L 242.575459 186.851982 
L 236.16 174.528 
L 228.694848 162.810059 
L 220.358003 151.960409 
L 211.362309 142.21102 
L 201.949301 133.757276 
L 192.3821 126.752806 
L 182.9376 121.3056 
L 173.898155 117.47553 
L 165.543035 115.273331 
L 158.139909 114.661079 
L 151.936604 115.554143 
L 147.153401 117.824543 
L 143.976099 121.3056 
L 142.550066 125.797753 
L 142.975444 131.075328 
L 145.30368 136.89408 
L 149.535469 142.999249 
L 155.620189 149.133895 
L 163.45685 155.04725 
L 172.896518 160.502824 
L 183.746168 165.286027 
L 195.773829 169.21106 
L 208.714894 172.126864 
L 222.279389 173.921959 
L 236.16 174.528 
L 236.16 174.528 
" style="fill:none;stroke:#ff7f0e;stroke-linecap:square;stroke-width:1.5;"/>
   </g>
   <g id="patch_3">
    <path d="M 103.104 307.584 
L 103.104 41.472 
" style="fill:none;stroke:#000000;stroke-linecap:square;stroke-linejoin:miter;stroke-width:0.8;"/>
   </g>
   <g id="patch_4">
    <path d="M 369.216 307.584 
L 369.216 41.472 
" style="fill:none;stroke:#000000;stroke-linecap:square;stroke-linejoin:miter;stroke-width:0.8;"/>
   </g>
   <g id="patch_5">
    <path d="M 103.104 307.584 
L 369.216 307.584 
" style="fill:none;stroke:#000000;stroke-linecap:square;stroke-linejoin:miter;stroke-width:0.8;"/>
   </g>
   <g id="patch_6">
    <path d="M 103.104 41.472 
L 369.216 41.472 
" style="fill:none;stroke:#000000;stroke-linecap:square;stroke-linejoin:miter;stroke-width:0.8;"/>
   </g>
   <g id="legend_1">
    <g id="patch_7">
     <path d="M 307.031625 78.82825 
L 362.216 78.82825 
Q 364.216 78.82825 364.216 76.82825 
L 364.216 48.472 
Q 364.216 46.472 362.216 46.472 
L 307.031625 46.472 
Q 305.031625 46.472 305.031625 48.472 
L 305.031625 76.82825 
Q 305.031625 78.82825 307.031625 78.82825 
z
" style="fill:#ffffff;opacity:0.8;stroke:#cccccc;stroke-linejoin:miter;"/>
    </g>
    <g id="line2d_13">
     <path d="M 309.031625 54.570437 
L 329.031625 54.570437 
" style="fill:none;stroke:#1f77b4;stroke-linecap:square;stroke-width:1.5;"/>
    </g>
    <g id="line2d_14"/>
    <g id="text_11">
     <!-- r10 -->
     <defs>
      <path d="M 41.109375 46.296875 
Q 39.59375 47.171875 37.8125 47.578125 
Q 36.03125 48 33.890625 48 
Q 26.265625 48 22.1875 43.046875 
Q 18.109375 38.09375 18.109375 28.8125 
L 18.109375 0 
L 9.078125 0 
L 9.078125 54.6875 
L 18.109375 54.6875 
L 18.109375 46.1875 
Q 20.953125 51.171875 25.484375 53.578125 
Q 30.03125 56 36.53125 56 
Q 37.453125 56 38.578125 55.875 
Q 39.703125 55.765625 41.0625 55.515625 
z
" id="DejaVuSans-72"/>
     </defs>
     <g transform="translate(337.031625 58.070437)scale(0.1 -0.1)">
      <use xlink:href="#DejaVuSans-72"/>
      <use x="41.113281" xlink:href="#DejaVuSans-31"/>
      <use x="104.736328" xlink:href="#DejaVuSans-30"/>
     </g>
    </g>
    <g id="line2d_15">
     <path d="M 309.031625 69.248562 
L 329.031625 69.248562 
" style="fill:none;stroke:#ff7f0e;stroke-linecap:square;stroke-width:1.5;"/>
    </g>
    <g id="line2d_16"/>
    <g id="text_12">
     <!-- r10b -->
     <defs>
      <path d="M 48.6875 27.296875 
Q 48.6875 37.203125 44.609375 42.84375 
Q 40.53125 48.484375 33.40625 48.484375 
Q 26.265625 48.484375 22.1875 42.84375 
Q 18.109375 37.203125 18.109375 27.296875 
Q 18.109375 17.390625 22.1875 11.75 
Q 26.265625 6.109375 33.40625 6.109375 
Q 40.53125 6.109375 44.609375 11.75 
Q 48.6875 17.390625 48.6875 27.296875 
z
M 18.109375 46.390625 
Q 20.953125 51.265625 25.265625 53.625 
Q 29.59375 56 35.59375 56 
Q 45.5625 56 51.78125 48.09375 
Q 58.015625 40.1875 58.015625 27.296875 
Q 58.015625 14.40625 51.78125 6.484375 
Q 45.5625 -1.421875 35.59375 -1.421875 
Q 29.59375 -1.421875 25.265625 0.953125 
Q 20.953125 3.328125 18.109375 8.203125 
L 18.109375 0 
L 9.078125 0 
L 9.078125 75.984375 
L 18.109375 75.984375 
z
" id="DejaVuSans-62"/>
     </defs>
     <g transform="translate(337.031625 72.748562)scale(0.1 -0.1)">
      <use xlink:href="#DejaVuSans-72"/>
      <use x="41.113281" xlink:href="#DejaVuSans-31"/>
      <use x="104.736328" xlink:href="#DejaVuSans-30"/>
      <use x="168.359375" xlink:href="#DejaVuSans-62"/>
     </g>
    </g>
   </g>
  </g>
 </g>
 <defs>
  <clipPath id="p70f94f3458">
   <rect height="266.112" width="266.112" x="103.104" y="41.472"/>
  </clipPath>
 </defs>
</svg>
