<?xml version="1.0" encoding="utf-8" standalone="no"?>
<!DOCTYPE svg PUBLIC "-//W3C//DTD SVG 1.1//EN"
  "http://www.w3.org/Graphics/SVG/1.1/DTD/svg11.dtd">
<!-- Created with matplotlib (http://matplotlib.org/) -->
<svg height="345.6pt" version="1.1" viewBox="0 0 460.8 345.6" width="460.8pt" xmlns="http://www.w3.org/2000/svg" xmlns:xlink="http://www.w3.org/1999/xlink">
 <defs>
  <style type="text/css">
*{stroke-linecap:butt;stroke-linejoin:round;}
  </style>
 </defs>
 <g id="figure_1">
  <g id="patch_1">
   <path d="M 0 345.6 
L 460.8 345.6 
L 460.8 0 
L 0 0 
z
" style="fill:#ffffff;"/>
  </g>
  <g id="axes_1">
   <g id="patch_2">
    <path d="M 103.104 307.584 
L 369.216 307.584 
L 369.216 41.472 
L 103.104 41.472 
z
" style="fill:#ffffff;"/>
   </g>
   <g id="matplotlib.axis_1">
    <g id="xtick_1">
     <g id="line2d_1">
      <defs>
       <path d="M 0 0 
L 0 3.5 
" id="m47c6ae0726" style="stroke:#000000;stroke-width:0.8;"/>
      </defs>
      <g>
       <use style="stroke:#000000;stroke-width:0.8;" x="103.104" xlink:href="#m47c6ae0726" y="307.584"/>
      </g>
     </g>
     <g id="text_1">
      <!-- −1.0 -->
      <defs>
       <path d="M 10.59375 35.5 
L 73.1875 35.5 
L 73.1875 27.203125 
L 10.59375 27.203125 
z
" id="DejaVuSans-2212"/>
       <path d="M 12.40625 8.296875 
L 28.515625 8.296875 
L 28.515625 63.921875 
L 10.984375 60.40625 
L 10.984375 69.390625 
L 28.421875 72.90625 
L 38.28125 72.90625 
L 38.28125 8.296875 
L 54.390625 8.296875 
L 54.390625 0 
L 12.40625 0 
z
" id="DejaVuSans-31"/>
       <path d="M 10.6875 12.40625 
L 21 12.40625 
L 21 0 
L 10.6875 0 
z
" id="DejaVuSans-2e"/>
       <path d="M 31.78125 66.40625 
Q 24.171875 66.40625 20.328125 58.90625 
Q 16.5 51.421875 16.5 36.375 
Q 16.5 21.390625 20.328125 13.890625 
Q 24.171875 6.390625 31.78125 6.390625 
Q 39.453125 6.390625 43.28125 13.890625 
Q 47.125 21.390625 47.125 36.375 
Q 47.125 51.421875 43.28125 58.90625 
Q 39.453125 66.40625 31.78125 66.40625 
z
M 31.78125 74.21875 
Q 44.046875 74.21875 50.515625 64.515625 
Q 56.984375 54.828125 56.984375 36.375 
Q 56.984375 17.96875 50.515625 8.265625 
Q 44.046875 -1.421875 31.78125 -1.421875 
Q 19.53125 -1.421875 13.0625 8.265625 
Q 6.59375 17.96875 6.59375 36.375 
Q 6.59375 54.828125 13.0625 64.515625 
Q 19.53125 74.21875 31.78125 74.21875 
z
" id="DejaVuSans-30"/>
      </defs>
      <g transform="translate(90.962594 322.182437)scale(0.1 -0.1)">
       <use xlink:href="#DejaVuSans-2212"/>
       <use x="83.789062" xlink:href="#DejaVuSans-31"/>
       <use x="147.412109" xlink:href="#DejaVuSans-2e"/>
       <use x="179.199219" xlink:href="#DejaVuSans-30"/>
      </g>
     </g>
    </g>
    <g id="xtick_2">
     <g id="line2d_2">
      <g>
       <use style="stroke:#000000;stroke-width:0.8;" x="147.456" xlink:href="#m47c6ae0726" y="307.584"/>
      </g>
     </g>
     <g id="text_2">
      <!-- −0.5 -->
      <defs>
       <path d="M 10.796875 72.90625 
L 49.515625 72.90625 
L 49.515625 64.59375 
L 19.828125 64.59375 
L 19.828125 46.734375 
Q 21.96875 47.46875 24.109375 47.828125 
Q 26.265625 48.1875 28.421875 48.1875 
Q 40.625 48.1875 47.75 41.5 
Q 54.890625 34.8125 54.890625 23.390625 
Q 54.890625 11.625 47.5625 5.09375 
Q 40.234375 -1.421875 26.90625 -1.421875 
Q 22.3125 -1.421875 17.546875 -0.640625 
Q 12.796875 0.140625 7.71875 1.703125 
L 7.71875 11.625 
Q 12.109375 9.234375 16.796875 8.0625 
Q 21.484375 6.890625 26.703125 6.890625 
Q 35.15625 6.890625 40.078125 11.328125 
Q 45.015625 15.765625 45.015625 23.390625 
Q 45.015625 31 40.078125 35.4375 
Q 35.15625 39.890625 26.703125 39.890625 
Q 22.75 39.890625 18.8125 39.015625 
Q 14.890625 38.140625 10.796875 36.28125 
z
" id="DejaVuSans-35"/>
      </defs>
      <g transform="translate(135.314594 322.182437)scale(0.1 -0.1)">
       <use xlink:href="#DejaVuSans-2212"/>
       <use x="83.789062" xlink:href="#DejaVuSans-30"/>
       <use x="147.412109" xlink:href="#DejaVuSans-2e"/>
       <use x="179.199219" xlink:href="#DejaVuSans-35"/>
      </g>
     </g>
    </g>
    <g id="xtick_3">
     <g id="line2d_3">
      <g>
       <use style="stroke:#000000;stroke-width:0.8;" x="191.808" xlink:href="#m47c6ae0726" y="307.584"/>
      </g>
     </g>
     <g id="text_3">
      <!-- 0.0 -->
      <g transform="translate(183.856437 322.182437)scale(0.1 -0.1)">
       <use xlink:href="#DejaVuSans-30"/>
       <use x="63.623047" xlink:href="#DejaVuSans-2e"/>
       <use x="95.410156" xlink:href="#DejaVuSans-30"/>
      </g>
     </g>
    </g>
    <g id="xtick_4">
     <g id="line2d_4">
      <g>
       <use style="stroke:#000000;stroke-width:0.8;" x="236.16" xlink:href="#m47c6ae0726" y="307.584"/>
      </g>
     </g>
     <g id="text_4">
      <!-- 0.5 -->
      <g transform="translate(228.208437 322.182437)scale(0.1 -0.1)">
       <use xlink:href="#DejaVuSans-30"/>
       <use x="63.623047" xlink:href="#DejaVuSans-2e"/>
       <use x="95.410156" xlink:href="#DejaVuSans-35"/>
      </g>
     </g>
    </g>
    <g id="xtick_5">
     <g id="line2d_5">
      <g>
       <use style="stroke:#000000;stroke-width:0.8;" x="280.512" xlink:href="#m47c6ae0726" y="307.584"/>
      </g>
     </g>
     <g id="text_5">
      <!-- 1.0 -->
      <g transform="translate(272.560437 322.182437)scale(0.1 -0.1)">
       <use xlink:href="#DejaVuSans-31"/>
       <use x="63.623047" xlink:href="#DejaVuSans-2e"/>
       <use x="95.410156" xlink:href="#DejaVuSans-30"/>
      </g>
     </g>
    </g>
    <g id="xtick_6">
     <g id="line2d_6">
      <g>
       <use style="stroke:#000000;stroke-width:0.8;" x="324.864" xlink:href="#m47c6ae0726" y="307.584"/>
      </g>
     </g>
     <g id="text_6">
      <!-- 1.5 -->
      <g transform="translate(316.912437 322.182437)scale(0.1 -0.1)">
       <use xlink:href="#DejaVuSans-31"/>
       <use x="63.623047" xlink:href="#DejaVuSans-2e"/>
       <use x="95.410156" xlink:href="#DejaVuSans-35"/>
      </g>
     </g>
    </g>
    <g id="xtick_7">
     <g id="line2d_7">
      <g>
       <use style="stroke:#000000;stroke-width:0.8;" x="369.216" xlink:href="#m47c6ae0726" y="307.584"/>
      </g>
     </g>
     <g id="text_7">
      <!-- 2.0 -->
      <defs>
       <path d="M 19.1875 8.296875 
L 53.609375 8.296875 
L 53.609375 0 
L 7.328125 0 
L 7.328125 8.296875 
Q 12.9375 14.109375 22.625 23.890625 
Q 32.328125 33.6875 34.8125 36.53125 
Q 39.546875 41.84375 41.421875 45.53125 
Q 43.3125 49.21875 43.3125 52.78125 
Q 43.3125 58.59375 39.234375 62.25 
Q 35.15625 65.921875 28.609375 65.921875 
Q 23.96875 65.921875 18.8125 64.3125 
Q 13.671875 62.703125 7.8125 59.421875 
L 7.8125 69.390625 
Q 13.765625 71.78125 18.9375 73 
Q 24.125 74.21875 28.421875 74.21875 
Q 39.75 74.21875 46.484375 68.546875 
Q 53.21875 62.890625 53.21875 53.421875 
Q 53.21875 48.921875 51.53125 44.890625 
Q 49.859375 40.875 45.40625 35.40625 
Q 44.1875 33.984375 37.640625 27.21875 
Q 31.109375 20.453125 19.1875 8.296875 
z
" id="DejaVuSans-32"/>
      </defs>
      <g transform="translate(361.264437 322.182437)scale(0.1 -0.1)">
       <use xlink:href="#DejaVuSans-32"/>
       <use x="63.623047" xlink:href="#DejaVuSans-2e"/>
       <use x="95.410156" xlink:href="#DejaVuSans-30"/>
      </g>
     </g>
    </g>
   </g>
   <g id="matplotlib.axis_2">
    <g id="ytick_1">
     <g id="line2d_8">
      <defs>
       <path d="M 0 0 
L -3.5 0 
" id="m842ec65236" style="stroke:#000000;stroke-width:0.8;"/>
      </defs>
      <g>
       <use style="stroke:#000000;stroke-width:0.8;" x="103.104" xlink:href="#m842ec65236" y="307.584"/>
      </g>
     </g>
     <g id="text_8">
      <!-- −1.0 -->
      <g transform="translate(71.821188 311.383219)scale(0.1 -0.1)">
       <use xlink:href="#DejaVuSans-2212"/>
       <use x="83.789062" xlink:href="#DejaVuSans-31"/>
       <use x="147.412109" xlink:href="#DejaVuSans-2e"/>
       <use x="179.199219" xlink:href="#DejaVuSans-30"/>
      </g>
     </g>
    </g>
    <g id="ytick_2">
     <g id="line2d_9">
      <g>
       <use style="stroke:#000000;stroke-width:0.8;" x="103.104" xlink:href="#m842ec65236" y="263.232"/>
      </g>
     </g>
     <g id="text_9">
      <!-- −0.5 -->
      <g transform="translate(71.821188 267.031219)scale(0.1 -0.1)">
       <use xlink:href="#DejaVuSans-2212"/>
       <use x="83.789062" xlink:href="#DejaVuSans-30"/>
       <use x="147.412109" xlink:href="#DejaVuSans-2e"/>
       <use x="179.199219" xlink:href="#DejaVuSans-35"/>
      </g>
     </g>
    </g>
    <g id="ytick_3">
     <g id="line2d_10">
      <g>
       <use style="stroke:#000000;stroke-width:0.8;" x="103.104" xlink:href="#m842ec65236" y="218.88"/>
      </g>
     </g>
     <g id="text_10">
      <!-- 0.0 -->
      <g transform="translate(80.200875 222.679219)scale(0.1 -0.1)">
       <use xlink:href="#DejaVuSans-30"/>
       <use x="63.623047" xlink:href="#DejaVuSans-2e"/>
       <use x="95.410156" xlink:href="#DejaVuSans-30"/>
      </g>
     </g>
    </g>
    <g id="ytick_4">
     <g id="line2d_11">
      <g>
       <use style="stroke:#000000;stroke-width:0.8;" x="103.104" xlink:href="#m842ec65236" y="174.528"/>
      </g>
     </g>
     <g id="text_11">
      <!-- 0.5 -->
      <g transform="translate(80.200875 178.327219)scale(0.1 -0.1)">
       <use xlink:href="#DejaVuSans-30"/>
       <use x="63.623047" xlink:href="#DejaVuSans-2e"/>
       <use x="95.410156" xlink:href="#DejaVuSans-35"/>
      </g>
     </g>
    </g>
    <g id="ytick_5">
     <g id="line2d_12">
      <g>
       <use style="stroke:#000000;stroke-width:0.8;" x="103.104" xlink:href="#m842ec65236" y="130.176"/>
      </g>
     </g>
     <g id="text_12">
      <!-- 1.0 -->
      <g transform="translate(80.200875 133.975219)scale(0.1 -0.1)">
       <use xlink:href="#DejaVuSans-31"/>
       <use x="63.623047" xlink:href="#DejaVuSans-2e"/>
       <use x="95.410156" xlink:href="#DejaVuSans-30"/>
      </g>
     </g>
    </g>
    <g id="ytick_6">
     <g id="line2d_13">
      <g>
       <use style="stroke:#000000;stroke-width:0.8;" x="103.104" xlink:href="#m842ec65236" y="85.824"/>
      </g>
     </g>
     <g id="text_13">
      <!-- 1.5 -->
      <g transform="translate(80.200875 89.623219)scale(0.1 -0.1)">
       <use xlink:href="#DejaVuSans-31"/>
       <use x="63.623047" xlink:href="#DejaVuSans-2e"/>
       <use x="95.410156" xlink:href="#DejaVuSans-35"/>
      </g>
     </g>
    </g>
    <g id="ytick_7">
     <g id="line2d_14">
      <g>
       <use style="stroke:#000000;stroke-width:0.8;" x="103.104" xlink:href="#m842ec65236" y="41.472"/>
      </g>
     </g>
     <g id="text_14">
      <!-- 2.0 -->
      <g transform="translate(80.200875 45.271219)scale(0.1 -0.1)">
       <use xlink:href="#DejaVuSans-32"/>
       <use x="63.623047" xlink:href="#DejaVuSans-2e"/>
       <use x="95.410156" xlink:href="#DejaVuSans-30"/>
      </g>
     </g>
    </g>
   </g>
   <g id="line2d_15">
    <path clip-path="url(#p1e35e90cc1)" d="M 191.808 218.88 
L 195.673532 218.711227 
L 199.509644 218.206193 
L 203.287142 217.368742 
L 206.977277 216.205247 
L 210.551965 214.724563 
L 213.984 212.937959 
L 217.247262 210.859031 
L 220.316916 208.503603 
L 223.1696 205.8896 
L 225.783603 203.036916 
L 228.139031 199.967262 
L 230.217959 196.704 
L 232.004563 193.271965 
L 233.485247 189.697277 
L 234.648742 186.007142 
L 235.486193 182.229644 
L 235.991227 178.393532 
L 236.16 174.528 
L 235.991227 170.662468 
L 235.486193 166.826356 
L 234.648742 163.048858 
L 233.485247 159.358723 
L 232.004563 155.784035 
L 230.217959 152.352 
L 228.139031 149.088738 
L 225.783603 146.019084 
L 223.1696 143.1664 
L 220.316916 140.552397 
L 217.247262 138.196969 
L 213.984 136.118041 
L 210.551965 134.331437 
L 206.977277 132.850753 
L 203.287142 131.687258 
L 199.509644 130.849807 
L 195.673532 130.344773 
L 191.808 130.176 
L 187.942468 130.344773 
L 184.106356 130.849807 
L 180.328858 131.687258 
L 176.638723 132.850753 
L 173.064035 134.331437 
L 169.632 136.118041 
L 166.368738 138.196969 
L 163.299084 140.552397 
L 160.4464 143.1664 
L 157.832397 146.019084 
L 155.476969 149.088738 
L 153.398041 152.352 
L 151.611437 155.784035 
L 150.130753 159.358723 
L 148.967258 163.048858 
L 148.129807 166.826356 
L 147.624773 170.662468 
L 147.456 174.528 
L 147.624773 178.393532 
L 148.129807 182.229644 
L 148.967258 186.007142 
L 150.130753 189.697277 
L 151.611437 193.271965 
L 153.398041 196.704 
L 155.476969 199.967262 
L 157.832397 203.036916 
L 160.4464 205.8896 
L 163.299084 208.503603 
L 166.368738 210.859031 
L 169.632 212.937959 
L 173.064035 214.724563 
L 176.638723 216.205247 
L 180.328858 217.368742 
L 184.106356 218.206193 
L 187.942468 218.711227 
L 191.808 218.88 
L 195.673532 218.711227 
L 199.509644 218.206193 
L 203.287142 217.368742 
L 206.977277 216.205247 
L 210.551965 214.724563 
L 213.984 212.937959 
L 217.247262 210.859031 
L 220.316916 208.503603 
L 223.1696 205.8896 
L 225.783603 203.036916 
L 228.139031 199.967262 
L 230.217959 196.704 
L 232.004563 193.271965 
L 233.485247 189.697277 
L 234.648742 186.007142 
L 235.486193 182.229644 
L 235.991227 178.393532 
L 236.16 174.528 
L 235.991227 170.662468 
L 235.486193 166.826356 
L 234.648742 163.048858 
L 233.485247 159.358723 
L 232.004563 155.784035 
L 230.217959 152.352 
L 228.139031 149.088738 
L 225.783603 146.019084 
L 223.1696 143.1664 
L 220.316916 140.552397 
L 217.247262 138.196969 
L 213.984 136.118041 
L 210.551965 134.331437 
L 206.977277 132.850753 
L 203.287142 131.687258 
L 199.509644 130.849807 
L 195.673532 130.344773 
L 191.808 130.176 
L 187.942468 130.344773 
L 184.106356 130.849807 
L 180.328858 131.687258 
L 176.638723 132.850753 
L 173.064035 134.331437 
L 169.632 136.118041 
L 166.368738 138.196969 
L 163.299084 140.552397 
L 160.4464 143.1664 
L 157.832397 146.019084 
L 155.476969 149.088738 
L 153.398041 152.352 
L 151.611437 155.784035 
L 150.130753 159.358723 
L 148.967258 163.048858 
L 148.129807 166.826356 
L 147.624773 170.662468 
L 147.456 174.528 
L 147.624773 178.393532 
L 148.129807 182.229644 
L 148.967258 186.007142 
L 150.130753 189.697277 
L 151.611437 193.271965 
L 153.398041 196.704 
L 155.476969 199.967262 
L 157.832397 203.036916 
L 160.4464 205.8896 
L 163.299084 208.503603 
L 166.368738 210.859031 
L 169.632 212.937959 
L 173.064035 214.724563 
L 176.638723 216.205247 
L 180.328858 217.368742 
L 184.106356 218.206193 
L 187.942468 218.711227 
L 191.808 218.88 
L 191.808 218.88 
" style="fill:none;stroke:#1f77b4;stroke-linecap:square;stroke-width:1.5;"/>
   </g>
   <g id="line2d_16">
    <path clip-path="url(#p1e35e90cc1)" d="M 280.512 218.88 
L 284.208759 214.845696 
L 287.539837 210.504549 
L 290.479885 205.8896 
L 293.006525 201.03597 
L 295.100528 195.980598 
L 296.745959 190.761959 
L 297.930294 185.419769 
L 298.644519 179.994687 
L 298.8832 174.528 
L 298.644519 169.061313 
L 297.930294 163.636231 
L 296.745959 158.294041 
L 295.100528 153.075402 
L 293.006525 148.02003 
L 290.479885 143.1664 
L 287.539837 138.551451 
L 284.208759 134.210304 
L 280.512 130.176 
L 276.477696 126.479241 
L 272.136549 123.148163 
L 267.5216 120.208115 
L 262.66797 117.681475 
L 257.612598 115.587472 
L 252.393959 113.942041 
L 247.051769 112.757706 
L 241.626687 112.043481 
L 236.16 111.8048 
L 230.693313 112.043481 
L 225.268231 112.757706 
L 219.926041 113.942041 
L 214.707402 115.587472 
L 209.65203 117.681475 
L 204.7984 120.208115 
L 200.183451 123.148163 
L 195.842304 126.479241 
L 191.808 130.176 
L 188.111241 134.210304 
L 184.780163 138.551451 
L 181.840115 143.1664 
L 179.313475 148.02003 
L 177.219472 153.075402 
L 175.574041 158.294041 
L 174.389706 163.636231 
L 173.675481 169.061313 
L 173.4368 174.528 
L 173.675481 179.994687 
L 174.389706 185.419769 
L 175.574041 190.761959 
L 177.219472 195.980598 
L 179.313475 201.03597 
L 181.840115 205.8896 
L 184.780163 210.504549 
L 188.111241 214.845696 
L 191.808 218.88 
L 195.842304 222.576759 
L 200.183451 225.907837 
L 204.7984 228.847885 
L 209.65203 231.374525 
L 214.707402 233.468528 
L 219.926041 235.113959 
L 225.268231 236.298294 
L 230.693313 237.012519 
L 236.16 237.2512 
L 241.626687 237.012519 
L 247.051769 236.298294 
L 252.393959 235.113959 
L 257.612598 233.468528 
L 262.66797 231.374525 
L 267.5216 228.847885 
L 272.136549 225.907837 
L 276.477696 222.576759 
L 280.512 218.88 
L 284.208759 214.845696 
L 287.539837 210.504549 
L 290.479885 205.8896 
L 293.006525 201.03597 
L 295.100528 195.980598 
L 296.745959 190.761959 
L 297.930294 185.419769 
L 298.644519 179.994687 
L 298.8832 174.528 
L 298.644519 169.061313 
L 297.930294 163.636231 
L 296.745959 158.294041 
L 295.100528 153.075402 
L 293.006525 148.02003 
L 290.479885 143.1664 
L 287.539837 138.551451 
L 284.208759 134.210304 
L 280.512 130.176 
L 276.477696 126.479241 
L 272.136549 123.148163 
L 267.5216 120.208115 
L 262.66797 117.681475 
L 257.612598 115.587472 
L 252.393959 113.942041 
L 247.051769 112.757706 
L 241.626687 112.043481 
L 236.16 111.8048 
L 230.693313 112.043481 
L 225.268231 112.757706 
L 219.926041 113.942041 
L 214.707402 115.587472 
L 209.65203 117.681475 
L 204.7984 120.208115 
L 200.183451 123.148163 
L 195.842304 126.479241 
L 191.808 130.176 
L 188.111241 134.210304 
L 184.780163 138.551451 
L 181.840115 143.1664 
L 179.313475 148.02003 
L 177.219472 153.075402 
L 175.574041 158.294041 
L 174.389706 163.636231 
L 173.675481 169.061313 
L 173.4368 174.528 
L 173.675481 179.994687 
L 174.389706 185.419769 
L 175.574041 190.761959 
L 177.219472 195.980598 
L 179.313475 201.03597 
L 181.840115 205.8896 
L 184.780163 210.504549 
L 188.111241 214.845696 
L 191.808 218.88 
L 195.842304 222.576759 
L 200.183451 225.907837 
L 204.7984 228.847885 
L 209.65203 231.374525 
L 214.707402 233.468528 
L 219.926041 235.113959 
L 225.268231 236.298294 
L 230.693313 237.012519 
L 236.16 237.2512 
L 241.626687 237.012519 
L 247.051769 236.298294 
L 252.393959 235.113959 
L 257.612598 233.468528 
L 262.66797 231.374525 
L 267.5216 228.847885 
L 272.136549 225.907837 
L 276.477696 222.576759 
L 280.512 218.88 
L 280.512 218.88 
" style="fill:none;stroke:#ff7f0e;stroke-linecap:square;stroke-width:1.5;"/>
   </g>
   <g id="line2d_17">
    <path clip-path="url(#p1e35e90cc1)" d="M 103.104 218.88 
L 369.216 218.88 
" style="fill:none;stroke:#000000;stroke-linecap:square;stroke-width:0.5;"/>
   </g>
   <g id="line2d_18">
    <path clip-path="url(#p1e35e90cc1)" d="M 191.808 307.584 
L 191.808 41.472 
" style="fill:none;stroke:#000000;stroke-linecap:square;stroke-width:0.5;"/>
   </g>
   <g id="patch_3">
    <path d="M 103.104 307.584 
L 103.104 41.472 
" style="fill:none;stroke:#000000;stroke-linecap:square;stroke-linejoin:miter;stroke-width:0.8;"/>
   </g>
   <g id="patch_4">
    <path d="M 369.216 307.584 
L 369.216 41.472 
" style="fill:none;stroke:#000000;stroke-linecap:square;stroke-linejoin:miter;stroke-width:0.8;"/>
   </g>
   <g id="patch_5">
    <path d="M 103.104 307.584 
L 369.216 307.584 
" style="fill:none;stroke:#000000;stroke-linecap:square;stroke-linejoin:miter;stroke-width:0.8;"/>
   </g>
   <g id="patch_6">
    <path d="M 103.104 41.472 
L 369.216 41.472 
" style="fill:none;stroke:#000000;stroke-linecap:square;stroke-linejoin:miter;stroke-width:0.8;"/>
   </g>
   <g id="legend_1">
    <g id="patch_7">
     <path d="M 319.742563 78.82825 
L 362.216 78.82825 
Q 364.216 78.82825 364.216 76.82825 
L 364.216 48.472 
Q 364.216 46.472 362.216 46.472 
L 319.742563 46.472 
Q 317.742563 46.472 317.742563 48.472 
L 317.742563 76.82825 
Q 317.742563 78.82825 319.742563 78.82825 
z
" style="fill:#ffffff;opacity:0.8;stroke:#cccccc;stroke-linejoin:miter;"/>
    </g>
    <g id="line2d_19">
     <path d="M 321.742563 54.570437 
L 341.742563 54.570437 
" style="fill:none;stroke:#1f77b4;stroke-linecap:square;stroke-width:1.5;"/>
    </g>
    <g id="line2d_20"/>
    <g id="text_15">
     <!-- r0 -->
     <defs>
      <path d="M 41.109375 46.296875 
Q 39.59375 47.171875 37.8125 47.578125 
Q 36.03125 48 33.890625 48 
Q 26.265625 48 22.1875 43.046875 
Q 18.109375 38.09375 18.109375 28.8125 
L 18.109375 0 
L 9.078125 0 
L 9.078125 54.6875 
L 18.109375 54.6875 
L 18.109375 46.1875 
Q 20.953125 51.171875 25.484375 53.578125 
Q 30.03125 56 36.53125 56 
Q 37.453125 56 38.578125 55.875 
Q 39.703125 55.765625 41.0625 55.515625 
z
" id="DejaVuSans-72"/>
     </defs>
     <g transform="translate(349.742563 58.070437)scale(0.1 -0.1)">
      <use xlink:href="#DejaVuSans-72"/>
      <use x="41.113281" xlink:href="#DejaVuSans-30"/>
     </g>
    </g>
    <g id="line2d_21">
     <path d="M 321.742563 69.248562 
L 341.742563 69.248562 
" style="fill:none;stroke:#ff7f0e;stroke-linecap:square;stroke-width:1.5;"/>
    </g>
    <g id="line2d_22"/>
    <g id="text_16">
     <!-- r1 -->
     <g transform="translate(349.742563 72.748562)scale(0.1 -0.1)">
      <use xlink:href="#DejaVuSans-72"/>
      <use x="41.113281" xlink:href="#DejaVuSans-31"/>
     </g>
    </g>
   </g>
  </g>
 </g>
 <defs>
  <clipPath id="p1e35e90cc1">
   <rect height="266.112" width="266.112" x="103.104" y="41.472"/>
  </clipPath>
 </defs>
</svg>
