<?xml version="1.0" encoding="utf-8" standalone="no"?>
<!DOCTYPE svg PUBLIC "-//W3C//DTD SVG 1.1//EN"
  "http://www.w3.org/Graphics/SVG/1.1/DTD/svg11.dtd">
<!-- Created with matplotlib (http://matplotlib.org/) -->
<svg height="345.6pt" version="1.1" viewBox="0 0 460.8 345.6" width="460.8pt" xmlns="http://www.w3.org/2000/svg" xmlns:xlink="http://www.w3.org/1999/xlink">
 <defs>
  <style type="text/css">
*{stroke-linecap:butt;stroke-linejoin:round;}
  </style>
 </defs>
 <g id="figure_1">
  <g id="patch_1">
   <path d="M 0 345.6 
L 460.8 345.6 
L 460.8 0 
L 0 0 
z
" style="fill:#ffffff;"/>
  </g>
  <g id="axes_1">
   <g id="patch_2">
    <path d="M 103.104 307.584 
L 369.216 307.584 
L 369.216 41.472 
L 103.104 41.472 
z
" style="fill:#ffffff;"/>
   </g>
   <g id="matplotlib.axis_1">
    <g id="xtick_1">
     <g id="line2d_1">
      <defs>
       <path d="M 0 0 
L 0 3.5 
" id="ma7ac596c68" style="stroke:#000000;stroke-width:0.8;"/>
      </defs>
      <g>
       <use style="stroke:#000000;stroke-width:0.8;" x="103.104" xlink:href="#ma7ac596c68" y="307.584"/>
      </g>
     </g>
     <g id="text_1">
      <!-- −1.0 -->
      <defs>
       <path d="M 10.59375 35.5 
L 73.1875 35.5 
L 73.1875 27.203125 
L 10.59375 27.203125 
z
" id="DejaVuSans-2212"/>
       <path d="M 12.40625 8.296875 
L 28.515625 8.296875 
L 28.515625 63.921875 
L 10.984375 60.40625 
L 10.984375 69.390625 
L 28.421875 72.90625 
L 38.28125 72.90625 
L 38.28125 8.296875 
L 54.390625 8.296875 
L 54.390625 0 
L 12.40625 0 
z
" id="DejaVuSans-31"/>
       <path d="M 10.6875 12.40625 
L 21 12.40625 
L 21 0 
L 10.6875 0 
z
" id="DejaVuSans-2e"/>
       <path d="M 31.78125 66.40625 
Q 24.171875 66.40625 20.328125 58.90625 
Q 16.5 51.421875 16.5 36.375 
Q 16.5 21.390625 20.328125 13.890625 
Q 24.171875 6.390625 31.78125 6.390625 
Q 39.453125 6.390625 43.28125 13.890625 
Q 47.125 21.390625 47.125 36.375 
Q 47.125 51.421875 43.28125 58.90625 
Q 39.453125 66.40625 31.78125 66.40625 
z
M 31.78125 74.21875 
Q 44.046875 74.21875 50.515625 64.515625 
Q 56.984375 54.828125 56.984375 36.375 
Q 56.984375 17.96875 50.515625 8.265625 
Q 44.046875 -1.421875 31.78125 -1.421875 
Q 19.53125 -1.421875 13.0625 8.265625 
Q 6.59375 17.96875 6.59375 36.375 
Q 6.59375 54.828125 13.0625 64.515625 
Q 19.53125 74.21875 31.78125 74.21875 
z
" id="DejaVuSans-30"/>
      </defs>
      <g transform="translate(90.962594 322.182437)scale(0.1 -0.1)">
       <use xlink:href="#DejaVuSans-2212"/>
       <use x="83.789062" xlink:href="#DejaVuSans-31"/>
       <use x="147.412109" xlink:href="#DejaVuSans-2e"/>
       <use x="179.199219" xlink:href="#DejaVuSans-30"/>
      </g>
     </g>
    </g>
    <g id="xtick_2">
     <g id="line2d_2">
      <g>
       <use style="stroke:#000000;stroke-width:0.8;" x="136.368" xlink:href="#ma7ac596c68" y="307.584"/>
      </g>
     </g>
     <g id="text_2">
      <!-- −0.5 -->
      <defs>
       <path d="M 10.796875 72.90625 
L 49.515625 72.90625 
L 49.515625 64.59375 
L 19.828125 64.59375 
L 19.828125 46.734375 
Q 21.96875 47.46875 24.109375 47.828125 
Q 26.265625 48.1875 28.421875 48.1875 
Q 40.625 48.1875 47.75 41.5 
Q 54.890625 34.8125 54.890625 23.390625 
Q 54.890625 11.625 47.5625 5.09375 
Q 40.234375 -1.421875 26.90625 -1.421875 
Q 22.3125 -1.421875 17.546875 -0.640625 
Q 12.796875 0.140625 7.71875 1.703125 
L 7.71875 11.625 
Q 12.109375 9.234375 16.796875 8.0625 
Q 21.484375 6.890625 26.703125 6.890625 
Q 35.15625 6.890625 40.078125 11.328125 
Q 45.015625 15.765625 45.015625 23.390625 
Q 45.015625 31 40.078125 35.4375 
Q 35.15625 39.890625 26.703125 39.890625 
Q 22.75 39.890625 18.8125 39.015625 
Q 14.890625 38.140625 10.796875 36.28125 
z
" id="DejaVuSans-35"/>
      </defs>
      <g transform="translate(124.226594 322.182437)scale(0.1 -0.1)">
       <use xlink:href="#DejaVuSans-2212"/>
       <use x="83.789062" xlink:href="#DejaVuSans-30"/>
       <use x="147.412109" xlink:href="#DejaVuSans-2e"/>
       <use x="179.199219" xlink:href="#DejaVuSans-35"/>
      </g>
     </g>
    </g>
    <g id="xtick_3">
     <g id="line2d_3">
      <g>
       <use style="stroke:#000000;stroke-width:0.8;" x="169.632" xlink:href="#ma7ac596c68" y="307.584"/>
      </g>
     </g>
     <g id="text_3">
      <!-- 0.0 -->
      <g transform="translate(161.680438 322.182437)scale(0.1 -0.1)">
       <use xlink:href="#DejaVuSans-30"/>
       <use x="63.623047" xlink:href="#DejaVuSans-2e"/>
       <use x="95.410156" xlink:href="#DejaVuSans-30"/>
      </g>
     </g>
    </g>
    <g id="xtick_4">
     <g id="line2d_4">
      <g>
       <use style="stroke:#000000;stroke-width:0.8;" x="202.896" xlink:href="#ma7ac596c68" y="307.584"/>
      </g>
     </g>
     <g id="text_4">
      <!-- 0.5 -->
      <g transform="translate(194.944438 322.182437)scale(0.1 -0.1)">
       <use xlink:href="#DejaVuSans-30"/>
       <use x="63.623047" xlink:href="#DejaVuSans-2e"/>
       <use x="95.410156" xlink:href="#DejaVuSans-35"/>
      </g>
     </g>
    </g>
    <g id="xtick_5">
     <g id="line2d_5">
      <g>
       <use style="stroke:#000000;stroke-width:0.8;" x="236.16" xlink:href="#ma7ac596c68" y="307.584"/>
      </g>
     </g>
     <g id="text_5">
      <!-- 1.0 -->
      <g transform="translate(228.208438 322.182437)scale(0.1 -0.1)">
       <use xlink:href="#DejaVuSans-31"/>
       <use x="63.623047" xlink:href="#DejaVuSans-2e"/>
       <use x="95.410156" xlink:href="#DejaVuSans-30"/>
      </g>
     </g>
    </g>
    <g id="xtick_6">
     <g id="line2d_6">
      <g>
       <use style="stroke:#000000;stroke-width:0.8;" x="269.424" xlink:href="#ma7ac596c68" y="307.584"/>
      </g>
     </g>
     <g id="text_6">
      <!-- 1.5 -->
      <g transform="translate(261.472437 322.182437)scale(0.1 -0.1)">
       <use xlink:href="#DejaVuSans-31"/>
       <use x="63.623047" xlink:href="#DejaVuSans-2e"/>
       <use x="95.410156" xlink:href="#DejaVuSans-35"/>
      </g>
     </g>
    </g>
    <g id="xtick_7">
     <g id="line2d_7">
      <g>
       <use style="stroke:#000000;stroke-width:0.8;" x="302.688" xlink:href="#ma7ac596c68" y="307.584"/>
      </g>
     </g>
     <g id="text_7">
      <!-- 2.0 -->
      <defs>
       <path d="M 19.1875 8.296875 
L 53.609375 8.296875 
L 53.609375 0 
L 7.328125 0 
L 7.328125 8.296875 
Q 12.9375 14.109375 22.625 23.890625 
Q 32.328125 33.6875 34.8125 36.53125 
Q 39.546875 41.84375 41.421875 45.53125 
Q 43.3125 49.21875 43.3125 52.78125 
Q 43.3125 58.59375 39.234375 62.25 
Q 35.15625 65.921875 28.609375 65.921875 
Q 23.96875 65.921875 18.8125 64.3125 
Q 13.671875 62.703125 7.8125 59.421875 
L 7.8125 69.390625 
Q 13.765625 71.78125 18.9375 73 
Q 24.125 74.21875 28.421875 74.21875 
Q 39.75 74.21875 46.484375 68.546875 
Q 53.21875 62.890625 53.21875 53.421875 
Q 53.21875 48.921875 51.53125 44.890625 
Q 49.859375 40.875 45.40625 35.40625 
Q 44.1875 33.984375 37.640625 27.21875 
Q 31.109375 20.453125 19.1875 8.296875 
z
" id="DejaVuSans-32"/>
      </defs>
      <g transform="translate(294.736437 322.182437)scale(0.1 -0.1)">
       <use xlink:href="#DejaVuSans-32"/>
       <use x="63.623047" xlink:href="#DejaVuSans-2e"/>
       <use x="95.410156" xlink:href="#DejaVuSans-30"/>
      </g>
     </g>
    </g>
    <g id="xtick_8">
     <g id="line2d_8">
      <g>
       <use style="stroke:#000000;stroke-width:0.8;" x="335.952" xlink:href="#ma7ac596c68" y="307.584"/>
      </g>
     </g>
     <g id="text_8">
      <!-- 2.5 -->
      <g transform="translate(328.000437 322.182437)scale(0.1 -0.1)">
       <use xlink:href="#DejaVuSans-32"/>
       <use x="63.623047" xlink:href="#DejaVuSans-2e"/>
       <use x="95.410156" xlink:href="#DejaVuSans-35"/>
      </g>
     </g>
    </g>
    <g id="xtick_9">
     <g id="line2d_9">
      <g>
       <use style="stroke:#000000;stroke-width:0.8;" x="369.216" xlink:href="#ma7ac596c68" y="307.584"/>
      </g>
     </g>
     <g id="text_9">
      <!-- 3.0 -->
      <defs>
       <path d="M 40.578125 39.3125 
Q 47.65625 37.796875 51.625 33 
Q 55.609375 28.21875 55.609375 21.1875 
Q 55.609375 10.40625 48.1875 4.484375 
Q 40.765625 -1.421875 27.09375 -1.421875 
Q 22.515625 -1.421875 17.65625 -0.515625 
Q 12.796875 0.390625 7.625 2.203125 
L 7.625 11.71875 
Q 11.71875 9.328125 16.59375 8.109375 
Q 21.484375 6.890625 26.8125 6.890625 
Q 36.078125 6.890625 40.9375 10.546875 
Q 45.796875 14.203125 45.796875 21.1875 
Q 45.796875 27.640625 41.28125 31.265625 
Q 36.765625 34.90625 28.71875 34.90625 
L 20.21875 34.90625 
L 20.21875 43.015625 
L 29.109375 43.015625 
Q 36.375 43.015625 40.234375 45.921875 
Q 44.09375 48.828125 44.09375 54.296875 
Q 44.09375 59.90625 40.109375 62.90625 
Q 36.140625 65.921875 28.71875 65.921875 
Q 24.65625 65.921875 20.015625 65.03125 
Q 15.375 64.15625 9.8125 62.3125 
L 9.8125 71.09375 
Q 15.4375 72.65625 20.34375 73.4375 
Q 25.25 74.21875 29.59375 74.21875 
Q 40.828125 74.21875 47.359375 69.109375 
Q 53.90625 64.015625 53.90625 55.328125 
Q 53.90625 49.265625 50.4375 45.09375 
Q 46.96875 40.921875 40.578125 39.3125 
z
" id="DejaVuSans-33"/>
      </defs>
      <g transform="translate(361.264437 322.182437)scale(0.1 -0.1)">
       <use xlink:href="#DejaVuSans-33"/>
       <use x="63.623047" xlink:href="#DejaVuSans-2e"/>
       <use x="95.410156" xlink:href="#DejaVuSans-30"/>
      </g>
     </g>
    </g>
   </g>
   <g id="matplotlib.axis_2">
    <g id="ytick_1">
     <g id="line2d_10">
      <defs>
       <path d="M 0 0 
L -3.5 0 
" id="m9a2920818c" style="stroke:#000000;stroke-width:0.8;"/>
      </defs>
      <g>
       <use style="stroke:#000000;stroke-width:0.8;" x="103.104" xlink:href="#m9a2920818c" y="307.584"/>
      </g>
     </g>
     <g id="text_10">
      <!-- −2.0 -->
      <g transform="translate(71.821188 311.383219)scale(0.1 -0.1)">
       <use xlink:href="#DejaVuSans-2212"/>
       <use x="83.789062" xlink:href="#DejaVuSans-32"/>
       <use x="147.412109" xlink:href="#DejaVuSans-2e"/>
       <use x="179.199219" xlink:href="#DejaVuSans-30"/>
      </g>
     </g>
    </g>
    <g id="ytick_2">
     <g id="line2d_11">
      <g>
       <use style="stroke:#000000;stroke-width:0.8;" x="103.104" xlink:href="#m9a2920818c" y="274.32"/>
      </g>
     </g>
     <g id="text_11">
      <!-- −1.5 -->
      <g transform="translate(71.821188 278.119219)scale(0.1 -0.1)">
       <use xlink:href="#DejaVuSans-2212"/>
       <use x="83.789062" xlink:href="#DejaVuSans-31"/>
       <use x="147.412109" xlink:href="#DejaVuSans-2e"/>
       <use x="179.199219" xlink:href="#DejaVuSans-35"/>
      </g>
     </g>
    </g>
    <g id="ytick_3">
     <g id="line2d_12">
      <g>
       <use style="stroke:#000000;stroke-width:0.8;" x="103.104" xlink:href="#m9a2920818c" y="241.056"/>
      </g>
     </g>
     <g id="text_12">
      <!-- −1.0 -->
      <g transform="translate(71.821188 244.855219)scale(0.1 -0.1)">
       <use xlink:href="#DejaVuSans-2212"/>
       <use x="83.789062" xlink:href="#DejaVuSans-31"/>
       <use x="147.412109" xlink:href="#DejaVuSans-2e"/>
       <use x="179.199219" xlink:href="#DejaVuSans-30"/>
      </g>
     </g>
    </g>
    <g id="ytick_4">
     <g id="line2d_13">
      <g>
       <use style="stroke:#000000;stroke-width:0.8;" x="103.104" xlink:href="#m9a2920818c" y="207.792"/>
      </g>
     </g>
     <g id="text_13">
      <!-- −0.5 -->
      <g transform="translate(71.821188 211.591219)scale(0.1 -0.1)">
       <use xlink:href="#DejaVuSans-2212"/>
       <use x="83.789062" xlink:href="#DejaVuSans-30"/>
       <use x="147.412109" xlink:href="#DejaVuSans-2e"/>
       <use x="179.199219" xlink:href="#DejaVuSans-35"/>
      </g>
     </g>
    </g>
    <g id="ytick_5">
     <g id="line2d_14">
      <g>
       <use style="stroke:#000000;stroke-width:0.8;" x="103.104" xlink:href="#m9a2920818c" y="174.528"/>
      </g>
     </g>
     <g id="text_14">
      <!-- 0.0 -->
      <g transform="translate(80.200875 178.327219)scale(0.1 -0.1)">
       <use xlink:href="#DejaVuSans-30"/>
       <use x="63.623047" xlink:href="#DejaVuSans-2e"/>
       <use x="95.410156" xlink:href="#DejaVuSans-30"/>
      </g>
     </g>
    </g>
    <g id="ytick_6">
     <g id="line2d_15">
      <g>
       <use style="stroke:#000000;stroke-width:0.8;" x="103.104" xlink:href="#m9a2920818c" y="141.264"/>
      </g>
     </g>
     <g id="text_15">
      <!-- 0.5 -->
      <g transform="translate(80.200875 145.063219)scale(0.1 -0.1)">
       <use xlink:href="#DejaVuSans-30"/>
       <use x="63.623047" xlink:href="#DejaVuSans-2e"/>
       <use x="95.410156" xlink:href="#DejaVuSans-35"/>
      </g>
     </g>
    </g>
    <g id="ytick_7">
     <g id="line2d_16">
      <g>
       <use style="stroke:#000000;stroke-width:0.8;" x="103.104" xlink:href="#m9a2920818c" y="108"/>
      </g>
     </g>
     <g id="text_16">
      <!-- 1.0 -->
      <g transform="translate(80.200875 111.799219)scale(0.1 -0.1)">
       <use xlink:href="#DejaVuSans-31"/>
       <use x="63.623047" xlink:href="#DejaVuSans-2e"/>
       <use x="95.410156" xlink:href="#DejaVuSans-30"/>
      </g>
     </g>
    </g>
    <g id="ytick_8">
     <g id="line2d_17">
      <g>
       <use style="stroke:#000000;stroke-width:0.8;" x="103.104" xlink:href="#m9a2920818c" y="74.736"/>
      </g>
     </g>
     <g id="text_17">
      <!-- 1.5 -->
      <g transform="translate(80.200875 78.535219)scale(0.1 -0.1)">
       <use xlink:href="#DejaVuSans-31"/>
       <use x="63.623047" xlink:href="#DejaVuSans-2e"/>
       <use x="95.410156" xlink:href="#DejaVuSans-35"/>
      </g>
     </g>
    </g>
    <g id="ytick_9">
     <g id="line2d_18">
      <g>
       <use style="stroke:#000000;stroke-width:0.8;" x="103.104" xlink:href="#m9a2920818c" y="41.472"/>
      </g>
     </g>
     <g id="text_18">
      <!-- 2.0 -->
      <g transform="translate(80.200875 45.271219)scale(0.1 -0.1)">
       <use xlink:href="#DejaVuSans-32"/>
       <use x="63.623047" xlink:href="#DejaVuSans-2e"/>
       <use x="95.410156" xlink:href="#DejaVuSans-30"/>
      </g>
     </g>
    </g>
   </g>
   <g id="line2d_19">
    <path clip-path="url(#p2772ef85b4)" d="M 302.688 174.528 
L 302.498101 168.726941 
L 301.929486 162.95347 
L 300.9854 157.234997 
L 299.671226 151.598576 
L 297.994443 146.070732 
L 295.964582 140.677287 
L 293.593155 135.443198 
L 290.893573 130.392397 
L 287.881058 125.547637 
L 284.572532 120.93035 
L 280.986503 116.560515 
L 277.142938 112.456531 
L 273.06312 108.635109 
L 268.769505 105.111172 
L 264.285568 101.897763 
L 259.635638 99.005981 
L 254.844735 96.444914 
L 249.9384 94.2216 
L 244.942517 92.340993 
L 239.883141 90.80595 
L 234.786324 89.617232 
L 229.677935 88.773517 
L 224.583494 88.271432 
L 219.528 88.105593 
L 214.535765 88.26867 
L 209.630261 88.751453 
L 204.833963 89.542942 
L 200.168214 90.630442 
L 195.653082 91.999672 
L 191.307244 93.634887 
L 187.147872 95.519005 
L 183.190531 97.633752 
L 179.44909 99.9598 
L 175.935652 102.476926 
L 172.66049 105.164171 
L 169.632 108 
L 166.856669 110.962469 
L 164.339058 114.029392 
L 162.081797 117.178513 
L 160.085599 120.387668 
L 158.349283 123.634953 
L 156.869818 126.898887 
L 155.642371 130.158565 
L 154.660382 133.393816 
L 153.915637 136.585342 
L 153.398365 139.714858 
L 153.097342 142.765217 
L 153 145.720531 
L 153.092558 148.566276 
L 153.360149 151.289388 
L 153.786963 153.878346 
L 154.356393 156.32324 
L 155.051186 158.615834 
L 155.8536 160.7496 
L 156.745562 162.719755 
L 157.708828 164.523271 
L 158.725146 166.158876 
L 160.844828 168.929954 
L 162.96439 171.057062 
L 164.953342 172.590037 
L 166.695392 173.602091 
L 168.092401 174.186679 
L 169.56874 174.525238 
L 169.632 174.528 
L 169.067713 174.60229 
L 168.092401 174.869321 
L 166.695392 175.453909 
L 164.953342 176.465963 
L 162.96439 177.998938 
L 160.844828 180.126046 
L 159.776411 181.428958 
L 158.725146 182.897124 
L 157.708828 184.532729 
L 156.745562 186.336245 
L 155.8536 188.3064 
L 155.051186 190.440166 
L 154.356393 192.73276 
L 153.786963 195.177654 
L 153.360149 197.766612 
L 153.092558 200.489724 
L 153 203.335469 
L 153.097342 206.290783 
L 153.398365 209.341142 
L 153.915637 212.470658 
L 154.660382 215.662184 
L 155.642371 218.897435 
L 156.869818 222.157113 
L 158.349283 225.421047 
L 160.085599 228.668332 
L 162.081797 231.877487 
L 164.339058 235.026608 
L 166.856669 238.093531 
L 169.632 241.056 
L 172.66049 243.891829 
L 175.935652 246.579074 
L 179.44909 249.0962 
L 183.190531 251.422248 
L 187.147872 253.536995 
L 191.307244 255.421113 
L 195.653082 257.056328 
L 200.168214 258.425558 
L 204.833963 259.513058 
L 209.630261 260.304547 
L 214.535765 260.78733 
L 219.528 260.950407 
L 224.583494 260.784568 
L 229.677935 260.282483 
L 234.786324 259.438768 
L 239.883141 258.25005 
L 244.942517 256.715007 
L 249.9384 254.8344 
L 254.844735 252.611086 
L 259.635638 250.050019 
L 264.285568 247.158237 
L 268.769505 243.944828 
L 273.06312 240.420891 
L 277.142938 236.599469 
L 280.986503 232.495485 
L 284.572532 228.12565 
L 287.881058 223.508363 
L 290.893573 218.663603 
L 293.593155 213.612802 
L 295.964582 208.378713 
L 297.994443 202.985268 
L 299.671226 197.457424 
L 300.9854 191.821003 
L 301.929486 186.10253 
L 302.498101 180.329059 
L 302.688 174.528 
L 302.688 174.528 
" style="fill:none;stroke:#1f77b4;stroke-linecap:square;stroke-width:1.5;"/>
   </g>
   <g id="line2d_20">
    <path clip-path="url(#p2772ef85b4)" d="M 269.424 174.528 
L 269.26576 170.177896 
L 268.792066 165.852618 
L 268.005979 161.57682 
L 266.91258 157.374809 
L 265.518933 153.270379 
L 263.834026 149.286643 
L 261.868714 145.445876 
L 259.635638 141.769355 
L 257.149129 138.277218 
L 254.425109 134.988324 
L 251.480975 131.920121 
L 248.335469 129.088531 
L 245.008547 126.507844 
L 241.521232 124.190618 
L 237.895462 122.147603 
L 234.153935 120.387668 
L 230.319942 118.917747 
L 226.4172 117.7428 
L 222.469684 116.865786 
L 218.501454 116.287653 
L 214.536483 116.007338 
L 210.598489 116.021791 
L 206.71076 116.326005 
L 202.896 116.913062 
L 199.176159 117.774198 
L 195.572287 118.898875 
L 192.104382 120.274871 
L 188.791256 121.888378 
L 185.650404 123.724113 
L 182.697888 125.765443 
L 179.948225 127.994516 
L 177.414298 130.392397 
L 175.107267 132.939221 
L 173.036504 135.614347 
L 171.209535 138.396511 
L 169.632 141.264 
L 168.307624 144.194809 
L 167.238206 147.166813 
L 166.42362 150.157935 
L 165.861832 153.146313 
L 165.54893 156.110463 
L 165.479174 159.029443 
L 165.645049 161.883006 
L 166.03734 164.651752 
L 166.645218 167.317271 
L 167.456339 169.86228 
L 168.456948 172.270745 
L 169.632 174.528 
L 170.965292 176.620849 
L 172.439595 178.537662 
L 174.036803 180.268451 
L 175.73808 181.804943 
L 177.524019 183.140627 
L 179.3748 184.2708 
L 181.270355 185.192588 
L 183.190531 185.904958 
L 185.115251 186.408717 
L 187.024684 186.706489 
L 188.899401 186.802688 
L 190.720531 186.703469 
L 192.469918 186.416668 
L 194.130265 185.951728 
L 195.685271 185.319618 
L 197.119767 184.532729 
L 198.419833 183.604769 
L 199.572912 182.550643 
L 200.567912 181.386327 
L 201.39529 180.128725 
L 202.047135 178.795533 
L 202.517225 177.405084 
L 202.80108 175.976193 
L 202.896 174.528 
L 202.80108 173.079807 
L 202.517225 171.650916 
L 202.047135 170.260467 
L 201.39529 168.927275 
L 200.567912 167.669673 
L 199.572912 166.505357 
L 198.419833 165.451231 
L 197.119767 164.523271 
L 195.685271 163.736382 
L 194.130265 163.104272 
L 192.469918 162.639332 
L 190.720531 162.352531 
L 188.899401 162.253312 
L 187.024684 162.349511 
L 185.115251 162.647283 
L 183.190531 163.151042 
L 181.270355 163.863412 
L 179.3748 164.7852 
L 177.524019 165.915373 
L 175.73808 167.251057 
L 174.036803 168.787549 
L 172.439595 170.518338 
L 170.965292 172.435151 
L 169.632 174.528 
L 168.456948 176.785255 
L 167.456339 179.19372 
L 166.645218 181.738729 
L 166.03734 184.404248 
L 165.645049 187.172994 
L 165.479174 190.026557 
L 165.54893 192.945537 
L 165.861832 195.909687 
L 166.42362 198.898065 
L 167.238206 201.889187 
L 168.307624 204.861191 
L 169.632 207.792 
L 171.209535 210.659489 
L 173.036504 213.441653 
L 175.107267 216.116779 
L 177.414298 218.663603 
L 179.948225 221.061484 
L 182.697888 223.290557 
L 185.650404 225.331887 
L 188.791256 227.167622 
L 192.104382 228.781129 
L 195.572287 230.157125 
L 199.176159 231.281802 
L 202.896 232.142938 
L 206.71076 232.729995 
L 210.598489 233.034209 
L 214.536483 233.048662 
L 218.501454 232.768347 
L 222.469684 232.190214 
L 226.4172 231.3132 
L 230.319942 230.138253 
L 234.153935 228.668332 
L 237.895462 226.908397 
L 241.521232 224.865382 
L 245.008547 222.548156 
L 248.335469 219.967469 
L 251.480975 217.135879 
L 254.425109 214.067676 
L 257.149129 210.778782 
L 259.635638 207.286645 
L 261.868714 203.610124 
L 263.834026 199.769357 
L 265.518933 195.785621 
L 266.91258 191.681191 
L 268.005979 187.47918 
L 268.792066 183.203382 
L 269.26576 178.878104 
L 269.424 174.528 
L 269.424 174.528 
" style="fill:none;stroke:#ff7f0e;stroke-linecap:square;stroke-width:1.5;"/>
   </g>
   <g id="line2d_21">
    <path clip-path="url(#p2772ef85b4)" d="M 103.104 174.528 
L 369.216 174.528 
" style="fill:none;stroke:#000000;stroke-linecap:square;stroke-width:0.5;"/>
   </g>
   <g id="line2d_22">
    <path clip-path="url(#p2772ef85b4)" d="M 169.632 307.584 
L 169.632 41.472 
" style="fill:none;stroke:#000000;stroke-linecap:square;stroke-width:0.5;"/>
   </g>
   <g id="patch_3">
    <path d="M 103.104 307.584 
L 103.104 41.472 
" style="fill:none;stroke:#000000;stroke-linecap:square;stroke-linejoin:miter;stroke-width:0.8;"/>
   </g>
   <g id="patch_4">
    <path d="M 369.216 307.584 
L 369.216 41.472 
" style="fill:none;stroke:#000000;stroke-linecap:square;stroke-linejoin:miter;stroke-width:0.8;"/>
   </g>
   <g id="patch_5">
    <path d="M 103.104 307.584 
L 369.216 307.584 
" style="fill:none;stroke:#000000;stroke-linecap:square;stroke-linejoin:miter;stroke-width:0.8;"/>
   </g>
   <g id="patch_6">
    <path d="M 103.104 41.472 
L 369.216 41.472 
" style="fill:none;stroke:#000000;stroke-linecap:square;stroke-linejoin:miter;stroke-width:0.8;"/>
   </g>
   <g id="legend_1">
    <g id="patch_7">
     <path d="M 319.742563 78.82825 
L 362.216 78.82825 
Q 364.216 78.82825 364.216 76.82825 
L 364.216 48.472 
Q 364.216 46.472 362.216 46.472 
L 319.742563 46.472 
Q 317.742563 46.472 317.742563 48.472 
L 317.742563 76.82825 
Q 317.742563 78.82825 319.742563 78.82825 
z
" style="fill:#ffffff;opacity:0.8;stroke:#cccccc;stroke-linejoin:miter;"/>
    </g>
    <g id="line2d_23">
     <path d="M 321.742563 54.570437 
L 341.742563 54.570437 
" style="fill:none;stroke:#1f77b4;stroke-linecap:square;stroke-width:1.5;"/>
    </g>
    <g id="line2d_24"/>
    <g id="text_19">
     <!-- r4 -->
     <defs>
      <path d="M 41.109375 46.296875 
Q 39.59375 47.171875 37.8125 47.578125 
Q 36.03125 48 33.890625 48 
Q 26.265625 48 22.1875 43.046875 
Q 18.109375 38.09375 18.109375 28.8125 
L 18.109375 0 
L 9.078125 0 
L 9.078125 54.6875 
L 18.109375 54.6875 
L 18.109375 46.1875 
Q 20.953125 51.171875 25.484375 53.578125 
Q 30.03125 56 36.53125 56 
Q 37.453125 56 38.578125 55.875 
Q 39.703125 55.765625 41.0625 55.515625 
z
" id="DejaVuSans-72"/>
      <path d="M 37.796875 64.3125 
L 12.890625 25.390625 
L 37.796875 25.390625 
z
M 35.203125 72.90625 
L 47.609375 72.90625 
L 47.609375 25.390625 
L 58.015625 25.390625 
L 58.015625 17.1875 
L 47.609375 17.1875 
L 47.609375 0 
L 37.796875 0 
L 37.796875 17.1875 
L 4.890625 17.1875 
L 4.890625 26.703125 
z
" id="DejaVuSans-34"/>
     </defs>
     <g transform="translate(349.742563 58.070437)scale(0.1 -0.1)">
      <use xlink:href="#DejaVuSans-72"/>
      <use x="41.113281" xlink:href="#DejaVuSans-34"/>
     </g>
    </g>
    <g id="line2d_25">
     <path d="M 321.742563 69.248562 
L 341.742563 69.248562 
" style="fill:none;stroke:#ff7f0e;stroke-linecap:square;stroke-width:1.5;"/>
    </g>
    <g id="line2d_26"/>
    <g id="text_20">
     <!-- r5 -->
     <g transform="translate(349.742563 72.748562)scale(0.1 -0.1)">
      <use xlink:href="#DejaVuSans-72"/>
      <use x="41.113281" xlink:href="#DejaVuSans-35"/>
     </g>
    </g>
   </g>
  </g>
 </g>
 <defs>
  <clipPath id="p2772ef85b4">
   <rect height="266.112" width="266.112" x="103.104" y="41.472"/>
  </clipPath>
 </defs>
</svg>
