<?xml version="1.0" encoding="utf-8" standalone="no"?>
<!DOCTYPE svg PUBLIC "-//W3C//DTD SVG 1.1//EN"
  "http://www.w3.org/Graphics/SVG/1.1/DTD/svg11.dtd">
<!-- Created with matplotlib (http://matplotlib.org/) -->
<svg height="345.6pt" version="1.1" viewBox="0 0 460.8 345.6" width="460.8pt" xmlns="http://www.w3.org/2000/svg" xmlns:xlink="http://www.w3.org/1999/xlink">
 <defs>
  <style type="text/css">
*{stroke-linecap:butt;stroke-linejoin:round;}
  </style>
 </defs>
 <g id="figure_1">
  <g id="patch_1">
   <path d="M 0 345.6 
L 460.8 345.6 
L 460.8 0 
L 0 0 
z
" style="fill:#ffffff;"/>
  </g>
  <g id="axes_1">
   <g id="patch_2">
    <path d="M 103.104 307.584 
L 369.216 307.584 
L 369.216 41.472 
L 103.104 41.472 
z
" style="fill:#ffffff;"/>
   </g>
   <g id="matplotlib.axis_1">
    <g id="xtick_1">
     <g id="line2d_1">
      <defs>
       <path d="M 0 0 
L 0 3.5 
" id="m12301ba06d" style="stroke:#000000;stroke-width:0.8;"/>
      </defs>
      <g>
       <use style="stroke:#000000;stroke-width:0.8;" x="122.112" xlink:href="#m12301ba06d" y="307.584"/>
      </g>
     </g>
     <g id="text_1">
      <!-- −6 -->
      <defs>
       <path d="M 10.59375 35.5 
L 73.1875 35.5 
L 73.1875 27.203125 
L 10.59375 27.203125 
z
" id="DejaVuSans-2212"/>
       <path d="M 33.015625 40.375 
Q 26.375 40.375 22.484375 35.828125 
Q 18.609375 31.296875 18.609375 23.390625 
Q 18.609375 15.53125 22.484375 10.953125 
Q 26.375 6.390625 33.015625 6.390625 
Q 39.65625 6.390625 43.53125 10.953125 
Q 47.40625 15.53125 47.40625 23.390625 
Q 47.40625 31.296875 43.53125 35.828125 
Q 39.65625 40.375 33.015625 40.375 
z
M 52.59375 71.296875 
L 52.59375 62.3125 
Q 48.875 64.0625 45.09375 64.984375 
Q 41.3125 65.921875 37.59375 65.921875 
Q 27.828125 65.921875 22.671875 59.328125 
Q 17.53125 52.734375 16.796875 39.40625 
Q 19.671875 43.65625 24.015625 45.921875 
Q 28.375 48.1875 33.59375 48.1875 
Q 44.578125 48.1875 50.953125 41.515625 
Q 57.328125 34.859375 57.328125 23.390625 
Q 57.328125 12.15625 50.6875 5.359375 
Q 44.046875 -1.421875 33.015625 -1.421875 
Q 20.359375 -1.421875 13.671875 8.265625 
Q 6.984375 17.96875 6.984375 36.375 
Q 6.984375 53.65625 15.1875 63.9375 
Q 23.390625 74.21875 37.203125 74.21875 
Q 40.921875 74.21875 44.703125 73.484375 
Q 48.484375 72.75 52.59375 71.296875 
z
" id="DejaVuSans-36"/>
      </defs>
      <g transform="translate(114.740906 322.182437)scale(0.1 -0.1)">
       <use xlink:href="#DejaVuSans-2212"/>
       <use x="83.789062" xlink:href="#DejaVuSans-36"/>
      </g>
     </g>
    </g>
    <g id="xtick_2">
     <g id="line2d_2">
      <g>
       <use style="stroke:#000000;stroke-width:0.8;" x="160.128" xlink:href="#m12301ba06d" y="307.584"/>
      </g>
     </g>
     <g id="text_2">
      <!-- −4 -->
      <defs>
       <path d="M 37.796875 64.3125 
L 12.890625 25.390625 
L 37.796875 25.390625 
z
M 35.203125 72.90625 
L 47.609375 72.90625 
L 47.609375 25.390625 
L 58.015625 25.390625 
L 58.015625 17.1875 
L 47.609375 17.1875 
L 47.609375 0 
L 37.796875 0 
L 37.796875 17.1875 
L 4.890625 17.1875 
L 4.890625 26.703125 
z
" id="DejaVuSans-34"/>
      </defs>
      <g transform="translate(152.756906 322.182437)scale(0.1 -0.1)">
       <use xlink:href="#DejaVuSans-2212"/>
       <use x="83.789062" xlink:href="#DejaVuSans-34"/>
      </g>
     </g>
    </g>
    <g id="xtick_3">
     <g id="line2d_3">
      <g>
       <use style="stroke:#000000;stroke-width:0.8;" x="198.144" xlink:href="#m12301ba06d" y="307.584"/>
      </g>
     </g>
     <g id="text_3">
      <!-- −2 -->
      <defs>
       <path d="M 19.1875 8.296875 
L 53.609375 8.296875 
L 53.609375 0 
L 7.328125 0 
L 7.328125 8.296875 
Q 12.9375 14.109375 22.625 23.890625 
Q 32.328125 33.6875 34.8125 36.53125 
Q 39.546875 41.84375 41.421875 45.53125 
Q 43.3125 49.21875 43.3125 52.78125 
Q 43.3125 58.59375 39.234375 62.25 
Q 35.15625 65.921875 28.609375 65.921875 
Q 23.96875 65.921875 18.8125 64.3125 
Q 13.671875 62.703125 7.8125 59.421875 
L 7.8125 69.390625 
Q 13.765625 71.78125 18.9375 73 
Q 24.125 74.21875 28.421875 74.21875 
Q 39.75 74.21875 46.484375 68.546875 
Q 53.21875 62.890625 53.21875 53.421875 
Q 53.21875 48.921875 51.53125 44.890625 
Q 49.859375 40.875 45.40625 35.40625 
Q 44.1875 33.984375 37.640625 27.21875 
Q 31.109375 20.453125 19.1875 8.296875 
z
" id="DejaVuSans-32"/>
      </defs>
      <g transform="translate(190.772906 322.182437)scale(0.1 -0.1)">
       <use xlink:href="#DejaVuSans-2212"/>
       <use x="83.789062" xlink:href="#DejaVuSans-32"/>
      </g>
     </g>
    </g>
    <g id="xtick_4">
     <g id="line2d_4">
      <g>
       <use style="stroke:#000000;stroke-width:0.8;" x="236.16" xlink:href="#m12301ba06d" y="307.584"/>
      </g>
     </g>
     <g id="text_4">
      <!-- 0 -->
      <defs>
       <path d="M 31.78125 66.40625 
Q 24.171875 66.40625 20.328125 58.90625 
Q 16.5 51.421875 16.5 36.375 
Q 16.5 21.390625 20.328125 13.890625 
Q 24.171875 6.390625 31.78125 6.390625 
Q 39.453125 6.390625 43.28125 13.890625 
Q 47.125 21.390625 47.125 36.375 
Q 47.125 51.421875 43.28125 58.90625 
Q 39.453125 66.40625 31.78125 66.40625 
z
M 31.78125 74.21875 
Q 44.046875 74.21875 50.515625 64.515625 
Q 56.984375 54.828125 56.984375 36.375 
Q 56.984375 17.96875 50.515625 8.265625 
Q 44.046875 -1.421875 31.78125 -1.421875 
Q 19.53125 -1.421875 13.0625 8.265625 
Q 6.59375 17.96875 6.59375 36.375 
Q 6.59375 54.828125 13.0625 64.515625 
Q 19.53125 74.21875 31.78125 74.21875 
z
" id="DejaVuSans-30"/>
      </defs>
      <g transform="translate(232.97875 322.182437)scale(0.1 -0.1)">
       <use xlink:href="#DejaVuSans-30"/>
      </g>
     </g>
    </g>
    <g id="xtick_5">
     <g id="line2d_5">
      <g>
       <use style="stroke:#000000;stroke-width:0.8;" x="274.176" xlink:href="#m12301ba06d" y="307.584"/>
      </g>
     </g>
     <g id="text_5">
      <!-- 2 -->
      <g transform="translate(270.99475 322.182437)scale(0.1 -0.1)">
       <use xlink:href="#DejaVuSans-32"/>
      </g>
     </g>
    </g>
    <g id="xtick_6">
     <g id="line2d_6">
      <g>
       <use style="stroke:#000000;stroke-width:0.8;" x="312.192" xlink:href="#m12301ba06d" y="307.584"/>
      </g>
     </g>
     <g id="text_6">
      <!-- 4 -->
      <g transform="translate(309.01075 322.182437)scale(0.1 -0.1)">
       <use xlink:href="#DejaVuSans-34"/>
      </g>
     </g>
    </g>
    <g id="xtick_7">
     <g id="line2d_7">
      <g>
       <use style="stroke:#000000;stroke-width:0.8;" x="350.208" xlink:href="#m12301ba06d" y="307.584"/>
      </g>
     </g>
     <g id="text_7">
      <!-- 6 -->
      <g transform="translate(347.02675 322.182437)scale(0.1 -0.1)">
       <use xlink:href="#DejaVuSans-36"/>
      </g>
     </g>
    </g>
   </g>
   <g id="matplotlib.axis_2">
    <g id="ytick_1">
     <g id="line2d_8">
      <defs>
       <path d="M 0 0 
L -3.5 0 
" id="mf424d6b6f7" style="stroke:#000000;stroke-width:0.8;"/>
      </defs>
      <g>
       <use style="stroke:#000000;stroke-width:0.8;" x="103.104" xlink:href="#mf424d6b6f7" y="288.576"/>
      </g>
     </g>
     <g id="text_8">
      <!-- −6 -->
      <g transform="translate(81.361813 292.375219)scale(0.1 -0.1)">
       <use xlink:href="#DejaVuSans-2212"/>
       <use x="83.789062" xlink:href="#DejaVuSans-36"/>
      </g>
     </g>
    </g>
    <g id="ytick_2">
     <g id="line2d_9">
      <g>
       <use style="stroke:#000000;stroke-width:0.8;" x="103.104" xlink:href="#mf424d6b6f7" y="250.56"/>
      </g>
     </g>
     <g id="text_9">
      <!-- −4 -->
      <g transform="translate(81.361813 254.359219)scale(0.1 -0.1)">
       <use xlink:href="#DejaVuSans-2212"/>
       <use x="83.789062" xlink:href="#DejaVuSans-34"/>
      </g>
     </g>
    </g>
    <g id="ytick_3">
     <g id="line2d_10">
      <g>
       <use style="stroke:#000000;stroke-width:0.8;" x="103.104" xlink:href="#mf424d6b6f7" y="212.544"/>
      </g>
     </g>
     <g id="text_10">
      <!-- −2 -->
      <g transform="translate(81.361813 216.343219)scale(0.1 -0.1)">
       <use xlink:href="#DejaVuSans-2212"/>
       <use x="83.789062" xlink:href="#DejaVuSans-32"/>
      </g>
     </g>
    </g>
    <g id="ytick_4">
     <g id="line2d_11">
      <g>
       <use style="stroke:#000000;stroke-width:0.8;" x="103.104" xlink:href="#mf424d6b6f7" y="174.528"/>
      </g>
     </g>
     <g id="text_11">
      <!-- 0 -->
      <g transform="translate(89.7415 178.327219)scale(0.1 -0.1)">
       <use xlink:href="#DejaVuSans-30"/>
      </g>
     </g>
    </g>
    <g id="ytick_5">
     <g id="line2d_12">
      <g>
       <use style="stroke:#000000;stroke-width:0.8;" x="103.104" xlink:href="#mf424d6b6f7" y="136.512"/>
      </g>
     </g>
     <g id="text_12">
      <!-- 2 -->
      <g transform="translate(89.7415 140.311219)scale(0.1 -0.1)">
       <use xlink:href="#DejaVuSans-32"/>
      </g>
     </g>
    </g>
    <g id="ytick_6">
     <g id="line2d_13">
      <g>
       <use style="stroke:#000000;stroke-width:0.8;" x="103.104" xlink:href="#mf424d6b6f7" y="98.496"/>
      </g>
     </g>
     <g id="text_13">
      <!-- 4 -->
      <g transform="translate(89.7415 102.295219)scale(0.1 -0.1)">
       <use xlink:href="#DejaVuSans-34"/>
      </g>
     </g>
    </g>
    <g id="ytick_7">
     <g id="line2d_14">
      <g>
       <use style="stroke:#000000;stroke-width:0.8;" x="103.104" xlink:href="#mf424d6b6f7" y="60.48"/>
      </g>
     </g>
     <g id="text_14">
      <!-- 6 -->
      <g transform="translate(89.7415 64.279219)scale(0.1 -0.1)">
       <use xlink:href="#DejaVuSans-36"/>
      </g>
     </g>
    </g>
   </g>
   <g id="line2d_15">
    <path clip-path="url(#pa17bb77bc9)" d="M 350.208 174.528 
L 348.475355 154.723773 
L 343.330064 135.521287 
L 334.928465 117.504 
L 323.525837 101.219359 
L 309.468641 87.162163 
L 293.184 75.759535 
L 275.166713 67.357936 
L 255.964227 62.212645 
L 236.16 60.48 
L 216.355773 62.212645 
L 197.153287 67.357936 
L 179.136 75.759535 
L 162.851359 87.162163 
L 148.794163 101.219359 
L 137.391535 117.504 
L 128.989936 135.521287 
L 123.844645 154.723773 
L 122.112 174.528 
L 123.844645 194.332227 
L 128.989936 213.534713 
L 137.391535 231.552 
L 148.794163 247.836641 
L 162.851359 261.893837 
L 179.136 273.296465 
L 197.153287 281.698064 
L 216.355773 286.843355 
L 236.16 288.576 
L 255.964227 286.843355 
L 275.166713 281.698064 
L 293.184 273.296465 
L 309.468641 261.893837 
L 323.525837 247.836641 
L 334.928465 231.552 
L 343.330064 213.534713 
L 348.475355 194.332227 
L 350.208 174.528 
" style="fill:none;stroke:#1f77b4;stroke-linecap:square;stroke-width:1.5;"/>
   </g>
   <g id="line2d_16">
    <path clip-path="url(#pa17bb77bc9)" d="M 281.7792 127.008 
L 281.432671 122.056943 
L 280.403613 117.256322 
L 278.723293 112.752 
L 276.442767 108.68084 
L 273.631328 105.166541 
L 270.3744 102.315884 
L 266.770943 100.215484 
L 262.930445 98.929161 
L 258.9696 98.496 
L 255.008755 98.929161 
L 251.168257 100.215484 
L 247.5648 102.315884 
L 244.307872 105.166541 
L 241.496433 108.68084 
L 239.215907 112.752 
L 237.535587 117.256322 
L 236.506529 122.056943 
L 236.16 127.008 
L 236.506529 131.959057 
L 237.535587 136.759678 
L 239.215907 141.264 
L 241.496433 145.33516 
L 244.307872 148.849459 
L 247.5648 151.700116 
L 251.168257 153.800516 
L 255.008755 155.086839 
L 258.9696 155.52 
L 262.930445 155.086839 
L 266.770943 153.800516 
L 270.3744 151.700116 
L 273.631328 148.849459 
L 276.442767 145.33516 
L 278.723293 141.264 
L 280.403613 136.759678 
L 281.432671 131.959057 
L 281.7792 127.008 
" style="fill:none;stroke:#000000;stroke-linecap:square;stroke-width:1.5;"/>
   </g>
   <g id="line2d_17">
    <path clip-path="url(#pa17bb77bc9)" d="M 236.16 127.008 
L 235.813471 122.056943 
L 234.784413 117.256322 
L 233.104093 112.752 
L 230.823567 108.68084 
L 228.012128 105.166541 
L 224.7552 102.315884 
L 221.151743 100.215484 
L 217.311245 98.929161 
L 213.3504 98.496 
L 209.389555 98.929161 
L 205.549057 100.215484 
L 201.9456 102.315884 
L 198.688672 105.166541 
L 195.877233 108.68084 
L 193.596707 112.752 
L 191.916387 117.256322 
L 190.887329 122.056943 
L 190.5408 127.008 
L 190.887329 131.959057 
L 191.916387 136.759678 
L 193.596707 141.264 
L 195.877233 145.33516 
L 198.688672 148.849459 
L 201.9456 151.700116 
L 205.549057 153.800516 
L 209.389555 155.086839 
L 213.3504 155.52 
L 217.311245 155.086839 
L 221.151743 153.800516 
L 224.7552 151.700116 
L 228.012128 148.849459 
L 230.823567 145.33516 
L 233.104093 141.264 
L 234.784413 136.759678 
L 235.813471 131.959057 
L 236.16 127.008 
" style="fill:none;stroke:#000000;stroke-linecap:square;stroke-width:1.5;"/>
   </g>
   <g id="line2d_18">
    <path clip-path="url(#pa17bb77bc9)" d="M 245.664 153.6192 
L 245.519613 151.968848 
L 245.090839 150.368641 
L 244.390705 148.8672 
L 243.440486 147.510147 
L 242.269053 146.338714 
L 240.912 145.388495 
L 239.410559 144.688361 
L 237.810352 144.259587 
L 236.16 144.1152 
L 234.509648 144.259587 
L 232.909441 144.688361 
L 231.408 145.388495 
L 230.050947 146.338714 
L 228.879514 147.510147 
L 227.929295 148.8672 
L 227.229161 150.368641 
L 226.800387 151.968848 
L 226.656 153.6192 
L 226.800387 155.269552 
L 227.229161 156.869759 
L 227.929295 158.3712 
L 228.879514 159.728253 
L 230.050947 160.899686 
L 231.408 161.849905 
L 232.909441 162.550039 
L 234.509648 162.978813 
L 236.16 163.1232 
L 237.810352 162.978813 
L 239.410559 162.550039 
L 240.912 161.849905 
L 242.269053 160.899686 
L 243.440486 159.728253 
L 244.390705 158.3712 
L 245.090839 156.869759 
L 245.519613 155.269552 
L 245.664 153.6192 
" style="fill:none;stroke:#ff0000;stroke-linecap:square;stroke-width:1.5;"/>
   </g>
   <g id="line2d_19">
    <path clip-path="url(#pa17bb77bc9)" d="M 331.2 203.04 
L 329.756129 188.186829 
L 325.468387 173.784965 
L 318.467054 160.272 
L 308.964864 148.058519 
L 297.250534 137.515623 
L 283.68 128.963651 
L 268.665594 122.662452 
L 252.663523 118.803484 
L 236.16 117.504 
L 219.656477 118.803484 
L 203.654406 122.662452 
L 188.64 128.963651 
L 175.069466 137.515623 
L 163.355136 148.058519 
L 153.852946 160.272 
L 146.851613 173.784965 
L 142.563871 188.186829 
L 141.12 203.04 
L 142.563871 217.893171 
L 146.851613 232.295035 
L 153.852946 245.808 
L 163.355136 258.021481 
L 175.069466 268.564377 
L 188.64 277.116349 
L 203.654406 283.417548 
L 219.656477 287.276516 
L 236.16 288.576 
L 252.663523 287.276516 
L 268.665594 283.417548 
L 283.68 277.116349 
L 297.250534 268.564377 
L 308.964864 258.021481 
L 318.467054 245.808 
L 325.468387 232.295035 
L 329.756129 217.893171 
L 331.2 203.04 
" style="fill:none;stroke:#000000;stroke-linecap:square;stroke-width:1.5;"/>
   </g>
   <g id="line2d_20">
    <path clip-path="url(#pa17bb77bc9)" d="M 255.168 128.9088 
L 255.023613 127.258448 
L 254.594839 125.658241 
L 253.894705 124.1568 
L 252.944486 122.799747 
L 251.773053 121.628314 
L 250.416 120.678095 
L 248.914559 119.977961 
L 247.314352 119.549187 
L 245.664 119.4048 
L 244.013648 119.549187 
L 242.413441 119.977961 
L 240.912 120.678095 
L 239.554947 121.628314 
L 238.383514 122.799747 
L 237.433295 124.1568 
L 236.733161 125.658241 
L 236.304387 127.258448 
L 236.16 128.9088 
L 236.304387 130.559152 
L 236.733161 132.159359 
L 237.433295 133.6608 
L 238.383514 135.017853 
L 239.554947 136.189286 
L 240.912 137.139505 
L 242.413441 137.839639 
L 244.013648 138.268413 
L 245.664 138.4128 
L 247.314352 138.268413 
L 248.914559 137.839639 
L 250.416 137.139505 
L 251.773053 136.189286 
L 252.944486 135.017853 
L 253.894705 133.6608 
L 254.594839 132.159359 
L 255.023613 130.559152 
L 255.168 128.9088 
" style="fill:none;stroke:#000000;stroke-linecap:square;stroke-width:1.5;"/>
   </g>
   <g id="line2d_21">
    <path clip-path="url(#pa17bb77bc9)" d="M 236.16 128.9088 
L 236.015613 127.258448 
L 235.586839 125.658241 
L 234.886705 124.1568 
L 233.936486 122.799747 
L 232.765053 121.628314 
L 231.408 120.678095 
L 229.906559 119.977961 
L 228.306352 119.549187 
L 226.656 119.4048 
L 225.005648 119.549187 
L 223.405441 119.977961 
L 221.904 120.678095 
L 220.546947 121.628314 
L 219.375514 122.799747 
L 218.425295 124.1568 
L 217.725161 125.658241 
L 217.296387 127.258448 
L 217.152 128.9088 
L 217.296387 130.559152 
L 217.725161 132.159359 
L 218.425295 133.6608 
L 219.375514 135.017853 
L 220.546947 136.189286 
L 221.904 137.139505 
L 223.405441 137.839639 
L 225.005648 138.268413 
L 226.656 138.4128 
L 228.306352 138.268413 
L 229.906559 137.839639 
L 231.408 137.139505 
L 232.765053 136.189286 
L 233.936486 135.017853 
L 234.886705 133.6608 
L 235.586839 132.159359 
L 236.015613 130.559152 
L 236.16 128.9088 
" style="fill:none;stroke:#000000;stroke-linecap:square;stroke-width:1.5;"/>
   </g>
   <g id="line2d_22">
    <path clip-path="url(#pa17bb77bc9)" d="M 192.4416 210.339072 
L 201.9456 225.925632 
L 211.4496 237.710592 
L 220.9536 245.693952 
L 230.4576 249.875712 
L 239.9616 250.255872 
L 249.4656 246.834432 
L 258.9696 239.611392 
L 268.4736 228.586752 
L 277.9776 213.760512 
" style="fill:none;stroke:#000000;stroke-linecap:square;stroke-width:1.5;"/>
   </g>
   <g id="line2d_23">
    <path clip-path="url(#pa17bb77bc9)" d="M 122.112 163.1232 
L 124.0128 163.69344 
L 125.9136 164.26368 
L 127.8144 164.83392 
L 129.7152 165.40416 
L 131.616 165.9744 
L 133.5168 166.54464 
L 135.4176 167.11488 
L 137.3184 167.68512 
L 139.2192 168.25536 
L 141.12 168.8256 
L 143.0208 169.39584 
L 144.9216 169.96608 
L 146.8224 170.53632 
L 148.7232 171.10656 
L 150.624 171.6768 
L 152.5248 172.24704 
L 154.4256 172.81728 
L 156.3264 173.38752 
L 158.2272 173.95776 
L 160.128 174.528 
L 162.0288 175.09824 
L 163.9296 175.66848 
L 165.8304 176.23872 
L 167.7312 176.80896 
L 169.632 177.3792 
L 171.5328 177.94944 
L 173.4336 178.51968 
L 175.3344 179.08992 
L 177.2352 179.66016 
L 179.136 180.2304 
" style="fill:none;stroke:#000000;stroke-linecap:square;stroke-width:1.5;"/>
   </g>
   <g id="line2d_24">
    <path clip-path="url(#pa17bb77bc9)" d="M 293.184 185.9328 
L 295.0848 185.36256 
L 296.9856 184.79232 
L 298.8864 184.22208 
L 300.7872 183.65184 
L 302.688 183.0816 
L 304.5888 182.51136 
L 306.4896 181.94112 
L 308.3904 181.37088 
L 310.2912 180.80064 
L 312.192 180.2304 
L 314.0928 179.66016 
L 315.9936 179.08992 
L 317.8944 178.51968 
L 319.7952 177.94944 
L 321.696 177.3792 
L 323.5968 176.80896 
L 325.4976 176.23872 
L 327.3984 175.66848 
L 329.2992 175.09824 
L 331.2 174.528 
L 333.1008 173.95776 
L 335.0016 173.38752 
L 336.9024 172.81728 
L 338.8032 172.24704 
L 340.704 171.6768 
L 342.6048 171.10656 
L 344.5056 170.53632 
L 346.4064 169.96608 
L 348.3072 169.39584 
L 350.208 168.8256 
" style="fill:none;stroke:#000000;stroke-linecap:square;stroke-width:1.5;"/>
   </g>
   <g id="line2d_25">
    <path clip-path="url(#pa17bb77bc9)" d="M 122.112 212.544 
L 124.0128 212.544 
L 125.9136 212.544 
L 127.8144 212.544 
L 129.7152 212.544 
L 131.616 212.544 
L 133.5168 212.544 
L 135.4176 212.544 
L 137.3184 212.544 
L 139.2192 212.544 
L 141.12 212.544 
L 143.0208 212.544 
L 144.9216 212.544 
L 146.8224 212.544 
L 148.7232 212.544 
L 150.624 212.544 
L 152.5248 212.544 
L 154.4256 212.544 
L 156.3264 212.544 
L 158.2272 212.544 
L 160.128 212.544 
L 162.0288 212.544 
L 163.9296 212.544 
L 165.8304 212.544 
L 167.7312 212.544 
L 169.632 212.544 
L 171.5328 212.544 
L 173.4336 212.544 
L 175.3344 212.544 
L 177.2352 212.544 
L 179.136 212.544 
" style="fill:none;stroke:#000000;stroke-linecap:square;stroke-width:1.5;"/>
   </g>
   <g id="line2d_26">
    <path clip-path="url(#pa17bb77bc9)" d="M 293.184 212.544 
L 295.0848 212.544 
L 296.9856 212.544 
L 298.8864 212.544 
L 300.7872 212.544 
L 302.688 212.544 
L 304.5888 212.544 
L 306.4896 212.544 
L 308.3904 212.544 
L 310.2912 212.544 
L 312.192 212.544 
L 314.0928 212.544 
L 315.9936 212.544 
L 317.8944 212.544 
L 319.7952 212.544 
L 321.696 212.544 
L 323.5968 212.544 
L 325.4976 212.544 
L 327.3984 212.544 
L 329.2992 212.544 
L 331.2 212.544 
L 333.1008 212.544 
L 335.0016 212.544 
L 336.9024 212.544 
L 338.8032 212.544 
L 340.704 212.544 
L 342.6048 212.544 
L 344.5056 212.544 
L 346.4064 212.544 
L 348.3072 212.544 
L 350.208 212.544 
" style="fill:none;stroke:#000000;stroke-linecap:square;stroke-width:1.5;"/>
   </g>
   <g id="line2d_27">
    <path clip-path="url(#pa17bb77bc9)" d="M 122.112 189.7344 
L 124.0128 190.11456 
L 125.9136 190.49472 
L 127.8144 190.87488 
L 129.7152 191.25504 
L 131.616 191.6352 
L 133.5168 192.01536 
L 135.4176 192.39552 
L 137.3184 192.77568 
L 139.2192 193.15584 
L 141.12 193.536 
L 143.0208 193.91616 
L 144.9216 194.29632 
L 146.8224 194.67648 
L 148.7232 195.05664 
L 150.624 195.4368 
L 152.5248 195.81696 
L 154.4256 196.19712 
L 156.3264 196.57728 
L 158.2272 196.95744 
L 160.128 197.3376 
L 162.0288 197.71776 
L 163.9296 198.09792 
L 165.8304 198.47808 
L 167.7312 198.85824 
L 169.632 199.2384 
L 171.5328 199.61856 
L 173.4336 199.99872 
L 175.3344 200.37888 
L 177.2352 200.75904 
L 179.136 201.1392 
" style="fill:none;stroke:#000000;stroke-linecap:square;stroke-width:1.5;"/>
   </g>
   <g id="line2d_28">
    <path clip-path="url(#pa17bb77bc9)" d="M 293.184 204.9408 
L 295.0848 204.56064 
L 296.9856 204.18048 
L 298.8864 203.80032 
L 300.7872 203.42016 
L 302.688 203.04 
L 304.5888 202.65984 
L 306.4896 202.27968 
L 308.3904 201.89952 
L 310.2912 201.51936 
L 312.192 201.1392 
L 314.0928 200.75904 
L 315.9936 200.37888 
L 317.8944 199.99872 
L 319.7952 199.61856 
L 321.696 199.2384 
L 323.5968 198.85824 
L 325.4976 198.47808 
L 327.3984 198.09792 
L 329.2992 197.71776 
L 331.2 197.3376 
L 333.1008 196.95744 
L 335.0016 196.57728 
L 336.9024 196.19712 
L 338.8032 195.81696 
L 340.704 195.4368 
L 342.6048 195.05664 
L 344.5056 194.67648 
L 346.4064 194.29632 
L 348.3072 193.91616 
L 350.208 193.536 
" style="fill:none;stroke:#000000;stroke-linecap:square;stroke-width:1.5;"/>
   </g>
   <g id="line2d_29">
    <path clip-path="url(#pa17bb77bc9)" d="M 236.16 163.1232 
L 236.16 250.56 
L 236.16 250.56 
" style="fill:none;stroke:#000000;stroke-linecap:square;stroke-width:1.5;"/>
   </g>
   <g id="patch_3">
    <path d="M 103.104 307.584 
L 103.104 41.472 
" style="fill:none;stroke:#000000;stroke-linecap:square;stroke-linejoin:miter;stroke-width:0.8;"/>
   </g>
   <g id="patch_4">
    <path d="M 369.216 307.584 
L 369.216 41.472 
" style="fill:none;stroke:#000000;stroke-linecap:square;stroke-linejoin:miter;stroke-width:0.8;"/>
   </g>
   <g id="patch_5">
    <path d="M 103.104 307.584 
L 369.216 307.584 
" style="fill:none;stroke:#000000;stroke-linecap:square;stroke-linejoin:miter;stroke-width:0.8;"/>
   </g>
   <g id="patch_6">
    <path d="M 103.104 41.472 
L 369.216 41.472 
" style="fill:none;stroke:#000000;stroke-linecap:square;stroke-linejoin:miter;stroke-width:0.8;"/>
   </g>
  </g>
 </g>
 <defs>
  <clipPath id="pa17bb77bc9">
   <rect height="266.112" width="266.112" x="103.104" y="41.472"/>
  </clipPath>
 </defs>
</svg>
