<?xml version="1.0" encoding="utf-8" standalone="no"?>
<!DOCTYPE svg PUBLIC "-//W3C//DTD SVG 1.1//EN"
  "http://www.w3.org/Graphics/SVG/1.1/DTD/svg11.dtd">
<!-- Created with matplotlib (http://matplotlib.org/) -->
<svg height="345.6pt" version="1.1" viewBox="0 0 460.8 345.6" width="460.8pt" xmlns="http://www.w3.org/2000/svg" xmlns:xlink="http://www.w3.org/1999/xlink">
 <defs>
  <style type="text/css">
*{stroke-linecap:butt;stroke-linejoin:round;}
  </style>
 </defs>
 <g id="figure_1">
  <g id="patch_1">
   <path d="M 0 345.6 
L 460.8 345.6 
L 460.8 0 
L 0 0 
z
" style="fill:#ffffff;"/>
  </g>
  <g id="axes_1">
   <g id="patch_2">
    <path d="M 103.104 307.584 
L 369.216 307.584 
L 369.216 41.472 
L 103.104 41.472 
z
" style="fill:#ffffff;"/>
   </g>
   <g id="matplotlib.axis_1">
    <g id="xtick_1">
     <g id="line2d_1">
      <defs>
       <path d="M 0 0 
L 0 3.5 
" id="mba16107447" style="stroke:#000000;stroke-width:0.8;"/>
      </defs>
      <g>
       <use style="stroke:#000000;stroke-width:0.8;" x="122.112" xlink:href="#mba16107447" y="307.584"/>
      </g>
     </g>
     <g id="text_1">
      <!-- −6 -->
      <defs>
       <path d="M 10.59375 35.5 
L 73.1875 35.5 
L 73.1875 27.203125 
L 10.59375 27.203125 
z
" id="DejaVuSans-2212"/>
       <path d="M 33.015625 40.375 
Q 26.375 40.375 22.484375 35.828125 
Q 18.609375 31.296875 18.609375 23.390625 
Q 18.609375 15.53125 22.484375 10.953125 
Q 26.375 6.390625 33.015625 6.390625 
Q 39.65625 6.390625 43.53125 10.953125 
Q 47.40625 15.53125 47.40625 23.390625 
Q 47.40625 31.296875 43.53125 35.828125 
Q 39.65625 40.375 33.015625 40.375 
z
M 52.59375 71.296875 
L 52.59375 62.3125 
Q 48.875 64.0625 45.09375 64.984375 
Q 41.3125 65.921875 37.59375 65.921875 
Q 27.828125 65.921875 22.671875 59.328125 
Q 17.53125 52.734375 16.796875 39.40625 
Q 19.671875 43.65625 24.015625 45.921875 
Q 28.375 48.1875 33.59375 48.1875 
Q 44.578125 48.1875 50.953125 41.515625 
Q 57.328125 34.859375 57.328125 23.390625 
Q 57.328125 12.15625 50.6875 5.359375 
Q 44.046875 -1.421875 33.015625 -1.421875 
Q 20.359375 -1.421875 13.671875 8.265625 
Q 6.984375 17.96875 6.984375 36.375 
Q 6.984375 53.65625 15.1875 63.9375 
Q 23.390625 74.21875 37.203125 74.21875 
Q 40.921875 74.21875 44.703125 73.484375 
Q 48.484375 72.75 52.59375 71.296875 
z
" id="DejaVuSans-36"/>
      </defs>
      <g transform="translate(114.740906 322.182437)scale(0.1 -0.1)">
       <use xlink:href="#DejaVuSans-2212"/>
       <use x="83.789062" xlink:href="#DejaVuSans-36"/>
      </g>
     </g>
    </g>
    <g id="xtick_2">
     <g id="line2d_2">
      <g>
       <use style="stroke:#000000;stroke-width:0.8;" x="160.128" xlink:href="#mba16107447" y="307.584"/>
      </g>
     </g>
     <g id="text_2">
      <!-- −4 -->
      <defs>
       <path d="M 37.796875 64.3125 
L 12.890625 25.390625 
L 37.796875 25.390625 
z
M 35.203125 72.90625 
L 47.609375 72.90625 
L 47.609375 25.390625 
L 58.015625 25.390625 
L 58.015625 17.1875 
L 47.609375 17.1875 
L 47.609375 0 
L 37.796875 0 
L 37.796875 17.1875 
L 4.890625 17.1875 
L 4.890625 26.703125 
z
" id="DejaVuSans-34"/>
      </defs>
      <g transform="translate(152.756906 322.182437)scale(0.1 -0.1)">
       <use xlink:href="#DejaVuSans-2212"/>
       <use x="83.789062" xlink:href="#DejaVuSans-34"/>
      </g>
     </g>
    </g>
    <g id="xtick_3">
     <g id="line2d_3">
      <g>
       <use style="stroke:#000000;stroke-width:0.8;" x="198.144" xlink:href="#mba16107447" y="307.584"/>
      </g>
     </g>
     <g id="text_3">
      <!-- −2 -->
      <defs>
       <path d="M 19.1875 8.296875 
L 53.609375 8.296875 
L 53.609375 0 
L 7.328125 0 
L 7.328125 8.296875 
Q 12.9375 14.109375 22.625 23.890625 
Q 32.328125 33.6875 34.8125 36.53125 
Q 39.546875 41.84375 41.421875 45.53125 
Q 43.3125 49.21875 43.3125 52.78125 
Q 43.3125 58.59375 39.234375 62.25 
Q 35.15625 65.921875 28.609375 65.921875 
Q 23.96875 65.921875 18.8125 64.3125 
Q 13.671875 62.703125 7.8125 59.421875 
L 7.8125 69.390625 
Q 13.765625 71.78125 18.9375 73 
Q 24.125 74.21875 28.421875 74.21875 
Q 39.75 74.21875 46.484375 68.546875 
Q 53.21875 62.890625 53.21875 53.421875 
Q 53.21875 48.921875 51.53125 44.890625 
Q 49.859375 40.875 45.40625 35.40625 
Q 44.1875 33.984375 37.640625 27.21875 
Q 31.109375 20.453125 19.1875 8.296875 
z
" id="DejaVuSans-32"/>
      </defs>
      <g transform="translate(190.772906 322.182437)scale(0.1 -0.1)">
       <use xlink:href="#DejaVuSans-2212"/>
       <use x="83.789062" xlink:href="#DejaVuSans-32"/>
      </g>
     </g>
    </g>
    <g id="xtick_4">
     <g id="line2d_4">
      <g>
       <use style="stroke:#000000;stroke-width:0.8;" x="236.16" xlink:href="#mba16107447" y="307.584"/>
      </g>
     </g>
     <g id="text_4">
      <!-- 0 -->
      <defs>
       <path d="M 31.78125 66.40625 
Q 24.171875 66.40625 20.328125 58.90625 
Q 16.5 51.421875 16.5 36.375 
Q 16.5 21.390625 20.328125 13.890625 
Q 24.171875 6.390625 31.78125 6.390625 
Q 39.453125 6.390625 43.28125 13.890625 
Q 47.125 21.390625 47.125 36.375 
Q 47.125 51.421875 43.28125 58.90625 
Q 39.453125 66.40625 31.78125 66.40625 
z
M 31.78125 74.21875 
Q 44.046875 74.21875 50.515625 64.515625 
Q 56.984375 54.828125 56.984375 36.375 
Q 56.984375 17.96875 50.515625 8.265625 
Q 44.046875 -1.421875 31.78125 -1.421875 
Q 19.53125 -1.421875 13.0625 8.265625 
Q 6.59375 17.96875 6.59375 36.375 
Q 6.59375 54.828125 13.0625 64.515625 
Q 19.53125 74.21875 31.78125 74.21875 
z
" id="DejaVuSans-30"/>
      </defs>
      <g transform="translate(232.97875 322.182437)scale(0.1 -0.1)">
       <use xlink:href="#DejaVuSans-30"/>
      </g>
     </g>
    </g>
    <g id="xtick_5">
     <g id="line2d_5">
      <g>
       <use style="stroke:#000000;stroke-width:0.8;" x="274.176" xlink:href="#mba16107447" y="307.584"/>
      </g>
     </g>
     <g id="text_5">
      <!-- 2 -->
      <g transform="translate(270.99475 322.182437)scale(0.1 -0.1)">
       <use xlink:href="#DejaVuSans-32"/>
      </g>
     </g>
    </g>
    <g id="xtick_6">
     <g id="line2d_6">
      <g>
       <use style="stroke:#000000;stroke-width:0.8;" x="312.192" xlink:href="#mba16107447" y="307.584"/>
      </g>
     </g>
     <g id="text_6">
      <!-- 4 -->
      <g transform="translate(309.01075 322.182437)scale(0.1 -0.1)">
       <use xlink:href="#DejaVuSans-34"/>
      </g>
     </g>
    </g>
    <g id="xtick_7">
     <g id="line2d_7">
      <g>
       <use style="stroke:#000000;stroke-width:0.8;" x="350.208" xlink:href="#mba16107447" y="307.584"/>
      </g>
     </g>
     <g id="text_7">
      <!-- 6 -->
      <g transform="translate(347.02675 322.182437)scale(0.1 -0.1)">
       <use xlink:href="#DejaVuSans-36"/>
      </g>
     </g>
    </g>
   </g>
   <g id="matplotlib.axis_2">
    <g id="ytick_1">
     <g id="line2d_8">
      <defs>
       <path d="M 0 0 
L -3.5 0 
" id="m9763b7b65e" style="stroke:#000000;stroke-width:0.8;"/>
      </defs>
      <g>
       <use style="stroke:#000000;stroke-width:0.8;" x="103.104" xlink:href="#m9763b7b65e" y="288.576"/>
      </g>
     </g>
     <g id="text_8">
      <!-- −6 -->
      <g transform="translate(81.361813 292.375219)scale(0.1 -0.1)">
       <use xlink:href="#DejaVuSans-2212"/>
       <use x="83.789062" xlink:href="#DejaVuSans-36"/>
      </g>
     </g>
    </g>
    <g id="ytick_2">
     <g id="line2d_9">
      <g>
       <use style="stroke:#000000;stroke-width:0.8;" x="103.104" xlink:href="#m9763b7b65e" y="250.56"/>
      </g>
     </g>
     <g id="text_9">
      <!-- −4 -->
      <g transform="translate(81.361813 254.359219)scale(0.1 -0.1)">
       <use xlink:href="#DejaVuSans-2212"/>
       <use x="83.789062" xlink:href="#DejaVuSans-34"/>
      </g>
     </g>
    </g>
    <g id="ytick_3">
     <g id="line2d_10">
      <g>
       <use style="stroke:#000000;stroke-width:0.8;" x="103.104" xlink:href="#m9763b7b65e" y="212.544"/>
      </g>
     </g>
     <g id="text_10">
      <!-- −2 -->
      <g transform="translate(81.361813 216.343219)scale(0.1 -0.1)">
       <use xlink:href="#DejaVuSans-2212"/>
       <use x="83.789062" xlink:href="#DejaVuSans-32"/>
      </g>
     </g>
    </g>
    <g id="ytick_4">
     <g id="line2d_11">
      <g>
       <use style="stroke:#000000;stroke-width:0.8;" x="103.104" xlink:href="#m9763b7b65e" y="174.528"/>
      </g>
     </g>
     <g id="text_11">
      <!-- 0 -->
      <g transform="translate(89.7415 178.327219)scale(0.1 -0.1)">
       <use xlink:href="#DejaVuSans-30"/>
      </g>
     </g>
    </g>
    <g id="ytick_5">
     <g id="line2d_12">
      <g>
       <use style="stroke:#000000;stroke-width:0.8;" x="103.104" xlink:href="#m9763b7b65e" y="136.512"/>
      </g>
     </g>
     <g id="text_12">
      <!-- 2 -->
      <g transform="translate(89.7415 140.311219)scale(0.1 -0.1)">
       <use xlink:href="#DejaVuSans-32"/>
      </g>
     </g>
    </g>
    <g id="ytick_6">
     <g id="line2d_13">
      <g>
       <use style="stroke:#000000;stroke-width:0.8;" x="103.104" xlink:href="#m9763b7b65e" y="98.496"/>
      </g>
     </g>
     <g id="text_13">
      <!-- 4 -->
      <g transform="translate(89.7415 102.295219)scale(0.1 -0.1)">
       <use xlink:href="#DejaVuSans-34"/>
      </g>
     </g>
    </g>
    <g id="ytick_7">
     <g id="line2d_14">
      <g>
       <use style="stroke:#000000;stroke-width:0.8;" x="103.104" xlink:href="#m9763b7b65e" y="60.48"/>
      </g>
     </g>
     <g id="text_14">
      <!-- 6 -->
      <g transform="translate(89.7415 64.279219)scale(0.1 -0.1)">
       <use xlink:href="#DejaVuSans-36"/>
      </g>
     </g>
    </g>
   </g>
   <g id="line2d_15">
    <path clip-path="url(#p751f78bc02)" d="M 350.208 174.528 
L 349.774013 164.588062 
L 348.475355 154.723773 
L 346.321909 145.010206 
L 343.330064 135.521287 
L 339.52259 126.329232 
L 334.928465 117.504 
L 329.582652 109.112755 
L 323.525837 101.219359 
L 316.804114 93.883886 
L 309.468641 87.162163 
L 301.575245 81.105348 
L 293.184 75.759535 
L 284.358768 71.16541 
L 275.166713 67.357936 
L 265.677794 64.366091 
L 255.964227 62.212645 
L 246.099938 60.913987 
L 236.16 60.48 
L 226.220062 60.913987 
L 216.355773 62.212645 
L 206.642206 64.366091 
L 197.153287 67.357936 
L 187.961232 71.16541 
L 179.136 75.759535 
L 170.744755 81.105348 
L 162.851359 87.162163 
L 155.515886 93.883886 
L 148.794163 101.219359 
L 142.737348 109.112755 
L 137.391535 117.504 
L 132.79741 126.329232 
L 128.989936 135.521287 
L 125.998091 145.010206 
L 123.844645 154.723773 
L 122.545987 164.588062 
L 122.112 174.528 
L 122.545987 184.467938 
L 123.844645 194.332227 
L 125.998091 204.045794 
L 128.989936 213.534713 
L 132.79741 222.726768 
L 137.391535 231.552 
L 142.737348 239.943245 
L 148.794163 247.836641 
L 155.515886 255.172114 
L 162.851359 261.893837 
L 170.744755 267.950652 
L 179.136 273.296465 
L 187.961232 277.89059 
L 197.153287 281.698064 
L 206.642206 284.689909 
L 216.355773 286.843355 
L 226.220062 288.142013 
L 236.16 288.576 
L 246.099938 288.142013 
L 255.964227 286.843355 
L 265.677794 284.689909 
L 275.166713 281.698064 
L 284.358768 277.89059 
L 293.184 273.296465 
L 301.575245 267.950652 
L 309.468641 261.893837 
L 316.804114 255.172114 
L 323.525837 247.836641 
L 329.582652 239.943245 
L 334.928465 231.552 
L 339.52259 222.726768 
L 343.330064 213.534713 
L 346.321909 204.045794 
L 348.475355 194.332227 
L 349.774013 184.467938 
L 350.208 174.528 
" style="fill:none;stroke:#0000ff;stroke-linecap:square;stroke-width:1.5;"/>
   </g>
   <g id="line2d_16">
    <path clip-path="url(#p751f78bc02)" d="M 245.664 153.6192 
L 245.627834 152.790872 
L 245.519613 151.968848 
L 245.340159 151.159384 
L 245.090839 150.368641 
L 244.773549 149.602636 
L 244.390705 148.8672 
L 243.945221 148.16793 
L 243.440486 147.510147 
L 242.880343 146.898857 
L 242.269053 146.338714 
L 241.61127 145.833979 
L 240.912 145.388495 
L 240.176564 145.005651 
L 239.410559 144.688361 
L 238.619816 144.439041 
L 237.810352 144.259587 
L 236.988328 144.151366 
L 236.16 144.1152 
L 235.331672 144.151366 
L 234.509648 144.259587 
L 233.700184 144.439041 
L 232.909441 144.688361 
L 232.143436 145.005651 
L 231.408 145.388495 
L 230.70873 145.833979 
L 230.050947 146.338714 
L 229.439657 146.898857 
L 228.879514 147.510147 
L 228.374779 148.16793 
L 227.929295 148.8672 
L 227.546451 149.602636 
L 227.229161 150.368641 
L 226.979841 151.159384 
L 226.800387 151.968848 
L 226.692166 152.790872 
L 226.656 153.6192 
L 226.692166 154.447528 
L 226.800387 155.269552 
L 226.979841 156.079016 
L 227.229161 156.869759 
L 227.546451 157.635764 
L 227.929295 158.3712 
L 228.374779 159.07047 
L 228.879514 159.728253 
L 229.439657 160.339543 
L 230.050947 160.899686 
L 230.70873 161.404421 
L 231.408 161.849905 
L 232.143436 162.232749 
L 232.909441 162.550039 
L 233.700184 162.799359 
L 234.509648 162.978813 
L 235.331672 163.087034 
L 236.16 163.1232 
L 236.988328 163.087034 
L 237.810352 162.978813 
L 238.619816 162.799359 
L 239.410559 162.550039 
L 240.176564 162.232749 
L 240.912 161.849905 
L 241.61127 161.404421 
L 242.269053 160.899686 
L 242.880343 160.339543 
L 243.440486 159.728253 
L 243.945221 159.07047 
L 244.390705 158.3712 
L 244.773549 157.635764 
L 245.090839 156.869759 
L 245.340159 156.079016 
L 245.519613 155.269552 
L 245.627834 154.447528 
L 245.664 153.6192 
" style="fill:none;stroke:#ff0000;stroke-linecap:square;stroke-width:1.5;"/>
   </g>
   <g id="line2d_17">
    <path clip-path="url(#p751f78bc02)" d="M 331.2 203.04 
L 330.838344 195.585046 
L 329.756129 188.186829 
L 327.961591 180.901654 
L 325.468387 173.784965 
L 322.295492 166.890924 
L 318.467054 160.272 
L 314.01221 153.978566 
L 308.964864 148.058519 
L 303.363428 142.556914 
L 297.250534 137.515623 
L 290.672705 132.973011 
L 283.68 128.963651 
L 276.32564 125.518057 
L 268.665594 122.662452 
L 260.758162 120.418569 
L 252.663523 118.803484 
L 244.443282 117.82949 
L 236.16 117.504 
L 227.876718 117.82949 
L 219.656477 118.803484 
L 211.561838 120.418569 
L 203.654406 122.662452 
L 195.99436 125.518057 
L 188.64 128.963651 
L 181.647295 132.973011 
L 175.069466 137.515623 
L 168.956572 142.556914 
L 163.355136 148.058519 
L 158.30779 153.978566 
L 153.852946 160.272 
L 150.024508 166.890924 
L 146.851613 173.784965 
L 144.358409 180.901654 
L 142.563871 188.186829 
L 141.481656 195.585046 
L 141.12 203.04 
L 141.481656 210.494954 
L 142.563871 217.893171 
L 144.358409 225.178346 
L 146.851613 232.295035 
L 150.024508 239.189076 
L 153.852946 245.808 
L 158.30779 252.101434 
L 163.355136 258.021481 
L 168.956572 263.523086 
L 175.069466 268.564377 
L 181.647295 273.106989 
L 188.64 277.116349 
L 195.99436 280.561943 
L 203.654406 283.417548 
L 211.561838 285.661431 
L 219.656477 287.276516 
L 227.876718 288.25051 
L 236.16 288.576 
L 244.443282 288.25051 
L 252.663523 287.276516 
L 260.758162 285.661431 
L 268.665594 283.417548 
L 276.32564 280.561943 
L 283.68 277.116349 
L 290.672705 273.106989 
L 297.250534 268.564377 
L 303.363428 263.523086 
L 308.964864 258.021481 
L 314.01221 252.101434 
L 318.467054 245.808 
L 322.295492 239.189076 
L 325.468387 232.295035 
L 327.961591 225.178346 
L 329.756129 217.893171 
L 330.838344 210.494954 
L 331.2 203.04 
" style="fill:none;stroke:#000000;stroke-linecap:square;stroke-width:1.5;"/>
   </g>
   <g id="line2d_18">
    <path clip-path="url(#p751f78bc02)" d="M 281.7792 127.008 
L 281.692403 124.523015 
L 281.432671 122.056943 
L 281.001982 119.628551 
L 280.403613 117.256322 
L 279.642118 114.958308 
L 278.723293 112.752 
L 277.65413 110.654189 
L 276.442767 108.68084 
L 275.098423 106.846971 
L 273.631328 105.166541 
L 272.052649 103.652337 
L 270.3744 102.315884 
L 268.609354 101.167352 
L 266.770943 100.215484 
L 264.873159 99.467523 
L 262.930445 98.929161 
L 260.957588 98.604497 
L 258.9696 98.496 
L 256.981612 98.604497 
L 255.008755 98.929161 
L 253.066041 99.467523 
L 251.168257 100.215484 
L 249.329846 101.167352 
L 247.5648 102.315884 
L 245.886551 103.652337 
L 244.307872 105.166541 
L 242.840777 106.846971 
L 241.496433 108.68084 
L 240.28507 110.654189 
L 239.215907 112.752 
L 238.297082 114.958308 
L 237.535587 117.256322 
L 236.937218 119.628551 
L 236.506529 122.056943 
L 236.246797 124.523015 
L 236.16 127.008 
L 236.246797 129.492985 
L 236.506529 131.959057 
L 236.937218 134.387449 
L 237.535587 136.759678 
L 238.297082 139.057692 
L 239.215907 141.264 
L 240.28507 143.361811 
L 241.496433 145.33516 
L 242.840777 147.169029 
L 244.307872 148.849459 
L 245.886551 150.363663 
L 247.5648 151.700116 
L 249.329846 152.848648 
L 251.168257 153.800516 
L 253.066041 154.548477 
L 255.008755 155.086839 
L 256.981612 155.411503 
L 258.9696 155.52 
L 260.957588 155.411503 
L 262.930445 155.086839 
L 264.873159 154.548477 
L 266.770943 153.800516 
L 268.609354 152.848648 
L 270.3744 151.700116 
L 272.052649 150.363663 
L 273.631328 148.849459 
L 275.098423 147.169029 
L 276.442767 145.33516 
L 277.65413 143.361811 
L 278.723293 141.264 
L 279.642118 139.057692 
L 280.403613 136.759678 
L 281.001982 134.387449 
L 281.432671 131.959057 
L 281.692403 129.492985 
L 281.7792 127.008 
" style="fill:none;stroke:#000000;stroke-linecap:square;stroke-width:1.5;"/>
   </g>
   <g id="line2d_19">
    <path clip-path="url(#p751f78bc02)" d="M 236.16 127.008 
L 236.073203 124.523015 
L 235.813471 122.056943 
L 235.382782 119.628551 
L 234.784413 117.256322 
L 234.022918 114.958308 
L 233.104093 112.752 
L 232.03493 110.654189 
L 230.823567 108.68084 
L 229.479223 106.846971 
L 228.012128 105.166541 
L 226.433449 103.652337 
L 224.7552 102.315884 
L 222.990154 101.167352 
L 221.151743 100.215484 
L 219.253959 99.467523 
L 217.311245 98.929161 
L 215.338388 98.604497 
L 213.3504 98.496 
L 211.362412 98.604497 
L 209.389555 98.929161 
L 207.446841 99.467523 
L 205.549057 100.215484 
L 203.710646 101.167352 
L 201.9456 102.315884 
L 200.267351 103.652337 
L 198.688672 105.166541 
L 197.221577 106.846971 
L 195.877233 108.68084 
L 194.66587 110.654189 
L 193.596707 112.752 
L 192.677882 114.958308 
L 191.916387 117.256322 
L 191.318018 119.628551 
L 190.887329 122.056943 
L 190.627597 124.523015 
L 190.5408 127.008 
L 190.627597 129.492985 
L 190.887329 131.959057 
L 191.318018 134.387449 
L 191.916387 136.759678 
L 192.677882 139.057692 
L 193.596707 141.264 
L 194.66587 143.361811 
L 195.877233 145.33516 
L 197.221577 147.169029 
L 198.688672 148.849459 
L 200.267351 150.363663 
L 201.9456 151.700116 
L 203.710646 152.848648 
L 205.549057 153.800516 
L 207.446841 154.548477 
L 209.389555 155.086839 
L 211.362412 155.411503 
L 213.3504 155.52 
L 215.338388 155.411503 
L 217.311245 155.086839 
L 219.253959 154.548477 
L 221.151743 153.800516 
L 222.990154 152.848648 
L 224.7552 151.700116 
L 226.433449 150.363663 
L 228.012128 148.849459 
L 229.479223 147.169029 
L 230.823567 145.33516 
L 232.03493 143.361811 
L 233.104093 141.264 
L 234.022918 139.057692 
L 234.784413 136.759678 
L 235.382782 134.387449 
L 235.813471 131.959057 
L 236.073203 129.492985 
L 236.16 127.008 
" style="fill:none;stroke:#000000;stroke-linecap:square;stroke-width:1.5;"/>
   </g>
   <g id="line2d_20">
    <path clip-path="url(#p751f78bc02)" d="M 255.168 128.9088 
L 255.131834 128.080472 
L 255.023613 127.258448 
L 254.844159 126.448984 
L 254.594839 125.658241 
L 254.277549 124.892236 
L 253.894705 124.1568 
L 253.449221 123.45753 
L 252.944486 122.799747 
L 252.384343 122.188457 
L 251.773053 121.628314 
L 251.11527 121.123579 
L 250.416 120.678095 
L 249.680564 120.295251 
L 248.914559 119.977961 
L 248.123816 119.728641 
L 247.314352 119.549187 
L 246.492328 119.440966 
L 245.664 119.4048 
L 244.835672 119.440966 
L 244.013648 119.549187 
L 243.204184 119.728641 
L 242.413441 119.977961 
L 241.647436 120.295251 
L 240.912 120.678095 
L 240.21273 121.123579 
L 239.554947 121.628314 
L 238.943657 122.188457 
L 238.383514 122.799747 
L 237.878779 123.45753 
L 237.433295 124.1568 
L 237.050451 124.892236 
L 236.733161 125.658241 
L 236.483841 126.448984 
L 236.304387 127.258448 
L 236.196166 128.080472 
L 236.16 128.9088 
L 236.196166 129.737128 
L 236.304387 130.559152 
L 236.483841 131.368616 
L 236.733161 132.159359 
L 237.050451 132.925364 
L 237.433295 133.6608 
L 237.878779 134.36007 
L 238.383514 135.017853 
L 238.943657 135.629143 
L 239.554947 136.189286 
L 240.21273 136.694021 
L 240.912 137.139505 
L 241.647436 137.522349 
L 242.413441 137.839639 
L 243.204184 138.088959 
L 244.013648 138.268413 
L 244.835672 138.376634 
L 245.664 138.4128 
L 246.492328 138.376634 
L 247.314352 138.268413 
L 248.123816 138.088959 
L 248.914559 137.839639 
L 249.680564 137.522349 
L 250.416 137.139505 
L 251.11527 136.694021 
L 251.773053 136.189286 
L 252.384343 135.629143 
L 252.944486 135.017853 
L 253.449221 134.36007 
L 253.894705 133.6608 
L 254.277549 132.925364 
L 254.594839 132.159359 
L 254.844159 131.368616 
L 255.023613 130.559152 
L 255.131834 129.737128 
L 255.168 128.9088 
" style="fill:none;stroke:#000000;stroke-linecap:square;stroke-width:1.5;"/>
   </g>
   <g id="line2d_21">
    <path clip-path="url(#p751f78bc02)" d="M 236.16 128.9088 
L 236.123834 128.080472 
L 236.015613 127.258448 
L 235.836159 126.448984 
L 235.586839 125.658241 
L 235.269549 124.892236 
L 234.886705 124.1568 
L 234.441221 123.45753 
L 233.936486 122.799747 
L 233.376343 122.188457 
L 232.765053 121.628314 
L 232.10727 121.123579 
L 231.408 120.678095 
L 230.672564 120.295251 
L 229.906559 119.977961 
L 229.115816 119.728641 
L 228.306352 119.549187 
L 227.484328 119.440966 
L 226.656 119.4048 
L 225.827672 119.440966 
L 225.005648 119.549187 
L 224.196184 119.728641 
L 223.405441 119.977961 
L 222.639436 120.295251 
L 221.904 120.678095 
L 221.20473 121.123579 
L 220.546947 121.628314 
L 219.935657 122.188457 
L 219.375514 122.799747 
L 218.870779 123.45753 
L 218.425295 124.1568 
L 218.042451 124.892236 
L 217.725161 125.658241 
L 217.475841 126.448984 
L 217.296387 127.258448 
L 217.188166 128.080472 
L 217.152 128.9088 
L 217.188166 129.737128 
L 217.296387 130.559152 
L 217.475841 131.368616 
L 217.725161 132.159359 
L 218.042451 132.925364 
L 218.425295 133.6608 
L 218.870779 134.36007 
L 219.375514 135.017853 
L 219.935657 135.629143 
L 220.546947 136.189286 
L 221.20473 136.694021 
L 221.904 137.139505 
L 222.639436 137.522349 
L 223.405441 137.839639 
L 224.196184 138.088959 
L 225.005648 138.268413 
L 225.827672 138.376634 
L 226.656 138.4128 
L 227.484328 138.376634 
L 228.306352 138.268413 
L 229.115816 138.088959 
L 229.906559 137.839639 
L 230.672564 137.522349 
L 231.408 137.139505 
L 232.10727 136.694021 
L 232.765053 136.189286 
L 233.376343 135.629143 
L 233.936486 135.017853 
L 234.441221 134.36007 
L 234.886705 133.6608 
L 235.269549 132.925364 
L 235.586839 132.159359 
L 235.836159 131.368616 
L 236.015613 130.559152 
L 236.123834 129.737128 
L 236.16 128.9088 
" style="fill:none;stroke:#000000;stroke-linecap:square;stroke-width:1.5;"/>
   </g>
   <g id="line2d_22">
    <path clip-path="url(#p751f78bc02)" d="M 122.112 163.1232 
L 179.136 180.2304 
" style="fill:none;stroke:#000000;stroke-linecap:square;stroke-width:1.5;"/>
   </g>
   <g id="line2d_23">
    <path clip-path="url(#p751f78bc02)" d="M 350.208 168.8256 
L 293.184 185.9328 
" style="fill:none;stroke:#000000;stroke-linecap:square;stroke-width:1.5;"/>
   </g>
   <g id="line2d_24">
    <path clip-path="url(#p751f78bc02)" d="M 122.112 212.544 
L 179.136 212.544 
" style="fill:none;stroke:#000000;stroke-linecap:square;stroke-width:1.5;"/>
   </g>
   <g id="line2d_25">
    <path clip-path="url(#p751f78bc02)" d="M 350.208 212.544 
L 293.184 212.544 
" style="fill:none;stroke:#000000;stroke-linecap:square;stroke-width:1.5;"/>
   </g>
   <g id="line2d_26">
    <path clip-path="url(#p751f78bc02)" d="M 122.112 189.7344 
L 179.136 201.1392 
" style="fill:none;stroke:#000000;stroke-linecap:square;stroke-width:1.5;"/>
   </g>
   <g id="line2d_27">
    <path clip-path="url(#p751f78bc02)" d="M 350.208 193.536 
L 293.184 204.9408 
" style="fill:none;stroke:#000000;stroke-linecap:square;stroke-width:1.5;"/>
   </g>
   <g id="line2d_28">
    <path clip-path="url(#p751f78bc02)" d="M 236.16 163.1232 
L 236.16 250.56 
" style="fill:none;stroke:#000000;stroke-linecap:square;stroke-width:1.5;"/>
   </g>
   <g id="line2d_29">
    <path clip-path="url(#p751f78bc02)" d="M 192.4416 210.339072 
L 194.226024 213.555406 
L 196.010449 216.637726 
L 197.794873 219.586033 
L 199.579298 222.400325 
L 201.363722 225.080603 
L 203.148147 227.626868 
L 204.932571 230.039118 
L 206.716996 232.317355 
L 208.50142 234.461578 
L 210.285845 236.471787 
L 212.070269 238.347981 
L 213.854694 240.090162 
L 215.639118 241.698329 
L 217.423543 243.172483 
L 219.207967 244.512622 
L 220.992392 245.718747 
L 222.776816 246.790858 
L 224.561241 247.728956 
L 226.345665 248.533039 
L 228.13009 249.203109 
L 229.914514 249.739165 
L 231.698939 250.141206 
L 233.483363 250.409234 
L 235.267788 250.543248 
L 237.052212 250.543248 
L 238.836637 250.409234 
L 240.621061 250.141206 
L 242.405486 249.739165 
L 244.18991 249.203109 
L 245.974335 248.533039 
L 247.758759 247.728956 
L 249.543184 246.790858 
L 251.327608 245.718747 
L 253.112033 244.512622 
L 254.896457 243.172483 
L 256.680882 241.698329 
L 258.465306 240.090162 
L 260.249731 238.347981 
L 262.034155 236.471787 
L 263.81858 234.461578 
L 265.603004 232.317355 
L 267.387429 230.039118 
L 269.171853 227.626868 
L 270.956278 225.080603 
L 272.740702 222.400325 
L 274.525127 219.586033 
L 276.309551 216.637726 
L 278.093976 213.555406 
L 279.8784 210.339072 
" style="fill:none;stroke:#000000;stroke-linecap:square;stroke-width:1.5;"/>
   </g>
   <g id="patch_3">
    <path d="M 103.104 307.584 
L 103.104 41.472 
" style="fill:none;stroke:#000000;stroke-linecap:square;stroke-linejoin:miter;stroke-width:0.8;"/>
   </g>
   <g id="patch_4">
    <path d="M 369.216 307.584 
L 369.216 41.472 
" style="fill:none;stroke:#000000;stroke-linecap:square;stroke-linejoin:miter;stroke-width:0.8;"/>
   </g>
   <g id="patch_5">
    <path d="M 103.104 307.584 
L 369.216 307.584 
" style="fill:none;stroke:#000000;stroke-linecap:square;stroke-linejoin:miter;stroke-width:0.8;"/>
   </g>
   <g id="patch_6">
    <path d="M 103.104 41.472 
L 369.216 41.472 
" style="fill:none;stroke:#000000;stroke-linecap:square;stroke-linejoin:miter;stroke-width:0.8;"/>
   </g>
  </g>
 </g>
 <defs>
  <clipPath id="p751f78bc02">
   <rect height="266.112" width="266.112" x="103.104" y="41.472"/>
  </clipPath>
 </defs>
</svg>
