<?xml version="1.0" encoding="utf-8" standalone="no"?>
<!DOCTYPE svg PUBLIC "-//W3C//DTD SVG 1.1//EN"
  "http://www.w3.org/Graphics/SVG/1.1/DTD/svg11.dtd">
<!-- Created with matplotlib (http://matplotlib.org/) -->
<svg height="345.6pt" version="1.1" viewBox="0 0 460.8 345.6" width="460.8pt" xmlns="http://www.w3.org/2000/svg" xmlns:xlink="http://www.w3.org/1999/xlink">
 <defs>
  <style type="text/css">
*{stroke-linecap:butt;stroke-linejoin:round;}
  </style>
 </defs>
 <g id="figure_1">
  <g id="patch_1">
   <path d="M 0 345.6 
L 460.8 345.6 
L 460.8 0 
L 0 0 
z
" style="fill:#ffffff;"/>
  </g>
  <g id="axes_1">
   <g id="patch_2">
    <path d="M 57.6 266.4 
L 414.72 266.4 
L 414.72 82.656 
L 57.6 82.656 
z
" style="fill:#ffffff;"/>
   </g>
   <g id="matplotlib.axis_1">
    <g id="xtick_1">
     <g id="line2d_1">
      <defs>
       <path d="M 0 0 
L 0 3.5 
" id="m29240244c1" style="stroke:#000000;stroke-width:0.8;"/>
      </defs>
      <g>
       <use style="stroke:#000000;stroke-width:0.8;" x="63.36" xlink:href="#m29240244c1" y="266.4"/>
      </g>
     </g>
     <g id="text_1">
      <!-- −6 -->
      <defs>
       <path d="M 10.59375 35.5 
L 73.1875 35.5 
L 73.1875 27.203125 
L 10.59375 27.203125 
z
" id="DejaVuSans-2212"/>
       <path d="M 33.015625 40.375 
Q 26.375 40.375 22.484375 35.828125 
Q 18.609375 31.296875 18.609375 23.390625 
Q 18.609375 15.53125 22.484375 10.953125 
Q 26.375 6.390625 33.015625 6.390625 
Q 39.65625 6.390625 43.53125 10.953125 
Q 47.40625 15.53125 47.40625 23.390625 
Q 47.40625 31.296875 43.53125 35.828125 
Q 39.65625 40.375 33.015625 40.375 
z
M 52.59375 71.296875 
L 52.59375 62.3125 
Q 48.875 64.0625 45.09375 64.984375 
Q 41.3125 65.921875 37.59375 65.921875 
Q 27.828125 65.921875 22.671875 59.328125 
Q 17.53125 52.734375 16.796875 39.40625 
Q 19.671875 43.65625 24.015625 45.921875 
Q 28.375 48.1875 33.59375 48.1875 
Q 44.578125 48.1875 50.953125 41.515625 
Q 57.328125 34.859375 57.328125 23.390625 
Q 57.328125 12.15625 50.6875 5.359375 
Q 44.046875 -1.421875 33.015625 -1.421875 
Q 20.359375 -1.421875 13.671875 8.265625 
Q 6.984375 17.96875 6.984375 36.375 
Q 6.984375 53.65625 15.1875 63.9375 
Q 23.390625 74.21875 37.203125 74.21875 
Q 40.921875 74.21875 44.703125 73.484375 
Q 48.484375 72.75 52.59375 71.296875 
z
" id="DejaVuSans-36"/>
      </defs>
      <g transform="translate(55.988906 280.998438)scale(0.1 -0.1)">
       <use xlink:href="#DejaVuSans-2212"/>
       <use x="83.789062" xlink:href="#DejaVuSans-36"/>
      </g>
     </g>
    </g>
    <g id="xtick_2">
     <g id="line2d_2">
      <g>
       <use style="stroke:#000000;stroke-width:0.8;" x="120.96" xlink:href="#m29240244c1" y="266.4"/>
      </g>
     </g>
     <g id="text_2">
      <!-- −4 -->
      <defs>
       <path d="M 37.796875 64.3125 
L 12.890625 25.390625 
L 37.796875 25.390625 
z
M 35.203125 72.90625 
L 47.609375 72.90625 
L 47.609375 25.390625 
L 58.015625 25.390625 
L 58.015625 17.1875 
L 47.609375 17.1875 
L 47.609375 0 
L 37.796875 0 
L 37.796875 17.1875 
L 4.890625 17.1875 
L 4.890625 26.703125 
z
" id="DejaVuSans-34"/>
      </defs>
      <g transform="translate(113.588906 280.998438)scale(0.1 -0.1)">
       <use xlink:href="#DejaVuSans-2212"/>
       <use x="83.789062" xlink:href="#DejaVuSans-34"/>
      </g>
     </g>
    </g>
    <g id="xtick_3">
     <g id="line2d_3">
      <g>
       <use style="stroke:#000000;stroke-width:0.8;" x="178.56" xlink:href="#m29240244c1" y="266.4"/>
      </g>
     </g>
     <g id="text_3">
      <!-- −2 -->
      <defs>
       <path d="M 19.1875 8.296875 
L 53.609375 8.296875 
L 53.609375 0 
L 7.328125 0 
L 7.328125 8.296875 
Q 12.9375 14.109375 22.625 23.890625 
Q 32.328125 33.6875 34.8125 36.53125 
Q 39.546875 41.84375 41.421875 45.53125 
Q 43.3125 49.21875 43.3125 52.78125 
Q 43.3125 58.59375 39.234375 62.25 
Q 35.15625 65.921875 28.609375 65.921875 
Q 23.96875 65.921875 18.8125 64.3125 
Q 13.671875 62.703125 7.8125 59.421875 
L 7.8125 69.390625 
Q 13.765625 71.78125 18.9375 73 
Q 24.125 74.21875 28.421875 74.21875 
Q 39.75 74.21875 46.484375 68.546875 
Q 53.21875 62.890625 53.21875 53.421875 
Q 53.21875 48.921875 51.53125 44.890625 
Q 49.859375 40.875 45.40625 35.40625 
Q 44.1875 33.984375 37.640625 27.21875 
Q 31.109375 20.453125 19.1875 8.296875 
z
" id="DejaVuSans-32"/>
      </defs>
      <g transform="translate(171.188906 280.998438)scale(0.1 -0.1)">
       <use xlink:href="#DejaVuSans-2212"/>
       <use x="83.789062" xlink:href="#DejaVuSans-32"/>
      </g>
     </g>
    </g>
    <g id="xtick_4">
     <g id="line2d_4">
      <g>
       <use style="stroke:#000000;stroke-width:0.8;" x="236.16" xlink:href="#m29240244c1" y="266.4"/>
      </g>
     </g>
     <g id="text_4">
      <!-- 0 -->
      <defs>
       <path d="M 31.78125 66.40625 
Q 24.171875 66.40625 20.328125 58.90625 
Q 16.5 51.421875 16.5 36.375 
Q 16.5 21.390625 20.328125 13.890625 
Q 24.171875 6.390625 31.78125 6.390625 
Q 39.453125 6.390625 43.28125 13.890625 
Q 47.125 21.390625 47.125 36.375 
Q 47.125 51.421875 43.28125 58.90625 
Q 39.453125 66.40625 31.78125 66.40625 
z
M 31.78125 74.21875 
Q 44.046875 74.21875 50.515625 64.515625 
Q 56.984375 54.828125 56.984375 36.375 
Q 56.984375 17.96875 50.515625 8.265625 
Q 44.046875 -1.421875 31.78125 -1.421875 
Q 19.53125 -1.421875 13.0625 8.265625 
Q 6.59375 17.96875 6.59375 36.375 
Q 6.59375 54.828125 13.0625 64.515625 
Q 19.53125 74.21875 31.78125 74.21875 
z
" id="DejaVuSans-30"/>
      </defs>
      <g transform="translate(232.97875 280.998438)scale(0.1 -0.1)">
       <use xlink:href="#DejaVuSans-30"/>
      </g>
     </g>
    </g>
    <g id="xtick_5">
     <g id="line2d_5">
      <g>
       <use style="stroke:#000000;stroke-width:0.8;" x="293.76" xlink:href="#m29240244c1" y="266.4"/>
      </g>
     </g>
     <g id="text_5">
      <!-- 2 -->
      <g transform="translate(290.57875 280.998438)scale(0.1 -0.1)">
       <use xlink:href="#DejaVuSans-32"/>
      </g>
     </g>
    </g>
    <g id="xtick_6">
     <g id="line2d_6">
      <g>
       <use style="stroke:#000000;stroke-width:0.8;" x="351.36" xlink:href="#m29240244c1" y="266.4"/>
      </g>
     </g>
     <g id="text_6">
      <!-- 4 -->
      <g transform="translate(348.17875 280.998438)scale(0.1 -0.1)">
       <use xlink:href="#DejaVuSans-34"/>
      </g>
     </g>
    </g>
    <g id="xtick_7">
     <g id="line2d_7">
      <g>
       <use style="stroke:#000000;stroke-width:0.8;" x="408.96" xlink:href="#m29240244c1" y="266.4"/>
      </g>
     </g>
     <g id="text_7">
      <!-- 6 -->
      <g transform="translate(405.77875 280.998438)scale(0.1 -0.1)">
       <use xlink:href="#DejaVuSans-36"/>
      </g>
     </g>
    </g>
   </g>
   <g id="matplotlib.axis_2">
    <g id="ytick_1">
     <g id="line2d_8">
      <defs>
       <path d="M 0 0 
L -3.5 0 
" id="m43a9be45dc" style="stroke:#000000;stroke-width:0.8;"/>
      </defs>
      <g>
       <use style="stroke:#000000;stroke-width:0.8;" x="57.6" xlink:href="#m43a9be45dc" y="258.048"/>
      </g>
     </g>
     <g id="text_8">
      <!-- −3 -->
      <defs>
       <path d="M 40.578125 39.3125 
Q 47.65625 37.796875 51.625 33 
Q 55.609375 28.21875 55.609375 21.1875 
Q 55.609375 10.40625 48.1875 4.484375 
Q 40.765625 -1.421875 27.09375 -1.421875 
Q 22.515625 -1.421875 17.65625 -0.515625 
Q 12.796875 0.390625 7.625 2.203125 
L 7.625 11.71875 
Q 11.71875 9.328125 16.59375 8.109375 
Q 21.484375 6.890625 26.8125 6.890625 
Q 36.078125 6.890625 40.9375 10.546875 
Q 45.796875 14.203125 45.796875 21.1875 
Q 45.796875 27.640625 41.28125 31.265625 
Q 36.765625 34.90625 28.71875 34.90625 
L 20.21875 34.90625 
L 20.21875 43.015625 
L 29.109375 43.015625 
Q 36.375 43.015625 40.234375 45.921875 
Q 44.09375 48.828125 44.09375 54.296875 
Q 44.09375 59.90625 40.109375 62.90625 
Q 36.140625 65.921875 28.71875 65.921875 
Q 24.65625 65.921875 20.015625 65.03125 
Q 15.375 64.15625 9.8125 62.3125 
L 9.8125 71.09375 
Q 15.4375 72.65625 20.34375 73.4375 
Q 25.25 74.21875 29.59375 74.21875 
Q 40.828125 74.21875 47.359375 69.109375 
Q 53.90625 64.015625 53.90625 55.328125 
Q 53.90625 49.265625 50.4375 45.09375 
Q 46.96875 40.921875 40.578125 39.3125 
z
" id="DejaVuSans-33"/>
      </defs>
      <g transform="translate(35.857813 261.847219)scale(0.1 -0.1)">
       <use xlink:href="#DejaVuSans-2212"/>
       <use x="83.789062" xlink:href="#DejaVuSans-33"/>
      </g>
     </g>
    </g>
    <g id="ytick_2">
     <g id="line2d_9">
      <g>
       <use style="stroke:#000000;stroke-width:0.8;" x="57.6" xlink:href="#m43a9be45dc" y="229.248"/>
      </g>
     </g>
     <g id="text_9">
      <!-- −2 -->
      <g transform="translate(35.857813 233.047219)scale(0.1 -0.1)">
       <use xlink:href="#DejaVuSans-2212"/>
       <use x="83.789062" xlink:href="#DejaVuSans-32"/>
      </g>
     </g>
    </g>
    <g id="ytick_3">
     <g id="line2d_10">
      <g>
       <use style="stroke:#000000;stroke-width:0.8;" x="57.6" xlink:href="#m43a9be45dc" y="200.448"/>
      </g>
     </g>
     <g id="text_10">
      <!-- −1 -->
      <defs>
       <path d="M 12.40625 8.296875 
L 28.515625 8.296875 
L 28.515625 63.921875 
L 10.984375 60.40625 
L 10.984375 69.390625 
L 28.421875 72.90625 
L 38.28125 72.90625 
L 38.28125 8.296875 
L 54.390625 8.296875 
L 54.390625 0 
L 12.40625 0 
z
" id="DejaVuSans-31"/>
      </defs>
      <g transform="translate(35.857813 204.247219)scale(0.1 -0.1)">
       <use xlink:href="#DejaVuSans-2212"/>
       <use x="83.789062" xlink:href="#DejaVuSans-31"/>
      </g>
     </g>
    </g>
    <g id="ytick_4">
     <g id="line2d_11">
      <g>
       <use style="stroke:#000000;stroke-width:0.8;" x="57.6" xlink:href="#m43a9be45dc" y="171.648"/>
      </g>
     </g>
     <g id="text_11">
      <!-- 0 -->
      <g transform="translate(44.2375 175.447219)scale(0.1 -0.1)">
       <use xlink:href="#DejaVuSans-30"/>
      </g>
     </g>
    </g>
    <g id="ytick_5">
     <g id="line2d_12">
      <g>
       <use style="stroke:#000000;stroke-width:0.8;" x="57.6" xlink:href="#m43a9be45dc" y="142.848"/>
      </g>
     </g>
     <g id="text_12">
      <!-- 1 -->
      <g transform="translate(44.2375 146.647219)scale(0.1 -0.1)">
       <use xlink:href="#DejaVuSans-31"/>
      </g>
     </g>
    </g>
    <g id="ytick_6">
     <g id="line2d_13">
      <g>
       <use style="stroke:#000000;stroke-width:0.8;" x="57.6" xlink:href="#m43a9be45dc" y="114.048"/>
      </g>
     </g>
     <g id="text_13">
      <!-- 2 -->
      <g transform="translate(44.2375 117.847219)scale(0.1 -0.1)">
       <use xlink:href="#DejaVuSans-32"/>
      </g>
     </g>
    </g>
    <g id="ytick_7">
     <g id="line2d_14">
      <g>
       <use style="stroke:#000000;stroke-width:0.8;" x="57.6" xlink:href="#m43a9be45dc" y="85.248"/>
      </g>
     </g>
     <g id="text_14">
      <!-- 3 -->
      <g transform="translate(44.2375 89.047219)scale(0.1 -0.1)">
       <use xlink:href="#DejaVuSans-33"/>
      </g>
     </g>
    </g>
   </g>
   <g id="line2d_15">
    <defs>
     <path d="M 0 1.5 
C 0.397805 1.5 0.77937 1.341951 1.06066 1.06066 
C 1.341951 0.77937 1.5 0.397805 1.5 0 
C 1.5 -0.397805 1.341951 -0.77937 1.06066 -1.06066 
C 0.77937 -1.341951 0.397805 -1.5 0 -1.5 
C -0.397805 -1.5 -0.77937 -1.341951 -1.06066 -1.06066 
C -1.341951 -0.77937 -1.5 -0.397805 -1.5 0 
C -1.5 0.397805 -1.341951 0.77937 -1.06066 1.06066 
C -0.77937 1.341951 -0.397805 1.5 0 1.5 
z
" id="mbf5d8a49d9" style="stroke:#1f77b4;"/>
    </defs>
    <g clip-path="url(#p1a38e8457a)">
     <use style="fill:#1f77b4;stroke:#1f77b4;" x="40.32" xlink:href="#mbf5d8a49d9" y="258.048"/>
     <use style="fill:#1f77b4;stroke:#1f77b4;" x="46.08" xlink:href="#mbf5d8a49d9" y="258.048"/>
     <use style="fill:#1f77b4;stroke:#1f77b4;" x="51.84" xlink:href="#mbf5d8a49d9" y="258.048"/>
     <use style="fill:#1f77b4;stroke:#1f77b4;" x="57.6" xlink:href="#mbf5d8a49d9" y="258.048"/>
     <use style="fill:#1f77b4;stroke:#1f77b4;" x="63.36" xlink:href="#mbf5d8a49d9" y="229.248"/>
     <use style="fill:#1f77b4;stroke:#1f77b4;" x="69.12" xlink:href="#mbf5d8a49d9" y="229.248"/>
     <use style="fill:#1f77b4;stroke:#1f77b4;" x="74.88" xlink:href="#mbf5d8a49d9" y="229.248"/>
     <use style="fill:#1f77b4;stroke:#1f77b4;" x="80.64" xlink:href="#mbf5d8a49d9" y="229.248"/>
     <use style="fill:#1f77b4;stroke:#1f77b4;" x="86.4" xlink:href="#mbf5d8a49d9" y="229.248"/>
     <use style="fill:#1f77b4;stroke:#1f77b4;" x="92.16" xlink:href="#mbf5d8a49d9" y="229.248"/>
     <use style="fill:#1f77b4;stroke:#1f77b4;" x="97.92" xlink:href="#mbf5d8a49d9" y="229.248"/>
     <use style="fill:#1f77b4;stroke:#1f77b4;" x="103.68" xlink:href="#mbf5d8a49d9" y="229.248"/>
     <use style="fill:#1f77b4;stroke:#1f77b4;" x="109.44" xlink:href="#mbf5d8a49d9" y="229.248"/>
     <use style="fill:#1f77b4;stroke:#1f77b4;" x="115.2" xlink:href="#mbf5d8a49d9" y="229.248"/>
     <use style="fill:#1f77b4;stroke:#1f77b4;" x="120.96" xlink:href="#mbf5d8a49d9" y="229.248"/>
     <use style="fill:#1f77b4;stroke:#1f77b4;" x="126.72" xlink:href="#mbf5d8a49d9" y="229.248"/>
     <use style="fill:#1f77b4;stroke:#1f77b4;" x="132.48" xlink:href="#mbf5d8a49d9" y="229.248"/>
     <use style="fill:#1f77b4;stroke:#1f77b4;" x="138.24" xlink:href="#mbf5d8a49d9" y="229.248"/>
     <use style="fill:#1f77b4;stroke:#1f77b4;" x="144" xlink:href="#mbf5d8a49d9" y="229.248"/>
     <use style="fill:#1f77b4;stroke:#1f77b4;" x="149.76" xlink:href="#mbf5d8a49d9" y="200.448"/>
     <use style="fill:#1f77b4;stroke:#1f77b4;" x="155.52" xlink:href="#mbf5d8a49d9" y="200.448"/>
     <use style="fill:#1f77b4;stroke:#1f77b4;" x="161.28" xlink:href="#mbf5d8a49d9" y="200.448"/>
     <use style="fill:#1f77b4;stroke:#1f77b4;" x="167.04" xlink:href="#mbf5d8a49d9" y="200.448"/>
     <use style="fill:#1f77b4;stroke:#1f77b4;" x="172.8" xlink:href="#mbf5d8a49d9" y="200.448"/>
     <use style="fill:#1f77b4;stroke:#1f77b4;" x="178.56" xlink:href="#mbf5d8a49d9" y="200.448"/>
     <use style="fill:#1f77b4;stroke:#1f77b4;" x="184.32" xlink:href="#mbf5d8a49d9" y="200.448"/>
     <use style="fill:#1f77b4;stroke:#1f77b4;" x="190.08" xlink:href="#mbf5d8a49d9" y="200.448"/>
     <use style="fill:#1f77b4;stroke:#1f77b4;" x="195.84" xlink:href="#mbf5d8a49d9" y="200.448"/>
     <use style="fill:#1f77b4;stroke:#1f77b4;" x="201.6" xlink:href="#mbf5d8a49d9" y="200.448"/>
     <use style="fill:#1f77b4;stroke:#1f77b4;" x="207.36" xlink:href="#mbf5d8a49d9" y="200.448"/>
     <use style="fill:#1f77b4;stroke:#1f77b4;" x="213.12" xlink:href="#mbf5d8a49d9" y="200.448"/>
     <use style="fill:#1f77b4;stroke:#1f77b4;" x="218.88" xlink:href="#mbf5d8a49d9" y="200.448"/>
     <use style="fill:#1f77b4;stroke:#1f77b4;" x="224.64" xlink:href="#mbf5d8a49d9" y="200.448"/>
     <use style="fill:#1f77b4;stroke:#1f77b4;" x="230.4" xlink:href="#mbf5d8a49d9" y="200.448"/>
     <use style="fill:#1f77b4;stroke:#1f77b4;" x="236.16" xlink:href="#mbf5d8a49d9" y="171.648"/>
     <use style="fill:#1f77b4;stroke:#1f77b4;" x="241.92" xlink:href="#mbf5d8a49d9" y="171.648"/>
     <use style="fill:#1f77b4;stroke:#1f77b4;" x="247.68" xlink:href="#mbf5d8a49d9" y="171.648"/>
     <use style="fill:#1f77b4;stroke:#1f77b4;" x="253.44" xlink:href="#mbf5d8a49d9" y="171.648"/>
     <use style="fill:#1f77b4;stroke:#1f77b4;" x="259.2" xlink:href="#mbf5d8a49d9" y="171.648"/>
     <use style="fill:#1f77b4;stroke:#1f77b4;" x="264.96" xlink:href="#mbf5d8a49d9" y="171.648"/>
     <use style="fill:#1f77b4;stroke:#1f77b4;" x="270.72" xlink:href="#mbf5d8a49d9" y="171.648"/>
     <use style="fill:#1f77b4;stroke:#1f77b4;" x="276.48" xlink:href="#mbf5d8a49d9" y="171.648"/>
     <use style="fill:#1f77b4;stroke:#1f77b4;" x="282.24" xlink:href="#mbf5d8a49d9" y="171.648"/>
     <use style="fill:#1f77b4;stroke:#1f77b4;" x="288" xlink:href="#mbf5d8a49d9" y="171.648"/>
     <use style="fill:#1f77b4;stroke:#1f77b4;" x="293.76" xlink:href="#mbf5d8a49d9" y="171.648"/>
     <use style="fill:#1f77b4;stroke:#1f77b4;" x="299.52" xlink:href="#mbf5d8a49d9" y="171.648"/>
     <use style="fill:#1f77b4;stroke:#1f77b4;" x="305.28" xlink:href="#mbf5d8a49d9" y="171.648"/>
     <use style="fill:#1f77b4;stroke:#1f77b4;" x="311.04" xlink:href="#mbf5d8a49d9" y="171.648"/>
     <use style="fill:#1f77b4;stroke:#1f77b4;" x="316.8" xlink:href="#mbf5d8a49d9" y="171.648"/>
     <use style="fill:#1f77b4;stroke:#1f77b4;" x="322.56" xlink:href="#mbf5d8a49d9" y="142.848"/>
     <use style="fill:#1f77b4;stroke:#1f77b4;" x="328.32" xlink:href="#mbf5d8a49d9" y="142.848"/>
     <use style="fill:#1f77b4;stroke:#1f77b4;" x="334.08" xlink:href="#mbf5d8a49d9" y="142.848"/>
     <use style="fill:#1f77b4;stroke:#1f77b4;" x="339.84" xlink:href="#mbf5d8a49d9" y="142.848"/>
     <use style="fill:#1f77b4;stroke:#1f77b4;" x="345.6" xlink:href="#mbf5d8a49d9" y="142.848"/>
     <use style="fill:#1f77b4;stroke:#1f77b4;" x="351.36" xlink:href="#mbf5d8a49d9" y="142.848"/>
     <use style="fill:#1f77b4;stroke:#1f77b4;" x="357.12" xlink:href="#mbf5d8a49d9" y="142.848"/>
     <use style="fill:#1f77b4;stroke:#1f77b4;" x="362.88" xlink:href="#mbf5d8a49d9" y="142.848"/>
     <use style="fill:#1f77b4;stroke:#1f77b4;" x="368.64" xlink:href="#mbf5d8a49d9" y="142.848"/>
     <use style="fill:#1f77b4;stroke:#1f77b4;" x="374.4" xlink:href="#mbf5d8a49d9" y="142.848"/>
     <use style="fill:#1f77b4;stroke:#1f77b4;" x="380.16" xlink:href="#mbf5d8a49d9" y="142.848"/>
     <use style="fill:#1f77b4;stroke:#1f77b4;" x="385.92" xlink:href="#mbf5d8a49d9" y="142.848"/>
     <use style="fill:#1f77b4;stroke:#1f77b4;" x="391.68" xlink:href="#mbf5d8a49d9" y="142.848"/>
     <use style="fill:#1f77b4;stroke:#1f77b4;" x="397.44" xlink:href="#mbf5d8a49d9" y="142.848"/>
     <use style="fill:#1f77b4;stroke:#1f77b4;" x="403.2" xlink:href="#mbf5d8a49d9" y="142.848"/>
     <use style="fill:#1f77b4;stroke:#1f77b4;" x="408.96" xlink:href="#mbf5d8a49d9" y="114.048"/>
     <use style="fill:#1f77b4;stroke:#1f77b4;" x="414.72" xlink:href="#mbf5d8a49d9" y="114.048"/>
     <use style="fill:#1f77b4;stroke:#1f77b4;" x="420.48" xlink:href="#mbf5d8a49d9" y="114.048"/>
     <use style="fill:#1f77b4;stroke:#1f77b4;" x="426.24" xlink:href="#mbf5d8a49d9" y="114.048"/>
     <use style="fill:#1f77b4;stroke:#1f77b4;" x="432" xlink:href="#mbf5d8a49d9" y="114.048"/>
    </g>
   </g>
   <g id="line2d_16">
    <defs>
     <path d="M 0 1.5 
C 0.397805 1.5 0.77937 1.341951 1.06066 1.06066 
C 1.341951 0.77937 1.5 0.397805 1.5 0 
C 1.5 -0.397805 1.341951 -0.77937 1.06066 -1.06066 
C 0.77937 -1.341951 0.397805 -1.5 0 -1.5 
C -0.397805 -1.5 -0.77937 -1.341951 -1.06066 -1.06066 
C -1.341951 -0.77937 -1.5 -0.397805 -1.5 0 
C -1.5 0.397805 -1.341951 0.77937 -1.06066 1.06066 
C -0.77937 1.341951 -0.397805 1.5 0 1.5 
z
" id="m0dafbd7b72" style="stroke:#ff7f0e;"/>
    </defs>
    <g clip-path="url(#p1a38e8457a)">
     <use style="fill:#ff7f0e;stroke:#ff7f0e;" x="40.32" xlink:href="#m0dafbd7b72" y="108.288"/>
     <use style="fill:#ff7f0e;stroke:#ff7f0e;" x="46.08" xlink:href="#m0dafbd7b72" y="102.528"/>
     <use style="fill:#ff7f0e;stroke:#ff7f0e;" x="51.84" xlink:href="#m0dafbd7b72" y="96.768"/>
     <use style="fill:#ff7f0e;stroke:#ff7f0e;" x="57.6" xlink:href="#m0dafbd7b72" y="91.008"/>
     <use style="fill:#ff7f0e;stroke:#ff7f0e;" x="63.36" xlink:href="#m0dafbd7b72" y="171.648"/>
     <use style="fill:#ff7f0e;stroke:#ff7f0e;" x="69.12" xlink:href="#m0dafbd7b72" y="165.888"/>
     <use style="fill:#ff7f0e;stroke:#ff7f0e;" x="74.88" xlink:href="#m0dafbd7b72" y="160.128"/>
     <use style="fill:#ff7f0e;stroke:#ff7f0e;" x="80.64" xlink:href="#m0dafbd7b72" y="154.368"/>
     <use style="fill:#ff7f0e;stroke:#ff7f0e;" x="86.4" xlink:href="#m0dafbd7b72" y="148.608"/>
     <use style="fill:#ff7f0e;stroke:#ff7f0e;" x="92.16" xlink:href="#m0dafbd7b72" y="142.848"/>
     <use style="fill:#ff7f0e;stroke:#ff7f0e;" x="97.92" xlink:href="#m0dafbd7b72" y="137.088"/>
     <use style="fill:#ff7f0e;stroke:#ff7f0e;" x="103.68" xlink:href="#m0dafbd7b72" y="131.328"/>
     <use style="fill:#ff7f0e;stroke:#ff7f0e;" x="109.44" xlink:href="#m0dafbd7b72" y="125.568"/>
     <use style="fill:#ff7f0e;stroke:#ff7f0e;" x="115.2" xlink:href="#m0dafbd7b72" y="119.808"/>
     <use style="fill:#ff7f0e;stroke:#ff7f0e;" x="120.96" xlink:href="#m0dafbd7b72" y="114.048"/>
     <use style="fill:#ff7f0e;stroke:#ff7f0e;" x="126.72" xlink:href="#m0dafbd7b72" y="108.288"/>
     <use style="fill:#ff7f0e;stroke:#ff7f0e;" x="132.48" xlink:href="#m0dafbd7b72" y="102.528"/>
     <use style="fill:#ff7f0e;stroke:#ff7f0e;" x="138.24" xlink:href="#m0dafbd7b72" y="96.768"/>
     <use style="fill:#ff7f0e;stroke:#ff7f0e;" x="144" xlink:href="#m0dafbd7b72" y="91.008"/>
     <use style="fill:#ff7f0e;stroke:#ff7f0e;" x="149.76" xlink:href="#m0dafbd7b72" y="171.648"/>
     <use style="fill:#ff7f0e;stroke:#ff7f0e;" x="155.52" xlink:href="#m0dafbd7b72" y="165.888"/>
     <use style="fill:#ff7f0e;stroke:#ff7f0e;" x="161.28" xlink:href="#m0dafbd7b72" y="160.128"/>
     <use style="fill:#ff7f0e;stroke:#ff7f0e;" x="167.04" xlink:href="#m0dafbd7b72" y="154.368"/>
     <use style="fill:#ff7f0e;stroke:#ff7f0e;" x="172.8" xlink:href="#m0dafbd7b72" y="148.608"/>
     <use style="fill:#ff7f0e;stroke:#ff7f0e;" x="178.56" xlink:href="#m0dafbd7b72" y="142.848"/>
     <use style="fill:#ff7f0e;stroke:#ff7f0e;" x="184.32" xlink:href="#m0dafbd7b72" y="137.088"/>
     <use style="fill:#ff7f0e;stroke:#ff7f0e;" x="190.08" xlink:href="#m0dafbd7b72" y="131.328"/>
     <use style="fill:#ff7f0e;stroke:#ff7f0e;" x="195.84" xlink:href="#m0dafbd7b72" y="125.568"/>
     <use style="fill:#ff7f0e;stroke:#ff7f0e;" x="201.6" xlink:href="#m0dafbd7b72" y="119.808"/>
     <use style="fill:#ff7f0e;stroke:#ff7f0e;" x="207.36" xlink:href="#m0dafbd7b72" y="114.048"/>
     <use style="fill:#ff7f0e;stroke:#ff7f0e;" x="213.12" xlink:href="#m0dafbd7b72" y="108.288"/>
     <use style="fill:#ff7f0e;stroke:#ff7f0e;" x="218.88" xlink:href="#m0dafbd7b72" y="102.528"/>
     <use style="fill:#ff7f0e;stroke:#ff7f0e;" x="224.64" xlink:href="#m0dafbd7b72" y="96.768"/>
     <use style="fill:#ff7f0e;stroke:#ff7f0e;" x="230.4" xlink:href="#m0dafbd7b72" y="91.008"/>
     <use style="fill:#ff7f0e;stroke:#ff7f0e;" x="236.16" xlink:href="#m0dafbd7b72" y="171.648"/>
     <use style="fill:#ff7f0e;stroke:#ff7f0e;" x="241.92" xlink:href="#m0dafbd7b72" y="165.888"/>
     <use style="fill:#ff7f0e;stroke:#ff7f0e;" x="247.68" xlink:href="#m0dafbd7b72" y="160.128"/>
     <use style="fill:#ff7f0e;stroke:#ff7f0e;" x="253.44" xlink:href="#m0dafbd7b72" y="154.368"/>
     <use style="fill:#ff7f0e;stroke:#ff7f0e;" x="259.2" xlink:href="#m0dafbd7b72" y="148.608"/>
     <use style="fill:#ff7f0e;stroke:#ff7f0e;" x="264.96" xlink:href="#m0dafbd7b72" y="142.848"/>
     <use style="fill:#ff7f0e;stroke:#ff7f0e;" x="270.72" xlink:href="#m0dafbd7b72" y="137.088"/>
     <use style="fill:#ff7f0e;stroke:#ff7f0e;" x="276.48" xlink:href="#m0dafbd7b72" y="131.328"/>
     <use style="fill:#ff7f0e;stroke:#ff7f0e;" x="282.24" xlink:href="#m0dafbd7b72" y="125.568"/>
     <use style="fill:#ff7f0e;stroke:#ff7f0e;" x="288" xlink:href="#m0dafbd7b72" y="119.808"/>
     <use style="fill:#ff7f0e;stroke:#ff7f0e;" x="293.76" xlink:href="#m0dafbd7b72" y="114.048"/>
     <use style="fill:#ff7f0e;stroke:#ff7f0e;" x="299.52" xlink:href="#m0dafbd7b72" y="108.288"/>
     <use style="fill:#ff7f0e;stroke:#ff7f0e;" x="305.28" xlink:href="#m0dafbd7b72" y="102.528"/>
     <use style="fill:#ff7f0e;stroke:#ff7f0e;" x="311.04" xlink:href="#m0dafbd7b72" y="96.768"/>
     <use style="fill:#ff7f0e;stroke:#ff7f0e;" x="316.8" xlink:href="#m0dafbd7b72" y="91.008"/>
     <use style="fill:#ff7f0e;stroke:#ff7f0e;" x="322.56" xlink:href="#m0dafbd7b72" y="171.648"/>
     <use style="fill:#ff7f0e;stroke:#ff7f0e;" x="328.32" xlink:href="#m0dafbd7b72" y="165.888"/>
     <use style="fill:#ff7f0e;stroke:#ff7f0e;" x="334.08" xlink:href="#m0dafbd7b72" y="160.128"/>
     <use style="fill:#ff7f0e;stroke:#ff7f0e;" x="339.84" xlink:href="#m0dafbd7b72" y="154.368"/>
     <use style="fill:#ff7f0e;stroke:#ff7f0e;" x="345.6" xlink:href="#m0dafbd7b72" y="148.608"/>
     <use style="fill:#ff7f0e;stroke:#ff7f0e;" x="351.36" xlink:href="#m0dafbd7b72" y="142.848"/>
     <use style="fill:#ff7f0e;stroke:#ff7f0e;" x="357.12" xlink:href="#m0dafbd7b72" y="137.088"/>
     <use style="fill:#ff7f0e;stroke:#ff7f0e;" x="362.88" xlink:href="#m0dafbd7b72" y="131.328"/>
     <use style="fill:#ff7f0e;stroke:#ff7f0e;" x="368.64" xlink:href="#m0dafbd7b72" y="125.568"/>
     <use style="fill:#ff7f0e;stroke:#ff7f0e;" x="374.4" xlink:href="#m0dafbd7b72" y="119.808"/>
     <use style="fill:#ff7f0e;stroke:#ff7f0e;" x="380.16" xlink:href="#m0dafbd7b72" y="114.048"/>
     <use style="fill:#ff7f0e;stroke:#ff7f0e;" x="385.92" xlink:href="#m0dafbd7b72" y="108.288"/>
     <use style="fill:#ff7f0e;stroke:#ff7f0e;" x="391.68" xlink:href="#m0dafbd7b72" y="102.528"/>
     <use style="fill:#ff7f0e;stroke:#ff7f0e;" x="397.44" xlink:href="#m0dafbd7b72" y="96.768"/>
     <use style="fill:#ff7f0e;stroke:#ff7f0e;" x="403.2" xlink:href="#m0dafbd7b72" y="91.008"/>
     <use style="fill:#ff7f0e;stroke:#ff7f0e;" x="408.96" xlink:href="#m0dafbd7b72" y="171.648"/>
     <use style="fill:#ff7f0e;stroke:#ff7f0e;" x="414.72" xlink:href="#m0dafbd7b72" y="165.888"/>
     <use style="fill:#ff7f0e;stroke:#ff7f0e;" x="420.48" xlink:href="#m0dafbd7b72" y="160.128"/>
     <use style="fill:#ff7f0e;stroke:#ff7f0e;" x="426.24" xlink:href="#m0dafbd7b72" y="154.368"/>
     <use style="fill:#ff7f0e;stroke:#ff7f0e;" x="432" xlink:href="#m0dafbd7b72" y="148.608"/>
    </g>
   </g>
   <g id="patch_3">
    <path d="M 57.6 266.4 
L 57.6 82.656 
" style="fill:none;stroke:#000000;stroke-linecap:square;stroke-linejoin:miter;stroke-width:0.8;"/>
   </g>
   <g id="patch_4">
    <path d="M 414.72 266.4 
L 414.72 82.656 
" style="fill:none;stroke:#000000;stroke-linecap:square;stroke-linejoin:miter;stroke-width:0.8;"/>
   </g>
   <g id="patch_5">
    <path d="M 57.6 266.4 
L 414.72 266.4 
" style="fill:none;stroke:#000000;stroke-linecap:square;stroke-linejoin:miter;stroke-width:0.8;"/>
   </g>
   <g id="patch_6">
    <path d="M 57.6 82.656 
L 414.72 82.656 
" style="fill:none;stroke:#000000;stroke-linecap:square;stroke-linejoin:miter;stroke-width:0.8;"/>
   </g>
   <g id="legend_1">
    <g id="patch_7">
     <path d="M 353.512188 261.4 
L 407.72 261.4 
Q 409.72 261.4 409.72 259.4 
L 409.72 231.04375 
Q 409.72 229.04375 407.72 229.04375 
L 353.512188 229.04375 
Q 351.512188 229.04375 351.512188 231.04375 
L 351.512188 259.4 
Q 351.512188 261.4 353.512188 261.4 
z
" style="fill:#ffffff;opacity:0.8;stroke:#cccccc;stroke-linejoin:miter;"/>
    </g>
    <g id="line2d_17"/>
    <g id="line2d_18">
     <g>
      <use style="fill:#1f77b4;stroke:#1f77b4;" x="365.512188" xlink:href="#mbf5d8a49d9" y="237.142187"/>
     </g>
    </g>
    <g id="text_15">
     <!-- fld -->
     <defs>
      <path d="M 37.109375 75.984375 
L 37.109375 68.5 
L 28.515625 68.5 
Q 23.6875 68.5 21.796875 66.546875 
Q 19.921875 64.59375 19.921875 59.515625 
L 19.921875 54.6875 
L 34.71875 54.6875 
L 34.71875 47.703125 
L 19.921875 47.703125 
L 19.921875 0 
L 10.890625 0 
L 10.890625 47.703125 
L 2.296875 47.703125 
L 2.296875 54.6875 
L 10.890625 54.6875 
L 10.890625 58.5 
Q 10.890625 67.625 15.140625 71.796875 
Q 19.390625 75.984375 28.609375 75.984375 
z
" id="DejaVuSans-66"/>
      <path d="M 9.421875 75.984375 
L 18.40625 75.984375 
L 18.40625 0 
L 9.421875 0 
z
" id="DejaVuSans-6c"/>
      <path d="M 45.40625 46.390625 
L 45.40625 75.984375 
L 54.390625 75.984375 
L 54.390625 0 
L 45.40625 0 
L 45.40625 8.203125 
Q 42.578125 3.328125 38.25 0.953125 
Q 33.9375 -1.421875 27.875 -1.421875 
Q 17.96875 -1.421875 11.734375 6.484375 
Q 5.515625 14.40625 5.515625 27.296875 
Q 5.515625 40.1875 11.734375 48.09375 
Q 17.96875 56 27.875 56 
Q 33.9375 56 38.25 53.625 
Q 42.578125 51.265625 45.40625 46.390625 
z
M 14.796875 27.296875 
Q 14.796875 17.390625 18.875 11.75 
Q 22.953125 6.109375 30.078125 6.109375 
Q 37.203125 6.109375 41.296875 11.75 
Q 45.40625 17.390625 45.40625 27.296875 
Q 45.40625 37.203125 41.296875 42.84375 
Q 37.203125 48.484375 30.078125 48.484375 
Q 22.953125 48.484375 18.875 42.84375 
Q 14.796875 37.203125 14.796875 27.296875 
z
" id="DejaVuSans-64"/>
     </defs>
     <g transform="translate(383.512188 240.642187)scale(0.1 -0.1)">
      <use xlink:href="#DejaVuSans-66"/>
      <use x="35.205078" xlink:href="#DejaVuSans-6c"/>
      <use x="62.988281" xlink:href="#DejaVuSans-64"/>
     </g>
    </g>
    <g id="line2d_19"/>
    <g id="line2d_20">
     <g>
      <use style="fill:#ff7f0e;stroke:#ff7f0e;" x="365.512188" xlink:href="#m0dafbd7b72" y="251.820312"/>
     </g>
    </g>
    <g id="text_16">
     <!-- mod -->
     <defs>
      <path d="M 52 44.1875 
Q 55.375 50.25 60.0625 53.125 
Q 64.75 56 71.09375 56 
Q 79.640625 56 84.28125 50.015625 
Q 88.921875 44.046875 88.921875 33.015625 
L 88.921875 0 
L 79.890625 0 
L 79.890625 32.71875 
Q 79.890625 40.578125 77.09375 44.375 
Q 74.3125 48.1875 68.609375 48.1875 
Q 61.625 48.1875 57.5625 43.546875 
Q 53.515625 38.921875 53.515625 30.90625 
L 53.515625 0 
L 44.484375 0 
L 44.484375 32.71875 
Q 44.484375 40.625 41.703125 44.40625 
Q 38.921875 48.1875 33.109375 48.1875 
Q 26.21875 48.1875 22.15625 43.53125 
Q 18.109375 38.875 18.109375 30.90625 
L 18.109375 0 
L 9.078125 0 
L 9.078125 54.6875 
L 18.109375 54.6875 
L 18.109375 46.1875 
Q 21.1875 51.21875 25.484375 53.609375 
Q 29.78125 56 35.6875 56 
Q 41.65625 56 45.828125 52.96875 
Q 50 49.953125 52 44.1875 
z
" id="DejaVuSans-6d"/>
      <path d="M 30.609375 48.390625 
Q 23.390625 48.390625 19.1875 42.75 
Q 14.984375 37.109375 14.984375 27.296875 
Q 14.984375 17.484375 19.15625 11.84375 
Q 23.34375 6.203125 30.609375 6.203125 
Q 37.796875 6.203125 41.984375 11.859375 
Q 46.1875 17.53125 46.1875 27.296875 
Q 46.1875 37.015625 41.984375 42.703125 
Q 37.796875 48.390625 30.609375 48.390625 
z
M 30.609375 56 
Q 42.328125 56 49.015625 48.375 
Q 55.71875 40.765625 55.71875 27.296875 
Q 55.71875 13.875 49.015625 6.21875 
Q 42.328125 -1.421875 30.609375 -1.421875 
Q 18.84375 -1.421875 12.171875 6.21875 
Q 5.515625 13.875 5.515625 27.296875 
Q 5.515625 40.765625 12.171875 48.375 
Q 18.84375 56 30.609375 56 
z
" id="DejaVuSans-6f"/>
     </defs>
     <g transform="translate(383.512188 255.320312)scale(0.1 -0.1)">
      <use xlink:href="#DejaVuSans-6d"/>
      <use x="97.412109" xlink:href="#DejaVuSans-6f"/>
      <use x="158.59375" xlink:href="#DejaVuSans-64"/>
     </g>
    </g>
   </g>
  </g>
 </g>
 <defs>
  <clipPath id="p1a38e8457a">
   <rect height="183.744" width="357.12" x="57.6" y="82.656"/>
  </clipPath>
 </defs>
</svg>
