<?xml version="1.0" encoding="utf-8" standalone="no"?>
<!DOCTYPE svg PUBLIC "-//W3C//DTD SVG 1.1//EN"
  "http://www.w3.org/Graphics/SVG/1.1/DTD/svg11.dtd">
<!-- Created with matplotlib (http://matplotlib.org/) -->
<svg height="345.6pt" version="1.1" viewBox="0 0 460.8 345.6" width="460.8pt" xmlns="http://www.w3.org/2000/svg" xmlns:xlink="http://www.w3.org/1999/xlink">
 <defs>
  <style type="text/css">
*{stroke-linecap:butt;stroke-linejoin:round;}
  </style>
 </defs>
 <g id="figure_1">
  <g id="patch_1">
   <path d="M 0 345.6 
L 460.8 345.6 
L 460.8 0 
L 0 0 
z
" style="fill:#ffffff;"/>
  </g>
  <g id="axes_1">
   <g id="patch_2">
    <path d="M 57.6 307.584 
L 414.72 307.584 
L 414.72 41.472 
L 57.6 41.472 
z
" style="fill:#ffffff;"/>
   </g>
   <g id="matplotlib.axis_1">
    <g id="xtick_1">
     <g id="line2d_1">
      <defs>
       <path d="M 0 0 
L 0 3.5 
" id="mc4c8c36e3f" style="stroke:#000000;stroke-width:0.8;"/>
      </defs>
      <g>
       <use style="stroke:#000000;stroke-width:0.8;" x="73.832727" xlink:href="#mc4c8c36e3f" y="307.584"/>
      </g>
     </g>
     <g id="text_1">
      <!-- $-3\pi$ -->
      <defs>
       <path d="M 10.59375 35.5 
L 73.1875 35.5 
L 73.1875 27.203125 
L 10.59375 27.203125 
z
" id="DejaVuSans-2212"/>
       <path d="M 40.578125 39.3125 
Q 47.65625 37.796875 51.625 33 
Q 55.609375 28.21875 55.609375 21.1875 
Q 55.609375 10.40625 48.1875 4.484375 
Q 40.765625 -1.421875 27.09375 -1.421875 
Q 22.515625 -1.421875 17.65625 -0.515625 
Q 12.796875 0.390625 7.625 2.203125 
L 7.625 11.71875 
Q 11.71875 9.328125 16.59375 8.109375 
Q 21.484375 6.890625 26.8125 6.890625 
Q 36.078125 6.890625 40.9375 10.546875 
Q 45.796875 14.203125 45.796875 21.1875 
Q 45.796875 27.640625 41.28125 31.265625 
Q 36.765625 34.90625 28.71875 34.90625 
L 20.21875 34.90625 
L 20.21875 43.015625 
L 29.109375 43.015625 
Q 36.375 43.015625 40.234375 45.921875 
Q 44.09375 48.828125 44.09375 54.296875 
Q 44.09375 59.90625 40.109375 62.90625 
Q 36.140625 65.921875 28.71875 65.921875 
Q 24.65625 65.921875 20.015625 65.03125 
Q 15.375 64.15625 9.8125 62.3125 
L 9.8125 71.09375 
Q 15.4375 72.65625 20.34375 73.4375 
Q 25.25 74.21875 29.59375 74.21875 
Q 40.828125 74.21875 47.359375 69.109375 
Q 53.90625 64.015625 53.90625 55.328125 
Q 53.90625 49.265625 50.4375 45.09375 
Q 46.96875 40.921875 40.578125 39.3125 
z
" id="DejaVuSans-33"/>
       <path d="M 9.125 54.6875 
L 61.53125 54.6875 
L 59.765625 45.703125 
L 52.875 45.703125 
L 46.34375 12.109375 
Q 45.65625 8.59375 46.578125 7.03125 
Q 47.46875 5.515625 50.140625 5.515625 
Q 50.875 5.515625 51.953125 5.671875 
Q 53.078125 5.765625 53.421875 5.8125 
L 52.15625 -0.6875 
Q 50.34375 -1.3125 48.484375 -1.609375 
Q 46.578125 -1.90625 44.78125 -1.90625 
Q 38.921875 -1.90625 37.3125 1.265625 
Q 35.6875 4.5 37.359375 13.09375 
L 43.703125 45.703125 
L 23.53125 45.703125 
L 14.65625 0 
L 5.46875 0 
L 14.359375 45.703125 
L 7.375 45.703125 
z
" id="DejaVuSans-Oblique-3c0"/>
      </defs>
      <g transform="translate(63.432727 322.182437)scale(0.1 -0.1)">
       <use transform="translate(0 0.78125)" xlink:href="#DejaVuSans-2212"/>
       <use transform="translate(83.789062 0.78125)" xlink:href="#DejaVuSans-33"/>
       <use transform="translate(147.412109 0.78125)" xlink:href="#DejaVuSans-Oblique-3c0"/>
      </g>
     </g>
    </g>
    <g id="xtick_2">
     <g id="line2d_2">
      <g>
       <use style="stroke:#000000;stroke-width:0.8;" x="127.941818" xlink:href="#mc4c8c36e3f" y="307.584"/>
      </g>
     </g>
     <g id="text_2">
      <!-- $-2\pi$ -->
      <defs>
       <path d="M 19.1875 8.296875 
L 53.609375 8.296875 
L 53.609375 0 
L 7.328125 0 
L 7.328125 8.296875 
Q 12.9375 14.109375 22.625 23.890625 
Q 32.328125 33.6875 34.8125 36.53125 
Q 39.546875 41.84375 41.421875 45.53125 
Q 43.3125 49.21875 43.3125 52.78125 
Q 43.3125 58.59375 39.234375 62.25 
Q 35.15625 65.921875 28.609375 65.921875 
Q 23.96875 65.921875 18.8125 64.3125 
Q 13.671875 62.703125 7.8125 59.421875 
L 7.8125 69.390625 
Q 13.765625 71.78125 18.9375 73 
Q 24.125 74.21875 28.421875 74.21875 
Q 39.75 74.21875 46.484375 68.546875 
Q 53.21875 62.890625 53.21875 53.421875 
Q 53.21875 48.921875 51.53125 44.890625 
Q 49.859375 40.875 45.40625 35.40625 
Q 44.1875 33.984375 37.640625 27.21875 
Q 31.109375 20.453125 19.1875 8.296875 
z
" id="DejaVuSans-32"/>
      </defs>
      <g transform="translate(117.541818 322.182437)scale(0.1 -0.1)">
       <use transform="translate(0 0.78125)" xlink:href="#DejaVuSans-2212"/>
       <use transform="translate(83.789062 0.78125)" xlink:href="#DejaVuSans-32"/>
       <use transform="translate(147.412109 0.78125)" xlink:href="#DejaVuSans-Oblique-3c0"/>
      </g>
     </g>
    </g>
    <g id="xtick_3">
     <g id="line2d_3">
      <g>
       <use style="stroke:#000000;stroke-width:0.8;" x="182.050909" xlink:href="#mc4c8c36e3f" y="307.584"/>
      </g>
     </g>
     <g id="text_3">
      <!-- $-\pi$ -->
      <g transform="translate(174.850909 322.182437)scale(0.1 -0.1)">
       <use transform="translate(0 0.3125)" xlink:href="#DejaVuSans-2212"/>
       <use transform="translate(83.789062 0.3125)" xlink:href="#DejaVuSans-Oblique-3c0"/>
      </g>
     </g>
    </g>
    <g id="xtick_4">
     <g id="line2d_4">
      <g>
       <use style="stroke:#000000;stroke-width:0.8;" x="236.16" xlink:href="#mc4c8c36e3f" y="307.584"/>
      </g>
     </g>
     <g id="text_4">
      <!-- 0 -->
      <defs>
       <path d="M 31.78125 66.40625 
Q 24.171875 66.40625 20.328125 58.90625 
Q 16.5 51.421875 16.5 36.375 
Q 16.5 21.390625 20.328125 13.890625 
Q 24.171875 6.390625 31.78125 6.390625 
Q 39.453125 6.390625 43.28125 13.890625 
Q 47.125 21.390625 47.125 36.375 
Q 47.125 51.421875 43.28125 58.90625 
Q 39.453125 66.40625 31.78125 66.40625 
z
M 31.78125 74.21875 
Q 44.046875 74.21875 50.515625 64.515625 
Q 56.984375 54.828125 56.984375 36.375 
Q 56.984375 17.96875 50.515625 8.265625 
Q 44.046875 -1.421875 31.78125 -1.421875 
Q 19.53125 -1.421875 13.0625 8.265625 
Q 6.59375 17.96875 6.59375 36.375 
Q 6.59375 54.828125 13.0625 64.515625 
Q 19.53125 74.21875 31.78125 74.21875 
z
" id="DejaVuSans-30"/>
      </defs>
      <g transform="translate(232.97875 322.182437)scale(0.1 -0.1)">
       <use xlink:href="#DejaVuSans-30"/>
      </g>
     </g>
    </g>
    <g id="xtick_5">
     <g id="line2d_5">
      <g>
       <use style="stroke:#000000;stroke-width:0.8;" x="290.269091" xlink:href="#mc4c8c36e3f" y="307.584"/>
      </g>
     </g>
     <g id="text_5">
      <!-- $\pi$ -->
      <g transform="translate(287.219091 322.182437)scale(0.1 -0.1)">
       <use transform="translate(0 0.3125)" xlink:href="#DejaVuSans-Oblique-3c0"/>
      </g>
     </g>
    </g>
    <g id="xtick_6">
     <g id="line2d_6">
      <g>
       <use style="stroke:#000000;stroke-width:0.8;" x="344.378182" xlink:href="#mc4c8c36e3f" y="307.584"/>
      </g>
     </g>
     <g id="text_6">
      <!-- $2\pi$ -->
      <g transform="translate(338.178182 322.182437)scale(0.1 -0.1)">
       <use transform="translate(0 0.78125)" xlink:href="#DejaVuSans-32"/>
       <use transform="translate(63.623047 0.78125)" xlink:href="#DejaVuSans-Oblique-3c0"/>
      </g>
     </g>
    </g>
    <g id="xtick_7">
     <g id="line2d_7">
      <g>
       <use style="stroke:#000000;stroke-width:0.8;" x="398.487273" xlink:href="#mc4c8c36e3f" y="307.584"/>
      </g>
     </g>
     <g id="text_7">
      <!-- $3\pi$ -->
      <g transform="translate(392.287273 322.182437)scale(0.1 -0.1)">
       <use transform="translate(0 0.78125)" xlink:href="#DejaVuSans-33"/>
       <use transform="translate(63.623047 0.78125)" xlink:href="#DejaVuSans-Oblique-3c0"/>
      </g>
     </g>
    </g>
   </g>
   <g id="matplotlib.axis_2">
    <g id="ytick_1">
     <g id="line2d_8">
      <defs>
       <path d="M 0 0 
L -3.5 0 
" id="m86902c7f55" style="stroke:#000000;stroke-width:0.8;"/>
      </defs>
      <g>
       <use style="stroke:#000000;stroke-width:0.8;" x="57.6" xlink:href="#m86902c7f55" y="279.168958"/>
      </g>
     </g>
     <g id="text_8">
      <!-- -1 -->
      <defs>
       <path d="M 4.890625 31.390625 
L 31.203125 31.390625 
L 31.203125 23.390625 
L 4.890625 23.390625 
z
" id="DejaVuSans-2d"/>
       <path d="M 12.40625 8.296875 
L 28.515625 8.296875 
L 28.515625 63.921875 
L 10.984375 60.40625 
L 10.984375 69.390625 
L 28.421875 72.90625 
L 38.28125 72.90625 
L 38.28125 8.296875 
L 54.390625 8.296875 
L 54.390625 0 
L 12.40625 0 
z
" id="DejaVuSans-31"/>
      </defs>
      <g transform="translate(40.629688 282.968177)scale(0.1 -0.1)">
       <use xlink:href="#DejaVuSans-2d"/>
       <use x="36.083984" xlink:href="#DejaVuSans-31"/>
      </g>
     </g>
    </g>
    <g id="ytick_2">
     <g id="line2d_9">
      <g>
       <use style="stroke:#000000;stroke-width:0.8;" x="57.6" xlink:href="#m86902c7f55" y="174.528"/>
      </g>
     </g>
     <g id="text_9">
      <!-- 0 -->
      <g transform="translate(44.2375 178.327219)scale(0.1 -0.1)">
       <use xlink:href="#DejaVuSans-30"/>
      </g>
     </g>
    </g>
    <g id="ytick_3">
     <g id="line2d_10">
      <g>
       <use style="stroke:#000000;stroke-width:0.8;" x="57.6" xlink:href="#m86902c7f55" y="69.887042"/>
      </g>
     </g>
     <g id="text_10">
      <!-- 1 -->
      <g transform="translate(44.2375 73.686261)scale(0.1 -0.1)">
       <use xlink:href="#DejaVuSans-31"/>
      </g>
     </g>
    </g>
   </g>
   <g id="line2d_11">
    <path clip-path="url(#pa9734799a9)" d="M 73.832727 174.528 
L 75.335758 249.490708 
L 76.838788 292.203354 
L 78.341818 295.488 
L 79.844848 279.155074 
L 81.347879 268.80673 
L 82.850909 273.626796 
L 84.353939 283.778146 
L 85.85697 286.20512 
L 88.86303 273.520999 
L 90.366061 275.256372 
L 91.869091 281.704093 
L 93.372121 284.33252 
L 94.875152 280.168847 
L 96.378182 274.972837 
L 97.881212 275.449026 
L 99.384242 280.766995 
L 100.887273 283.903587 
L 102.390303 280.766995 
L 103.893333 275.449026 
L 105.396364 274.972837 
L 106.899394 280.168847 
L 108.402424 284.33252 
L 109.905455 281.704093 
L 111.408485 275.256372 
L 112.911515 273.520999 
L 114.414545 279.62612 
L 115.917576 286.20512 
L 117.420606 283.778146 
L 118.923636 273.626796 
L 120.426667 268.80673 
L 121.929697 279.155074 
L 123.432727 295.488 
L 124.935758 292.203354 
L 126.438788 249.490708 
L 129.444848 99.565292 
L 130.947879 56.852646 
L 132.450909 53.568 
L 133.953939 69.900926 
L 135.45697 80.24927 
L 136.96 75.429204 
L 138.46303 65.277854 
L 139.966061 62.85088 
L 142.972121 75.535001 
L 144.475152 73.799628 
L 145.978182 67.351907 
L 147.481212 64.72348 
L 148.984242 68.887153 
L 150.487273 74.083163 
L 151.990303 73.606974 
L 153.493333 68.289005 
L 154.996364 65.152413 
L 156.499394 68.289005 
L 158.002424 73.606974 
L 159.505455 74.083163 
L 161.008485 68.887153 
L 162.511515 64.72348 
L 164.014545 67.351907 
L 165.517576 73.799628 
L 167.020606 75.535001 
L 168.523636 69.42988 
L 170.026667 62.85088 
L 171.529697 65.277854 
L 173.032727 75.429204 
L 174.535758 80.24927 
L 176.038788 69.900926 
L 177.541818 53.568 
L 179.044848 56.852646 
L 180.547879 99.565292 
L 183.553939 249.490708 
L 185.05697 292.203354 
L 186.56 295.488 
L 188.06303 279.155074 
L 189.566061 268.80673 
L 191.069091 273.626796 
L 192.572121 283.778146 
L 194.075152 286.20512 
L 197.081212 273.520999 
L 198.584242 275.256372 
L 200.087273 281.704093 
L 201.590303 284.33252 
L 203.093333 280.168847 
L 204.596364 274.972837 
L 206.099394 275.449026 
L 207.602424 280.766995 
L 209.105455 283.903587 
L 210.608485 280.766995 
L 212.111515 275.449026 
L 213.614545 274.972837 
L 215.117576 280.168847 
L 216.620606 284.33252 
L 218.123636 281.704093 
L 219.626667 275.256372 
L 221.129697 273.520999 
L 222.632727 279.62612 
L 224.135758 286.20512 
L 225.638788 283.778146 
L 227.141818 273.626796 
L 228.644848 268.80673 
L 230.147879 279.155074 
L 231.650909 295.488 
L 233.153939 292.203354 
L 234.65697 249.490708 
L 237.66303 99.565292 
L 239.166061 56.852646 
L 240.669091 53.568 
L 242.172121 69.900926 
L 243.675152 80.24927 
L 245.178182 75.429204 
L 246.681212 65.277854 
L 248.184242 62.85088 
L 251.190303 75.535001 
L 252.693333 73.799628 
L 254.196364 67.351907 
L 255.699394 64.72348 
L 257.202424 68.887153 
L 258.705455 74.083163 
L 260.208485 73.606974 
L 261.711515 68.289005 
L 263.214545 65.152413 
L 264.717576 68.289005 
L 266.220606 73.606974 
L 267.723636 74.083163 
L 269.226667 68.887153 
L 270.729697 64.72348 
L 272.232727 67.351907 
L 273.735758 73.799628 
L 275.238788 75.535001 
L 276.741818 69.42988 
L 278.244848 62.85088 
L 279.747879 65.277854 
L 281.250909 75.429204 
L 282.753939 80.24927 
L 284.25697 69.900926 
L 285.76 53.568 
L 287.26303 56.852646 
L 288.766061 99.565292 
L 291.772121 249.490708 
L 293.275152 292.203354 
L 294.778182 295.488 
L 296.281212 279.155074 
L 297.784242 268.80673 
L 299.287273 273.626796 
L 300.790303 283.778146 
L 302.293333 286.20512 
L 305.299394 273.520999 
L 306.802424 275.256372 
L 308.305455 281.704093 
L 309.808485 284.33252 
L 311.311515 280.168847 
L 312.814545 274.972837 
L 314.317576 275.449026 
L 315.820606 280.766995 
L 317.323636 283.903587 
L 318.826667 280.766995 
L 320.329697 275.449026 
L 321.832727 274.972837 
L 323.335758 280.168847 
L 324.838788 284.33252 
L 326.341818 281.704093 
L 327.844848 275.256372 
L 329.347879 273.520999 
L 330.850909 279.62612 
L 332.353939 286.20512 
L 333.85697 283.778146 
L 335.36 273.626796 
L 336.86303 268.80673 
L 338.366061 279.155074 
L 339.869091 295.488 
L 341.372121 292.203354 
L 342.875152 249.490708 
L 345.881212 99.565292 
L 347.384242 56.852646 
L 348.887273 53.568 
L 350.390303 69.900926 
L 351.893333 80.24927 
L 353.396364 75.429204 
L 354.899394 65.277854 
L 356.402424 62.85088 
L 359.408485 75.535001 
L 360.911515 73.799628 
L 362.414545 67.351907 
L 363.917576 64.72348 
L 365.420606 68.887153 
L 366.923636 74.083163 
L 368.426667 73.606974 
L 369.929697 68.289005 
L 371.432727 65.152413 
L 372.935758 68.289005 
L 374.438788 73.606974 
L 375.941818 74.083163 
L 377.444848 68.887153 
L 378.947879 64.72348 
L 380.450909 67.351907 
L 381.953939 73.799628 
L 383.45697 75.535001 
L 384.96 69.42988 
L 386.46303 62.85088 
L 387.966061 65.277854 
L 389.469091 75.429204 
L 390.972121 80.24927 
L 392.475152 69.900926 
L 393.978182 53.568 
L 395.481212 56.852646 
L 396.984242 99.565292 
L 398.487273 174.528 
L 398.487273 174.528 
" style="fill:none;stroke:#1f77b4;stroke-linecap:square;stroke-width:1.5;"/>
   </g>
   <g id="line2d_12">
    <path clip-path="url(#pa9734799a9)" d="M 73.832727 279.168958 
L 126.438788 279.168958 
L 127.941818 69.887042 
L 180.547879 69.887042 
L 182.050909 279.168958 
L 236.16 279.168958 
L 237.66303 69.887042 
L 290.269091 69.887042 
L 291.772121 279.168958 
L 344.378182 279.168958 
L 345.881212 69.887042 
L 398.487273 69.887042 
L 398.487273 69.887042 
" style="fill:none;stroke:#ff7f0e;stroke-linecap:square;stroke-width:1.5;"/>
   </g>
   <g id="patch_3">
    <path d="M 57.6 307.584 
L 57.6 41.472 
" style="fill:none;stroke:#000000;stroke-linecap:square;stroke-linejoin:miter;stroke-width:0.8;"/>
   </g>
   <g id="patch_4">
    <path d="M 414.72 307.584 
L 414.72 41.472 
" style="fill:none;stroke:#000000;stroke-linecap:square;stroke-linejoin:miter;stroke-width:0.8;"/>
   </g>
   <g id="patch_5">
    <path d="M 57.6 307.584 
L 414.72 307.584 
" style="fill:none;stroke:#000000;stroke-linecap:square;stroke-linejoin:miter;stroke-width:0.8;"/>
   </g>
   <g id="patch_6">
    <path d="M 57.6 41.472 
L 414.72 41.472 
" style="fill:none;stroke:#000000;stroke-linecap:square;stroke-linejoin:miter;stroke-width:0.8;"/>
   </g>
  </g>
 </g>
 <defs>
  <clipPath id="pa9734799a9">
   <rect height="266.112" width="357.12" x="57.6" y="41.472"/>
  </clipPath>
 </defs>
</svg>
